<svg width="85" height="44" viewBox="0 0 85 44" fill="none" xmlns="http://www.w3.org/2000/svg">
<g clip-path="url(#clip0_1_120)">
<path d="M14.6604 23.5715H11.2971L10.4475 25.9914H9.34009L12.4573 17.5363H13.5003L16.6175 25.9914H15.51L14.6604 23.5715ZM11.6077 22.675H14.3499L13.0257 18.9016H12.9319L11.6077 22.675ZM21.7063 21.6086C21.5422 20.9816 20.9856 20.4719 20.0774 20.4719C18.9407 20.4719 18.2258 21.3801 18.2258 22.8098C18.2258 24.2688 18.9524 25.1946 20.0774 25.1946C20.927 25.1946 21.5188 24.802 21.7063 24.0872H22.7258C22.5442 25.2474 21.6008 26.1028 20.0832 26.1028C18.3137 26.1028 17.1828 24.8196 17.1828 22.8098C17.1828 20.841 18.3078 19.5637 20.0773 19.5637C21.6125 19.5637 22.55 20.4836 22.7257 21.6086H21.7063ZM28.301 21.6086C28.1369 20.9816 27.5803 20.4719 26.6721 20.4719C25.5354 20.4719 24.8205 21.3801 24.8205 22.8098C24.8205 24.2688 25.5471 25.1946 26.6721 25.1946C27.5217 25.1946 28.1135 24.802 28.301 24.0872H29.3205C29.1389 25.2474 28.1955 26.1028 26.6779 26.1028C24.9084 26.1028 23.7775 24.8196 23.7775 22.8098C23.7775 20.841 24.9025 19.5637 26.672 19.5637C28.2072 19.5637 29.1447 20.4836 29.3204 21.6086H28.301ZM35.8806 24.3566C35.5876 25.4347 34.6033 26.1027 33.2204 26.1027C31.4684 26.1027 30.3727 24.8371 30.3727 22.839C30.3727 20.8527 31.486 19.5636 33.2204 19.5636C34.9255 19.5636 35.9626 20.7765 35.9626 22.7394V23.1261H31.4216V23.173C31.4743 24.421 32.1716 25.2121 33.2439 25.2121C34.0584 25.2121 34.6091 24.9133 34.8728 24.3566H35.8806ZM31.4216 22.3117H34.9021C34.8787 21.1926 34.2107 20.4543 33.2087 20.4543C32.2009 20.4543 31.4978 21.1926 31.4216 22.3117ZM39.6336 19.5637C40.9578 19.5637 41.8777 20.2199 42.0125 21.2571H41.0164C40.8816 20.7532 40.3894 20.4192 39.6277 20.4192C38.8777 20.4192 38.2918 20.8001 38.2918 21.3626C38.2918 21.7962 38.6434 22.0657 39.3875 22.2474L40.3602 22.4818C41.5497 22.7689 42.1239 23.2845 42.1239 24.1927C42.1239 25.3236 41.0282 26.1029 39.5927 26.1029C38.1865 26.1029 37.2197 25.4291 37.1083 24.3802H38.1454C38.3153 24.9134 38.8192 25.2532 39.6278 25.2532C40.4774 25.2532 41.0868 24.8489 41.0868 24.2688C41.0868 23.8352 40.7587 23.5422 40.0848 23.3782L39.0008 23.1145C37.8172 22.8274 37.2781 22.3176 37.2781 21.4036C37.2781 20.3547 38.2918 19.5637 39.6336 19.5637ZM45.6775 19.5637C47.0017 19.5637 47.9216 20.2199 48.0564 21.2571H47.0603C46.9255 20.7532 46.4333 20.4192 45.6716 20.4192C44.9216 20.4192 44.3357 20.8001 44.3357 21.3626C44.3357 21.7962 44.6873 22.0657 45.4314 22.2474L46.4041 22.4818C47.5936 22.7689 48.1678 23.2845 48.1678 24.1927C48.1678 25.3236 47.0721 26.1029 45.6366 26.1029C44.2304 26.1029 43.2636 25.4291 43.1522 24.3802H44.1893C44.3592 24.9134 44.8631 25.2532 45.6717 25.2532C46.5213 25.2532 47.1307 24.8489 47.1307 24.2688C47.1307 23.8352 46.8026 23.5422 46.1287 23.3782L45.0447 23.1145C43.8611 22.8274 43.322 22.3176 43.322 21.4036C43.322 20.3547 44.3357 19.5637 45.6775 19.5637ZM49.3132 22.8332C49.3132 20.8 50.4265 19.5637 52.2253 19.5637C54.0241 19.5637 55.1374 20.8 55.1374 22.8332C55.1374 24.8605 54.0241 26.1027 52.2253 26.1027C50.4265 26.1027 49.3132 24.8605 49.3132 22.8332ZM54.0945 22.8332C54.0945 21.3332 53.4207 20.4719 52.2254 20.4719C51.0301 20.4719 50.3563 21.3332 50.3563 22.8332C50.3563 24.3273 51.0301 25.1945 52.2254 25.1945C53.4207 25.1945 54.0945 24.3273 54.0945 22.8332ZM56.5999 19.675H57.5608V20.6125H57.6546C57.8421 19.9973 58.5687 19.5637 59.4066 19.5637C59.5707 19.5637 59.7816 19.5754 59.9105 19.593V20.6008C59.8285 20.5774 59.4652 20.5422 59.266 20.5422C58.3051 20.5422 57.6078 21.1867 57.6078 22.0774V25.9915H56.6L56.5999 19.675ZM60.8743 17.7531C60.8743 17.3664 61.1907 17.05 61.5774 17.05C61.9641 17.05 62.2805 17.3664 62.2805 17.7531C62.2805 18.1398 61.9641 18.4562 61.5774 18.4562C61.1907 18.4562 60.8743 18.1398 60.8743 17.7531ZM61.0735 19.675H62.0813V25.9914H61.0735V19.675ZM69.0745 24.3566C68.7815 25.4347 67.7972 26.1027 66.4143 26.1027C64.6623 26.1027 63.5666 24.8371 63.5666 22.839C63.5666 20.8527 64.6799 19.5636 66.4143 19.5636C68.1194 19.5636 69.1565 20.7765 69.1565 22.7394V23.1261H64.6155V23.173C64.6682 24.421 65.3655 25.2121 66.4378 25.2121C67.2523 25.2121 67.803 24.9133 68.0667 24.3566H69.0745ZM64.6155 22.3117H68.096C68.0726 21.1926 67.4046 20.4543 66.4026 20.4543C65.3948 20.4543 64.6917 21.1926 64.6155 22.3117ZM72.8274 19.5637C74.1516 19.5637 75.0715 20.2199 75.2063 21.2571H74.2102C74.0754 20.7532 73.5832 20.4192 72.8215 20.4192C72.0715 20.4192 71.4856 20.8001 71.4856 21.3626C71.4856 21.7962 71.8372 22.0657 72.5813 22.2474L73.554 22.4818C74.7435 22.7689 75.3177 23.2845 75.3177 24.1927C75.3177 25.3236 74.222 26.1029 72.7865 26.1029C71.3803 26.1029 70.4135 25.4291 70.3021 24.3802H71.3392C71.5091 24.9134 72.013 25.2532 72.8216 25.2532C73.6712 25.2532 74.2806 24.8489 74.2806 24.2688C74.2806 23.8352 73.9525 23.5422 73.2786 23.3782L72.1946 23.1145C71.011 22.8274 70.4719 22.3176 70.4719 21.4036C70.4719 20.3547 71.4856 19.5637 72.8274 19.5637Z" fill="black" fill-opacity="0.8"/>
</g>
<g clip-path="url(#clip1_1_120)">
<path d="M11.412 22.46H14.316L12.888 18.464H12.864L11.412 22.46ZM12.264 17.432H13.524L16.872 26H15.612L14.676 23.42H11.052L10.092 26H8.928L12.264 17.432ZM21.6413 21.788C21.5613 21.396 21.3933 21.092 21.1373 20.876C20.8813 20.66 20.5373 20.552 20.1053 20.552C19.7373 20.552 19.4293 20.62 19.1813 20.756C18.9333 20.892 18.7333 21.072 18.5813 21.296C18.4373 21.52 18.3333 21.78 18.2693 22.076C18.2053 22.364 18.1733 22.664 18.1733 22.976C18.1733 23.264 18.2053 23.544 18.2693 23.816C18.3413 24.088 18.4493 24.332 18.5933 24.548C18.7373 24.756 18.9253 24.924 19.1573 25.052C19.3893 25.18 19.6653 25.244 19.9853 25.244C20.4893 25.244 20.8813 25.112 21.1613 24.848C21.4493 24.584 21.6253 24.212 21.6893 23.732H22.7333C22.6213 24.5 22.3333 25.092 21.8693 25.508C21.4133 25.924 20.7893 26.132 19.9973 26.132C19.5253 26.132 19.1053 26.056 18.7373 25.904C18.3773 25.752 18.0733 25.536 17.8253 25.256C17.5853 24.976 17.4013 24.644 17.2733 24.26C17.1533 23.868 17.0933 23.44 17.0933 22.976C17.0933 22.512 17.1533 22.08 17.2733 21.68C17.3933 21.272 17.5733 20.92 17.8133 20.624C18.0613 20.32 18.3693 20.084 18.7373 19.916C19.1053 19.74 19.5333 19.652 20.0213 19.652C20.3733 19.652 20.7013 19.696 21.0053 19.784C21.3173 19.864 21.5893 19.992 21.8213 20.168C22.0613 20.344 22.2573 20.568 22.4093 20.84C22.5613 21.104 22.6573 21.42 22.6973 21.788H21.6413ZM27.9666 21.788C27.8866 21.396 27.7186 21.092 27.4626 20.876C27.2066 20.66 26.8626 20.552 26.4306 20.552C26.0626 20.552 25.7546 20.62 25.5066 20.756C25.2586 20.892 25.0586 21.072 24.9066 21.296C24.7626 21.52 24.6586 21.78 24.5946 22.076C24.5306 22.364 24.4986 22.664 24.4986 22.976C24.4986 23.264 24.5306 23.544 24.5946 23.816C24.6666 24.088 24.7746 24.332 24.9186 24.548C25.0626 24.756 25.2506 24.924 25.4826 25.052C25.7146 25.18 25.9906 25.244 26.3106 25.244C26.8146 25.244 27.2066 25.112 27.4866 24.848C27.7746 24.584 27.9506 24.212 28.0146 23.732H29.0586C28.9466 24.5 28.6586 25.092 28.1946 25.508C27.7386 25.924 27.1146 26.132 26.3226 26.132C25.8506 26.132 25.4306 26.056 25.0626 25.904C24.7026 25.752 24.3986 25.536 24.1506 25.256C23.9106 24.976 23.7266 24.644 23.5986 24.26C23.4786 23.868 23.4186 23.44 23.4186 22.976C23.4186 22.512 23.4786 22.08 23.5986 21.68C23.7186 21.272 23.8986 20.92 24.1386 20.624C24.3866 20.32 24.6946 20.084 25.0626 19.916C25.4306 19.74 25.8586 19.652 26.3466 19.652C26.6986 19.652 27.0266 19.696 27.3306 19.784C27.6426 19.864 27.9146 19.992 28.1466 20.168C28.3866 20.344 28.5826 20.568 28.7346 20.84C28.8866 21.104 28.9826 21.42 29.0226 21.788H27.9666ZM34.3879 22.304C34.3719 22.064 34.3159 21.836 34.2199 21.62C34.1319 21.404 34.0079 21.22 33.8479 21.068C33.6959 20.908 33.5119 20.784 33.2959 20.696C33.0879 20.6 32.8559 20.552 32.5999 20.552C32.3359 20.552 32.0959 20.6 31.8799 20.696C31.6719 20.784 31.4919 20.908 31.3399 21.068C31.1879 21.228 31.0679 21.416 30.9799 21.632C30.8919 21.84 30.8399 22.064 30.8239 22.304H34.3879ZM35.3719 24.032C35.2359 24.728 34.9359 25.252 34.4719 25.604C34.0079 25.956 33.4239 26.132 32.7199 26.132C32.2239 26.132 31.7919 26.052 31.4239 25.892C31.0639 25.732 30.7599 25.508 30.5119 25.22C30.2639 24.932 30.0759 24.588 29.9479 24.188C29.8279 23.788 29.7599 23.352 29.7439 22.88C29.7439 22.408 29.8159 21.976 29.9599 21.584C30.1039 21.192 30.3039 20.852 30.5599 20.564C30.8239 20.276 31.1319 20.052 31.4839 19.892C31.8439 19.732 32.2359 19.652 32.6599 19.652C33.2119 19.652 33.6679 19.768 34.0279 20C34.3959 20.224 34.6879 20.512 34.9039 20.864C35.1279 21.216 35.2799 21.6 35.3599 22.016C35.4479 22.432 35.4839 22.828 35.4679 23.204H30.8239C30.8159 23.476 30.8479 23.736 30.9199 23.984C30.9919 24.224 31.1079 24.44 31.2679 24.632C31.4279 24.816 31.6319 24.964 31.8799 25.076C32.1279 25.188 32.4199 25.244 32.7559 25.244C33.1879 25.244 33.5399 25.144 33.8119 24.944C34.0919 24.744 34.2759 24.44 34.3639 24.032H35.3719ZM37.0292 24.044C37.0372 24.268 37.0892 24.46 37.1852 24.62C37.2812 24.772 37.4052 24.896 37.5572 24.992C37.7172 25.08 37.8932 25.144 38.0852 25.184C38.2852 25.224 38.4892 25.244 38.6972 25.244C38.8572 25.244 39.0252 25.232 39.2012 25.208C39.3772 25.184 39.5372 25.14 39.6812 25.076C39.8332 25.012 39.9572 24.92 40.0532 24.8C40.1492 24.672 40.1972 24.512 40.1972 24.32C40.1972 24.056 40.0972 23.856 39.8972 23.72C39.6972 23.584 39.4452 23.476 39.1412 23.396C38.8452 23.308 38.5212 23.232 38.1692 23.168C37.8172 23.096 37.4892 23 37.1852 22.88C36.8892 22.752 36.6412 22.576 36.4412 22.352C36.2412 22.128 36.1412 21.816 36.1412 21.416C36.1412 21.104 36.2092 20.836 36.3452 20.612C36.4892 20.388 36.6692 20.208 36.8852 20.072C37.1092 19.928 37.3572 19.824 37.6292 19.76C37.9092 19.688 38.1852 19.652 38.4572 19.652C38.8092 19.652 39.1332 19.684 39.4292 19.748C39.7252 19.804 39.9852 19.908 40.2092 20.06C40.4412 20.204 40.6252 20.404 40.7612 20.66C40.8972 20.908 40.9772 21.22 41.0012 21.596H39.9812C39.9652 21.396 39.9132 21.232 39.8252 21.104C39.7372 20.968 39.6252 20.86 39.4892 20.78C39.3532 20.7 39.2012 20.644 39.0332 20.612C38.8732 20.572 38.7092 20.552 38.5412 20.552C38.3892 20.552 38.2332 20.564 38.0732 20.588C37.9212 20.612 37.7812 20.656 37.6532 20.72C37.5252 20.776 37.4212 20.856 37.3412 20.96C37.2612 21.056 37.2212 21.184 37.2212 21.344C37.2212 21.52 37.2812 21.668 37.4012 21.788C37.5292 21.9 37.6892 21.996 37.8812 22.076C38.0732 22.148 38.2892 22.212 38.5292 22.268C38.7692 22.316 39.0092 22.368 39.2492 22.424C39.5052 22.48 39.7532 22.548 39.9932 22.628C40.2412 22.708 40.4572 22.816 40.6412 22.952C40.8332 23.08 40.9852 23.244 41.0972 23.444C41.2172 23.644 41.2772 23.892 41.2772 24.188C41.2772 24.564 41.1972 24.876 41.0372 25.124C40.8852 25.372 40.6812 25.572 40.4252 25.724C40.1772 25.876 39.8932 25.98 39.5732 26.036C39.2612 26.1 38.9492 26.132 38.6372 26.132C38.2932 26.132 37.9652 26.096 37.6532 26.024C37.3412 25.952 37.0652 25.836 36.8252 25.676C36.5852 25.508 36.3932 25.292 36.2492 25.028C36.1052 24.756 36.0252 24.428 36.0092 24.044H37.0292ZM42.9092 24.044C42.9172 24.268 42.9692 24.46 43.0652 24.62C43.1612 24.772 43.2852 24.896 43.4372 24.992C43.5972 25.08 43.7732 25.144 43.9652 25.184C44.1652 25.224 44.3692 25.244 44.5772 25.244C44.7372 25.244 44.9052 25.232 45.0812 25.208C45.2572 25.184 45.4172 25.14 45.5612 25.076C45.7132 25.012 45.8372 24.92 45.9332 24.8C46.0292 24.672 46.0772 24.512 46.0772 24.32C46.0772 24.056 45.9772 23.856 45.7772 23.72C45.5772 23.584 45.3252 23.476 45.0212 23.396C44.7252 23.308 44.4012 23.232 44.0492 23.168C43.6972 23.096 43.3692 23 43.0652 22.88C42.7692 22.752 42.5212 22.576 42.3212 22.352C42.1212 22.128 42.0212 21.816 42.0212 21.416C42.0212 21.104 42.0892 20.836 42.2252 20.612C42.3692 20.388 42.5492 20.208 42.7652 20.072C42.9892 19.928 43.2372 19.824 43.5092 19.76C43.7892 19.688 44.0652 19.652 44.3372 19.652C44.6892 19.652 45.0132 19.684 45.3092 19.748C45.6052 19.804 45.8652 19.908 46.0892 20.06C46.3212 20.204 46.5052 20.404 46.6412 20.66C46.7772 20.908 46.8572 21.22 46.8812 21.596H45.8612C45.8452 21.396 45.7932 21.232 45.7052 21.104C45.6172 20.968 45.5052 20.86 45.3692 20.78C45.2332 20.7 45.0812 20.644 44.9132 20.612C44.7532 20.572 44.5892 20.552 44.4212 20.552C44.2692 20.552 44.1132 20.564 43.9532 20.588C43.8012 20.612 43.6612 20.656 43.5332 20.72C43.4052 20.776 43.3012 20.856 43.2212 20.96C43.1412 21.056 43.1012 21.184 43.1012 21.344C43.1012 21.52 43.1612 21.668 43.2812 21.788C43.4092 21.9 43.5692 21.996 43.7612 22.076C43.9532 22.148 44.1692 22.212 44.4092 22.268C44.6492 22.316 44.8892 22.368 45.1292 22.424C45.3852 22.48 45.6332 22.548 45.8732 22.628C46.1212 22.708 46.3372 22.816 46.5212 22.952C46.7132 23.08 46.8652 23.244 46.9772 23.444C47.0972 23.644 47.1572 23.892 47.1572 24.188C47.1572 24.564 47.0772 24.876 46.9172 25.124C46.7652 25.372 46.5612 25.572 46.3052 25.724C46.0572 25.876 45.7732 25.98 45.4532 26.036C45.1412 26.1 44.8292 26.132 44.5172 26.132C44.1732 26.132 43.8452 26.096 43.5332 26.024C43.2212 25.952 42.9452 25.836 42.7052 25.676C42.4652 25.508 42.2732 25.292 42.1292 25.028C41.9852 24.756 41.9052 24.428 41.8892 24.044H42.9092ZM48.9092 22.904C48.9092 23.28 48.9572 23.616 49.0532 23.912C49.1572 24.2 49.2972 24.444 49.4732 24.644C49.6492 24.836 49.8532 24.984 50.0852 25.088C50.3252 25.192 50.5772 25.244 50.8412 25.244C51.1052 25.244 51.3532 25.192 51.5852 25.088C51.8252 24.984 52.0332 24.836 52.2092 24.644C52.3852 24.444 52.5212 24.2 52.6172 23.912C52.7212 23.616 52.7732 23.28 52.7732 22.904C52.7732 22.528 52.7212 22.196 52.6172 21.908C52.5212 21.612 52.3852 21.364 52.2092 21.164C52.0332 20.964 51.8252 20.812 51.5852 20.708C51.3532 20.604 51.1052 20.552 50.8412 20.552C50.5772 20.552 50.3252 20.604 50.0852 20.708C49.8532 20.812 49.6492 20.964 49.4732 21.164C49.2972 21.364 49.1572 21.612 49.0532 21.908C48.9572 22.196 48.9092 22.528 48.9092 22.904ZM47.8292 22.904C47.8292 22.448 47.8932 22.024 48.0212 21.632C48.1492 21.232 48.3412 20.888 48.5972 20.6C48.8532 20.304 49.1692 20.072 49.5452 19.904C49.9212 19.736 50.3532 19.652 50.8412 19.652C51.3372 19.652 51.7692 19.736 52.1372 19.904C52.5132 20.072 52.8292 20.304 53.0852 20.6C53.3412 20.888 53.5332 21.232 53.6612 21.632C53.7892 22.024 53.8532 22.448 53.8532 22.904C53.8532 23.36 53.7892 23.784 53.6612 24.176C53.5332 24.568 53.3412 24.912 53.0852 25.208C52.8292 25.496 52.5132 25.724 52.1372 25.892C51.7692 26.052 51.3372 26.132 50.8412 26.132C50.3532 26.132 49.9212 26.052 49.5452 25.892C49.1692 25.724 48.8532 25.496 48.5972 25.208C48.3412 24.912 48.1492 24.568 48.0212 24.176C47.8932 23.784 47.8292 23.36 47.8292 22.904ZM54.8998 19.796H55.8598V21.104H55.8838C56.1318 20.6 56.4358 20.228 56.7958 19.988C57.1558 19.748 57.6118 19.636 58.1638 19.652V20.732C57.7558 20.732 57.4078 20.788 57.1198 20.9C56.8318 21.012 56.5998 21.176 56.4238 21.392C56.2478 21.608 56.1198 21.872 56.0398 22.184C55.9598 22.488 55.9198 22.84 55.9198 23.24V26H54.8998V19.796ZM59.8919 18.68H58.8719V17.432H59.8919V18.68ZM58.8719 19.796H59.8919V26H58.8719V19.796ZM65.6601 22.304C65.6441 22.064 65.5881 21.836 65.4921 21.62C65.4041 21.404 65.2801 21.22 65.1201 21.068C64.9681 20.908 64.7841 20.784 64.5681 20.696C64.3601 20.6 64.1281 20.552 63.8721 20.552C63.6081 20.552 63.3681 20.6 63.1521 20.696C62.9441 20.784 62.7641 20.908 62.6121 21.068C62.4601 21.228 62.3401 21.416 62.2521 21.632C62.1641 21.84 62.1121 22.064 62.0961 22.304H65.6601ZM66.6441 24.032C66.5081 24.728 66.2081 25.252 65.7441 25.604C65.2801 25.956 64.6961 26.132 63.9921 26.132C63.4961 26.132 63.0641 26.052 62.6961 25.892C62.3361 25.732 62.0321 25.508 61.7841 25.22C61.5361 24.932 61.3481 24.588 61.2201 24.188C61.1001 23.788 61.0321 23.352 61.0161 22.88C61.0161 22.408 61.0881 21.976 61.2321 21.584C61.3761 21.192 61.5761 20.852 61.8321 20.564C62.0961 20.276 62.4041 20.052 62.7561 19.892C63.1161 19.732 63.5081 19.652 63.9321 19.652C64.4841 19.652 64.9401 19.768 65.3001 20C65.6681 20.224 65.9601 20.512 66.1761 20.864C66.4001 21.216 66.5521 21.6 66.6321 22.016C66.7201 22.432 66.7561 22.828 66.7401 23.204H62.0961C62.0881 23.476 62.1201 23.736 62.1921 23.984C62.2641 24.224 62.3801 24.44 62.5401 24.632C62.7001 24.816 62.9041 24.964 63.1521 25.076C63.4001 25.188 63.6921 25.244 64.0281 25.244C64.4601 25.244 64.8121 25.144 65.0841 24.944C65.3641 24.744 65.5481 24.44 65.6361 24.032H66.6441ZM68.3014 24.044C68.3094 24.268 68.3614 24.46 68.4574 24.62C68.5534 24.772 68.6774 24.896 68.8294 24.992C68.9894 25.08 69.1654 25.144 69.3574 25.184C69.5574 25.224 69.7614 25.244 69.9694 25.244C70.1294 25.244 70.2974 25.232 70.4734 25.208C70.6494 25.184 70.8094 25.14 70.9534 25.076C71.1054 25.012 71.2294 24.92 71.3254 24.8C71.4214 24.672 71.4694 24.512 71.4694 24.32C71.4694 24.056 71.3694 23.856 71.1694 23.72C70.9694 23.584 70.7174 23.476 70.4134 23.396C70.1174 23.308 69.7934 23.232 69.4414 23.168C69.0894 23.096 68.7614 23 68.4574 22.88C68.1614 22.752 67.9134 22.576 67.7134 22.352C67.5134 22.128 67.4134 21.816 67.4134 21.416C67.4134 21.104 67.4814 20.836 67.6174 20.612C67.7614 20.388 67.9414 20.208 68.1574 20.072C68.3814 19.928 68.6294 19.824 68.9014 19.76C69.1814 19.688 69.4574 19.652 69.7294 19.652C70.0814 19.652 70.4054 19.684 70.7014 19.748C70.9974 19.804 71.2574 19.908 71.4814 20.06C71.7134 20.204 71.8974 20.404 72.0334 20.66C72.1694 20.908 72.2494 21.22 72.2734 21.596H71.2534C71.2374 21.396 71.1854 21.232 71.0974 21.104C71.0094 20.968 70.8974 20.86 70.7614 20.78C70.6254 20.7 70.4734 20.644 70.3054 20.612C70.1454 20.572 69.9814 20.552 69.8134 20.552C69.6614 20.552 69.5054 20.564 69.3454 20.588C69.1934 20.612 69.0534 20.656 68.9254 20.72C68.7974 20.776 68.6934 20.856 68.6134 20.96C68.5334 21.056 68.4934 21.184 68.4934 21.344C68.4934 21.52 68.5534 21.668 68.6734 21.788C68.8014 21.9 68.9614 21.996 69.1534 22.076C69.3454 22.148 69.5614 22.212 69.8014 22.268C70.0414 22.316 70.2814 22.368 70.5214 22.424C70.7774 22.48 71.0254 22.548 71.2654 22.628C71.5134 22.708 71.7294 22.816 71.9134 22.952C72.1054 23.08 72.2574 23.244 72.3694 23.444C72.4894 23.644 72.5494 23.892 72.5494 24.188C72.5494 24.564 72.4694 24.876 72.3094 25.124C72.1574 25.372 71.9534 25.572 71.6974 25.724C71.4494 25.876 71.1654 25.98 70.8454 26.036C70.5334 26.1 70.2214 26.132 69.9094 26.132C69.5654 26.132 69.2374 26.096 68.9254 26.024C68.6134 25.952 68.3374 25.836 68.0974 25.676C67.8574 25.508 67.6654 25.292 67.5214 25.028C67.3774 24.756 67.2974 24.428 67.2814 24.044H68.3014Z" fill="black" fill-opacity="0.8"/>
</g>
<defs>
<clipPath id="clip0_1_120">
<rect width="67" height="44" fill="white" transform="translate(9)"/>
</clipPath>
<clipPath id="clip1_1_120">
<rect width="1" height="44" fill="white" transform="translate(9)"/>
</clipPath>
</defs>
</svg>
