<svg width="61" height="44" viewBox="0 0 61 44" fill="none" xmlns="http://www.w3.org/2000/svg">
<g clip-path="url(#clip0_1_102)">
<path d="M20.7157 19.6836H21.6768V20.6206H21.7708C21.9578 20.0056 22.6847 19.5726 23.5227 19.5726C23.6867 19.5726 23.8978 19.5836 24.0268 19.6016V20.6096C23.9448 20.5856 23.5808 20.5506 23.3818 20.5506C22.4207 20.5506 21.7238 21.1956 21.7238 22.0856V25.9996H20.7157V19.6836ZM48.8507 19.5726C50.1748 19.5726 51.0948 20.2286 51.2298 21.2656H50.2337C50.0988 20.7616 49.6068 20.4276 48.8447 20.4276C48.0947 20.4276 47.5088 20.8086 47.5088 21.3706C47.5088 21.8046 47.8608 22.0746 48.6048 22.2556L49.5778 22.4906C50.7668 22.7776 51.3408 23.2926 51.3408 24.2016C51.3408 25.3316 50.2458 26.1116 48.8097 26.1116C47.4038 26.1116 46.4367 25.4376 46.3257 24.3886H47.3628C47.5327 24.9216 48.0368 25.2616 48.8447 25.2616C49.6947 25.2616 50.3037 24.8576 50.3037 24.2776C50.3037 23.8436 49.9757 23.5506 49.3018 23.3866L48.2178 23.1226C47.0348 22.8356 46.4958 22.3266 46.4958 21.4126C46.4958 20.3636 47.5088 19.5726 48.8507 19.5726ZM42.1857 25.2036C41.0307 25.2036 40.3398 24.3186 40.3398 22.8416C40.3398 21.3706 41.0367 20.4806 42.1857 20.4806C43.3277 20.4806 44.0428 21.3946 44.0428 22.8416C44.0428 24.3006 43.3337 25.2036 42.1857 25.2036ZM44.0197 17.1756V20.6796H43.9318C43.5737 19.9886 42.8298 19.5726 41.9507 19.5726C40.3457 19.5726 39.2968 20.8616 39.2968 22.8416C39.2968 24.8286 40.3337 26.1116 41.9507 26.1116C42.8237 26.1116 43.5738 25.6956 43.9728 24.9926H44.0667V25.9996H45.0278V17.1756H44.0197ZM35.0187 25.2036C33.8237 25.2036 33.1497 24.3356 33.1497 22.8416C33.1497 21.3416 33.8237 20.4806 35.0187 20.4806C36.2147 20.4806 36.8878 21.3416 36.8878 22.8416C36.8878 24.3356 36.2147 25.2036 35.0187 25.2036ZM35.0187 19.5726C33.2197 19.5726 32.1068 20.8086 32.1068 22.8416C32.1068 24.8696 33.2197 26.1116 35.0187 26.1116C36.8177 26.1116 37.9307 24.8696 37.9307 22.8416C37.9307 20.8086 36.8177 19.5726 35.0187 19.5726ZM17.9478 25.9996H18.9558V19.6836H17.9478V25.9996ZM17.7487 17.7616C17.7487 17.3746 18.0658 17.0586 18.4517 17.0586C18.8387 17.0586 19.1547 17.3746 19.1547 17.7616C19.1547 18.1486 18.8387 18.4646 18.4517 18.4646C18.0658 18.4646 17.7487 18.1486 17.7487 17.7616ZM11.6117 22.6836L12.9358 18.9106H13.0287L14.3538 22.6836H11.6117ZM13.5038 17.5446H12.4607L9.34375 25.9996H10.4507L11.3007 23.5796H14.6638L15.5138 25.9996H16.6207L13.5038 17.5446ZM28.3717 22.0446H26.5077V18.4826H28.3717C29.5957 18.4826 30.2698 19.1216 30.2698 20.2816C30.2698 21.4006 29.5728 22.0446 28.3717 22.0446ZM28.6467 17.5446H25.4538V25.9996H26.5077V22.9826H28.6348C30.2227 22.9826 31.3538 21.8636 31.3538 20.2816C31.3538 18.6696 30.2467 17.5446 28.6467 17.5446Z" fill="black" fill-opacity="0.8"/>
</g>
<g clip-path="url(#clip1_1_102)">
<path d="M11.412 22.46H14.316L12.888 18.464H12.864L11.412 22.46ZM12.264 17.432H13.524L16.872 26H15.612L14.676 23.42H11.052L10.092 26H8.928L12.264 17.432ZM18.5093 18.68H17.4893V17.432H18.5093V18.68ZM17.4893 19.796H18.5093V26H17.4893V19.796ZM19.9334 19.796H20.8934V21.104H20.9174C21.1654 20.6 21.4694 20.228 21.8294 19.988C22.1894 19.748 22.6454 19.636 23.1974 19.652V20.732C22.7894 20.732 22.4414 20.788 22.1534 20.9C21.8654 21.012 21.6334 21.176 21.4574 21.392C21.2814 21.608 21.1534 21.872 21.0734 22.184C20.9934 22.488 20.9534 22.84 20.9534 23.24V26H19.9334V19.796ZM25.1535 21.536H27.3855C28.0335 21.544 28.5055 21.412 28.8015 21.14C29.1055 20.868 29.2575 20.476 29.2575 19.964C29.2575 19.452 29.1055 19.064 28.8015 18.8C28.5055 18.528 28.0335 18.392 27.3855 18.392H25.1535V21.536ZM24.0135 17.432H27.7695C28.6335 17.432 29.2855 17.656 29.7255 18.104C30.1735 18.544 30.3975 19.164 30.3975 19.964C30.3975 20.764 30.1735 21.388 29.7255 21.836C29.2855 22.284 28.6335 22.504 27.7695 22.496H25.1535V26H24.0135V17.432ZM32.2508 22.904C32.2508 23.28 32.2988 23.616 32.3948 23.912C32.4988 24.2 32.6388 24.444 32.8148 24.644C32.9908 24.836 33.1948 24.984 33.4268 25.088C33.6668 25.192 33.9188 25.244 34.1828 25.244C34.4468 25.244 34.6948 25.192 34.9268 25.088C35.1668 24.984 35.3748 24.836 35.5508 24.644C35.7268 24.444 35.8628 24.2 35.9588 23.912C36.0628 23.616 36.1148 23.28 36.1148 22.904C36.1148 22.528 36.0628 22.196 35.9588 21.908C35.8628 21.612 35.7268 21.364 35.5508 21.164C35.3748 20.964 35.1668 20.812 34.9268 20.708C34.6948 20.604 34.4468 20.552 34.1828 20.552C33.9188 20.552 33.6668 20.604 33.4268 20.708C33.1948 20.812 32.9908 20.964 32.8148 21.164C32.6388 21.364 32.4988 21.612 32.3948 21.908C32.2988 22.196 32.2508 22.528 32.2508 22.904ZM31.1708 22.904C31.1708 22.448 31.2348 22.024 31.3628 21.632C31.4908 21.232 31.6828 20.888 31.9388 20.6C32.1948 20.304 32.5108 20.072 32.8868 19.904C33.2628 19.736 33.6948 19.652 34.1828 19.652C34.6788 19.652 35.1108 19.736 35.4788 19.904C35.8548 20.072 36.1708 20.304 36.4268 20.6C36.6828 20.888 36.8748 21.232 37.0028 21.632C37.1308 22.024 37.1948 22.448 37.1948 22.904C37.1948 23.36 37.1308 23.784 37.0028 24.176C36.8748 24.568 36.6828 24.912 36.4268 25.208C36.1708 25.496 35.8548 25.724 35.4788 25.892C35.1108 26.052 34.6788 26.132 34.1828 26.132C33.6948 26.132 33.2628 26.052 32.8868 25.892C32.5108 25.724 32.1948 25.496 31.9388 25.208C31.6828 24.912 31.4908 24.568 31.3628 24.176C31.2348 23.784 31.1708 23.36 31.1708 22.904ZM39.0214 22.952C39.0214 23.24 39.0574 23.524 39.1294 23.804C39.2094 24.076 39.3254 24.32 39.4774 24.536C39.6374 24.752 39.8374 24.924 40.0774 25.052C40.3254 25.18 40.6134 25.244 40.9414 25.244C41.2854 25.244 41.5774 25.176 41.8174 25.04C42.0574 24.904 42.2534 24.728 42.4054 24.512C42.5574 24.288 42.6654 24.036 42.7294 23.756C42.8014 23.476 42.8374 23.192 42.8374 22.904C42.8374 22.6 42.8014 22.308 42.7294 22.028C42.6574 21.74 42.5414 21.488 42.3814 21.272C42.2294 21.056 42.0294 20.884 41.7814 20.756C41.5334 20.62 41.2334 20.552 40.8814 20.552C40.5374 20.552 40.2454 20.62 40.0054 20.756C39.7654 20.892 39.5734 21.072 39.4294 21.296C39.2854 21.52 39.1814 21.776 39.1174 22.064C39.0534 22.352 39.0214 22.648 39.0214 22.952ZM43.8214 26H42.8014V25.16H42.7774C42.6094 25.504 42.3454 25.752 41.9854 25.904C41.6254 26.056 41.2294 26.132 40.7974 26.132C40.3174 26.132 39.8974 26.044 39.5374 25.868C39.1854 25.692 38.8894 25.456 38.6494 25.16C38.4174 24.864 38.2414 24.52 38.1214 24.128C38.0014 23.736 37.9414 23.32 37.9414 22.88C37.9414 22.44 37.9974 22.024 38.1094 21.632C38.2294 21.24 38.4054 20.9 38.6374 20.612C38.8774 20.316 39.1734 20.084 39.5254 19.916C39.8854 19.74 40.3014 19.652 40.7734 19.652C40.9334 19.652 41.1054 19.668 41.2894 19.7C41.4734 19.732 41.6574 19.788 41.8414 19.868C42.0254 19.94 42.1974 20.04 42.3574 20.168C42.5254 20.288 42.6654 20.44 42.7774 20.624H42.8014V17.432H43.8214V26ZM45.8947 24.044C45.9027 24.268 45.9547 24.46 46.0507 24.62C46.1467 24.772 46.2707 24.896 46.4227 24.992C46.5827 25.08 46.7587 25.144 46.9507 25.184C47.1507 25.224 47.3547 25.244 47.5627 25.244C47.7227 25.244 47.8907 25.232 48.0667 25.208C48.2427 25.184 48.4027 25.14 48.5467 25.076C48.6987 25.012 48.8227 24.92 48.9187 24.8C49.0147 24.672 49.0627 24.512 49.0627 24.32C49.0627 24.056 48.9627 23.856 48.7627 23.72C48.5627 23.584 48.3107 23.476 48.0067 23.396C47.7107 23.308 47.3867 23.232 47.0347 23.168C46.6827 23.096 46.3547 23 46.0507 22.88C45.7547 22.752 45.5067 22.576 45.3067 22.352C45.1067 22.128 45.0067 21.816 45.0067 21.416C45.0067 21.104 45.0747 20.836 45.2107 20.612C45.3547 20.388 45.5347 20.208 45.7507 20.072C45.9747 19.928 46.2227 19.824 46.4947 19.76C46.7747 19.688 47.0507 19.652 47.3227 19.652C47.6747 19.652 47.9987 19.684 48.2947 19.748C48.5907 19.804 48.8507 19.908 49.0747 20.06C49.3067 20.204 49.4907 20.404 49.6267 20.66C49.7627 20.908 49.8427 21.22 49.8667 21.596H48.8467C48.8307 21.396 48.7787 21.232 48.6907 21.104C48.6027 20.968 48.4907 20.86 48.3547 20.78C48.2187 20.7 48.0667 20.644 47.8987 20.612C47.7387 20.572 47.5747 20.552 47.4067 20.552C47.2547 20.552 47.0987 20.564 46.9387 20.588C46.7867 20.612 46.6467 20.656 46.5187 20.72C46.3907 20.776 46.2867 20.856 46.2067 20.96C46.1267 21.056 46.0867 21.184 46.0867 21.344C46.0867 21.52 46.1467 21.668 46.2667 21.788C46.3947 21.9 46.5547 21.996 46.7467 22.076C46.9387 22.148 47.1547 22.212 47.3947 22.268C47.6347 22.316 47.8747 22.368 48.1147 22.424C48.3707 22.48 48.6187 22.548 48.8587 22.628C49.1067 22.708 49.3227 22.816 49.5067 22.952C49.6987 23.08 49.8507 23.244 49.9627 23.444C50.0827 23.644 50.1427 23.892 50.1427 24.188C50.1427 24.564 50.0627 24.876 49.9027 25.124C49.7507 25.372 49.5467 25.572 49.2907 25.724C49.0427 25.876 48.7587 25.98 48.4387 26.036C48.1267 26.1 47.8147 26.132 47.5027 26.132C47.1587 26.132 46.8307 26.096 46.5187 26.024C46.2067 25.952 45.9307 25.836 45.6907 25.676C45.4507 25.508 45.2587 25.292 45.1147 25.028C44.9707 24.756 44.8907 24.428 44.8747 24.044H45.8947Z" fill="black" fill-opacity="0.8"/>
</g>
<defs>
<clipPath id="clip0_1_102">
<rect width="43" height="44" fill="white" transform="translate(9)"/>
</clipPath>
<clipPath id="clip1_1_102">
<rect width="1" height="44" fill="white" transform="translate(9)"/>
</clipPath>
</defs>
</svg>
