<svg width="32" height="44" viewBox="0 0 32 44" fill="none" xmlns="http://www.w3.org/2000/svg">
<g clip-path="url(#clip0_1_66)">
<path d="M22.0726 17.6825C21.5517 18.0014 21.1202 18.4473 20.8186 18.9783C20.5169 19.5094 20.3549 20.1083 20.3478 20.719C20.3498 21.4064 20.5535 22.078 20.9335 22.6508C21.3135 23.2236 21.8532 23.6723 22.4857 23.9413C22.2363 24.7459 21.8672 25.5084 21.3909 26.2031C20.7093 27.1843 19.9966 28.1654 18.9122 28.1654C17.8278 28.1654 17.5489 27.5354 16.2992 27.5354C15.0805 27.5354 14.6467 28.1861 13.6552 28.1861C12.6637 28.1861 11.9718 27.2772 11.1765 26.1618C10.1259 24.5993 9.54858 22.7668 9.51367 20.8842C9.51367 17.7858 11.5277 16.1437 13.5106 16.1437C14.5641 16.1437 15.442 16.8356 16.103 16.8356C16.733 16.8356 17.7142 16.1023 18.9122 16.1023C19.5281 16.0864 20.1386 16.2223 20.6897 16.4978C21.2408 16.7734 21.7157 17.1802 22.0726 17.6825ZM18.3442 14.7907C18.8723 14.1695 19.1712 13.3859 19.1911 12.5707C19.192 12.4633 19.1816 12.356 19.1601 12.2507C18.2529 12.3393 17.4141 12.7717 16.8156 13.4591C16.2824 14.0556 15.9722 14.8183 15.9377 15.6176C15.9381 15.7148 15.9485 15.8117 15.9687 15.9068C16.0402 15.9204 16.1128 15.9273 16.1856 15.9275C16.6036 15.8943 17.0106 15.7763 17.3817 15.5809C17.7527 15.3855 18.0802 15.1166 18.3442 14.7907Z" fill="black" fill-opacity="0.8"/>
</g>
<g clip-path="url(#clip1_1_66)">
<path d="M21.733 22.808H24.878L23.348 18.354H23.314L21.733 22.808ZM21.988 15.362H24.725L29.264 27.5H26.493L25.575 24.797H21.036L20.084 27.5H17.398L21.988 15.362ZM34.1187 25.919C34.5154 25.919 34.844 25.8397 35.1047 25.681C35.3767 25.5223 35.592 25.3183 35.7507 25.069C35.9207 24.8083 36.0397 24.508 36.1077 24.168C36.1757 23.828 36.2097 23.4823 36.2097 23.131C36.2097 22.7797 36.17 22.434 36.0907 22.094C36.0227 21.754 35.9037 21.4537 35.7337 21.193C35.5637 20.921 35.3427 20.7057 35.0707 20.547C34.81 20.377 34.487 20.292 34.1017 20.292C33.705 20.292 33.3707 20.377 33.0987 20.547C32.838 20.7057 32.6227 20.9153 32.4527 21.176C32.294 21.4367 32.1807 21.737 32.1127 22.077C32.0447 22.417 32.0107 22.7683 32.0107 23.131C32.0107 23.4823 32.0447 23.828 32.1127 24.168C32.192 24.508 32.311 24.8083 32.4697 25.069C32.6397 25.3183 32.8607 25.5223 33.1327 25.681C33.4047 25.8397 33.7334 25.919 34.1187 25.919ZM29.6817 18.711H31.9767V19.833H32.0107C32.3054 19.357 32.6794 19.0113 33.1327 18.796C33.586 18.5807 34.0847 18.473 34.6287 18.473C35.32 18.473 35.915 18.6033 36.4137 18.864C36.9124 19.1247 37.326 19.4703 37.6547 19.901C37.9834 20.3317 38.227 20.836 38.3857 21.414C38.5444 21.9807 38.6237 22.5757 38.6237 23.199C38.6237 23.7883 38.5444 24.355 38.3857 24.899C38.227 25.443 37.9834 25.9247 37.6547 26.344C37.3374 26.7633 36.935 27.0977 36.4477 27.347C35.9717 27.5963 35.4107 27.721 34.7647 27.721C34.2207 27.721 33.7164 27.6133 33.2517 27.398C32.7984 27.1713 32.4244 26.8427 32.1297 26.412H32.0957V30.577H29.6817V18.711ZM44.1373 25.919C44.5339 25.919 44.8626 25.8397 45.1233 25.681C45.3953 25.5223 45.6106 25.3183 45.7693 25.069C45.9393 24.8083 46.0583 24.508 46.1263 24.168C46.1943 23.828 46.2283 23.4823 46.2283 23.131C46.2283 22.7797 46.1886 22.434 46.1093 22.094C46.0413 21.754 45.9223 21.4537 45.7523 21.193C45.5823 20.921 45.3613 20.7057 45.0893 20.547C44.8286 20.377 44.5056 20.292 44.1203 20.292C43.7236 20.292 43.3893 20.377 43.1173 20.547C42.8566 20.7057 42.6413 20.9153 42.4713 21.176C42.3126 21.4367 42.1993 21.737 42.1313 22.077C42.0633 22.417 42.0293 22.7683 42.0293 23.131C42.0293 23.4823 42.0633 23.828 42.1313 24.168C42.2106 24.508 42.3296 24.8083 42.4883 25.069C42.6583 25.3183 42.8793 25.5223 43.1513 25.681C43.4233 25.8397 43.7519 25.919 44.1373 25.919ZM39.7003 18.711H41.9953V19.833H42.0293C42.3239 19.357 42.6979 19.0113 43.1513 18.796C43.6046 18.5807 44.1033 18.473 44.6473 18.473C45.3386 18.473 45.9336 18.6033 46.4323 18.864C46.9309 19.1247 47.3446 19.4703 47.6733 19.901C48.0019 20.3317 48.2456 20.836 48.4043 21.414C48.5629 21.9807 48.6423 22.5757 48.6423 23.199C48.6423 23.7883 48.5629 24.355 48.4043 24.899C48.2456 25.443 48.0019 25.9247 47.6733 26.344C47.3559 26.7633 46.9536 27.0977 46.4663 27.347C45.9903 27.5963 45.4293 27.721 44.7833 27.721C44.2393 27.721 43.7349 27.6133 43.2703 27.398C42.8169 27.1713 42.4429 26.8427 42.1483 26.412H42.1143V30.577H39.7003V18.711ZM49.7869 15.362H52.2009V27.5H49.7869V15.362ZM59.6437 22.162C59.5303 21.55 59.3263 21.0853 59.0317 20.768C58.7483 20.4507 58.312 20.292 57.7227 20.292C57.3373 20.292 57.0143 20.36 56.7537 20.496C56.5043 20.6207 56.3003 20.7793 56.1417 20.972C55.9943 21.1647 55.8867 21.3687 55.8187 21.584C55.762 21.7993 55.728 21.992 55.7167 22.162H59.6437ZM55.7167 23.692C55.7507 24.474 55.949 25.0407 56.3117 25.392C56.6743 25.7433 57.1957 25.919 57.8757 25.919C58.363 25.919 58.7823 25.8 59.1337 25.562C59.485 25.3127 59.7003 25.052 59.7797 24.78H61.9047C61.5647 25.834 61.0433 26.5877 60.3407 27.041C59.638 27.4943 58.788 27.721 57.7907 27.721C57.0993 27.721 56.476 27.6133 55.9207 27.398C55.3653 27.1713 54.895 26.854 54.5097 26.446C54.1243 26.038 53.824 25.5507 53.6087 24.984C53.4047 24.4173 53.3027 23.794 53.3027 23.114C53.3027 22.4567 53.4103 21.8447 53.6257 21.278C53.841 20.7113 54.147 20.224 54.5437 19.816C54.9403 19.3967 55.4107 19.068 55.9547 18.83C56.51 18.592 57.122 18.473 57.7907 18.473C58.5387 18.473 59.1903 18.6203 59.7457 18.915C60.301 19.1983 60.7543 19.5837 61.1057 20.071C61.4683 20.5583 61.729 21.1137 61.8877 21.737C62.0463 22.3603 62.103 23.012 62.0577 23.692H55.7167Z" fill="black" fill-opacity="0.8"/>
</g>
<defs>
<clipPath id="clip0_1_66">
<rect width="14" height="44" fill="white" transform="translate(9)"/>
</clipPath>
<clipPath id="clip1_1_66">
<rect width="1" height="44" fill="white" transform="translate(17.5)"/>
</clipPath>
</defs>
</svg>
