<svg width="95" height="44" viewBox="0 0 95 44" fill="none" xmlns="http://www.w3.org/2000/svg">
<g clip-path="url(#clip0_1_114)">
<path d="M9 17.4863H14.2383V18.4355H10.0547V21.1484H14.0215V22.0859H10.0547V24.9921H14.2383V25.9413H9V17.4863ZM15.8994 19.625H16.9189V20.5742H17.0127C17.3291 19.9062 17.9209 19.5137 18.8525 19.5137C20.2705 19.5137 21.0615 20.3516 21.0615 21.8516V25.9414H20.042V22.0976C20.042 20.9609 19.5732 20.416 18.5654 20.416C17.5576 20.416 16.9189 21.0957 16.9189 22.2031V25.9414H15.8994V19.625ZM23.1797 24.3008V20.4688H22.1836V19.625H23.1797V17.9902H24.2344V19.625H25.6172V20.4688H24.2344V24.043C24.2344 24.7871 24.4922 25.086 25.1485 25.086C25.3301 25.086 25.4297 25.0801 25.6173 25.0626V25.9298C25.4181 25.965 25.2247 25.9884 25.0255 25.9884C23.7246 25.9883 23.1797 25.5078 23.1797 24.3008ZM26.6162 22.8066V22.8007C26.6162 20.8495 27.7295 19.5136 29.4463 19.5136C31.1631 19.5136 32.2061 20.7909 32.2061 22.6777V23.0761H27.6592C27.6885 24.3827 28.4092 25.1445 29.5342 25.1445C30.3897 25.1445 30.917 24.7402 31.0869 24.3593L31.1103 24.3066H32.1298L32.1181 24.3535C31.9013 25.209 30.999 26.0527 29.5107 26.0527C27.7061 26.0527 26.6162 24.7871 26.6162 22.8066ZM27.6768 22.2617H31.169C31.0635 21.0137 30.3721 20.4219 29.4405 20.4219C28.5029 20.4219 27.7881 21.0605 27.6768 22.2617ZM33.668 19.625H34.6875V20.5625H34.7813C35.0215 19.9004 35.6133 19.5137 36.4688 19.5137C36.6622 19.5137 36.879 19.5371 36.9786 19.5547V20.5449C36.7677 20.5097 36.5743 20.4863 36.3516 20.4863C35.3789 20.4863 34.6875 21.1015 34.6875 22.0273V25.9414H33.668V19.625ZM38.6338 24.3008V20.4688H37.6377V19.625H38.6338V17.9902H39.6885V19.625H41.0713V20.4688H39.6885V24.043C39.6885 24.7871 39.9463 25.086 40.6026 25.086C40.7842 25.086 40.8838 25.0801 41.0714 25.0626V25.9298C40.8722 25.965 40.6788 25.9884 40.4796 25.9884C39.1787 25.9883 38.6338 25.5078 38.6338 24.3008ZM42.0996 24.1777V24.166C42.0996 23.041 42.9316 22.3906 44.4023 22.3027L46.2128 22.1914V21.6172C46.2128 20.8379 45.7382 20.416 44.7948 20.416C44.0389 20.416 43.5409 20.6972 43.3768 21.1894L43.3709 21.207H42.3514L42.3573 21.1718C42.5214 20.1816 43.4823 19.5136 44.83 19.5136C46.371 19.5136 47.2323 20.3046 47.2323 21.6171V25.9413H46.2128V25.0097H46.119C45.7206 25.6835 45.0585 26.0527 44.2088 26.0527C43.0078 26.0527 42.0996 25.3262 42.0996 24.1777ZM44.4199 25.168C45.457 25.168 46.2129 24.4883 46.2129 23.586V23.0118L44.5254 23.1173C43.5645 23.1759 43.1426 23.5157 43.1426 24.1427V24.1544C43.1426 24.793 43.6875 25.168 44.4199 25.168ZM48.8125 17.7031C48.8125 17.3164 49.1289 17 49.5156 17C49.9023 17 50.2187 17.3164 50.2187 17.7031C50.2187 18.0898 49.9023 18.4062 49.5156 18.4062C49.1289 18.4062 48.8125 18.0898 48.8125 17.7031ZM49 19.625H50.0195V25.9414H49V19.625ZM51.8213 19.625H52.8408V20.5742H52.9346C53.251 19.9062 53.8428 19.5137 54.7744 19.5137C56.1924 19.5137 56.9834 20.3516 56.9834 21.8516V25.9414H55.9639V22.0976C55.9639 20.9609 55.4951 20.416 54.4873 20.416C53.4795 20.416 52.8408 21.0957 52.8408 22.2031V25.9414H51.8213V19.625ZM58.7031 19.625H59.7226V20.5859H59.8164C60.0976 19.9062 60.6953 19.5136 61.5215 19.5136C62.377 19.5136 62.9746 19.9648 63.2676 20.621H63.3614C63.7012 19.953 64.4219 19.5136 65.295 19.5136C66.5841 19.5136 67.3048 20.2519 67.3048 21.5761V25.9413H66.2853V21.8104C66.2853 20.8788 65.8576 20.4159 64.9669 20.4159C64.088 20.4159 63.5079 21.078 63.5079 21.8807V25.9412H62.4884V21.6521C62.4884 20.9021 61.9728 20.4158 61.1759 20.4158C60.3497 20.4158 59.7228 21.1365 59.7228 22.0271V25.9412H58.7033L58.7031 19.625ZM68.708 22.8066V22.8007C68.708 20.8495 69.8213 19.5136 71.5381 19.5136C73.2549 19.5136 74.2979 20.7909 74.2979 22.6777V23.0761H69.751C69.7803 24.3827 70.501 25.1445 71.626 25.1445C72.4815 25.1445 73.0088 24.7402 73.1787 24.3593L73.2021 24.3066H74.2216L74.21 24.3535C73.9932 25.209 73.0909 26.0527 71.6026 26.0527C69.7979 26.0527 68.708 24.7871 68.708 22.8066ZM69.7686 22.2617H73.2608C73.1553 21.0137 72.4639 20.4219 71.5323 20.4219C70.5947 20.4219 69.8799 21.0605 69.7686 22.2617ZM75.7598 19.625H76.7793V20.5742H76.8731C77.1895 19.9062 77.7813 19.5137 78.7129 19.5137C80.1309 19.5137 80.9219 20.3516 80.9219 21.8516V25.9414H79.9024V22.0976C79.9024 20.9609 79.4336 20.416 78.4258 20.416C77.418 20.416 76.7793 21.0957 76.7793 22.2031V25.9414H75.7598V19.625ZM83.04 24.3008V20.4688H82.0439V19.625H83.04V17.9902H84.0947V19.625H85.4775V20.4688H84.0947V24.043C84.0947 24.7871 84.3525 25.086 85.0088 25.086C85.1904 25.086 85.29 25.0801 85.4776 25.0626V25.9298C85.2784 25.965 85.085 25.9884 84.8858 25.9884C83.585 25.9883 83.04 25.5078 83.04 24.3008Z" fill="black" fill-opacity="0.8"/>
</g>
<g clip-path="url(#clip1_1_114)">
<path d="M9.936 17.432H15.852V18.392H11.076V21.116H15.528V22.076H11.076V25.04H15.888V26H9.936V17.432ZM16.9839 19.796H17.9439V20.78H17.9679C18.3919 20.028 19.0639 19.652 19.9839 19.652C20.3919 19.652 20.7319 19.708 21.0039 19.82C21.2759 19.932 21.4959 20.088 21.6639 20.288C21.8319 20.488 21.9479 20.728 22.0119 21.008C22.0839 21.28 22.1199 21.584 22.1199 21.92V26H21.0999V21.8C21.0999 21.416 20.9879 21.112 20.7639 20.888C20.5399 20.664 20.2319 20.552 19.8399 20.552C19.5279 20.552 19.2559 20.6 19.0239 20.696C18.7999 20.792 18.6119 20.928 18.4599 21.104C18.3079 21.28 18.1919 21.488 18.1119 21.728C18.0399 21.96 18.0039 22.216 18.0039 22.496V26H16.9839V19.796ZM24.9479 19.796H26.1839V20.696H24.9479V24.548C24.9479 24.668 24.9559 24.764 24.9719 24.836C24.9959 24.908 25.0359 24.964 25.0919 25.004C25.1479 25.044 25.2239 25.072 25.3199 25.088C25.4239 25.096 25.5559 25.1 25.7159 25.1H26.1839V26H25.4039C25.1399 26 24.9119 25.984 24.7199 25.952C24.5359 25.912 24.3839 25.844 24.2639 25.748C24.1519 25.652 24.0679 25.516 24.0119 25.34C23.9559 25.164 23.9279 24.932 23.9279 24.644V20.696H22.8719V19.796H23.9279V17.936H24.9479V19.796ZM31.5051 22.304C31.4891 22.064 31.4331 21.836 31.3371 21.62C31.2491 21.404 31.1251 21.22 30.9651 21.068C30.8131 20.908 30.6291 20.784 30.4131 20.696C30.2051 20.6 29.9731 20.552 29.7171 20.552C29.4531 20.552 29.2131 20.6 28.9971 20.696C28.7891 20.784 28.6091 20.908 28.4571 21.068C28.3051 21.228 28.1851 21.416 28.0971 21.632C28.0091 21.84 27.9571 22.064 27.9411 22.304H31.5051ZM32.4891 24.032C32.3531 24.728 32.0531 25.252 31.5891 25.604C31.1251 25.956 30.5411 26.132 29.8371 26.132C29.3411 26.132 28.9091 26.052 28.5411 25.892C28.1811 25.732 27.8771 25.508 27.6291 25.22C27.3811 24.932 27.1931 24.588 27.0651 24.188C26.9451 23.788 26.8771 23.352 26.8611 22.88C26.8611 22.408 26.9331 21.976 27.0771 21.584C27.2211 21.192 27.4211 20.852 27.6771 20.564C27.9411 20.276 28.2491 20.052 28.6011 19.892C28.9611 19.732 29.3531 19.652 29.7771 19.652C30.3291 19.652 30.7851 19.768 31.1451 20C31.5131 20.224 31.8051 20.512 32.0211 20.864C32.2451 21.216 32.3971 21.6 32.4771 22.016C32.5651 22.432 32.6011 22.828 32.5851 23.204H27.9411C27.9331 23.476 27.9651 23.736 28.0371 23.984C28.1091 24.224 28.2251 24.44 28.3851 24.632C28.5451 24.816 28.7491 24.964 28.9971 25.076C29.2451 25.188 29.5371 25.244 29.8731 25.244C30.3051 25.244 30.6571 25.144 30.9291 24.944C31.2091 24.744 31.3931 24.44 31.4811 24.032H32.4891ZM33.4864 19.796H34.4464V21.104H34.4704C34.7184 20.6 35.0224 20.228 35.3824 19.988C35.7424 19.748 36.1984 19.636 36.7504 19.652V20.732C36.3424 20.732 35.9944 20.788 35.7064 20.9C35.4184 21.012 35.1864 21.176 35.0104 21.392C34.8344 21.608 34.7064 21.872 34.6264 22.184C34.5464 22.488 34.5064 22.84 34.5064 23.24V26H33.4864V19.796ZM38.8145 19.796H40.0505V20.696H38.8145V24.548C38.8145 24.668 38.8225 24.764 38.8385 24.836C38.8625 24.908 38.9025 24.964 38.9585 25.004C39.0145 25.044 39.0905 25.072 39.1865 25.088C39.2905 25.096 39.4225 25.1 39.5825 25.1H40.0505V26H39.2705C39.0065 26 38.7785 25.984 38.5865 25.952C38.4025 25.912 38.2505 25.844 38.1305 25.748C38.0185 25.652 37.9345 25.516 37.8785 25.34C37.8225 25.164 37.7945 24.932 37.7945 24.644V20.696H36.7385V19.796H37.7945V17.936H38.8145V19.796ZM46.5596 25.976C46.3836 26.08 46.1396 26.132 45.8276 26.132C45.5636 26.132 45.3516 26.06 45.1916 25.916C45.0396 25.764 44.9636 25.52 44.9636 25.184C44.6836 25.52 44.3556 25.764 43.9796 25.916C43.6116 26.06 43.2116 26.132 42.7796 26.132C42.4996 26.132 42.2316 26.1 41.9756 26.036C41.7276 25.972 41.5116 25.872 41.3276 25.736C41.1436 25.6 40.9956 25.424 40.8836 25.208C40.7796 24.984 40.7276 24.716 40.7276 24.404C40.7276 24.052 40.7876 23.764 40.9076 23.54C41.0276 23.316 41.1836 23.136 41.3756 23C41.5756 22.856 41.7996 22.748 42.0476 22.676C42.3036 22.604 42.5636 22.544 42.8276 22.496C43.1076 22.44 43.3716 22.4 43.6196 22.376C43.8756 22.344 44.0996 22.304 44.2916 22.256C44.4836 22.2 44.6356 22.124 44.7476 22.028C44.8596 21.924 44.9156 21.776 44.9156 21.584C44.9156 21.36 44.8716 21.18 44.7836 21.044C44.7036 20.908 44.5956 20.804 44.4596 20.732C44.3316 20.66 44.1836 20.612 44.0156 20.588C43.8556 20.564 43.6956 20.552 43.5356 20.552C43.1036 20.552 42.7436 20.636 42.4556 20.804C42.1676 20.964 42.0116 21.272 41.9876 21.728H40.9676C40.9836 21.344 41.0636 21.02 41.2076 20.756C41.3516 20.492 41.5436 20.28 41.7836 20.12C42.0236 19.952 42.2956 19.832 42.5996 19.76C42.9116 19.688 43.2436 19.652 43.5956 19.652C43.8756 19.652 44.1516 19.672 44.4236 19.712C44.7036 19.752 44.9556 19.836 45.1796 19.964C45.4036 20.084 45.5836 20.256 45.7196 20.48C45.8556 20.704 45.9236 20.996 45.9236 21.356V24.548C45.9236 24.788 45.9356 24.964 45.9596 25.076C45.9916 25.188 46.0876 25.244 46.2476 25.244C46.3356 25.244 46.4396 25.224 46.5596 25.184V25.976ZM44.9036 22.796C44.7756 22.892 44.6076 22.964 44.3996 23.012C44.1916 23.052 43.9716 23.088 43.7396 23.12C43.5156 23.144 43.2876 23.176 43.0556 23.216C42.8236 23.248 42.6156 23.304 42.4316 23.384C42.2476 23.464 42.0956 23.58 41.9756 23.732C41.8636 23.876 41.8076 24.076 41.8076 24.332C41.8076 24.5 41.8396 24.644 41.9036 24.764C41.9756 24.876 42.0636 24.968 42.1676 25.04C42.2796 25.112 42.4076 25.164 42.5516 25.196C42.6956 25.228 42.8476 25.244 43.0076 25.244C43.3436 25.244 43.6316 25.2 43.8716 25.112C44.1116 25.016 44.3076 24.9 44.4596 24.764C44.6116 24.62 44.7236 24.468 44.7956 24.308C44.8676 24.14 44.9036 23.984 44.9036 23.84V22.796ZM48.4689 18.68H47.4489V17.432H48.4689V18.68ZM47.4489 19.796H48.4689V26H47.4489V19.796ZM49.9291 19.796H50.8891V20.78H50.9131C51.3371 20.028 52.0091 19.652 52.9291 19.652C53.3371 19.652 53.6771 19.708 53.9491 19.82C54.2211 19.932 54.4411 20.088 54.6091 20.288C54.7771 20.488 54.8931 20.728 54.9571 21.008C55.0291 21.28 55.0651 21.584 55.0651 21.92V26H54.0451V21.8C54.0451 21.416 53.9331 21.112 53.7091 20.888C53.4851 20.664 53.1771 20.552 52.7851 20.552C52.4731 20.552 52.2011 20.6 51.9691 20.696C51.7451 20.792 51.5571 20.928 51.4051 21.104C51.2531 21.28 51.1371 21.488 51.0571 21.728C50.9851 21.96 50.9491 22.216 50.9491 22.496V26H49.9291V19.796ZM56.4771 19.796H57.4371V20.708H57.4611C57.9251 20.004 58.5931 19.652 59.4651 19.652C59.8491 19.652 60.1971 19.732 60.5091 19.892C60.8211 20.052 61.0411 20.324 61.1691 20.708C61.3771 20.372 61.6491 20.112 61.9851 19.928C62.3291 19.744 62.7051 19.652 63.1131 19.652C63.4251 19.652 63.7051 19.688 63.9531 19.76C64.2091 19.824 64.4251 19.928 64.6011 20.072C64.7851 20.216 64.9251 20.404 65.0211 20.636C65.1251 20.86 65.1771 21.132 65.1771 21.452V26H64.1571V21.932C64.1571 21.74 64.1411 21.56 64.1091 21.392C64.0771 21.224 64.0171 21.08 63.9291 20.96C63.8411 20.832 63.7171 20.732 63.5571 20.66C63.4051 20.588 63.2051 20.552 62.9571 20.552C62.4531 20.552 62.0571 20.696 61.7691 20.984C61.4811 21.272 61.3371 21.656 61.3371 22.136V26H60.3171V21.932C60.3171 21.732 60.2971 21.548 60.2571 21.38C60.2251 21.212 60.1651 21.068 60.0771 20.948C59.9891 20.82 59.8691 20.724 59.7171 20.66C59.5731 20.588 59.3851 20.552 59.1531 20.552C58.8571 20.552 58.6011 20.612 58.3851 20.732C58.1771 20.852 58.0051 20.996 57.8691 21.164C57.7411 21.332 57.6451 21.508 57.5811 21.692C57.5251 21.868 57.4971 22.016 57.4971 22.136V26H56.4771V19.796ZM70.8955 22.304C70.8795 22.064 70.8235 21.836 70.7275 21.62C70.6395 21.404 70.5155 21.22 70.3555 21.068C70.2035 20.908 70.0195 20.784 69.8035 20.696C69.5955 20.6 69.3635 20.552 69.1075 20.552C68.8435 20.552 68.6035 20.6 68.3875 20.696C68.1795 20.784 67.9995 20.908 67.8475 21.068C67.6955 21.228 67.5755 21.416 67.4875 21.632C67.3995 21.84 67.3475 22.064 67.3315 22.304H70.8955ZM71.8795 24.032C71.7435 24.728 71.4435 25.252 70.9795 25.604C70.5155 25.956 69.9315 26.132 69.2275 26.132C68.7315 26.132 68.2995 26.052 67.9315 25.892C67.5715 25.732 67.2675 25.508 67.0195 25.22C66.7715 24.932 66.5835 24.588 66.4555 24.188C66.3355 23.788 66.2675 23.352 66.2515 22.88C66.2515 22.408 66.3235 21.976 66.4675 21.584C66.6115 21.192 66.8115 20.852 67.0675 20.564C67.3315 20.276 67.6395 20.052 67.9915 19.892C68.3515 19.732 68.7435 19.652 69.1675 19.652C69.7195 19.652 70.1755 19.768 70.5355 20C70.9035 20.224 71.1955 20.512 71.4115 20.864C71.6355 21.216 71.7875 21.6 71.8675 22.016C71.9555 22.432 71.9915 22.828 71.9755 23.204H67.3315C67.3235 23.476 67.3555 23.736 67.4275 23.984C67.4995 24.224 67.6155 24.44 67.7755 24.632C67.9355 24.816 68.1395 24.964 68.3875 25.076C68.6355 25.188 68.9275 25.244 69.2635 25.244C69.6955 25.244 70.0475 25.144 70.3195 24.944C70.5995 24.744 70.7835 24.44 70.8715 24.032H71.8795ZM72.9128 19.796H73.8728V20.78H73.8968C74.3208 20.028 74.9928 19.652 75.9128 19.652C76.3208 19.652 76.6608 19.708 76.9328 19.82C77.2048 19.932 77.4248 20.088 77.5928 20.288C77.7608 20.488 77.8768 20.728 77.9408 21.008C78.0128 21.28 78.0488 21.584 78.0488 21.92V26H77.0288V21.8C77.0288 21.416 76.9168 21.112 76.6928 20.888C76.4688 20.664 76.1608 20.552 75.7688 20.552C75.4568 20.552 75.1848 20.6 74.9528 20.696C74.7288 20.792 74.5408 20.928 74.3888 21.104C74.2368 21.28 74.1208 21.488 74.0408 21.728C73.9688 21.96 73.9328 22.216 73.9328 22.496V26H72.9128V19.796ZM80.8768 19.796H82.1128V20.696H80.8768V24.548C80.8768 24.668 80.8848 24.764 80.9008 24.836C80.9248 24.908 80.9648 24.964 81.0208 25.004C81.0768 25.044 81.1528 25.072 81.2488 25.088C81.3528 25.096 81.4848 25.1 81.6448 25.1H82.1128V26H81.3328C81.0688 26 80.8408 25.984 80.6488 25.952C80.4648 25.912 80.3128 25.844 80.1928 25.748C80.0808 25.652 79.9968 25.516 79.9408 25.34C79.8848 25.164 79.8568 24.932 79.8568 24.644V20.696H78.8008V19.796H79.8568V17.936H80.8768V19.796Z" fill="black" fill-opacity="0.8"/>
</g>
<defs>
<clipPath id="clip0_1_114">
<rect width="77" height="44" fill="white" transform="translate(9)"/>
</clipPath>
<clipPath id="clip1_1_114">
<rect width="1" height="44" fill="white" transform="translate(9)"/>
</clipPath>
</defs>
</svg>
