<svg width="42" height="44" viewBox="0 0 42 44" fill="none" xmlns="http://www.w3.org/2000/svg">
<g clip-path="url(#clip0_1_84)">
<path d="M23.9582 23.7002C23.9582 24.6022 23.1902 25.2822 22.1532 25.2822C21.4212 25.2822 20.8762 24.9072 20.8762 24.2622C20.8762 23.6302 21.2982 23.2962 22.2592 23.2312L23.9582 23.1202V23.7002ZM22.5632 19.6282C21.2162 19.6282 20.2202 20.2962 20.0852 21.3092H21.1042C21.2452 20.8112 21.7722 20.5242 22.5282 20.5242C23.4722 20.5242 23.9582 20.9522 23.9582 21.7312V22.3052L22.1362 22.4172C20.6652 22.5052 19.8332 23.1552 19.8332 24.2862C19.8332 25.4402 20.7412 26.1672 21.9662 26.1672C22.8102 26.1672 23.5012 25.7982 23.9112 25.1242H24.0052V26.0552H24.9662V21.7312C24.9662 20.4192 24.1042 19.6282 22.5632 19.6282ZM29.3322 25.2032C28.1772 25.2032 27.4862 24.3182 27.4862 22.8422C27.4862 21.3712 28.1832 20.4802 29.3322 20.4802C30.4742 20.4802 31.1892 21.3942 31.1892 22.8422C31.1892 24.3012 30.4802 25.2032 29.3322 25.2032ZM31.1662 17.1762V20.6792H31.0782C30.7202 19.9882 29.9762 19.5722 29.0972 19.5722C27.4922 19.5722 26.4432 20.8612 26.4432 22.8422C26.4432 24.8282 27.4802 26.1112 29.0972 26.1112C29.9702 26.1112 30.7202 25.6952 31.1192 24.9922H31.2122V26.0002H32.1732V17.1762H31.1662ZM15.7722 22.0452H13.9092V18.4822H15.7722C16.9972 18.4822 17.6712 19.1212 17.6712 20.2812C17.6712 21.4002 16.9742 22.0452 15.7722 22.0452ZM16.0482 17.5452H12.8542V26.0002H13.9092V22.9822H16.0362C17.6242 22.9822 18.7552 21.8632 18.7552 20.2812C18.7552 18.6702 17.6472 17.5452 16.0482 17.5452ZM9.98416 25.9992H10.9922V19.6832H9.98416V25.9992ZM9.78516 17.7622C9.78516 17.3752 10.1012 17.0582 10.4882 17.0582C10.8752 17.0582 11.1912 17.3752 11.1912 17.7622C11.1912 18.1482 10.8752 18.4652 10.4882 18.4652C10.1012 18.4652 9.78516 18.1482 9.78516 17.7622Z" fill="black" fill-opacity="0.8"/>
</g>
<g clip-path="url(#clip1_1_84)">
<path d="M10.848 18.68H9.828V17.432H10.848V18.68ZM9.828 19.796H10.848V26H9.828V19.796ZM13.6162 21.536H15.8482C16.4962 21.544 16.9682 21.412 17.2642 21.14C17.5682 20.868 17.7202 20.476 17.7202 19.964C17.7202 19.452 17.5682 19.064 17.2642 18.8C16.9682 18.528 16.4962 18.392 15.8482 18.392H13.6162V21.536ZM12.4762 17.432H16.2322C17.0962 17.432 17.7482 17.656 18.1882 18.104C18.6362 18.544 18.8602 19.164 18.8602 19.964C18.8602 20.764 18.6362 21.388 18.1882 21.836C17.7482 22.284 17.0962 22.504 16.2322 22.496H13.6162V26H12.4762V17.432ZM25.4654 25.976C25.2894 26.08 25.0454 26.132 24.7334 26.132C24.4694 26.132 24.2574 26.06 24.0974 25.916C23.9454 25.764 23.8694 25.52 23.8694 25.184C23.5894 25.52 23.2614 25.764 22.8854 25.916C22.5174 26.06 22.1174 26.132 21.6854 26.132C21.4054 26.132 21.1374 26.1 20.8814 26.036C20.6334 25.972 20.4174 25.872 20.2334 25.736C20.0494 25.6 19.9014 25.424 19.7894 25.208C19.6854 24.984 19.6334 24.716 19.6334 24.404C19.6334 24.052 19.6934 23.764 19.8134 23.54C19.9334 23.316 20.0894 23.136 20.2814 23C20.4814 22.856 20.7054 22.748 20.9534 22.676C21.2094 22.604 21.4694 22.544 21.7334 22.496C22.0134 22.44 22.2774 22.4 22.5254 22.376C22.7814 22.344 23.0054 22.304 23.1974 22.256C23.3894 22.2 23.5414 22.124 23.6534 22.028C23.7654 21.924 23.8214 21.776 23.8214 21.584C23.8214 21.36 23.7774 21.18 23.6894 21.044C23.6094 20.908 23.5014 20.804 23.3654 20.732C23.2374 20.66 23.0894 20.612 22.9214 20.588C22.7614 20.564 22.6014 20.552 22.4414 20.552C22.0094 20.552 21.6494 20.636 21.3614 20.804C21.0734 20.964 20.9174 21.272 20.8934 21.728H19.8734C19.8894 21.344 19.9694 21.02 20.1134 20.756C20.2574 20.492 20.4494 20.28 20.6894 20.12C20.9294 19.952 21.2014 19.832 21.5054 19.76C21.8174 19.688 22.1494 19.652 22.5014 19.652C22.7814 19.652 23.0574 19.672 23.3294 19.712C23.6094 19.752 23.8614 19.836 24.0854 19.964C24.3094 20.084 24.4894 20.256 24.6254 20.48C24.7614 20.704 24.8294 20.996 24.8294 21.356V24.548C24.8294 24.788 24.8414 24.964 24.8654 25.076C24.8974 25.188 24.9934 25.244 25.1534 25.244C25.2414 25.244 25.3454 25.224 25.4654 25.184V25.976ZM23.8094 22.796C23.6814 22.892 23.5134 22.964 23.3054 23.012C23.0974 23.052 22.8774 23.088 22.6454 23.12C22.4214 23.144 22.1934 23.176 21.9614 23.216C21.7294 23.248 21.5214 23.304 21.3374 23.384C21.1534 23.464 21.0014 23.58 20.8814 23.732C20.7694 23.876 20.7134 24.076 20.7134 24.332C20.7134 24.5 20.7454 24.644 20.8094 24.764C20.8814 24.876 20.9694 24.968 21.0734 25.04C21.1854 25.112 21.3134 25.164 21.4574 25.196C21.6014 25.228 21.7534 25.244 21.9134 25.244C22.2494 25.244 22.5374 25.2 22.7774 25.112C23.0174 25.016 23.2134 24.9 23.3654 24.764C23.5174 24.62 23.6294 24.468 23.7014 24.308C23.7734 24.14 23.8094 23.984 23.8094 23.84V22.796ZM27.0387 22.952C27.0387 23.24 27.0747 23.524 27.1467 23.804C27.2267 24.076 27.3427 24.32 27.4947 24.536C27.6547 24.752 27.8547 24.924 28.0947 25.052C28.3427 25.18 28.6307 25.244 28.9587 25.244C29.3027 25.244 29.5947 25.176 29.8347 25.04C30.0747 24.904 30.2707 24.728 30.4227 24.512C30.5747 24.288 30.6827 24.036 30.7467 23.756C30.8187 23.476 30.8547 23.192 30.8547 22.904C30.8547 22.6 30.8187 22.308 30.7467 22.028C30.6747 21.74 30.5587 21.488 30.3987 21.272C30.2467 21.056 30.0467 20.884 29.7987 20.756C29.5507 20.62 29.2507 20.552 28.8987 20.552C28.5547 20.552 28.2627 20.62 28.0227 20.756C27.7827 20.892 27.5907 21.072 27.4467 21.296C27.3027 21.52 27.1987 21.776 27.1347 22.064C27.0707 22.352 27.0387 22.648 27.0387 22.952ZM31.8387 26H30.8187V25.16H30.7947C30.6267 25.504 30.3627 25.752 30.0027 25.904C29.6427 26.056 29.2467 26.132 28.8147 26.132C28.3347 26.132 27.9147 26.044 27.5547 25.868C27.2027 25.692 26.9067 25.456 26.6667 25.16C26.4347 24.864 26.2587 24.52 26.1387 24.128C26.0187 23.736 25.9587 23.32 25.9587 22.88C25.9587 22.44 26.0147 22.024 26.1267 21.632C26.2467 21.24 26.4227 20.9 26.6547 20.612C26.8947 20.316 27.1907 20.084 27.5427 19.916C27.9027 19.74 28.3187 19.652 28.7907 19.652C28.9507 19.652 29.1227 19.668 29.3067 19.7C29.4907 19.732 29.6747 19.788 29.8587 19.868C30.0427 19.94 30.2147 20.04 30.3747 20.168C30.5427 20.288 30.6827 20.44 30.7947 20.624H30.8187V17.432H31.8387V26Z" fill="black" fill-opacity="0.8"/>
</g>
<defs>
<clipPath id="clip0_1_84">
<rect width="24" height="44" fill="white" transform="translate(9)"/>
</clipPath>
<clipPath id="clip1_1_84">
<rect width="1" height="44" fill="white" transform="translate(9)"/>
</clipPath>
</defs>
</svg>
