<svg width="56" height="44" viewBox="0 0 56 44" fill="none" xmlns="http://www.w3.org/2000/svg">
<g clip-path="url(#clip0_1_90)">
<path d="M41.7132 22.3203H45.1932C45.1702 21.2013 44.5022 20.4633 43.5002 20.4633C42.4922 20.4633 41.7892 21.2013 41.7132 22.3203ZM46.1722 24.3653C45.8792 25.4433 44.8952 26.1113 43.5122 26.1113C41.7602 26.1113 40.6642 24.8453 40.6642 22.8473C40.6642 20.8613 41.7772 19.5723 43.5122 19.5723C45.2172 19.5723 46.2542 20.7853 46.2542 22.7483V23.1343H41.7132V23.1813C41.7662 24.4293 42.4632 25.2203 43.5352 25.2203C44.3502 25.2203 44.9012 24.9223 45.1642 24.3653H46.1722ZM33.8902 19.6833H34.8512V20.6793H34.9452C35.2612 19.9823 35.8772 19.5723 36.8432 19.5723C38.2612 19.5723 39.0522 20.4103 39.0522 21.9103V26.0003H38.0452V22.1563C38.0452 21.0193 37.5642 20.4803 36.5562 20.4803C35.5482 20.4803 34.8982 21.1543 34.8982 22.2613V26.0003H33.8902V19.6833ZM31.3912 22.8413C31.3912 21.3413 30.7172 20.4803 29.5222 20.4803C28.3262 20.4803 27.6522 21.3413 27.6522 22.8413C27.6522 24.3363 28.3262 25.2033 29.5222 25.2033C30.7172 25.2033 31.3912 24.3363 31.3912 22.8413ZM26.6092 22.8413C26.6092 20.8083 27.7232 19.5723 29.5222 19.5723C31.3202 19.5723 32.4342 20.8083 32.4342 22.8413C32.4342 24.8693 31.3202 26.1113 29.5222 26.1113C27.7232 26.1113 26.6092 24.8693 26.6092 22.8413ZM19.9732 17.1753H20.9812V20.6793H21.0742C21.3912 19.9823 22.0532 19.5723 23.0202 19.5723C24.3562 19.5723 25.1992 20.4273 25.1992 21.9103V26.0003H24.1922V22.1563C24.1922 21.0373 23.6882 20.4803 22.7332 20.4803C21.6022 20.4803 20.9812 21.1953 20.9812 22.2613V26.0003H19.9732V17.1753ZM13.9582 22.0453H15.8212C17.0232 22.0453 17.7202 21.4003 17.7202 20.2813C17.7202 19.1213 17.0462 18.4823 15.8212 18.4823H13.9582V22.0453ZM16.0972 17.5453C17.6962 17.5453 18.8042 18.6703 18.8042 20.2813C18.8042 21.8633 17.6732 22.9823 16.0852 22.9823H13.9582V26.0003H12.9032V17.5453H16.0972ZM9.9832 25.9993H10.9912V19.6833H9.9832V25.9993ZM9.7832 17.7613C9.7832 17.3753 10.1002 17.0583 10.4862 17.0583C10.8732 17.0583 11.1902 17.3753 11.1902 17.7613C11.1902 18.1483 10.8732 18.4653 10.4862 18.4653C10.1002 18.4653 9.7832 18.1483 9.7832 17.7613Z" fill="black" fill-opacity="0.8"/>
</g>
<g clip-path="url(#clip1_1_90)">
<path d="M10.848 18.68H9.828V17.432H10.848V18.68ZM9.828 19.796H10.848V26H9.828V19.796ZM13.6162 21.536H15.8482C16.4962 21.544 16.9682 21.412 17.2642 21.14C17.5682 20.868 17.7202 20.476 17.7202 19.964C17.7202 19.452 17.5682 19.064 17.2642 18.8C16.9682 18.528 16.4962 18.392 15.8482 18.392H13.6162V21.536ZM12.4762 17.432H16.2322C17.0962 17.432 17.7482 17.656 18.1882 18.104C18.6362 18.544 18.8602 19.164 18.8602 19.964C18.8602 20.764 18.6362 21.388 18.1882 21.836C17.7482 22.284 17.0962 22.504 16.2322 22.496H13.6162V26H12.4762V17.432ZM19.9694 17.432H20.9894V20.708H21.0134C21.0934 20.516 21.2054 20.356 21.3494 20.228C21.4934 20.092 21.6534 19.984 21.8294 19.904C22.0134 19.816 22.2014 19.752 22.3934 19.712C22.5934 19.672 22.7854 19.652 22.9694 19.652C23.3774 19.652 23.7174 19.708 23.9894 19.82C24.2614 19.932 24.4814 20.088 24.6494 20.288C24.8174 20.488 24.9334 20.728 24.9974 21.008C25.0694 21.28 25.1054 21.584 25.1054 21.92V26H24.0854V21.8C24.0854 21.416 23.9734 21.112 23.7494 20.888C23.5254 20.664 23.2174 20.552 22.8254 20.552C22.5134 20.552 22.2414 20.6 22.0094 20.696C21.7854 20.792 21.5974 20.928 21.4454 21.104C21.2934 21.28 21.1774 21.488 21.0974 21.728C21.0254 21.96 20.9894 22.216 20.9894 22.496V26H19.9694V17.432ZM27.2614 22.904C27.2614 23.28 27.3094 23.616 27.4054 23.912C27.5094 24.2 27.6494 24.444 27.8254 24.644C28.0014 24.836 28.2054 24.984 28.4374 25.088C28.6774 25.192 28.9294 25.244 29.1934 25.244C29.4574 25.244 29.7054 25.192 29.9374 25.088C30.1774 24.984 30.3854 24.836 30.5614 24.644C30.7374 24.444 30.8734 24.2 30.9694 23.912C31.0734 23.616 31.1254 23.28 31.1254 22.904C31.1254 22.528 31.0734 22.196 30.9694 21.908C30.8734 21.612 30.7374 21.364 30.5614 21.164C30.3854 20.964 30.1774 20.812 29.9374 20.708C29.7054 20.604 29.4574 20.552 29.1934 20.552C28.9294 20.552 28.6774 20.604 28.4374 20.708C28.2054 20.812 28.0014 20.964 27.8254 21.164C27.6494 21.364 27.5094 21.612 27.4054 21.908C27.3094 22.196 27.2614 22.528 27.2614 22.904ZM26.1814 22.904C26.1814 22.448 26.2454 22.024 26.3734 21.632C26.5014 21.232 26.6934 20.888 26.9494 20.6C27.2054 20.304 27.5214 20.072 27.8974 19.904C28.2734 19.736 28.7054 19.652 29.1934 19.652C29.6894 19.652 30.1214 19.736 30.4894 19.904C30.8654 20.072 31.1814 20.304 31.4374 20.6C31.6934 20.888 31.8854 21.232 32.0134 21.632C32.1414 22.024 32.2054 22.448 32.2054 22.904C32.2054 23.36 32.1414 23.784 32.0134 24.176C31.8854 24.568 31.6934 24.912 31.4374 25.208C31.1814 25.496 30.8654 25.724 30.4894 25.892C30.1214 26.052 29.6894 26.132 29.1934 26.132C28.7054 26.132 28.2734 26.052 27.8974 25.892C27.5214 25.724 27.2054 25.496 26.9494 25.208C26.6934 24.912 26.5014 24.568 26.3734 24.176C26.2454 23.784 26.1814 23.36 26.1814 22.904ZM33.288 19.796H34.248V20.78H34.272C34.696 20.028 35.368 19.652 36.288 19.652C36.696 19.652 37.036 19.708 37.308 19.82C37.58 19.932 37.8 20.088 37.968 20.288C38.136 20.488 38.252 20.728 38.316 21.008C38.388 21.28 38.424 21.584 38.424 21.92V26H37.404V21.8C37.404 21.416 37.292 21.112 37.068 20.888C36.844 20.664 36.536 20.552 36.144 20.552C35.832 20.552 35.56 20.6 35.328 20.696C35.104 20.792 34.916 20.928 34.764 21.104C34.612 21.28 34.496 21.488 34.416 21.728C34.344 21.96 34.308 22.216 34.308 22.496V26H33.288V19.796ZM44.144 22.304C44.128 22.064 44.072 21.836 43.976 21.62C43.888 21.404 43.764 21.22 43.604 21.068C43.452 20.908 43.268 20.784 43.052 20.696C42.844 20.6 42.612 20.552 42.356 20.552C42.092 20.552 41.852 20.6 41.636 20.696C41.428 20.784 41.248 20.908 41.096 21.068C40.944 21.228 40.824 21.416 40.736 21.632C40.648 21.84 40.596 22.064 40.58 22.304H44.144ZM45.128 24.032C44.992 24.728 44.692 25.252 44.228 25.604C43.764 25.956 43.18 26.132 42.476 26.132C41.98 26.132 41.548 26.052 41.18 25.892C40.82 25.732 40.516 25.508 40.268 25.22C40.02 24.932 39.832 24.588 39.704 24.188C39.584 23.788 39.516 23.352 39.5 22.88C39.5 22.408 39.572 21.976 39.716 21.584C39.86 21.192 40.06 20.852 40.316 20.564C40.58 20.276 40.888 20.052 41.24 19.892C41.6 19.732 41.992 19.652 42.416 19.652C42.968 19.652 43.424 19.768 43.784 20C44.152 20.224 44.444 20.512 44.66 20.864C44.884 21.216 45.036 21.6 45.116 22.016C45.204 22.432 45.24 22.828 45.224 23.204H40.58C40.572 23.476 40.604 23.736 40.676 23.984C40.748 24.224 40.864 24.44 41.024 24.632C41.184 24.816 41.388 24.964 41.636 25.076C41.884 25.188 42.176 25.244 42.512 25.244C42.944 25.244 43.296 25.144 43.568 24.944C43.848 24.744 44.032 24.44 44.12 24.032H45.128Z" fill="black" fill-opacity="0.8"/>
</g>
<defs>
<clipPath id="clip0_1_90">
<rect width="38" height="44" fill="white" transform="translate(9)"/>
</clipPath>
<clipPath id="clip1_1_90">
<rect width="1" height="44" fill="white" transform="translate(9)"/>
</clipPath>
</defs>
</svg>
