<svg width="41" height="44" viewBox="0 0 41 44" fill="none" xmlns="http://www.w3.org/2000/svg">
<g clip-path="url(#clip0_1_78)">
<path d="M17.1563 25.9987V19.5417H17.086L14.42 25.9987H13.5293L10.8633 19.5417H10.793V25.9987H9.80859V17.5436H11.0332L13.9277 24.5983H14.0215L16.916 17.5436H18.1406V25.9987H17.1563ZM19.6729 24.2291C19.6729 23.0982 20.5049 22.4479 21.9756 22.36L23.7979 22.2487V21.6745C23.7979 20.8952 23.3116 20.4675 22.3682 20.4675C21.6123 20.4675 21.085 20.7546 20.9444 21.2527H19.9249C20.0597 20.239 21.0558 19.5711 22.4034 19.5711C23.9444 19.5711 24.8057 20.3621 24.8057 21.6746V25.9988H23.8448V25.067H23.751C23.3408 25.7408 22.6494 26.11 21.8057 26.11C20.5811 26.11 19.6729 25.3834 19.6729 24.2291ZM23.7979 23.6432V23.0631L22.0987 23.1744C21.1378 23.2389 20.7159 23.5728 20.7159 24.2056C20.7159 24.8501 21.2608 25.2251 21.9932 25.2251C23.0303 25.2252 23.7979 24.5455 23.7979 23.6432ZM30.7559 21.6159C30.5918 20.9889 30.0352 20.4792 29.127 20.4792C27.9903 20.4792 27.2754 21.3874 27.2754 22.8171C27.2754 24.2761 28.002 25.2019 29.127 25.2019C29.9766 25.2019 30.5684 24.8093 30.7559 24.0945H31.7754C31.5938 25.2547 30.6504 26.1101 29.1328 26.1101C27.3633 26.1101 26.2324 24.8269 26.2324 22.8171C26.2324 20.8483 27.3574 19.571 29.1269 19.571C30.6621 19.571 31.5996 20.4909 31.7753 21.6159H30.7559Z" fill="black" fill-opacity="0.8"/>
</g>
<g clip-path="url(#clip1_1_78)">
<path d="M9.96 17.432H11.52L14.22 24.632L16.932 17.432H18.492V26H17.412V18.872H17.388L14.712 26H13.74L11.064 18.872H11.04V26H9.96V17.432ZM25.5971 25.976C25.4211 26.08 25.1771 26.132 24.8651 26.132C24.6011 26.132 24.3891 26.06 24.2291 25.916C24.0771 25.764 24.0011 25.52 24.0011 25.184C23.7211 25.52 23.3931 25.764 23.0171 25.916C22.6491 26.06 22.2491 26.132 21.8171 26.132C21.5371 26.132 21.2691 26.1 21.0131 26.036C20.7651 25.972 20.5491 25.872 20.3651 25.736C20.1811 25.6 20.0331 25.424 19.9211 25.208C19.8171 24.984 19.7651 24.716 19.7651 24.404C19.7651 24.052 19.8251 23.764 19.9451 23.54C20.0651 23.316 20.2211 23.136 20.4131 23C20.6131 22.856 20.8371 22.748 21.0851 22.676C21.3411 22.604 21.6011 22.544 21.8651 22.496C22.1451 22.44 22.4091 22.4 22.6571 22.376C22.9131 22.344 23.1371 22.304 23.3291 22.256C23.5211 22.2 23.6731 22.124 23.7851 22.028C23.8971 21.924 23.9531 21.776 23.9531 21.584C23.9531 21.36 23.9091 21.18 23.8211 21.044C23.7411 20.908 23.6331 20.804 23.4971 20.732C23.3691 20.66 23.2211 20.612 23.0531 20.588C22.8931 20.564 22.7331 20.552 22.5731 20.552C22.1411 20.552 21.7811 20.636 21.4931 20.804C21.2051 20.964 21.0491 21.272 21.0251 21.728H20.0051C20.0211 21.344 20.1011 21.02 20.2451 20.756C20.3891 20.492 20.5811 20.28 20.8211 20.12C21.0611 19.952 21.3331 19.832 21.6371 19.76C21.9491 19.688 22.2811 19.652 22.6331 19.652C22.9131 19.652 23.1891 19.672 23.4611 19.712C23.7411 19.752 23.9931 19.836 24.2171 19.964C24.4411 20.084 24.6211 20.256 24.7571 20.48C24.8931 20.704 24.9611 20.996 24.9611 21.356V24.548C24.9611 24.788 24.9731 24.964 24.9971 25.076C25.0291 25.188 25.1251 25.244 25.2851 25.244C25.3731 25.244 25.4771 25.224 25.5971 25.184V25.976ZM23.9411 22.796C23.8131 22.892 23.6451 22.964 23.4371 23.012C23.2291 23.052 23.0091 23.088 22.7771 23.12C22.5531 23.144 22.3251 23.176 22.0931 23.216C21.8611 23.248 21.6531 23.304 21.4691 23.384C21.2851 23.464 21.1331 23.58 21.0131 23.732C20.9011 23.876 20.8451 24.076 20.8451 24.332C20.8451 24.5 20.8771 24.644 20.9411 24.764C21.0131 24.876 21.1011 24.968 21.2051 25.04C21.3171 25.112 21.4451 25.164 21.5891 25.196C21.7331 25.228 21.8851 25.244 22.0451 25.244C22.3811 25.244 22.6691 25.2 22.9091 25.112C23.1491 25.016 23.3451 24.9 23.4971 24.764C23.6491 24.62 23.7611 24.468 23.8331 24.308C23.9051 24.14 23.9411 23.984 23.9411 23.84V22.796ZM30.6384 21.788C30.5584 21.396 30.3904 21.092 30.1344 20.876C29.8784 20.66 29.5344 20.552 29.1024 20.552C28.7344 20.552 28.4264 20.62 28.1784 20.756C27.9304 20.892 27.7304 21.072 27.5784 21.296C27.4344 21.52 27.3304 21.78 27.2664 22.076C27.2024 22.364 27.1704 22.664 27.1704 22.976C27.1704 23.264 27.2024 23.544 27.2664 23.816C27.3384 24.088 27.4464 24.332 27.5904 24.548C27.7344 24.756 27.9224 24.924 28.1544 25.052C28.3864 25.18 28.6624 25.244 28.9824 25.244C29.4864 25.244 29.8784 25.112 30.1584 24.848C30.4464 24.584 30.6224 24.212 30.6864 23.732H31.7304C31.6184 24.5 31.3304 25.092 30.8664 25.508C30.4104 25.924 29.7864 26.132 28.9944 26.132C28.5224 26.132 28.1024 26.056 27.7344 25.904C27.3744 25.752 27.0704 25.536 26.8224 25.256C26.5824 24.976 26.3984 24.644 26.2704 24.26C26.1504 23.868 26.0904 23.44 26.0904 22.976C26.0904 22.512 26.1504 22.08 26.2704 21.68C26.3904 21.272 26.5704 20.92 26.8104 20.624C27.0584 20.32 27.3664 20.084 27.7344 19.916C28.1024 19.74 28.5304 19.652 29.0184 19.652C29.3704 19.652 29.6984 19.696 30.0024 19.784C30.3144 19.864 30.5864 19.992 30.8184 20.168C31.0584 20.344 31.2544 20.568 31.4064 20.84C31.5584 21.104 31.6544 21.42 31.6944 21.788H30.6384Z" fill="black" fill-opacity="0.8"/>
</g>
<defs>
<clipPath id="clip0_1_78">
<rect width="23" height="44" fill="white" transform="translate(9)"/>
</clipPath>
<clipPath id="clip1_1_78">
<rect width="1" height="44" fill="white" transform="translate(9)"/>
</clipPath>
</defs>
</svg>
