<svg width="48" height="44" viewBox="0 0 48 44" fill="none" xmlns="http://www.w3.org/2000/svg">
<g clip-path="url(#clip0_1_72)">
<path d="M35.5674 20.4629C36.5694 20.4629 37.2374 21.2009 37.2604 22.3199H33.7804C33.8564 21.2009 34.5594 20.4629 35.5674 20.4629ZM38.3214 23.1349V22.7479C38.3214 20.7849 37.2844 19.5719 35.5794 19.5719C33.8444 19.5719 32.7314 20.8609 32.7314 22.8479C32.7314 24.8459 33.8274 26.1109 35.5794 26.1109C36.9624 26.1109 37.9464 25.4429 38.2394 24.3649H37.2314C36.9674 24.9219 36.4174 25.2209 35.6024 25.2209C34.5304 25.2209 33.8334 24.4299 33.7804 23.1819V23.1349H38.3214ZM28.7744 19.6839H29.7344V20.6209H29.8284C30.0164 20.0059 30.7424 19.5719 31.5804 19.5719C31.7444 19.5719 31.9554 19.5839 32.0844 19.6019V20.6089C32.0024 20.5859 31.6394 20.5509 31.4404 20.5509C30.4794 20.5509 29.7814 21.6489 29.7814 22.0859V25.9999H28.7744V19.6839ZM24.5044 25.2029C23.3094 25.2029 22.6354 24.3359 22.6354 22.8419C22.6354 21.3419 23.3094 20.4809 24.5044 20.4809C25.7004 20.4809 26.3744 21.3419 26.3744 22.8419C26.3744 24.3359 25.7004 25.2029 24.5044 25.2029ZM24.5044 19.5719C22.7064 19.5719 21.5924 20.8089 21.5924 22.8419C21.5924 24.8689 22.7064 26.1109 24.5044 26.1109C26.3034 26.1109 27.4174 24.8689 27.4174 22.8419C27.4174 20.8089 26.3034 19.5719 24.5044 19.5719ZM19.0264 18.0969V19.7319H20.4334V20.5749H19.0264V24.1499C19.0264 24.8939 19.3084 25.2099 19.9644 25.2099C20.1464 25.2099 20.2454 25.2039 20.4334 25.1869V26.0359C20.2344 26.0709 20.0404 26.0949 19.8414 26.0949C18.5404 26.0949 18.0194 25.6139 18.0194 24.4069V20.5749H16.9994V19.7319H18.0194V18.0969H19.0264ZM10.9234 23.7909C11.0524 24.6759 11.8964 25.2379 13.0974 25.2379C14.2344 25.2379 15.0724 24.6229 15.0724 23.7849C15.0724 23.0649 14.5454 22.6079 13.3794 22.3149L12.2954 22.0329C10.7654 21.6469 10.1034 20.9549 10.1034 19.7539C10.1034 18.3179 11.3044 17.3459 13.0914 17.3459C14.7264 17.3459 15.9454 18.3179 16.0334 19.6839H14.9724C14.8264 18.8169 14.1114 18.3009 13.0564 18.3009C11.9314 18.3009 11.1874 18.8629 11.1874 19.7189C11.1874 20.3809 11.6504 20.7619 12.8164 21.0609L13.7014 21.2949C15.4534 21.7339 16.1564 22.4139 16.1564 23.6559C16.1564 25.2089 14.9314 26.1989 12.9984 26.1989C11.2054 26.1989 9.96842 25.2499 9.85742 23.7909H10.9234Z" fill="black" fill-opacity="0.8"/>
</g>
<g clip-path="url(#clip1_1_72)">
<path d="M14.892 19.94C14.828 19.324 14.604 18.88 14.22 18.608C13.844 18.328 13.36 18.188 12.768 18.188C12.528 18.188 12.292 18.212 12.06 18.26C11.828 18.308 11.62 18.388 11.436 18.5C11.26 18.612 11.116 18.764 11.004 18.956C10.9 19.14 10.848 19.372 10.848 19.652C10.848 19.916 10.924 20.132 11.076 20.3C11.236 20.46 11.444 20.592 11.7 20.696C11.964 20.8 12.26 20.888 12.588 20.96C12.916 21.024 13.248 21.096 13.584 21.176C13.928 21.256 14.264 21.352 14.592 21.464C14.92 21.568 15.212 21.712 15.468 21.896C15.732 22.08 15.94 22.312 16.092 22.592C16.252 22.872 16.332 23.224 16.332 23.648C16.332 24.104 16.228 24.496 16.02 24.824C15.82 25.144 15.56 25.408 15.24 25.616C14.92 25.816 14.56 25.96 14.16 26.048C13.768 26.144 13.376 26.192 12.984 26.192C12.504 26.192 12.048 26.132 11.616 26.012C11.192 25.892 10.816 25.712 10.488 25.472C10.168 25.224 9.912 24.912 9.72 24.536C9.536 24.152 9.444 23.7 9.444 23.18H10.524C10.524 23.54 10.592 23.852 10.728 24.116C10.872 24.372 11.056 24.584 11.28 24.752C11.512 24.92 11.78 25.044 12.084 25.124C12.388 25.204 12.7 25.244 13.02 25.244C13.276 25.244 13.532 25.22 13.788 25.172C14.052 25.124 14.288 25.044 14.496 24.932C14.704 24.812 14.872 24.652 15 24.452C15.128 24.252 15.192 23.996 15.192 23.684C15.192 23.388 15.112 23.148 14.952 22.964C14.8 22.78 14.592 22.632 14.328 22.52C14.072 22.4 13.78 22.304 13.452 22.232C13.124 22.16 12.788 22.088 12.444 22.016C12.108 21.936 11.776 21.848 11.448 21.752C11.12 21.648 10.824 21.516 10.56 21.356C10.304 21.188 10.096 20.976 9.936 20.72C9.784 20.456 9.708 20.128 9.708 19.736C9.708 19.304 9.796 18.932 9.972 18.62C10.148 18.3 10.38 18.04 10.668 17.84C10.964 17.632 11.296 17.48 11.664 17.384C12.04 17.28 12.424 17.228 12.816 17.228C13.256 17.228 13.664 17.28 14.04 17.384C14.416 17.488 14.744 17.652 15.024 17.876C15.312 18.1 15.536 18.384 15.696 18.728C15.864 19.064 15.956 19.468 15.972 19.94H14.892ZM18.8453 19.796H20.0813V20.696H18.8453V24.548C18.8453 24.668 18.8533 24.764 18.8693 24.836C18.8933 24.908 18.9333 24.964 18.9893 25.004C19.0453 25.044 19.1213 25.072 19.2173 25.088C19.3213 25.096 19.4533 25.1 19.6133 25.1H20.0813V26H19.3013C19.0373 26 18.8093 25.984 18.6173 25.952C18.4333 25.912 18.2813 25.844 18.1613 25.748C18.0493 25.652 17.9653 25.516 17.9093 25.34C17.8533 25.164 17.8253 24.932 17.8253 24.644V20.696H16.7693V19.796H17.8253V17.936H18.8453V19.796ZM21.8384 22.904C21.8384 23.28 21.8864 23.616 21.9824 23.912C22.0864 24.2 22.2264 24.444 22.4024 24.644C22.5784 24.836 22.7824 24.984 23.0144 25.088C23.2544 25.192 23.5064 25.244 23.7704 25.244C24.0344 25.244 24.2824 25.192 24.5144 25.088C24.7544 24.984 24.9624 24.836 25.1384 24.644C25.3144 24.444 25.4504 24.2 25.5464 23.912C25.6504 23.616 25.7024 23.28 25.7024 22.904C25.7024 22.528 25.6504 22.196 25.5464 21.908C25.4504 21.612 25.3144 21.364 25.1384 21.164C24.9624 20.964 24.7544 20.812 24.5144 20.708C24.2824 20.604 24.0344 20.552 23.7704 20.552C23.5064 20.552 23.2544 20.604 23.0144 20.708C22.7824 20.812 22.5784 20.964 22.4024 21.164C22.2264 21.364 22.0864 21.612 21.9824 21.908C21.8864 22.196 21.8384 22.528 21.8384 22.904ZM20.7584 22.904C20.7584 22.448 20.8224 22.024 20.9504 21.632C21.0784 21.232 21.2704 20.888 21.5264 20.6C21.7824 20.304 22.0984 20.072 22.4744 19.904C22.8504 19.736 23.2824 19.652 23.7704 19.652C24.2664 19.652 24.6984 19.736 25.0664 19.904C25.4424 20.072 25.7584 20.304 26.0144 20.6C26.2704 20.888 26.4624 21.232 26.5904 21.632C26.7184 22.024 26.7824 22.448 26.7824 22.904C26.7824 23.36 26.7184 23.784 26.5904 24.176C26.4624 24.568 26.2704 24.912 26.0144 25.208C25.7584 25.496 25.4424 25.724 25.0664 25.892C24.6984 26.052 24.2664 26.132 23.7704 26.132C23.2824 26.132 22.8504 26.052 22.4744 25.892C22.0984 25.724 21.7824 25.496 21.5264 25.208C21.2704 24.912 21.0784 24.568 20.9504 24.176C20.8224 23.784 20.7584 23.36 20.7584 22.904ZM27.829 19.796H28.789V21.104H28.813C29.061 20.6 29.365 20.228 29.725 19.988C30.085 19.748 30.541 19.636 31.093 19.652V20.732C30.685 20.732 30.337 20.788 30.049 20.9C29.761 21.012 29.529 21.176 29.353 21.392C29.177 21.608 29.049 21.872 28.969 22.184C28.889 22.488 28.849 22.84 28.849 23.24V26H27.829V19.796ZM35.8382 22.304C35.8222 22.064 35.7662 21.836 35.6702 21.62C35.5822 21.404 35.4582 21.22 35.2982 21.068C35.1462 20.908 34.9622 20.784 34.7462 20.696C34.5382 20.6 34.3062 20.552 34.0502 20.552C33.7862 20.552 33.5462 20.6 33.3302 20.696C33.1222 20.784 32.9422 20.908 32.7902 21.068C32.6382 21.228 32.5182 21.416 32.4302 21.632C32.3422 21.84 32.2902 22.064 32.2742 22.304H35.8382ZM36.8222 24.032C36.6862 24.728 36.3862 25.252 35.9222 25.604C35.4582 25.956 34.8742 26.132 34.1702 26.132C33.6742 26.132 33.2422 26.052 32.8742 25.892C32.5142 25.732 32.2102 25.508 31.9622 25.22C31.7142 24.932 31.5262 24.588 31.3982 24.188C31.2782 23.788 31.2102 23.352 31.1942 22.88C31.1942 22.408 31.2662 21.976 31.4102 21.584C31.5542 21.192 31.7542 20.852 32.0102 20.564C32.2742 20.276 32.5822 20.052 32.9342 19.892C33.2942 19.732 33.6862 19.652 34.1102 19.652C34.6622 19.652 35.1182 19.768 35.4782 20C35.8462 20.224 36.1382 20.512 36.3542 20.864C36.5782 21.216 36.7302 21.6 36.8102 22.016C36.8982 22.432 36.9342 22.828 36.9182 23.204H32.2742C32.2662 23.476 32.2982 23.736 32.3702 23.984C32.4422 24.224 32.5582 24.44 32.7182 24.632C32.8782 24.816 33.0822 24.964 33.3302 25.076C33.5782 25.188 33.8702 25.244 34.2062 25.244C34.6382 25.244 34.9902 25.144 35.2622 24.944C35.5422 24.744 35.7262 24.44 35.8142 24.032H36.8222Z" fill="black" fill-opacity="0.8"/>
</g>
<defs>
<clipPath id="clip0_1_72">
<rect width="30" height="44" fill="white" transform="translate(9)"/>
</clipPath>
<clipPath id="clip1_1_72">
<rect width="1" height="44" fill="white" transform="translate(9)"/>
</clipPath>
</defs>
</svg>
