<svg width="62" height="44" viewBox="0 0 62 44" fill="none" xmlns="http://www.w3.org/2000/svg">
<g clip-path="url(#clip0_1_126)">
<path d="M51.1207 18.0337V19.6687H52.5267V20.5127H51.1207V24.0867C51.1207 24.8307 51.4017 25.1467 52.0577 25.1467C52.2397 25.1467 52.3397 25.1407 52.5267 25.1237V25.9727C52.3277 26.0087 52.1347 26.0317 51.9347 26.0317C50.6347 26.0317 50.1127 25.5517 50.1127 24.3447V20.5127H49.0937V19.6687H50.1127V18.0337H51.1207ZM44.9897 19.6687H45.9507V20.6057H46.0437C46.2317 19.9907 46.9577 19.5567 47.7957 19.5567C47.9597 19.5567 48.1707 19.5687 48.2997 19.5867V20.5947C48.2177 20.5707 47.8547 20.5357 47.6557 20.5357C46.6947 20.5357 45.9967 21.1797 45.9967 22.0707V25.9847H44.9897V19.6687ZM42.5267 22.8267C42.5267 21.3267 41.8527 20.4657 40.6577 20.4657C39.4627 20.4657 38.7887 21.3267 38.7887 22.8267C38.7887 24.3207 39.4627 25.1877 40.6577 25.1877C41.8527 25.1877 42.5267 24.3207 42.5267 22.8267ZM37.7457 22.8267C37.7457 20.7937 38.8587 19.5567 40.6577 19.5567C42.4567 19.5567 43.5697 20.7937 43.5697 22.8267C43.5697 24.8537 42.4567 26.0967 40.6577 26.0967C38.8587 26.0967 37.7457 24.8537 37.7457 22.8267ZM35.6377 22.8267C35.6377 21.3497 34.9457 20.4657 33.7917 20.4657C32.6487 20.4657 31.9287 21.3737 31.9287 22.8267C31.9287 24.2737 32.6487 25.1877 33.7857 25.1877C34.9457 25.1877 35.6377 24.3037 35.6377 22.8267ZM36.6807 22.8267C36.6807 24.8017 35.6317 26.0967 34.0257 26.0967C33.1237 26.0967 32.3967 25.7037 32.0517 25.0357H31.9577V28.0947H30.9497V19.6687H31.9107V20.7227H32.0047C32.4087 19.9967 33.1647 19.5567 34.0257 19.5567C35.6377 19.5567 36.6807 20.8407 36.6807 22.8267ZM28.6327 22.8267C28.6327 21.3497 27.9417 20.4657 26.7877 20.4657C25.6447 20.4657 24.9237 21.3737 24.9237 22.8267C24.9237 24.2737 25.6447 25.1877 26.7817 25.1877C27.9417 25.1877 28.6327 24.3037 28.6327 22.8267ZM29.6757 22.8267C29.6757 24.8017 28.6267 26.0967 27.0217 26.0967C26.1197 26.0967 25.3927 25.7037 25.0467 25.0357H24.9537V28.0947H23.9457V19.6687H24.9067V20.7227H24.9997C25.4047 19.9967 26.1607 19.5567 27.0217 19.5567C28.6327 19.5567 29.6757 20.8407 29.6757 22.8267ZM22.0307 25.9847H21.0697V24.9947H20.9757C20.6597 25.6977 19.9857 26.0967 19.0187 26.0967C17.6007 26.0967 16.8627 25.2527 16.8627 23.7587V19.6687H17.8707V23.5127C17.8707 24.6487 18.2927 25.1767 19.3007 25.1767C20.4137 25.1767 21.0227 24.5137 21.0227 23.4067V19.6687H22.0307V25.9847ZM10.3407 23.7757C10.4697 24.6607 11.3127 25.2227 12.5147 25.2227C13.6507 25.2227 14.4887 24.6077 14.4887 23.7697C14.4887 23.0497 13.9617 22.5927 12.7957 22.2997L11.7117 22.0177C10.1827 21.6317 9.51968 20.9397 9.51968 19.7387C9.51968 18.3037 10.7217 17.3307 12.5087 17.3307C14.1427 17.3307 15.3617 18.3037 15.4497 19.6687H14.3897C14.2427 18.8017 13.5277 18.2857 12.4737 18.2857C11.3487 18.2857 10.6037 18.8477 10.6037 19.7037C10.6037 20.3657 11.0667 20.7467 12.2327 21.0457L13.1177 21.2797C14.8697 21.7197 15.5727 22.3987 15.5727 23.6407C15.5727 25.1937 14.3487 26.1837 12.4147 26.1837C10.6217 26.1837 9.38568 25.2347 9.27368 23.7757H10.3407Z" fill="black" fill-opacity="0.8"/>
</g>
<g clip-path="url(#clip1_1_126)">
<path d="M14.892 19.94C14.828 19.324 14.604 18.88 14.22 18.608C13.844 18.328 13.36 18.188 12.768 18.188C12.528 18.188 12.292 18.212 12.06 18.26C11.828 18.308 11.62 18.388 11.436 18.5C11.26 18.612 11.116 18.764 11.004 18.956C10.9 19.14 10.848 19.372 10.848 19.652C10.848 19.916 10.924 20.132 11.076 20.3C11.236 20.46 11.444 20.592 11.7 20.696C11.964 20.8 12.26 20.888 12.588 20.96C12.916 21.024 13.248 21.096 13.584 21.176C13.928 21.256 14.264 21.352 14.592 21.464C14.92 21.568 15.212 21.712 15.468 21.896C15.732 22.08 15.94 22.312 16.092 22.592C16.252 22.872 16.332 23.224 16.332 23.648C16.332 24.104 16.228 24.496 16.02 24.824C15.82 25.144 15.56 25.408 15.24 25.616C14.92 25.816 14.56 25.96 14.16 26.048C13.768 26.144 13.376 26.192 12.984 26.192C12.504 26.192 12.048 26.132 11.616 26.012C11.192 25.892 10.816 25.712 10.488 25.472C10.168 25.224 9.912 24.912 9.72 24.536C9.536 24.152 9.444 23.7 9.444 23.18H10.524C10.524 23.54 10.592 23.852 10.728 24.116C10.872 24.372 11.056 24.584 11.28 24.752C11.512 24.92 11.78 25.044 12.084 25.124C12.388 25.204 12.7 25.244 13.02 25.244C13.276 25.244 13.532 25.22 13.788 25.172C14.052 25.124 14.288 25.044 14.496 24.932C14.704 24.812 14.872 24.652 15 24.452C15.128 24.252 15.192 23.996 15.192 23.684C15.192 23.388 15.112 23.148 14.952 22.964C14.8 22.78 14.592 22.632 14.328 22.52C14.072 22.4 13.78 22.304 13.452 22.232C13.124 22.16 12.788 22.088 12.444 22.016C12.108 21.936 11.776 21.848 11.448 21.752C11.12 21.648 10.824 21.516 10.56 21.356C10.304 21.188 10.096 20.976 9.936 20.72C9.784 20.456 9.708 20.128 9.708 19.736C9.708 19.304 9.796 18.932 9.972 18.62C10.148 18.3 10.38 18.04 10.668 17.84C10.964 17.632 11.296 17.48 11.664 17.384C12.04 17.28 12.424 17.228 12.816 17.228C13.256 17.228 13.664 17.28 14.04 17.384C14.416 17.488 14.744 17.652 15.024 17.876C15.312 18.1 15.536 18.384 15.696 18.728C15.864 19.064 15.956 19.468 15.972 19.94H14.892ZM22.5653 26H21.6053V25.016H21.5813C21.3653 25.4 21.0893 25.684 20.7533 25.868C20.4173 26.044 20.0213 26.132 19.5653 26.132C19.1573 26.132 18.8173 26.08 18.5453 25.976C18.2733 25.864 18.0533 25.708 17.8853 25.508C17.7173 25.308 17.5973 25.072 17.5253 24.8C17.4613 24.52 17.4293 24.212 17.4293 23.876V19.796H18.4493V23.996C18.4493 24.38 18.5613 24.684 18.7853 24.908C19.0093 25.132 19.3173 25.244 19.7093 25.244C20.0213 25.244 20.2893 25.196 20.5133 25.1C20.7453 25.004 20.9373 24.868 21.0893 24.692C21.2413 24.516 21.3533 24.312 21.4253 24.08C21.5053 23.84 21.5453 23.58 21.5453 23.3V19.796H22.5653V26ZM24.0132 19.796H25.0332V20.636H25.0572C25.2252 20.292 25.4892 20.044 25.8492 19.892C26.2092 19.732 26.6052 19.652 27.0372 19.652C27.5172 19.652 27.9332 19.74 28.2852 19.916C28.6452 20.092 28.9412 20.332 29.1732 20.636C29.4132 20.932 29.5932 21.276 29.7132 21.668C29.8332 22.06 29.8932 22.476 29.8932 22.916C29.8932 23.356 29.8332 23.772 29.7132 24.164C29.6012 24.556 29.4252 24.9 29.1852 25.196C28.9532 25.484 28.6572 25.712 28.2972 25.88C27.9452 26.048 27.5332 26.132 27.0612 26.132C26.9092 26.132 26.7372 26.116 26.5452 26.084C26.3612 26.052 26.1772 26 25.9932 25.928C25.8092 25.856 25.6332 25.76 25.4652 25.64C25.3052 25.512 25.1692 25.356 25.0572 25.172H25.0332V28.364H24.0132V19.796ZM28.8132 22.844C28.8132 22.556 28.7732 22.276 28.6932 22.004C28.6212 21.724 28.5052 21.476 28.3452 21.26C28.1932 21.044 27.9932 20.872 27.7452 20.744C27.5052 20.616 27.2212 20.552 26.8932 20.552C26.5492 20.552 26.2572 20.62 26.0172 20.756C25.7772 20.892 25.5812 21.072 25.4292 21.296C25.2772 21.512 25.1652 21.76 25.0932 22.04C25.0292 22.32 24.9972 22.604 24.9972 22.892C24.9972 23.196 25.0332 23.492 25.1052 23.78C25.1772 24.06 25.2892 24.308 25.4412 24.524C25.6012 24.74 25.8052 24.916 26.0532 25.052C26.3012 25.18 26.6012 25.244 26.9532 25.244C27.3052 25.244 27.5972 25.176 27.8292 25.04C28.0692 24.904 28.2612 24.724 28.4052 24.5C28.5492 24.276 28.6532 24.02 28.7172 23.732C28.7812 23.444 28.8132 23.148 28.8132 22.844ZM31.0065 19.796H32.0265V20.636H32.0505C32.2185 20.292 32.4825 20.044 32.8425 19.892C33.2025 19.732 33.5985 19.652 34.0305 19.652C34.5105 19.652 34.9265 19.74 35.2785 19.916C35.6385 20.092 35.9345 20.332 36.1665 20.636C36.4065 20.932 36.5865 21.276 36.7065 21.668C36.8265 22.06 36.8865 22.476 36.8865 22.916C36.8865 23.356 36.8265 23.772 36.7065 24.164C36.5945 24.556 36.4185 24.9 36.1785 25.196C35.9465 25.484 35.6505 25.712 35.2905 25.88C34.9385 26.048 34.5265 26.132 34.0545 26.132C33.9025 26.132 33.7305 26.116 33.5385 26.084C33.3545 26.052 33.1705 26 32.9865 25.928C32.8025 25.856 32.6265 25.76 32.4585 25.64C32.2985 25.512 32.1625 25.356 32.0505 25.172H32.0265V28.364H31.0065V19.796ZM35.8065 22.844C35.8065 22.556 35.7665 22.276 35.6865 22.004C35.6145 21.724 35.4985 21.476 35.3385 21.26C35.1865 21.044 34.9865 20.872 34.7385 20.744C34.4985 20.616 34.2145 20.552 33.8865 20.552C33.5425 20.552 33.2505 20.62 33.0105 20.756C32.7705 20.892 32.5745 21.072 32.4225 21.296C32.2705 21.512 32.1585 21.76 32.0865 22.04C32.0225 22.32 31.9905 22.604 31.9905 22.892C31.9905 23.196 32.0265 23.492 32.0985 23.78C32.1705 24.06 32.2825 24.308 32.4345 24.524C32.5945 24.74 32.7985 24.916 33.0465 25.052C33.2945 25.18 33.5945 25.244 33.9465 25.244C34.2985 25.244 34.5905 25.176 34.8225 25.04C35.0625 24.904 35.2545 24.724 35.3985 24.5C35.5425 24.276 35.6465 24.02 35.7105 23.732C35.7745 23.444 35.8065 23.148 35.8065 22.844ZM38.7078 22.904C38.7078 23.28 38.7558 23.616 38.8518 23.912C38.9558 24.2 39.0958 24.444 39.2718 24.644C39.4478 24.836 39.6518 24.984 39.8838 25.088C40.1238 25.192 40.3758 25.244 40.6398 25.244C40.9038 25.244 41.1518 25.192 41.3838 25.088C41.6238 24.984 41.8318 24.836 42.0078 24.644C42.1838 24.444 42.3198 24.2 42.4158 23.912C42.5198 23.616 42.5718 23.28 42.5718 22.904C42.5718 22.528 42.5198 22.196 42.4158 21.908C42.3198 21.612 42.1838 21.364 42.0078 21.164C41.8318 20.964 41.6238 20.812 41.3838 20.708C41.1518 20.604 40.9038 20.552 40.6398 20.552C40.3758 20.552 40.1238 20.604 39.8838 20.708C39.6518 20.812 39.4478 20.964 39.2718 21.164C39.0958 21.364 38.9558 21.612 38.8518 21.908C38.7558 22.196 38.7078 22.528 38.7078 22.904ZM37.6278 22.904C37.6278 22.448 37.6918 22.024 37.8198 21.632C37.9478 21.232 38.1398 20.888 38.3958 20.6C38.6518 20.304 38.9678 20.072 39.3438 19.904C39.7198 19.736 40.1518 19.652 40.6398 19.652C41.1358 19.652 41.5678 19.736 41.9358 19.904C42.3118 20.072 42.6278 20.304 42.8838 20.6C43.1398 20.888 43.3318 21.232 43.4598 21.632C43.5878 22.024 43.6518 22.448 43.6518 22.904C43.6518 23.36 43.5878 23.784 43.4598 24.176C43.3318 24.568 43.1398 24.912 42.8838 25.208C42.6278 25.496 42.3118 25.724 41.9358 25.892C41.5678 26.052 41.1358 26.132 40.6398 26.132C40.1518 26.132 39.7198 26.052 39.3438 25.892C38.9678 25.724 38.6518 25.496 38.3958 25.208C38.1398 24.912 37.9478 24.568 37.8198 24.176C37.6918 23.784 37.6278 23.36 37.6278 22.904ZM44.6984 19.796H45.6584V21.104H45.6824C45.9304 20.6 46.2344 20.228 46.5944 19.988C46.9544 19.748 47.4104 19.636 47.9624 19.652V20.732C47.5544 20.732 47.2064 20.788 46.9184 20.9C46.6304 21.012 46.3984 21.176 46.2224 21.392C46.0464 21.608 45.9184 21.872 45.8384 22.184C45.7584 22.488 45.7184 22.84 45.7184 23.24V26H44.6984V19.796ZM50.0265 19.796H51.2625V20.696H50.0265V24.548C50.0265 24.668 50.0345 24.764 50.0505 24.836C50.0745 24.908 50.1145 24.964 50.1705 25.004C50.2265 25.044 50.3025 25.072 50.3985 25.088C50.5025 25.096 50.6345 25.1 50.7945 25.1H51.2625V26H50.4825C50.2185 26 49.9905 25.984 49.7985 25.952C49.6145 25.912 49.4625 25.844 49.3425 25.748C49.2305 25.652 49.1465 25.516 49.0905 25.34C49.0345 25.164 49.0065 24.932 49.0065 24.644V20.696H47.9505V19.796H49.0065V17.936H50.0265V19.796Z" fill="black" fill-opacity="0.8"/>
</g>
<defs>
<clipPath id="clip0_1_126">
<rect width="44" height="44" fill="white" transform="translate(9)"/>
</clipPath>
<clipPath id="clip1_1_126">
<rect width="1" height="44" fill="white" transform="translate(9)"/>
</clipPath>
</defs>
</svg>
