<svg width="14" height="44" viewBox="0 0 14 44" fill="none" xmlns="http://www.w3.org/2000/svg">
<g clip-path="url(#clip0_1_135)">
<path d="M11.3528 16.0283H10.3323C10.2229 15.2173 9.82654 14.4723 9.21509 13.9284C8.60363 13.3845 7.81754 13.0776 6.9993 13.0635C6.18106 13.0776 5.39496 13.3845 4.78351 13.9284C4.17205 14.4723 3.7757 15.2173 3.6663 16.0283H2.6463C2.08509 16.0286 1.54696 16.2517 1.15004 16.6485C0.753133 17.0452 0.52988 17.5833 0.529297 18.1445V25.86C0.5298 26.4211 0.752902 26.9591 1.14964 27.356C1.54638 27.7528 2.08435 27.976 2.6455 27.9767H11.3525C11.9137 27.9762 12.4519 27.753 12.8487 27.3562C13.2456 26.9593 13.4688 26.4212 13.4693 25.86V18.1445C13.4687 17.5834 13.2455 17.0454 12.8487 16.6486C12.4519 16.2519 11.9139 16.0288 11.3528 16.0283ZM6.9993 14.1631C7.52671 14.1745 8.03441 14.3656 8.43848 14.7048C8.84255 15.0439 9.11877 15.5108 9.2215 16.0283H4.7771C4.87982 15.5108 5.15605 15.0439 5.56011 14.7048C5.96418 14.3656 6.47189 14.1745 6.9993 14.1631ZM12.3693 25.86C12.369 26.1296 12.2618 26.388 12.0713 26.5787C11.8807 26.7693 11.6223 26.8767 11.3527 26.8771H2.6458C2.37624 26.8766 2.11786 26.7693 1.92731 26.5786C1.73676 26.388 1.62959 26.1295 1.6293 25.86V18.1445C1.62961 17.875 1.73682 17.6166 1.9274 17.426C2.11798 17.2354 2.37638 17.1282 2.6459 17.1279H11.3529C11.6224 17.1282 11.8807 17.2355 12.0713 17.4261C12.2618 17.6166 12.369 17.875 12.3693 18.1445V25.86Z" fill="black" fill-opacity="0.8"/>
</g>
<defs>
<clipPath id="clip0_1_135">
<rect width="14" height="44" fill="white"/>
</clipPath>
</defs>
</svg>
