<svg width="15" height="44" viewBox="0 0 15 44" fill="none" xmlns="http://www.w3.org/2000/svg">
<g clip-path="url(#clip0_1_132)">
<path d="M14.2972 27.202L10.4272 23.332C11.1282 22.403 11.5492 21.251 11.5492 20C11.5492 16.94 9.06022 14.45 5.99922 14.45C2.93922 14.45 0.449219 16.94 0.449219 20C0.449219 23.061 2.93922 25.55 5.99922 25.55C7.25022 25.55 8.40222 25.129 9.33122 24.428L13.2012 28.298C13.3522 28.449 13.5512 28.526 13.7492 28.526C13.9472 28.526 14.1452 28.45 14.2972 28.298C14.6002 27.995 14.6002 27.505 14.2972 27.202ZM1.54922 20C1.54922 17.546 3.54622 15.55 5.99922 15.55C8.45322 15.55 10.4492 17.547 10.4492 20C10.4492 22.453 8.45322 24.45 5.99922 24.45C3.54522 24.45 1.54922 22.454 1.54922 20Z" fill="black" fill-opacity="0.8"/>
</g>
<defs>
<clipPath id="clip0_1_132">
<rect width="15" height="44" fill="white"/>
</clipPath>
</defs>
</svg>
