<svg width="83" height="44" viewBox="0 0 83 44" fill="none" xmlns="http://www.w3.org/2000/svg">
<g clip-path="url(#clip0_1_108)">
<path d="M13.375 26V18.4941H10.6504V17.5449H17.1543V18.4941H14.4297V26H13.375ZM21.1064 26L17.9892 17.5449H19.0966L21.581 24.6347H21.6748L24.1592 17.5449H25.2666L22.1494 26H21.1064ZM35.0874 25.1562C34.3667 25.789 33.3765 26.1582 32.3511 26.1582C30.6695 26.1582 29.4917 25.1621 29.4917 23.7441C29.4917 22.7421 30.0366 21.9804 31.1675 21.3828C31.2437 21.3476 31.4019 21.2656 31.4956 21.2187C30.7163 20.3984 30.4351 19.8535 30.4351 19.2382C30.4351 18.1542 31.355 17.3456 32.5913 17.3456C33.8393 17.3456 34.7475 18.1425 34.7475 19.2499C34.7475 20.1171 34.226 20.7499 32.9194 21.4354L35.0346 23.7088C35.2983 23.1815 35.433 22.49 35.433 21.4354V21.2889H36.4174V21.4412C36.4174 22.7537 36.183 23.7088 35.7201 24.4236L37.1909 26H35.8667L35.0874 25.1562ZM30.5464 23.6738C30.5464 24.623 31.314 25.2676 32.4448 25.2676C33.2124 25.2676 34.0034 24.9629 34.4663 24.4766L32.0757 21.8633C32.0112 21.8867 31.8589 21.9629 31.7769 22.0039C30.9624 22.4258 30.5464 23.0117 30.5464 23.6738ZM33.7573 19.2852C33.7573 18.629 33.2827 18.1836 32.5971 18.1836C31.9233 18.1836 31.4428 18.6406 31.4428 19.2969C31.4428 19.7657 31.683 20.1758 32.351 20.8379C33.3823 20.3105 33.7573 19.8887 33.7573 19.2852ZM47.2749 26V22.1504H42.6343V26H41.5796V17.5449H42.6343V21.2011H47.2749V17.5449H48.3296V26H47.2749ZM49.9204 22.8418C49.9204 20.8086 51.0337 19.5723 52.8325 19.5723C54.6313 19.5723 55.7446 20.8086 55.7446 22.8418C55.7446 24.8691 54.6313 26.1113 52.8325 26.1113C51.0337 26.1113 49.9204 24.8691 49.9204 22.8418ZM54.7016 22.8418C54.7016 21.3418 54.0278 20.4805 52.8325 20.4805C51.6372 20.4805 50.9634 21.3418 50.9634 22.8418C50.9634 24.3359 51.6372 25.2031 52.8325 25.2031C54.0278 25.2031 54.7016 24.3359 54.7016 22.8418ZM57.207 19.6836H58.1679V20.6797H58.2617C58.5488 19.9766 59.1816 19.5723 60.0254 19.5723C60.8809 19.5723 61.4785 20.0235 61.7715 20.6797H61.8653C62.2051 20.0117 62.9258 19.5723 63.7989 19.5723C65.088 19.5723 65.8087 20.3106 65.8087 21.6348V26H64.8009V21.8691C64.8009 20.9375 64.3614 20.4804 63.4708 20.4804C62.5919 20.4804 62.006 21.1366 62.006 21.9394V26H60.9982V21.7109C60.9982 20.9609 60.4767 20.4804 59.6798 20.4804C58.8536 20.4804 58.215 21.1952 58.215 22.0859V26H57.2072L57.207 19.6836ZM72.7197 24.3652C72.4267 25.4433 71.4424 26.1113 70.0595 26.1113C68.3075 26.1113 67.2118 24.8457 67.2118 22.8476C67.2118 20.8613 68.3251 19.5722 70.0595 19.5722C71.7646 19.5722 72.8017 20.7851 72.8017 22.748V23.1347H68.2607V23.1816C68.3134 24.4296 69.0107 25.2207 70.083 25.2207C70.8975 25.2207 71.4482 24.9219 71.7119 24.3652H72.7197ZM68.2607 22.3203H71.7412C71.7178 21.2012 71.0498 20.4629 70.0478 20.4629C69.04 20.4629 68.3369 21.2012 68.2607 22.3203Z" fill="black" fill-opacity="0.8"/>
</g>
<g clip-path="url(#clip1_1_108)">
<path d="M11.88 18.392H9.024V17.432H15.876V18.392H13.02V26H11.88V18.392ZM20.0786 26H18.7826L15.7706 17.432H16.9946L19.4426 24.86H19.4666L21.9386 17.432H23.1266L20.0786 26ZM29.5064 20.732C29.6264 20.652 29.7544 20.564 29.8904 20.468C30.0264 20.372 30.1504 20.264 30.2624 20.144C30.3744 20.024 30.4664 19.892 30.5384 19.748C30.6104 19.596 30.6464 19.428 30.6464 19.244C30.6464 18.996 30.5584 18.784 30.3824 18.608C30.2064 18.424 29.9664 18.332 29.6624 18.332C29.4224 18.332 29.1984 18.408 28.9904 18.56C28.7824 18.704 28.6784 18.932 28.6784 19.244C28.6784 19.372 28.7024 19.5 28.7504 19.628C28.8064 19.756 28.8744 19.884 28.9544 20.012C29.0344 20.132 29.1224 20.252 29.2184 20.372C29.3144 20.492 29.4104 20.612 29.5064 20.732ZM31.7024 24.932C31.4464 25.332 31.0944 25.632 30.6464 25.832C30.2064 26.032 29.7504 26.132 29.2784 26.132C28.7024 26.132 28.2384 26.044 27.8864 25.868C27.5344 25.692 27.2624 25.48 27.0704 25.232C26.8784 24.984 26.7504 24.728 26.6864 24.464C26.6304 24.2 26.6024 23.98 26.6024 23.804C26.6024 23.468 26.6544 23.172 26.7584 22.916C26.8704 22.66 27.0144 22.432 27.1904 22.232C27.3744 22.024 27.5864 21.84 27.8264 21.68C28.0744 21.512 28.3344 21.356 28.6064 21.212C28.4864 21.044 28.3704 20.884 28.2584 20.732C28.1464 20.58 28.0424 20.428 27.9464 20.276C27.8584 20.116 27.7864 19.952 27.7304 19.784C27.6824 19.608 27.6584 19.412 27.6584 19.196C27.6584 18.964 27.6984 18.744 27.7784 18.536C27.8664 18.32 27.9904 18.132 28.1504 17.972C28.3184 17.804 28.5224 17.672 28.7624 17.576C29.0024 17.48 29.2784 17.432 29.5904 17.432C29.8544 17.432 30.1104 17.468 30.3584 17.54C30.6144 17.612 30.8384 17.724 31.0304 17.876C31.2224 18.02 31.3744 18.204 31.4864 18.428C31.6064 18.644 31.6664 18.896 31.6664 19.184C31.6664 19.44 31.6224 19.68 31.5344 19.904C31.4464 20.12 31.3264 20.32 31.1744 20.504C31.0224 20.688 30.8504 20.856 30.6584 21.008C30.4664 21.152 30.2664 21.284 30.0584 21.404L31.6064 23.288C31.7664 22.84 31.8584 22.396 31.8824 21.956H32.8544C32.8304 22.212 32.8024 22.432 32.7704 22.616C32.7464 22.792 32.7104 22.956 32.6624 23.108C32.6224 23.26 32.5704 23.412 32.5064 23.564C32.4424 23.708 32.3664 23.876 32.2784 24.068L33.9464 26H32.6144L31.7024 24.932ZM29.1704 21.86C28.9704 21.972 28.7784 22.088 28.5944 22.208C28.4184 22.328 28.2624 22.464 28.1264 22.616C27.9904 22.768 27.8824 22.94 27.8024 23.132C27.7224 23.316 27.6824 23.536 27.6824 23.792C27.6824 24.008 27.7264 24.208 27.8144 24.392C27.9104 24.568 28.0344 24.72 28.1864 24.848C28.3384 24.968 28.5104 25.064 28.7024 25.136C28.9024 25.208 29.1064 25.244 29.3144 25.244C29.7064 25.244 30.0544 25.152 30.3584 24.968C30.6704 24.784 30.9304 24.536 31.1384 24.224L29.1704 21.86ZM37.8008 17.432H38.9408V21.116H43.4528V17.432H44.5928V26H43.4528V22.076H38.9408V26H37.8008V17.432ZM46.917 22.904C46.917 23.28 46.965 23.616 47.061 23.912C47.165 24.2 47.305 24.444 47.481 24.644C47.657 24.836 47.861 24.984 48.093 25.088C48.333 25.192 48.585 25.244 48.849 25.244C49.113 25.244 49.361 25.192 49.593 25.088C49.833 24.984 50.041 24.836 50.217 24.644C50.393 24.444 50.529 24.2 50.625 23.912C50.729 23.616 50.781 23.28 50.781 22.904C50.781 22.528 50.729 22.196 50.625 21.908C50.529 21.612 50.393 21.364 50.217 21.164C50.041 20.964 49.833 20.812 49.593 20.708C49.361 20.604 49.113 20.552 48.849 20.552C48.585 20.552 48.333 20.604 48.093 20.708C47.861 20.812 47.657 20.964 47.481 21.164C47.305 21.364 47.165 21.612 47.061 21.908C46.965 22.196 46.917 22.528 46.917 22.904ZM45.837 22.904C45.837 22.448 45.901 22.024 46.029 21.632C46.157 21.232 46.349 20.888 46.605 20.6C46.861 20.304 47.177 20.072 47.553 19.904C47.929 19.736 48.361 19.652 48.849 19.652C49.345 19.652 49.777 19.736 50.145 19.904C50.521 20.072 50.837 20.304 51.093 20.6C51.349 20.888 51.541 21.232 51.669 21.632C51.797 22.024 51.861 22.448 51.861 22.904C51.861 23.36 51.797 23.784 51.669 24.176C51.541 24.568 51.349 24.912 51.093 25.208C50.837 25.496 50.521 25.724 50.145 25.892C49.777 26.052 49.345 26.132 48.849 26.132C48.361 26.132 47.929 26.052 47.553 25.892C47.177 25.724 46.861 25.496 46.605 25.208C46.349 24.912 46.157 24.568 46.029 24.176C45.901 23.784 45.837 23.36 45.837 22.904ZM52.9436 19.796H53.9036V20.708H53.9276C54.3916 20.004 55.0596 19.652 55.9316 19.652C56.3156 19.652 56.6636 19.732 56.9756 19.892C57.2876 20.052 57.5076 20.324 57.6356 20.708C57.8436 20.372 58.1156 20.112 58.4516 19.928C58.7956 19.744 59.1716 19.652 59.5796 19.652C59.8916 19.652 60.1716 19.688 60.4196 19.76C60.6756 19.824 60.8916 19.928 61.0676 20.072C61.2516 20.216 61.3916 20.404 61.4876 20.636C61.5916 20.86 61.6436 21.132 61.6436 21.452V26H60.6236V21.932C60.6236 21.74 60.6076 21.56 60.5756 21.392C60.5436 21.224 60.4836 21.08 60.3956 20.96C60.3076 20.832 60.1836 20.732 60.0236 20.66C59.8716 20.588 59.6716 20.552 59.4236 20.552C58.9196 20.552 58.5236 20.696 58.2356 20.984C57.9476 21.272 57.8036 21.656 57.8036 22.136V26H56.7836V21.932C56.7836 21.732 56.7636 21.548 56.7236 21.38C56.6916 21.212 56.6316 21.068 56.5436 20.948C56.4556 20.82 56.3356 20.724 56.1836 20.66C56.0396 20.588 55.8516 20.552 55.6196 20.552C55.3236 20.552 55.0676 20.612 54.8516 20.732C54.6436 20.852 54.4716 20.996 54.3356 21.164C54.2076 21.332 54.1116 21.508 54.0476 21.692C53.9916 21.868 53.9636 22.016 53.9636 22.136V26H52.9436V19.796ZM67.3621 22.304C67.3461 22.064 67.2901 21.836 67.1941 21.62C67.1061 21.404 66.9821 21.22 66.8221 21.068C66.6701 20.908 66.4861 20.784 66.2701 20.696C66.0621 20.6 65.8301 20.552 65.5741 20.552C65.3101 20.552 65.0701 20.6 64.8541 20.696C64.6461 20.784 64.4661 20.908 64.3141 21.068C64.1621 21.228 64.0421 21.416 63.9541 21.632C63.8661 21.84 63.8141 22.064 63.7981 22.304H67.3621ZM68.3461 24.032C68.2101 24.728 67.9101 25.252 67.4461 25.604C66.9821 25.956 66.3981 26.132 65.6941 26.132C65.1981 26.132 64.7661 26.052 64.3981 25.892C64.0381 25.732 63.7341 25.508 63.4861 25.22C63.2381 24.932 63.0501 24.588 62.9221 24.188C62.8021 23.788 62.7341 23.352 62.7181 22.88C62.7181 22.408 62.7901 21.976 62.9341 21.584C63.0781 21.192 63.2781 20.852 63.5341 20.564C63.7981 20.276 64.1061 20.052 64.4581 19.892C64.8181 19.732 65.2101 19.652 65.6341 19.652C66.1861 19.652 66.6421 19.768 67.0021 20C67.3701 20.224 67.6621 20.512 67.8781 20.864C68.1021 21.216 68.2541 21.6 68.3341 22.016C68.4221 22.432 68.4581 22.828 68.4421 23.204H63.7981C63.7901 23.476 63.8221 23.736 63.8941 23.984C63.9661 24.224 64.0821 24.44 64.2421 24.632C64.4021 24.816 64.6061 24.964 64.8541 25.076C65.1021 25.188 65.3941 25.244 65.7301 25.244C66.1621 25.244 66.5141 25.144 66.7861 24.944C67.0661 24.744 67.2501 24.44 67.3381 24.032H68.3461Z" fill="black" fill-opacity="0.8"/>
</g>
<defs>
<clipPath id="clip0_1_108">
<rect width="65" height="44" fill="white" transform="translate(9)"/>
</clipPath>
<clipPath id="clip1_1_108">
<rect width="1" height="44" fill="white" transform="translate(9)"/>
</clipPath>
</defs>
</svg>
