<svg width="53" height="44" viewBox="0 0 53 44" fill="none" xmlns="http://www.w3.org/2000/svg">
<g clip-path="url(#clip0_1_96)">
<path d="M37.9817 17.1758H38.9897V20.6798H39.0837C39.3997 19.9828 40.0617 19.5718 41.0287 19.5718C42.3647 19.5718 43.2087 20.4278 43.2087 21.9098V25.9998H42.2007V22.1558C42.2007 21.0368 41.6967 20.4808 40.7417 20.4808C39.6107 20.4808 38.9897 21.1958 38.9897 22.2618V25.9998H37.9817V17.1758ZM35.5617 21.6168C35.3977 20.9898 34.8407 20.4808 33.9327 20.4808C32.7957 20.4808 32.0807 21.3888 32.0807 22.8188C32.0807 24.2778 32.8077 25.2028 33.9327 25.2028C34.7817 25.2028 35.3737 24.8108 35.5617 24.0958H36.5807C36.3987 25.2558 35.4557 26.1118 33.9387 26.1118C32.1687 26.1118 31.0377 24.8278 31.0377 22.8188C31.0377 20.8498 32.1627 19.5718 33.9327 19.5718C35.4677 19.5718 36.4047 20.4918 36.5807 21.6168H35.5617ZM29.0287 18.0488V19.6838H30.4357V20.5278H29.0287V24.1018C29.0287 24.8458 29.3107 25.1618 29.9667 25.1618C30.1487 25.1618 30.2477 25.1558 30.4357 25.1388V25.9888C30.2357 26.0238 30.0427 26.0468 29.8437 26.0468C28.5427 26.0468 28.0217 25.5668 28.0217 24.3598V20.5278H27.0017V19.6838H28.0217V18.0488H29.0287ZM24.8287 23.6448V23.0648L23.1297 23.1758C22.1687 23.2398 21.7467 23.5738 21.7467 24.2068C21.7467 24.8518 22.2917 25.2268 23.0237 25.2268C24.0617 25.2268 24.8287 24.5468 24.8287 23.6448ZM20.7037 24.2308C20.7037 23.0998 21.5357 22.4488 23.0067 22.3618L24.8287 22.2498V21.6758C24.8287 20.8968 24.3427 20.4688 23.3987 20.4688C22.6437 20.4688 22.1157 20.7558 21.9757 21.2538H20.9557C21.0907 20.2398 22.0867 19.5718 23.4347 19.5718C24.9757 19.5718 25.8367 20.3638 25.8367 21.6758V25.9998H24.8757V25.0688H24.7817C24.3717 25.7418 23.6807 26.1118 22.8367 26.1118C21.6117 26.1118 20.7037 25.3848 20.7037 24.2308ZM13.0197 25.9998H12.0237L9.7207 17.5448H10.8217L12.5037 24.4178H12.5737L14.4667 17.5448H15.5327L17.4257 24.4178H17.4957L19.1777 17.5448H20.2787L17.9767 25.9998H16.9807L15.0347 19.3258H14.9647L13.0197 25.9998Z" fill="black" fill-opacity="0.8"/>
</g>
<g clip-path="url(#clip1_1_96)">
<path d="M17.676 26H16.488L14.532 18.8H14.508L12.528 26H11.34L9.144 17.432H10.308L11.988 24.56H12.012L13.932 17.432H15.168L17.064 24.56H17.088L18.828 17.432H19.968L17.676 26ZM25.8081 25.976C25.6321 26.08 25.3881 26.132 25.0761 26.132C24.8121 26.132 24.6001 26.06 24.4401 25.916C24.2881 25.764 24.2121 25.52 24.2121 25.184C23.9321 25.52 23.6041 25.764 23.2281 25.916C22.8601 26.06 22.4601 26.132 22.0281 26.132C21.7481 26.132 21.4801 26.1 21.2241 26.036C20.9761 25.972 20.7601 25.872 20.5761 25.736C20.3921 25.6 20.2441 25.424 20.1321 25.208C20.0281 24.984 19.9761 24.716 19.9761 24.404C19.9761 24.052 20.0361 23.764 20.1561 23.54C20.2761 23.316 20.4321 23.136 20.6241 23C20.8241 22.856 21.0481 22.748 21.2961 22.676C21.5521 22.604 21.8121 22.544 22.0761 22.496C22.3561 22.44 22.6201 22.4 22.8681 22.376C23.1241 22.344 23.3481 22.304 23.5401 22.256C23.7321 22.2 23.8841 22.124 23.9961 22.028C24.1081 21.924 24.1641 21.776 24.1641 21.584C24.1641 21.36 24.1201 21.18 24.0321 21.044C23.9521 20.908 23.8441 20.804 23.7081 20.732C23.5801 20.66 23.4321 20.612 23.2641 20.588C23.1041 20.564 22.9441 20.552 22.7841 20.552C22.3521 20.552 21.9921 20.636 21.7041 20.804C21.4161 20.964 21.2601 21.272 21.2361 21.728H20.2161C20.2321 21.344 20.3121 21.02 20.4561 20.756C20.6001 20.492 20.7921 20.28 21.0321 20.12C21.2721 19.952 21.5441 19.832 21.8481 19.76C22.1601 19.688 22.4921 19.652 22.8441 19.652C23.1241 19.652 23.4001 19.672 23.6721 19.712C23.9521 19.752 24.2041 19.836 24.4281 19.964C24.6521 20.084 24.8321 20.256 24.9681 20.48C25.1041 20.704 25.1721 20.996 25.1721 21.356V24.548C25.1721 24.788 25.1841 24.964 25.2081 25.076C25.2401 25.188 25.3361 25.244 25.4961 25.244C25.5841 25.244 25.6881 25.224 25.8081 25.184V25.976ZM24.1521 22.796C24.0241 22.892 23.8561 22.964 23.6481 23.012C23.4401 23.052 23.2201 23.088 22.9881 23.12C22.7641 23.144 22.5361 23.176 22.3041 23.216C22.0721 23.248 21.8641 23.304 21.6801 23.384C21.4961 23.464 21.3441 23.58 21.2241 23.732C21.1121 23.876 21.0561 24.076 21.0561 24.332C21.0561 24.5 21.0881 24.644 21.1521 24.764C21.2241 24.876 21.3121 24.968 21.4161 25.04C21.5281 25.112 21.6561 25.164 21.8001 25.196C21.9441 25.228 22.0961 25.244 22.2561 25.244C22.5921 25.244 22.8801 25.2 23.1201 25.112C23.3601 25.016 23.5561 24.9 23.7081 24.764C23.8601 24.62 23.9721 24.468 24.0441 24.308C24.1161 24.14 24.1521 23.984 24.1521 23.84V22.796ZM28.0534 19.796H29.2894V20.696H28.0534V24.548C28.0534 24.668 28.0614 24.764 28.0774 24.836C28.1014 24.908 28.1414 24.964 28.1974 25.004C28.2534 25.044 28.3294 25.072 28.4254 25.088C28.5294 25.096 28.6614 25.1 28.8214 25.1H29.2894V26H28.5094C28.2454 26 28.0174 25.984 27.8254 25.952C27.6414 25.912 27.4894 25.844 27.3694 25.748C27.2574 25.652 27.1734 25.516 27.1174 25.34C27.0614 25.164 27.0334 24.932 27.0334 24.644V20.696H25.9774V19.796H27.0334V17.936H28.0534V19.796ZM34.5145 21.788C34.4345 21.396 34.2665 21.092 34.0105 20.876C33.7545 20.66 33.4105 20.552 32.9785 20.552C32.6105 20.552 32.3025 20.62 32.0545 20.756C31.8065 20.892 31.6065 21.072 31.4545 21.296C31.3105 21.52 31.2065 21.78 31.1425 22.076C31.0785 22.364 31.0465 22.664 31.0465 22.976C31.0465 23.264 31.0785 23.544 31.1425 23.816C31.2145 24.088 31.3225 24.332 31.4665 24.548C31.6105 24.756 31.7985 24.924 32.0305 25.052C32.2625 25.18 32.5385 25.244 32.8585 25.244C33.3625 25.244 33.7545 25.112 34.0345 24.848C34.3225 24.584 34.4985 24.212 34.5625 23.732H35.6065C35.4945 24.5 35.2065 25.092 34.7425 25.508C34.2865 25.924 33.6625 26.132 32.8705 26.132C32.3985 26.132 31.9785 26.056 31.6105 25.904C31.2505 25.752 30.9465 25.536 30.6985 25.256C30.4585 24.976 30.2745 24.644 30.1465 24.26C30.0265 23.868 29.9665 23.44 29.9665 22.976C29.9665 22.512 30.0265 22.08 30.1465 21.68C30.2665 21.272 30.4465 20.92 30.6865 20.624C30.9345 20.32 31.2425 20.084 31.6105 19.916C31.9785 19.74 32.4065 19.652 32.8945 19.652C33.2465 19.652 33.5745 19.696 33.8785 19.784C34.1905 19.864 34.4625 19.992 34.6945 20.168C34.9345 20.344 35.1305 20.568 35.2825 20.84C35.4345 21.104 35.5305 21.42 35.5705 21.788H34.5145ZM36.6278 17.432H37.6478V20.708H37.6718C37.7518 20.516 37.8638 20.356 38.0078 20.228C38.1518 20.092 38.3118 19.984 38.4878 19.904C38.6718 19.816 38.8598 19.752 39.0518 19.712C39.2518 19.672 39.4438 19.652 39.6278 19.652C40.0358 19.652 40.3758 19.708 40.6478 19.82C40.9198 19.932 41.1398 20.088 41.3078 20.288C41.4758 20.488 41.5918 20.728 41.6558 21.008C41.7278 21.28 41.7638 21.584 41.7638 21.92V26H40.7438V21.8C40.7438 21.416 40.6318 21.112 40.4078 20.888C40.1838 20.664 39.8758 20.552 39.4838 20.552C39.1718 20.552 38.8998 20.6 38.6678 20.696C38.4438 20.792 38.2558 20.928 38.1038 21.104C37.9518 21.28 37.8358 21.488 37.7558 21.728C37.6838 21.96 37.6478 22.216 37.6478 22.496V26H36.6278V17.432Z" fill="black" fill-opacity="0.8"/>
</g>
<defs>
<clipPath id="clip0_1_96">
<rect width="35" height="44" fill="white" transform="translate(9)"/>
</clipPath>
<clipPath id="clip1_1_96">
<rect width="1" height="44" fill="white" transform="translate(9)"/>
</clipPath>
</defs>
</svg>
