<svg width="443" height="449" viewBox="0 0 443 449" fill="none" xmlns="http://www.w3.org/2000/svg">
<path d="M64.8291 124.908L58.174 103.733H27.5L20.8449 124.908H2.08964L32.4006 37.6054H53.8785L84.25 124.908H64.8291ZM42.6253 54.3037L31.4326 90.0598H54.2415L43.0488 54.3037H42.6253ZM91.7634 124.908V60.0513H109.43V124.908H91.7634ZM100.597 52.9122C95.2724 52.9122 91.1584 48.8586 91.1584 43.7765C91.1584 38.634 95.2724 34.6409 100.597 34.6409C105.921 34.6409 110.035 38.634 110.035 43.7765C110.035 48.8586 105.921 52.9122 100.597 52.9122ZM120.997 124.908V60.0513H138.058V71.728H138.421C140.72 63.4999 146.226 59.0228 153.849 59.0228C155.906 59.0228 157.66 59.3253 158.87 59.6883V75.237C157.418 74.632 154.998 74.2085 152.457 74.2085C143.745 74.2085 138.663 79.5326 138.663 88.6683V124.908H120.997ZM167.412 37.6054H202.926C220.834 37.6054 233.177 49.5241 233.177 67.4929C233.177 85.4012 220.411 97.3804 202.019 97.3804H185.683V124.908H167.412V37.6054ZM185.683 52.0652V83.1022H198.026C208.492 83.1022 214.603 77.5361 214.603 67.5534C214.603 57.6313 208.553 52.0652 198.086 52.0652H185.683ZM269.852 126.3C250.249 126.3 237.726 113.716 237.726 92.4193C237.726 71.4255 250.431 58.6598 269.852 58.6598C289.272 58.6598 301.978 71.365 301.978 92.4193C301.978 113.776 289.454 126.3 269.852 126.3ZM269.852 112.808C278.503 112.808 284.009 105.488 284.009 92.4798C284.009 79.5931 278.443 72.1515 269.852 72.1515C261.26 72.1515 255.634 79.5931 255.634 92.4798C255.634 105.488 261.139 112.808 269.852 112.808ZM334.962 125.937C318.748 125.937 308.523 113.111 308.523 92.3588C308.523 71.7885 318.808 59.0228 335.083 59.0228C344.461 59.0228 351.721 63.9839 354.867 71.1835H355.23V37.6054H372.896V124.908H355.472V113.776H355.169C352.023 120.915 344.521 125.937 334.962 125.937ZM340.951 73.18C332.058 73.18 326.613 80.6216 326.613 92.4798C326.613 104.399 332.058 111.719 340.951 111.719C349.724 111.719 355.351 104.338 355.351 92.4798C355.351 80.6821 349.724 73.18 340.951 73.18ZM383.374 79.1091C383.374 66.7669 394.083 58.6598 410.72 58.6598C426.995 58.6598 437.583 66.8879 437.825 79.4721H421.55C421.187 74.269 417.013 71.0625 410.478 71.0625C404.368 71.0625 400.375 73.8455 400.375 78.0201C400.375 81.2266 403.158 83.4047 408.845 84.7357L421.248 87.3977C434.255 90.3018 439.519 95.4444 439.519 105.125C439.519 117.89 427.782 126.3 410.66 126.3C393.357 126.3 382.708 117.951 381.74 105.306H398.983C399.83 110.751 404.126 113.897 411.144 113.897C417.86 113.897 421.913 111.235 421.913 107C421.913 103.733 419.735 101.918 413.927 100.526L401.948 97.8644C389.666 95.0814 383.374 88.6683 383.374 79.1091Z" fill="#1D1D1F"/>
<path d="M149.456 161.369V158.981H151.373C152.884 158.981 153.903 158.083 153.903 156.78C153.903 155.498 152.994 154.655 151.351 154.655C149.817 154.655 148.799 155.564 148.711 156.944H145.666C145.787 154.02 148.065 152.114 151.493 152.114C154.779 152.114 157.024 153.8 157.024 156.331C157.024 158.269 155.699 159.671 153.76 160.022V160.087C156.115 160.285 157.638 161.708 157.638 163.899C157.638 166.736 155.064 168.62 151.416 168.62C147.846 168.62 145.513 166.659 145.36 163.746H148.525C148.623 165.082 149.719 165.958 151.46 165.958C153.114 165.958 154.275 165.027 154.275 163.691C154.275 162.245 153.191 161.369 151.405 161.369H149.456ZM159.911 168.269V156.528H162.999V158.642H163.065C163.481 157.152 164.478 156.342 165.858 156.342C166.23 156.342 166.548 156.396 166.767 156.462V159.277C166.504 159.167 166.066 159.091 165.606 159.091C164.029 159.091 163.109 160.055 163.109 161.708V168.269H159.911ZM172.293 168.455C169.358 168.455 167.507 166.133 167.507 162.377C167.507 158.653 169.369 156.342 172.315 156.342C174.013 156.342 175.327 157.24 175.896 158.543H175.962V152.464H179.16V168.269H176.006V166.254H175.951C175.382 167.546 174.024 168.455 172.293 168.455ZM173.377 158.904C171.767 158.904 170.781 160.252 170.781 162.398C170.781 164.556 171.767 165.881 173.377 165.881C174.965 165.881 175.984 164.545 175.984 162.398C175.984 160.263 174.965 158.904 173.377 158.904ZM191.658 165.772C193.257 165.772 194.276 164.501 194.276 162.377C194.276 160.263 193.257 158.904 191.658 158.904C190.081 158.904 189.084 160.241 189.084 162.377C189.084 164.523 190.07 165.772 191.658 165.772ZM191.603 172.694C188.515 172.694 186.423 171.193 186.171 169.101H189.303C189.555 169.912 190.475 170.471 191.691 170.471C193.345 170.471 194.265 169.551 194.265 168.192V166.133H194.199C193.651 167.382 192.271 168.236 190.574 168.236C187.704 168.236 185.809 166.024 185.809 162.355C185.809 158.631 187.649 156.342 190.629 156.342C192.315 156.342 193.641 157.229 194.254 158.576H194.309V156.528H197.463V168.105C197.463 170.909 195.119 172.694 191.603 172.694ZM205.07 158.642C203.668 158.642 202.66 159.704 202.551 161.172H207.534C207.469 159.671 206.494 158.642 205.07 158.642ZM207.578 164.677H210.514C210.163 166.977 208.06 168.521 205.158 168.521C201.543 168.521 199.375 166.21 199.375 162.453C199.375 158.707 201.565 156.276 205.037 156.276C208.454 156.276 210.612 158.587 210.612 162.157V163.132H202.518V163.329C202.518 165.005 203.58 166.155 205.212 166.155C206.384 166.155 207.282 165.575 207.578 164.677ZM212.513 168.269V156.528H215.601V158.62H215.667C216.291 157.163 217.529 156.309 219.336 156.309C221.943 156.309 223.411 157.952 223.411 160.701V168.269H220.213V161.369C220.213 159.835 219.49 158.959 218.055 158.959C216.62 158.959 215.711 160.011 215.711 161.533V168.269H212.513ZM230.952 158.642C229.55 158.642 228.542 159.704 228.433 161.172H233.416C233.351 159.671 232.376 158.642 230.952 158.642ZM233.46 164.677H236.396C236.045 166.977 233.942 168.521 231.04 168.521C227.425 168.521 225.257 166.21 225.257 162.453C225.257 158.707 227.447 156.276 230.919 156.276C234.336 156.276 236.494 158.587 236.494 162.157V163.132H228.4V163.329C228.4 165.005 229.462 166.155 231.094 166.155C232.266 166.155 233.164 165.575 233.46 164.677ZM238.395 168.269V156.528H241.483V158.642H241.549C241.965 157.152 242.962 156.342 244.342 156.342C244.714 156.342 245.032 156.396 245.251 156.462V159.277C244.988 159.167 244.55 159.091 244.09 159.091C242.513 159.091 241.593 160.055 241.593 161.708V168.269H238.395ZM251.062 166.144C252.453 166.144 253.603 165.235 253.603 163.965V163.11L251.128 163.264C249.934 163.351 249.255 163.888 249.255 164.72C249.255 165.597 249.978 166.144 251.062 166.144ZM250.01 168.455C247.776 168.455 246.078 167.01 246.078 164.896C246.078 162.76 247.721 161.522 250.646 161.347L253.603 161.172V160.394C253.603 159.299 252.836 158.664 251.631 158.664C250.438 158.664 249.682 159.255 249.529 160.12H246.604C246.725 157.842 248.663 156.276 251.774 156.276C254.786 156.276 256.746 157.831 256.746 160.197V168.269H253.658V166.473H253.592C252.935 167.721 251.478 168.455 250.01 168.455ZM259.918 153.822H263.116V156.528H265.284V158.937H263.116V164.556C263.116 165.454 263.554 165.881 264.496 165.881C264.781 165.881 265.076 165.859 265.273 165.827V168.181C264.945 168.258 264.397 168.313 263.751 168.313C260.991 168.313 259.918 167.393 259.918 165.104V158.937H258.264V156.528H259.918V153.822ZM267.338 168.269V156.528H270.537V168.269H267.338ZM268.937 155.235C267.974 155.235 267.229 154.501 267.229 153.581C267.229 152.65 267.974 151.928 268.937 151.928C269.901 151.928 270.646 152.65 270.646 153.581C270.646 154.501 269.901 155.235 268.937 155.235ZM278.308 168.521C274.759 168.521 272.492 166.243 272.492 162.387C272.492 158.587 274.792 156.276 278.308 156.276C281.824 156.276 284.124 158.576 284.124 162.387C284.124 166.254 281.857 168.521 278.308 168.521ZM278.308 166.079C279.874 166.079 280.871 164.753 280.871 162.398C280.871 160.065 279.863 158.718 278.308 158.718C276.753 158.718 275.734 160.065 275.734 162.398C275.734 164.753 276.731 166.079 278.308 166.079ZM286.024 168.269V156.528H289.113V158.62H289.179C289.803 157.163 291.041 156.309 292.848 156.309C295.455 156.309 296.922 157.952 296.922 160.701V168.269H293.724V161.369C293.724 159.835 293.001 158.959 291.566 158.959C290.132 158.959 289.223 160.011 289.223 161.533V168.269H286.024Z" fill="#1D1D1F"/>
<path d="M136.193 199.246H134.222V183.441H143.817V185.215H136.193V190.648H143.192V192.4H136.193V199.246ZM146.024 199.246V187.855H147.82V189.717H147.864C148.236 188.457 149.288 187.658 150.624 187.658C150.953 187.658 151.237 187.712 151.391 187.734V189.585C151.237 189.531 150.832 189.476 150.372 189.476C148.893 189.476 147.93 190.538 147.93 192.148V199.246H146.024ZM157.366 199.443C154.211 199.443 152.086 197.176 152.086 193.55C152.086 189.914 154.211 187.658 157.366 187.658C160.509 187.658 162.634 189.914 162.634 193.55C162.634 197.176 160.509 199.443 157.366 199.443ZM157.366 197.767C159.381 197.767 160.695 196.234 160.695 193.55C160.695 190.867 159.381 189.333 157.366 189.333C155.35 189.333 154.025 190.867 154.025 193.55C154.025 196.234 155.35 197.767 157.366 197.767ZM164.808 199.246V187.855H166.605V189.673H166.648C167.185 188.468 168.346 187.658 169.88 187.658C171.435 187.658 172.585 188.446 173.078 189.826H173.122C173.757 188.468 175.093 187.658 176.692 187.658C178.948 187.658 180.405 189.125 180.405 191.382V199.246H178.499V191.82C178.499 190.264 177.634 189.344 176.134 189.344C174.622 189.344 173.56 190.461 173.56 192.006V199.246H171.654V191.612C171.654 190.242 170.734 189.344 169.321 189.344C167.809 189.344 166.714 190.527 166.714 192.104V199.246H164.808ZM191.205 192.608L196.2 199.246H193.834L188.467 192.115V191.272H190.165C192.344 191.272 193.812 190.385 194.042 188.928H188.467V187.439H194.042C193.834 185.982 192.673 185.117 190.899 185.117H188.478V183.441H199.245V184.974H194.666V185.149C195.4 185.653 195.882 186.486 195.981 187.439H199.245V188.928H195.959C195.652 191.009 193.681 192.608 191.413 192.608H191.205ZM205.833 199.246V185.533H205.789L201.605 188.545V186.464L205.811 183.441H207.739V199.246H205.833ZM217.021 199.508C214.327 199.508 212.257 197.887 211.775 195.412H213.779C214.196 196.847 215.477 197.789 217.043 197.789C219.672 197.789 221.184 195.401 221.238 191.206H221.227C221.216 191.206 221.216 191.206 221.205 191.206C220.537 192.773 218.807 193.791 216.791 193.791C213.779 193.791 211.545 191.568 211.545 188.567C211.545 185.445 213.9 183.167 217.142 183.167C219.519 183.167 221.403 184.448 222.366 186.716C222.892 187.931 223.144 189.355 223.144 191.075C223.144 196.398 220.888 199.508 217.021 199.508ZM217.131 192.061C219.223 192.061 220.778 190.571 220.778 188.556C220.778 186.529 219.201 184.941 217.164 184.941C215.138 184.941 213.538 186.518 213.538 188.501C213.538 190.56 215.061 192.061 217.131 192.061ZM230.696 199.508C228.002 199.508 225.932 197.887 225.45 195.412H227.454C227.87 196.847 229.152 197.789 230.718 197.789C233.347 197.789 234.858 195.401 234.913 191.206H234.902C234.891 191.206 234.891 191.206 234.88 191.206C234.212 192.773 232.482 193.791 230.466 193.791C227.454 193.791 225.22 191.568 225.22 188.567C225.22 185.445 227.575 183.167 230.817 183.167C233.194 183.167 235.077 184.448 236.041 186.716C236.567 187.931 236.819 189.355 236.819 191.075C236.819 196.398 234.563 199.508 230.696 199.508ZM230.806 192.061C232.898 192.061 234.453 190.571 234.453 188.556C234.453 186.529 232.876 184.941 230.839 184.941C228.812 184.941 227.213 186.518 227.213 188.501C227.213 190.56 228.736 192.061 230.806 192.061ZM244.875 199.508C241.184 199.508 239.048 196.332 239.048 191.338C239.048 186.387 241.206 183.178 244.875 183.178C248.544 183.178 250.68 186.365 250.68 191.327C250.68 196.321 248.555 199.508 244.875 199.508ZM244.875 197.789C247.339 197.789 248.697 195.281 248.697 191.338C248.697 187.449 247.317 184.908 244.875 184.908C242.432 184.908 241.031 187.471 241.031 191.327C241.031 195.27 242.4 197.789 244.875 197.789ZM258.725 199.508C255.034 199.508 252.898 196.332 252.898 191.338C252.898 186.387 255.056 183.178 258.725 183.178C262.394 183.178 264.53 186.365 264.53 191.327C264.53 196.321 262.405 199.508 258.725 199.508ZM258.725 197.789C261.189 197.789 262.548 195.281 262.548 191.338C262.548 187.449 261.167 184.908 258.725 184.908C256.283 184.908 254.881 187.471 254.881 191.327C254.881 195.27 256.25 197.789 258.725 197.789ZM268.172 199.355C267.471 199.355 266.923 198.807 266.923 198.107C266.923 197.406 267.471 196.858 268.172 196.858C268.873 196.858 269.421 197.406 269.421 198.107C269.421 198.807 268.873 199.355 268.172 199.355ZM278.079 199.508C274.388 199.508 272.252 196.332 272.252 191.338C272.252 186.387 274.41 183.178 278.079 183.178C281.748 183.178 283.884 186.365 283.884 191.327C283.884 196.321 281.759 199.508 278.079 199.508ZM278.079 197.789C280.544 197.789 281.902 195.281 281.902 191.338C281.902 187.449 280.522 184.908 278.079 184.908C275.637 184.908 274.235 187.471 274.235 191.327C274.235 195.27 275.604 197.789 278.079 197.789ZM291.929 199.508C288.238 199.508 286.102 196.332 286.102 191.338C286.102 186.387 288.26 183.178 291.929 183.178C295.598 183.178 297.734 186.365 297.734 191.327C297.734 196.321 295.609 199.508 291.929 199.508ZM291.929 197.789C294.394 197.789 295.752 195.281 295.752 191.338C295.752 187.449 294.372 184.908 291.929 184.908C289.487 184.908 288.085 187.471 288.085 191.327C288.085 195.27 289.454 197.789 291.929 197.789ZM307.663 189.574L305.002 187.899L305.111 191.042H303.676L303.797 187.899L301.102 189.585L300.423 188.271L303.184 186.869L300.434 185.456L301.113 184.186L303.797 185.839L303.687 182.718H305.111L305.002 185.85L307.674 184.186L308.375 185.456L305.593 186.88L308.375 188.282L307.663 189.574Z" fill="#1D1D1F"/>
<rect x="109.967" y="400.558" width="78.2124" height="47.6357" rx="23.8179" fill="#0071E3"/>
<path d="M136.707 422.985H140.157C141.138 422.985 141.84 422.816 142.264 422.477C142.699 422.126 142.917 421.605 142.917 420.915C142.917 420.455 142.845 420.092 142.699 419.826C142.554 419.56 142.354 419.354 142.1 419.208C141.846 419.063 141.549 418.972 141.21 418.936C140.884 418.888 140.533 418.863 140.157 418.863H136.707V422.985ZM134.982 417.411H139.685C139.964 417.411 140.26 417.417 140.575 417.429C140.902 417.429 141.223 417.447 141.537 417.483C141.852 417.508 142.143 417.55 142.409 417.611C142.687 417.671 142.923 417.762 143.117 417.883C143.541 418.137 143.898 418.488 144.188 418.936C144.491 419.384 144.642 419.935 144.642 420.589C144.642 421.279 144.473 421.878 144.134 422.386C143.807 422.883 143.335 423.252 142.718 423.494V423.53C143.517 423.7 144.128 424.063 144.552 424.62C144.975 425.177 145.187 425.855 145.187 426.654C145.187 427.126 145.102 427.586 144.933 428.034C144.763 428.481 144.509 428.881 144.17 429.232C143.843 429.571 143.432 429.849 142.936 430.067C142.451 430.273 141.888 430.376 141.247 430.376H134.982V417.411ZM136.707 428.923H141.029C141.792 428.923 142.385 428.718 142.808 428.306C143.244 427.894 143.462 427.325 143.462 426.599C143.462 426.175 143.383 425.824 143.226 425.546C143.069 425.267 142.857 425.05 142.59 424.892C142.336 424.723 142.04 424.608 141.701 424.547C141.362 424.474 141.011 424.438 140.648 424.438H136.707V428.923ZM154.531 430.376H153.078V428.887H153.042C152.715 429.468 152.298 429.898 151.789 430.176C151.281 430.443 150.681 430.576 149.991 430.576C149.374 430.576 148.86 430.497 148.448 430.34C148.036 430.17 147.703 429.934 147.449 429.632C147.195 429.329 147.013 428.972 146.904 428.56C146.808 428.136 146.759 427.67 146.759 427.162V420.988H148.303V427.344C148.303 427.925 148.472 428.385 148.811 428.724C149.15 429.063 149.616 429.232 150.209 429.232C150.681 429.232 151.087 429.159 151.426 429.014C151.777 428.869 152.068 428.663 152.298 428.397C152.528 428.13 152.697 427.822 152.806 427.471C152.927 427.107 152.988 426.714 152.988 426.29V420.988H154.531V430.376ZM160.136 431.629C159.954 432.089 159.773 432.476 159.591 432.791C159.422 433.106 159.228 433.36 159.01 433.554C158.804 433.76 158.568 433.905 158.302 433.99C158.048 434.086 157.751 434.135 157.412 434.135C157.231 434.135 157.049 434.123 156.867 434.099C156.686 434.074 156.51 434.032 156.341 433.971V432.555C156.474 432.616 156.625 432.664 156.795 432.7C156.976 432.749 157.128 432.773 157.249 432.773C157.564 432.773 157.824 432.694 158.03 432.537C158.248 432.392 158.411 432.18 158.52 431.901L159.155 430.322L155.433 420.988H157.176L159.918 428.669H159.954L162.587 420.988H164.222L160.136 431.629Z" fill="white"/>
<path d="M218.751 428.193V429.967H209.156V414.162H211.128V428.193H218.751ZM225.109 420.033C223.324 420.033 222.075 421.402 221.955 423.297H228.143C228.099 421.391 226.906 420.033 225.109 420.033ZM228.099 426.703H229.972C229.644 428.697 227.716 430.164 225.23 430.164C221.966 430.164 219.983 427.897 219.983 424.315C219.983 420.778 221.999 418.379 225.142 418.379C228.22 418.379 230.115 420.613 230.115 424.064V424.786H221.944V424.896C221.944 427.076 223.225 428.51 225.274 428.51C226.719 428.51 227.782 427.777 228.099 426.703ZM236.046 428.543C237.842 428.543 239.222 427.284 239.222 425.641V424.71L236.177 424.896C234.644 424.995 233.768 425.674 233.768 426.747C233.768 427.831 234.677 428.543 236.046 428.543ZM235.619 430.164C233.352 430.164 231.829 428.795 231.829 426.747C231.829 424.797 233.33 423.571 235.958 423.417L239.222 423.231V422.278C239.222 420.887 238.302 420.055 236.725 420.055C235.257 420.055 234.337 420.745 234.096 421.862H232.256C232.388 419.891 234.074 418.379 236.769 418.379C239.441 418.379 241.128 419.825 241.128 422.092V429.967H239.321V428.007H239.277C238.598 429.31 237.152 430.164 235.619 430.164ZM243.795 429.967V418.576H245.592V420.438H245.635C246.008 419.179 247.059 418.379 248.395 418.379C248.724 418.379 249.009 418.434 249.162 418.456V420.307C249.009 420.252 248.604 420.197 248.144 420.197C246.665 420.197 245.701 421.26 245.701 422.87V429.967H243.795ZM250.964 429.967V418.576H252.76V420.394H252.804C253.44 419.168 254.655 418.379 256.419 418.379C258.916 418.379 260.362 419.989 260.362 422.574V429.967H258.456V422.914C258.456 421.073 257.591 420.066 255.838 420.066C254.042 420.066 252.87 421.336 252.87 423.264V429.967H250.964ZM267.887 429.967V418.576H269.683V420.394H269.727C270.264 419.19 271.425 418.379 272.958 418.379C274.513 418.379 275.663 419.168 276.156 420.548H276.2C276.835 419.19 278.171 418.379 279.771 418.379C282.027 418.379 283.484 419.847 283.484 422.103V429.967H281.578V422.541C281.578 420.986 280.713 420.066 279.212 420.066C277.7 420.066 276.638 421.183 276.638 422.727V429.967H274.732V422.333C274.732 420.964 273.812 420.066 272.399 420.066C270.888 420.066 269.793 421.249 269.793 422.826V429.967H267.887ZM290.882 430.164C287.728 430.164 285.603 427.897 285.603 424.272C285.603 420.635 287.728 418.379 290.882 418.379C294.026 418.379 296.151 420.635 296.151 424.272C296.151 427.897 294.026 430.164 290.882 430.164ZM290.882 428.488C292.898 428.488 294.212 426.955 294.212 424.272C294.212 421.588 292.898 420.055 290.882 420.055C288.867 420.055 287.542 421.588 287.542 424.272C287.542 426.955 288.867 428.488 290.882 428.488ZM298.325 429.967V418.576H300.121V420.438H300.165C300.538 419.179 301.589 418.379 302.925 418.379C303.254 418.379 303.539 418.434 303.692 418.456V420.307C303.539 420.252 303.133 420.197 302.673 420.197C301.195 420.197 300.231 421.26 300.231 422.87V429.967H298.325ZM309.514 420.033C307.728 420.033 306.48 421.402 306.359 423.297H312.548C312.504 421.391 311.31 420.033 309.514 420.033ZM312.504 426.703H314.377C314.048 428.697 312.12 430.164 309.634 430.164C306.37 430.164 304.388 427.897 304.388 424.315C304.388 420.778 306.403 418.379 309.547 418.379C312.624 418.379 314.519 420.613 314.519 424.064V424.786H306.348V424.896C306.348 427.076 307.63 428.51 309.678 428.51C311.124 428.51 312.186 427.777 312.504 426.703Z" fill="#0066CC"/>
<g clip-path="url(#clip0_1_4)">
<path d="M322.733 430.429C322.507 430.429 322.314 430.35 322.153 430.193C321.992 430.037 321.912 429.845 321.912 429.619C321.912 429.392 321.996 429.195 322.164 429.027L326.589 424.614L322.164 420.2C321.996 420.032 321.912 419.835 321.912 419.609C321.912 419.382 321.992 419.191 322.153 419.034C322.314 418.877 322.507 418.798 322.733 418.798C322.945 418.798 323.135 418.875 323.303 419.028L328.297 424C328.472 424.161 328.56 424.365 328.56 424.614C328.56 424.847 328.472 425.052 328.297 425.227L323.303 430.199C323.15 430.352 322.96 430.429 322.733 430.429Z" fill="#0066CC"/>
</g>
<defs>
<clipPath id="clip0_1_4">
<rect width="10.1582" height="22.4313" fill="white" transform="matrix(1 0 0 -1 321.91 435.807)"/>
</clipPath>
</defs>
</svg>
