<svg width="76" height="14" viewBox="0 0 76 14" fill="none" xmlns="http://www.w3.org/2000/svg">
<path d="M11.44 10.02C11.16 10.7667 10.76 11.4133 10.24 11.96C9.72002 12.4933 9.10668 12.9 8.40002 13.18C7.70668 13.46 6.94668 13.6 6.12001 13.6C4.86668 13.6 3.78001 13.3267 2.86001 12.78C1.95335 12.22 1.24668 11.4333 0.740015 10.42C0.246681 9.40666 1.47223e-05 8.19999 1.47223e-05 6.79999C1.47223e-05 5.39999 0.246681 4.19333 0.740015 3.17999C1.24668 2.16666 1.95335 1.38666 2.86001 0.839993C3.78001 0.279994 4.85335 -6.4373e-06 6.08001 -6.4373e-06C6.93335 -6.4373e-06 7.69335 0.119994 8.36002 0.359994C9.02668 0.58666 9.59335 0.933326 10.06 1.39999C10.54 1.85333 10.92 2.41333 11.2 3.07999L9.62002 3.81999C9.32668 3.05999 8.90001 2.48666 8.34001 2.09999C7.79335 1.69999 7.08002 1.49999 6.20002 1.49999C5.30668 1.49999 4.52002 1.71333 3.84002 2.13999C3.16001 2.55333 2.62668 3.15333 2.24001 3.93999C1.86668 4.72666 1.68001 5.67999 1.68001 6.79999C1.68001 7.90666 1.86001 8.85999 2.22001 9.65999C2.58001 10.4467 3.09335 11.0533 3.76001 11.48C4.42668 11.8933 5.21335 12.1 6.12001 12.1C7.00002 12.1 7.76668 11.88 8.42002 11.44C9.07335 10.9867 9.54668 10.3133 9.84001 9.41999L11.44 10.02ZM18.351 3.19999C19.2976 3.19999 20.131 3.40666 20.851 3.81999C21.5843 4.23333 22.1576 4.83333 22.571 5.61999C22.9843 6.39333 23.191 7.31999 23.191 8.39999C23.191 9.47999 22.9843 10.4133 22.571 11.2C22.1576 11.9733 21.5843 12.5667 20.851 12.98C20.131 13.3933 19.2976 13.6 18.351 13.6C17.4176 13.6 16.5843 13.3933 15.851 12.98C15.1176 12.5667 14.5443 11.9733 14.131 11.2C13.7176 10.4133 13.511 9.47999 13.511 8.39999C13.511 7.31999 13.7176 6.39333 14.131 5.61999C14.5443 4.83333 15.1176 4.23333 15.851 3.81999C16.5843 3.40666 17.4176 3.19999 18.351 3.19999ZM18.351 4.57999C17.671 4.57999 17.091 4.73333 16.611 5.03999C16.131 5.34666 15.7576 5.78666 15.491 6.35999C15.2376 6.91999 15.111 7.59999 15.111 8.39999C15.111 9.18666 15.2376 9.86666 15.491 10.44C15.7576 11.0133 16.131 11.4533 16.611 11.76C17.091 12.0667 17.671 12.22 18.351 12.22C19.031 12.22 19.611 12.0667 20.091 11.76C20.571 11.4533 20.9376 11.0133 21.191 10.44C21.4576 9.86666 21.591 9.18666 21.591 8.39999C21.591 7.59999 21.4576 6.91999 21.191 6.35999C20.9376 5.78666 20.571 5.34666 20.091 5.03999C19.611 4.73333 19.031 4.57999 18.351 4.57999ZM26.2031 13.4V3.39999H27.6031L27.7431 5.63999L27.4831 5.41999C27.6965 4.88666 27.9831 4.45999 28.3431 4.13999C28.7031 3.80666 29.1165 3.56666 29.5831 3.41999C30.0631 3.27333 30.5565 3.19999 31.0631 3.19999C31.7831 3.19999 32.4365 3.33999 33.0231 3.61999C33.6098 3.88666 34.0765 4.29999 34.4231 4.85999C34.7831 5.41999 34.9631 6.13333 34.9631 6.99999V13.4H33.3631V7.55999C33.3631 6.45333 33.1231 5.68666 32.6431 5.25999C32.1765 4.81999 31.5965 4.59999 30.9031 4.59999C30.4231 4.59999 29.9431 4.71333 29.4631 4.93999C28.9831 5.16666 28.5831 5.53333 28.2631 6.03999C27.9565 6.54666 27.8031 7.22666 27.8031 8.07999V13.4H26.2031ZM40.8092 0.559994V10.64C40.8092 11.1333 40.9492 11.5 41.2292 11.74C41.5092 11.98 41.8692 12.1 42.3092 12.1C42.6959 12.1 43.0292 12.0333 43.3092 11.9C43.5892 11.7667 43.8426 11.5867 44.0692 11.36L44.6292 12.7C44.3226 12.98 43.9559 13.2 43.5292 13.36C43.1159 13.52 42.6359 13.6 42.0892 13.6C41.5826 13.6 41.1092 13.5133 40.6692 13.34C40.2292 13.1533 39.8759 12.8667 39.6092 12.48C39.3559 12.08 39.2226 11.56 39.2092 10.92V0.999994L40.8092 0.559994ZM44.4492 3.39999V4.77999H37.2092V3.39999H44.4492ZM52.6681 6.93999C52.6681 6.19333 52.4681 5.61999 52.0681 5.21999C51.6681 4.80666 51.1015 4.59999 50.3681 4.59999C49.6748 4.59999 49.0881 4.75333 48.6081 5.05999C48.1281 5.35333 47.7748 5.83333 47.5481 6.49999L46.2481 5.69999C46.5148 4.95333 47.0081 4.35333 47.7281 3.89999C48.4481 3.43333 49.3415 3.19999 50.4081 3.19999C51.1281 3.19999 51.7815 3.32666 52.3681 3.57999C52.9548 3.81999 53.4148 4.19333 53.7481 4.69999C54.0948 5.19333 54.2681 5.83333 54.2681 6.61999V11.46C54.2681 11.94 54.5215 12.18 55.0281 12.18C55.2815 12.18 55.5281 12.1467 55.7681 12.08L55.6881 13.34C55.4215 13.4733 55.0748 13.54 54.6481 13.54C54.2615 13.54 53.9148 13.4667 53.6081 13.32C53.3015 13.1733 53.0615 12.9533 52.8881 12.66C52.7148 12.3533 52.6281 11.9733 52.6281 11.52V11.32L53.0281 11.38C52.8681 11.9 52.5948 12.3267 52.2081 12.66C51.8215 12.98 51.3881 13.22 50.9081 13.38C50.4281 13.5267 49.9548 13.6 49.4881 13.6C48.9015 13.6 48.3548 13.5 47.8481 13.3C47.3415 13.1 46.9348 12.8 46.6281 12.4C46.3348 11.9867 46.1881 11.48 46.1881 10.88C46.1881 10.1333 46.4348 9.51999 46.9281 9.03999C47.4348 8.54666 48.1348 8.21333 49.0281 8.03999L52.9881 7.25999V8.57999L49.7681 9.23999C49.1148 9.37333 48.6281 9.55999 48.3081 9.79999C47.9881 10.04 47.8281 10.3733 47.8281 10.8C47.8281 11.2133 47.9881 11.5533 48.3081 11.82C48.6415 12.0733 49.1081 12.2 49.7081 12.2C50.0948 12.2 50.4615 12.1533 50.8081 12.06C51.1681 11.9533 51.4881 11.8 51.7681 11.6C52.0481 11.3867 52.2681 11.1267 52.4281 10.82C52.5881 10.5 52.6681 10.1267 52.6681 9.69999V6.93999ZM62.2963 3.19999C62.9896 3.19999 63.5963 3.30666 64.1163 3.51999C64.6496 3.73333 65.1096 4.03999 65.4963 4.43999C65.8829 4.83999 66.1963 5.31333 66.4363 5.85999L64.9163 6.57999C64.7029 5.93999 64.3763 5.45333 63.9363 5.11999C63.5096 4.77333 62.9496 4.59999 62.2563 4.59999C61.5896 4.59999 61.0163 4.75333 60.5363 5.05999C60.0563 5.35333 59.6896 5.78666 59.4363 6.35999C59.1829 6.91999 59.0563 7.59999 59.0563 8.39999C59.0563 9.18666 59.1829 9.86666 59.4363 10.44C59.6896 11.0133 60.0563 11.4533 60.5363 11.76C61.0163 12.0533 61.5896 12.2 62.2563 12.2C62.7763 12.2 63.2229 12.12 63.5963 11.96C63.9829 11.8 64.2963 11.5667 64.5363 11.26C64.7896 10.9533 64.9629 10.58 65.0563 10.14L66.5363 10.66C66.3096 11.2733 65.9963 11.8 65.5963 12.24C65.2096 12.68 64.7363 13.02 64.1763 13.26C63.6296 13.4867 63.0029 13.6 62.2963 13.6C61.3629 13.6 60.5296 13.3933 59.7963 12.98C59.0629 12.5667 58.4896 11.9733 58.0763 11.2C57.6629 10.4133 57.4563 9.47999 57.4563 8.39999C57.4563 7.31999 57.6629 6.39333 58.0763 5.61999C58.4896 4.83333 59.0629 4.23333 59.7963 3.81999C60.5296 3.40666 61.3629 3.19999 62.2963 3.19999ZM71.7077 0.559994V10.64C71.7077 11.1333 71.8477 11.5 72.1277 11.74C72.4077 11.98 72.7677 12.1 73.2077 12.1C73.5943 12.1 73.9277 12.0333 74.2077 11.9C74.4877 11.7667 74.741 11.5867 74.9677 11.36L75.5277 12.7C75.221 12.98 74.8543 13.2 74.4277 13.36C74.0143 13.52 73.5343 13.6 72.9877 13.6C72.481 13.6 72.0077 13.5133 71.5677 13.34C71.1277 13.1533 70.7743 12.8667 70.5077 12.48C70.2543 12.08 70.121 11.56 70.1077 10.92V0.999994L71.7077 0.559994ZM75.3477 3.39999V4.77999H68.1077V3.39999H75.3477Z" fill="white"/>
</svg>
