<svg width="411" height="126" viewBox="0 0 411 126" fill="none" xmlns="http://www.w3.org/2000/svg">
<path d="M125.852 37.2734C124.133 37.2734 122.518 36.9349 121.008 36.2578C119.497 35.5807 118.169 34.6562 117.023 33.4844C115.878 32.2865 114.979 30.9193 114.328 29.3828C113.677 27.8203 113.352 26.1667 113.352 24.4219C113.352 22.5729 113.677 20.8411 114.328 19.2266C114.979 17.5859 115.878 16.1536 117.023 14.9297C118.195 13.6797 119.562 12.7031 121.125 12C122.714 11.2969 124.419 10.9453 126.242 10.9453C127.674 10.9453 129.133 11.0495 130.617 11.2578C132.102 11.4401 133.625 11.7135 135.188 12.0781C135.344 12.1302 135.513 13.0026 135.695 14.6953C135.799 15.6589 135.878 16.4141 135.93 16.9609C136.008 17.5078 135.982 17.8984 135.852 18.1328C135.721 18.3411 135.409 18.4453 134.914 18.4453L134.289 18.3281C134.159 17.8594 133.951 17.3646 133.664 16.8438C133.378 16.3229 132.935 15.763 132.336 15.1641C131.763 14.5651 130.956 14.0833 129.914 13.7188C128.872 13.3281 127.714 13.1328 126.438 13.1328C121.776 13.1328 119.445 16.6224 119.445 23.6016C119.445 25.763 119.758 27.7292 120.383 29.5C121.034 31.2448 121.971 32.625 123.195 33.6406C124.445 34.6562 125.943 35.1641 127.688 35.1641C129.615 35.1641 131.281 34.4609 132.688 33.0547C133.104 32.638 133.417 32.1693 133.625 31.6484C133.859 31.1016 134.029 30.6198 134.133 30.2031C134.263 29.7865 134.38 29.5781 134.484 29.5781C135.552 29.5781 136.138 29.7083 136.242 29.9688C136.242 30.151 136.177 30.5417 136.047 31.1406C135.943 31.7135 135.799 32.3516 135.617 33.0547C135.461 33.7318 135.292 34.3307 135.109 34.8516C134.927 35.3464 134.771 35.6198 134.641 35.6719C131.672 36.7396 128.742 37.2734 125.852 37.2734ZM147.492 37.2734C145.799 37.2734 144.25 36.8828 142.844 36.1016C141.464 35.2943 140.357 34.2266 139.523 32.8984C138.716 31.5443 138.312 30.0469 138.312 28.4062C138.312 26.7396 138.716 25.2422 139.523 23.9141C140.357 22.5859 141.464 21.5312 142.844 20.75C144.25 19.9427 145.799 19.5391 147.492 19.5391C149.211 19.5391 150.76 19.9427 152.141 20.75C153.521 21.5312 154.615 22.5859 155.422 23.9141C156.255 25.2422 156.672 26.7396 156.672 28.4062C156.672 30.0469 156.268 31.5443 155.461 32.8984C154.654 34.2266 153.547 35.2943 152.141 36.1016C150.76 36.8828 149.211 37.2734 147.492 37.2734ZM147.883 35.125C148.612 35.125 149.211 34.8776 149.68 34.3828C150.148 33.888 150.487 33.237 150.695 32.4297C150.93 31.5964 151.047 30.7109 151.047 29.7734C151.047 24.3828 149.68 21.6875 146.945 21.6875C146.216 21.6875 145.617 21.9479 145.148 22.4688C144.706 22.9896 144.38 23.6667 144.172 24.5C143.964 25.3333 143.859 26.2318 143.859 27.1953C143.859 32.4818 145.201 35.125 147.883 35.125ZM158.664 37.1562C158.56 37.0521 158.508 36.7786 158.508 36.3359C158.508 35.9193 158.56 35.7109 158.664 35.7109C158.872 35.7109 159.159 35.6589 159.523 35.5547C159.914 35.4245 160.279 35.2812 160.617 35.125C160.982 34.9688 161.177 34.8385 161.203 34.7344C161.385 34.0052 161.477 33.0156 161.477 31.7656V26.4141C161.477 24.9557 161.242 23.9792 160.773 23.4844C160.565 23.224 160.279 23.0417 159.914 22.9375C159.576 22.8333 159.276 22.7682 159.016 22.7422C158.755 22.6901 158.625 22.638 158.625 22.5859C158.625 21.6745 158.69 21.2188 158.82 21.2188C159.497 21.2188 160.461 21.0755 161.711 20.7891C162.961 20.4766 164.38 20.151 165.969 19.8125L166.164 19.7734C166.19 19.7474 166.242 19.7344 166.32 19.7344L166.398 19.6953C166.529 19.6953 166.659 19.7865 166.789 19.9688C166.945 20.125 167.01 20.2552 166.984 20.3594L166.828 21.5703C166.828 21.7005 166.841 21.7786 166.867 21.8047C166.919 21.8047 167.01 21.7396 167.141 21.6094C168.573 20.2552 170.383 19.5781 172.57 19.5781C174.081 19.5781 175.305 20.2161 176.242 21.4922C177.206 22.7682 177.688 24.7083 177.688 27.3125V31.1797C177.688 32.8984 177.779 34.0833 177.961 34.7344C178.013 34.8385 178.208 34.9688 178.547 35.125C178.885 35.2812 179.237 35.4245 179.602 35.5547C179.992 35.6589 180.266 35.7109 180.422 35.7109C180.474 35.7109 180.513 35.8151 180.539 36.0234C180.565 36.2318 180.578 36.4531 180.578 36.6875C180.578 36.9219 180.552 37.0781 180.5 37.1562C180.344 37.1562 180.044 37.1302 179.602 37.0781C179.159 37.0521 178.638 37.026 178.039 37C177.466 36.9479 176.919 36.9089 176.398 36.8828C175.878 36.8568 175.461 36.8438 175.148 36.8438C174.732 36.8438 174.146 36.8698 173.391 36.9219C172.661 36.974 171.958 37.013 171.281 37.0391C170.604 37.0911 170.161 37.1302 169.953 37.1562C169.849 37.0521 169.797 36.7786 169.797 36.3359C169.797 35.9193 169.849 35.7109 169.953 35.7109C170.161 35.7109 170.435 35.6589 170.773 35.5547C171.138 35.4245 171.477 35.2812 171.789 35.125C172.128 34.9688 172.31 34.8385 172.336 34.7344C172.518 34.0052 172.609 33.0156 172.609 31.7656V28.25C172.609 26.3229 172.336 24.9557 171.789 24.1484C171.268 23.3151 170.422 22.8984 169.25 22.8984C168.443 22.8984 167.792 23.0547 167.297 23.3672C166.802 23.6536 166.555 24.0703 166.555 24.6172V31.1797C166.555 32.8984 166.646 34.0833 166.828 34.7344C166.88 34.8385 167.062 34.9688 167.375 35.125C167.688 35.2812 168.026 35.4245 168.391 35.5547C168.755 35.6589 169.003 35.7109 169.133 35.7109C169.185 35.7109 169.224 35.8151 169.25 36.0234C169.276 36.2318 169.289 36.4531 169.289 36.6875C169.289 36.9219 169.263 37.0781 169.211 37.1562C169.003 37.1302 168.56 37.0911 167.883 37.0391C167.206 37.013 166.49 36.974 165.734 36.9219C165.005 36.8698 164.432 36.8438 164.016 36.8438C163.703 36.8438 163.273 36.8568 162.727 36.8828C162.206 36.9089 161.659 36.9479 161.086 37C160.513 37.026 160.005 37.0521 159.562 37.0781C159.12 37.1302 158.82 37.1562 158.664 37.1562ZM190.031 37.2734C188.599 37.2734 187.362 36.8307 186.32 35.9453C185.305 35.0339 184.797 33.5755 184.797 31.5703V22.5469H182.258C182.049 22.5469 181.945 22.1432 181.945 21.3359C181.945 21.1536 181.971 21.0104 182.023 20.9062C182.753 20.5417 183.404 20.1901 183.977 19.8516C184.576 19.487 185.096 19.1354 185.539 18.7969C186.685 17.8854 187.518 17.1953 188.039 16.7266C188.56 16.2578 188.833 16.0104 188.859 15.9844C189.068 15.9844 189.289 16.0365 189.523 16.1406C189.758 16.2188 189.875 16.3099 189.875 16.4141V20.2422H194.094C194.302 20.2422 194.406 20.3724 194.406 20.6328C194.406 21.4141 194.276 22.0521 194.016 22.5469H189.875V31.8047C189.875 33.7839 190.578 34.7734 191.984 34.7734C192.714 34.7734 193.221 34.6823 193.508 34.5C193.82 34.2917 194.029 34.1875 194.133 34.1875C194.237 34.1875 194.341 34.3177 194.445 34.5781C194.576 34.8385 194.641 35.0339 194.641 35.1641C194.641 35.3724 194.38 35.6458 193.859 35.9844C193.365 36.3229 192.753 36.6224 192.023 36.8828C191.32 37.1432 190.656 37.2734 190.031 37.2734ZM201.398 37.2734C199.966 37.2734 198.82 36.8828 197.961 36.1016C197.128 35.2943 196.711 34.2917 196.711 33.0938C196.711 32.0781 197.023 31.1927 197.648 30.4375C198.299 29.6823 199.107 29.0833 200.07 28.6406C200.435 28.4844 200.773 28.3542 201.086 28.25C201.398 28.1198 201.685 28.0026 201.945 27.8984C202.935 27.5859 203.729 27.3646 204.328 27.2344C204.927 27.0781 205.37 26.9479 205.656 26.8438C205.891 26.7656 206.008 26.5703 206.008 26.2578V24.8516C206.008 22.7161 205.357 21.6484 204.055 21.6484C202.544 21.6484 201.789 22.5208 201.789 24.2656C201.789 24.8385 201.555 25.2682 201.086 25.5547C200.617 25.8151 200.096 25.9453 199.523 25.9453C198.326 25.9453 197.505 25.5547 197.062 24.7734C197.062 24.0964 197.297 23.4453 197.766 22.8203C198.26 22.1953 198.898 21.6354 199.68 21.1406C200.487 20.6198 201.385 20.2161 202.375 19.9297C203.391 19.6172 204.406 19.4609 205.422 19.4609C207.245 19.4609 208.638 19.9688 209.602 20.9844C210.591 21.974 211.086 23.7839 211.086 26.4141V32.7422C211.086 33.6276 211.398 34.0703 212.023 34.0703C212.492 34.0703 212.935 33.901 213.352 33.5625C213.534 33.6667 213.625 33.862 213.625 34.1484C213.625 34.8255 213.534 35.3073 213.352 35.5938C212.987 35.9323 212.388 36.2969 211.555 36.6875C210.747 37.0521 209.979 37.2344 209.25 37.2344C208.625 37.2344 208.026 37.0521 207.453 36.6875C206.88 36.2969 206.503 35.8542 206.32 35.3594C206.294 35.3594 206.151 35.4505 205.891 35.6328C205.63 35.8151 205.435 35.9583 205.305 36.0625C204.784 36.401 204.185 36.6875 203.508 36.9219C202.831 37.1562 202.128 37.2734 201.398 37.2734ZM203.859 34.4609C204.536 34.4609 205.057 34.3047 205.422 33.9922C205.812 33.6536 206.008 33.25 206.008 32.7812V28.8359L203.977 29.5391C203.43 29.7214 202.922 29.9948 202.453 30.3594C202.01 30.724 201.789 31.2057 201.789 31.8047C201.789 32.7422 201.984 33.4193 202.375 33.8359C202.792 34.2526 203.286 34.4609 203.859 34.4609ZM224.445 37.2734C222.779 37.2734 221.281 36.8698 219.953 36.0625C218.625 35.2552 217.57 34.1615 216.789 32.7812C216.008 31.401 215.617 29.8646 215.617 28.1719C215.617 26.5573 216.034 25.099 216.867 23.7969C217.701 22.4948 218.82 21.4661 220.227 20.7109C221.659 19.9297 223.234 19.5391 224.953 19.5391C226.281 19.5391 227.505 19.7734 228.625 20.2422C229.745 20.6849 230.552 21.2188 231.047 21.8438C231.047 24.2396 230.344 25.4375 228.938 25.4375C227.922 25.4375 227.154 24.7865 226.633 23.4844C226.398 22.8854 226.099 22.4427 225.734 22.1562C225.396 21.8438 224.914 21.6875 224.289 21.6875C222.206 21.6875 221.164 23.6406 221.164 27.5469C221.164 31.9479 222.635 34.1484 225.578 34.1484C226.464 34.1484 227.284 34.0182 228.039 33.7578C228.56 33.6016 228.964 33.4583 229.25 33.3281C229.536 33.1979 229.797 33.0547 230.031 32.8984C230.292 32.7161 230.591 32.4948 230.93 32.2344C231.164 32.3385 231.281 32.5859 231.281 32.9766C231.281 33.3151 231.229 33.5755 231.125 33.7578C230.969 34.1745 230.565 34.6693 229.914 35.2422C229.263 35.7891 228.456 36.2708 227.492 36.6875C226.555 37.0781 225.539 37.2734 224.445 37.2734ZM240.93 37.2734C239.497 37.2734 238.26 36.8307 237.219 35.9453C236.203 35.0339 235.695 33.5755 235.695 31.5703V22.5469H233.156C232.948 22.5469 232.844 22.1432 232.844 21.3359C232.844 21.1536 232.87 21.0104 232.922 20.9062C233.651 20.5417 234.302 20.1901 234.875 19.8516C235.474 19.487 235.995 19.1354 236.438 18.7969C237.583 17.8854 238.417 17.1953 238.938 16.7266C239.458 16.2578 239.732 16.0104 239.758 15.9844C239.966 15.9844 240.188 16.0365 240.422 16.1406C240.656 16.2188 240.773 16.3099 240.773 16.4141V20.2422H244.992C245.201 20.2422 245.305 20.3724 245.305 20.6328C245.305 21.4141 245.174 22.0521 244.914 22.5469H240.773V31.8047C240.773 33.7839 241.477 34.7734 242.883 34.7734C243.612 34.7734 244.12 34.6823 244.406 34.5C244.719 34.2917 244.927 34.1875 245.031 34.1875C245.135 34.1875 245.24 34.3177 245.344 34.5781C245.474 34.8385 245.539 35.0339 245.539 35.1641C245.539 35.3724 245.279 35.6458 244.758 35.9844C244.263 36.3229 243.651 36.6224 242.922 36.8828C242.219 37.1432 241.555 37.2734 240.93 37.2734ZM268.703 37.1953C266.594 37.1953 264.745 36.7656 263.156 35.9062C261.568 35.0208 260.331 33.6667 259.445 31.8438C258.586 30.0208 258.156 27.6901 258.156 24.8516V16.6094C258.156 14.9427 258.052 13.9271 257.844 13.5625C257.766 13.4062 257.557 13.263 257.219 13.1328C256.906 12.9766 256.581 12.8464 256.242 12.7422C255.904 12.638 255.63 12.5859 255.422 12.5859C255.318 12.5859 255.266 12.3646 255.266 11.9219C255.266 11.4531 255.292 11.1927 255.344 11.1406L261.008 11.375C261.268 11.401 261.854 11.388 262.766 11.3359C263.677 11.2839 264.914 11.2188 266.477 11.1406C266.555 11.375 266.594 11.6094 266.594 11.8438C266.594 12.3385 266.542 12.5859 266.438 12.5859C266.281 12.5859 266.008 12.638 265.617 12.7422C265.227 12.8464 264.849 12.9766 264.484 13.1328C264.146 13.263 263.951 13.3932 263.898 13.5234C263.716 14.1745 263.625 15.2812 263.625 16.8438V26.1016C263.625 28.4974 264.159 30.4245 265.227 31.8828C266.32 33.3411 267.792 34.0703 269.641 34.0703C271.568 34.0703 273.143 33.4453 274.367 32.1953C275.617 30.9193 276.242 28.7969 276.242 25.8281V16.5312C276.242 15.0208 276.073 14.0833 275.734 13.7188C275.578 13.5104 275.292 13.3281 274.875 13.1719C274.484 12.9896 274.068 12.8464 273.625 12.7422C273.208 12.638 272.896 12.5859 272.688 12.5859C272.635 12.5859 272.583 12.4818 272.531 12.2734C272.505 12.0651 272.492 11.8438 272.492 11.6094C272.492 11.349 272.518 11.1927 272.57 11.1406C273.768 11.2448 274.797 11.3229 275.656 11.375C276.516 11.4271 277.206 11.4531 277.727 11.4531C278.169 11.4531 278.729 11.4271 279.406 11.375C280.083 11.3229 280.721 11.2708 281.32 11.2188C281.945 11.1667 282.362 11.1406 282.57 11.1406C282.674 11.3229 282.727 11.5573 282.727 11.8438C282.727 12.3385 282.661 12.5859 282.531 12.5859C281.125 12.5859 280.044 13.0156 279.289 13.875C278.924 14.3177 278.742 15.2682 278.742 16.7266V25.6328C278.742 28.1589 278.312 30.2812 277.453 32C276.62 33.7188 275.448 35.0208 273.938 35.9062C272.427 36.7656 270.682 37.1953 268.703 37.1953ZM290.461 37.3906C289.862 37.3906 289.198 37.3255 288.469 37.1953C287.74 37.0651 287.062 36.8828 286.438 36.6484C285.812 36.4141 285.331 36.1667 284.992 35.9062C284.68 34.1094 284.523 32.5208 284.523 31.1406C284.654 31.0625 284.849 31.0234 285.109 31.0234C285.943 31.0234 286.372 31.1406 286.398 31.375C286.841 33.9531 288.247 35.2422 290.617 35.2422C291.242 35.2422 291.763 35.099 292.18 34.8125C292.596 34.526 292.805 34.0964 292.805 33.5234C292.805 32.9766 292.583 32.5078 292.141 32.1172C291.698 31.7266 291.177 31.375 290.578 31.0625C289.979 30.75 289.432 30.4635 288.938 30.2031C287.427 29.474 286.307 28.6797 285.578 27.8203C284.849 26.9349 284.484 25.8542 284.484 24.5781C284.484 23.3802 284.797 22.4167 285.422 21.6875C286.047 20.9323 286.88 20.3724 287.922 20.0078C288.964 19.6432 290.083 19.4609 291.281 19.4609C293.547 19.4609 295.24 19.7214 296.359 20.2422C296.62 21.388 296.75 23.0026 296.75 25.0859C296.75 25.3203 296.581 25.4375 296.242 25.4375C295.435 25.4375 295.005 25.3333 294.953 25.125C294.719 24.0312 294.315 23.1719 293.742 22.5469C293.195 21.9219 292.31 21.6094 291.086 21.6094C290.513 21.6094 290.044 21.7526 289.68 22.0391C289.315 22.2995 289.133 22.6901 289.133 23.2109C289.133 23.8099 289.393 24.3307 289.914 24.7734C290.435 25.1901 291.203 25.6458 292.219 26.1406C293.078 26.5312 293.911 26.987 294.719 27.5078C295.526 28.0026 296.177 28.6276 296.672 29.3828C297.193 30.112 297.453 31.0365 297.453 32.1562C297.453 33.875 296.789 35.1771 295.461 36.0625C294.159 36.9479 292.492 37.3906 290.461 37.3906Z" fill="black"/>
<path d="M4.22094 83.5H11.7809V85H2.62094V71.8H4.22094V83.5ZM18.1211 74.8C19.0678 74.8 19.9011 75.0067 20.6211 75.42C21.3544 75.8333 21.9278 76.4333 22.3411 77.22C22.7544 77.9933 22.9611 78.92 22.9611 80C22.9611 81.08 22.7544 82.0133 22.3411 82.8C21.9278 83.5733 21.3544 84.1667 20.6211 84.58C19.9011 84.9933 19.0678 85.2 18.1211 85.2C17.1878 85.2 16.3544 84.9933 15.6211 84.58C14.8878 84.1667 14.3144 83.5733 13.9011 82.8C13.4878 82.0133 13.2811 81.08 13.2811 80C13.2811 78.92 13.4878 77.9933 13.9011 77.22C14.3144 76.4333 14.8878 75.8333 15.6211 75.42C16.3544 75.0067 17.1878 74.8 18.1211 74.8ZM18.1211 76.18C17.4411 76.18 16.8611 76.3333 16.3811 76.64C15.9011 76.9467 15.5278 77.3867 15.2611 77.96C15.0078 78.52 14.8811 79.2 14.8811 80C14.8811 80.7867 15.0078 81.4667 15.2611 82.04C15.5278 82.6133 15.9011 83.0533 16.3811 83.36C16.8611 83.6667 17.4411 83.82 18.1211 83.82C18.8011 83.82 19.3811 83.6667 19.8611 83.36C20.3411 83.0533 20.7078 82.6133 20.9611 82.04C21.2278 81.4667 21.3611 80.7867 21.3611 80C21.3611 79.2 21.2278 78.52 20.9611 77.96C20.7078 77.3867 20.3411 76.9467 19.8611 76.64C19.3811 76.3333 18.8011 76.18 18.1211 76.18ZM25.9733 85V75H27.2733L27.4933 76.64C27.7733 76.0267 28.1799 75.5667 28.7133 75.26C29.2599 74.9533 29.9199 74.8 30.6933 74.8C30.8666 74.8 31.0533 74.8133 31.2533 74.84C31.4666 74.8667 31.6466 74.92 31.7933 75L31.5133 76.46C31.3666 76.4067 31.2066 76.3667 31.0333 76.34C30.8599 76.3133 30.6133 76.3 30.2933 76.3C29.8799 76.3 29.4599 76.42 29.0333 76.66C28.6199 76.9 28.2733 77.2667 27.9933 77.76C27.7133 78.24 27.5733 78.8533 27.5733 79.6V85H25.9733ZM38.0048 85.2C37.0582 85.2 36.2115 84.9933 35.4648 84.58C34.7315 84.1667 34.1582 83.5733 33.7448 82.8C33.3315 82.0133 33.1248 81.08 33.1248 80C33.1248 78.92 33.3315 77.9933 33.7448 77.22C34.1582 76.4333 34.7248 75.8333 35.4448 75.42C36.1648 75.0067 36.9848 74.8 37.9048 74.8C38.8382 74.8 39.6315 75 40.2848 75.4C40.9515 75.8 41.4582 76.3467 41.8048 77.04C42.1515 77.72 42.3248 78.4867 42.3248 79.34C42.3248 79.5667 42.3182 79.7733 42.3048 79.96C42.2915 80.1467 42.2715 80.3133 42.2448 80.46H34.1648V79.04H41.5448L40.7248 79.2C40.7248 78.24 40.4582 77.5 39.9248 76.98C39.4048 76.46 38.7182 76.2 37.8648 76.2C37.2115 76.2 36.6448 76.3533 36.1648 76.66C35.6982 76.9533 35.3315 77.3867 35.0648 77.96C34.8115 78.52 34.6848 79.2 34.6848 80C34.6848 80.7867 34.8182 81.4667 35.0848 82.04C35.3515 82.6133 35.7248 83.0533 36.2048 83.36C36.6982 83.6533 37.2848 83.8 37.9648 83.8C38.6982 83.8 39.2915 83.66 39.7448 83.38C40.2115 83.1 40.5848 82.72 40.8648 82.24L42.1248 82.98C41.8715 83.4333 41.5448 83.8267 41.1448 84.16C40.7582 84.4933 40.2982 84.7533 39.7648 84.94C39.2448 85.1133 38.6582 85.2 38.0048 85.2ZM45.3678 85V75H46.7678L46.8678 76.56C47.2278 75.9467 47.6945 75.5 48.2678 75.22C48.8545 74.94 49.4545 74.8 50.0678 74.8C50.7745 74.8 51.4411 74.96 52.0678 75.28C52.6945 75.6 53.1745 76.0933 53.5078 76.76C53.7211 76.3067 54.0211 75.94 54.4078 75.66C54.7945 75.3667 55.2145 75.1533 55.6678 75.02C56.1345 74.8733 56.5745 74.8 56.9878 74.8C57.6278 74.8 58.2345 74.9333 58.8078 75.2C59.3945 75.4667 59.8745 75.88 60.2478 76.44C60.6211 77 60.8078 77.72 60.8078 78.6V85H59.2078V78.76C59.2078 77.8533 58.9811 77.2 58.5278 76.8C58.0745 76.4 57.5145 76.2 56.8478 76.2C56.3278 76.2 55.8411 76.3267 55.3878 76.58C54.9345 76.8333 54.5678 77.2067 54.2878 77.7C54.0211 78.1933 53.8878 78.8 53.8878 79.52V85H52.2878V78.76C52.2878 77.8533 52.0611 77.2 51.6078 76.8C51.1545 76.4 50.5945 76.2 49.9278 76.2C49.4878 76.2 49.0345 76.32 48.5678 76.56C48.1145 76.7867 47.7345 77.1533 47.4278 77.66C47.1211 78.1667 46.9678 78.8333 46.9678 79.66V85H45.3678ZM72.0467 73.08C71.6867 73.08 71.3934 72.9733 71.1667 72.76C70.9534 72.5333 70.8467 72.24 70.8467 71.88C70.8467 71.52 70.9534 71.2333 71.1667 71.02C71.3934 70.7933 71.6867 70.68 72.0467 70.68C72.4067 70.68 72.6934 70.7933 72.9067 71.02C73.1334 71.2333 73.2467 71.52 73.2467 71.88C73.2467 72.24 73.1334 72.5333 72.9067 72.76C72.6934 72.9733 72.4067 73.08 72.0467 73.08ZM72.8467 75V85H71.2467V75H72.8467ZM76.5592 89.2V75H77.9592L78.0992 77.44L77.8792 77.16C78.0526 76.6933 78.3126 76.2867 78.6592 75.94C79.0059 75.58 79.4259 75.3 79.9192 75.1C80.4126 74.9 80.9459 74.8 81.5192 74.8C82.3326 74.8 83.0792 75.0067 83.7592 75.42C84.4526 75.8333 85.0059 76.4267 85.4192 77.2C85.8326 77.9733 86.0392 78.9067 86.0392 80C86.0392 81.08 85.8259 82.0133 85.3992 82.8C84.9859 83.5733 84.4326 84.1667 83.7392 84.58C83.0459 84.9933 82.2859 85.2 81.4592 85.2C80.6326 85.2 79.9059 85 79.2792 84.6C78.6659 84.1867 78.2259 83.6667 77.9592 83.04L78.1592 82.74V89.2H76.5592ZM81.2992 83.8C82.2859 83.8 83.0526 83.4533 83.5992 82.76C84.1592 82.0667 84.4392 81.1467 84.4392 80C84.4392 78.8533 84.1659 77.9333 83.6192 77.24C83.0859 76.5467 82.3326 76.2 81.3592 76.2C80.7192 76.2 80.1592 76.36 79.6792 76.68C79.1992 76.9867 78.8259 77.4267 78.5592 78C78.2926 78.56 78.1592 79.2267 78.1592 80C78.1592 80.76 78.2859 81.4267 78.5392 82C78.8059 82.5733 79.1726 83.02 79.6392 83.34C80.1192 83.6467 80.6726 83.8 81.2992 83.8ZM92.6983 85.2C91.7249 85.2 90.8249 84.9933 89.9983 84.58C89.1849 84.1667 88.5583 83.58 88.1183 82.82L89.4783 81.84C89.7716 82.4533 90.1983 82.9333 90.7583 83.28C91.3316 83.6267 92.0183 83.8 92.8183 83.8C93.5249 83.8 94.0783 83.6667 94.4783 83.4C94.8783 83.12 95.0783 82.76 95.0783 82.32C95.0783 82.04 94.9849 81.7867 94.7983 81.56C94.6249 81.32 94.2849 81.1467 93.7783 81.04L91.3783 80.54C90.4049 80.34 89.7049 80.0067 89.2783 79.54C88.8649 79.0733 88.6583 78.4933 88.6583 77.8C88.6583 77.2533 88.8116 76.7533 89.1183 76.3C89.4383 75.8467 89.8849 75.4867 90.4583 75.22C91.0449 74.94 91.7316 74.8 92.5183 74.8C93.5049 74.8 94.3383 74.9933 95.0183 75.38C95.6983 75.7667 96.2049 76.3133 96.5383 77.02L95.1983 77.9C94.9716 77.3133 94.6049 76.8867 94.0983 76.62C93.5916 76.34 93.0649 76.2 92.5183 76.2C92.0383 76.2 91.6249 76.2667 91.2783 76.4C90.9449 76.5333 90.6849 76.72 90.4983 76.96C90.3249 77.1867 90.2383 77.4467 90.2383 77.74C90.2383 78.0333 90.3383 78.3067 90.5383 78.56C90.7383 78.8 91.1116 78.9733 91.6583 79.08L94.1583 79.6C95.0916 79.7867 95.7449 80.0933 96.1183 80.52C96.4916 80.9467 96.6783 81.4667 96.6783 82.08C96.6783 82.7067 96.5116 83.26 96.1783 83.74C95.8449 84.2067 95.3783 84.5667 94.7783 84.82C94.1783 85.0733 93.4849 85.2 92.6983 85.2ZM103.265 85.2C102.625 85.2 102.018 85.08 101.445 84.84C100.885 84.6 100.425 84.2133 100.065 83.68C99.7185 83.1333 99.5452 82.4267 99.5452 81.56V75H101.145V81.14C101.145 82.1533 101.365 82.8533 101.805 83.24C102.245 83.6133 102.865 83.8 103.665 83.8C104.038 83.8 104.405 83.74 104.765 83.62C105.125 83.4867 105.445 83.2867 105.725 83.02C106.018 82.74 106.245 82.3867 106.405 81.96C106.578 81.5333 106.665 81.0267 106.665 80.44V75H108.265V85H106.865L106.765 83.48C106.418 84.08 105.945 84.52 105.345 84.8C104.758 85.0667 104.065 85.2 103.265 85.2ZM111.989 85V75H113.389L113.489 76.56C113.849 75.9467 114.316 75.5 114.889 75.22C115.476 74.94 116.076 74.8 116.689 74.8C117.396 74.8 118.062 74.96 118.689 75.28C119.316 75.6 119.796 76.0933 120.129 76.76C120.342 76.3067 120.642 75.94 121.029 75.66C121.416 75.3667 121.836 75.1533 122.289 75.02C122.756 74.8733 123.196 74.8 123.609 74.8C124.249 74.8 124.856 74.9333 125.429 75.2C126.016 75.4667 126.496 75.88 126.869 76.44C127.242 77 127.429 77.72 127.429 78.6V85H125.829V78.76C125.829 77.8533 125.602 77.2 125.149 76.8C124.696 76.4 124.136 76.2 123.469 76.2C122.949 76.2 122.462 76.3267 122.009 76.58C121.556 76.8333 121.189 77.2067 120.909 77.7C120.642 78.1933 120.509 78.8 120.509 79.52V85H118.909V78.76C118.909 77.8533 118.682 77.2 118.229 76.8C117.776 76.4 117.216 76.2 116.549 76.2C116.109 76.2 115.656 76.32 115.189 76.56C114.736 76.7867 114.356 77.1533 114.049 77.66C113.742 78.1667 113.589 78.8333 113.589 79.66V85H111.989ZM131.851 82.6C132.171 82.6 132.438 82.6867 132.651 82.86C132.878 83.02 133.051 83.2467 133.171 83.54C133.291 83.82 133.351 84.1533 133.351 84.54C133.351 84.98 133.271 85.4133 133.111 85.84C132.965 86.2667 132.731 86.66 132.411 87.02C132.091 87.38 131.678 87.68 131.171 87.92L130.331 87.14C130.691 87.02 131.005 86.8533 131.271 86.64C131.551 86.4267 131.778 86.1867 131.951 85.92C132.125 85.6533 132.238 85.38 132.291 85.1L132.211 85.06C132.158 85.1 132.091 85.1333 132.011 85.16C131.931 85.1867 131.811 85.2 131.651 85.2C131.491 85.2 131.325 85.1533 131.151 85.06C130.991 84.9667 130.851 84.8333 130.731 84.66C130.611 84.4733 130.551 84.2333 130.551 83.94C130.551 83.7 130.611 83.48 130.731 83.28C130.851 83.0667 131.005 82.9 131.191 82.78C131.391 82.66 131.611 82.6 131.851 82.6ZM147.08 85.2C146.254 85.2 145.494 84.9933 144.8 84.58C144.107 84.1667 143.554 83.5733 143.14 82.8C142.727 82.0133 142.52 81.08 142.52 80C142.52 78.8933 142.74 77.9533 143.18 77.18C143.62 76.4067 144.2 75.82 144.92 75.42C145.64 75.0067 146.414 74.8 147.24 74.8C148.067 74.8 148.78 75.0133 149.38 75.44C149.994 75.8667 150.4 76.4333 150.6 77.14L150.4 77.28V70.4H152V85H150.6L150.46 82.58L150.68 82.46C150.587 83.0467 150.36 83.5467 150 83.96C149.654 84.36 149.22 84.6667 148.7 84.88C148.194 85.0933 147.654 85.2 147.08 85.2ZM147.24 83.8C147.88 83.8 148.434 83.64 148.9 83.32C149.38 83 149.747 82.5467 150 81.96C150.267 81.36 150.4 80.66 150.4 79.86C150.4 79.1 150.267 78.4467 150 77.9C149.747 77.3533 149.387 76.9333 148.92 76.64C148.467 76.3467 147.934 76.2 147.32 76.2C146.307 76.2 145.52 76.5467 144.96 77.24C144.4 77.9333 144.12 78.8533 144.12 80C144.12 81.1467 144.394 82.0667 144.94 82.76C145.487 83.4533 146.254 83.8 147.24 83.8ZM159.859 74.8C160.806 74.8 161.639 75.0067 162.359 75.42C163.093 75.8333 163.666 76.4333 164.079 77.22C164.493 77.9933 164.699 78.92 164.699 80C164.699 81.08 164.493 82.0133 164.079 82.8C163.666 83.5733 163.093 84.1667 162.359 84.58C161.639 84.9933 160.806 85.2 159.859 85.2C158.926 85.2 158.093 84.9933 157.359 84.58C156.626 84.1667 156.053 83.5733 155.639 82.8C155.226 82.0133 155.019 81.08 155.019 80C155.019 78.92 155.226 77.9933 155.639 77.22C156.053 76.4333 156.626 75.8333 157.359 75.42C158.093 75.0067 158.926 74.8 159.859 74.8ZM159.859 76.18C159.179 76.18 158.599 76.3333 158.119 76.64C157.639 76.9467 157.266 77.3867 156.999 77.96C156.746 78.52 156.619 79.2 156.619 80C156.619 80.7867 156.746 81.4667 156.999 82.04C157.266 82.6133 157.639 83.0533 158.119 83.36C158.599 83.6667 159.179 83.82 159.859 83.82C160.539 83.82 161.119 83.6667 161.599 83.36C162.079 83.0533 162.446 82.6133 162.699 82.04C162.966 81.4667 163.099 80.7867 163.099 80C163.099 79.2 162.966 78.52 162.699 77.96C162.446 77.3867 162.079 76.9467 161.599 76.64C161.119 76.3333 160.539 76.18 159.859 76.18ZM169.232 70.4V82.46C169.232 82.9667 169.325 83.32 169.512 83.52C169.698 83.7067 169.998 83.8 170.412 83.8C170.678 83.8 170.898 83.78 171.072 83.74C171.245 83.7 171.478 83.6267 171.772 83.52L171.512 84.92C171.298 85.0133 171.065 85.08 170.812 85.12C170.558 85.1733 170.298 85.2 170.032 85.2C169.218 85.2 168.612 84.98 168.212 84.54C167.825 84.1 167.632 83.4267 167.632 82.52V70.4H169.232ZM177.965 74.8C178.912 74.8 179.745 75.0067 180.465 75.42C181.198 75.8333 181.772 76.4333 182.185 77.22C182.598 77.9933 182.805 78.92 182.805 80C182.805 81.08 182.598 82.0133 182.185 82.8C181.772 83.5733 181.198 84.1667 180.465 84.58C179.745 84.9933 178.912 85.2 177.965 85.2C177.032 85.2 176.198 84.9933 175.465 84.58C174.732 84.1667 174.158 83.5733 173.745 82.8C173.332 82.0133 173.125 81.08 173.125 80C173.125 78.92 173.332 77.9933 173.745 77.22C174.158 76.4333 174.732 75.8333 175.465 75.42C176.198 75.0067 177.032 74.8 177.965 74.8ZM177.965 76.18C177.285 76.18 176.705 76.3333 176.225 76.64C175.745 76.9467 175.372 77.3867 175.105 77.96C174.852 78.52 174.725 79.2 174.725 80C174.725 80.7867 174.852 81.4667 175.105 82.04C175.372 82.6133 175.745 83.0533 176.225 83.36C176.705 83.6667 177.285 83.82 177.965 83.82C178.645 83.82 179.225 83.6667 179.705 83.36C180.185 83.0533 180.552 82.6133 180.805 82.04C181.072 81.4667 181.205 80.7867 181.205 80C181.205 79.2 181.072 78.52 180.805 77.96C180.552 77.3867 180.185 76.9467 179.705 76.64C179.225 76.3333 178.645 76.18 177.965 76.18ZM185.817 85V75H187.117L187.337 76.64C187.617 76.0267 188.024 75.5667 188.557 75.26C189.104 74.9533 189.764 74.8 190.537 74.8C190.71 74.8 190.897 74.8133 191.097 74.84C191.31 74.8667 191.49 74.92 191.637 75L191.357 76.46C191.21 76.4067 191.05 76.3667 190.877 76.34C190.704 76.3133 190.457 76.3 190.137 76.3C189.724 76.3 189.304 76.42 188.877 76.66C188.464 76.9 188.117 77.2667 187.837 77.76C187.557 78.24 187.417 78.8533 187.417 79.6V85H185.817ZM203.929 85.2C202.955 85.2 202.055 84.9933 201.229 84.58C200.415 84.1667 199.789 83.58 199.349 82.82L200.709 81.84C201.002 82.4533 201.429 82.9333 201.989 83.28C202.562 83.6267 203.249 83.8 204.049 83.8C204.755 83.8 205.309 83.6667 205.709 83.4C206.109 83.12 206.309 82.76 206.309 82.32C206.309 82.04 206.215 81.7867 206.029 81.56C205.855 81.32 205.515 81.1467 205.009 81.04L202.609 80.54C201.635 80.34 200.935 80.0067 200.509 79.54C200.095 79.0733 199.889 78.4933 199.889 77.8C199.889 77.2533 200.042 76.7533 200.349 76.3C200.669 75.8467 201.115 75.4867 201.689 75.22C202.275 74.94 202.962 74.8 203.749 74.8C204.735 74.8 205.569 74.9933 206.249 75.38C206.929 75.7667 207.435 76.3133 207.769 77.02L206.429 77.9C206.202 77.3133 205.835 76.8867 205.329 76.62C204.822 76.34 204.295 76.2 203.749 76.2C203.269 76.2 202.855 76.2667 202.509 76.4C202.175 76.5333 201.915 76.72 201.729 76.96C201.555 77.1867 201.469 77.4467 201.469 77.74C201.469 78.0333 201.569 78.3067 201.769 78.56C201.969 78.8 202.342 78.9733 202.889 79.08L205.389 79.6C206.322 79.7867 206.975 80.0933 207.349 80.52C207.722 80.9467 207.909 81.4667 207.909 82.08C207.909 82.7067 207.742 83.26 207.409 83.74C207.075 84.2067 206.609 84.5667 206.009 84.82C205.409 85.0733 204.715 85.2 203.929 85.2ZM211.676 73.08C211.316 73.08 211.022 72.9733 210.796 72.76C210.582 72.5333 210.476 72.24 210.476 71.88C210.476 71.52 210.582 71.2333 210.796 71.02C211.022 70.7933 211.316 70.68 211.676 70.68C212.036 70.68 212.322 70.7933 212.536 71.02C212.762 71.2333 212.876 71.52 212.876 71.88C212.876 72.24 212.762 72.5333 212.536 72.76C212.322 72.9733 212.036 73.08 211.676 73.08ZM212.476 75V85H210.876V75H212.476ZM218.548 72.16V82.24C218.548 82.7333 218.688 83.1 218.968 83.34C219.248 83.58 219.608 83.7 220.048 83.7C220.435 83.7 220.768 83.6333 221.048 83.5C221.328 83.3667 221.581 83.1867 221.808 82.96L222.368 84.3C222.061 84.58 221.695 84.8 221.268 84.96C220.855 85.12 220.375 85.2 219.828 85.2C219.321 85.2 218.848 85.1133 218.408 84.94C217.968 84.7533 217.615 84.4667 217.348 84.08C217.095 83.68 216.961 83.16 216.948 82.52V72.6L218.548 72.16ZM222.188 75V76.38H214.948V75H222.188ZM237.223 78.54C237.223 77.7933 237.023 77.22 236.623 76.82C236.223 76.4067 235.657 76.2 234.923 76.2C234.23 76.2 233.643 76.3533 233.163 76.66C232.683 76.9533 232.33 77.4333 232.103 78.1L230.803 77.3C231.07 76.5533 231.563 75.9533 232.283 75.5C233.003 75.0333 233.897 74.8 234.963 74.8C235.683 74.8 236.337 74.9267 236.923 75.18C237.51 75.42 237.97 75.7933 238.303 76.3C238.65 76.7933 238.823 77.4333 238.823 78.22V83.06C238.823 83.54 239.077 83.78 239.583 83.78C239.837 83.78 240.083 83.7467 240.323 83.68L240.243 84.94C239.977 85.0733 239.63 85.14 239.203 85.14C238.817 85.14 238.47 85.0667 238.163 84.92C237.857 84.7733 237.617 84.5533 237.443 84.26C237.27 83.9533 237.183 83.5733 237.183 83.12V82.92L237.583 82.98C237.423 83.5 237.15 83.9267 236.763 84.26C236.377 84.58 235.943 84.82 235.463 84.98C234.983 85.1267 234.51 85.2 234.043 85.2C233.457 85.2 232.91 85.1 232.403 84.9C231.897 84.7 231.49 84.4 231.183 84C230.89 83.5867 230.743 83.08 230.743 82.48C230.743 81.7333 230.99 81.12 231.483 80.64C231.99 80.1467 232.69 79.8133 233.583 79.64L237.543 78.86V80.18L234.323 80.84C233.67 80.9733 233.183 81.16 232.863 81.4C232.543 81.64 232.383 81.9733 232.383 82.4C232.383 82.8133 232.543 83.1533 232.863 83.42C233.197 83.6733 233.663 83.8 234.263 83.8C234.65 83.8 235.017 83.7533 235.363 83.66C235.723 83.5533 236.043 83.4 236.323 83.2C236.603 82.9867 236.823 82.7267 236.983 82.42C237.143 82.1 237.223 81.7267 237.223 81.3V78.54ZM242.712 85V75H244.112L244.212 76.56C244.572 75.9467 245.038 75.5 245.612 75.22C246.198 74.94 246.798 74.8 247.412 74.8C248.118 74.8 248.785 74.96 249.412 75.28C250.038 75.6 250.518 76.0933 250.852 76.76C251.065 76.3067 251.365 75.94 251.752 75.66C252.138 75.3667 252.558 75.1533 253.012 75.02C253.478 74.8733 253.918 74.8 254.332 74.8C254.972 74.8 255.578 74.9333 256.152 75.2C256.738 75.4667 257.218 75.88 257.592 76.44C257.965 77 258.152 77.72 258.152 78.6V85H256.552V78.76C256.552 77.8533 256.325 77.2 255.872 76.8C255.418 76.4 254.858 76.2 254.192 76.2C253.672 76.2 253.185 76.3267 252.732 76.58C252.278 76.8333 251.912 77.2067 251.632 77.7C251.365 78.1933 251.232 78.8 251.232 79.52V85H249.632V78.76C249.632 77.8533 249.405 77.2 248.952 76.8C248.498 76.4 247.938 76.2 247.272 76.2C246.832 76.2 246.378 76.32 245.912 76.56C245.458 76.7867 245.078 77.1533 244.772 77.66C244.465 78.1667 244.312 78.8333 244.312 79.66V85H242.712ZM265.954 85.2C265.007 85.2 264.161 84.9933 263.414 84.58C262.681 84.1667 262.107 83.5733 261.694 82.8C261.281 82.0133 261.074 81.08 261.074 80C261.074 78.92 261.281 77.9933 261.694 77.22C262.107 76.4333 262.674 75.8333 263.394 75.42C264.114 75.0067 264.934 74.8 265.854 74.8C266.787 74.8 267.581 75 268.234 75.4C268.901 75.8 269.407 76.3467 269.754 77.04C270.101 77.72 270.274 78.4867 270.274 79.34C270.274 79.5667 270.267 79.7733 270.254 79.96C270.241 80.1467 270.221 80.3133 270.194 80.46H262.114V79.04H269.494L268.674 79.2C268.674 78.24 268.407 77.5 267.874 76.98C267.354 76.46 266.667 76.2 265.814 76.2C265.161 76.2 264.594 76.3533 264.114 76.66C263.647 76.9533 263.281 77.3867 263.014 77.96C262.761 78.52 262.634 79.2 262.634 80C262.634 80.7867 262.767 81.4667 263.034 82.04C263.301 82.6133 263.674 83.0533 264.154 83.36C264.647 83.6533 265.234 83.8 265.914 83.8C266.647 83.8 267.241 83.66 267.694 83.38C268.161 83.1 268.534 82.72 268.814 82.24L270.074 82.98C269.821 83.4333 269.494 83.8267 269.094 84.16C268.707 84.4933 268.247 84.7533 267.714 84.94C267.194 85.1133 266.607 85.2 265.954 85.2ZM275.384 72.16V82.24C275.384 82.7333 275.524 83.1 275.804 83.34C276.084 83.58 276.444 83.7 276.884 83.7C277.271 83.7 277.604 83.6333 277.884 83.5C278.164 83.3667 278.417 83.1867 278.644 82.96L279.204 84.3C278.897 84.58 278.531 84.8 278.104 84.96C277.691 85.12 277.211 85.2 276.664 85.2C276.157 85.2 275.684 85.1133 275.244 84.94C274.804 84.7533 274.451 84.4667 274.184 84.08C273.931 83.68 273.797 83.16 273.784 82.52V72.6L275.384 72.16ZM279.024 75V76.38H271.784V75H279.024ZM292.359 74.8C293.053 74.8 293.659 74.9067 294.179 75.12C294.713 75.3333 295.173 75.64 295.559 76.04C295.946 76.44 296.259 76.9133 296.499 77.46L294.979 78.18C294.766 77.54 294.439 77.0533 293.999 76.72C293.573 76.3733 293.013 76.2 292.319 76.2C291.653 76.2 291.079 76.3533 290.599 76.66C290.119 76.9533 289.753 77.3867 289.499 77.96C289.246 78.52 289.119 79.2 289.119 80C289.119 80.7867 289.246 81.4667 289.499 82.04C289.753 82.6133 290.119 83.0533 290.599 83.36C291.079 83.6533 291.653 83.8 292.319 83.8C292.839 83.8 293.286 83.72 293.659 83.56C294.046 83.4 294.359 83.1667 294.599 82.86C294.853 82.5533 295.026 82.18 295.119 81.74L296.599 82.26C296.373 82.8733 296.059 83.4 295.659 83.84C295.273 84.28 294.799 84.62 294.239 84.86C293.693 85.0867 293.066 85.2 292.359 85.2C291.426 85.2 290.593 84.9933 289.859 84.58C289.126 84.1667 288.553 83.5733 288.139 82.8C287.726 82.0133 287.519 81.08 287.519 80C287.519 78.92 287.726 77.9933 288.139 77.22C288.553 76.4333 289.126 75.8333 289.859 75.42C290.593 75.0067 291.426 74.8 292.359 74.8ZM303.551 74.8C304.497 74.8 305.331 75.0067 306.051 75.42C306.784 75.8333 307.357 76.4333 307.771 77.22C308.184 77.9933 308.391 78.92 308.391 80C308.391 81.08 308.184 82.0133 307.771 82.8C307.357 83.5733 306.784 84.1667 306.051 84.58C305.331 84.9933 304.497 85.2 303.551 85.2C302.617 85.2 301.784 84.9933 301.051 84.58C300.317 84.1667 299.744 83.5733 299.331 82.8C298.917 82.0133 298.711 81.08 298.711 80C298.711 78.92 298.917 77.9933 299.331 77.22C299.744 76.4333 300.317 75.8333 301.051 75.42C301.784 75.0067 302.617 74.8 303.551 74.8ZM303.551 76.18C302.871 76.18 302.291 76.3333 301.811 76.64C301.331 76.9467 300.957 77.3867 300.691 77.96C300.437 78.52 300.311 79.2 300.311 80C300.311 80.7867 300.437 81.4667 300.691 82.04C300.957 82.6133 301.331 83.0533 301.811 83.36C302.291 83.6667 302.871 83.82 303.551 83.82C304.231 83.82 304.811 83.6667 305.291 83.36C305.771 83.0533 306.137 82.6133 306.391 82.04C306.657 81.4667 306.791 80.7867 306.791 80C306.791 79.2 306.657 78.52 306.391 77.96C306.137 77.3867 305.771 76.9467 305.291 76.64C304.811 76.3333 304.231 76.18 303.551 76.18ZM311.403 85V75H312.803L312.943 77.24L312.683 77.02C312.896 76.4867 313.183 76.06 313.543 75.74C313.903 75.4067 314.316 75.1667 314.783 75.02C315.263 74.8733 315.756 74.8 316.263 74.8C316.983 74.8 317.636 74.94 318.223 75.22C318.81 75.4867 319.276 75.9 319.623 76.46C319.983 77.02 320.163 77.7333 320.163 78.6V85H318.563V79.16C318.563 78.0533 318.323 77.2867 317.843 76.86C317.376 76.42 316.796 76.2 316.103 76.2C315.623 76.2 315.143 76.3133 314.663 76.54C314.183 76.7667 313.783 77.1333 313.463 77.64C313.156 78.1467 313.003 78.8267 313.003 79.68V85H311.403ZM327.386 85.2C326.412 85.2 325.512 84.9933 324.686 84.58C323.872 84.1667 323.246 83.58 322.806 82.82L324.166 81.84C324.459 82.4533 324.886 82.9333 325.446 83.28C326.019 83.6267 326.706 83.8 327.506 83.8C328.212 83.8 328.766 83.6667 329.166 83.4C329.566 83.12 329.766 82.76 329.766 82.32C329.766 82.04 329.672 81.7867 329.486 81.56C329.312 81.32 328.972 81.1467 328.466 81.04L326.066 80.54C325.092 80.34 324.392 80.0067 323.966 79.54C323.552 79.0733 323.346 78.4933 323.346 77.8C323.346 77.2533 323.499 76.7533 323.806 76.3C324.126 75.8467 324.572 75.4867 325.146 75.22C325.732 74.94 326.419 74.8 327.206 74.8C328.192 74.8 329.026 74.9933 329.706 75.38C330.386 75.7667 330.892 76.3133 331.226 77.02L329.886 77.9C329.659 77.3133 329.292 76.8867 328.786 76.62C328.279 76.34 327.752 76.2 327.206 76.2C326.726 76.2 326.312 76.2667 325.966 76.4C325.632 76.5333 325.372 76.72 325.186 76.96C325.012 77.1867 324.926 77.4467 324.926 77.74C324.926 78.0333 325.026 78.3067 325.226 78.56C325.426 78.8 325.799 78.9733 326.346 79.08L328.846 79.6C329.779 79.7867 330.432 80.0933 330.806 80.52C331.179 80.9467 331.366 81.4667 331.366 82.08C331.366 82.7067 331.199 83.26 330.866 83.74C330.532 84.2067 330.066 84.5667 329.466 84.82C328.866 85.0733 328.172 85.2 327.386 85.2ZM338.513 85.2C337.566 85.2 336.719 84.9933 335.973 84.58C335.239 84.1667 334.666 83.5733 334.253 82.8C333.839 82.0133 333.633 81.08 333.633 80C333.633 78.92 333.839 77.9933 334.253 77.22C334.666 76.4333 335.233 75.8333 335.953 75.42C336.673 75.0067 337.493 74.8 338.413 74.8C339.346 74.8 340.139 75 340.793 75.4C341.459 75.8 341.966 76.3467 342.313 77.04C342.659 77.72 342.833 78.4867 342.833 79.34C342.833 79.5667 342.826 79.7733 342.813 79.96C342.799 80.1467 342.779 80.3133 342.753 80.46H334.673V79.04H342.053L341.233 79.2C341.233 78.24 340.966 77.5 340.433 76.98C339.913 76.46 339.226 76.2 338.373 76.2C337.719 76.2 337.153 76.3533 336.673 76.66C336.206 76.9533 335.839 77.3867 335.573 77.96C335.319 78.52 335.193 79.2 335.193 80C335.193 80.7867 335.326 81.4667 335.593 82.04C335.859 82.6133 336.233 83.0533 336.713 83.36C337.206 83.6533 337.793 83.8 338.473 83.8C339.206 83.8 339.799 83.66 340.253 83.38C340.719 83.1 341.093 82.72 341.373 82.24L342.633 82.98C342.379 83.4333 342.053 83.8267 341.653 84.16C341.266 84.4933 340.806 84.7533 340.273 84.94C339.753 85.1133 339.166 85.2 338.513 85.2ZM350.016 74.8C350.709 74.8 351.316 74.9067 351.836 75.12C352.369 75.3333 352.829 75.64 353.216 76.04C353.602 76.44 353.916 76.9133 354.156 77.46L352.636 78.18C352.422 77.54 352.096 77.0533 351.656 76.72C351.229 76.3733 350.669 76.2 349.976 76.2C349.309 76.2 348.736 76.3533 348.256 76.66C347.776 76.9533 347.409 77.3867 347.156 77.96C346.902 78.52 346.776 79.2 346.776 80C346.776 80.7867 346.902 81.4667 347.156 82.04C347.409 82.6133 347.776 83.0533 348.256 83.36C348.736 83.6533 349.309 83.8 349.976 83.8C350.496 83.8 350.942 83.72 351.316 83.56C351.702 83.4 352.016 83.1667 352.256 82.86C352.509 82.5533 352.682 82.18 352.776 81.74L354.256 82.26C354.029 82.8733 353.716 83.4 353.316 83.84C352.929 84.28 352.456 84.62 351.896 84.86C351.349 85.0867 350.722 85.2 350.016 85.2C349.082 85.2 348.249 84.9933 347.516 84.58C346.782 84.1667 346.209 83.5733 345.796 82.8C345.382 82.0133 345.176 81.08 345.176 80C345.176 78.92 345.382 77.9933 345.796 77.22C346.209 76.4333 346.782 75.8333 347.516 75.42C348.249 75.0067 349.082 74.8 350.016 74.8ZM359.427 72.16V82.24C359.427 82.7333 359.567 83.1 359.847 83.34C360.127 83.58 360.487 83.7 360.927 83.7C361.314 83.7 361.647 83.6333 361.927 83.5C362.207 83.3667 362.46 83.1867 362.687 82.96L363.247 84.3C362.94 84.58 362.574 84.8 362.147 84.96C361.734 85.12 361.254 85.2 360.707 85.2C360.2 85.2 359.727 85.1133 359.287 84.94C358.847 84.7533 358.494 84.4667 358.227 84.08C357.974 83.68 357.84 83.16 357.827 82.52V72.6L359.427 72.16ZM363.067 75V76.38H355.827V75H363.067ZM369.626 85.2C368.679 85.2 367.833 84.9933 367.086 84.58C366.353 84.1667 365.779 83.5733 365.366 82.8C364.953 82.0133 364.746 81.08 364.746 80C364.746 78.92 364.953 77.9933 365.366 77.22C365.779 76.4333 366.346 75.8333 367.066 75.42C367.786 75.0067 368.606 74.8 369.526 74.8C370.459 74.8 371.253 75 371.906 75.4C372.573 75.8 373.079 76.3467 373.426 77.04C373.773 77.72 373.946 78.4867 373.946 79.34C373.946 79.5667 373.939 79.7733 373.926 79.96C373.913 80.1467 373.893 80.3133 373.866 80.46H365.786V79.04H373.166L372.346 79.2C372.346 78.24 372.079 77.5 371.546 76.98C371.026 76.46 370.339 76.2 369.486 76.2C368.833 76.2 368.266 76.3533 367.786 76.66C367.319 76.9533 366.953 77.3867 366.686 77.96C366.433 78.52 366.306 79.2 366.306 80C366.306 80.7867 366.439 81.4667 366.706 82.04C366.973 82.6133 367.346 83.0533 367.826 83.36C368.319 83.6533 368.906 83.8 369.586 83.8C370.319 83.8 370.913 83.66 371.366 83.38C371.833 83.1 372.206 82.72 372.486 82.24L373.746 82.98C373.493 83.4333 373.166 83.8267 372.766 84.16C372.379 84.4933 371.919 84.7533 371.386 84.94C370.866 85.1133 370.279 85.2 369.626 85.2ZM379.056 72.16V82.24C379.056 82.7333 379.196 83.1 379.476 83.34C379.756 83.58 380.116 83.7 380.556 83.7C380.943 83.7 381.276 83.6333 381.556 83.5C381.836 83.3667 382.089 83.1867 382.316 82.96L382.876 84.3C382.569 84.58 382.203 84.8 381.776 84.96C381.363 85.12 380.883 85.2 380.336 85.2C379.829 85.2 379.356 85.1133 378.916 84.94C378.476 84.7533 378.123 84.4667 377.856 84.08C377.603 83.68 377.469 83.16 377.456 82.52V72.6L379.056 72.16ZM382.696 75V76.38H375.456V75H382.696ZM388.695 85.2C388.055 85.2 387.448 85.08 386.875 84.84C386.315 84.6 385.855 84.2133 385.495 83.68C385.148 83.1333 384.975 82.4267 384.975 81.56V75H386.575V81.14C386.575 82.1533 386.795 82.8533 387.235 83.24C387.675 83.6133 388.295 83.8 389.095 83.8C389.468 83.8 389.835 83.74 390.195 83.62C390.555 83.4867 390.875 83.2867 391.155 83.02C391.448 82.74 391.675 82.3867 391.835 81.96C392.008 81.5333 392.095 81.0267 392.095 80.44V75H393.695V85H392.295L392.195 83.48C391.848 84.08 391.375 84.52 390.775 84.8C390.188 85.0667 389.495 85.2 388.695 85.2ZM397.419 85V75H398.719L398.939 76.64C399.219 76.0267 399.625 75.5667 400.159 75.26C400.705 74.9533 401.365 74.8 402.139 74.8C402.312 74.8 402.499 74.8133 402.699 74.84C402.912 74.8667 403.092 74.92 403.239 75L402.959 76.46C402.812 76.4067 402.652 76.3667 402.479 76.34C402.305 76.3133 402.059 76.3 401.739 76.3C401.325 76.3 400.905 76.42 400.479 76.66C400.065 76.9 399.719 77.2667 399.439 77.76C399.159 78.24 399.019 78.8533 399.019 79.6V85H397.419ZM140.251 113.54C140.251 112.793 140.051 112.22 139.651 111.82C139.251 111.407 138.684 111.2 137.951 111.2C137.257 111.2 136.671 111.353 136.191 111.66C135.711 111.953 135.357 112.433 135.131 113.1L133.831 112.3C134.097 111.553 134.591 110.953 135.311 110.5C136.031 110.033 136.924 109.8 137.991 109.8C138.711 109.8 139.364 109.927 139.951 110.18C140.537 110.42 140.997 110.793 141.331 111.3C141.677 111.793 141.851 112.433 141.851 113.22V118.06C141.851 118.54 142.104 118.78 142.611 118.78C142.864 118.78 143.111 118.747 143.351 118.68L143.271 119.94C143.004 120.073 142.657 120.14 142.231 120.14C141.844 120.14 141.497 120.067 141.191 119.92C140.884 119.773 140.644 119.553 140.471 119.26C140.297 118.953 140.211 118.573 140.211 118.12V117.92L140.611 117.98C140.451 118.5 140.177 118.927 139.791 119.26C139.404 119.58 138.971 119.82 138.491 119.98C138.011 120.127 137.537 120.2 137.071 120.2C136.484 120.2 135.937 120.1 135.431 119.9C134.924 119.7 134.517 119.4 134.211 119C133.917 118.587 133.771 118.08 133.771 117.48C133.771 116.733 134.017 116.12 134.511 115.64C135.017 115.147 135.717 114.813 136.611 114.64L140.571 113.86V115.18L137.351 115.84C136.697 115.973 136.211 116.16 135.891 116.4C135.571 116.64 135.411 116.973 135.411 117.4C135.411 117.813 135.571 118.153 135.891 118.42C136.224 118.673 136.691 118.8 137.291 118.8C137.677 118.8 138.044 118.753 138.391 118.66C138.751 118.553 139.071 118.4 139.351 118.2C139.631 117.987 139.851 117.727 140.011 117.42C140.171 117.1 140.251 116.727 140.251 116.3V113.54ZM149.639 120.2C148.812 120.2 148.052 119.993 147.359 119.58C146.666 119.167 146.112 118.573 145.699 117.8C145.286 117.013 145.079 116.08 145.079 115C145.079 113.893 145.299 112.953 145.739 112.18C146.179 111.407 146.759 110.82 147.479 110.42C148.199 110.007 148.972 109.8 149.799 109.8C150.626 109.8 151.339 110.013 151.939 110.44C152.552 110.867 152.959 111.433 153.159 112.14L152.959 112.28V105.4H154.559V120H153.159L153.019 117.58L153.239 117.46C153.146 118.047 152.919 118.547 152.559 118.96C152.212 119.36 151.779 119.667 151.259 119.88C150.752 120.093 150.212 120.2 149.639 120.2ZM149.799 118.8C150.439 118.8 150.992 118.64 151.459 118.32C151.939 118 152.306 117.547 152.559 116.96C152.826 116.36 152.959 115.66 152.959 114.86C152.959 114.1 152.826 113.447 152.559 112.9C152.306 112.353 151.946 111.933 151.479 111.64C151.026 111.347 150.492 111.2 149.879 111.2C148.866 111.2 148.079 111.547 147.519 112.24C146.959 112.933 146.679 113.853 146.679 115C146.679 116.147 146.952 117.067 147.499 117.76C148.046 118.453 148.812 118.8 149.799 118.8ZM159.078 108.08C158.718 108.08 158.425 107.973 158.198 107.76C157.985 107.533 157.878 107.24 157.878 106.88C157.878 106.52 157.985 106.233 158.198 106.02C158.425 105.793 158.718 105.68 159.078 105.68C159.438 105.68 159.725 105.793 159.938 106.02C160.165 106.233 160.278 106.52 160.278 106.88C160.278 107.24 160.165 107.533 159.938 107.76C159.725 107.973 159.438 108.08 159.078 108.08ZM159.878 110V120H158.278V110H159.878ZM163.59 124.2V110H164.99L165.13 112.44L164.91 112.16C165.084 111.693 165.344 111.287 165.69 110.94C166.037 110.58 166.457 110.3 166.95 110.1C167.444 109.9 167.977 109.8 168.55 109.8C169.364 109.8 170.11 110.007 170.79 110.42C171.484 110.833 172.037 111.427 172.45 112.2C172.864 112.973 173.07 113.907 173.07 115C173.07 116.08 172.857 117.013 172.43 117.8C172.017 118.573 171.464 119.167 170.77 119.58C170.077 119.993 169.317 120.2 168.49 120.2C167.664 120.2 166.937 120 166.31 119.6C165.697 119.187 165.257 118.667 164.99 118.04L165.19 117.74V124.2H163.59ZM168.33 118.8C169.317 118.8 170.084 118.453 170.63 117.76C171.19 117.067 171.47 116.147 171.47 115C171.47 113.853 171.197 112.933 170.65 112.24C170.117 111.547 169.364 111.2 168.39 111.2C167.75 111.2 167.19 111.36 166.71 111.68C166.23 111.987 165.857 112.427 165.59 113C165.324 113.56 165.19 114.227 165.19 115C165.19 115.76 165.317 116.427 165.57 117C165.837 117.573 166.204 118.02 166.67 118.34C167.15 118.647 167.704 118.8 168.33 118.8ZM176.93 108.08C176.57 108.08 176.276 107.973 176.05 107.76C175.836 107.533 175.73 107.24 175.73 106.88C175.73 106.52 175.836 106.233 176.05 106.02C176.276 105.793 176.57 105.68 176.93 105.68C177.29 105.68 177.576 105.793 177.79 106.02C178.016 106.233 178.13 106.52 178.13 106.88C178.13 107.24 178.016 107.533 177.79 107.76C177.576 107.973 177.29 108.08 176.93 108.08ZM177.73 110V120H176.13V110H177.73ZM185.042 120.2C184.069 120.2 183.169 119.993 182.342 119.58C181.529 119.167 180.902 118.58 180.462 117.82L181.822 116.84C182.115 117.453 182.542 117.933 183.102 118.28C183.675 118.627 184.362 118.8 185.162 118.8C185.869 118.8 186.422 118.667 186.822 118.4C187.222 118.12 187.422 117.76 187.422 117.32C187.422 117.04 187.329 116.787 187.142 116.56C186.969 116.32 186.629 116.147 186.122 116.04L183.722 115.54C182.749 115.34 182.049 115.007 181.622 114.54C181.209 114.073 181.002 113.493 181.002 112.8C181.002 112.253 181.155 111.753 181.462 111.3C181.782 110.847 182.229 110.487 182.802 110.22C183.389 109.94 184.075 109.8 184.862 109.8C185.849 109.8 186.682 109.993 187.362 110.38C188.042 110.767 188.549 111.313 188.882 112.02L187.542 112.9C187.315 112.313 186.949 111.887 186.442 111.62C185.935 111.34 185.409 111.2 184.862 111.2C184.382 111.2 183.969 111.267 183.622 111.4C183.289 111.533 183.029 111.72 182.842 111.96C182.669 112.187 182.582 112.447 182.582 112.74C182.582 113.033 182.682 113.307 182.882 113.56C183.082 113.8 183.455 113.973 184.002 114.08L186.502 114.6C187.435 114.787 188.089 115.093 188.462 115.52C188.835 115.947 189.022 116.467 189.022 117.08C189.022 117.707 188.855 118.26 188.522 118.74C188.189 119.207 187.722 119.567 187.122 119.82C186.522 120.073 185.829 120.2 185.042 120.2ZM192.789 108.08C192.429 108.08 192.136 107.973 191.909 107.76C191.696 107.533 191.589 107.24 191.589 106.88C191.589 106.52 191.696 106.233 191.909 106.02C192.136 105.793 192.429 105.68 192.789 105.68C193.149 105.68 193.436 105.793 193.649 106.02C193.876 106.233 193.989 106.52 193.989 106.88C193.989 107.24 193.876 107.533 193.649 107.76C193.436 107.973 193.149 108.08 192.789 108.08ZM193.589 110V120H191.989V110H193.589ZM201.441 109.8C202.135 109.8 202.741 109.907 203.261 110.12C203.795 110.333 204.255 110.64 204.641 111.04C205.028 111.44 205.341 111.913 205.581 112.46L204.061 113.18C203.848 112.54 203.521 112.053 203.081 111.72C202.655 111.373 202.095 111.2 201.401 111.2C200.735 111.2 200.161 111.353 199.681 111.66C199.201 111.953 198.835 112.387 198.581 112.96C198.328 113.52 198.201 114.2 198.201 115C198.201 115.787 198.328 116.467 198.581 117.04C198.835 117.613 199.201 118.053 199.681 118.36C200.161 118.653 200.735 118.8 201.401 118.8C201.921 118.8 202.368 118.72 202.741 118.56C203.128 118.4 203.441 118.167 203.681 117.86C203.935 117.553 204.108 117.18 204.201 116.74L205.681 117.26C205.455 117.873 205.141 118.4 204.741 118.84C204.355 119.28 203.881 119.62 203.321 119.86C202.775 120.087 202.148 120.2 201.441 120.2C200.508 120.2 199.675 119.993 198.941 119.58C198.208 119.167 197.635 118.573 197.221 117.8C196.808 117.013 196.601 116.08 196.601 115C196.601 113.92 196.808 112.993 197.221 112.22C197.635 111.433 198.208 110.833 198.941 110.42C199.675 110.007 200.508 109.8 201.441 109.8ZM209.293 108.08C208.933 108.08 208.639 107.973 208.413 107.76C208.199 107.533 208.093 107.24 208.093 106.88C208.093 106.52 208.199 106.233 208.413 106.02C208.639 105.793 208.933 105.68 209.293 105.68C209.653 105.68 209.939 105.793 210.153 106.02C210.379 106.233 210.493 106.52 210.493 106.88C210.493 107.24 210.379 107.533 210.153 107.76C209.939 107.973 209.653 108.08 209.293 108.08ZM210.093 110V120H208.493V110H210.093ZM213.805 120V110H215.205L215.345 112.24L215.085 112.02C215.299 111.487 215.585 111.06 215.945 110.74C216.305 110.407 216.719 110.167 217.185 110.02C217.665 109.873 218.159 109.8 218.665 109.8C219.385 109.8 220.039 109.94 220.625 110.22C221.212 110.487 221.679 110.9 222.025 111.46C222.385 112.02 222.565 112.733 222.565 113.6V120H220.965V114.16C220.965 113.053 220.725 112.287 220.245 111.86C219.779 111.42 219.199 111.2 218.505 111.2C218.025 111.2 217.545 111.313 217.065 111.54C216.585 111.767 216.185 112.133 215.865 112.64C215.559 113.147 215.405 113.827 215.405 114.68V120H213.805ZM234.608 108.16L234.968 109.58C234.955 109.58 234.935 109.58 234.908 109.58C234.881 109.58 234.855 109.58 234.828 109.58C234.175 109.58 233.668 109.713 233.308 109.98C232.961 110.233 232.788 110.647 232.788 111.22L231.808 110.72C231.808 110.2 231.928 109.747 232.168 109.36C232.408 108.973 232.735 108.68 233.148 108.48C233.561 108.267 234.015 108.16 234.508 108.16C234.521 108.16 234.535 108.16 234.548 108.16C234.575 108.16 234.595 108.16 234.608 108.16ZM231.568 118.72C232.515 118.72 233.255 118.94 233.788 119.38C234.321 119.807 234.588 120.38 234.588 121.1C234.588 121.753 234.368 122.32 233.928 122.8C233.501 123.28 232.921 123.647 232.188 123.9C231.468 124.167 230.655 124.3 229.748 124.3C228.175 124.3 226.995 124.033 226.208 123.5C225.435 122.967 225.048 122.327 225.048 121.58C225.048 121.047 225.221 120.567 225.568 120.14C225.928 119.727 226.528 119.493 227.368 119.44L227.228 119.74C226.775 119.62 226.388 119.42 226.068 119.14C225.761 118.847 225.608 118.427 225.608 117.88C225.608 117.333 225.808 116.867 226.208 116.48C226.621 116.08 227.228 115.833 228.028 115.74L229.088 116.28H228.888C228.235 116.347 227.768 116.513 227.488 116.78C227.221 117.033 227.088 117.313 227.088 117.62C227.088 117.993 227.221 118.273 227.488 118.46C227.768 118.633 228.155 118.72 228.648 118.72H231.568ZM229.728 122.96C230.501 122.96 231.135 122.88 231.628 122.72C232.135 122.56 232.508 122.353 232.748 122.1C232.988 121.847 233.108 121.573 233.108 121.28C233.108 120.92 232.961 120.633 232.668 120.42C232.388 120.207 231.875 120.1 231.128 120.1H228.048C227.621 120.1 227.261 120.207 226.968 120.42C226.675 120.647 226.528 120.953 226.528 121.34C226.528 121.833 226.808 122.227 227.368 122.52C227.941 122.813 228.728 122.96 229.728 122.96ZM229.588 109.8C230.388 109.8 231.095 109.947 231.708 110.24C232.335 110.52 232.821 110.913 233.168 111.42C233.515 111.927 233.688 112.513 233.688 113.18C233.688 113.833 233.515 114.42 233.168 114.94C232.821 115.447 232.335 115.847 231.708 116.14C231.095 116.42 230.388 116.56 229.588 116.56C228.268 116.56 227.255 116.247 226.548 115.62C225.841 114.98 225.488 114.167 225.488 113.18C225.488 112.513 225.661 111.927 226.008 111.42C226.368 110.913 226.855 110.52 227.468 110.24C228.081 109.947 228.788 109.8 229.588 109.8ZM229.588 111.1C228.895 111.1 228.315 111.293 227.848 111.68C227.381 112.053 227.148 112.553 227.148 113.18C227.148 113.793 227.381 114.293 227.848 114.68C228.315 115.067 228.895 115.26 229.588 115.26C230.281 115.26 230.861 115.067 231.328 114.68C231.795 114.293 232.028 113.793 232.028 113.18C232.028 112.553 231.795 112.053 231.328 111.68C230.861 111.293 230.281 111.1 229.588 111.1ZM247.829 120.2C246.882 120.2 246.036 119.993 245.289 119.58C244.556 119.167 243.982 118.573 243.569 117.8C243.156 117.013 242.949 116.08 242.949 115C242.949 113.92 243.156 112.993 243.569 112.22C243.982 111.433 244.549 110.833 245.269 110.42C245.989 110.007 246.809 109.8 247.729 109.8C248.662 109.8 249.456 110 250.109 110.4C250.776 110.8 251.282 111.347 251.629 112.04C251.976 112.72 252.149 113.487 252.149 114.34C252.149 114.567 252.142 114.773 252.129 114.96C252.116 115.147 252.096 115.313 252.069 115.46H243.989V114.04H251.369L250.549 114.2C250.549 113.24 250.282 112.5 249.749 111.98C249.229 111.46 248.542 111.2 247.689 111.2C247.036 111.2 246.469 111.353 245.989 111.66C245.522 111.953 245.156 112.387 244.889 112.96C244.636 113.52 244.509 114.2 244.509 115C244.509 115.787 244.642 116.467 244.909 117.04C245.176 117.613 245.549 118.053 246.029 118.36C246.522 118.653 247.109 118.8 247.789 118.8C248.522 118.8 249.116 118.66 249.569 118.38C250.036 118.1 250.409 117.72 250.689 117.24L251.949 117.98C251.696 118.433 251.369 118.827 250.969 119.16C250.582 119.493 250.122 119.753 249.589 119.94C249.069 120.113 248.482 120.2 247.829 120.2ZM256.712 105.4V117.46C256.712 117.967 256.805 118.32 256.992 118.52C257.179 118.707 257.479 118.8 257.892 118.8C258.159 118.8 258.379 118.78 258.552 118.74C258.725 118.7 258.959 118.627 259.252 118.52L258.992 119.92C258.779 120.013 258.545 120.08 258.292 120.12C258.039 120.173 257.779 120.2 257.512 120.2C256.699 120.2 256.092 119.98 255.692 119.54C255.305 119.1 255.112 118.427 255.112 117.52V105.4H256.712ZM262.105 108.08C261.745 108.08 261.452 107.973 261.225 107.76C261.012 107.533 260.905 107.24 260.905 106.88C260.905 106.52 261.012 106.233 261.225 106.02C261.452 105.793 261.745 105.68 262.105 105.68C262.465 105.68 262.752 105.793 262.965 106.02C263.192 106.233 263.305 106.52 263.305 106.88C263.305 107.24 263.192 107.533 262.965 107.76C262.752 107.973 262.465 108.08 262.105 108.08ZM262.905 110V120H261.305V110H262.905ZM268.978 107.16V117.24C268.978 117.733 269.118 118.1 269.398 118.34C269.678 118.58 270.038 118.7 270.478 118.7C270.864 118.7 271.198 118.633 271.478 118.5C271.758 118.367 272.011 118.187 272.238 117.96L272.798 119.3C272.491 119.58 272.124 119.8 271.698 119.96C271.284 120.12 270.804 120.2 270.258 120.2C269.751 120.2 269.278 120.113 268.838 119.94C268.398 119.753 268.044 119.467 267.778 119.08C267.524 118.68 267.391 118.16 267.378 117.52V107.6L268.978 107.16ZM272.618 110V111.38H265.378V110H272.618ZM275.797 117.6C276.183 117.6 276.497 117.72 276.737 117.96C276.977 118.2 277.097 118.513 277.097 118.9C277.097 119.287 276.977 119.6 276.737 119.84C276.497 120.08 276.183 120.2 275.797 120.2C275.41 120.2 275.097 120.08 274.857 119.84C274.617 119.6 274.497 119.287 274.497 118.9C274.497 118.513 274.617 118.2 274.857 117.96C275.097 117.72 275.41 117.6 275.797 117.6Z" fill="black"/>
</svg>
