<svg width="411" height="162" viewBox="0 0 411 162" fill="none" xmlns="http://www.w3.org/2000/svg">
<path d="M174.86 4.44C175.724 4.44 176.46 4.57867 177.068 4.856C177.676 5.13333 178.14 5.53333 178.46 6.056C178.78 6.57867 178.94 7.21333 178.94 7.96C178.94 8.70667 178.78 9.34133 178.46 9.864C178.14 10.3867 177.676 10.7867 177.068 11.064C176.46 11.3413 175.724 11.48 174.86 11.48H172.764V15H170.012V4.44H174.86ZM174.428 9.416C175.004 9.416 175.436 9.29867 175.724 9.064C176.022 8.81867 176.172 8.45067 176.172 7.96C176.172 7.46933 176.022 7.10667 175.724 6.872C175.436 6.62667 175.004 6.504 174.428 6.504H172.764V9.416H174.428ZM188.451 12.872H193.747V15H185.699V4.44H188.451V12.872ZM209.924 15H207.092L206.356 12.616H202.74L201.988 15H199.22L202.932 4.44H206.228L209.924 15ZM203.252 10.744H205.844L204.548 6.472L203.252 10.744ZM225.672 4.44V15H222.616L219.336 9.288L218.536 7.72H218.52L218.584 9.672V15H216.152V4.44H219.208L222.488 10.152L223.288 11.72H223.304L223.24 9.768V4.44H225.672ZM237.14 4.28C238.121 4.28 238.985 4.43467 239.732 4.744C240.489 5.04267 241.145 5.48533 241.7 6.072L240.372 7.848C239.913 7.368 239.417 7.01067 238.884 6.776C238.361 6.53067 237.764 6.408 237.092 6.408C236.697 6.408 236.377 6.45067 236.132 6.536C235.886 6.62133 235.71 6.73867 235.604 6.888C235.497 7.03733 235.444 7.208 235.444 7.4C235.444 7.624 235.545 7.816 235.748 7.976C235.961 8.12533 236.302 8.25333 236.772 8.36L238.548 8.76C239.604 9.00533 240.377 9.36267 240.868 9.832C241.358 10.3013 241.604 10.9253 241.604 11.704C241.604 12.4507 241.412 13.0853 241.028 13.608C240.644 14.12 240.116 14.5093 239.444 14.776C238.772 15.032 238.004 15.16 237.14 15.16C236.436 15.16 235.764 15.0853 235.124 14.936C234.484 14.776 233.908 14.552 233.396 14.264C232.884 13.976 232.452 13.6453 232.1 13.272L233.428 11.432C233.694 11.7413 234.02 12.0187 234.404 12.264C234.798 12.4987 235.225 12.6853 235.684 12.824C236.153 12.9627 236.628 13.032 237.108 13.032C237.481 13.032 237.79 12.9947 238.036 12.92C238.292 12.8453 238.478 12.7333 238.596 12.584C238.713 12.4347 238.772 12.2587 238.772 12.056C238.772 11.832 238.692 11.6453 238.532 11.496C238.372 11.336 238.068 11.2027 237.62 11.096L235.668 10.664C235.07 10.5253 234.537 10.344 234.068 10.12C233.609 9.88533 233.246 9.576 232.98 9.192C232.713 8.79733 232.58 8.30667 232.58 7.72C232.58 7.05867 232.761 6.472 233.124 5.96C233.486 5.43733 234.009 5.02667 234.692 4.728C235.374 4.42933 236.19 4.28 237.14 4.28Z" fill="#74C69D"/>
<path d="M100.734 69.5234C98.2604 66.9193 97.0234 63.8073 97.0234 60.1875C97.0234 58.3646 97.349 56.6589 98 55.0703C98.651 53.4557 99.5495 52.0495 100.695 50.8516C101.867 49.6276 103.208 48.6771 104.719 48C106.229 47.2969 107.844 46.9453 109.562 46.9453C111.281 46.9453 112.896 47.2969 114.406 48C115.943 48.6771 117.284 49.6276 118.43 50.8516C119.576 52.0495 120.474 53.4557 121.125 55.0703C121.802 56.6589 122.141 58.3646 122.141 60.1875C122.141 63.8073 120.904 66.9193 118.43 69.5234C116.737 71.2943 114.836 72.4661 112.727 73.0391C110.617 73.638 108.508 73.638 106.398 73.0391C104.315 72.4661 102.427 71.2943 100.734 69.5234ZM110.188 71.2031C111.49 71.2031 112.57 70.7474 113.43 69.8359C114.315 68.9245 114.966 67.7005 115.383 66.1641C115.826 64.6016 116.047 62.8568 116.047 60.9297C116.047 59.4974 115.93 58.1302 115.695 56.8281C115.487 55.526 115.135 54.276 114.641 53.0781C114.146 51.8542 113.417 50.8906 112.453 50.1875C111.49 49.4844 110.331 49.1328 108.977 49.1328C107.596 49.1328 106.451 49.6276 105.539 50.6172C104.628 51.6328 103.99 52.8698 103.625 54.3281C103.286 55.7865 103.117 57.4531 103.117 59.3281C103.117 61.9844 103.625 64.5495 104.641 67.0234C105.161 68.2734 105.891 69.2891 106.828 70.0703C107.792 70.8255 108.911 71.2031 110.188 71.2031ZM138.391 73.1953C138.234 73.1953 138.156 72.9609 138.156 72.4922V71.0469C138.156 70.8385 138.104 70.7865 138 70.8906C137.453 71.4635 136.646 71.9844 135.578 72.4531C134.536 72.9219 133.404 73.1562 132.18 73.1562C131.164 73.1562 130.266 72.8438 129.484 72.2188C128.729 71.5938 128.143 70.7604 127.727 69.7188C127.31 68.651 127.102 67.4792 127.102 66.2031V62.4141C127.102 60.9557 126.867 59.9792 126.398 59.4844C126.19 59.224 125.904 59.0417 125.539 58.9375C125.201 58.8333 124.901 58.7682 124.641 58.7422C124.38 58.6901 124.25 58.638 124.25 58.5859C124.25 57.6745 124.315 57.2188 124.445 57.2188C124.68 57.2188 125.109 57.1667 125.734 57.0625C126.385 56.9583 127.089 56.8411 127.844 56.7109C128.599 56.5547 129.315 56.3984 129.992 56.2422C130.695 56.0599 131.229 55.9167 131.594 55.8125C131.672 55.7865 131.737 55.7604 131.789 55.7344C131.867 55.7083 131.945 55.6953 132.023 55.6953C132.154 55.6953 132.284 55.7865 132.414 55.9688C132.544 56.125 132.609 56.2552 132.609 56.3594C132.479 57.5052 132.375 58.4036 132.297 59.0547C132.219 59.7057 132.18 60.1094 132.18 60.2656V64.4453C132.18 66.4766 132.44 67.9089 132.961 68.7422C133.482 69.5495 134.354 69.9531 135.578 69.9531C136.464 69.9531 137.128 69.7578 137.57 69.3672C138.013 68.9505 138.234 68.4948 138.234 68V62.4141C138.234 60.9557 138 59.9792 137.531 59.4844C137.323 59.224 137.036 59.0417 136.672 58.9375C136.333 58.8333 136.034 58.7682 135.773 58.7422C135.513 58.6901 135.383 58.638 135.383 58.5859C135.383 57.6745 135.448 57.2188 135.578 57.2188C135.812 57.2188 136.242 57.1667 136.867 57.0625C137.518 56.9583 138.221 56.8411 138.977 56.7109C139.732 56.5547 140.448 56.3984 141.125 56.2422C141.828 56.0599 142.362 55.9167 142.727 55.8125L143.156 55.6953C143.286 55.6953 143.417 55.7865 143.547 55.9688C143.677 56.125 143.742 56.2552 143.742 56.3594C143.612 57.5052 143.508 58.4036 143.43 59.0547C143.352 59.7057 143.312 60.0964 143.312 60.2266V67.8828C143.312 69.263 143.443 70.0833 143.703 70.3438C143.833 70.474 144.042 70.5781 144.328 70.6562C144.615 70.7083 144.901 70.7344 145.188 70.7344H145.578C145.682 70.7604 145.734 70.8646 145.734 71.0469C145.734 71.8021 145.656 72.1797 145.5 72.1797C143.885 72.3359 142.531 72.4922 141.438 72.6484C140.37 72.8047 139.536 72.9479 138.938 73.0781L138.391 73.1953ZM147.922 73.1562C147.818 73.0521 147.766 72.7786 147.766 72.3359C147.766 71.9193 147.818 71.7109 147.922 71.7109C148.13 71.7109 148.43 71.6589 148.82 71.5547C149.211 71.4245 149.576 71.2812 149.914 71.125C150.253 70.9688 150.435 70.8385 150.461 70.7344C150.643 70.0052 150.734 69.0156 150.734 67.7656V62.4141C150.734 60.9557 150.5 59.9792 150.031 59.4844C149.823 59.224 149.536 59.0417 149.172 58.9375C148.833 58.8333 148.534 58.7682 148.273 58.7422C148.013 58.6901 147.883 58.638 147.883 58.5859C147.883 57.6745 147.948 57.2188 148.078 57.2188C148.755 57.2188 149.693 57.0755 150.891 56.7891C152.115 56.4766 153.404 56.1771 154.758 55.8906L155.656 55.6953C155.786 55.6953 155.917 55.7865 156.047 55.9688C156.177 56.125 156.242 56.2552 156.242 56.3594C156.216 56.5156 156.177 56.8281 156.125 57.2969C156.099 57.7656 156.073 58.026 156.047 58.0781C157.349 56.3854 158.82 55.5391 160.461 55.5391C161.633 55.5391 162.753 56.0208 163.82 56.9844C163.82 58.3385 163.651 59.3411 163.312 59.9922C163 60.6432 162.414 60.9688 161.555 60.9688C161.034 60.9688 160.435 60.6693 159.758 60.0703C159.081 59.4714 158.482 59.1719 157.961 59.1719C157.44 59.1719 157.023 59.3802 156.711 59.7969C156.398 60.1875 156.164 60.6953 156.008 61.3203C155.878 61.9453 155.812 62.5964 155.812 63.2734V67.2188C155.812 68.9115 155.904 70.0833 156.086 70.7344C156.138 70.8385 156.32 70.9688 156.633 71.125C156.945 71.2812 157.284 71.4245 157.648 71.5547C158.013 71.6589 158.26 71.7109 158.391 71.7109C158.443 71.7109 158.482 71.8151 158.508 72.0234C158.534 72.2318 158.547 72.4531 158.547 72.6875C158.547 72.9219 158.521 73.0781 158.469 73.1562C158.26 73.1302 157.818 73.0911 157.141 73.0391C156.464 73.013 155.747 72.974 154.992 72.9219C154.263 72.8698 153.69 72.8438 153.273 72.8438C152.961 72.8438 152.531 72.8568 151.984 72.8828C151.464 72.9089 150.917 72.9479 150.344 73C149.771 73.026 149.263 73.0521 148.82 73.0781C148.378 73.1302 148.078 73.1562 147.922 73.1562ZM182.336 73.3906C181.294 73.3906 180.161 73.2995 178.938 73.1172C177.714 72.9609 176.372 72.7135 174.914 72.375C174.784 71.8021 174.641 71.0859 174.484 70.2266C174.354 69.3672 174.237 68.5339 174.133 67.7266C174.055 66.8932 174.016 66.2812 174.016 65.8906C174.094 65.6302 174.328 65.5 174.719 65.5C175.526 65.5 175.943 65.5781 175.969 65.7344C176.125 66.5156 176.477 67.3359 177.023 68.1953C177.57 69.0286 178.234 69.7318 179.016 70.3047C179.823 70.8776 180.669 71.1641 181.555 71.1641C184.133 71.1641 185.422 69.7448 185.422 66.9062C185.422 66.151 185.122 65.4609 184.523 64.8359C183.951 64.2109 183.273 63.651 182.492 63.1562C181.737 62.6615 181.086 62.2318 180.539 61.8672L179.367 61.0859C178.482 60.487 177.648 59.875 176.867 59.25C176.086 58.599 175.448 57.8568 174.953 57.0234C174.484 56.1641 174.25 55.1224 174.25 53.8984C174.25 52.5703 174.654 51.3724 175.461 50.3047C176.268 49.237 177.31 48.3906 178.586 47.7656C179.862 47.1406 181.19 46.8281 182.57 46.8281C183.117 46.8281 183.677 46.8672 184.25 46.9453C184.849 47.0234 185.357 47.1016 185.773 47.1797C186.555 47.3359 187.219 47.4922 187.766 47.6484C188.339 47.7786 188.794 47.8698 189.133 47.9219C189.263 49.1979 189.367 50.3698 189.445 51.4375C189.523 52.5052 189.562 53.4948 189.562 54.4062C189.458 54.6667 189.263 54.7969 188.977 54.7969C188.195 54.7969 187.792 54.7057 187.766 54.5234C187.661 53.638 187.375 52.7786 186.906 51.9453C186.438 51.112 185.839 50.4219 185.109 49.875C184.38 49.3021 183.547 49.0156 182.609 49.0156C181.724 49.0156 180.969 49.2891 180.344 49.8359C179.745 50.3828 179.445 51.2552 179.445 52.4531C179.445 53.5208 179.914 54.4583 180.852 55.2656C181.815 56.0729 183.052 56.9583 184.562 57.9219L186.555 59.1719C187.284 59.6146 187.974 60.1094 188.625 60.6562C189.276 61.1771 189.81 61.8672 190.227 62.7266C190.643 63.5599 190.852 64.7057 190.852 66.1641C190.852 67.5443 190.448 68.7812 189.641 69.875C188.859 70.9688 187.818 71.8281 186.516 72.4531C185.24 73.0781 183.846 73.3906 182.336 73.3906ZM201.281 73.2734C199.693 73.2734 198.221 72.8698 196.867 72.0625C195.539 71.2552 194.471 70.1745 193.664 68.8203C192.883 67.4661 192.492 65.9818 192.492 64.3672C192.492 62.7005 192.844 61.2031 193.547 59.875C194.276 58.5469 195.279 57.4922 196.555 56.7109C197.831 55.9297 199.302 55.5391 200.969 55.5391C202.609 55.5391 204.003 55.9297 205.148 56.7109C206.32 57.4661 207.206 58.4167 207.805 59.5625C208.43 60.6823 208.742 61.8151 208.742 62.9609C208.742 63.5599 208.612 63.9505 208.352 64.1328C208.117 64.3151 207.635 64.4062 206.906 64.4062H198.078C197.922 64.4062 197.844 64.4974 197.844 64.6797C197.844 65.6172 198.013 66.5026 198.352 67.3359C198.716 68.1693 199.237 68.8464 199.914 69.3672C200.617 69.888 201.464 70.1484 202.453 70.1484C203.339 70.1484 204.159 70.0182 204.914 69.7578C205.435 69.6016 205.839 69.4583 206.125 69.3281C206.411 69.1979 206.672 69.0547 206.906 68.8984C207.167 68.7161 207.466 68.4948 207.805 68.2344C208.039 68.3385 208.156 68.5859 208.156 68.9766C208.156 69.3151 208.104 69.5755 208 69.7578C207.844 70.1745 207.427 70.6562 206.75 71.2031C206.099 71.75 205.292 72.2318 204.328 72.6484C203.391 73.0651 202.375 73.2734 201.281 73.2734ZM198.117 62.2578H203.078C203.443 62.2578 203.625 62.0104 203.625 61.5156C203.625 60.526 203.352 59.6406 202.805 58.8594C202.284 58.0781 201.607 57.6875 200.773 57.6875C200.018 57.6875 199.419 57.9609 198.977 58.5078C198.56 59.0286 198.26 59.6146 198.078 60.2656C197.922 60.9167 197.844 61.4505 197.844 61.8672C197.844 62.1276 197.935 62.2578 198.117 62.2578ZM211.125 73.1562C211.021 73.0521 210.969 72.7786 210.969 72.3359C210.969 71.9193 211.021 71.7109 211.125 71.7109C211.333 71.7109 211.633 71.6589 212.023 71.5547C212.414 71.4245 212.779 71.2812 213.117 71.125C213.456 70.9688 213.638 70.8385 213.664 70.7344C213.846 70.0052 213.938 69.0156 213.938 67.7656V62.4141C213.938 60.9557 213.703 59.9792 213.234 59.4844C213.026 59.224 212.74 59.0417 212.375 58.9375C212.036 58.8333 211.737 58.7682 211.477 58.7422C211.216 58.6901 211.086 58.638 211.086 58.5859C211.086 57.6745 211.151 57.2188 211.281 57.2188C211.958 57.2188 212.896 57.0755 214.094 56.7891C215.318 56.4766 216.607 56.1771 217.961 55.8906L218.859 55.6953C218.99 55.6953 219.12 55.7865 219.25 55.9688C219.38 56.125 219.445 56.2552 219.445 56.3594C219.419 56.5156 219.38 56.8281 219.328 57.2969C219.302 57.7656 219.276 58.026 219.25 58.0781C220.552 56.3854 222.023 55.5391 223.664 55.5391C224.836 55.5391 225.956 56.0208 227.023 56.9844C227.023 58.3385 226.854 59.3411 226.516 59.9922C226.203 60.6432 225.617 60.9688 224.758 60.9688C224.237 60.9688 223.638 60.6693 222.961 60.0703C222.284 59.4714 221.685 59.1719 221.164 59.1719C220.643 59.1719 220.227 59.3802 219.914 59.7969C219.602 60.1875 219.367 60.6953 219.211 61.3203C219.081 61.9453 219.016 62.5964 219.016 63.2734V67.2188C219.016 68.9115 219.107 70.0833 219.289 70.7344C219.341 70.8385 219.523 70.9688 219.836 71.125C220.148 71.2812 220.487 71.4245 220.852 71.5547C221.216 71.6589 221.464 71.7109 221.594 71.7109C221.646 71.7109 221.685 71.8151 221.711 72.0234C221.737 72.2318 221.75 72.4531 221.75 72.6875C221.75 72.9219 221.724 73.0781 221.672 73.1562C221.464 73.1302 221.021 73.0911 220.344 73.0391C219.667 73.013 218.951 72.974 218.195 72.9219C217.466 72.8698 216.893 72.8438 216.477 72.8438C216.164 72.8438 215.734 72.8568 215.188 72.8828C214.667 72.9089 214.12 72.9479 213.547 73C212.974 73.026 212.466 73.0521 212.023 73.0781C211.581 73.1302 211.281 73.1562 211.125 73.1562ZM239.055 73.4297C238.768 73.4297 238.56 73.3255 238.43 73.1172L231.945 58.5078C231.711 57.987 231.294 57.6354 230.695 57.4531C230.096 57.2448 229.602 57.1406 229.211 57.1406C229.107 57.1406 229.055 56.8802 229.055 56.3594C229.055 56.0208 229.107 55.7995 229.211 55.6953C229.367 55.6953 229.667 55.7214 230.109 55.7734C230.552 55.7995 231.06 55.8385 231.633 55.8906C232.232 55.9167 232.792 55.9427 233.312 55.9688C233.833 55.9948 234.25 56.0078 234.562 56.0078C234.901 56.0078 235.318 55.9948 235.812 55.9688C236.333 55.9427 236.958 55.9036 237.688 55.8516C238.391 55.7995 238.951 55.7604 239.367 55.7344C239.784 55.7083 240.044 55.6953 240.148 55.6953C240.253 55.7995 240.305 56.0599 240.305 56.4766C240.305 56.9193 240.253 57.1406 240.148 57.1406C239.888 57.1406 239.549 57.1927 239.133 57.2969C238.716 57.375 238.339 57.5052 238 57.6875C237.661 57.8438 237.492 58.0521 237.492 58.3125C237.492 58.4948 237.531 58.6901 237.609 58.8984L240.656 66.125L243.742 59.6406C244.107 58.8594 244.12 58.2995 243.781 57.9609C243.234 57.4141 242.375 57.1406 241.203 57.1406C241.125 57.0885 241.086 56.8802 241.086 56.5156C241.086 56.1771 241.112 55.9036 241.164 55.6953L243.312 55.8516C243.833 55.9036 244.289 55.9427 244.68 55.9688C245.07 55.9948 245.409 56.0078 245.695 56.0078C246.008 56.0078 246.359 55.9948 246.75 55.9688C247.167 55.9167 247.622 55.8776 248.117 55.8516L250.188 55.6953C250.292 55.7995 250.344 56.0208 250.344 56.3594C250.344 56.8802 250.292 57.1406 250.188 57.1406C249.927 57.1406 249.589 57.2057 249.172 57.3359C248.755 57.4661 248.352 57.6484 247.961 57.8828C247.57 58.0911 247.284 58.3646 247.102 58.7031L240.227 72.2969C239.836 73.0521 239.445 73.4297 239.055 73.4297ZM252.648 73.1562C252.544 73.0521 252.492 72.8047 252.492 72.4141C252.492 72.0234 252.544 71.8281 252.648 71.8281C252.857 71.8281 253.13 71.776 253.469 71.6719C253.807 71.5677 254.133 71.4375 254.445 71.2812C254.758 71.125 254.927 70.9818 254.953 70.8516C255.135 70.1224 255.227 69.1328 255.227 67.8828V62.1797C255.227 60.7214 254.992 59.7448 254.523 59.25C254.315 58.9896 254.029 58.8073 253.664 58.7031C253.326 58.599 253.026 58.5339 252.766 58.5078C252.505 58.4557 252.375 58.4036 252.375 58.3516C252.375 57.5964 252.44 57.2188 252.57 57.2188C252.805 57.2188 253.234 57.1667 253.859 57.0625C254.484 56.9583 255.174 56.8281 255.93 56.6719C256.711 56.5156 257.44 56.3594 258.117 56.2031C258.82 56.0469 259.354 55.9167 259.719 55.8125L260.148 55.6953C260.279 55.6953 260.409 55.7865 260.539 55.9688C260.669 56.125 260.734 56.2552 260.734 56.3594C260.604 57.5052 260.5 58.4036 260.422 59.0547C260.344 59.7057 260.305 60.1094 260.305 60.2656V67.2969C260.305 68.7812 260.409 69.9661 260.617 70.8516C260.669 70.9557 260.839 71.0859 261.125 71.2422C261.438 71.3984 261.763 71.5417 262.102 71.6719C262.44 71.776 262.674 71.8281 262.805 71.8281C262.883 71.8281 262.922 72.0234 262.922 72.4141C262.948 72.8047 262.935 73.0521 262.883 73.1562C262.674 73.1302 262.232 73.0911 261.555 73.0391C260.904 73.013 260.214 72.974 259.484 72.9219C258.755 72.8698 258.182 72.8438 257.766 72.8438C257.349 72.8438 256.776 72.8698 256.047 72.9219C255.318 72.974 254.628 73.013 253.977 73.0391C253.326 73.0911 252.883 73.1302 252.648 73.1562ZM257.57 51.8281C256.763 51.8281 256.073 51.5547 255.5 51.0078C254.953 50.4349 254.68 49.7448 254.68 48.9375C254.68 48.1302 254.953 47.4531 255.5 46.9062C256.073 46.3333 256.763 46.0469 257.57 46.0469C258.378 46.0469 259.055 46.3333 259.602 46.9062C260.174 47.4531 260.461 48.1302 260.461 48.9375C260.461 49.7448 260.174 50.4349 259.602 51.0078C259.055 51.5547 258.378 51.8281 257.57 51.8281ZM274.016 73.2734C272.349 73.2734 270.852 72.8698 269.523 72.0625C268.195 71.2552 267.141 70.1615 266.359 68.7812C265.578 67.401 265.188 65.8646 265.188 64.1719C265.188 62.5573 265.604 61.099 266.438 59.7969C267.271 58.4948 268.391 57.4661 269.797 56.7109C271.229 55.9297 272.805 55.5391 274.523 55.5391C275.852 55.5391 277.076 55.7734 278.195 56.2422C279.315 56.6849 280.122 57.2188 280.617 57.8438C280.617 60.2396 279.914 61.4375 278.508 61.4375C277.492 61.4375 276.724 60.7865 276.203 59.4844C275.969 58.8854 275.669 58.4427 275.305 58.1562C274.966 57.8438 274.484 57.6875 273.859 57.6875C271.776 57.6875 270.734 59.6406 270.734 63.5469C270.734 67.9479 272.206 70.1484 275.148 70.1484C276.034 70.1484 276.854 70.0182 277.609 69.7578C278.13 69.6016 278.534 69.4583 278.82 69.3281C279.107 69.1979 279.367 69.0547 279.602 68.8984C279.862 68.7161 280.161 68.4948 280.5 68.2344C280.734 68.3385 280.852 68.5859 280.852 68.9766C280.852 69.3151 280.799 69.5755 280.695 69.7578C280.539 70.1745 280.135 70.6693 279.484 71.2422C278.833 71.7891 278.026 72.2708 277.062 72.6875C276.125 73.0781 275.109 73.2734 274.016 73.2734ZM291.203 73.2734C289.615 73.2734 288.143 72.8698 286.789 72.0625C285.461 71.2552 284.393 70.1745 283.586 68.8203C282.805 67.4661 282.414 65.9818 282.414 64.3672C282.414 62.7005 282.766 61.2031 283.469 59.875C284.198 58.5469 285.201 57.4922 286.477 56.7109C287.753 55.9297 289.224 55.5391 290.891 55.5391C292.531 55.5391 293.924 55.9297 295.07 56.7109C296.242 57.4661 297.128 58.4167 297.727 59.5625C298.352 60.6823 298.664 61.8151 298.664 62.9609C298.664 63.5599 298.534 63.9505 298.273 64.1328C298.039 64.3151 297.557 64.4062 296.828 64.4062H288C287.844 64.4062 287.766 64.4974 287.766 64.6797C287.766 65.6172 287.935 66.5026 288.273 67.3359C288.638 68.1693 289.159 68.8464 289.836 69.3672C290.539 69.888 291.385 70.1484 292.375 70.1484C293.26 70.1484 294.081 70.0182 294.836 69.7578C295.357 69.6016 295.76 69.4583 296.047 69.3281C296.333 69.1979 296.594 69.0547 296.828 68.8984C297.089 68.7161 297.388 68.4948 297.727 68.2344C297.961 68.3385 298.078 68.5859 298.078 68.9766C298.078 69.3151 298.026 69.5755 297.922 69.7578C297.766 70.1745 297.349 70.6562 296.672 71.2031C296.021 71.75 295.214 72.2318 294.25 72.6484C293.312 73.0651 292.297 73.2734 291.203 73.2734ZM288.039 62.2578H293C293.365 62.2578 293.547 62.0104 293.547 61.5156C293.547 60.526 293.273 59.6406 292.727 58.8594C292.206 58.0781 291.529 57.6875 290.695 57.6875C289.94 57.6875 289.341 57.9609 288.898 58.5078C288.482 59.0286 288.182 59.6146 288 60.2656C287.844 60.9167 287.766 61.4505 287.766 61.8672C287.766 62.1276 287.857 62.2578 288.039 62.2578ZM306.984 73.3906C306.385 73.3906 305.721 73.3255 304.992 73.1953C304.263 73.0651 303.586 72.8828 302.961 72.6484C302.336 72.4141 301.854 72.1667 301.516 71.9062C301.203 70.1094 301.047 68.5208 301.047 67.1406C301.177 67.0625 301.372 67.0234 301.633 67.0234C302.466 67.0234 302.896 67.1406 302.922 67.375C303.365 69.9531 304.771 71.2422 307.141 71.2422C307.766 71.2422 308.286 71.099 308.703 70.8125C309.12 70.526 309.328 70.0964 309.328 69.5234C309.328 68.9766 309.107 68.5078 308.664 68.1172C308.221 67.7266 307.701 67.375 307.102 67.0625C306.503 66.75 305.956 66.4635 305.461 66.2031C303.951 65.474 302.831 64.6797 302.102 63.8203C301.372 62.9349 301.008 61.8542 301.008 60.5781C301.008 59.3802 301.32 58.4167 301.945 57.6875C302.57 56.9323 303.404 56.3724 304.445 56.0078C305.487 55.6432 306.607 55.4609 307.805 55.4609C310.07 55.4609 311.763 55.7214 312.883 56.2422C313.143 57.388 313.273 59.0026 313.273 61.0859C313.273 61.3203 313.104 61.4375 312.766 61.4375C311.958 61.4375 311.529 61.3333 311.477 61.125C311.242 60.0312 310.839 59.1719 310.266 58.5469C309.719 57.9219 308.833 57.6094 307.609 57.6094C307.036 57.6094 306.568 57.7526 306.203 58.0391C305.839 58.2995 305.656 58.6901 305.656 59.2109C305.656 59.8099 305.917 60.3307 306.438 60.7734C306.958 61.1901 307.727 61.6458 308.742 62.1406C309.602 62.5312 310.435 62.987 311.242 63.5078C312.049 64.0026 312.701 64.6276 313.195 65.3828C313.716 66.112 313.977 67.0365 313.977 68.1562C313.977 69.875 313.312 71.1771 311.984 72.0625C310.682 72.9479 309.016 73.3906 306.984 73.3906Z" fill="black"/>
<path d="M4.22094 119.5H11.7809V121H2.62094V107.8H4.22094V119.5ZM18.1211 110.8C19.0678 110.8 19.9011 111.007 20.6211 111.42C21.3544 111.833 21.9278 112.433 22.3411 113.22C22.7544 113.993 22.9611 114.92 22.9611 116C22.9611 117.08 22.7544 118.013 22.3411 118.8C21.9278 119.573 21.3544 120.167 20.6211 120.58C19.9011 120.993 19.0678 121.2 18.1211 121.2C17.1878 121.2 16.3544 120.993 15.6211 120.58C14.8878 120.167 14.3144 119.573 13.9011 118.8C13.4878 118.013 13.2811 117.08 13.2811 116C13.2811 114.92 13.4878 113.993 13.9011 113.22C14.3144 112.433 14.8878 111.833 15.6211 111.42C16.3544 111.007 17.1878 110.8 18.1211 110.8ZM18.1211 112.18C17.4411 112.18 16.8611 112.333 16.3811 112.64C15.9011 112.947 15.5278 113.387 15.2611 113.96C15.0078 114.52 14.8811 115.2 14.8811 116C14.8811 116.787 15.0078 117.467 15.2611 118.04C15.5278 118.613 15.9011 119.053 16.3811 119.36C16.8611 119.667 17.4411 119.82 18.1211 119.82C18.8011 119.82 19.3811 119.667 19.8611 119.36C20.3411 119.053 20.7078 118.613 20.9611 118.04C21.2278 117.467 21.3611 116.787 21.3611 116C21.3611 115.2 21.2278 114.52 20.9611 113.96C20.7078 113.387 20.3411 112.947 19.8611 112.64C19.3811 112.333 18.8011 112.18 18.1211 112.18ZM25.9733 121V111H27.2733L27.4933 112.64C27.7733 112.027 28.1799 111.567 28.7133 111.26C29.2599 110.953 29.9199 110.8 30.6933 110.8C30.8666 110.8 31.0533 110.813 31.2533 110.84C31.4666 110.867 31.6466 110.92 31.7933 111L31.5133 112.46C31.3666 112.407 31.2066 112.367 31.0333 112.34C30.8599 112.313 30.6133 112.3 30.2933 112.3C29.8799 112.3 29.4599 112.42 29.0333 112.66C28.6199 112.9 28.2733 113.267 27.9933 113.76C27.7133 114.24 27.5733 114.853 27.5733 115.6V121H25.9733ZM38.0048 121.2C37.0582 121.2 36.2115 120.993 35.4648 120.58C34.7315 120.167 34.1582 119.573 33.7448 118.8C33.3315 118.013 33.1248 117.08 33.1248 116C33.1248 114.92 33.3315 113.993 33.7448 113.22C34.1582 112.433 34.7248 111.833 35.4448 111.42C36.1648 111.007 36.9848 110.8 37.9048 110.8C38.8382 110.8 39.6315 111 40.2848 111.4C40.9515 111.8 41.4582 112.347 41.8048 113.04C42.1515 113.72 42.3248 114.487 42.3248 115.34C42.3248 115.567 42.3182 115.773 42.3048 115.96C42.2915 116.147 42.2715 116.313 42.2448 116.46H34.1648V115.04H41.5448L40.7248 115.2C40.7248 114.24 40.4582 113.5 39.9248 112.98C39.4048 112.46 38.7182 112.2 37.8648 112.2C37.2115 112.2 36.6448 112.353 36.1648 112.66C35.6982 112.953 35.3315 113.387 35.0648 113.96C34.8115 114.52 34.6848 115.2 34.6848 116C34.6848 116.787 34.8182 117.467 35.0848 118.04C35.3515 118.613 35.7248 119.053 36.2048 119.36C36.6982 119.653 37.2848 119.8 37.9648 119.8C38.6982 119.8 39.2915 119.66 39.7448 119.38C40.2115 119.1 40.5848 118.72 40.8648 118.24L42.1248 118.98C41.8715 119.433 41.5448 119.827 41.1448 120.16C40.7582 120.493 40.2982 120.753 39.7648 120.94C39.2448 121.113 38.6582 121.2 38.0048 121.2ZM45.3678 121V111H46.7678L46.8678 112.56C47.2278 111.947 47.6945 111.5 48.2678 111.22C48.8545 110.94 49.4545 110.8 50.0678 110.8C50.7745 110.8 51.4411 110.96 52.0678 111.28C52.6945 111.6 53.1745 112.093 53.5078 112.76C53.7211 112.307 54.0211 111.94 54.4078 111.66C54.7945 111.367 55.2145 111.153 55.6678 111.02C56.1345 110.873 56.5745 110.8 56.9878 110.8C57.6278 110.8 58.2345 110.933 58.8078 111.2C59.3945 111.467 59.8745 111.88 60.2478 112.44C60.6211 113 60.8078 113.72 60.8078 114.6V121H59.2078V114.76C59.2078 113.853 58.9811 113.2 58.5278 112.8C58.0745 112.4 57.5145 112.2 56.8478 112.2C56.3278 112.2 55.8411 112.327 55.3878 112.58C54.9345 112.833 54.5678 113.207 54.2878 113.7C54.0211 114.193 53.8878 114.8 53.8878 115.52V121H52.2878V114.76C52.2878 113.853 52.0611 113.2 51.6078 112.8C51.1545 112.4 50.5945 112.2 49.9278 112.2C49.4878 112.2 49.0345 112.32 48.5678 112.56C48.1145 112.787 47.7345 113.153 47.4278 113.66C47.1211 114.167 46.9678 114.833 46.9678 115.66V121H45.3678ZM72.0467 109.08C71.6867 109.08 71.3934 108.973 71.1667 108.76C70.9534 108.533 70.8467 108.24 70.8467 107.88C70.8467 107.52 70.9534 107.233 71.1667 107.02C71.3934 106.793 71.6867 106.68 72.0467 106.68C72.4067 106.68 72.6934 106.793 72.9067 107.02C73.1334 107.233 73.2467 107.52 73.2467 107.88C73.2467 108.24 73.1334 108.533 72.9067 108.76C72.6934 108.973 72.4067 109.08 72.0467 109.08ZM72.8467 111V121H71.2467V111H72.8467ZM76.5592 125.2V111H77.9592L78.0992 113.44L77.8792 113.16C78.0526 112.693 78.3126 112.287 78.6592 111.94C79.0059 111.58 79.4259 111.3 79.9192 111.1C80.4126 110.9 80.9459 110.8 81.5192 110.8C82.3326 110.8 83.0792 111.007 83.7592 111.42C84.4526 111.833 85.0059 112.427 85.4192 113.2C85.8326 113.973 86.0392 114.907 86.0392 116C86.0392 117.08 85.8259 118.013 85.3992 118.8C84.9859 119.573 84.4326 120.167 83.7392 120.58C83.0459 120.993 82.2859 121.2 81.4592 121.2C80.6326 121.2 79.9059 121 79.2792 120.6C78.6659 120.187 78.2259 119.667 77.9592 119.04L78.1592 118.74V125.2H76.5592ZM81.2992 119.8C82.2859 119.8 83.0526 119.453 83.5992 118.76C84.1592 118.067 84.4392 117.147 84.4392 116C84.4392 114.853 84.1659 113.933 83.6192 113.24C83.0859 112.547 82.3326 112.2 81.3592 112.2C80.7192 112.2 80.1592 112.36 79.6792 112.68C79.1992 112.987 78.8259 113.427 78.5592 114C78.2926 114.56 78.1592 115.227 78.1592 116C78.1592 116.76 78.2859 117.427 78.5392 118C78.8059 118.573 79.1726 119.02 79.6392 119.34C80.1192 119.647 80.6726 119.8 81.2992 119.8ZM92.6983 121.2C91.7249 121.2 90.8249 120.993 89.9983 120.58C89.1849 120.167 88.5583 119.58 88.1183 118.82L89.4783 117.84C89.7716 118.453 90.1983 118.933 90.7583 119.28C91.3316 119.627 92.0183 119.8 92.8183 119.8C93.5249 119.8 94.0783 119.667 94.4783 119.4C94.8783 119.12 95.0783 118.76 95.0783 118.32C95.0783 118.04 94.9849 117.787 94.7983 117.56C94.6249 117.32 94.2849 117.147 93.7783 117.04L91.3783 116.54C90.4049 116.34 89.7049 116.007 89.2783 115.54C88.8649 115.073 88.6583 114.493 88.6583 113.8C88.6583 113.253 88.8116 112.753 89.1183 112.3C89.4383 111.847 89.8849 111.487 90.4583 111.22C91.0449 110.94 91.7316 110.8 92.5183 110.8C93.5049 110.8 94.3383 110.993 95.0183 111.38C95.6983 111.767 96.2049 112.313 96.5383 113.02L95.1983 113.9C94.9716 113.313 94.6049 112.887 94.0983 112.62C93.5916 112.34 93.0649 112.2 92.5183 112.2C92.0383 112.2 91.6249 112.267 91.2783 112.4C90.9449 112.533 90.6849 112.72 90.4983 112.96C90.3249 113.187 90.2383 113.447 90.2383 113.74C90.2383 114.033 90.3383 114.307 90.5383 114.56C90.7383 114.8 91.1116 114.973 91.6583 115.08L94.1583 115.6C95.0916 115.787 95.7449 116.093 96.1183 116.52C96.4916 116.947 96.6783 117.467 96.6783 118.08C96.6783 118.707 96.5116 119.26 96.1783 119.74C95.8449 120.207 95.3783 120.567 94.7783 120.82C94.1783 121.073 93.4849 121.2 92.6983 121.2ZM103.265 121.2C102.625 121.2 102.018 121.08 101.445 120.84C100.885 120.6 100.425 120.213 100.065 119.68C99.7185 119.133 99.5452 118.427 99.5452 117.56V111H101.145V117.14C101.145 118.153 101.365 118.853 101.805 119.24C102.245 119.613 102.865 119.8 103.665 119.8C104.038 119.8 104.405 119.74 104.765 119.62C105.125 119.487 105.445 119.287 105.725 119.02C106.018 118.74 106.245 118.387 106.405 117.96C106.578 117.533 106.665 117.027 106.665 116.44V111H108.265V121H106.865L106.765 119.48C106.418 120.08 105.945 120.52 105.345 120.8C104.758 121.067 104.065 121.2 103.265 121.2ZM111.989 121V111H113.389L113.489 112.56C113.849 111.947 114.316 111.5 114.889 111.22C115.476 110.94 116.076 110.8 116.689 110.8C117.396 110.8 118.062 110.96 118.689 111.28C119.316 111.6 119.796 112.093 120.129 112.76C120.342 112.307 120.642 111.94 121.029 111.66C121.416 111.367 121.836 111.153 122.289 111.02C122.756 110.873 123.196 110.8 123.609 110.8C124.249 110.8 124.856 110.933 125.429 111.2C126.016 111.467 126.496 111.88 126.869 112.44C127.242 113 127.429 113.72 127.429 114.6V121H125.829V114.76C125.829 113.853 125.602 113.2 125.149 112.8C124.696 112.4 124.136 112.2 123.469 112.2C122.949 112.2 122.462 112.327 122.009 112.58C121.556 112.833 121.189 113.207 120.909 113.7C120.642 114.193 120.509 114.8 120.509 115.52V121H118.909V114.76C118.909 113.853 118.682 113.2 118.229 112.8C117.776 112.4 117.216 112.2 116.549 112.2C116.109 112.2 115.656 112.32 115.189 112.56C114.736 112.787 114.356 113.153 114.049 113.66C113.742 114.167 113.589 114.833 113.589 115.66V121H111.989ZM131.851 118.6C132.171 118.6 132.438 118.687 132.651 118.86C132.878 119.02 133.051 119.247 133.171 119.54C133.291 119.82 133.351 120.153 133.351 120.54C133.351 120.98 133.271 121.413 133.111 121.84C132.965 122.267 132.731 122.66 132.411 123.02C132.091 123.38 131.678 123.68 131.171 123.92L130.331 123.14C130.691 123.02 131.005 122.853 131.271 122.64C131.551 122.427 131.778 122.187 131.951 121.92C132.125 121.653 132.238 121.38 132.291 121.1L132.211 121.06C132.158 121.1 132.091 121.133 132.011 121.16C131.931 121.187 131.811 121.2 131.651 121.2C131.491 121.2 131.325 121.153 131.151 121.06C130.991 120.967 130.851 120.833 130.731 120.66C130.611 120.473 130.551 120.233 130.551 119.94C130.551 119.7 130.611 119.48 130.731 119.28C130.851 119.067 131.005 118.9 131.191 118.78C131.391 118.66 131.611 118.6 131.851 118.6ZM147.08 121.2C146.254 121.2 145.494 120.993 144.8 120.58C144.107 120.167 143.554 119.573 143.14 118.8C142.727 118.013 142.52 117.08 142.52 116C142.52 114.893 142.74 113.953 143.18 113.18C143.62 112.407 144.2 111.82 144.92 111.42C145.64 111.007 146.414 110.8 147.24 110.8C148.067 110.8 148.78 111.013 149.38 111.44C149.994 111.867 150.4 112.433 150.6 113.14L150.4 113.28V106.4H152V121H150.6L150.46 118.58L150.68 118.46C150.587 119.047 150.36 119.547 150 119.96C149.654 120.36 149.22 120.667 148.7 120.88C148.194 121.093 147.654 121.2 147.08 121.2ZM147.24 119.8C147.88 119.8 148.434 119.64 148.9 119.32C149.38 119 149.747 118.547 150 117.96C150.267 117.36 150.4 116.66 150.4 115.86C150.4 115.1 150.267 114.447 150 113.9C149.747 113.353 149.387 112.933 148.92 112.64C148.467 112.347 147.934 112.2 147.32 112.2C146.307 112.2 145.52 112.547 144.96 113.24C144.4 113.933 144.12 114.853 144.12 116C144.12 117.147 144.394 118.067 144.94 118.76C145.487 119.453 146.254 119.8 147.24 119.8ZM159.859 110.8C160.806 110.8 161.639 111.007 162.359 111.42C163.093 111.833 163.666 112.433 164.079 113.22C164.493 113.993 164.699 114.92 164.699 116C164.699 117.08 164.493 118.013 164.079 118.8C163.666 119.573 163.093 120.167 162.359 120.58C161.639 120.993 160.806 121.2 159.859 121.2C158.926 121.2 158.093 120.993 157.359 120.58C156.626 120.167 156.053 119.573 155.639 118.8C155.226 118.013 155.019 117.08 155.019 116C155.019 114.92 155.226 113.993 155.639 113.22C156.053 112.433 156.626 111.833 157.359 111.42C158.093 111.007 158.926 110.8 159.859 110.8ZM159.859 112.18C159.179 112.18 158.599 112.333 158.119 112.64C157.639 112.947 157.266 113.387 156.999 113.96C156.746 114.52 156.619 115.2 156.619 116C156.619 116.787 156.746 117.467 156.999 118.04C157.266 118.613 157.639 119.053 158.119 119.36C158.599 119.667 159.179 119.82 159.859 119.82C160.539 119.82 161.119 119.667 161.599 119.36C162.079 119.053 162.446 118.613 162.699 118.04C162.966 117.467 163.099 116.787 163.099 116C163.099 115.2 162.966 114.52 162.699 113.96C162.446 113.387 162.079 112.947 161.599 112.64C161.119 112.333 160.539 112.18 159.859 112.18ZM169.232 106.4V118.46C169.232 118.967 169.325 119.32 169.512 119.52C169.698 119.707 169.998 119.8 170.412 119.8C170.678 119.8 170.898 119.78 171.072 119.74C171.245 119.7 171.478 119.627 171.772 119.52L171.512 120.92C171.298 121.013 171.065 121.08 170.812 121.12C170.558 121.173 170.298 121.2 170.032 121.2C169.218 121.2 168.612 120.98 168.212 120.54C167.825 120.1 167.632 119.427 167.632 118.52V106.4H169.232ZM177.965 110.8C178.912 110.8 179.745 111.007 180.465 111.42C181.198 111.833 181.772 112.433 182.185 113.22C182.598 113.993 182.805 114.92 182.805 116C182.805 117.08 182.598 118.013 182.185 118.8C181.772 119.573 181.198 120.167 180.465 120.58C179.745 120.993 178.912 121.2 177.965 121.2C177.032 121.2 176.198 120.993 175.465 120.58C174.732 120.167 174.158 119.573 173.745 118.8C173.332 118.013 173.125 117.08 173.125 116C173.125 114.92 173.332 113.993 173.745 113.22C174.158 112.433 174.732 111.833 175.465 111.42C176.198 111.007 177.032 110.8 177.965 110.8ZM177.965 112.18C177.285 112.18 176.705 112.333 176.225 112.64C175.745 112.947 175.372 113.387 175.105 113.96C174.852 114.52 174.725 115.2 174.725 116C174.725 116.787 174.852 117.467 175.105 118.04C175.372 118.613 175.745 119.053 176.225 119.36C176.705 119.667 177.285 119.82 177.965 119.82C178.645 119.82 179.225 119.667 179.705 119.36C180.185 119.053 180.552 118.613 180.805 118.04C181.072 117.467 181.205 116.787 181.205 116C181.205 115.2 181.072 114.52 180.805 113.96C180.552 113.387 180.185 112.947 179.705 112.64C179.225 112.333 178.645 112.18 177.965 112.18ZM185.817 121V111H187.117L187.337 112.64C187.617 112.027 188.024 111.567 188.557 111.26C189.104 110.953 189.764 110.8 190.537 110.8C190.71 110.8 190.897 110.813 191.097 110.84C191.31 110.867 191.49 110.92 191.637 111L191.357 112.46C191.21 112.407 191.05 112.367 190.877 112.34C190.704 112.313 190.457 112.3 190.137 112.3C189.724 112.3 189.304 112.42 188.877 112.66C188.464 112.9 188.117 113.267 187.837 113.76C187.557 114.24 187.417 114.853 187.417 115.6V121H185.817ZM203.929 121.2C202.955 121.2 202.055 120.993 201.229 120.58C200.415 120.167 199.789 119.58 199.349 118.82L200.709 117.84C201.002 118.453 201.429 118.933 201.989 119.28C202.562 119.627 203.249 119.8 204.049 119.8C204.755 119.8 205.309 119.667 205.709 119.4C206.109 119.12 206.309 118.76 206.309 118.32C206.309 118.04 206.215 117.787 206.029 117.56C205.855 117.32 205.515 117.147 205.009 117.04L202.609 116.54C201.635 116.34 200.935 116.007 200.509 115.54C200.095 115.073 199.889 114.493 199.889 113.8C199.889 113.253 200.042 112.753 200.349 112.3C200.669 111.847 201.115 111.487 201.689 111.22C202.275 110.94 202.962 110.8 203.749 110.8C204.735 110.8 205.569 110.993 206.249 111.38C206.929 111.767 207.435 112.313 207.769 113.02L206.429 113.9C206.202 113.313 205.835 112.887 205.329 112.62C204.822 112.34 204.295 112.2 203.749 112.2C203.269 112.2 202.855 112.267 202.509 112.4C202.175 112.533 201.915 112.72 201.729 112.96C201.555 113.187 201.469 113.447 201.469 113.74C201.469 114.033 201.569 114.307 201.769 114.56C201.969 114.8 202.342 114.973 202.889 115.08L205.389 115.6C206.322 115.787 206.975 116.093 207.349 116.52C207.722 116.947 207.909 117.467 207.909 118.08C207.909 118.707 207.742 119.26 207.409 119.74C207.075 120.207 206.609 120.567 206.009 120.82C205.409 121.073 204.715 121.2 203.929 121.2ZM211.676 109.08C211.316 109.08 211.022 108.973 210.796 108.76C210.582 108.533 210.476 108.24 210.476 107.88C210.476 107.52 210.582 107.233 210.796 107.02C211.022 106.793 211.316 106.68 211.676 106.68C212.036 106.68 212.322 106.793 212.536 107.02C212.762 107.233 212.876 107.52 212.876 107.88C212.876 108.24 212.762 108.533 212.536 108.76C212.322 108.973 212.036 109.08 211.676 109.08ZM212.476 111V121H210.876V111H212.476ZM218.548 108.16V118.24C218.548 118.733 218.688 119.1 218.968 119.34C219.248 119.58 219.608 119.7 220.048 119.7C220.435 119.7 220.768 119.633 221.048 119.5C221.328 119.367 221.581 119.187 221.808 118.96L222.368 120.3C222.061 120.58 221.695 120.8 221.268 120.96C220.855 121.12 220.375 121.2 219.828 121.2C219.321 121.2 218.848 121.113 218.408 120.94C217.968 120.753 217.615 120.467 217.348 120.08C217.095 119.68 216.961 119.16 216.948 118.52V108.6L218.548 108.16ZM222.188 111V112.38H214.948V111H222.188ZM237.223 114.54C237.223 113.793 237.023 113.22 236.623 112.82C236.223 112.407 235.657 112.2 234.923 112.2C234.23 112.2 233.643 112.353 233.163 112.66C232.683 112.953 232.33 113.433 232.103 114.1L230.803 113.3C231.07 112.553 231.563 111.953 232.283 111.5C233.003 111.033 233.897 110.8 234.963 110.8C235.683 110.8 236.337 110.927 236.923 111.18C237.51 111.42 237.97 111.793 238.303 112.3C238.65 112.793 238.823 113.433 238.823 114.22V119.06C238.823 119.54 239.077 119.78 239.583 119.78C239.837 119.78 240.083 119.747 240.323 119.68L240.243 120.94C239.977 121.073 239.63 121.14 239.203 121.14C238.817 121.14 238.47 121.067 238.163 120.92C237.857 120.773 237.617 120.553 237.443 120.26C237.27 119.953 237.183 119.573 237.183 119.12V118.92L237.583 118.98C237.423 119.5 237.15 119.927 236.763 120.26C236.377 120.58 235.943 120.82 235.463 120.98C234.983 121.127 234.51 121.2 234.043 121.2C233.457 121.2 232.91 121.1 232.403 120.9C231.897 120.7 231.49 120.4 231.183 120C230.89 119.587 230.743 119.08 230.743 118.48C230.743 117.733 230.99 117.12 231.483 116.64C231.99 116.147 232.69 115.813 233.583 115.64L237.543 114.86V116.18L234.323 116.84C233.67 116.973 233.183 117.16 232.863 117.4C232.543 117.64 232.383 117.973 232.383 118.4C232.383 118.813 232.543 119.153 232.863 119.42C233.197 119.673 233.663 119.8 234.263 119.8C234.65 119.8 235.017 119.753 235.363 119.66C235.723 119.553 236.043 119.4 236.323 119.2C236.603 118.987 236.823 118.727 236.983 118.42C237.143 118.1 237.223 117.727 237.223 117.3V114.54ZM242.712 121V111H244.112L244.212 112.56C244.572 111.947 245.038 111.5 245.612 111.22C246.198 110.94 246.798 110.8 247.412 110.8C248.118 110.8 248.785 110.96 249.412 111.28C250.038 111.6 250.518 112.093 250.852 112.76C251.065 112.307 251.365 111.94 251.752 111.66C252.138 111.367 252.558 111.153 253.012 111.02C253.478 110.873 253.918 110.8 254.332 110.8C254.972 110.8 255.578 110.933 256.152 111.2C256.738 111.467 257.218 111.88 257.592 112.44C257.965 113 258.152 113.72 258.152 114.6V121H256.552V114.76C256.552 113.853 256.325 113.2 255.872 112.8C255.418 112.4 254.858 112.2 254.192 112.2C253.672 112.2 253.185 112.327 252.732 112.58C252.278 112.833 251.912 113.207 251.632 113.7C251.365 114.193 251.232 114.8 251.232 115.52V121H249.632V114.76C249.632 113.853 249.405 113.2 248.952 112.8C248.498 112.4 247.938 112.2 247.272 112.2C246.832 112.2 246.378 112.32 245.912 112.56C245.458 112.787 245.078 113.153 244.772 113.66C244.465 114.167 244.312 114.833 244.312 115.66V121H242.712ZM265.954 121.2C265.007 121.2 264.161 120.993 263.414 120.58C262.681 120.167 262.107 119.573 261.694 118.8C261.281 118.013 261.074 117.08 261.074 116C261.074 114.92 261.281 113.993 261.694 113.22C262.107 112.433 262.674 111.833 263.394 111.42C264.114 111.007 264.934 110.8 265.854 110.8C266.787 110.8 267.581 111 268.234 111.4C268.901 111.8 269.407 112.347 269.754 113.04C270.101 113.72 270.274 114.487 270.274 115.34C270.274 115.567 270.267 115.773 270.254 115.96C270.241 116.147 270.221 116.313 270.194 116.46H262.114V115.04H269.494L268.674 115.2C268.674 114.24 268.407 113.5 267.874 112.98C267.354 112.46 266.667 112.2 265.814 112.2C265.161 112.2 264.594 112.353 264.114 112.66C263.647 112.953 263.281 113.387 263.014 113.96C262.761 114.52 262.634 115.2 262.634 116C262.634 116.787 262.767 117.467 263.034 118.04C263.301 118.613 263.674 119.053 264.154 119.36C264.647 119.653 265.234 119.8 265.914 119.8C266.647 119.8 267.241 119.66 267.694 119.38C268.161 119.1 268.534 118.72 268.814 118.24L270.074 118.98C269.821 119.433 269.494 119.827 269.094 120.16C268.707 120.493 268.247 120.753 267.714 120.94C267.194 121.113 266.607 121.2 265.954 121.2ZM275.384 108.16V118.24C275.384 118.733 275.524 119.1 275.804 119.34C276.084 119.58 276.444 119.7 276.884 119.7C277.271 119.7 277.604 119.633 277.884 119.5C278.164 119.367 278.417 119.187 278.644 118.96L279.204 120.3C278.897 120.58 278.531 120.8 278.104 120.96C277.691 121.12 277.211 121.2 276.664 121.2C276.157 121.2 275.684 121.113 275.244 120.94C274.804 120.753 274.451 120.467 274.184 120.08C273.931 119.68 273.797 119.16 273.784 118.52V108.6L275.384 108.16ZM279.024 111V112.38H271.784V111H279.024ZM292.359 110.8C293.053 110.8 293.659 110.907 294.179 111.12C294.713 111.333 295.173 111.64 295.559 112.04C295.946 112.44 296.259 112.913 296.499 113.46L294.979 114.18C294.766 113.54 294.439 113.053 293.999 112.72C293.573 112.373 293.013 112.2 292.319 112.2C291.653 112.2 291.079 112.353 290.599 112.66C290.119 112.953 289.753 113.387 289.499 113.96C289.246 114.52 289.119 115.2 289.119 116C289.119 116.787 289.246 117.467 289.499 118.04C289.753 118.613 290.119 119.053 290.599 119.36C291.079 119.653 291.653 119.8 292.319 119.8C292.839 119.8 293.286 119.72 293.659 119.56C294.046 119.4 294.359 119.167 294.599 118.86C294.853 118.553 295.026 118.18 295.119 117.74L296.599 118.26C296.373 118.873 296.059 119.4 295.659 119.84C295.273 120.28 294.799 120.62 294.239 120.86C293.693 121.087 293.066 121.2 292.359 121.2C291.426 121.2 290.593 120.993 289.859 120.58C289.126 120.167 288.553 119.573 288.139 118.8C287.726 118.013 287.519 117.08 287.519 116C287.519 114.92 287.726 113.993 288.139 113.22C288.553 112.433 289.126 111.833 289.859 111.42C290.593 111.007 291.426 110.8 292.359 110.8ZM303.551 110.8C304.497 110.8 305.331 111.007 306.051 111.42C306.784 111.833 307.357 112.433 307.771 113.22C308.184 113.993 308.391 114.92 308.391 116C308.391 117.08 308.184 118.013 307.771 118.8C307.357 119.573 306.784 120.167 306.051 120.58C305.331 120.993 304.497 121.2 303.551 121.2C302.617 121.2 301.784 120.993 301.051 120.58C300.317 120.167 299.744 119.573 299.331 118.8C298.917 118.013 298.711 117.08 298.711 116C298.711 114.92 298.917 113.993 299.331 113.22C299.744 112.433 300.317 111.833 301.051 111.42C301.784 111.007 302.617 110.8 303.551 110.8ZM303.551 112.18C302.871 112.18 302.291 112.333 301.811 112.64C301.331 112.947 300.957 113.387 300.691 113.96C300.437 114.52 300.311 115.2 300.311 116C300.311 116.787 300.437 117.467 300.691 118.04C300.957 118.613 301.331 119.053 301.811 119.36C302.291 119.667 302.871 119.82 303.551 119.82C304.231 119.82 304.811 119.667 305.291 119.36C305.771 119.053 306.137 118.613 306.391 118.04C306.657 117.467 306.791 116.787 306.791 116C306.791 115.2 306.657 114.52 306.391 113.96C306.137 113.387 305.771 112.947 305.291 112.64C304.811 112.333 304.231 112.18 303.551 112.18ZM311.403 121V111H312.803L312.943 113.24L312.683 113.02C312.896 112.487 313.183 112.06 313.543 111.74C313.903 111.407 314.316 111.167 314.783 111.02C315.263 110.873 315.756 110.8 316.263 110.8C316.983 110.8 317.636 110.94 318.223 111.22C318.81 111.487 319.276 111.9 319.623 112.46C319.983 113.02 320.163 113.733 320.163 114.6V121H318.563V115.16C318.563 114.053 318.323 113.287 317.843 112.86C317.376 112.42 316.796 112.2 316.103 112.2C315.623 112.2 315.143 112.313 314.663 112.54C314.183 112.767 313.783 113.133 313.463 113.64C313.156 114.147 313.003 114.827 313.003 115.68V121H311.403ZM327.386 121.2C326.412 121.2 325.512 120.993 324.686 120.58C323.872 120.167 323.246 119.58 322.806 118.82L324.166 117.84C324.459 118.453 324.886 118.933 325.446 119.28C326.019 119.627 326.706 119.8 327.506 119.8C328.212 119.8 328.766 119.667 329.166 119.4C329.566 119.12 329.766 118.76 329.766 118.32C329.766 118.04 329.672 117.787 329.486 117.56C329.312 117.32 328.972 117.147 328.466 117.04L326.066 116.54C325.092 116.34 324.392 116.007 323.966 115.54C323.552 115.073 323.346 114.493 323.346 113.8C323.346 113.253 323.499 112.753 323.806 112.3C324.126 111.847 324.572 111.487 325.146 111.22C325.732 110.94 326.419 110.8 327.206 110.8C328.192 110.8 329.026 110.993 329.706 111.38C330.386 111.767 330.892 112.313 331.226 113.02L329.886 113.9C329.659 113.313 329.292 112.887 328.786 112.62C328.279 112.34 327.752 112.2 327.206 112.2C326.726 112.2 326.312 112.267 325.966 112.4C325.632 112.533 325.372 112.72 325.186 112.96C325.012 113.187 324.926 113.447 324.926 113.74C324.926 114.033 325.026 114.307 325.226 114.56C325.426 114.8 325.799 114.973 326.346 115.08L328.846 115.6C329.779 115.787 330.432 116.093 330.806 116.52C331.179 116.947 331.366 117.467 331.366 118.08C331.366 118.707 331.199 119.26 330.866 119.74C330.532 120.207 330.066 120.567 329.466 120.82C328.866 121.073 328.172 121.2 327.386 121.2ZM338.513 121.2C337.566 121.2 336.719 120.993 335.973 120.58C335.239 120.167 334.666 119.573 334.253 118.8C333.839 118.013 333.633 117.08 333.633 116C333.633 114.92 333.839 113.993 334.253 113.22C334.666 112.433 335.233 111.833 335.953 111.42C336.673 111.007 337.493 110.8 338.413 110.8C339.346 110.8 340.139 111 340.793 111.4C341.459 111.8 341.966 112.347 342.313 113.04C342.659 113.72 342.833 114.487 342.833 115.34C342.833 115.567 342.826 115.773 342.813 115.96C342.799 116.147 342.779 116.313 342.753 116.46H334.673V115.04H342.053L341.233 115.2C341.233 114.24 340.966 113.5 340.433 112.98C339.913 112.46 339.226 112.2 338.373 112.2C337.719 112.2 337.153 112.353 336.673 112.66C336.206 112.953 335.839 113.387 335.573 113.96C335.319 114.52 335.193 115.2 335.193 116C335.193 116.787 335.326 117.467 335.593 118.04C335.859 118.613 336.233 119.053 336.713 119.36C337.206 119.653 337.793 119.8 338.473 119.8C339.206 119.8 339.799 119.66 340.253 119.38C340.719 119.1 341.093 118.72 341.373 118.24L342.633 118.98C342.379 119.433 342.053 119.827 341.653 120.16C341.266 120.493 340.806 120.753 340.273 120.94C339.753 121.113 339.166 121.2 338.513 121.2ZM350.016 110.8C350.709 110.8 351.316 110.907 351.836 111.12C352.369 111.333 352.829 111.64 353.216 112.04C353.602 112.44 353.916 112.913 354.156 113.46L352.636 114.18C352.422 113.54 352.096 113.053 351.656 112.72C351.229 112.373 350.669 112.2 349.976 112.2C349.309 112.2 348.736 112.353 348.256 112.66C347.776 112.953 347.409 113.387 347.156 113.96C346.902 114.52 346.776 115.2 346.776 116C346.776 116.787 346.902 117.467 347.156 118.04C347.409 118.613 347.776 119.053 348.256 119.36C348.736 119.653 349.309 119.8 349.976 119.8C350.496 119.8 350.942 119.72 351.316 119.56C351.702 119.4 352.016 119.167 352.256 118.86C352.509 118.553 352.682 118.18 352.776 117.74L354.256 118.26C354.029 118.873 353.716 119.4 353.316 119.84C352.929 120.28 352.456 120.62 351.896 120.86C351.349 121.087 350.722 121.2 350.016 121.2C349.082 121.2 348.249 120.993 347.516 120.58C346.782 120.167 346.209 119.573 345.796 118.8C345.382 118.013 345.176 117.08 345.176 116C345.176 114.92 345.382 113.993 345.796 113.22C346.209 112.433 346.782 111.833 347.516 111.42C348.249 111.007 349.082 110.8 350.016 110.8ZM359.427 108.16V118.24C359.427 118.733 359.567 119.1 359.847 119.34C360.127 119.58 360.487 119.7 360.927 119.7C361.314 119.7 361.647 119.633 361.927 119.5C362.207 119.367 362.46 119.187 362.687 118.96L363.247 120.3C362.94 120.58 362.574 120.8 362.147 120.96C361.734 121.12 361.254 121.2 360.707 121.2C360.2 121.2 359.727 121.113 359.287 120.94C358.847 120.753 358.494 120.467 358.227 120.08C357.974 119.68 357.84 119.16 357.827 118.52V108.6L359.427 108.16ZM363.067 111V112.38H355.827V111H363.067ZM369.626 121.2C368.679 121.2 367.833 120.993 367.086 120.58C366.353 120.167 365.779 119.573 365.366 118.8C364.953 118.013 364.746 117.08 364.746 116C364.746 114.92 364.953 113.993 365.366 113.22C365.779 112.433 366.346 111.833 367.066 111.42C367.786 111.007 368.606 110.8 369.526 110.8C370.459 110.8 371.253 111 371.906 111.4C372.573 111.8 373.079 112.347 373.426 113.04C373.773 113.72 373.946 114.487 373.946 115.34C373.946 115.567 373.939 115.773 373.926 115.96C373.913 116.147 373.893 116.313 373.866 116.46H365.786V115.04H373.166L372.346 115.2C372.346 114.24 372.079 113.5 371.546 112.98C371.026 112.46 370.339 112.2 369.486 112.2C368.833 112.2 368.266 112.353 367.786 112.66C367.319 112.953 366.953 113.387 366.686 113.96C366.433 114.52 366.306 115.2 366.306 116C366.306 116.787 366.439 117.467 366.706 118.04C366.973 118.613 367.346 119.053 367.826 119.36C368.319 119.653 368.906 119.8 369.586 119.8C370.319 119.8 370.913 119.66 371.366 119.38C371.833 119.1 372.206 118.72 372.486 118.24L373.746 118.98C373.493 119.433 373.166 119.827 372.766 120.16C372.379 120.493 371.919 120.753 371.386 120.94C370.866 121.113 370.279 121.2 369.626 121.2ZM379.056 108.16V118.24C379.056 118.733 379.196 119.1 379.476 119.34C379.756 119.58 380.116 119.7 380.556 119.7C380.943 119.7 381.276 119.633 381.556 119.5C381.836 119.367 382.089 119.187 382.316 118.96L382.876 120.3C382.569 120.58 382.203 120.8 381.776 120.96C381.363 121.12 380.883 121.2 380.336 121.2C379.829 121.2 379.356 121.113 378.916 120.94C378.476 120.753 378.123 120.467 377.856 120.08C377.603 119.68 377.469 119.16 377.456 118.52V108.6L379.056 108.16ZM382.696 111V112.38H375.456V111H382.696ZM388.695 121.2C388.055 121.2 387.448 121.08 386.875 120.84C386.315 120.6 385.855 120.213 385.495 119.68C385.148 119.133 384.975 118.427 384.975 117.56V111H386.575V117.14C386.575 118.153 386.795 118.853 387.235 119.24C387.675 119.613 388.295 119.8 389.095 119.8C389.468 119.8 389.835 119.74 390.195 119.62C390.555 119.487 390.875 119.287 391.155 119.02C391.448 118.74 391.675 118.387 391.835 117.96C392.008 117.533 392.095 117.027 392.095 116.44V111H393.695V121H392.295L392.195 119.48C391.848 120.08 391.375 120.52 390.775 120.8C390.188 121.067 389.495 121.2 388.695 121.2ZM397.419 121V111H398.719L398.939 112.64C399.219 112.027 399.625 111.567 400.159 111.26C400.705 110.953 401.365 110.8 402.139 110.8C402.312 110.8 402.499 110.813 402.699 110.84C402.912 110.867 403.092 110.92 403.239 111L402.959 112.46C402.812 112.407 402.652 112.367 402.479 112.34C402.305 112.313 402.059 112.3 401.739 112.3C401.325 112.3 400.905 112.42 400.479 112.66C400.065 112.9 399.719 113.267 399.439 113.76C399.159 114.24 399.019 114.853 399.019 115.6V121H397.419ZM140.251 149.54C140.251 148.793 140.051 148.22 139.651 147.82C139.251 147.407 138.684 147.2 137.951 147.2C137.257 147.2 136.671 147.353 136.191 147.66C135.711 147.953 135.357 148.433 135.131 149.1L133.831 148.3C134.097 147.553 134.591 146.953 135.311 146.5C136.031 146.033 136.924 145.8 137.991 145.8C138.711 145.8 139.364 145.927 139.951 146.18C140.537 146.42 140.997 146.793 141.331 147.3C141.677 147.793 141.851 148.433 141.851 149.22V154.06C141.851 154.54 142.104 154.78 142.611 154.78C142.864 154.78 143.111 154.747 143.351 154.68L143.271 155.94C143.004 156.073 142.657 156.14 142.231 156.14C141.844 156.14 141.497 156.067 141.191 155.92C140.884 155.773 140.644 155.553 140.471 155.26C140.297 154.953 140.211 154.573 140.211 154.12V153.92L140.611 153.98C140.451 154.5 140.177 154.927 139.791 155.26C139.404 155.58 138.971 155.82 138.491 155.98C138.011 156.127 137.537 156.2 137.071 156.2C136.484 156.2 135.937 156.1 135.431 155.9C134.924 155.7 134.517 155.4 134.211 155C133.917 154.587 133.771 154.08 133.771 153.48C133.771 152.733 134.017 152.12 134.511 151.64C135.017 151.147 135.717 150.813 136.611 150.64L140.571 149.86V151.18L137.351 151.84C136.697 151.973 136.211 152.16 135.891 152.4C135.571 152.64 135.411 152.973 135.411 153.4C135.411 153.813 135.571 154.153 135.891 154.42C136.224 154.673 136.691 154.8 137.291 154.8C137.677 154.8 138.044 154.753 138.391 154.66C138.751 154.553 139.071 154.4 139.351 154.2C139.631 153.987 139.851 153.727 140.011 153.42C140.171 153.1 140.251 152.727 140.251 152.3V149.54ZM149.639 156.2C148.812 156.2 148.052 155.993 147.359 155.58C146.666 155.167 146.112 154.573 145.699 153.8C145.286 153.013 145.079 152.08 145.079 151C145.079 149.893 145.299 148.953 145.739 148.18C146.179 147.407 146.759 146.82 147.479 146.42C148.199 146.007 148.972 145.8 149.799 145.8C150.626 145.8 151.339 146.013 151.939 146.44C152.552 146.867 152.959 147.433 153.159 148.14L152.959 148.28V141.4H154.559V156H153.159L153.019 153.58L153.239 153.46C153.146 154.047 152.919 154.547 152.559 154.96C152.212 155.36 151.779 155.667 151.259 155.88C150.752 156.093 150.212 156.2 149.639 156.2ZM149.799 154.8C150.439 154.8 150.992 154.64 151.459 154.32C151.939 154 152.306 153.547 152.559 152.96C152.826 152.36 152.959 151.66 152.959 150.86C152.959 150.1 152.826 149.447 152.559 148.9C152.306 148.353 151.946 147.933 151.479 147.64C151.026 147.347 150.492 147.2 149.879 147.2C148.866 147.2 148.079 147.547 147.519 148.24C146.959 148.933 146.679 149.853 146.679 151C146.679 152.147 146.952 153.067 147.499 153.76C148.046 154.453 148.812 154.8 149.799 154.8ZM159.078 144.08C158.718 144.08 158.425 143.973 158.198 143.76C157.985 143.533 157.878 143.24 157.878 142.88C157.878 142.52 157.985 142.233 158.198 142.02C158.425 141.793 158.718 141.68 159.078 141.68C159.438 141.68 159.725 141.793 159.938 142.02C160.165 142.233 160.278 142.52 160.278 142.88C160.278 143.24 160.165 143.533 159.938 143.76C159.725 143.973 159.438 144.08 159.078 144.08ZM159.878 146V156H158.278V146H159.878ZM163.59 160.2V146H164.99L165.13 148.44L164.91 148.16C165.084 147.693 165.344 147.287 165.69 146.94C166.037 146.58 166.457 146.3 166.95 146.1C167.444 145.9 167.977 145.8 168.55 145.8C169.364 145.8 170.11 146.007 170.79 146.42C171.484 146.833 172.037 147.427 172.45 148.2C172.864 148.973 173.07 149.907 173.07 151C173.07 152.08 172.857 153.013 172.43 153.8C172.017 154.573 171.464 155.167 170.77 155.58C170.077 155.993 169.317 156.2 168.49 156.2C167.664 156.2 166.937 156 166.31 155.6C165.697 155.187 165.257 154.667 164.99 154.04L165.19 153.74V160.2H163.59ZM168.33 154.8C169.317 154.8 170.084 154.453 170.63 153.76C171.19 153.067 171.47 152.147 171.47 151C171.47 149.853 171.197 148.933 170.65 148.24C170.117 147.547 169.364 147.2 168.39 147.2C167.75 147.2 167.19 147.36 166.71 147.68C166.23 147.987 165.857 148.427 165.59 149C165.324 149.56 165.19 150.227 165.19 151C165.19 151.76 165.317 152.427 165.57 153C165.837 153.573 166.204 154.02 166.67 154.34C167.15 154.647 167.704 154.8 168.33 154.8ZM176.93 144.08C176.57 144.08 176.276 143.973 176.05 143.76C175.836 143.533 175.73 143.24 175.73 142.88C175.73 142.52 175.836 142.233 176.05 142.02C176.276 141.793 176.57 141.68 176.93 141.68C177.29 141.68 177.576 141.793 177.79 142.02C178.016 142.233 178.13 142.52 178.13 142.88C178.13 143.24 178.016 143.533 177.79 143.76C177.576 143.973 177.29 144.08 176.93 144.08ZM177.73 146V156H176.13V146H177.73ZM185.042 156.2C184.069 156.2 183.169 155.993 182.342 155.58C181.529 155.167 180.902 154.58 180.462 153.82L181.822 152.84C182.115 153.453 182.542 153.933 183.102 154.28C183.675 154.627 184.362 154.8 185.162 154.8C185.869 154.8 186.422 154.667 186.822 154.4C187.222 154.12 187.422 153.76 187.422 153.32C187.422 153.04 187.329 152.787 187.142 152.56C186.969 152.32 186.629 152.147 186.122 152.04L183.722 151.54C182.749 151.34 182.049 151.007 181.622 150.54C181.209 150.073 181.002 149.493 181.002 148.8C181.002 148.253 181.155 147.753 181.462 147.3C181.782 146.847 182.229 146.487 182.802 146.22C183.389 145.94 184.075 145.8 184.862 145.8C185.849 145.8 186.682 145.993 187.362 146.38C188.042 146.767 188.549 147.313 188.882 148.02L187.542 148.9C187.315 148.313 186.949 147.887 186.442 147.62C185.935 147.34 185.409 147.2 184.862 147.2C184.382 147.2 183.969 147.267 183.622 147.4C183.289 147.533 183.029 147.72 182.842 147.96C182.669 148.187 182.582 148.447 182.582 148.74C182.582 149.033 182.682 149.307 182.882 149.56C183.082 149.8 183.455 149.973 184.002 150.08L186.502 150.6C187.435 150.787 188.089 151.093 188.462 151.52C188.835 151.947 189.022 152.467 189.022 153.08C189.022 153.707 188.855 154.26 188.522 154.74C188.189 155.207 187.722 155.567 187.122 155.82C186.522 156.073 185.829 156.2 185.042 156.2ZM192.789 144.08C192.429 144.08 192.136 143.973 191.909 143.76C191.696 143.533 191.589 143.24 191.589 142.88C191.589 142.52 191.696 142.233 191.909 142.02C192.136 141.793 192.429 141.68 192.789 141.68C193.149 141.68 193.436 141.793 193.649 142.02C193.876 142.233 193.989 142.52 193.989 142.88C193.989 143.24 193.876 143.533 193.649 143.76C193.436 143.973 193.149 144.08 192.789 144.08ZM193.589 146V156H191.989V146H193.589ZM201.441 145.8C202.135 145.8 202.741 145.907 203.261 146.12C203.795 146.333 204.255 146.64 204.641 147.04C205.028 147.44 205.341 147.913 205.581 148.46L204.061 149.18C203.848 148.54 203.521 148.053 203.081 147.72C202.655 147.373 202.095 147.2 201.401 147.2C200.735 147.2 200.161 147.353 199.681 147.66C199.201 147.953 198.835 148.387 198.581 148.96C198.328 149.52 198.201 150.2 198.201 151C198.201 151.787 198.328 152.467 198.581 153.04C198.835 153.613 199.201 154.053 199.681 154.36C200.161 154.653 200.735 154.8 201.401 154.8C201.921 154.8 202.368 154.72 202.741 154.56C203.128 154.4 203.441 154.167 203.681 153.86C203.935 153.553 204.108 153.18 204.201 152.74L205.681 153.26C205.455 153.873 205.141 154.4 204.741 154.84C204.355 155.28 203.881 155.62 203.321 155.86C202.775 156.087 202.148 156.2 201.441 156.2C200.508 156.2 199.675 155.993 198.941 155.58C198.208 155.167 197.635 154.573 197.221 153.8C196.808 153.013 196.601 152.08 196.601 151C196.601 149.92 196.808 148.993 197.221 148.22C197.635 147.433 198.208 146.833 198.941 146.42C199.675 146.007 200.508 145.8 201.441 145.8ZM209.293 144.08C208.933 144.08 208.639 143.973 208.413 143.76C208.199 143.533 208.093 143.24 208.093 142.88C208.093 142.52 208.199 142.233 208.413 142.02C208.639 141.793 208.933 141.68 209.293 141.68C209.653 141.68 209.939 141.793 210.153 142.02C210.379 142.233 210.493 142.52 210.493 142.88C210.493 143.24 210.379 143.533 210.153 143.76C209.939 143.973 209.653 144.08 209.293 144.08ZM210.093 146V156H208.493V146H210.093ZM213.805 156V146H215.205L215.345 148.24L215.085 148.02C215.299 147.487 215.585 147.06 215.945 146.74C216.305 146.407 216.719 146.167 217.185 146.02C217.665 145.873 218.159 145.8 218.665 145.8C219.385 145.8 220.039 145.94 220.625 146.22C221.212 146.487 221.679 146.9 222.025 147.46C222.385 148.02 222.565 148.733 222.565 149.6V156H220.965V150.16C220.965 149.053 220.725 148.287 220.245 147.86C219.779 147.42 219.199 147.2 218.505 147.2C218.025 147.2 217.545 147.313 217.065 147.54C216.585 147.767 216.185 148.133 215.865 148.64C215.559 149.147 215.405 149.827 215.405 150.68V156H213.805ZM234.608 144.16L234.968 145.58C234.955 145.58 234.935 145.58 234.908 145.58C234.881 145.58 234.855 145.58 234.828 145.58C234.175 145.58 233.668 145.713 233.308 145.98C232.961 146.233 232.788 146.647 232.788 147.22L231.808 146.72C231.808 146.2 231.928 145.747 232.168 145.36C232.408 144.973 232.735 144.68 233.148 144.48C233.561 144.267 234.015 144.16 234.508 144.16C234.521 144.16 234.535 144.16 234.548 144.16C234.575 144.16 234.595 144.16 234.608 144.16ZM231.568 154.72C232.515 154.72 233.255 154.94 233.788 155.38C234.321 155.807 234.588 156.38 234.588 157.1C234.588 157.753 234.368 158.32 233.928 158.8C233.501 159.28 232.921 159.647 232.188 159.9C231.468 160.167 230.655 160.3 229.748 160.3C228.175 160.3 226.995 160.033 226.208 159.5C225.435 158.967 225.048 158.327 225.048 157.58C225.048 157.047 225.221 156.567 225.568 156.14C225.928 155.727 226.528 155.493 227.368 155.44L227.228 155.74C226.775 155.62 226.388 155.42 226.068 155.14C225.761 154.847 225.608 154.427 225.608 153.88C225.608 153.333 225.808 152.867 226.208 152.48C226.621 152.08 227.228 151.833 228.028 151.74L229.088 152.28H228.888C228.235 152.347 227.768 152.513 227.488 152.78C227.221 153.033 227.088 153.313 227.088 153.62C227.088 153.993 227.221 154.273 227.488 154.46C227.768 154.633 228.155 154.72 228.648 154.72H231.568ZM229.728 158.96C230.501 158.96 231.135 158.88 231.628 158.72C232.135 158.56 232.508 158.353 232.748 158.1C232.988 157.847 233.108 157.573 233.108 157.28C233.108 156.92 232.961 156.633 232.668 156.42C232.388 156.207 231.875 156.1 231.128 156.1H228.048C227.621 156.1 227.261 156.207 226.968 156.42C226.675 156.647 226.528 156.953 226.528 157.34C226.528 157.833 226.808 158.227 227.368 158.52C227.941 158.813 228.728 158.96 229.728 158.96ZM229.588 145.8C230.388 145.8 231.095 145.947 231.708 146.24C232.335 146.52 232.821 146.913 233.168 147.42C233.515 147.927 233.688 148.513 233.688 149.18C233.688 149.833 233.515 150.42 233.168 150.94C232.821 151.447 232.335 151.847 231.708 152.14C231.095 152.42 230.388 152.56 229.588 152.56C228.268 152.56 227.255 152.247 226.548 151.62C225.841 150.98 225.488 150.167 225.488 149.18C225.488 148.513 225.661 147.927 226.008 147.42C226.368 146.913 226.855 146.52 227.468 146.24C228.081 145.947 228.788 145.8 229.588 145.8ZM229.588 147.1C228.895 147.1 228.315 147.293 227.848 147.68C227.381 148.053 227.148 148.553 227.148 149.18C227.148 149.793 227.381 150.293 227.848 150.68C228.315 151.067 228.895 151.26 229.588 151.26C230.281 151.26 230.861 151.067 231.328 150.68C231.795 150.293 232.028 149.793 232.028 149.18C232.028 148.553 231.795 148.053 231.328 147.68C230.861 147.293 230.281 147.1 229.588 147.1ZM247.829 156.2C246.882 156.2 246.036 155.993 245.289 155.58C244.556 155.167 243.982 154.573 243.569 153.8C243.156 153.013 242.949 152.08 242.949 151C242.949 149.92 243.156 148.993 243.569 148.22C243.982 147.433 244.549 146.833 245.269 146.42C245.989 146.007 246.809 145.8 247.729 145.8C248.662 145.8 249.456 146 250.109 146.4C250.776 146.8 251.282 147.347 251.629 148.04C251.976 148.72 252.149 149.487 252.149 150.34C252.149 150.567 252.142 150.773 252.129 150.96C252.116 151.147 252.096 151.313 252.069 151.46H243.989V150.04H251.369L250.549 150.2C250.549 149.24 250.282 148.5 249.749 147.98C249.229 147.46 248.542 147.2 247.689 147.2C247.036 147.2 246.469 147.353 245.989 147.66C245.522 147.953 245.156 148.387 244.889 148.96C244.636 149.52 244.509 150.2 244.509 151C244.509 151.787 244.642 152.467 244.909 153.04C245.176 153.613 245.549 154.053 246.029 154.36C246.522 154.653 247.109 154.8 247.789 154.8C248.522 154.8 249.116 154.66 249.569 154.38C250.036 154.1 250.409 153.72 250.689 153.24L251.949 153.98C251.696 154.433 251.369 154.827 250.969 155.16C250.582 155.493 250.122 155.753 249.589 155.94C249.069 156.113 248.482 156.2 247.829 156.2ZM256.712 141.4V153.46C256.712 153.967 256.805 154.32 256.992 154.52C257.179 154.707 257.479 154.8 257.892 154.8C258.159 154.8 258.379 154.78 258.552 154.74C258.725 154.7 258.959 154.627 259.252 154.52L258.992 155.92C258.779 156.013 258.545 156.08 258.292 156.12C258.039 156.173 257.779 156.2 257.512 156.2C256.699 156.2 256.092 155.98 255.692 155.54C255.305 155.1 255.112 154.427 255.112 153.52V141.4H256.712ZM262.105 144.08C261.745 144.08 261.452 143.973 261.225 143.76C261.012 143.533 260.905 143.24 260.905 142.88C260.905 142.52 261.012 142.233 261.225 142.02C261.452 141.793 261.745 141.68 262.105 141.68C262.465 141.68 262.752 141.793 262.965 142.02C263.192 142.233 263.305 142.52 263.305 142.88C263.305 143.24 263.192 143.533 262.965 143.76C262.752 143.973 262.465 144.08 262.105 144.08ZM262.905 146V156H261.305V146H262.905ZM268.978 143.16V153.24C268.978 153.733 269.118 154.1 269.398 154.34C269.678 154.58 270.038 154.7 270.478 154.7C270.864 154.7 271.198 154.633 271.478 154.5C271.758 154.367 272.011 154.187 272.238 153.96L272.798 155.3C272.491 155.58 272.124 155.8 271.698 155.96C271.284 156.12 270.804 156.2 270.258 156.2C269.751 156.2 269.278 156.113 268.838 155.94C268.398 155.753 268.044 155.467 267.778 155.08C267.524 154.68 267.391 154.16 267.378 153.52V143.6L268.978 143.16ZM272.618 146V147.38H265.378V146H272.618ZM275.797 153.6C276.183 153.6 276.497 153.72 276.737 153.96C276.977 154.2 277.097 154.513 277.097 154.9C277.097 155.287 276.977 155.6 276.737 155.84C276.497 156.08 276.183 156.2 275.797 156.2C275.41 156.2 275.097 156.08 274.857 155.84C274.617 155.6 274.497 155.287 274.497 154.9C274.497 154.513 274.617 154.2 274.857 153.96C275.097 153.72 275.41 153.6 275.797 153.6Z" fill="black"/>
</svg>
