<svg width="1175" height="50" viewBox="0 0 1175 50" fill="none" xmlns="http://www.w3.org/2000/svg">
<path d="M39.7719 12.3454C40.9881 11.1262 41.7406 9.44383 41.7406 7.5851C41.7406 3.86264 38.7226 0.844696 35.0001 0.844696C32.6467 0.844696 30.5777 2.05287 29.372 3.88062C29.0517 4.2014 2.21949 37.2729 1.96866 37.6531C0.752489 38.8723 0 40.5551 0 42.4129C0 46.1358 3.01794 49.1538 6.7404 49.1538C9.0938 49.1538 11.1629 47.9461 12.3686 46.1178C12.6889 45.7971 39.5211 12.7251 39.7719 12.3454Z" fill="white"/>
<path d="M55.2974 28.0393C56.5171 26.8192 57.271 25.1348 57.271 23.2736C57.271 19.5511 54.2531 16.5332 50.5306 16.5332C48.1762 16.5332 46.1061 17.7423 44.9005 19.5716C44.5777 19.8949 30.4848 37.2665 30.2325 37.6493C29.0128 38.8695 28.2588 40.5538 28.2588 42.4145C28.2588 46.1375 31.2767 49.1555 34.9992 49.1555C37.3536 49.1555 39.4237 47.9463 40.6289 46.117C40.9517 45.7942 55.0451 28.4221 55.2974 28.0393Z" fill="white"/>
<path d="M70.0002 7.5851C70.0002 11.3081 66.9822 14.3255 63.2598 14.3255C59.5368 14.3255 56.5193 11.3081 56.5193 7.5851C56.5193 3.86264 59.5368 0.844696 63.2598 0.844696C66.9822 0.844696 70.0002 3.86264 70.0002 7.5851Z" fill="white"/>
<path d="M13.4808 7.5851C13.4808 11.3081 10.4629 14.3255 6.7404 14.3255C3.01794 14.3255 0 11.3081 0 7.5851C0 3.86264 3.01794 0.844696 6.7404 0.844696C10.4629 0.844696 13.4808 3.86264 13.4808 7.5851Z" fill="white"/>
<path d="M100.92 12.2C103.293 12.2 105.347 12.6533 107.08 13.56C108.813 14.44 110.28 15.7467 111.48 17.48L108.6 20.24C107.587 18.6933 106.44 17.5867 105.16 16.92C103.907 16.2267 102.413 15.88 100.68 15.88C99.4001 15.88 98.3468 16.0533 97.5201 16.4C96.6935 16.7467 96.0801 17.2133 95.6801 17.8C95.3068 18.36 95.1201 19 95.1201 19.72C95.1201 20.5467 95.4001 21.2667 95.9601 21.88C96.5468 22.4933 97.6268 22.9733 99.2001 23.32L104.56 24.52C107.12 25.08 108.933 25.9333 110 27.08C111.067 28.2267 111.6 29.68 111.6 31.44C111.6 33.0667 111.16 34.48 110.28 35.68C109.4 36.88 108.173 37.8 106.6 38.44C105.053 39.08 103.227 39.4 101.12 39.4C99.2535 39.4 97.5735 39.16 96.0801 38.68C94.5868 38.2 93.2801 37.5467 92.1601 36.72C91.0401 35.8933 90.1201 34.9467 89.4001 33.88L92.3601 30.92C92.9201 31.8533 93.6268 32.6933 94.4801 33.44C95.3335 34.16 96.3201 34.72 97.4401 35.12C98.5868 35.52 99.8535 35.72 101.24 35.72C102.467 35.72 103.52 35.5733 104.4 35.28C105.307 34.9867 105.987 34.56 106.44 34C106.92 33.4133 107.16 32.72 107.16 31.92C107.16 31.1467 106.893 30.4667 106.36 29.88C105.853 29.2933 104.893 28.84 103.48 28.52L97.6801 27.2C96.0801 26.8533 94.7601 26.36 93.7201 25.72C92.6801 25.08 91.9068 24.3067 91.4001 23.4C90.8935 22.4667 90.6401 21.4267 90.6401 20.28C90.6401 18.7867 91.0401 17.44 91.8401 16.24C92.6668 15.0133 93.8535 14.04 95.4001 13.32C96.9468 12.5733 98.7868 12.2 100.92 12.2ZM122.824 13.12V33C122.824 33.9867 123.078 34.7067 123.584 35.16C124.118 35.6133 124.824 35.84 125.704 35.84C126.424 35.84 127.051 35.7333 127.584 35.52C128.118 35.28 128.611 34.96 129.064 34.56L130.024 37.68C129.411 38.2133 128.651 38.64 127.744 38.96C126.864 39.2533 125.878 39.4 124.784 39.4C123.638 39.4 122.584 39.2133 121.624 38.84C120.664 38.4667 119.918 37.8667 119.384 37.04C118.851 36.1867 118.571 35.08 118.544 33.72V14.32L122.824 13.12ZM129.704 19V22.36H114.704V19H129.704ZM145.614 26.16C145.614 24.8267 145.241 23.8 144.494 23.08C143.774 22.3333 142.774 21.96 141.494 21.96C140.294 21.96 139.268 22.24 138.414 22.8C137.561 23.36 136.934 24.2667 136.534 25.52L132.934 24C133.441 22.3733 134.428 21.0667 135.894 20.08C137.388 19.0933 139.308 18.6 141.654 18.6C143.254 18.6 144.668 18.8667 145.894 19.4C147.121 19.9067 148.081 20.68 148.774 21.72C149.494 22.76 149.854 24.0933 149.854 25.72V34.64C149.854 35.6267 150.348 36.12 151.334 36.12C151.814 36.12 152.281 36.0533 152.734 35.92L152.494 38.88C151.881 39.1733 151.108 39.32 150.174 39.32C149.321 39.32 148.548 39.1733 147.854 38.88C147.188 38.56 146.654 38.0933 146.254 37.48C145.881 36.84 145.694 36.0533 145.694 35.12V34.84L146.574 34.8C146.334 35.84 145.841 36.7067 145.094 37.4C144.348 38.0667 143.481 38.5733 142.494 38.92C141.508 39.24 140.508 39.4 139.494 39.4C138.241 39.4 137.108 39.2 136.094 38.8C135.108 38.4 134.321 37.8 133.734 37C133.174 36.1733 132.894 35.16 132.894 33.96C132.894 32.4667 133.374 31.24 134.334 30.28C135.321 29.32 136.708 28.6667 138.494 28.32L146.254 26.8L146.214 29.8L140.574 30.96C139.454 31.1733 138.614 31.48 138.054 31.88C137.494 32.28 137.214 32.8667 137.214 33.64C137.214 34.3867 137.494 34.9867 138.054 35.44C138.641 35.8667 139.414 36.08 140.374 36.08C141.041 36.08 141.681 36 142.294 35.84C142.934 35.68 143.508 35.4267 144.014 35.08C144.521 34.7067 144.908 34.24 145.174 33.68C145.468 33.0933 145.614 32.4 145.614 31.6V26.16ZM156.867 39V19H160.507L160.907 22.6C161.44 21.2933 162.227 20.3067 163.267 19.64C164.334 18.9467 165.64 18.6 167.187 18.6C167.587 18.6 167.987 18.64 168.387 18.72C168.787 18.7733 169.12 18.8667 169.387 19L168.787 22.76C168.494 22.6533 168.16 22.5733 167.787 22.52C167.44 22.44 166.96 22.4 166.347 22.4C165.52 22.4 164.707 22.6267 163.907 23.08C163.107 23.5067 162.44 24.16 161.907 25.04C161.4 25.92 161.147 27.04 161.147 28.4V39H156.867ZM178.293 13.12V33C178.293 33.9867 178.546 34.7067 179.053 35.16C179.586 35.6133 180.293 35.84 181.173 35.84C181.893 35.84 182.52 35.7333 183.053 35.52C183.586 35.28 184.08 34.96 184.533 34.56L185.493 37.68C184.88 38.2133 184.12 38.64 183.213 38.96C182.333 39.2533 181.346 39.4 180.253 39.4C179.106 39.4 178.053 39.2133 177.093 38.84C176.133 38.4667 175.386 37.8667 174.853 37.04C174.32 36.1867 174.04 35.08 174.013 33.72V14.32L178.293 13.12ZM185.173 19V22.36H170.173V19H185.173Z" fill="white"/>
<path d="M797.391 18.3V31.5H795.791V18.3H797.391ZM788.631 18.3V31.5H787.031V18.3H788.631ZM796.531 24.06V25.56H787.871V24.06H796.531ZM805.402 21.3C806.349 21.3 807.182 21.5067 807.902 21.92C808.636 22.3333 809.209 22.9333 809.622 23.72C810.036 24.4933 810.242 25.42 810.242 26.5C810.242 27.58 810.036 28.5133 809.622 29.3C809.209 30.0733 808.636 30.6667 807.902 31.08C807.182 31.4933 806.349 31.7 805.402 31.7C804.469 31.7 803.636 31.4933 802.902 31.08C802.169 30.6667 801.596 30.0733 801.182 29.3C800.769 28.5133 800.562 27.58 800.562 26.5C800.562 25.42 800.769 24.4933 801.182 23.72C801.596 22.9333 802.169 22.3333 802.902 21.92C803.636 21.5067 804.469 21.3 805.402 21.3ZM805.402 22.68C804.722 22.68 804.142 22.8333 803.662 23.14C803.182 23.4467 802.809 23.8867 802.542 24.46C802.289 25.02 802.162 25.7 802.162 26.5C802.162 27.2867 802.289 27.9667 802.542 28.54C802.809 29.1133 803.182 29.5533 803.662 29.86C804.142 30.1667 804.722 30.32 805.402 30.32C806.082 30.32 806.662 30.1667 807.142 29.86C807.622 29.5533 807.989 29.1133 808.242 28.54C808.509 27.9667 808.642 27.2867 808.642 26.5C808.642 25.7 808.509 25.02 808.242 24.46C807.989 23.8867 807.622 23.4467 807.142 23.14C806.662 22.8333 806.082 22.68 805.402 22.68ZM813.255 31.5V21.5H814.655L814.755 23.06C815.115 22.4467 815.581 22 816.155 21.72C816.741 21.44 817.341 21.3 817.955 21.3C818.661 21.3 819.328 21.46 819.955 21.78C820.581 22.1 821.061 22.5933 821.395 23.26C821.608 22.8067 821.908 22.44 822.295 22.16C822.681 21.8667 823.101 21.6533 823.555 21.52C824.021 21.3733 824.461 21.3 824.875 21.3C825.515 21.3 826.121 21.4333 826.695 21.7C827.281 21.9667 827.761 22.38 828.135 22.94C828.508 23.5 828.695 24.22 828.695 25.1V31.5H827.095V25.26C827.095 24.3533 826.868 23.7 826.415 23.3C825.961 22.9 825.401 22.7 824.735 22.7C824.215 22.7 823.728 22.8267 823.275 23.08C822.821 23.3333 822.455 23.7067 822.175 24.2C821.908 24.6933 821.775 25.3 821.775 26.02V31.5H820.175V25.26C820.175 24.3533 819.948 23.7 819.495 23.3C819.041 22.9 818.481 22.7 817.815 22.7C817.375 22.7 816.921 22.82 816.455 23.06C816.001 23.2867 815.621 23.6533 815.315 24.16C815.008 24.6667 814.855 25.3333 814.855 26.16V31.5H813.255ZM836.497 31.7C835.55 31.7 834.704 31.4933 833.957 31.08C833.224 30.6667 832.65 30.0733 832.237 29.3C831.824 28.5133 831.617 27.58 831.617 26.5C831.617 25.42 831.824 24.4933 832.237 23.72C832.65 22.9333 833.217 22.3333 833.937 21.92C834.657 21.5067 835.477 21.3 836.397 21.3C837.33 21.3 838.124 21.5 838.777 21.9C839.444 22.3 839.95 22.8467 840.297 23.54C840.644 24.22 840.817 24.9867 840.817 25.84C840.817 26.0667 840.81 26.2733 840.797 26.46C840.784 26.6467 840.764 26.8133 840.737 26.96H832.657V25.54H840.037L839.217 25.7C839.217 24.74 838.95 24 838.417 23.48C837.897 22.96 837.21 22.7 836.357 22.7C835.704 22.7 835.137 22.8533 834.657 23.16C834.19 23.4533 833.824 23.8867 833.557 24.46C833.304 25.02 833.177 25.7 833.177 26.5C833.177 27.2867 833.31 27.9667 833.577 28.54C833.844 29.1133 834.217 29.5533 834.697 29.86C835.19 30.1533 835.777 30.3 836.457 30.3C837.19 30.3 837.784 30.16 838.237 29.88C838.704 29.6 839.077 29.22 839.357 28.74L840.617 29.48C840.364 29.9333 840.037 30.3267 839.637 30.66C839.25 30.9933 838.79 31.2533 838.257 31.44C837.737 31.6133 837.15 31.7 836.497 31.7Z" fill="white"/>
<path d="M879.261 18.3C880.155 18.3 880.928 18.4667 881.581 18.8C882.248 19.12 882.768 19.58 883.141 20.18C883.515 20.78 883.701 21.4933 883.701 22.32C883.701 23.1467 883.515 23.86 883.141 24.46C882.768 25.06 882.248 25.5267 881.581 25.86C880.928 26.18 880.155 26.34 879.261 26.34H876.201V31.5H874.601V18.3H879.261ZM879.021 24.84C880.061 24.84 880.821 24.6267 881.301 24.2C881.781 23.76 882.021 23.1333 882.021 22.32C882.021 21.4933 881.781 20.8667 881.301 20.44C880.821 20.0133 880.061 19.8 879.021 19.8H876.201V24.84H879.021ZM890.473 21.3C891.419 21.3 892.253 21.5067 892.973 21.92C893.706 22.3333 894.279 22.9333 894.693 23.72C895.106 24.4933 895.313 25.42 895.313 26.5C895.313 27.58 895.106 28.5133 894.693 29.3C894.279 30.0733 893.706 30.6667 892.973 31.08C892.253 31.4933 891.419 31.7 890.473 31.7C889.539 31.7 888.706 31.4933 887.973 31.08C887.239 30.6667 886.666 30.0733 886.253 29.3C885.839 28.5133 885.633 27.58 885.633 26.5C885.633 25.42 885.839 24.4933 886.253 23.72C886.666 22.9333 887.239 22.3333 887.973 21.92C888.706 21.5067 889.539 21.3 890.473 21.3ZM890.473 22.68C889.793 22.68 889.213 22.8333 888.733 23.14C888.253 23.4467 887.879 23.8867 887.613 24.46C887.359 25.02 887.233 25.7 887.233 26.5C887.233 27.2867 887.359 27.9667 887.613 28.54C887.879 29.1133 888.253 29.5533 888.733 29.86C889.213 30.1667 889.793 30.32 890.473 30.32C891.153 30.32 891.733 30.1667 892.213 29.86C892.693 29.5533 893.059 29.1133 893.313 28.54C893.579 27.9667 893.713 27.2867 893.713 26.5C893.713 25.7 893.579 25.02 893.313 24.46C893.059 23.8867 892.693 23.4467 892.213 23.14C891.733 22.8333 891.153 22.68 890.473 22.68ZM898.325 31.5V21.5H899.625L899.845 23.14C900.125 22.5267 900.532 22.0667 901.065 21.76C901.612 21.4533 902.272 21.3 903.045 21.3C903.218 21.3 903.405 21.3133 903.605 21.34C903.818 21.3667 903.998 21.42 904.145 21.5L903.865 22.96C903.718 22.9067 903.558 22.8667 903.385 22.84C903.212 22.8133 902.965 22.8 902.645 22.8C902.232 22.8 901.812 22.92 901.385 23.16C900.972 23.4 900.625 23.7667 900.345 24.26C900.065 24.74 899.925 25.3533 899.925 26.1V31.5H898.325ZM908.243 18.66V28.74C908.243 29.2333 908.383 29.6 908.663 29.84C908.943 30.08 909.303 30.2 909.743 30.2C910.13 30.2 910.463 30.1333 910.743 30C911.023 29.8667 911.277 29.6867 911.503 29.46L912.063 30.8C911.757 31.08 911.39 31.3 910.963 31.46C910.55 31.62 910.07 31.7 909.523 31.7C909.017 31.7 908.543 31.6133 908.103 31.44C907.663 31.2533 907.31 30.9667 907.043 30.58C906.79 30.18 906.657 29.66 906.643 29.02V19.1L908.243 18.66ZM911.883 21.5V22.88H904.643V21.5H911.883ZM917.932 16.8C918.278 16.8 918.605 16.84 918.912 16.92C919.218 17 919.458 17.1133 919.632 17.26L919.212 18.56C919.052 18.4533 918.878 18.38 918.692 18.34C918.505 18.2867 918.298 18.26 918.072 18.26C917.498 18.26 917.052 18.4 916.732 18.68C916.412 18.9467 916.252 19.38 916.252 19.98V21.5V22.02V31.5H914.652V19.82C914.652 19.38 914.718 18.9733 914.852 18.6C914.985 18.2267 915.185 17.9067 915.452 17.64C915.732 17.3733 916.078 17.1667 916.492 17.02C916.905 16.8733 917.385 16.8 917.932 16.8ZM919.592 21.5V22.88H912.652V21.5H919.592ZM925.59 21.3C926.537 21.3 927.37 21.5067 928.09 21.92C928.823 22.3333 929.397 22.9333 929.81 23.72C930.223 24.4933 930.43 25.42 930.43 26.5C930.43 27.58 930.223 28.5133 929.81 29.3C929.397 30.0733 928.823 30.6667 928.09 31.08C927.37 31.4933 926.537 31.7 925.59 31.7C924.657 31.7 923.823 31.4933 923.09 31.08C922.357 30.6667 921.783 30.0733 921.37 29.3C920.957 28.5133 920.75 27.58 920.75 26.5C920.75 25.42 920.957 24.4933 921.37 23.72C921.783 22.9333 922.357 22.3333 923.09 21.92C923.823 21.5067 924.657 21.3 925.59 21.3ZM925.59 22.68C924.91 22.68 924.33 22.8333 923.85 23.14C923.37 23.4467 922.997 23.8867 922.73 24.46C922.477 25.02 922.35 25.7 922.35 26.5C922.35 27.2867 922.477 27.9667 922.73 28.54C922.997 29.1133 923.37 29.5533 923.85 29.86C924.33 30.1667 924.91 30.32 925.59 30.32C926.27 30.32 926.85 30.1667 927.33 29.86C927.81 29.5533 928.177 29.1133 928.43 28.54C928.697 27.9667 928.83 27.2867 928.83 26.5C928.83 25.7 928.697 25.02 928.43 24.46C928.177 23.8867 927.81 23.4467 927.33 23.14C926.85 22.8333 926.27 22.68 925.59 22.68ZM934.962 16.9V28.96C934.962 29.4667 935.055 29.82 935.242 30.02C935.429 30.2067 935.729 30.3 936.142 30.3C936.409 30.3 936.629 30.28 936.802 30.24C936.975 30.2 937.209 30.1267 937.502 30.02L937.242 31.42C937.029 31.5133 936.795 31.58 936.542 31.62C936.289 31.6733 936.029 31.7 935.762 31.7C934.949 31.7 934.342 31.48 933.942 31.04C933.555 30.6 933.362 29.9267 933.362 29.02V16.9H934.962ZM940.355 19.58C939.995 19.58 939.702 19.4733 939.475 19.26C939.262 19.0333 939.155 18.74 939.155 18.38C939.155 18.02 939.262 17.7333 939.475 17.52C939.702 17.2933 939.995 17.18 940.355 17.18C940.715 17.18 941.002 17.2933 941.215 17.52C941.442 17.7333 941.555 18.02 941.555 18.38C941.555 18.74 941.442 19.0333 941.215 19.26C941.002 19.4733 940.715 19.58 940.355 19.58ZM941.155 21.5V31.5H939.555V21.5H941.155ZM949.008 21.3C949.954 21.3 950.788 21.5067 951.508 21.92C952.241 22.3333 952.814 22.9333 953.228 23.72C953.641 24.4933 953.848 25.42 953.848 26.5C953.848 27.58 953.641 28.5133 953.228 29.3C952.814 30.0733 952.241 30.6667 951.508 31.08C950.788 31.4933 949.954 31.7 949.008 31.7C948.074 31.7 947.241 31.4933 946.508 31.08C945.774 30.6667 945.201 30.0733 944.788 29.3C944.374 28.5133 944.168 27.58 944.168 26.5C944.168 25.42 944.374 24.4933 944.788 23.72C945.201 22.9333 945.774 22.3333 946.508 21.92C947.241 21.5067 948.074 21.3 949.008 21.3ZM949.008 22.68C948.328 22.68 947.748 22.8333 947.268 23.14C946.788 23.4467 946.414 23.8867 946.148 24.46C945.894 25.02 945.768 25.7 945.768 26.5C945.768 27.2867 945.894 27.9667 946.148 28.54C946.414 29.1133 946.788 29.5533 947.268 29.86C947.748 30.1667 948.328 30.32 949.008 30.32C949.688 30.32 950.268 30.1667 950.748 29.86C951.228 29.5533 951.594 29.1133 951.848 28.54C952.114 27.9667 952.248 27.2867 952.248 26.5C952.248 25.7 952.114 25.02 951.848 24.46C951.594 23.8867 951.228 23.4467 950.748 23.14C950.268 22.8333 949.688 22.68 949.008 22.68Z" fill="white"/>
<path d="M991.896 18.1C993.056 18.1 994.056 18.34 994.896 18.82C995.736 19.2867 996.436 19.98 996.996 20.9L995.656 21.94C995.163 21.0867 994.603 20.4867 993.976 20.14C993.363 19.78 992.616 19.6 991.736 19.6C991.029 19.6 990.443 19.7 989.976 19.9C989.523 20.1 989.189 20.3667 988.976 20.7C988.763 21.02 988.656 21.3867 988.656 21.8C988.656 22.2667 988.803 22.68 989.096 23.04C989.389 23.3867 989.976 23.66 990.856 23.86L993.716 24.5C994.983 24.78 995.863 25.2067 996.356 25.78C996.863 26.34 997.116 27.04 997.116 27.88C997.116 28.6267 996.903 29.2933 996.476 29.88C996.063 30.4533 995.476 30.9 994.716 31.22C993.956 31.54 993.063 31.7 992.036 31.7C991.076 31.7 990.229 31.5733 989.496 31.32C988.776 31.0533 988.156 30.7 987.636 30.26C987.116 29.82 986.689 29.3267 986.356 28.78L987.756 27.64C988.009 28.1467 988.336 28.5933 988.736 28.98C989.136 29.3667 989.616 29.6667 990.176 29.88C990.749 30.0933 991.403 30.2 992.136 30.2C992.816 30.2 993.403 30.12 993.896 29.96C994.403 29.7867 994.789 29.54 995.056 29.22C995.323 28.8867 995.456 28.4867 995.456 28.02C995.456 27.5933 995.316 27.2133 995.036 26.88C994.756 26.5333 994.229 26.2733 993.456 26.1L990.356 25.4C989.543 25.2133 988.883 24.96 988.376 24.64C987.883 24.3067 987.523 23.92 987.296 23.48C987.083 23.0267 986.976 22.54 986.976 22.02C986.976 21.3133 987.169 20.6667 987.556 20.08C987.956 19.48 988.523 19 989.256 18.64C990.003 18.28 990.883 18.1 991.896 18.1ZM1004.35 31.7C1003.4 31.7 1002.56 31.4933 1001.81 31.08C1001.08 30.6667 1000.5 30.0733 1000.09 29.3C999.675 28.5133 999.469 27.58 999.469 26.5C999.469 25.42 999.675 24.4933 1000.09 23.72C1000.5 22.9333 1001.07 22.3333 1001.79 21.92C1002.51 21.5067 1003.33 21.3 1004.25 21.3C1005.18 21.3 1005.98 21.5 1006.63 21.9C1007.3 22.3 1007.8 22.8467 1008.15 23.54C1008.5 24.22 1008.67 24.9867 1008.67 25.84C1008.67 26.0667 1008.66 26.2733 1008.65 26.46C1008.64 26.6467 1008.62 26.8133 1008.59 26.96H1000.51V25.54H1007.89L1007.07 25.7C1007.07 24.74 1006.8 24 1006.27 23.48C1005.75 22.96 1005.06 22.7 1004.21 22.7C1003.56 22.7 1002.99 22.8533 1002.51 23.16C1002.04 23.4533 1001.68 23.8867 1001.41 24.46C1001.16 25.02 1001.03 25.7 1001.03 26.5C1001.03 27.2867 1001.16 27.9667 1001.43 28.54C1001.7 29.1133 1002.07 29.5533 1002.55 29.86C1003.04 30.1533 1003.63 30.3 1004.31 30.3C1005.04 30.3 1005.64 30.16 1006.09 29.88C1006.56 29.6 1006.93 29.22 1007.21 28.74L1008.47 29.48C1008.22 29.9333 1007.89 30.3267 1007.49 30.66C1007.1 30.9933 1006.64 31.2533 1006.11 31.44C1005.59 31.6133 1005 31.7 1004.35 31.7ZM1011.71 31.5V21.5H1013.01L1013.23 23.14C1013.51 22.5267 1013.92 22.0667 1014.45 21.76C1015 21.4533 1015.66 21.3 1016.43 21.3C1016.6 21.3 1016.79 21.3133 1016.99 21.34C1017.2 21.3667 1017.38 21.42 1017.53 21.5L1017.25 22.96C1017.1 22.9067 1016.94 22.8667 1016.77 22.84C1016.6 22.8133 1016.35 22.8 1016.03 22.8C1015.62 22.8 1015.2 22.92 1014.77 23.16C1014.36 23.4 1014.01 23.7667 1013.73 24.26C1013.45 24.74 1013.31 25.3533 1013.31 26.1V31.5H1011.71ZM1026.5 21.5H1028.18L1024.02 31.5H1022.42L1018.26 21.5H1020.08L1023.24 29.88L1026.5 21.5ZM1031.07 19.58C1030.71 19.58 1030.41 19.4733 1030.19 19.26C1029.97 19.0333 1029.87 18.74 1029.87 18.38C1029.87 18.02 1029.97 17.7333 1030.19 17.52C1030.41 17.2933 1030.71 17.18 1031.07 17.18C1031.43 17.18 1031.71 17.2933 1031.93 17.52C1032.15 17.7333 1032.27 18.02 1032.27 18.38C1032.27 18.74 1032.15 19.0333 1031.93 19.26C1031.71 19.4733 1031.43 19.58 1031.07 19.58ZM1031.87 21.5V31.5H1030.27V21.5H1031.87ZM1039.72 21.3C1040.41 21.3 1041.02 21.4067 1041.54 21.62C1042.07 21.8333 1042.53 22.14 1042.92 22.54C1043.31 22.94 1043.62 23.4133 1043.86 23.96L1042.34 24.68C1042.13 24.04 1041.8 23.5533 1041.36 23.22C1040.93 22.8733 1040.37 22.7 1039.68 22.7C1039.01 22.7 1038.44 22.8533 1037.96 23.16C1037.48 23.4533 1037.11 23.8867 1036.86 24.46C1036.61 25.02 1036.48 25.7 1036.48 26.5C1036.48 27.2867 1036.61 27.9667 1036.86 28.54C1037.11 29.1133 1037.48 29.5533 1037.96 29.86C1038.44 30.1533 1039.01 30.3 1039.68 30.3C1040.2 30.3 1040.65 30.22 1041.02 30.06C1041.41 29.9 1041.72 29.6667 1041.96 29.36C1042.21 29.0533 1042.39 28.68 1042.48 28.24L1043.96 28.76C1043.73 29.3733 1043.42 29.9 1043.02 30.34C1042.63 30.78 1042.16 31.12 1041.6 31.36C1041.05 31.5867 1040.43 31.7 1039.72 31.7C1038.79 31.7 1037.95 31.4933 1037.22 31.08C1036.49 30.6667 1035.91 30.0733 1035.5 29.3C1035.09 28.5133 1034.88 27.58 1034.88 26.5C1034.88 25.42 1035.09 24.4933 1035.5 23.72C1035.91 22.9333 1036.49 22.3333 1037.22 21.92C1037.95 21.5067 1038.79 21.3 1039.72 21.3ZM1050.95 31.7C1050 31.7 1049.16 31.4933 1048.41 31.08C1047.68 30.6667 1047.1 30.0733 1046.69 29.3C1046.28 28.5133 1046.07 27.58 1046.07 26.5C1046.07 25.42 1046.28 24.4933 1046.69 23.72C1047.1 22.9333 1047.67 22.3333 1048.39 21.92C1049.11 21.5067 1049.93 21.3 1050.85 21.3C1051.78 21.3 1052.58 21.5 1053.23 21.9C1053.9 22.3 1054.4 22.8467 1054.75 23.54C1055.1 24.22 1055.27 24.9867 1055.27 25.84C1055.27 26.0667 1055.26 26.2733 1055.25 26.46C1055.24 26.6467 1055.22 26.8133 1055.19 26.96H1047.11V25.54H1054.49L1053.67 25.7C1053.67 24.74 1053.4 24 1052.87 23.48C1052.35 22.96 1051.66 22.7 1050.81 22.7C1050.16 22.7 1049.59 22.8533 1049.11 23.16C1048.64 23.4533 1048.28 23.8867 1048.01 24.46C1047.76 25.02 1047.63 25.7 1047.63 26.5C1047.63 27.2867 1047.76 27.9667 1048.03 28.54C1048.3 29.1133 1048.67 29.5533 1049.15 29.86C1049.64 30.1533 1050.23 30.3 1050.91 30.3C1051.64 30.3 1052.24 30.16 1052.69 29.88C1053.16 29.6 1053.53 29.22 1053.81 28.74L1055.07 29.48C1054.82 29.9333 1054.49 30.3267 1054.09 30.66C1053.7 30.9933 1053.24 31.2533 1052.71 31.44C1052.19 31.6133 1051.6 31.7 1050.95 31.7ZM1061.91 31.7C1060.94 31.7 1060.04 31.4933 1059.21 31.08C1058.4 30.6667 1057.77 30.08 1057.33 29.32L1058.69 28.34C1058.99 28.9533 1059.41 29.4333 1059.97 29.78C1060.55 30.1267 1061.23 30.3 1062.03 30.3C1062.74 30.3 1063.29 30.1667 1063.69 29.9C1064.09 29.62 1064.29 29.26 1064.29 28.82C1064.29 28.54 1064.2 28.2867 1064.01 28.06C1063.84 27.82 1063.5 27.6467 1062.99 27.54L1060.59 27.04C1059.62 26.84 1058.92 26.5067 1058.49 26.04C1058.08 25.5733 1057.87 24.9933 1057.87 24.3C1057.87 23.7533 1058.03 23.2533 1058.33 22.8C1058.65 22.3467 1059.1 21.9867 1059.67 21.72C1060.26 21.44 1060.95 21.3 1061.73 21.3C1062.72 21.3 1063.55 21.4933 1064.23 21.88C1064.91 22.2667 1065.42 22.8133 1065.75 23.52L1064.41 24.4C1064.19 23.8133 1063.82 23.3867 1063.31 23.12C1062.81 22.84 1062.28 22.7 1061.73 22.7C1061.25 22.7 1060.84 22.7667 1060.49 22.9C1060.16 23.0333 1059.9 23.22 1059.71 23.46C1059.54 23.6867 1059.45 23.9467 1059.45 24.24C1059.45 24.5333 1059.55 24.8067 1059.75 25.06C1059.95 25.3 1060.33 25.4733 1060.87 25.58L1063.37 26.1C1064.31 26.2867 1064.96 26.5933 1065.33 27.02C1065.71 27.4467 1065.89 27.9667 1065.89 28.58C1065.89 29.2067 1065.73 29.76 1065.39 30.24C1065.06 30.7067 1064.59 31.0667 1063.99 31.32C1063.39 31.5733 1062.7 31.7 1061.91 31.7Z" fill="white"/>
<path d="M1110.57 28.12C1110.29 28.8667 1109.89 29.5133 1109.37 30.06C1108.85 30.5933 1108.24 31 1107.53 31.28C1106.84 31.56 1106.08 31.7 1105.25 31.7C1104 31.7 1102.91 31.4267 1101.99 30.88C1101.09 30.32 1100.38 29.5333 1099.87 28.52C1099.38 27.5067 1099.13 26.3 1099.13 24.9C1099.13 23.5 1099.38 22.2933 1099.87 21.28C1100.38 20.2667 1101.09 19.4867 1101.99 18.94C1102.91 18.38 1103.99 18.1 1105.21 18.1C1106.07 18.1 1106.83 18.22 1107.49 18.46C1108.16 18.6867 1108.73 19.0333 1109.19 19.5C1109.67 19.9533 1110.05 20.5133 1110.33 21.18L1108.75 21.92C1108.46 21.16 1108.03 20.5867 1107.47 20.2C1106.93 19.8 1106.21 19.6 1105.33 19.6C1104.44 19.6 1103.65 19.8133 1102.97 20.24C1102.29 20.6533 1101.76 21.2533 1101.37 22.04C1101 22.8267 1100.81 23.78 1100.81 24.9C1100.81 26.0067 1100.99 26.96 1101.35 27.76C1101.71 28.5467 1102.23 29.1533 1102.89 29.58C1103.56 29.9933 1104.35 30.2 1105.25 30.2C1106.13 30.2 1106.9 29.98 1107.55 29.54C1108.21 29.0867 1108.68 28.4133 1108.97 27.52L1110.57 28.12ZM1117.48 21.3C1118.43 21.3 1119.26 21.5067 1119.98 21.92C1120.72 22.3333 1121.29 22.9333 1121.7 23.72C1122.12 24.4933 1122.32 25.42 1122.32 26.5C1122.32 27.58 1122.12 28.5133 1121.7 29.3C1121.29 30.0733 1120.72 30.6667 1119.98 31.08C1119.26 31.4933 1118.43 31.7 1117.48 31.7C1116.55 31.7 1115.72 31.4933 1114.98 31.08C1114.25 30.6667 1113.68 30.0733 1113.26 29.3C1112.85 28.5133 1112.64 27.58 1112.64 26.5C1112.64 25.42 1112.85 24.4933 1113.26 23.72C1113.68 22.9333 1114.25 22.3333 1114.98 21.92C1115.72 21.5067 1116.55 21.3 1117.48 21.3ZM1117.48 22.68C1116.8 22.68 1116.22 22.8333 1115.74 23.14C1115.26 23.4467 1114.89 23.8867 1114.62 24.46C1114.37 25.02 1114.24 25.7 1114.24 26.5C1114.24 27.2867 1114.37 27.9667 1114.62 28.54C1114.89 29.1133 1115.26 29.5533 1115.74 29.86C1116.22 30.1667 1116.8 30.32 1117.48 30.32C1118.16 30.32 1118.74 30.1667 1119.22 29.86C1119.7 29.5533 1120.07 29.1133 1120.32 28.54C1120.59 27.9667 1120.72 27.2867 1120.72 26.5C1120.72 25.7 1120.59 25.02 1120.32 24.46C1120.07 23.8867 1119.7 23.4467 1119.22 23.14C1118.74 22.8333 1118.16 22.68 1117.48 22.68ZM1125.34 31.5V21.5H1126.74L1126.88 23.74L1126.62 23.52C1126.83 22.9867 1127.12 22.56 1127.48 22.24C1127.84 21.9067 1128.25 21.6667 1128.72 21.52C1129.2 21.3733 1129.69 21.3 1130.2 21.3C1130.92 21.3 1131.57 21.44 1132.16 21.72C1132.74 21.9867 1133.21 22.4 1133.56 22.96C1133.92 23.52 1134.1 24.2333 1134.1 25.1V31.5H1132.5V25.66C1132.5 24.5533 1132.26 23.7867 1131.78 23.36C1131.31 22.92 1130.73 22.7 1130.04 22.7C1129.56 22.7 1129.08 22.8133 1128.6 23.04C1128.12 23.2667 1127.72 23.6333 1127.4 24.14C1127.09 24.6467 1126.94 25.3267 1126.94 26.18V31.5H1125.34ZM1139.94 18.66V28.74C1139.94 29.2333 1140.08 29.6 1140.36 29.84C1140.64 30.08 1141 30.2 1141.44 30.2C1141.83 30.2 1142.16 30.1333 1142.44 30C1142.72 29.8667 1142.98 29.6867 1143.2 29.46L1143.76 30.8C1143.46 31.08 1143.09 31.3 1142.66 31.46C1142.25 31.62 1141.77 31.7 1141.22 31.7C1140.72 31.7 1140.24 31.6133 1139.8 31.44C1139.36 31.2533 1139.01 30.9667 1138.74 30.58C1138.49 30.18 1138.36 29.66 1138.34 29.02V19.1L1139.94 18.66ZM1143.58 21.5V22.88H1136.34V21.5H1143.58ZM1151.8 25.04C1151.8 24.2933 1151.6 23.72 1151.2 23.32C1150.8 22.9067 1150.23 22.7 1149.5 22.7C1148.81 22.7 1148.22 22.8533 1147.74 23.16C1147.26 23.4533 1146.91 23.9333 1146.68 24.6L1145.38 23.8C1145.65 23.0533 1146.14 22.4533 1146.86 22C1147.58 21.5333 1148.47 21.3 1149.54 21.3C1150.26 21.3 1150.91 21.4267 1151.5 21.68C1152.09 21.92 1152.55 22.2933 1152.88 22.8C1153.23 23.2933 1153.4 23.9333 1153.4 24.72V29.56C1153.4 30.04 1153.65 30.28 1154.16 30.28C1154.41 30.28 1154.66 30.2467 1154.9 30.18L1154.82 31.44C1154.55 31.5733 1154.21 31.64 1153.78 31.64C1153.39 31.64 1153.05 31.5667 1152.74 31.42C1152.43 31.2733 1152.19 31.0533 1152.02 30.76C1151.85 30.4533 1151.76 30.0733 1151.76 29.62V29.42L1152.16 29.48C1152 30 1151.73 30.4267 1151.34 30.76C1150.95 31.08 1150.52 31.32 1150.04 31.48C1149.56 31.6267 1149.09 31.7 1148.62 31.7C1148.03 31.7 1147.49 31.6 1146.98 31.4C1146.47 31.2 1146.07 30.9 1145.76 30.5C1145.47 30.0867 1145.32 29.58 1145.32 28.98C1145.32 28.2333 1145.57 27.62 1146.06 27.14C1146.57 26.6467 1147.27 26.3133 1148.16 26.14L1152.12 25.36V26.68L1148.9 27.34C1148.25 27.4733 1147.76 27.66 1147.44 27.9C1147.12 28.14 1146.96 28.4733 1146.96 28.9C1146.96 29.3133 1147.12 29.6533 1147.44 29.92C1147.77 30.1733 1148.24 30.3 1148.84 30.3C1149.23 30.3 1149.59 30.2533 1149.94 30.16C1150.3 30.0533 1150.62 29.9 1150.9 29.7C1151.18 29.4867 1151.4 29.2267 1151.56 28.92C1151.72 28.6 1151.8 28.2267 1151.8 27.8V25.04ZM1161.43 21.3C1162.12 21.3 1162.73 21.4067 1163.25 21.62C1163.78 21.8333 1164.24 22.14 1164.63 22.54C1165.02 22.94 1165.33 23.4133 1165.57 23.96L1164.05 24.68C1163.84 24.04 1163.51 23.5533 1163.07 23.22C1162.64 22.8733 1162.08 22.7 1161.39 22.7C1160.72 22.7 1160.15 22.8533 1159.67 23.16C1159.19 23.4533 1158.82 23.8867 1158.57 24.46C1158.32 25.02 1158.19 25.7 1158.19 26.5C1158.19 27.2867 1158.32 27.9667 1158.57 28.54C1158.82 29.1133 1159.19 29.5533 1159.67 29.86C1160.15 30.1533 1160.72 30.3 1161.39 30.3C1161.91 30.3 1162.36 30.22 1162.73 30.06C1163.12 29.9 1163.43 29.6667 1163.67 29.36C1163.92 29.0533 1164.1 28.68 1164.19 28.24L1165.67 28.76C1165.44 29.3733 1165.13 29.9 1164.73 30.34C1164.34 30.78 1163.87 31.12 1163.31 31.36C1162.76 31.5867 1162.14 31.7 1161.43 31.7C1160.5 31.7 1159.66 31.4933 1158.93 31.08C1158.2 30.6667 1157.62 30.0733 1157.21 29.3C1156.8 28.5133 1156.59 27.58 1156.59 26.5C1156.59 25.42 1156.8 24.4933 1157.21 23.72C1157.62 22.9333 1158.2 22.3333 1158.93 21.92C1159.66 21.5067 1160.5 21.3 1161.43 21.3ZM1170.84 18.66V28.74C1170.84 29.2333 1170.98 29.6 1171.26 29.84C1171.54 30.08 1171.9 30.2 1172.34 30.2C1172.73 30.2 1173.06 30.1333 1173.34 30C1173.62 29.8667 1173.87 29.6867 1174.1 29.46L1174.66 30.8C1174.35 31.08 1173.99 31.3 1173.56 31.46C1173.15 31.62 1172.67 31.7 1172.12 31.7C1171.61 31.7 1171.14 31.6133 1170.7 31.44C1170.26 31.2533 1169.91 30.9667 1169.64 30.58C1169.39 30.18 1169.25 29.66 1169.24 29.02V19.1L1170.84 18.66ZM1174.48 21.5V22.88H1167.24V21.5H1174.48Z" fill="white"/>
</svg>
