<svg width="1440" height="125" viewBox="0 0 1440 125" fill="none" xmlns="http://www.w3.org/2000/svg">
<rect width="1440" height="125" fill="#74C69D"/>
<path d="M140.009 64.6251L140.509 61.3676H137.383V59.2532C137.383 58.3619 137.82 57.4935 139.22 57.4935H140.641V54.7198C140.641 54.7198 139.352 54.5 138.118 54.5C135.544 54.5 133.862 56.0598 133.862 58.8844V61.3676H131V64.6251H133.862V72.5H137.383V64.6251H140.009Z" fill="white"/>
<path d="M174.406 57.7136C173.823 57.7136 173.35 58.1862 173.35 58.7687C173.35 59.3517 173.823 59.8244 174.406 59.8244C174.988 59.8244 175.461 59.3517 175.461 58.7687C175.461 58.1862 174.988 57.7136 174.406 57.7136Z" fill="white"/>
<path d="M169.714 66.3392C168.148 66.3392 166.874 65.0654 166.874 63.5C166.874 61.9341 168.148 60.6602 169.714 60.6602C171.279 60.6602 172.553 61.9341 172.553 63.5C172.553 65.0654 171.279 66.3392 169.714 66.3392ZM169.714 59.0669C167.27 59.0669 165.281 61.0555 165.281 63.5C165.281 65.9439 167.27 67.9326 169.714 67.9326C172.158 67.9326 174.147 65.9439 174.147 63.5C174.147 61.0555 172.158 59.0669 169.714 59.0669Z" fill="white"/>
<path d="M166.047 56.1936C163.999 56.1936 162.334 57.8592 162.334 59.9068V67.0932C162.334 69.1408 163.999 70.8064 166.047 70.8064H173.233C175.281 70.8064 176.947 69.1408 176.947 67.0932V59.9068C176.947 57.8592 175.281 56.1936 173.233 56.1936H166.047ZM173.233 72.5H166.047C163.065 72.5 160.641 70.0744 160.641 67.0932V59.9068C160.641 56.9251 163.065 54.5 166.047 54.5H173.233C176.215 54.5 178.64 56.9251 178.64 59.9068V67.0932C178.64 70.0744 176.215 72.5 173.233 72.5Z" fill="white"/>
<path d="M220.42 56.6576C219.725 56.972 218.958 57.1623 218.208 57.2879C218.564 57.2284 219.086 56.5844 219.296 56.3239C219.615 55.9271 219.88 55.4743 220.03 54.9854C220.049 54.9472 220.064 54.8994 220.025 54.8704C219.977 54.8516 219.946 54.8613 219.908 54.8801C219.071 55.3283 218.206 55.6534 217.285 55.8838C217.209 55.9026 217.152 55.8838 217.104 55.8355C217.028 55.7495 216.956 55.6681 216.875 55.6015C216.488 55.2723 216.073 55.0139 215.605 54.8231C214.99 54.5728 214.319 54.4665 213.657 54.5092C213.012 54.5514 212.38 54.7325 211.809 55.0312C211.236 55.3303 210.725 55.747 210.317 56.2491C209.896 56.769 209.586 57.3821 209.427 58.0327C209.274 58.6605 209.286 59.2812 209.38 59.9156C209.394 60.0209 209.385 60.0352 209.289 60.0209C205.688 59.4847 202.703 58.1966 200.279 55.4346C200.174 55.3145 200.117 55.3145 200.031 55.4438C198.97 57.0336 199.484 59.587 200.809 60.842C200.986 61.0099 201.167 61.1768 201.363 61.3294C201.292 61.3441 200.41 61.249 199.624 60.842C199.52 60.7754 199.466 60.814 199.457 60.9331C199.447 61.105 199.462 61.2633 199.485 61.4495C199.689 63.0606 200.805 64.5507 202.333 65.1327C202.515 65.2091 202.716 65.2757 202.911 65.3093C202.563 65.3856 202.204 65.44 201.206 65.3617C201.081 65.3383 201.034 65.4003 201.081 65.5199C201.832 67.5645 203.451 68.1735 204.664 68.5199C204.827 68.5484 204.99 68.5484 205.152 68.5866C205.142 68.6013 205.133 68.6013 205.123 68.6156C204.721 69.2286 203.326 69.685 202.676 69.9119C201.495 70.325 200.208 70.5107 198.96 70.3875C198.761 70.358 198.718 70.3606 198.664 70.3875C198.609 70.4216 198.657 70.4694 198.721 70.5213C198.975 70.6887 199.233 70.8368 199.496 70.9802C200.288 71.4004 201.115 71.7352 201.98 71.9738C206.444 73.2065 211.472 72.3004 214.825 68.9702C217.457 66.3547 218.38 62.7478 218.38 59.1367C218.38 58.9953 218.547 58.9174 218.645 58.8427C219.33 58.3283 219.883 57.7122 220.394 57.0249C220.509 56.8703 220.51 56.7329 220.51 56.6764C220.51 56.6668 220.51 56.6576 220.51 56.6576C220.51 56.5996 220.509 56.6174 220.42 56.6576Z" fill="white"/>
<path fill-rule="evenodd" clip-rule="evenodd" d="M246.338 66.2417C246.323 66.2936 246.309 66.3368 246.298 66.3806C245.636 68.9706 245.563 69.546 244.884 70.7497C244.559 71.321 244.194 71.8628 243.791 72.3817C243.745 72.4402 243.703 72.5155 243.611 72.4972C243.512 72.4758 243.504 72.3863 243.493 72.3064C243.384 71.5194 243.325 70.7298 243.35 69.9357C243.385 68.9004 243.513 68.5453 244.847 62.9328C244.867 62.8474 244.845 62.7767 244.817 62.6988C244.497 61.8375 244.434 60.963 244.713 60.0768C245.317 58.1624 247.487 58.0158 247.867 59.5955C248.1 60.5723 247.482 61.8502 247.007 63.7397C246.614 65.299 248.449 66.407 250.018 65.269C251.464 64.22 252.026 61.7042 251.919 59.9216C251.709 56.3675 247.812 55.5993 245.338 56.744C242.504 58.0545 241.859 61.5684 243.139 63.174C243.301 63.3785 243.426 63.5031 243.373 63.7107C243.29 64.0317 243.218 64.3558 243.129 64.6758C243.063 64.9134 242.864 65.0004 242.623 64.9022C242.151 64.7114 241.758 64.4112 241.439 64.0154C240.352 62.6698 240.042 60.0071 241.478 57.7538C243.071 55.2564 246.033 54.2466 248.736 54.5533C251.966 54.9201 254.007 57.1271 254.389 59.6301C254.563 60.7707 254.438 63.5825 252.838 65.5702C250.995 67.8539 248.01 68.005 246.633 66.6034C246.527 66.4961 246.442 66.3699 246.338 66.2417Z" fill="white"/>
<path d="M289.849 61.7829C289.702 61.7969 289.554 61.8043 289.406 61.8053C287.785 61.8053 286.274 60.9883 285.386 59.6321V67.0312C285.386 70.0519 282.937 72.5 279.917 72.5C276.896 72.5 274.448 70.0519 274.448 67.0312C274.448 64.011 276.896 61.5629 279.917 61.5629C280.031 61.5629 280.143 61.5729 280.255 61.5799V64.2749C280.143 64.2614 280.032 64.241 279.917 64.241C278.375 64.241 277.126 65.4909 277.126 67.0317C277.126 68.5735 278.375 69.823 279.917 69.823C281.459 69.823 282.82 68.6084 282.82 67.0666L282.848 54.5H285.426C285.669 56.8119 287.533 58.6181 289.852 58.7876V61.7829" fill="white"/>
<path d="M314.932 69.3997L315.237 69.5813C316.355 70.2478 317.628 70.6003 318.917 70.6003C322.893 70.6003 326.127 67.3662 326.127 63.3904C326.127 59.415 322.893 56.1804 318.917 56.1804C314.942 56.1804 311.707 59.415 311.707 63.3904C311.707 64.7029 312.072 65.9957 312.762 67.1286L312.949 67.4354L312.228 70.1241L314.932 69.3997ZM309.852 72.5L311.142 67.6857C310.411 66.367 310.027 64.8902 310.027 63.3904C310.027 58.4886 314.015 54.5 318.917 54.5C323.819 54.5 327.808 58.4886 327.808 63.3904C327.808 68.2927 323.819 72.2812 318.917 72.2812C317.446 72.2812 315.992 71.9093 314.691 71.2042L309.852 72.5Z" fill="white"/>
<path fill-rule="evenodd" clip-rule="evenodd" d="M322.224 64.6271C321.858 64.4079 321.382 64.1637 320.951 64.3397C320.621 64.4755 320.409 64.9934 320.195 65.2575C320.085 65.3933 319.954 65.4142 319.785 65.3465C318.543 64.8515 317.592 64.0228 316.907 62.8811C316.791 62.7036 316.812 62.5637 316.951 62.3993C317.159 62.1557 317.418 61.8789 317.474 61.5502C317.53 61.2221 317.376 60.8385 317.24 60.5455C317.067 60.172 316.873 59.6394 316.499 59.4277C316.155 59.2334 315.701 59.3423 315.395 59.5916C314.866 60.023 314.611 60.6976 314.618 61.3671C314.621 61.5574 314.644 61.7471 314.689 61.9303C314.795 62.3714 314.999 62.784 315.229 63.1752C315.402 63.4708 315.59 63.7577 315.793 64.0334C316.457 64.9355 317.283 65.7194 318.24 66.3055C318.718 66.598 319.232 66.855 319.765 67.031C320.363 67.2284 320.896 67.4339 321.541 67.3113C322.217 67.1831 322.884 66.7649 323.152 66.1137C323.231 65.9204 323.271 65.7057 323.227 65.5022C323.135 65.0809 322.565 64.8306 322.224 64.6271Z" fill="white"/>
<path d="M365.037 64.0035L358.566 67.205C358.312 67.3416 357.45 67.1578 357.45 66.8695V60.2985C357.45 60.0067 358.319 59.8229 358.573 59.9674L364.767 63.3369C365.027 63.485 365.299 63.8612 365.037 64.0035ZM373.522 60.1426C373.522 57.0263 370.996 54.5 367.879 54.5H353.45C350.333 54.5 347.808 57.0263 347.808 60.1426V66.8574C347.808 69.9744 350.333 72.5 353.45 72.5H367.879C370.996 72.5 373.522 69.9744 373.522 66.8574V60.1426Z" fill="white"/>
<path d="M991.555 70.2C990.195 70.2 989.002 69.9 987.975 69.3C986.949 68.7 986.149 67.8867 985.575 66.86C985.002 65.8333 984.715 64.68 984.715 63.4C984.715 62.1067 985.002 60.9533 985.575 59.94C986.149 58.9133 986.949 58.1 987.975 57.5C989.002 56.9 990.195 56.6 991.555 56.6C992.915 56.6 994.109 56.9 995.135 57.5C996.162 58.1 996.962 58.9133 997.535 59.94C998.109 60.9533 998.395 62.1067 998.395 63.4C998.395 64.68 998.109 65.8333 997.535 66.86C996.962 67.8867 996.162 68.7 995.135 69.3C994.109 69.9 992.915 70.2 991.555 70.2ZM991.555 68.9C992.635 68.9 993.582 68.66 994.395 68.18C995.209 67.6867 995.842 67.0267 996.295 66.2C996.749 65.36 996.975 64.4267 996.975 63.4C996.975 62.3733 996.749 61.4467 996.295 60.62C995.842 59.78 995.209 59.12 994.395 58.64C993.582 58.1467 992.635 57.9 991.555 57.9C990.489 57.9 989.542 58.1467 988.715 58.64C987.902 59.12 987.269 59.78 986.815 60.62C986.362 61.4467 986.135 62.3733 986.135 63.4C986.135 64.4267 986.362 65.36 986.815 66.2C987.269 67.0267 987.902 67.6867 988.715 68.18C989.542 68.66 990.489 68.9 991.555 68.9ZM991.695 67.14C990.562 67.14 989.669 66.8133 989.015 66.16C988.375 65.4933 988.055 64.5867 988.055 63.44C988.055 62.2933 988.375 61.3933 989.015 60.74C989.669 60.0733 990.562 59.74 991.695 59.74C992.482 59.74 993.135 59.9133 993.655 60.26C994.175 60.5933 994.562 61.0533 994.815 61.64L993.655 62.22C993.482 61.7933 993.235 61.4733 992.915 61.26C992.595 61.0467 992.182 60.94 991.675 60.94C990.969 60.94 990.409 61.16 989.995 61.6C989.595 62.04 989.395 62.6533 989.395 63.44C989.395 64.2267 989.595 64.84 989.995 65.28C990.409 65.72 990.969 65.94 991.675 65.94C992.209 65.94 992.649 65.8333 992.995 65.62C993.355 65.3933 993.622 65.0533 993.795 64.6L994.895 65.04C994.642 65.6933 994.249 66.2067 993.715 66.58C993.182 66.9533 992.509 67.14 991.695 67.14ZM1012.98 56.6C1014.14 56.6 1015.14 56.84 1015.98 57.32C1016.82 57.7867 1017.52 58.48 1018.08 59.4L1016.74 60.44C1016.24 59.5867 1015.68 58.9867 1015.06 58.64C1014.44 58.28 1013.7 58.1 1012.82 58.1C1012.11 58.1 1011.52 58.2 1011.06 58.4C1010.6 58.6 1010.27 58.8667 1010.06 59.2C1009.84 59.52 1009.74 59.8867 1009.74 60.3C1009.74 60.7667 1009.88 61.18 1010.18 61.54C1010.47 61.8867 1011.06 62.16 1011.94 62.36L1014.8 63C1016.06 63.28 1016.94 63.7067 1017.44 64.28C1017.94 64.84 1018.2 65.54 1018.2 66.38C1018.2 67.1267 1017.98 67.7933 1017.56 68.38C1017.14 68.9533 1016.56 69.4 1015.8 69.72C1015.04 70.04 1014.14 70.2 1013.12 70.2C1012.16 70.2 1011.31 70.0733 1010.58 69.82C1009.86 69.5533 1009.24 69.2 1008.72 68.76C1008.2 68.32 1007.77 67.8267 1007.44 67.28L1008.84 66.14C1009.09 66.6467 1009.42 67.0933 1009.82 67.48C1010.22 67.8667 1010.7 68.1667 1011.26 68.38C1011.83 68.5933 1012.48 68.7 1013.22 68.7C1013.9 68.7 1014.48 68.62 1014.98 68.46C1015.48 68.2867 1015.87 68.04 1016.14 67.72C1016.4 67.3867 1016.54 66.9867 1016.54 66.52C1016.54 66.0933 1016.4 65.7133 1016.12 65.38C1015.84 65.0333 1015.31 64.7733 1014.54 64.6L1011.44 63.9C1010.62 63.7133 1009.96 63.46 1009.46 63.14C1008.96 62.8067 1008.6 62.42 1008.38 61.98C1008.16 61.5267 1008.06 61.04 1008.06 60.52C1008.06 59.8133 1008.25 59.1667 1008.64 58.58C1009.04 57.98 1009.6 57.5 1010.34 57.14C1011.08 56.78 1011.96 56.6 1012.98 56.6ZM1023.61 57.16V67.24C1023.61 67.7333 1023.75 68.1 1024.03 68.34C1024.31 68.58 1024.67 68.7 1025.11 68.7C1025.5 68.7 1025.83 68.6333 1026.11 68.5C1026.39 68.3667 1026.64 68.1867 1026.87 67.96L1027.43 69.3C1027.12 69.58 1026.76 69.8 1026.33 69.96C1025.92 70.12 1025.44 70.2 1024.89 70.2C1024.38 70.2 1023.91 70.1133 1023.47 69.94C1023.03 69.7533 1022.68 69.4667 1022.41 69.08C1022.16 68.68 1022.02 68.16 1022.01 67.52V57.6L1023.61 57.16ZM1027.25 60V61.38H1020.01V60H1027.25ZM1035.47 63.54C1035.47 62.7933 1035.27 62.22 1034.87 61.82C1034.47 61.4067 1033.9 61.2 1033.17 61.2C1032.48 61.2 1031.89 61.3533 1031.41 61.66C1030.93 61.9533 1030.58 62.4333 1030.35 63.1L1029.05 62.3C1029.32 61.5533 1029.81 60.9533 1030.53 60.5C1031.25 60.0333 1032.14 59.8 1033.21 59.8C1033.93 59.8 1034.58 59.9267 1035.17 60.18C1035.76 60.42 1036.22 60.7933 1036.55 61.3C1036.9 61.7933 1037.07 62.4333 1037.07 63.22V68.06C1037.07 68.54 1037.32 68.78 1037.83 68.78C1038.08 68.78 1038.33 68.7467 1038.57 68.68L1038.49 69.94C1038.22 70.0733 1037.88 70.14 1037.45 70.14C1037.06 70.14 1036.72 70.0667 1036.41 69.92C1036.1 69.7733 1035.86 69.5533 1035.69 69.26C1035.52 68.9533 1035.43 68.5733 1035.43 68.12V67.92L1035.83 67.98C1035.67 68.5 1035.4 68.9267 1035.01 69.26C1034.62 69.58 1034.19 69.82 1033.71 69.98C1033.23 70.1267 1032.76 70.2 1032.29 70.2C1031.7 70.2 1031.16 70.1 1030.65 69.9C1030.14 69.7 1029.74 69.4 1029.43 69C1029.14 68.5867 1028.99 68.08 1028.99 67.48C1028.99 66.7333 1029.24 66.12 1029.73 65.64C1030.24 65.1467 1030.94 64.8133 1031.83 64.64L1035.79 63.86V65.18L1032.57 65.84C1031.92 65.9733 1031.43 66.16 1031.11 66.4C1030.79 66.64 1030.63 66.9733 1030.63 67.4C1030.63 67.8133 1030.79 68.1533 1031.11 68.42C1031.44 68.6733 1031.91 68.8 1032.51 68.8C1032.9 68.8 1033.26 68.7533 1033.61 68.66C1033.97 68.5533 1034.29 68.4 1034.57 68.2C1034.85 67.9867 1035.07 67.7267 1035.23 67.42C1035.39 67.1 1035.47 66.7267 1035.47 66.3V63.54ZM1040.96 70V60H1042.26L1042.48 61.64C1042.76 61.0267 1043.16 60.5667 1043.7 60.26C1044.24 59.9533 1044.9 59.8 1045.68 59.8C1045.85 59.8 1046.04 59.8133 1046.24 59.84C1046.45 59.8667 1046.63 59.92 1046.78 60L1046.5 61.46C1046.35 61.4067 1046.19 61.3667 1046.02 61.34C1045.84 61.3133 1045.6 61.3 1045.28 61.3C1044.86 61.3 1044.44 61.42 1044.02 61.66C1043.6 61.9 1043.26 62.2667 1042.98 62.76C1042.7 63.24 1042.56 63.8533 1042.56 64.6V70H1040.96ZM1050.88 57.16V67.24C1050.88 67.7333 1051.02 68.1 1051.3 68.34C1051.58 68.58 1051.94 68.7 1052.38 68.7C1052.76 68.7 1053.1 68.6333 1053.38 68.5C1053.66 68.3667 1053.91 68.1867 1054.14 67.96L1054.7 69.3C1054.39 69.58 1054.02 69.8 1053.6 69.96C1053.18 70.12 1052.7 70.2 1052.16 70.2C1051.65 70.2 1051.18 70.1133 1050.74 69.94C1050.3 69.7533 1049.94 69.4667 1049.68 69.08C1049.42 68.68 1049.29 68.16 1049.28 67.52V57.6L1050.88 57.16ZM1054.52 60V61.38H1047.28V60H1054.52ZM1057.7 67.6C1058.02 67.6 1058.28 67.6867 1058.5 67.86C1058.72 68.02 1058.9 68.2467 1059.02 68.54C1059.14 68.82 1059.2 69.1533 1059.2 69.54C1059.2 69.98 1059.12 70.4133 1058.96 70.84C1058.81 71.2667 1058.58 71.66 1058.26 72.02C1057.94 72.38 1057.52 72.68 1057.02 72.92L1056.18 72.14C1056.54 72.02 1056.85 71.8533 1057.12 71.64C1057.4 71.4267 1057.62 71.1867 1057.8 70.92C1057.97 70.6533 1058.08 70.38 1058.14 70.1L1058.06 70.06C1058 70.1 1057.94 70.1333 1057.86 70.16C1057.78 70.1867 1057.66 70.2 1057.5 70.2C1057.34 70.2 1057.17 70.1533 1057 70.06C1056.84 69.9667 1056.7 69.8333 1056.58 69.66C1056.46 69.4733 1056.4 69.2333 1056.4 68.94C1056.4 68.7 1056.46 68.48 1056.58 68.28C1056.7 68.0667 1056.85 67.9 1057.04 67.78C1057.24 67.66 1057.46 67.6 1057.7 67.6ZM1068.64 70V68.7C1069.96 67.7267 1071.06 66.8733 1071.94 66.14C1072.84 65.4067 1073.55 64.74 1074.08 64.14C1074.62 63.54 1075 62.9733 1075.22 62.44C1075.45 61.8933 1075.56 61.3267 1075.56 60.74C1075.56 59.9533 1075.31 59.32 1074.8 58.84C1074.31 58.3467 1073.63 58.1 1072.76 58.1C1071.86 58.1 1071.13 58.4 1070.58 59C1070.04 59.5867 1069.72 60.3733 1069.62 61.36L1068.22 60.52C1068.34 59.7467 1068.59 59.0667 1068.96 58.48C1069.35 57.8933 1069.86 57.4333 1070.5 57.1C1071.16 56.7667 1071.93 56.6 1072.82 56.6C1073.5 56.6 1074.11 56.7 1074.64 56.9C1075.19 57.1 1075.66 57.3867 1076.04 57.76C1076.43 58.12 1076.72 58.5533 1076.92 59.06C1077.14 59.5667 1077.24 60.1267 1077.24 60.74C1077.24 61.5667 1077.04 62.38 1076.64 63.18C1076.24 63.9667 1075.58 64.7933 1074.66 65.66C1073.74 66.5267 1072.5 67.4867 1070.92 68.54V68.56C1071.07 68.5467 1071.27 68.54 1071.52 68.54C1071.79 68.5267 1072.05 68.52 1072.3 68.52C1072.57 68.5067 1072.77 68.5 1072.9 68.5H1077.52V70H1068.64ZM1085.04 70.2C1083.55 70.2 1082.36 69.62 1081.46 68.46C1080.57 67.3 1080.12 65.6133 1080.12 63.4C1080.12 61.1867 1080.57 59.5 1081.46 58.34C1082.36 57.18 1083.55 56.6 1085.04 56.6C1086.55 56.6 1087.74 57.18 1088.62 58.34C1089.52 59.5 1089.96 61.1867 1089.96 63.4C1089.96 65.6133 1089.52 67.3 1088.62 68.46C1087.74 69.62 1086.55 70.2 1085.04 70.2ZM1085.04 68.76C1085.75 68.76 1086.34 68.56 1086.82 68.16C1087.32 67.7467 1087.68 67.14 1087.92 66.34C1088.18 65.54 1088.3 64.56 1088.3 63.4C1088.3 62.24 1088.18 61.26 1087.92 60.46C1087.68 59.66 1087.32 59.06 1086.82 58.66C1086.34 58.2467 1085.75 58.04 1085.04 58.04C1084.34 58.04 1083.74 58.2467 1083.24 58.66C1082.76 59.06 1082.4 59.66 1082.14 60.46C1081.9 61.26 1081.78 62.24 1081.78 63.4C1081.78 64.56 1081.9 65.54 1082.14 66.34C1082.4 67.14 1082.76 67.7467 1083.24 68.16C1083.74 68.56 1084.34 68.76 1085.04 68.76ZM1092.75 70V68.7C1094.07 67.7267 1095.17 66.8733 1096.05 66.14C1096.94 65.4067 1097.65 64.74 1098.19 64.14C1098.72 63.54 1099.1 62.9733 1099.33 62.44C1099.55 61.8933 1099.67 61.3267 1099.67 60.74C1099.67 59.9533 1099.41 59.32 1098.91 58.84C1098.41 58.3467 1097.73 58.1 1096.87 58.1C1095.96 58.1 1095.23 58.4 1094.69 59C1094.14 59.5867 1093.82 60.3733 1093.73 61.36L1092.33 60.52C1092.45 59.7467 1092.69 59.0667 1093.07 58.48C1093.45 57.8933 1093.97 57.4333 1094.61 57.1C1095.26 56.7667 1096.03 56.6 1096.93 56.6C1097.61 56.6 1098.21 56.7 1098.75 56.9C1099.29 57.1 1099.76 57.3867 1100.15 57.76C1100.53 58.12 1100.83 58.5533 1101.03 59.06C1101.24 59.5667 1101.35 60.1267 1101.35 60.74C1101.35 61.5667 1101.15 62.38 1100.75 63.18C1100.35 63.9667 1099.69 64.7933 1098.77 65.66C1097.85 66.5267 1096.6 67.4867 1095.03 68.54V68.56C1095.17 68.5467 1095.37 68.54 1095.63 68.54C1095.89 68.5267 1096.15 68.52 1096.41 68.52C1096.67 68.5067 1096.87 68.5 1097.01 68.5H1101.63V70H1092.75ZM1104.41 70V68.7C1105.73 67.7267 1106.83 66.8733 1107.71 66.14C1108.6 65.4067 1109.31 64.74 1109.85 64.14C1110.38 63.54 1110.76 62.9733 1110.99 62.44C1111.21 61.8933 1111.33 61.3267 1111.33 60.74C1111.33 59.9533 1111.07 59.32 1110.57 58.84C1110.07 58.3467 1109.39 58.1 1108.53 58.1C1107.62 58.1 1106.89 58.4 1106.35 59C1105.8 59.5867 1105.48 60.3733 1105.39 61.36L1103.99 60.52C1104.11 59.7467 1104.35 59.0667 1104.73 58.48C1105.11 57.8933 1105.63 57.4333 1106.27 57.1C1106.92 56.7667 1107.69 56.6 1108.59 56.6C1109.27 56.6 1109.87 56.7 1110.41 56.9C1110.95 57.1 1111.42 57.3867 1111.81 57.76C1112.19 58.12 1112.49 58.5533 1112.69 59.06C1112.9 59.5667 1113.01 60.1267 1113.01 60.74C1113.01 61.5667 1112.81 62.38 1112.41 63.18C1112.01 63.9667 1111.35 64.7933 1110.43 65.66C1109.51 66.5267 1108.26 67.4867 1106.69 68.54V68.56C1106.83 68.5467 1107.03 68.54 1107.29 68.54C1107.55 68.5267 1107.81 68.52 1108.07 68.52C1108.33 68.5067 1108.53 68.5 1108.67 68.5H1113.29V70H1104.41ZM1117.25 67.6C1117.63 67.6 1117.95 67.72 1118.19 67.96C1118.43 68.2 1118.55 68.5133 1118.55 68.9C1118.55 69.2867 1118.43 69.6 1118.19 69.84C1117.95 70.08 1117.63 70.2 1117.25 70.2C1116.86 70.2 1116.55 70.08 1116.31 69.84C1116.07 69.6 1115.95 69.2867 1115.95 68.9C1115.95 68.5133 1116.07 68.2 1116.31 67.96C1116.55 67.72 1116.86 67.6 1117.25 67.6ZM1138.59 70H1136.89L1135.49 66.34H1129.51L1128.11 70H1126.43L1131.57 56.8H1133.47L1138.59 70ZM1130.09 64.84H1134.91L1132.49 58.34L1130.09 64.84ZM1142.5 55.4V67.46C1142.5 67.9667 1142.59 68.32 1142.78 68.52C1142.96 68.7067 1143.26 68.8 1143.68 68.8C1143.94 68.8 1144.16 68.78 1144.34 68.74C1144.51 68.7 1144.74 68.6267 1145.04 68.52L1144.78 69.92C1144.56 70.0133 1144.33 70.08 1144.08 70.12C1143.82 70.1733 1143.56 70.2 1143.3 70.2C1142.48 70.2 1141.88 69.98 1141.48 69.54C1141.09 69.1 1140.9 68.4267 1140.9 67.52V55.4H1142.5ZM1148.61 55.4V67.46C1148.61 67.9667 1148.7 68.32 1148.89 68.52C1149.08 68.7067 1149.38 68.8 1149.79 68.8C1150.06 68.8 1150.28 68.78 1150.45 68.74C1150.62 68.7 1150.86 68.6267 1151.15 68.52L1150.89 69.92C1150.68 70.0133 1150.44 70.08 1150.19 70.12C1149.94 70.1733 1149.68 70.2 1149.41 70.2C1148.6 70.2 1147.99 69.98 1147.59 69.54C1147.2 69.1 1147.01 68.4267 1147.01 67.52V55.4H1148.61ZM1159.32 70V60H1160.62L1160.84 61.64C1161.12 61.0267 1161.52 60.5667 1162.06 60.26C1162.6 59.9533 1163.26 59.8 1164.04 59.8C1164.21 59.8 1164.4 59.8133 1164.6 59.84C1164.81 59.8667 1164.99 59.92 1165.14 60L1164.86 61.46C1164.71 61.4067 1164.55 61.3667 1164.38 61.34C1164.2 61.3133 1163.96 61.3 1163.64 61.3C1163.22 61.3 1162.8 61.42 1162.38 61.66C1161.96 61.9 1161.62 62.2667 1161.34 62.76C1161.06 63.24 1160.92 63.8533 1160.92 64.6V70H1159.32ZM1168.28 58.08C1167.92 58.08 1167.63 57.9733 1167.4 57.76C1167.19 57.5333 1167.08 57.24 1167.08 56.88C1167.08 56.52 1167.19 56.2333 1167.4 56.02C1167.63 55.7933 1167.92 55.68 1168.28 55.68C1168.64 55.68 1168.93 55.7933 1169.14 56.02C1169.37 56.2333 1169.48 56.52 1169.48 56.88C1169.48 57.24 1169.37 57.5333 1169.14 57.76C1168.93 57.9733 1168.64 58.08 1168.28 58.08ZM1169.08 60V70H1167.48V60H1169.08ZM1181.21 58.16L1181.57 59.58C1181.56 59.58 1181.54 59.58 1181.51 59.58C1181.49 59.58 1181.46 59.58 1181.43 59.58C1180.78 59.58 1180.27 59.7133 1179.91 59.98C1179.57 60.2333 1179.39 60.6467 1179.39 61.22L1178.41 60.72C1178.41 60.2 1178.53 59.7467 1178.77 59.36C1179.01 58.9733 1179.34 58.68 1179.75 58.48C1180.17 58.2667 1180.62 58.16 1181.11 58.16C1181.13 58.16 1181.14 58.16 1181.15 58.16C1181.18 58.16 1181.2 58.16 1181.21 58.16ZM1178.17 68.72C1179.12 68.72 1179.86 68.94 1180.39 69.38C1180.93 69.8067 1181.19 70.38 1181.19 71.1C1181.19 71.7533 1180.97 72.32 1180.53 72.8C1180.11 73.28 1179.53 73.6467 1178.79 73.9C1178.07 74.1667 1177.26 74.3 1176.35 74.3C1174.78 74.3 1173.6 74.0333 1172.81 73.5C1172.04 72.9667 1171.65 72.3267 1171.65 71.58C1171.65 71.0467 1171.83 70.5667 1172.17 70.14C1172.53 69.7267 1173.13 69.4933 1173.97 69.44L1173.83 69.74C1173.38 69.62 1172.99 69.42 1172.67 69.14C1172.37 68.8467 1172.21 68.4267 1172.21 67.88C1172.21 67.3333 1172.41 66.8667 1172.81 66.48C1173.23 66.08 1173.83 65.8333 1174.63 65.74L1175.69 66.28H1175.49C1174.84 66.3467 1174.37 66.5133 1174.09 66.78C1173.83 67.0333 1173.69 67.3133 1173.69 67.62C1173.69 67.9933 1173.83 68.2733 1174.09 68.46C1174.37 68.6333 1174.76 68.72 1175.25 68.72H1178.17ZM1176.33 72.96C1177.11 72.96 1177.74 72.88 1178.23 72.72C1178.74 72.56 1179.11 72.3533 1179.35 72.1C1179.59 71.8467 1179.71 71.5733 1179.71 71.28C1179.71 70.92 1179.57 70.6333 1179.27 70.42C1178.99 70.2067 1178.48 70.1 1177.73 70.1H1174.65C1174.23 70.1 1173.87 70.2067 1173.57 70.42C1173.28 70.6467 1173.13 70.9533 1173.13 71.34C1173.13 71.8333 1173.41 72.2267 1173.97 72.52C1174.55 72.8133 1175.33 72.96 1176.33 72.96ZM1176.19 59.8C1176.99 59.8 1177.7 59.9467 1178.31 60.24C1178.94 60.52 1179.43 60.9133 1179.77 61.42C1180.12 61.9267 1180.29 62.5133 1180.29 63.18C1180.29 63.8333 1180.12 64.42 1179.77 64.94C1179.43 65.4467 1178.94 65.8467 1178.31 66.14C1177.7 66.42 1176.99 66.56 1176.19 66.56C1174.87 66.56 1173.86 66.2467 1173.15 65.62C1172.45 64.98 1172.09 64.1667 1172.09 63.18C1172.09 62.5133 1172.27 61.9267 1172.61 61.42C1172.97 60.9133 1173.46 60.52 1174.07 60.24C1174.69 59.9467 1175.39 59.8 1176.19 59.8ZM1176.19 61.1C1175.5 61.1 1174.92 61.2933 1174.45 61.68C1173.99 62.0533 1173.75 62.5533 1173.75 63.18C1173.75 63.7933 1173.99 64.2933 1174.45 64.68C1174.92 65.0667 1175.5 65.26 1176.19 65.26C1176.89 65.26 1177.47 65.0667 1177.93 64.68C1178.4 64.2933 1178.63 63.7933 1178.63 63.18C1178.63 62.5533 1178.4 62.0533 1177.93 61.68C1177.47 61.2933 1176.89 61.1 1176.19 61.1ZM1183.44 70V55.4H1185.04V61.5C1185.38 60.9 1185.84 60.4667 1186.42 60.2C1186.99 59.9333 1187.62 59.8 1188.3 59.8C1189.02 59.8 1189.67 59.94 1190.26 60.22C1190.84 60.4867 1191.31 60.9 1191.66 61.46C1192.02 62.02 1192.2 62.7333 1192.2 63.6V70H1190.6V64.16C1190.6 63.0533 1190.36 62.2867 1189.88 61.86C1189.41 61.42 1188.83 61.2 1188.14 61.2C1187.66 61.2 1187.18 61.3133 1186.7 61.54C1186.22 61.7667 1185.82 62.14 1185.5 62.66C1185.19 63.1667 1185.04 63.8467 1185.04 64.7V70H1183.44ZM1198.04 57.16V67.24C1198.04 67.7333 1198.18 68.1 1198.46 68.34C1198.74 68.58 1199.1 68.7 1199.54 68.7C1199.93 68.7 1200.26 68.6333 1200.54 68.5C1200.82 68.3667 1201.08 68.1867 1201.3 67.96L1201.86 69.3C1201.56 69.58 1201.19 69.8 1200.76 69.96C1200.35 70.12 1199.87 70.2 1199.32 70.2C1198.82 70.2 1198.34 70.1133 1197.9 69.94C1197.46 69.7533 1197.11 69.4667 1196.84 69.08C1196.59 68.68 1196.46 68.16 1196.44 67.52V57.6L1198.04 57.16ZM1201.68 60V61.38H1194.44V60H1201.68ZM1207.66 70.2C1206.69 70.2 1205.79 69.9933 1204.96 69.58C1204.15 69.1667 1203.52 68.58 1203.08 67.82L1204.44 66.84C1204.74 67.4533 1205.16 67.9333 1205.72 68.28C1206.3 68.6267 1206.98 68.8 1207.78 68.8C1208.49 68.8 1209.04 68.6667 1209.44 68.4C1209.84 68.12 1210.04 67.76 1210.04 67.32C1210.04 67.04 1209.95 66.7867 1209.76 66.56C1209.59 66.32 1209.25 66.1467 1208.74 66.04L1206.34 65.54C1205.37 65.34 1204.67 65.0067 1204.24 64.54C1203.83 64.0733 1203.62 63.4933 1203.62 62.8C1203.62 62.2533 1203.78 61.7533 1204.08 61.3C1204.4 60.8467 1204.85 60.4867 1205.42 60.22C1206.01 59.94 1206.7 59.8 1207.48 59.8C1208.47 59.8 1209.3 59.9933 1209.98 60.38C1210.66 60.7667 1211.17 61.3133 1211.5 62.02L1210.16 62.9C1209.94 62.3133 1209.57 61.8867 1209.06 61.62C1208.56 61.34 1208.03 61.2 1207.48 61.2C1207 61.2 1206.59 61.2667 1206.24 61.4C1205.91 61.5333 1205.65 61.72 1205.46 61.96C1205.29 62.1867 1205.2 62.4467 1205.2 62.74C1205.2 63.0333 1205.3 63.3067 1205.5 63.56C1205.7 63.8 1206.08 63.9733 1206.62 64.08L1209.12 64.6C1210.06 64.7867 1210.71 65.0933 1211.08 65.52C1211.46 65.9467 1211.64 66.4667 1211.64 67.08C1211.64 67.7067 1211.48 68.26 1211.14 68.74C1210.81 69.2067 1210.34 69.5667 1209.74 69.82C1209.14 70.0733 1208.45 70.2 1207.66 70.2ZM1221.43 70V60H1222.73L1222.95 61.64C1223.23 61.0267 1223.63 60.5667 1224.17 60.26C1224.71 59.9533 1225.37 59.8 1226.15 59.8C1226.32 59.8 1226.51 59.8133 1226.71 59.84C1226.92 59.8667 1227.1 59.92 1227.25 60L1226.97 61.46C1226.82 61.4067 1226.66 61.3667 1226.49 61.34C1226.31 61.3133 1226.07 61.3 1225.75 61.3C1225.33 61.3 1224.91 61.42 1224.49 61.66C1224.07 61.9 1223.73 62.2667 1223.45 62.76C1223.17 63.24 1223.03 63.8533 1223.03 64.6V70H1221.43ZM1233.46 70.2C1232.51 70.2 1231.66 69.9933 1230.92 69.58C1230.18 69.1667 1229.61 68.5733 1229.2 67.8C1228.78 67.0133 1228.58 66.08 1228.58 65C1228.58 63.92 1228.78 62.9933 1229.2 62.22C1229.61 61.4333 1230.18 60.8333 1230.9 60.42C1231.62 60.0067 1232.44 59.8 1233.36 59.8C1234.29 59.8 1235.08 60 1235.74 60.4C1236.4 60.8 1236.91 61.3467 1237.26 62.04C1237.6 62.72 1237.78 63.4867 1237.78 64.34C1237.78 64.5667 1237.77 64.7733 1237.76 64.96C1237.74 65.1467 1237.72 65.3133 1237.7 65.46H1229.62V64.04H1237L1236.18 64.2C1236.18 63.24 1235.91 62.5 1235.38 61.98C1234.86 61.46 1234.17 61.2 1233.32 61.2C1232.66 61.2 1232.1 61.3533 1231.62 61.66C1231.15 61.9533 1230.78 62.3867 1230.52 62.96C1230.26 63.52 1230.14 64.2 1230.14 65C1230.14 65.7867 1230.27 66.4667 1230.54 67.04C1230.8 67.6133 1231.18 68.0533 1231.66 68.36C1232.15 68.6533 1232.74 68.8 1233.42 68.8C1234.15 68.8 1234.74 68.66 1235.2 68.38C1235.66 68.1 1236.04 67.72 1236.32 67.24L1237.58 67.98C1237.32 68.4333 1237 68.8267 1236.6 69.16C1236.21 69.4933 1235.75 69.7533 1235.22 69.94C1234.7 70.1133 1234.11 70.2 1233.46 70.2ZM1244.42 70.2C1243.45 70.2 1242.55 69.9933 1241.72 69.58C1240.91 69.1667 1240.28 68.58 1239.84 67.82L1241.2 66.84C1241.49 67.4533 1241.92 67.9333 1242.48 68.28C1243.05 68.6267 1243.74 68.8 1244.54 68.8C1245.25 68.8 1245.8 68.6667 1246.2 68.4C1246.6 68.12 1246.8 67.76 1246.8 67.32C1246.8 67.04 1246.71 66.7867 1246.52 66.56C1246.35 66.32 1246.01 66.1467 1245.5 66.04L1243.1 65.54C1242.13 65.34 1241.43 65.0067 1241 64.54C1240.59 64.0733 1240.38 63.4933 1240.38 62.8C1240.38 62.2533 1240.53 61.7533 1240.84 61.3C1241.16 60.8467 1241.61 60.4867 1242.18 60.22C1242.77 59.94 1243.45 59.8 1244.24 59.8C1245.23 59.8 1246.06 59.9933 1246.74 60.38C1247.42 60.7667 1247.93 61.3133 1248.26 62.02L1246.92 62.9C1246.69 62.3133 1246.33 61.8867 1245.82 61.62C1245.31 61.34 1244.79 61.2 1244.24 61.2C1243.76 61.2 1243.35 61.2667 1243 61.4C1242.67 61.5333 1242.41 61.72 1242.22 61.96C1242.05 62.1867 1241.96 62.4467 1241.96 62.74C1241.96 63.0333 1242.06 63.3067 1242.26 63.56C1242.46 63.8 1242.83 63.9733 1243.38 64.08L1245.88 64.6C1246.81 64.7867 1247.47 65.0933 1247.84 65.52C1248.21 65.9467 1248.4 66.4667 1248.4 67.08C1248.4 67.7067 1248.23 68.26 1247.9 68.74C1247.57 69.2067 1247.1 69.5667 1246.5 69.82C1245.9 70.0733 1245.21 70.2 1244.42 70.2ZM1255.55 70.2C1254.6 70.2 1253.75 69.9933 1253.01 69.58C1252.27 69.1667 1251.7 68.5733 1251.29 67.8C1250.87 67.0133 1250.67 66.08 1250.67 65C1250.67 63.92 1250.87 62.9933 1251.29 62.22C1251.7 61.4333 1252.27 60.8333 1252.99 60.42C1253.71 60.0067 1254.53 59.8 1255.45 59.8C1256.38 59.8 1257.17 60 1257.83 60.4C1258.49 60.8 1259 61.3467 1259.35 62.04C1259.69 62.72 1259.87 63.4867 1259.87 64.34C1259.87 64.5667 1259.86 64.7733 1259.85 64.96C1259.83 65.1467 1259.81 65.3133 1259.79 65.46H1251.71V64.04H1259.09L1258.27 64.2C1258.27 63.24 1258 62.5 1257.47 61.98C1256.95 61.46 1256.26 61.2 1255.41 61.2C1254.75 61.2 1254.19 61.3533 1253.71 61.66C1253.24 61.9533 1252.87 62.3867 1252.61 62.96C1252.35 63.52 1252.23 64.2 1252.23 65C1252.23 65.7867 1252.36 66.4667 1252.63 67.04C1252.89 67.6133 1253.27 68.0533 1253.75 68.36C1254.24 68.6533 1254.83 68.8 1255.51 68.8C1256.24 68.8 1256.83 68.66 1257.29 68.38C1257.75 68.1 1258.13 67.72 1258.41 67.24L1259.67 67.98C1259.41 68.4333 1259.09 68.8267 1258.69 69.16C1258.3 69.4933 1257.84 69.7533 1257.31 69.94C1256.79 70.1133 1256.2 70.2 1255.55 70.2ZM1262.91 70V60H1264.21L1264.43 61.64C1264.71 61.0267 1265.12 60.5667 1265.65 60.26C1266.2 59.9533 1266.86 59.8 1267.63 59.8C1267.8 59.8 1267.99 59.8133 1268.19 59.84C1268.4 59.8667 1268.58 59.92 1268.73 60L1268.45 61.46C1268.3 61.4067 1268.14 61.3667 1267.97 61.34C1267.8 61.3133 1267.55 61.3 1267.23 61.3C1266.82 61.3 1266.4 61.42 1265.97 61.66C1265.56 61.9 1265.21 62.2667 1264.93 62.76C1264.65 63.24 1264.51 63.8533 1264.51 64.6V70H1262.91ZM1277.69 60H1279.37L1275.21 70H1273.61L1269.45 60H1271.27L1274.43 68.38L1277.69 60ZM1285.65 70.2C1284.7 70.2 1283.85 69.9933 1283.11 69.58C1282.37 69.1667 1281.8 68.5733 1281.39 67.8C1280.97 67.0133 1280.77 66.08 1280.77 65C1280.77 63.92 1280.97 62.9933 1281.39 62.22C1281.8 61.4333 1282.37 60.8333 1283.09 60.42C1283.81 60.0067 1284.63 59.8 1285.55 59.8C1286.48 59.8 1287.27 60 1287.93 60.4C1288.59 60.8 1289.1 61.3467 1289.45 62.04C1289.79 62.72 1289.97 63.4867 1289.97 64.34C1289.97 64.5667 1289.96 64.7733 1289.95 64.96C1289.93 65.1467 1289.91 65.3133 1289.89 65.46H1281.81V64.04H1289.19L1288.37 64.2C1288.37 63.24 1288.1 62.5 1287.57 61.98C1287.05 61.46 1286.36 61.2 1285.51 61.2C1284.85 61.2 1284.29 61.3533 1283.81 61.66C1283.34 61.9533 1282.97 62.3867 1282.71 62.96C1282.45 63.52 1282.33 64.2 1282.33 65C1282.33 65.7867 1282.46 66.4667 1282.73 67.04C1282.99 67.6133 1283.37 68.0533 1283.85 68.36C1284.34 68.6533 1284.93 68.8 1285.61 68.8C1286.34 68.8 1286.93 68.66 1287.39 68.38C1287.85 68.1 1288.23 67.72 1288.51 67.24L1289.77 67.98C1289.51 68.4333 1289.19 68.8267 1288.79 69.16C1288.4 69.4933 1287.94 69.7533 1287.41 69.94C1286.89 70.1133 1286.3 70.2 1285.65 70.2ZM1296.91 70.2C1296.08 70.2 1295.32 69.9933 1294.63 69.58C1293.94 69.1667 1293.38 68.5733 1292.97 67.8C1292.56 67.0133 1292.35 66.08 1292.35 65C1292.35 63.8933 1292.57 62.9533 1293.01 62.18C1293.45 61.4067 1294.03 60.82 1294.75 60.42C1295.47 60.0067 1296.24 59.8 1297.07 59.8C1297.9 59.8 1298.61 60.0133 1299.21 60.44C1299.82 60.8667 1300.23 61.4333 1300.43 62.14L1300.23 62.28V55.4H1301.83V70H1300.43L1300.29 67.58L1300.51 67.46C1300.42 68.0467 1300.19 68.5467 1299.83 68.96C1299.48 69.36 1299.05 69.6667 1298.53 69.88C1298.02 70.0933 1297.48 70.2 1296.91 70.2ZM1297.07 68.8C1297.71 68.8 1298.26 68.64 1298.73 68.32C1299.21 68 1299.58 67.5467 1299.83 66.96C1300.1 66.36 1300.23 65.66 1300.23 64.86C1300.23 64.1 1300.1 63.4467 1299.83 62.9C1299.58 62.3533 1299.22 61.9333 1298.75 61.64C1298.3 61.3467 1297.76 61.2 1297.15 61.2C1296.14 61.2 1295.35 61.5467 1294.79 62.24C1294.23 62.9333 1293.95 63.8533 1293.95 65C1293.95 66.1467 1294.22 67.0667 1294.77 67.76C1295.32 68.4533 1296.08 68.8 1297.07 68.8ZM1306.35 67.6C1306.73 67.6 1307.05 67.72 1307.29 67.96C1307.53 68.2 1307.65 68.5133 1307.65 68.9C1307.65 69.2867 1307.53 69.6 1307.29 69.84C1307.05 70.08 1306.73 70.2 1306.35 70.2C1305.96 70.2 1305.65 70.08 1305.41 69.84C1305.17 69.6 1305.05 69.2867 1305.05 68.9C1305.05 68.5133 1305.17 68.2 1305.41 67.96C1305.65 67.72 1305.96 67.6 1306.35 67.6Z" fill="white"/>
</svg>
