<svg width="54" height="14" viewBox="0 0 54 14" fill="none" xmlns="http://www.w3.org/2000/svg">
<path d="M10.36 1.16825e-05V13.2H8.76V1.16825e-05H10.36ZM1.6 1.16825e-05V13.2H-3.60608e-06V1.16825e-05H1.6ZM9.5 5.76001V7.26001H0.839996V5.76001H9.5ZM18.3712 3.00001C19.3179 3.00001 20.1512 3.20668 20.8712 3.62001C21.6046 4.03335 22.1779 4.63335 22.5912 5.42001C23.0046 6.19334 23.2112 7.12001 23.2112 8.20001C23.2112 9.28001 23.0046 10.2133 22.5912 11C22.1779 11.7733 21.6046 12.3667 20.8712 12.78C20.1512 13.1933 19.3179 13.4 18.3712 13.4C17.4379 13.4 16.6046 13.1933 15.8712 12.78C15.1379 12.3667 14.5646 11.7733 14.1512 11C13.7379 10.2133 13.5312 9.28001 13.5312 8.20001C13.5312 7.12001 13.7379 6.19334 14.1512 5.42001C14.5646 4.63335 15.1379 4.03335 15.8712 3.62001C16.6046 3.20668 17.4379 3.00001 18.3712 3.00001ZM18.3712 4.38001C17.6912 4.38001 17.1112 4.53335 16.6312 4.84001C16.1512 5.14668 15.7779 5.58668 15.5112 6.16001C15.2579 6.72001 15.1312 7.40001 15.1312 8.20001C15.1312 8.98668 15.2579 9.66668 15.5112 10.24C15.7779 10.8133 16.1512 11.2533 16.6312 11.56C17.1112 11.8667 17.6912 12.02 18.3712 12.02C19.0512 12.02 19.6312 11.8667 20.1112 11.56C20.5912 11.2533 20.9579 10.8133 21.2112 10.24C21.4779 9.66668 21.6112 8.98668 21.6112 8.20001C21.6112 7.40001 21.4779 6.72001 21.2112 6.16001C20.9579 5.58668 20.5912 5.14668 20.1112 4.84001C19.6312 4.53335 19.0512 4.38001 18.3712 4.38001ZM26.2234 13.2V3.20001H27.6234L27.7234 4.76001C28.0834 4.14668 28.5501 3.70001 29.1234 3.42001C29.7101 3.14001 30.3101 3.00001 30.9234 3.00001C31.6301 3.00001 32.2968 3.16001 32.9234 3.48001C33.5501 3.80001 34.0301 4.29335 34.3634 4.96001C34.5768 4.50668 34.8768 4.14001 35.2634 3.86001C35.6501 3.56668 36.0701 3.35335 36.5234 3.22001C36.9901 3.07334 37.4301 3.00001 37.8434 3.00001C38.4834 3.00001 39.0901 3.13334 39.6634 3.40001C40.2501 3.66668 40.7301 4.08001 41.1034 4.64001C41.4768 5.20001 41.6634 5.92001 41.6634 6.80001V13.2H40.0634V6.96001C40.0634 6.05335 39.8368 5.40001 39.3834 5.00001C38.9301 4.60001 38.3701 4.40001 37.7034 4.40001C37.1834 4.40001 36.6968 4.52668 36.2434 4.78001C35.7901 5.03335 35.4234 5.40668 35.1434 5.90001C34.8768 6.39335 34.7434 7.00001 34.7434 7.72001V13.2H33.1434V6.96001C33.1434 6.05335 32.9168 5.40001 32.4634 5.00001C32.0101 4.60001 31.4501 4.40001 30.7834 4.40001C30.3434 4.40001 29.8901 4.52001 29.4234 4.76001C28.9701 4.98668 28.5901 5.35335 28.2834 5.86001C27.9768 6.36668 27.8234 7.03335 27.8234 7.86001V13.2H26.2234ZM49.4659 13.4C48.5193 13.4 47.6726 13.1933 46.9259 12.78C46.1926 12.3667 45.6193 11.7733 45.2059 11C44.7926 10.2133 44.5859 9.28001 44.5859 8.20001C44.5859 7.12001 44.7926 6.19334 45.2059 5.42001C45.6193 4.63335 46.1859 4.03335 46.9059 3.62001C47.6259 3.20668 48.4459 3.00001 49.3659 3.00001C50.2993 3.00001 51.0926 3.20001 51.7459 3.60001C52.4126 4.00001 52.9193 4.54668 53.2659 5.24001C53.6126 5.92001 53.7859 6.68668 53.7859 7.54001C53.7859 7.76668 53.7793 7.97335 53.7659 8.16001C53.7526 8.34668 53.7326 8.51335 53.7059 8.66001H45.6259V7.24001H53.0059L52.1859 7.40001C52.1859 6.44001 51.9193 5.70001 51.3859 5.18001C50.8659 4.66001 50.1793 4.40001 49.3259 4.40001C48.6726 4.40001 48.1059 4.55335 47.6259 4.86001C47.1593 5.15335 46.7926 5.58668 46.5259 6.16001C46.2726 6.72001 46.1459 7.40001 46.1459 8.20001C46.1459 8.98668 46.2793 9.66668 46.5459 10.24C46.8126 10.8133 47.1859 11.2533 47.6659 11.56C48.1593 11.8533 48.7459 12 49.4259 12C50.1593 12 50.7526 11.86 51.2059 11.58C51.6726 11.3 52.0459 10.92 52.3259 10.44L53.5859 11.18C53.3326 11.6333 53.0059 12.0267 52.6059 12.36C52.2193 12.6933 51.7593 12.9533 51.2259 13.14C50.7059 13.3133 50.1193 13.4 49.4659 13.4Z" fill="white"/>
</svg>
