<svg width="323" height="19" viewBox="0 0 323 19" fill="none" xmlns="http://www.w3.org/2000/svg">
<path d="M6.84002 14.8001C5.48002 14.8001 4.28668 14.5001 3.26001 13.9001C2.23335 13.3001 1.43335 12.4868 0.860015 11.4601C0.286681 10.4334 1.47223e-05 9.2801 1.47223e-05 8.0001C1.47223e-05 6.70676 0.286681 5.55343 0.860015 4.5401C1.43335 3.51343 2.23335 2.7001 3.26001 2.1001C4.28668 1.5001 5.48002 1.2001 6.84002 1.2001C8.20002 1.2001 9.39335 1.5001 10.42 2.1001C11.4467 2.7001 12.2467 3.51343 12.82 4.5401C13.3933 5.55343 13.68 6.70676 13.68 8.0001C13.68 9.2801 13.3933 10.4334 12.82 11.4601C12.2467 12.4868 11.4467 13.3001 10.42 13.9001C9.39335 14.5001 8.20002 14.8001 6.84002 14.8001ZM6.84002 13.5001C7.92002 13.5001 8.86668 13.2601 9.68002 12.7801C10.4933 12.2868 11.1267 11.6268 11.58 10.8001C12.0333 9.9601 12.26 9.02676 12.26 8.0001C12.26 6.97343 12.0333 6.04676 11.58 5.2201C11.1267 4.3801 10.4933 3.7201 9.68002 3.2401C8.86668 2.74676 7.92002 2.5001 6.84002 2.5001C5.77335 2.5001 4.82668 2.74676 4.00001 3.2401C3.18668 3.7201 2.55335 4.3801 2.10001 5.2201C1.64668 6.04676 1.42001 6.97343 1.42001 8.0001C1.42001 9.02676 1.64668 9.9601 2.10001 10.8001C2.55335 11.6268 3.18668 12.2868 4.00001 12.7801C4.82668 13.2601 5.77335 13.5001 6.84002 13.5001ZM6.98002 11.7401C5.84668 11.7401 4.95335 11.4134 4.30002 10.7601C3.66001 10.0934 3.34001 9.18676 3.34001 8.0401C3.34001 6.89343 3.66001 5.99343 4.30002 5.3401C4.95335 4.67343 5.84668 4.3401 6.98002 4.3401C7.76668 4.3401 8.42002 4.51343 8.94002 4.8601C9.46002 5.19343 9.84668 5.65343 10.1 6.2401L8.94002 6.8201C8.76668 6.39343 8.52002 6.07343 8.20001 5.8601C7.88002 5.64676 7.46668 5.5401 6.96001 5.5401C6.25335 5.5401 5.69335 5.7601 5.28001 6.2001C4.88001 6.6401 4.68001 7.25343 4.68001 8.0401C4.68001 8.82676 4.88001 9.4401 5.28001 9.8801C5.69335 10.3201 6.25335 10.5401 6.96001 10.5401C7.49335 10.5401 7.93335 10.4334 8.28002 10.2201C8.64001 9.99343 8.90668 9.65343 9.08001 9.2001L10.18 9.6401C9.92668 10.2934 9.53335 10.8068 9.00001 11.1801C8.46668 11.5534 7.79335 11.7401 6.98002 11.7401ZM28.2627 1.2001C29.4227 1.2001 30.4227 1.4401 31.2627 1.9201C32.1027 2.38676 32.8027 3.0801 33.3627 4.0001L32.0227 5.0401C31.5293 4.18676 30.9693 3.58676 30.3427 3.2401C29.7293 2.8801 28.9827 2.7001 28.1027 2.7001C27.396 2.7001 26.8093 2.8001 26.3427 3.0001C25.8893 3.2001 25.556 3.46676 25.3427 3.8001C25.1293 4.1201 25.0227 4.48676 25.0227 4.9001C25.0227 5.36676 25.1693 5.7801 25.4627 6.1401C25.756 6.48676 26.3427 6.7601 27.2227 6.9601L30.0827 7.6001C31.3493 7.8801 32.2293 8.30676 32.7227 8.8801C33.2293 9.4401 33.4827 10.1401 33.4827 10.9801C33.4827 11.7268 33.2693 12.3934 32.8427 12.9801C32.4293 13.5534 31.8427 14.0001 31.0827 14.3201C30.3227 14.6401 29.4293 14.8001 28.4027 14.8001C27.4427 14.8001 26.596 14.6734 25.8627 14.4201C25.1427 14.1534 24.5227 13.8001 24.0027 13.3601C23.4827 12.9201 23.056 12.4268 22.7227 11.8801L24.1227 10.7401C24.376 11.2468 24.7027 11.6934 25.1027 12.0801C25.5027 12.4668 25.9827 12.7668 26.5427 12.9801C27.116 13.1934 27.7693 13.3001 28.5027 13.3001C29.1827 13.3001 29.7693 13.2201 30.2627 13.0601C30.7693 12.8868 31.156 12.6401 31.4227 12.3201C31.6893 11.9868 31.8227 11.5868 31.8227 11.1201C31.8227 10.6934 31.6827 10.3134 31.4027 9.9801C31.1227 9.63343 30.596 9.37343 29.8227 9.2001L26.7227 8.5001C25.9093 8.31343 25.2493 8.0601 24.7427 7.7401C24.2493 7.40676 23.8893 7.0201 23.6627 6.5801C23.4493 6.12676 23.3427 5.6401 23.3427 5.1201C23.3427 4.41343 23.536 3.76676 23.9227 3.1801C24.3227 2.5801 24.8893 2.1001 25.6227 1.7401C26.3693 1.3801 27.2493 1.2001 28.2627 1.2001ZM38.8952 1.7601V11.8401C38.8952 12.3334 39.0352 12.7001 39.3152 12.9401C39.5952 13.1801 39.9552 13.3001 40.3952 13.3001C40.7818 13.3001 41.1152 13.2334 41.3952 13.1001C41.6752 12.9668 41.9285 12.7868 42.1552 12.5601L42.7152 13.9001C42.4085 14.1801 42.0418 14.4001 41.6152 14.5601C41.2018 14.7201 40.7218 14.8001 40.1752 14.8001C39.6685 14.8001 39.1952 14.7134 38.7552 14.5401C38.3152 14.3534 37.9618 14.0668 37.6952 13.6801C37.4418 13.2801 37.3085 12.7601 37.2952 12.1201V2.2001L38.8952 1.7601ZM42.5352 4.6001V5.9801H35.2952V4.6001H42.5352ZM50.7541 8.1401C50.7541 7.39343 50.5541 6.8201 50.1541 6.4201C49.7541 6.00676 49.1874 5.8001 48.4541 5.8001C47.7607 5.8001 47.1741 5.95343 46.6941 6.2601C46.2141 6.55343 45.8607 7.03343 45.6341 7.7001L44.3341 6.9001C44.6007 6.15343 45.0941 5.55343 45.8141 5.1001C46.5341 4.63343 47.4274 4.4001 48.4941 4.4001C49.2141 4.4001 49.8674 4.52676 50.4541 4.7801C51.0407 5.0201 51.5007 5.39343 51.8341 5.9001C52.1807 6.39343 52.3541 7.03343 52.3541 7.8201V12.6601C52.3541 13.1401 52.6074 13.3801 53.1141 13.3801C53.3674 13.3801 53.6141 13.3468 53.8541 13.2801L53.7741 14.5401C53.5074 14.6734 53.1607 14.7401 52.7341 14.7401C52.3474 14.7401 52.0007 14.6668 51.6941 14.5201C51.3874 14.3734 51.1474 14.1534 50.9741 13.8601C50.8007 13.5534 50.7141 13.1734 50.7141 12.7201V12.5201L51.1141 12.5801C50.9541 13.1001 50.6807 13.5268 50.2941 13.8601C49.9074 14.1801 49.4741 14.4201 48.9941 14.5801C48.5141 14.7268 48.0407 14.8001 47.5741 14.8001C46.9874 14.8001 46.4407 14.7001 45.9341 14.5001C45.4274 14.3001 45.0207 14.0001 44.7141 13.6001C44.4207 13.1868 44.2741 12.6801 44.2741 12.0801C44.2741 11.3334 44.5207 10.7201 45.0141 10.2401C45.5207 9.74676 46.2207 9.41343 47.1141 9.2401L51.0741 8.4601V9.7801L47.8541 10.4401C47.2007 10.5734 46.7141 10.7601 46.3941 11.0001C46.0741 11.2401 45.9141 11.5734 45.9141 12.0001C45.9141 12.4134 46.0741 12.7534 46.3941 13.0201C46.7274 13.2734 47.1941 13.4001 47.7941 13.4001C48.1807 13.4001 48.5474 13.3534 48.8941 13.2601C49.2541 13.1534 49.5741 13.0001 49.8541 12.8001C50.1341 12.5868 50.3541 12.3268 50.5141 12.0201C50.6741 11.7001 50.7541 11.3268 50.7541 10.9001V8.1401ZM56.2422 14.6001V4.6001H57.5422L57.7622 6.2401C58.0422 5.62676 58.4489 5.16676 58.9822 4.8601C59.5289 4.55343 60.1889 4.4001 60.9622 4.4001C61.1355 4.4001 61.3222 4.41343 61.5222 4.4401C61.7355 4.46676 61.9155 4.5201 62.0622 4.6001L61.7822 6.0601C61.6355 6.00676 61.4755 5.96676 61.3022 5.9401C61.1289 5.91343 60.8822 5.9001 60.5622 5.9001C60.1489 5.9001 59.7289 6.0201 59.3022 6.2601C58.8889 6.5001 58.5422 6.86676 58.2622 7.3601C57.9822 7.8401 57.8422 8.45343 57.8422 9.2001V14.6001H56.2422ZM66.1608 1.7601V11.8401C66.1608 12.3334 66.3008 12.7001 66.5808 12.9401C66.8608 13.1801 67.2208 13.3001 67.6608 13.3001C68.0475 13.3001 68.3808 13.2334 68.6608 13.1001C68.9408 12.9668 69.1941 12.7868 69.4208 12.5601L69.9808 13.9001C69.6741 14.1801 69.3075 14.4001 68.8808 14.5601C68.4675 14.7201 67.9875 14.8001 67.4408 14.8001C66.9341 14.8001 66.4608 14.7134 66.0208 14.5401C65.5808 14.3534 65.2275 14.0668 64.9608 13.6801C64.7075 13.2801 64.5741 12.7601 64.5608 12.1201V2.2001L66.1608 1.7601ZM69.8008 4.6001V5.9801H62.5608V4.6001H69.8008ZM72.9797 12.2001C73.2997 12.2001 73.5664 12.2868 73.7797 12.4601C74.0064 12.6201 74.1797 12.8468 74.2997 13.1401C74.4197 13.4201 74.4797 13.7534 74.4797 14.1401C74.4797 14.5801 74.3997 15.0134 74.2397 15.4401C74.093 15.8668 73.8597 16.2601 73.5397 16.6201C73.2197 16.9801 72.8064 17.2801 72.2997 17.5201L71.4597 16.7401C71.8197 16.6201 72.133 16.4534 72.3997 16.2401C72.6797 16.0268 72.9064 15.7868 73.0797 15.5201C73.253 15.2534 73.3664 14.9801 73.4197 14.7001L73.3397 14.6601C73.2864 14.7001 73.2197 14.7334 73.1397 14.7601C73.0597 14.7868 72.9397 14.8001 72.7797 14.8001C72.6197 14.8001 72.453 14.7534 72.2797 14.6601C72.1197 14.5668 71.9797 14.4334 71.8597 14.2601C71.7397 14.0734 71.6797 13.8334 71.6797 13.5401C71.6797 13.3001 71.7397 13.0801 71.8597 12.8801C71.9797 12.6668 72.133 12.5001 72.3197 12.3801C72.5197 12.2601 72.7397 12.2001 72.9797 12.2001ZM83.9286 14.6001V13.3001C85.2486 12.3268 86.3486 11.4734 87.2286 10.7401C88.1219 10.0068 88.8353 9.3401 89.3686 8.7401C89.9019 8.1401 90.2819 7.57343 90.5086 7.0401C90.7353 6.49343 90.8486 5.92676 90.8486 5.3401C90.8486 4.55343 90.5953 3.9201 90.0886 3.4401C89.5953 2.94676 88.9153 2.7001 88.0486 2.7001C87.1419 2.7001 86.4153 3.0001 85.8686 3.6001C85.3219 4.18676 85.0019 4.97343 84.9086 5.9601L83.5086 5.1201C83.6286 4.34676 83.8753 3.66676 84.2486 3.0801C84.6353 2.49343 85.1486 2.03343 85.7886 1.7001C86.4419 1.36676 87.2153 1.2001 88.1086 1.2001C88.7886 1.2001 89.3953 1.3001 89.9286 1.5001C90.4753 1.7001 90.9419 1.98676 91.3286 2.3601C91.7153 2.7201 92.0086 3.15343 92.2086 3.6601C92.4219 4.16676 92.5286 4.72676 92.5286 5.3401C92.5286 6.16676 92.3286 6.9801 91.9286 7.7801C91.5286 8.56676 90.8686 9.39343 89.9486 10.2601C89.0286 11.1268 87.7819 12.0868 86.2086 13.1401V13.1601C86.3553 13.1468 86.5553 13.1401 86.8086 13.1401C87.0753 13.1268 87.3353 13.1201 87.5886 13.1201C87.8553 13.1068 88.0553 13.1001 88.1886 13.1001H92.8086V14.6001H83.9286ZM100.329 14.8001C98.8354 14.8001 97.6421 14.2201 96.7488 13.0601C95.8554 11.9001 95.4088 10.2134 95.4088 8.0001C95.4088 5.78676 95.8554 4.1001 96.7488 2.9401C97.6421 1.7801 98.8354 1.2001 100.329 1.2001C101.835 1.2001 103.029 1.7801 103.909 2.9401C104.802 4.1001 105.249 5.78676 105.249 8.0001C105.249 10.2134 104.802 11.9001 103.909 13.0601C103.029 14.2201 101.835 14.8001 100.329 14.8001ZM100.329 13.3601C101.035 13.3601 101.629 13.1601 102.109 12.7601C102.602 12.3468 102.969 11.7401 103.209 10.9401C103.462 10.1401 103.589 9.1601 103.589 8.0001C103.589 6.8401 103.462 5.8601 103.209 5.0601C102.969 4.2601 102.602 3.6601 102.109 3.2601C101.629 2.84676 101.035 2.6401 100.329 2.6401C99.6221 2.6401 99.0221 2.84676 98.5288 3.2601C98.0488 3.6601 97.6821 4.2601 97.4288 5.0601C97.1888 5.8601 97.0688 6.8401 97.0688 8.0001C97.0688 9.1601 97.1888 10.1401 97.4288 10.9401C97.6821 11.7401 98.0488 12.3468 98.5288 12.7601C99.0221 13.1601 99.6221 13.3601 100.329 13.3601ZM108.03 14.6001V13.3001C109.35 12.3268 110.45 11.4734 111.33 10.7401C112.224 10.0068 112.937 9.3401 113.47 8.7401C114.004 8.1401 114.384 7.57343 114.61 7.0401C114.837 6.49343 114.95 5.92676 114.95 5.3401C114.95 4.55343 114.697 3.9201 114.19 3.4401C113.697 2.94676 113.017 2.7001 112.15 2.7001C111.244 2.7001 110.517 3.0001 109.97 3.6001C109.424 4.18676 109.104 4.97343 109.01 5.9601L107.61 5.1201C107.73 4.34676 107.977 3.66676 108.35 3.0801C108.737 2.49343 109.25 2.03343 109.89 1.7001C110.544 1.36676 111.317 1.2001 112.21 1.2001C112.89 1.2001 113.497 1.3001 114.03 1.5001C114.577 1.7001 115.044 1.98676 115.43 2.3601C115.817 2.7201 116.11 3.15343 116.31 3.6601C116.524 4.16676 116.63 4.72676 116.63 5.3401C116.63 6.16676 116.43 6.9801 116.03 7.7801C115.63 8.56676 114.97 9.39343 114.05 10.2601C113.13 11.1268 111.884 12.0868 110.31 13.1401V13.1601C110.457 13.1468 110.657 13.1401 110.91 13.1401C111.177 13.1268 111.437 13.1201 111.69 13.1201C111.957 13.1068 112.157 13.1001 112.29 13.1001H116.91V14.6001H108.03ZM119.69 14.6001V13.3001C121.01 12.3268 122.11 11.4734 122.99 10.7401C123.884 10.0068 124.597 9.3401 125.13 8.7401C125.664 8.1401 126.044 7.57343 126.27 7.0401C126.497 6.49343 126.61 5.92676 126.61 5.3401C126.61 4.55343 126.357 3.9201 125.85 3.4401C125.357 2.94676 124.677 2.7001 123.81 2.7001C122.904 2.7001 122.177 3.0001 121.63 3.6001C121.084 4.18676 120.764 4.97343 120.67 5.9601L119.27 5.1201C119.39 4.34676 119.637 3.66676 120.01 3.0801C120.397 2.49343 120.91 2.03343 121.55 1.7001C122.204 1.36676 122.977 1.2001 123.87 1.2001C124.55 1.2001 125.157 1.3001 125.69 1.5001C126.237 1.7001 126.704 1.98676 127.09 2.3601C127.477 2.7201 127.77 3.15343 127.97 3.6601C128.184 4.16676 128.29 4.72676 128.29 5.3401C128.29 6.16676 128.09 6.9801 127.69 7.7801C127.29 8.56676 126.63 9.39343 125.71 10.2601C124.79 11.1268 123.544 12.0868 121.97 13.1401V13.1601C122.117 13.1468 122.317 13.1401 122.57 13.1401C122.837 13.1268 123.097 13.1201 123.35 13.1201C123.617 13.1068 123.817 13.1001 123.95 13.1001H128.57V14.6001H119.69ZM132.53 12.2001C132.917 12.2001 133.23 12.3201 133.47 12.5601C133.71 12.8001 133.83 13.1134 133.83 13.5001C133.83 13.8868 133.71 14.2001 133.47 14.4401C133.23 14.6801 132.917 14.8001 132.53 14.8001C132.144 14.8001 131.83 14.6801 131.59 14.4401C131.35 14.2001 131.23 13.8868 131.23 13.5001C131.23 13.1134 131.35 12.8001 131.59 12.5601C131.83 12.3201 132.144 12.2001 132.53 12.2001ZM153.879 14.6001H152.179L150.779 10.9401H144.799L143.399 14.6001H141.719L146.859 1.4001H148.759L153.879 14.6001ZM145.379 9.4401H150.199L147.779 2.9401L145.379 9.4401ZM157.782 9.72748e-05V12.0601C157.782 12.5668 157.875 12.9201 158.062 13.1201C158.248 13.3068 158.548 13.4001 158.962 13.4001C159.228 13.4001 159.448 13.3801 159.622 13.3401C159.795 13.3001 160.028 13.2268 160.322 13.1201L160.062 14.5201C159.848 14.6134 159.615 14.6801 159.362 14.7201C159.108 14.7734 158.848 14.8001 158.582 14.8001C157.768 14.8001 157.162 14.5801 156.762 14.1401C156.375 13.7001 156.182 13.0268 156.182 12.1201V9.72748e-05H157.782ZM163.895 9.72748e-05V12.0601C163.895 12.5668 163.988 12.9201 164.175 13.1201C164.362 13.3068 164.662 13.4001 165.075 13.4001C165.342 13.4001 165.562 13.3801 165.735 13.3401C165.908 13.3001 166.142 13.2268 166.435 13.1201L166.175 14.5201C165.962 14.6134 165.728 14.6801 165.475 14.7201C165.222 14.7734 164.962 14.8001 164.695 14.8001C163.882 14.8001 163.275 14.5801 162.875 14.1401C162.488 13.7001 162.295 13.0268 162.295 12.1201V9.72748e-05H163.895ZM174.602 14.6001V4.6001H175.902L176.122 6.2401C176.402 5.62676 176.808 5.16676 177.342 4.8601C177.888 4.55343 178.548 4.4001 179.322 4.4001C179.495 4.4001 179.682 4.41343 179.882 4.4401C180.095 4.46676 180.275 4.5201 180.422 4.6001L180.142 6.0601C179.995 6.00676 179.835 5.96676 179.662 5.9401C179.488 5.91343 179.242 5.9001 178.922 5.9001C178.508 5.9001 178.088 6.0201 177.662 6.2601C177.248 6.5001 176.902 6.86676 176.622 7.3601C176.342 7.8401 176.202 8.45343 176.202 9.2001V14.6001H174.602ZM183.566 2.6801C183.206 2.6801 182.912 2.57343 182.686 2.3601C182.472 2.13343 182.366 1.8401 182.366 1.4801C182.366 1.1201 182.472 0.83343 182.686 0.620096C182.912 0.39343 183.206 0.280097 183.566 0.280097C183.926 0.280097 184.212 0.39343 184.426 0.620096C184.652 0.83343 184.766 1.1201 184.766 1.4801C184.766 1.8401 184.652 2.13343 184.426 2.3601C184.212 2.57343 183.926 2.6801 183.566 2.6801ZM184.366 4.6001V14.6001H182.766V4.6001H184.366ZM196.498 2.7601L196.858 4.1801C196.845 4.1801 196.825 4.1801 196.798 4.1801C196.771 4.1801 196.745 4.1801 196.718 4.1801C196.065 4.1801 195.558 4.31343 195.198 4.5801C194.851 4.83343 194.678 5.24676 194.678 5.8201L193.698 5.3201C193.698 4.8001 193.818 4.34676 194.058 3.9601C194.298 3.57343 194.625 3.2801 195.038 3.0801C195.451 2.86676 195.905 2.7601 196.398 2.7601C196.411 2.7601 196.425 2.7601 196.438 2.7601C196.465 2.7601 196.485 2.7601 196.498 2.7601ZM193.458 13.3201C194.405 13.3201 195.145 13.5401 195.678 13.9801C196.211 14.4068 196.478 14.9801 196.478 15.7001C196.478 16.3534 196.258 16.9201 195.818 17.4001C195.391 17.8801 194.811 18.2468 194.078 18.5001C193.358 18.7668 192.545 18.9001 191.638 18.9001C190.065 18.9001 188.885 18.6334 188.098 18.1001C187.325 17.5668 186.938 16.9268 186.938 16.1801C186.938 15.6468 187.111 15.1668 187.458 14.7401C187.818 14.3268 188.418 14.0934 189.258 14.0401L189.118 14.3401C188.665 14.2201 188.278 14.0201 187.958 13.7401C187.651 13.4468 187.498 13.0268 187.498 12.4801C187.498 11.9334 187.698 11.4668 188.098 11.0801C188.511 10.6801 189.118 10.4334 189.918 10.3401L190.978 10.8801H190.778C190.125 10.9468 189.658 11.1134 189.378 11.3801C189.111 11.6334 188.978 11.9134 188.978 12.2201C188.978 12.5934 189.111 12.8734 189.378 13.0601C189.658 13.2334 190.045 13.3201 190.538 13.3201H193.458ZM191.618 17.5601C192.391 17.5601 193.025 17.4801 193.518 17.3201C194.025 17.1601 194.398 16.9534 194.638 16.7001C194.878 16.4468 194.998 16.1734 194.998 15.8801C194.998 15.5201 194.851 15.2334 194.558 15.0201C194.278 14.8068 193.765 14.7001 193.018 14.7001H189.938C189.511 14.7001 189.151 14.8068 188.858 15.0201C188.565 15.2468 188.418 15.5534 188.418 15.9401C188.418 16.4334 188.698 16.8268 189.258 17.1201C189.831 17.4134 190.618 17.5601 191.618 17.5601ZM191.478 4.4001C192.278 4.4001 192.985 4.54676 193.598 4.8401C194.225 5.1201 194.711 5.51343 195.058 6.0201C195.405 6.52676 195.578 7.11343 195.578 7.7801C195.578 8.43343 195.405 9.0201 195.058 9.5401C194.711 10.0468 194.225 10.4468 193.598 10.7401C192.985 11.0201 192.278 11.1601 191.478 11.1601C190.158 11.1601 189.145 10.8468 188.438 10.2201C187.731 9.5801 187.378 8.76676 187.378 7.7801C187.378 7.11343 187.551 6.52676 187.898 6.0201C188.258 5.51343 188.745 5.1201 189.358 4.8401C189.971 4.54676 190.678 4.4001 191.478 4.4001ZM191.478 5.7001C190.785 5.7001 190.205 5.89343 189.738 6.2801C189.271 6.65343 189.038 7.15343 189.038 7.7801C189.038 8.39343 189.271 8.89343 189.738 9.2801C190.205 9.66676 190.785 9.8601 191.478 9.8601C192.171 9.8601 192.751 9.66676 193.218 9.2801C193.685 8.89343 193.918 8.39343 193.918 7.7801C193.918 7.15343 193.685 6.65343 193.218 6.2801C192.751 5.89343 192.171 5.7001 191.478 5.7001ZM198.723 14.6001V9.72748e-05H200.323V6.1001C200.669 5.5001 201.129 5.06676 201.703 4.8001C202.276 4.53343 202.903 4.4001 203.583 4.4001C204.303 4.4001 204.956 4.5401 205.543 4.8201C206.129 5.08676 206.596 5.5001 206.943 6.0601C207.303 6.6201 207.483 7.33343 207.483 8.2001V14.6001H205.883V8.7601C205.883 7.65343 205.643 6.88676 205.163 6.4601C204.696 6.0201 204.116 5.8001 203.423 5.8001C202.943 5.8001 202.463 5.91343 201.983 6.1401C201.503 6.36676 201.103 6.7401 200.783 7.2601C200.476 7.76676 200.323 8.44676 200.323 9.3001V14.6001H198.723ZM213.329 1.7601V11.8401C213.329 12.3334 213.469 12.7001 213.749 12.9401C214.029 13.1801 214.389 13.3001 214.829 13.3001C215.215 13.3001 215.549 13.2334 215.829 13.1001C216.109 12.9668 216.362 12.7868 216.589 12.5601L217.149 13.9001C216.842 14.1801 216.475 14.4001 216.049 14.5601C215.635 14.7201 215.155 14.8001 214.609 14.8001C214.102 14.8001 213.629 14.7134 213.189 14.5401C212.749 14.3534 212.395 14.0668 212.129 13.6801C211.875 13.2801 211.742 12.7601 211.729 12.1201V2.2001L213.329 1.7601ZM216.969 4.6001V5.9801H209.729V4.6001H216.969ZM222.948 14.8001C221.974 14.8001 221.074 14.5934 220.248 14.1801C219.434 13.7668 218.808 13.1801 218.368 12.4201L219.728 11.4401C220.021 12.0534 220.448 12.5334 221.008 12.8801C221.581 13.2268 222.268 13.4001 223.068 13.4001C223.774 13.4001 224.328 13.2668 224.728 13.0001C225.128 12.7201 225.328 12.3601 225.328 11.9201C225.328 11.6401 225.234 11.3868 225.048 11.1601C224.874 10.9201 224.534 10.7468 224.028 10.6401L221.628 10.1401C220.654 9.9401 219.954 9.60676 219.528 9.1401C219.114 8.67343 218.908 8.09343 218.908 7.4001C218.908 6.85343 219.061 6.35343 219.368 5.9001C219.688 5.44676 220.134 5.08676 220.708 4.8201C221.294 4.5401 221.981 4.4001 222.768 4.4001C223.754 4.4001 224.588 4.59343 225.268 4.9801C225.948 5.36676 226.454 5.91343 226.788 6.6201L225.448 7.5001C225.221 6.91343 224.854 6.48676 224.348 6.2201C223.841 5.9401 223.314 5.8001 222.768 5.8001C222.288 5.8001 221.874 5.86676 221.528 6.0001C221.194 6.13343 220.934 6.3201 220.748 6.5601C220.574 6.78676 220.488 7.04676 220.488 7.3401C220.488 7.63343 220.588 7.90676 220.788 8.1601C220.988 8.4001 221.361 8.57343 221.908 8.6801L224.408 9.2001C225.341 9.38676 225.994 9.69343 226.368 10.1201C226.741 10.5468 226.928 11.0668 226.928 11.6801C226.928 12.3068 226.761 12.8601 226.428 13.3401C226.094 13.8068 225.628 14.1668 225.028 14.4201C224.428 14.6734 223.734 14.8001 222.948 14.8001ZM236.711 14.6001V4.6001H238.011L238.231 6.2401C238.511 5.62676 238.918 5.16676 239.451 4.8601C239.998 4.55343 240.658 4.4001 241.431 4.4001C241.604 4.4001 241.791 4.41343 241.991 4.4401C242.204 4.46676 242.384 4.5201 242.531 4.6001L242.251 6.0601C242.104 6.00676 241.944 5.96676 241.771 5.9401C241.598 5.91343 241.351 5.9001 241.031 5.9001C240.618 5.9001 240.198 6.0201 239.771 6.2601C239.358 6.5001 239.011 6.86676 238.731 7.3601C238.451 7.8401 238.311 8.45343 238.311 9.2001V14.6001H236.711ZM248.743 14.8001C247.796 14.8001 246.949 14.5934 246.203 14.1801C245.469 13.7668 244.896 13.1734 244.483 12.4001C244.069 11.6134 243.863 10.6801 243.863 9.6001C243.863 8.5201 244.069 7.59343 244.483 6.8201C244.896 6.03343 245.463 5.43343 246.183 5.0201C246.903 4.60676 247.723 4.4001 248.643 4.4001C249.576 4.4001 250.369 4.6001 251.023 5.0001C251.689 5.4001 252.196 5.94676 252.543 6.6401C252.889 7.3201 253.063 8.08676 253.063 8.9401C253.063 9.16676 253.056 9.37343 253.043 9.5601C253.029 9.74676 253.009 9.91343 252.983 10.0601H244.903V8.6401H252.283L251.463 8.8001C251.463 7.8401 251.196 7.1001 250.663 6.5801C250.143 6.0601 249.456 5.8001 248.603 5.8001C247.949 5.8001 247.383 5.95343 246.903 6.2601C246.436 6.55343 246.069 6.98676 245.803 7.5601C245.549 8.1201 245.423 8.8001 245.423 9.6001C245.423 10.3868 245.556 11.0668 245.823 11.6401C246.089 12.2134 246.463 12.6534 246.943 12.9601C247.436 13.2534 248.023 13.4001 248.703 13.4001C249.436 13.4001 250.029 13.2601 250.483 12.9801C250.949 12.7001 251.323 12.3201 251.603 11.8401L252.863 12.5801C252.609 13.0334 252.283 13.4268 251.883 13.7601C251.496 14.0934 251.036 14.3534 250.503 14.5401C249.983 14.7134 249.396 14.8001 248.743 14.8001ZM259.705 14.8001C258.732 14.8001 257.832 14.5934 257.005 14.1801C256.192 13.7668 255.565 13.1801 255.125 12.4201L256.485 11.4401C256.779 12.0534 257.205 12.5334 257.765 12.8801C258.339 13.2268 259.025 13.4001 259.825 13.4001C260.532 13.4001 261.085 13.2668 261.485 13.0001C261.885 12.7201 262.085 12.3601 262.085 11.9201C262.085 11.6401 261.992 11.3868 261.805 11.1601C261.632 10.9201 261.292 10.7468 260.785 10.6401L258.385 10.1401C257.412 9.9401 256.712 9.60676 256.285 9.1401C255.872 8.67343 255.665 8.09343 255.665 7.4001C255.665 6.85343 255.819 6.35343 256.125 5.9001C256.445 5.44676 256.892 5.08676 257.465 4.8201C258.052 4.5401 258.739 4.4001 259.525 4.4001C260.512 4.4001 261.345 4.59343 262.025 4.9801C262.705 5.36676 263.212 5.91343 263.545 6.6201L262.205 7.5001C261.979 6.91343 261.612 6.48676 261.105 6.2201C260.599 5.9401 260.072 5.8001 259.525 5.8001C259.045 5.8001 258.632 5.86676 258.285 6.0001C257.952 6.13343 257.692 6.3201 257.505 6.5601C257.332 6.78676 257.245 7.04676 257.245 7.3401C257.245 7.63343 257.345 7.90676 257.545 8.1601C257.745 8.4001 258.119 8.57343 258.665 8.6801L261.165 9.2001C262.099 9.38676 262.752 9.69343 263.125 10.1201C263.499 10.5468 263.685 11.0668 263.685 11.6801C263.685 12.3068 263.519 12.8601 263.185 13.3401C262.852 13.8068 262.385 14.1668 261.785 14.4201C261.185 14.6734 260.492 14.8001 259.705 14.8001ZM270.832 14.8001C269.886 14.8001 269.039 14.5934 268.292 14.1801C267.559 13.7668 266.986 13.1734 266.572 12.4001C266.159 11.6134 265.952 10.6801 265.952 9.6001C265.952 8.5201 266.159 7.59343 266.572 6.8201C266.986 6.03343 267.552 5.43343 268.272 5.0201C268.992 4.60676 269.812 4.4001 270.732 4.4001C271.666 4.4001 272.459 4.6001 273.112 5.0001C273.779 5.4001 274.286 5.94676 274.632 6.6401C274.979 7.3201 275.152 8.08676 275.152 8.9401C275.152 9.16676 275.146 9.37343 275.132 9.5601C275.119 9.74676 275.099 9.91343 275.072 10.0601H266.992V8.6401H274.372L273.552 8.8001C273.552 7.8401 273.286 7.1001 272.752 6.5801C272.232 6.0601 271.546 5.8001 270.692 5.8001C270.039 5.8001 269.472 5.95343 268.992 6.2601C268.526 6.55343 268.159 6.98676 267.892 7.5601C267.639 8.1201 267.512 8.8001 267.512 9.6001C267.512 10.3868 267.646 11.0668 267.912 11.6401C268.179 12.2134 268.552 12.6534 269.032 12.9601C269.526 13.2534 270.112 13.4001 270.792 13.4001C271.526 13.4001 272.119 13.2601 272.572 12.9801C273.039 12.7001 273.412 12.3201 273.692 11.8401L274.952 12.5801C274.699 13.0334 274.372 13.4268 273.972 13.7601C273.586 14.0934 273.126 14.3534 272.592 14.5401C272.072 14.7134 271.486 14.8001 270.832 14.8001ZM278.195 14.6001V4.6001H279.495L279.715 6.2401C279.995 5.62676 280.402 5.16676 280.935 4.8601C281.482 4.55343 282.142 4.4001 282.915 4.4001C283.089 4.4001 283.275 4.41343 283.475 4.4401C283.689 4.46676 283.869 4.5201 284.015 4.6001L283.735 6.0601C283.589 6.00676 283.429 5.96676 283.255 5.9401C283.082 5.91343 282.835 5.9001 282.515 5.9001C282.102 5.9001 281.682 6.0201 281.255 6.2601C280.842 6.5001 280.495 6.86676 280.215 7.3601C279.935 7.8401 279.795 8.45343 279.795 9.2001V14.6001H278.195ZM292.979 4.6001H294.659L290.499 14.6001H288.899L284.739 4.6001H286.559L289.719 12.9801L292.979 4.6001ZM300.93 14.8001C299.983 14.8001 299.137 14.5934 298.39 14.1801C297.657 13.7668 297.083 13.1734 296.67 12.4001C296.257 11.6134 296.05 10.6801 296.05 9.6001C296.05 8.5201 296.257 7.59343 296.67 6.8201C297.083 6.03343 297.65 5.43343 298.37 5.0201C299.09 4.60676 299.91 4.4001 300.83 4.4001C301.763 4.4001 302.557 4.6001 303.21 5.0001C303.877 5.4001 304.383 5.94676 304.73 6.6401C305.077 7.3201 305.25 8.08676 305.25 8.9401C305.25 9.16676 305.243 9.37343 305.23 9.5601C305.217 9.74676 305.197 9.91343 305.17 10.0601H297.09V8.6401H304.47L303.65 8.8001C303.65 7.8401 303.383 7.1001 302.85 6.5801C302.33 6.0601 301.643 5.8001 300.79 5.8001C300.137 5.8001 299.57 5.95343 299.09 6.2601C298.623 6.55343 298.257 6.98676 297.99 7.5601C297.737 8.1201 297.61 8.8001 297.61 9.6001C297.61 10.3868 297.743 11.0668 298.01 11.6401C298.277 12.2134 298.65 12.6534 299.13 12.9601C299.623 13.2534 300.21 13.4001 300.89 13.4001C301.623 13.4001 302.217 13.2601 302.67 12.9801C303.137 12.7001 303.51 12.3201 303.79 11.8401L305.05 12.5801C304.797 13.0334 304.47 13.4268 304.07 13.7601C303.683 14.0934 303.223 14.3534 302.69 14.5401C302.17 14.7134 301.583 14.8001 300.93 14.8001ZM312.193 14.8001C311.366 14.8001 310.606 14.5934 309.913 14.1801C309.22 13.7668 308.666 13.1734 308.253 12.4001C307.84 11.6134 307.633 10.6801 307.633 9.6001C307.633 8.49343 307.853 7.55343 308.293 6.7801C308.733 6.00676 309.313 5.4201 310.033 5.0201C310.753 4.60676 311.526 4.4001 312.353 4.4001C313.18 4.4001 313.893 4.61343 314.493 5.0401C315.106 5.46676 315.513 6.03343 315.713 6.7401L315.513 6.8801V9.72748e-05H317.113V14.6001H315.713L315.573 12.1801L315.793 12.0601C315.7 12.6468 315.473 13.1468 315.113 13.5601C314.766 13.9601 314.333 14.2668 313.813 14.4801C313.306 14.6934 312.766 14.8001 312.193 14.8001ZM312.353 13.4001C312.993 13.4001 313.546 13.2401 314.013 12.9201C314.493 12.6001 314.86 12.1468 315.113 11.5601C315.38 10.9601 315.513 10.2601 315.513 9.4601C315.513 8.7001 315.38 8.04676 315.113 7.5001C314.86 6.95343 314.5 6.53343 314.033 6.2401C313.58 5.94676 313.046 5.8001 312.433 5.8001C311.42 5.8001 310.633 6.14676 310.073 6.8401C309.513 7.53343 309.233 8.45343 309.233 9.6001C309.233 10.7468 309.506 11.6668 310.053 12.3601C310.6 13.0534 311.366 13.4001 312.353 13.4001ZM321.632 12.2001C322.019 12.2001 322.332 12.3201 322.572 12.5601C322.812 12.8001 322.932 13.1134 322.932 13.5001C322.932 13.8868 322.812 14.2001 322.572 14.4401C322.332 14.6801 322.019 14.8001 321.632 14.8001C321.245 14.8001 320.932 14.6801 320.692 14.4401C320.452 14.2001 320.332 13.8868 320.332 13.5001C320.332 13.1134 320.452 12.8001 320.692 12.5601C320.932 12.3201 321.245 12.2001 321.632 12.2001Z" fill="white"/>
</svg>
