<svg width="411" height="162" viewBox="0 0 411 162" fill="none" xmlns="http://www.w3.org/2000/svg">
<path d="M151.469 4.44C152.333 4.44 153.069 4.57867 153.677 4.856C154.285 5.13333 154.749 5.53333 155.069 6.056C155.389 6.57867 155.549 7.21333 155.549 7.96C155.549 8.70667 155.389 9.34133 155.069 9.864C154.749 10.3867 154.285 10.7867 153.677 11.064C153.069 11.3413 152.333 11.48 151.469 11.48H149.373V15H146.621V4.44H151.469ZM151.037 9.416C151.613 9.416 152.045 9.29867 152.333 9.064C152.632 8.81867 152.781 8.45067 152.781 7.96C152.781 7.46933 152.632 7.10667 152.333 6.872C152.045 6.62667 151.613 6.504 151.037 6.504H149.373V9.416H151.037ZM170.831 15H167.999L167.263 12.616H163.647L162.895 15H160.127L163.839 4.44H167.135L170.831 15ZM164.159 10.744H166.751L165.455 6.472L164.159 10.744ZM182.099 4.44C183.357 4.44 184.333 4.73867 185.027 5.336C185.731 5.92267 186.083 6.70667 186.083 7.688C186.083 8.76533 185.736 9.58667 185.043 10.152C184.349 10.7173 183.373 11 182.115 11L181.859 11.144H179.763V15H177.059V4.44H182.099ZM181.715 9.192C182.248 9.192 182.648 9.08533 182.915 8.872C183.181 8.65867 183.315 8.31733 183.315 7.848C183.315 7.38933 183.181 7.05333 182.915 6.84C182.648 6.62667 182.248 6.52 181.715 6.52H179.763V9.192H181.715ZM183.331 9.768L186.707 15H183.667L180.963 10.376L183.331 9.768ZM201.845 4.44V6.568H198.405V15H195.653V6.568H192.197V4.44H201.845ZM217.938 4.44V15H214.882L211.602 9.288L210.802 7.72H210.786L210.85 9.672V15H208.418V4.44H211.474L214.754 10.152L215.554 11.72H215.57L215.506 9.768V4.44H217.938ZM225.277 15V4.44H233.501V6.568H228.029V8.712H232.381V10.712H228.029V12.872H233.709V15H225.277ZM245.411 4.44C246.67 4.44 247.646 4.73867 248.339 5.336C249.043 5.92267 249.395 6.70667 249.395 7.688C249.395 8.76533 249.048 9.58667 248.355 10.152C247.662 10.7173 246.686 11 245.427 11L245.171 11.144H243.075V15H240.371V4.44H245.411ZM245.027 9.192C245.56 9.192 245.96 9.08533 246.227 8.872C246.494 8.65867 246.627 8.31733 246.627 7.848C246.627 7.38933 246.494 7.05333 246.227 6.84C245.96 6.62667 245.56 6.52 245.027 6.52H243.075V9.192H245.027ZM246.643 9.768L250.019 15H246.979L244.275 10.376L246.643 9.768ZM260.53 4.28C261.512 4.28 262.376 4.43467 263.122 4.744C263.88 5.04267 264.536 5.48533 265.09 6.072L263.762 7.848C263.304 7.368 262.808 7.01067 262.274 6.776C261.752 6.53067 261.154 6.408 260.482 6.408C260.088 6.408 259.768 6.45067 259.522 6.536C259.277 6.62133 259.101 6.73867 258.994 6.888C258.888 7.03733 258.834 7.208 258.834 7.4C258.834 7.624 258.936 7.816 259.138 7.976C259.352 8.12533 259.693 8.25333 260.162 8.36L261.938 8.76C262.994 9.00533 263.768 9.36267 264.258 9.832C264.749 10.3013 264.994 10.9253 264.994 11.704C264.994 12.4507 264.802 13.0853 264.418 13.608C264.034 14.12 263.506 14.5093 262.834 14.776C262.162 15.032 261.394 15.16 260.53 15.16C259.826 15.16 259.154 15.0853 258.514 14.936C257.874 14.776 257.298 14.552 256.786 14.264C256.274 13.976 255.842 13.6453 255.49 13.272L256.818 11.432C257.085 11.7413 257.41 12.0187 257.794 12.264C258.189 12.4987 258.616 12.6853 259.074 12.824C259.544 12.9627 260.018 13.032 260.498 13.032C260.872 13.032 261.181 12.9947 261.426 12.92C261.682 12.8453 261.869 12.7333 261.986 12.584C262.104 12.4347 262.162 12.2587 262.162 12.056C262.162 11.832 262.082 11.6453 261.922 11.496C261.762 11.336 261.458 11.2027 261.01 11.096L259.058 10.664C258.461 10.5253 257.928 10.344 257.458 10.12C257 9.88533 256.637 9.576 256.37 9.192C256.104 8.79733 255.97 8.30667 255.97 7.72C255.97 7.05867 256.152 6.472 256.514 5.96C256.877 5.43733 257.4 5.02667 258.082 4.728C258.765 4.42933 259.581 4.28 260.53 4.28Z" fill="#74C69D"/>
<path d="M36.4766 73.1562C36.3724 73.0521 36.3203 72.8307 36.3203 72.4922C36.3203 71.9714 36.3724 71.7109 36.4766 71.7109C36.6849 71.7109 36.9844 71.6719 37.375 71.5938C37.7656 71.5156 38.1302 71.4115 38.4688 71.2812C38.8073 71.125 39.0026 70.9818 39.0547 70.8516C39.2109 70.2526 39.2891 69.1068 39.2891 67.4141V52.4922C39.2891 50.9036 39.1849 49.9271 38.9766 49.5625C38.8984 49.4062 38.6901 49.263 38.3516 49.1328C38.0391 48.9766 37.7135 48.8464 37.375 48.7422C37.0365 48.638 36.763 48.5859 36.5547 48.5859C36.4505 48.5859 36.3984 48.3646 36.3984 47.9219C36.3984 47.4531 36.4245 47.1927 36.4766 47.1406L42.1406 47.375C42.401 47.401 42.987 47.388 43.8984 47.3359C44.8099 47.2839 46.0469 47.2188 47.6094 47.1406C47.6875 47.375 47.7266 47.6094 47.7266 47.8438C47.7266 48.3385 47.6745 48.5859 47.5703 48.5859C47.4141 48.5859 47.1406 48.638 46.75 48.7422C46.3594 48.8464 45.9818 48.9766 45.6172 49.1328C45.2786 49.263 45.0833 49.3932 45.0312 49.5234C44.9271 49.862 44.849 50.3047 44.7969 50.8516C44.7708 51.3724 44.7578 51.9714 44.7578 52.6484V67.4531C44.7578 68.7031 44.862 69.6406 45.0703 70.2656C45.1745 70.6823 46.0599 70.8906 47.7266 70.8906H48.7422C50.3568 70.8906 51.8151 70.5521 53.1172 69.875C53.5599 69.6406 54.0547 69.1979 54.6016 68.5469C55.1745 67.8958 55.6172 67.1667 55.9297 66.3594C55.9818 66.2031 56.1641 66.125 56.4766 66.125C57.1016 66.125 57.4922 66.2031 57.6484 66.3594C56.3464 69.9531 55.6432 72.1927 55.5391 73.0781C54.8099 73.0781 53.8594 73.0651 52.6875 73.0391C51.5417 73.0391 50.1745 73.026 48.5859 73C46.9974 72.974 45.6693 72.9479 44.6016 72.9219C43.5599 72.8958 42.7526 72.8958 42.1797 72.9219L36.4766 73.1562ZM68.8594 73.2734C67.1667 73.2734 65.6172 72.8828 64.2109 72.1016C62.8307 71.2943 61.724 70.2266 60.8906 68.8984C60.0833 67.5443 59.6797 66.0469 59.6797 64.4062C59.6797 62.7396 60.0833 61.2422 60.8906 59.9141C61.724 58.5859 62.8307 57.5312 64.2109 56.75C65.6172 55.9427 67.1667 55.5391 68.8594 55.5391C70.5781 55.5391 72.1276 55.9427 73.5078 56.75C74.888 57.5312 75.9818 58.5859 76.7891 59.9141C77.6224 61.2422 78.0391 62.7396 78.0391 64.4062C78.0391 66.0469 77.6354 67.5443 76.8281 68.8984C76.0208 70.2266 74.9141 71.2943 73.5078 72.1016C72.1276 72.8828 70.5781 73.2734 68.8594 73.2734ZM69.25 71.125C69.9792 71.125 70.5781 70.8776 71.0469 70.3828C71.5156 69.888 71.8542 69.237 72.0625 68.4297C72.2969 67.5964 72.4141 66.7109 72.4141 65.7734C72.4141 60.3828 71.0469 57.6875 68.3125 57.6875C67.5833 57.6875 66.9844 57.9479 66.5156 58.4688C66.0729 58.9896 65.7474 59.6667 65.5391 60.5C65.3307 61.3333 65.2266 62.2318 65.2266 63.1953C65.2266 68.4818 66.5677 71.125 69.25 71.125ZM80.3047 73.1562C80.2005 73.0521 80.1484 72.7786 80.1484 72.3359C80.1484 71.9193 80.2005 71.7109 80.3047 71.7109C80.513 71.7109 80.8125 71.6589 81.2031 71.5547C81.5938 71.4245 81.9583 71.2812 82.2969 71.125C82.6354 70.9688 82.8177 70.8385 82.8438 70.7344C83.026 70.0052 83.1172 69.0156 83.1172 67.7656V62.4141C83.1172 60.9557 82.8828 59.9792 82.4141 59.4844C82.2057 59.224 81.9193 59.0417 81.5547 58.9375C81.2161 58.8333 80.9167 58.7682 80.6562 58.7422C80.3958 58.6901 80.2656 58.638 80.2656 58.5859C80.2656 57.6745 80.3307 57.2188 80.4609 57.2188C81.138 57.2188 82.0755 57.0755 83.2734 56.7891C84.4974 56.4766 85.7865 56.1771 87.1406 55.8906L88.0391 55.6953C88.1693 55.6953 88.2995 55.7865 88.4297 55.9688C88.5599 56.125 88.625 56.2552 88.625 56.3594C88.599 56.5156 88.5599 56.8281 88.5078 57.2969C88.4818 57.7656 88.4557 58.026 88.4297 58.0781C89.7318 56.3854 91.2031 55.5391 92.8438 55.5391C94.0156 55.5391 95.1354 56.0208 96.2031 56.9844C96.2031 58.3385 96.0339 59.3411 95.6953 59.9922C95.3828 60.6432 94.7969 60.9688 93.9375 60.9688C93.4167 60.9688 92.8177 60.6693 92.1406 60.0703C91.4635 59.4714 90.8646 59.1719 90.3438 59.1719C89.8229 59.1719 89.4062 59.3802 89.0938 59.7969C88.7812 60.1875 88.5469 60.6953 88.3906 61.3203C88.2604 61.9453 88.1953 62.5964 88.1953 63.2734V67.2188C88.1953 68.9115 88.2865 70.0833 88.4688 70.7344C88.5208 70.8385 88.7031 70.9688 89.0156 71.125C89.3281 71.2812 89.6667 71.4245 90.0312 71.5547C90.3958 71.6589 90.6432 71.7109 90.7734 71.7109C90.8255 71.7109 90.8646 71.8151 90.8906 72.0234C90.9167 72.2318 90.9297 72.4531 90.9297 72.6875C90.9297 72.9219 90.9036 73.0781 90.8516 73.1562C90.6432 73.1302 90.2005 73.0911 89.5234 73.0391C88.8464 73.013 88.1302 72.974 87.375 72.9219C86.6458 72.8698 86.0729 72.8438 85.6562 72.8438C85.3438 72.8438 84.9141 72.8568 84.3672 72.8828C83.8464 72.9089 83.2995 72.9479 82.7266 73C82.1536 73.026 81.6458 73.0521 81.2031 73.0781C80.7604 73.1302 80.4609 73.1562 80.3047 73.1562ZM106.633 73.2734C105.044 73.2734 103.573 72.8698 102.219 72.0625C100.891 71.2552 99.8229 70.1745 99.0156 68.8203C98.2344 67.4661 97.8438 65.9818 97.8438 64.3672C97.8438 62.7005 98.1953 61.2031 98.8984 59.875C99.6276 58.5469 100.63 57.4922 101.906 56.7109C103.182 55.9297 104.654 55.5391 106.32 55.5391C107.961 55.5391 109.354 55.9297 110.5 56.7109C111.672 57.4661 112.557 58.4167 113.156 59.5625C113.781 60.6823 114.094 61.8151 114.094 62.9609C114.094 63.5599 113.964 63.9505 113.703 64.1328C113.469 64.3151 112.987 64.4062 112.258 64.4062H103.43C103.273 64.4062 103.195 64.4974 103.195 64.6797C103.195 65.6172 103.365 66.5026 103.703 67.3359C104.068 68.1693 104.589 68.8464 105.266 69.3672C105.969 69.888 106.815 70.1484 107.805 70.1484C108.69 70.1484 109.51 70.0182 110.266 69.7578C110.786 69.6016 111.19 69.4583 111.477 69.3281C111.763 69.1979 112.023 69.0547 112.258 68.8984C112.518 68.7161 112.818 68.4948 113.156 68.2344C113.391 68.3385 113.508 68.5859 113.508 68.9766C113.508 69.3151 113.456 69.5755 113.352 69.7578C113.195 70.1745 112.779 70.6562 112.102 71.2031C111.451 71.75 110.643 72.2318 109.68 72.6484C108.742 73.0651 107.727 73.2734 106.633 73.2734ZM103.469 62.2578H108.43C108.794 62.2578 108.977 62.0104 108.977 61.5156C108.977 60.526 108.703 59.6406 108.156 58.8594C107.635 58.0781 106.958 57.6875 106.125 57.6875C105.37 57.6875 104.771 57.9609 104.328 58.5078C103.911 59.0286 103.612 59.6146 103.43 60.2656C103.273 60.9167 103.195 61.4505 103.195 61.8672C103.195 62.1276 103.286 62.2578 103.469 62.2578ZM116.477 73.1562C116.372 73.0521 116.32 72.7786 116.32 72.3359C116.32 71.9193 116.372 71.7109 116.477 71.7109C116.685 71.7109 116.984 71.6589 117.375 71.5547C117.766 71.4245 118.13 71.2812 118.469 71.125C118.807 70.9688 118.99 70.8385 119.016 70.7344C119.198 70.0052 119.289 69.0156 119.289 67.7656V62.4141C119.289 60.9557 119.055 59.9792 118.586 59.4844C118.378 59.224 118.091 59.0417 117.727 58.9375C117.388 58.8333 117.089 58.7682 116.828 58.7422C116.568 58.6901 116.438 58.638 116.438 58.5859C116.438 57.6745 116.503 57.2188 116.633 57.2188C117.414 57.1667 118.365 57.0104 119.484 56.75C120.604 56.4635 121.919 56.1771 123.43 55.8906L124.211 55.6953C124.341 55.6953 124.471 55.7865 124.602 55.9688C124.758 56.125 124.823 56.2552 124.797 56.3594L124.641 57.5703C124.641 57.7005 124.654 57.7786 124.68 57.8047C124.732 57.8047 124.823 57.7396 124.953 57.6094C126.385 56.2552 128.195 55.5781 130.383 55.5781C132.258 55.5781 133.638 56.4766 134.523 58.2734C136.138 56.5026 138.482 55.6042 141.555 55.5781C143.065 55.5781 144.289 56.2161 145.227 57.4922C146.19 58.7682 146.672 60.7083 146.672 63.3125V67.1797C146.672 68.8984 146.763 70.0833 146.945 70.7344C146.997 70.8385 147.18 70.9688 147.492 71.125C147.831 71.2812 148.182 71.4245 148.547 71.5547C148.911 71.6589 149.172 71.7109 149.328 71.7109C149.38 71.7109 149.419 71.8151 149.445 72.0234C149.471 72.2318 149.484 72.4531 149.484 72.6875C149.484 72.9219 149.458 73.0781 149.406 73.1562C149.25 73.1562 148.951 73.1302 148.508 73.0781C148.065 73.0521 147.557 73.026 146.984 73C146.438 72.9479 145.904 72.9089 145.383 72.8828C144.862 72.8568 144.445 72.8438 144.133 72.8438C143.716 72.8438 143.13 72.8698 142.375 72.9219C141.62 72.974 140.891 73.013 140.188 73.0391C139.51 73.0911 139.068 73.1302 138.859 73.1562C138.755 73.0521 138.703 72.7786 138.703 72.3359C138.703 71.9193 138.755 71.7109 138.859 71.7109C139.068 71.7109 139.354 71.6589 139.719 71.5547C140.109 71.4245 140.461 71.2812 140.773 71.125C141.112 70.9688 141.294 70.8385 141.32 70.7344C141.503 70.0052 141.594 69.0156 141.594 67.7656V64.25C141.594 62.4531 141.32 61.112 140.773 60.2266C140.253 59.3411 139.406 58.8984 138.234 58.8984C137.505 58.8984 136.893 59.0286 136.398 59.2891C135.904 59.5495 135.578 60.0182 135.422 60.6953C135.422 60.9297 135.435 61.2422 135.461 61.6328C135.487 61.9974 135.5 62.5573 135.5 63.3125V67.1797C135.5 68.8984 135.591 70.0833 135.773 70.7344C135.826 70.8385 136.008 70.9688 136.32 71.125C136.659 71.2812 137.01 71.4245 137.375 71.5547C137.74 71.6589 138 71.7109 138.156 71.7109C138.208 71.7109 138.247 71.8151 138.273 72.0234C138.299 72.2318 138.312 72.4531 138.312 72.6875C138.312 72.9219 138.286 73.0781 138.234 73.1562C138.078 73.1562 137.779 73.1302 137.336 73.0781C136.893 73.0521 136.385 73.026 135.812 73C135.266 72.9479 134.732 72.9089 134.211 72.8828C133.69 72.8568 133.273 72.8438 132.961 72.8438C132.544 72.8438 131.958 72.8698 131.203 72.9219C130.448 72.974 129.719 73.013 129.016 73.0391C128.339 73.0911 127.896 73.1302 127.688 73.1562C127.583 73.0521 127.531 72.7786 127.531 72.3359C127.531 71.9193 127.583 71.7109 127.688 71.7109C127.896 71.7109 128.182 71.6589 128.547 71.5547C128.938 71.4245 129.289 71.2812 129.602 71.125C129.94 70.9688 130.122 70.8385 130.148 70.7344C130.331 70.0052 130.422 69.0156 130.422 67.7656V64.25C130.422 62.3229 130.148 60.9557 129.602 60.1484C129.081 59.3151 128.234 58.8984 127.062 58.8984C126.255 58.8984 125.604 59.0547 125.109 59.3672C124.615 59.6536 124.367 60.0703 124.367 60.6172V67.1797C124.367 68.8984 124.458 70.0833 124.641 70.7344C124.693 70.8385 124.875 70.9688 125.188 71.125C125.5 71.2812 125.839 71.4245 126.203 71.5547C126.568 71.6589 126.815 71.7109 126.945 71.7109C126.997 71.7109 127.036 71.8151 127.062 72.0234C127.089 72.2318 127.102 72.4531 127.102 72.6875C127.102 72.9219 127.076 73.0781 127.023 73.1562C126.815 73.1302 126.372 73.0911 125.695 73.0391C125.018 73.013 124.302 72.974 123.547 72.9219C122.818 72.8698 122.245 72.8438 121.828 72.8438C121.516 72.8438 121.086 72.8568 120.539 72.8828C120.018 72.9089 119.471 72.9479 118.898 73C118.326 73.026 117.818 73.0521 117.375 73.0781C116.932 73.1302 116.633 73.1562 116.477 73.1562ZM159.289 73.1562C159.185 73.0521 159.133 72.8438 159.133 72.5312C159.133 71.9844 159.172 71.7109 159.25 71.7109C159.458 71.7109 159.758 71.6589 160.148 71.5547C160.539 71.4505 160.904 71.3203 161.242 71.1641C161.581 71.0078 161.776 70.8646 161.828 70.7344C161.932 70.3698 161.997 69.9271 162.023 69.4062C162.076 68.8854 162.102 68.2865 162.102 67.6094V52.6094C162.102 50.9427 161.997 49.9271 161.789 49.5625C161.711 49.4062 161.503 49.263 161.164 49.1328C160.852 48.9766 160.526 48.8464 160.188 48.7422C159.849 48.638 159.576 48.5859 159.367 48.5859C159.263 48.5859 159.211 48.3646 159.211 47.9219C159.211 47.4531 159.237 47.1927 159.289 47.1406L161.164 47.2578C161.737 47.3099 162.206 47.349 162.57 47.375C162.935 47.401 163.286 47.4141 163.625 47.4141C163.99 47.388 164.432 47.375 164.953 47.375C165.474 47.375 167.297 47.2969 170.422 47.1406C170.5 47.375 170.539 47.6094 170.539 47.8438C170.539 48.3385 170.487 48.5859 170.383 48.5859C170.227 48.5859 169.953 48.638 169.562 48.7422C169.172 48.8464 168.794 48.9766 168.43 49.1328C168.091 49.263 167.896 49.3932 167.844 49.5234C167.766 49.8359 167.701 50.2786 167.648 50.8516C167.596 51.3984 167.57 51.8672 167.57 52.2578V67.2969C167.57 68.026 167.596 68.6771 167.648 69.25C167.701 69.8229 167.779 70.3177 167.883 70.7344C167.935 70.8385 168.117 70.9688 168.43 71.125C168.768 71.2812 169.12 71.4245 169.484 71.5547C169.875 71.6589 170.148 71.7109 170.305 71.7109C170.409 71.7109 170.461 71.9583 170.461 72.4531C170.461 72.7135 170.435 72.9479 170.383 73.1562C170.279 73.1562 170.031 73.1432 169.641 73.1172C169.25 73.0911 168.716 73.0521 168.039 73C167.362 72.9479 166.763 72.9089 166.242 72.8828C165.721 72.8568 165.292 72.8438 164.953 72.8438C164.484 72.8438 163.846 72.8698 163.039 72.9219C162.232 72.974 161.464 73.013 160.734 73.0391C160.031 73.0911 159.549 73.1302 159.289 73.1562ZM172.727 81.5156C172.622 81.4115 172.57 81.151 172.57 80.7344C172.57 80.2917 172.622 80.0703 172.727 80.0703C172.935 80.0703 173.234 80.0052 173.625 79.875C174.016 79.7708 174.38 79.6406 174.719 79.4844C175.057 79.3281 175.24 79.1979 175.266 79.0938C175.448 78.3646 175.539 77.375 175.539 76.125V62.4141C175.539 60.9557 175.305 59.9792 174.836 59.4844C174.628 59.224 174.341 59.0417 173.977 58.9375C173.638 58.8333 173.339 58.7682 173.078 58.7422C172.818 58.6901 172.688 58.638 172.688 58.5859C172.688 57.6745 172.753 57.2188 172.883 57.2188C173.69 57.2188 174.615 57.1276 175.656 56.9453C176.698 56.737 177.87 56.4505 179.172 56.0859C179.953 55.8255 180.383 55.6953 180.461 55.6953C180.617 55.6953 180.695 55.8646 180.695 56.2031C180.695 56.2812 180.682 56.3854 180.656 56.5156C180.656 56.6198 180.643 56.75 180.617 56.9062C181.737 56.0208 182.935 55.5781 184.211 55.5781C185.878 55.5781 187.349 55.9818 188.625 56.7891C189.927 57.5703 190.943 58.612 191.672 59.9141C192.427 61.2161 192.805 62.6224 192.805 64.1328C192.805 66.0599 192.375 67.7135 191.516 69.0938C190.682 70.4479 189.523 71.4896 188.039 72.2188C186.581 72.9479 184.914 73.3125 183.039 73.3125C182.414 73.3125 181.893 73.2474 181.477 73.1172C181.06 73.013 180.826 72.9609 180.773 72.9609C180.669 72.9609 180.617 73.1693 180.617 73.5859V75.5391C180.617 77.2578 180.708 78.4427 180.891 79.0938C180.943 79.1979 181.138 79.3281 181.477 79.4844C181.815 79.6406 182.167 79.7708 182.531 79.875C182.922 80.0052 183.195 80.0703 183.352 80.0703C183.404 80.0703 183.443 80.1745 183.469 80.3828C183.495 80.5911 183.508 80.8125 183.508 81.0469C183.508 81.2812 183.482 81.4375 183.43 81.5156C183.273 81.5156 182.974 81.4896 182.531 81.4375C182.089 81.4115 181.568 81.3724 180.969 81.3203C180.396 81.2943 179.849 81.2682 179.328 81.2422C178.807 81.2161 178.391 81.2031 178.078 81.2031C177.766 81.2031 177.336 81.2161 176.789 81.2422C176.268 81.2682 175.721 81.2943 175.148 81.3203C174.576 81.3724 174.068 81.4115 173.625 81.4375C173.182 81.4896 172.883 81.5156 172.727 81.5156ZM183.664 71.2031C186.008 71.2031 187.18 69.276 187.18 65.4219C187.18 60.3698 185.995 57.8438 183.625 57.8438C182.714 57.8438 181.984 58.1172 181.438 58.6641C180.891 59.2109 180.617 59.901 180.617 60.7344V68.1172C180.617 69.1068 180.943 69.875 181.594 70.4219C182.245 70.9427 182.935 71.2031 183.664 71.2031ZM200.93 73.3906C200.331 73.3906 199.667 73.3255 198.938 73.1953C198.208 73.0651 197.531 72.8828 196.906 72.6484C196.281 72.4141 195.799 72.1667 195.461 71.9062C195.148 70.1094 194.992 68.5208 194.992 67.1406C195.122 67.0625 195.318 67.0234 195.578 67.0234C196.411 67.0234 196.841 67.1406 196.867 67.375C197.31 69.9531 198.716 71.2422 201.086 71.2422C201.711 71.2422 202.232 71.099 202.648 70.8125C203.065 70.526 203.273 70.0964 203.273 69.5234C203.273 68.9766 203.052 68.5078 202.609 68.1172C202.167 67.7266 201.646 67.375 201.047 67.0625C200.448 66.75 199.901 66.4635 199.406 66.2031C197.896 65.474 196.776 64.6797 196.047 63.8203C195.318 62.9349 194.953 61.8542 194.953 60.5781C194.953 59.3802 195.266 58.4167 195.891 57.6875C196.516 56.9323 197.349 56.3724 198.391 56.0078C199.432 55.6432 200.552 55.4609 201.75 55.4609C204.016 55.4609 205.708 55.7214 206.828 56.2422C207.089 57.388 207.219 59.0026 207.219 61.0859C207.219 61.3203 207.049 61.4375 206.711 61.4375C205.904 61.4375 205.474 61.3333 205.422 61.125C205.188 60.0312 204.784 59.1719 204.211 58.5469C203.664 57.9219 202.779 57.6094 201.555 57.6094C200.982 57.6094 200.513 57.7526 200.148 58.0391C199.784 58.2995 199.602 58.6901 199.602 59.2109C199.602 59.8099 199.862 60.3307 200.383 60.7734C200.904 61.1901 201.672 61.6458 202.688 62.1406C203.547 62.5312 204.38 62.987 205.188 63.5078C205.995 64.0026 206.646 64.6276 207.141 65.3828C207.661 66.112 207.922 67.0365 207.922 68.1562C207.922 69.875 207.258 71.1771 205.93 72.0625C204.628 72.9479 202.961 73.3906 200.93 73.3906ZM224.172 73.1953C224.016 73.1953 223.938 72.9609 223.938 72.4922V71.0469C223.938 70.8385 223.885 70.7865 223.781 70.8906C223.234 71.4635 222.427 71.9844 221.359 72.4531C220.318 72.9219 219.185 73.1562 217.961 73.1562C216.945 73.1562 216.047 72.8438 215.266 72.2188C214.51 71.5938 213.924 70.7604 213.508 69.7188C213.091 68.651 212.883 67.4792 212.883 66.2031V62.4141C212.883 60.9557 212.648 59.9792 212.18 59.4844C211.971 59.224 211.685 59.0417 211.32 58.9375C210.982 58.8333 210.682 58.7682 210.422 58.7422C210.161 58.6901 210.031 58.638 210.031 58.5859C210.031 57.6745 210.096 57.2188 210.227 57.2188C210.461 57.2188 210.891 57.1667 211.516 57.0625C212.167 56.9583 212.87 56.8411 213.625 56.7109C214.38 56.5547 215.096 56.3984 215.773 56.2422C216.477 56.0599 217.01 55.9167 217.375 55.8125C217.453 55.7865 217.518 55.7604 217.57 55.7344C217.648 55.7083 217.727 55.6953 217.805 55.6953C217.935 55.6953 218.065 55.7865 218.195 55.9688C218.326 56.125 218.391 56.2552 218.391 56.3594C218.26 57.5052 218.156 58.4036 218.078 59.0547C218 59.7057 217.961 60.1094 217.961 60.2656V64.4453C217.961 66.4766 218.221 67.9089 218.742 68.7422C219.263 69.5495 220.135 69.9531 221.359 69.9531C222.245 69.9531 222.909 69.7578 223.352 69.3672C223.794 68.9505 224.016 68.4948 224.016 68V62.4141C224.016 60.9557 223.781 59.9792 223.312 59.4844C223.104 59.224 222.818 59.0417 222.453 58.9375C222.115 58.8333 221.815 58.7682 221.555 58.7422C221.294 58.6901 221.164 58.638 221.164 58.5859C221.164 57.6745 221.229 57.2188 221.359 57.2188C221.594 57.2188 222.023 57.1667 222.648 57.0625C223.299 56.9583 224.003 56.8411 224.758 56.7109C225.513 56.5547 226.229 56.3984 226.906 56.2422C227.609 56.0599 228.143 55.9167 228.508 55.8125L228.938 55.6953C229.068 55.6953 229.198 55.7865 229.328 55.9688C229.458 56.125 229.523 56.2552 229.523 56.3594C229.393 57.5052 229.289 58.4036 229.211 59.0547C229.133 59.7057 229.094 60.0964 229.094 60.2266V67.8828C229.094 69.263 229.224 70.0833 229.484 70.3438C229.615 70.474 229.823 70.5781 230.109 70.6562C230.396 70.7083 230.682 70.7344 230.969 70.7344H231.359C231.464 70.7604 231.516 70.8646 231.516 71.0469C231.516 71.8021 231.438 72.1797 231.281 72.1797C229.667 72.3359 228.312 72.4922 227.219 72.6484C226.151 72.8047 225.318 72.9479 224.719 73.0781L224.172 73.1953ZM233.703 73.1562C233.599 73.0521 233.547 72.7786 233.547 72.3359C233.547 71.9193 233.599 71.7109 233.703 71.7109C233.911 71.7109 234.211 71.6589 234.602 71.5547C234.992 71.4245 235.357 71.2812 235.695 71.125C236.034 70.9688 236.216 70.8385 236.242 70.7344C236.424 70.0052 236.516 69.0156 236.516 67.7656V62.4141C236.516 60.9557 236.281 59.9792 235.812 59.4844C235.604 59.224 235.318 59.0417 234.953 58.9375C234.615 58.8333 234.315 58.7682 234.055 58.7422C233.794 58.6901 233.664 58.638 233.664 58.5859C233.664 57.6745 233.729 57.2188 233.859 57.2188C234.641 57.1667 235.591 57.0104 236.711 56.75C237.831 56.4635 239.146 56.1771 240.656 55.8906L241.438 55.6953C241.568 55.6953 241.698 55.7865 241.828 55.9688C241.984 56.125 242.049 56.2552 242.023 56.3594L241.867 57.5703C241.867 57.7005 241.88 57.7786 241.906 57.8047C241.958 57.8047 242.049 57.7396 242.18 57.6094C243.612 56.2552 245.422 55.5781 247.609 55.5781C249.484 55.5781 250.865 56.4766 251.75 58.2734C253.365 56.5026 255.708 55.6042 258.781 55.5781C260.292 55.5781 261.516 56.2161 262.453 57.4922C263.417 58.7682 263.898 60.7083 263.898 63.3125V67.1797C263.898 68.8984 263.99 70.0833 264.172 70.7344C264.224 70.8385 264.406 70.9688 264.719 71.125C265.057 71.2812 265.409 71.4245 265.773 71.5547C266.138 71.6589 266.398 71.7109 266.555 71.7109C266.607 71.7109 266.646 71.8151 266.672 72.0234C266.698 72.2318 266.711 72.4531 266.711 72.6875C266.711 72.9219 266.685 73.0781 266.633 73.1562C266.477 73.1562 266.177 73.1302 265.734 73.0781C265.292 73.0521 264.784 73.026 264.211 73C263.664 72.9479 263.13 72.9089 262.609 72.8828C262.089 72.8568 261.672 72.8438 261.359 72.8438C260.943 72.8438 260.357 72.8698 259.602 72.9219C258.846 72.974 258.117 73.013 257.414 73.0391C256.737 73.0911 256.294 73.1302 256.086 73.1562C255.982 73.0521 255.93 72.7786 255.93 72.3359C255.93 71.9193 255.982 71.7109 256.086 71.7109C256.294 71.7109 256.581 71.6589 256.945 71.5547C257.336 71.4245 257.688 71.2812 258 71.125C258.339 70.9688 258.521 70.8385 258.547 70.7344C258.729 70.0052 258.82 69.0156 258.82 67.7656V64.25C258.82 62.4531 258.547 61.112 258 60.2266C257.479 59.3411 256.633 58.8984 255.461 58.8984C254.732 58.8984 254.12 59.0286 253.625 59.2891C253.13 59.5495 252.805 60.0182 252.648 60.6953C252.648 60.9297 252.661 61.2422 252.688 61.6328C252.714 61.9974 252.727 62.5573 252.727 63.3125V67.1797C252.727 68.8984 252.818 70.0833 253 70.7344C253.052 70.8385 253.234 70.9688 253.547 71.125C253.885 71.2812 254.237 71.4245 254.602 71.5547C254.966 71.6589 255.227 71.7109 255.383 71.7109C255.435 71.7109 255.474 71.8151 255.5 72.0234C255.526 72.2318 255.539 72.4531 255.539 72.6875C255.539 72.9219 255.513 73.0781 255.461 73.1562C255.305 73.1562 255.005 73.1302 254.562 73.0781C254.12 73.0521 253.612 73.026 253.039 73C252.492 72.9479 251.958 72.9089 251.438 72.8828C250.917 72.8568 250.5 72.8438 250.188 72.8438C249.771 72.8438 249.185 72.8698 248.43 72.9219C247.674 72.974 246.945 73.013 246.242 73.0391C245.565 73.0911 245.122 73.1302 244.914 73.1562C244.81 73.0521 244.758 72.7786 244.758 72.3359C244.758 71.9193 244.81 71.7109 244.914 71.7109C245.122 71.7109 245.409 71.6589 245.773 71.5547C246.164 71.4245 246.516 71.2812 246.828 71.125C247.167 70.9688 247.349 70.8385 247.375 70.7344C247.557 70.0052 247.648 69.0156 247.648 67.7656V64.25C247.648 62.3229 247.375 60.9557 246.828 60.1484C246.307 59.3151 245.461 58.8984 244.289 58.8984C243.482 58.8984 242.831 59.0547 242.336 59.3672C241.841 59.6536 241.594 60.0703 241.594 60.6172V67.1797C241.594 68.8984 241.685 70.0833 241.867 70.7344C241.919 70.8385 242.102 70.9688 242.414 71.125C242.727 71.2812 243.065 71.4245 243.43 71.5547C243.794 71.6589 244.042 71.7109 244.172 71.7109C244.224 71.7109 244.263 71.8151 244.289 72.0234C244.315 72.2318 244.328 72.4531 244.328 72.6875C244.328 72.9219 244.302 73.0781 244.25 73.1562C244.042 73.1302 243.599 73.0911 242.922 73.0391C242.245 73.013 241.529 72.974 240.773 72.9219C240.044 72.8698 239.471 72.8438 239.055 72.8438C238.742 72.8438 238.312 72.8568 237.766 72.8828C237.245 72.9089 236.698 72.9479 236.125 73C235.552 73.026 235.044 73.0521 234.602 73.0781C234.159 73.1302 233.859 73.1562 233.703 73.1562ZM276.555 73.1562C276.451 73.0521 276.398 72.8307 276.398 72.4922C276.398 71.9714 276.451 71.7109 276.555 71.7109C276.763 71.7109 277.062 71.6719 277.453 71.5938C277.844 71.5156 278.208 71.4115 278.547 71.2812C278.885 71.125 279.081 70.9818 279.133 70.8516C279.289 70.2526 279.367 69.1068 279.367 67.4141V52.6484C279.367 51.1901 279.289 50.1745 279.133 49.6016C279.081 49.4453 278.872 49.2891 278.508 49.1328C278.169 48.9505 277.805 48.8073 277.414 48.7031C277.023 48.5729 276.724 48.5078 276.516 48.5078C276.411 48.5078 276.359 48.2734 276.359 47.8047C276.359 47.388 276.398 47.1406 276.477 47.0625C277.518 47.1146 278.508 47.1667 279.445 47.2188C280.409 47.2448 281.333 47.2578 282.219 47.2578H289.016C291.125 47.2578 293.013 47.5964 294.68 48.2734C296.372 48.9505 297.805 49.875 298.977 51.0469C300.148 52.2188 301.034 53.5599 301.633 55.0703C302.258 56.5807 302.57 58.1823 302.57 59.875C302.57 62.375 302.023 64.6276 300.93 66.6328C299.836 68.612 298.273 70.1875 296.242 71.3594C294.211 72.5312 291.789 73.1172 288.977 73.1172C288.716 73.1172 288.326 73.1042 287.805 73.0781C287.31 73.0781 286.685 73.0651 285.93 73.0391C285.174 72.987 284.484 72.9479 283.859 72.9219C283.234 72.8958 282.701 72.8958 282.258 72.9219L276.555 73.1562ZM289.602 70.9297C291.789 70.9297 293.482 69.9922 294.68 68.1172C295.878 66.2422 296.477 63.4427 296.477 59.7188C296.477 57.7917 296.19 56.0599 295.617 54.5234C295.044 52.9609 294.224 51.724 293.156 50.8125C292.115 49.901 290.839 49.4453 289.328 49.4453H289.133C286.919 49.4453 285.656 49.6536 285.344 50.0703C285.005 50.513 284.836 51.3333 284.836 52.5312V67.6875C284.836 69.3802 284.953 70.2917 285.188 70.4219C285.76 70.7604 287.232 70.9297 289.602 70.9297ZM313.82 73.2734C312.128 73.2734 310.578 72.8828 309.172 72.1016C307.792 71.2943 306.685 70.2266 305.852 68.8984C305.044 67.5443 304.641 66.0469 304.641 64.4062C304.641 62.7396 305.044 61.2422 305.852 59.9141C306.685 58.5859 307.792 57.5312 309.172 56.75C310.578 55.9427 312.128 55.5391 313.82 55.5391C315.539 55.5391 317.089 55.9427 318.469 56.75C319.849 57.5312 320.943 58.5859 321.75 59.9141C322.583 61.2422 323 62.7396 323 64.4062C323 66.0469 322.596 67.5443 321.789 68.8984C320.982 70.2266 319.875 71.2943 318.469 72.1016C317.089 72.8828 315.539 73.2734 313.82 73.2734ZM314.211 71.125C314.94 71.125 315.539 70.8776 316.008 70.3828C316.477 69.888 316.815 69.237 317.023 68.4297C317.258 67.5964 317.375 66.7109 317.375 65.7734C317.375 60.3828 316.008 57.6875 313.273 57.6875C312.544 57.6875 311.945 57.9479 311.477 58.4688C311.034 58.9896 310.708 59.6667 310.5 60.5C310.292 61.3333 310.188 62.2318 310.188 63.1953C310.188 68.4818 311.529 71.125 314.211 71.125ZM325.227 73.1562C325.122 73.0521 325.07 72.7786 325.07 72.3359C325.07 71.9193 325.122 71.7109 325.227 71.7109C325.435 71.7109 325.734 71.6589 326.125 71.5547C326.516 71.4245 326.88 71.2812 327.219 71.125C327.557 70.9688 327.74 70.8385 327.766 70.7344C327.948 70.0052 328.039 69.0156 328.039 67.7656V52.2578C328.039 51.6589 328.013 51.125 327.961 50.6562C327.935 50.1875 327.896 49.7839 327.844 49.4453C327.74 49.0286 327.062 48.8203 325.812 48.8203H325.461C325.305 48.8203 325.227 48.5599 325.227 48.0391C325.227 47.5964 325.305 47.375 325.461 47.375C326.971 47.2448 328.391 47.0234 329.719 46.7109C331.073 46.3984 332.036 46.151 332.609 45.9688L333 45.8516H333.078C333.182 45.8516 333.286 45.9297 333.391 46.0859C333.495 46.2422 333.56 46.3854 333.586 46.5156C333.299 47.7396 333.156 49.0547 333.156 50.4609L333.117 67.1797C333.117 68.8984 333.208 70.0833 333.391 70.7344C333.443 70.8385 333.638 70.9688 333.977 71.125C334.315 71.2812 334.667 71.4245 335.031 71.5547C335.422 71.6589 335.695 71.7109 335.852 71.7109C335.904 71.7109 335.943 71.8151 335.969 72.0234C335.995 72.2318 336.008 72.4531 336.008 72.6875C336.008 72.9219 335.982 73.0781 335.93 73.1562C335.773 73.1562 335.474 73.1302 335.031 73.0781C334.589 73.0521 334.068 73.026 333.469 73C332.896 72.9479 332.349 72.9089 331.828 72.8828C331.307 72.8568 330.891 72.8438 330.578 72.8438C330.266 72.8438 329.836 72.8568 329.289 72.8828C328.768 72.9089 328.221 72.9479 327.648 73C327.076 73.026 326.568 73.0521 326.125 73.0781C325.682 73.1302 325.383 73.1562 325.227 73.1562ZM347.297 73.2734C345.604 73.2734 344.055 72.8828 342.648 72.1016C341.268 71.2943 340.161 70.2266 339.328 68.8984C338.521 67.5443 338.117 66.0469 338.117 64.4062C338.117 62.7396 338.521 61.2422 339.328 59.9141C340.161 58.5859 341.268 57.5312 342.648 56.75C344.055 55.9427 345.604 55.5391 347.297 55.5391C349.016 55.5391 350.565 55.9427 351.945 56.75C353.326 57.5312 354.419 58.5859 355.227 59.9141C356.06 61.2422 356.477 62.7396 356.477 64.4062C356.477 66.0469 356.073 67.5443 355.266 68.8984C354.458 70.2266 353.352 71.2943 351.945 72.1016C350.565 72.8828 349.016 73.2734 347.297 73.2734ZM347.688 71.125C348.417 71.125 349.016 70.8776 349.484 70.3828C349.953 69.888 350.292 69.237 350.5 68.4297C350.734 67.5964 350.852 66.7109 350.852 65.7734C350.852 60.3828 349.484 57.6875 346.75 57.6875C346.021 57.6875 345.422 57.9479 344.953 58.4688C344.51 58.9896 344.185 59.6667 343.977 60.5C343.768 61.3333 343.664 62.2318 343.664 63.1953C343.664 68.4818 345.005 71.125 347.688 71.125ZM358.742 73.1562C358.638 73.0521 358.586 72.7786 358.586 72.3359C358.586 71.9193 358.638 71.7109 358.742 71.7109C358.951 71.7109 359.25 71.6589 359.641 71.5547C360.031 71.4245 360.396 71.2812 360.734 71.125C361.073 70.9688 361.255 70.8385 361.281 70.7344C361.464 70.0052 361.555 69.0156 361.555 67.7656V62.4141C361.555 60.9557 361.32 59.9792 360.852 59.4844C360.643 59.224 360.357 59.0417 359.992 58.9375C359.654 58.8333 359.354 58.7682 359.094 58.7422C358.833 58.6901 358.703 58.638 358.703 58.5859C358.703 57.6745 358.768 57.2188 358.898 57.2188C359.576 57.2188 360.513 57.0755 361.711 56.7891C362.935 56.4766 364.224 56.1771 365.578 55.8906L366.477 55.6953C366.607 55.6953 366.737 55.7865 366.867 55.9688C366.997 56.125 367.062 56.2552 367.062 56.3594C367.036 56.5156 366.997 56.8281 366.945 57.2969C366.919 57.7656 366.893 58.026 366.867 58.0781C368.169 56.3854 369.641 55.5391 371.281 55.5391C372.453 55.5391 373.573 56.0208 374.641 56.9844C374.641 58.3385 374.471 59.3411 374.133 59.9922C373.82 60.6432 373.234 60.9688 372.375 60.9688C371.854 60.9688 371.255 60.6693 370.578 60.0703C369.901 59.4714 369.302 59.1719 368.781 59.1719C368.26 59.1719 367.844 59.3802 367.531 59.7969C367.219 60.1875 366.984 60.6953 366.828 61.3203C366.698 61.9453 366.633 62.5964 366.633 63.2734V67.2188C366.633 68.9115 366.724 70.0833 366.906 70.7344C366.958 70.8385 367.141 70.9688 367.453 71.125C367.766 71.2812 368.104 71.4245 368.469 71.5547C368.833 71.6589 369.081 71.7109 369.211 71.7109C369.263 71.7109 369.302 71.8151 369.328 72.0234C369.354 72.2318 369.367 72.4531 369.367 72.6875C369.367 72.9219 369.341 73.0781 369.289 73.1562C369.081 73.1302 368.638 73.0911 367.961 73.0391C367.284 73.013 366.568 72.974 365.812 72.9219C365.083 72.8698 364.51 72.8438 364.094 72.8438C363.781 72.8438 363.352 72.8568 362.805 72.8828C362.284 72.9089 361.737 72.9479 361.164 73C360.591 73.026 360.083 73.0521 359.641 73.0781C359.198 73.1302 358.898 73.1562 358.742 73.1562Z" fill="black"/>
<path d="M4.22094 119.5H11.7809V121H2.62094V107.8H4.22094V119.5ZM18.1211 110.8C19.0678 110.8 19.9011 111.007 20.6211 111.42C21.3544 111.833 21.9278 112.433 22.3411 113.22C22.7544 113.993 22.9611 114.92 22.9611 116C22.9611 117.08 22.7544 118.013 22.3411 118.8C21.9278 119.573 21.3544 120.167 20.6211 120.58C19.9011 120.993 19.0678 121.2 18.1211 121.2C17.1878 121.2 16.3544 120.993 15.6211 120.58C14.8878 120.167 14.3144 119.573 13.9011 118.8C13.4878 118.013 13.2811 117.08 13.2811 116C13.2811 114.92 13.4878 113.993 13.9011 113.22C14.3144 112.433 14.8878 111.833 15.6211 111.42C16.3544 111.007 17.1878 110.8 18.1211 110.8ZM18.1211 112.18C17.4411 112.18 16.8611 112.333 16.3811 112.64C15.9011 112.947 15.5278 113.387 15.2611 113.96C15.0078 114.52 14.8811 115.2 14.8811 116C14.8811 116.787 15.0078 117.467 15.2611 118.04C15.5278 118.613 15.9011 119.053 16.3811 119.36C16.8611 119.667 17.4411 119.82 18.1211 119.82C18.8011 119.82 19.3811 119.667 19.8611 119.36C20.3411 119.053 20.7078 118.613 20.9611 118.04C21.2278 117.467 21.3611 116.787 21.3611 116C21.3611 115.2 21.2278 114.52 20.9611 113.96C20.7078 113.387 20.3411 112.947 19.8611 112.64C19.3811 112.333 18.8011 112.18 18.1211 112.18ZM25.9733 121V111H27.2733L27.4933 112.64C27.7733 112.027 28.1799 111.567 28.7133 111.26C29.2599 110.953 29.9199 110.8 30.6933 110.8C30.8666 110.8 31.0533 110.813 31.2533 110.84C31.4666 110.867 31.6466 110.92 31.7933 111L31.5133 112.46C31.3666 112.407 31.2066 112.367 31.0333 112.34C30.8599 112.313 30.6133 112.3 30.2933 112.3C29.8799 112.3 29.4599 112.42 29.0333 112.66C28.6199 112.9 28.2733 113.267 27.9933 113.76C27.7133 114.24 27.5733 114.853 27.5733 115.6V121H25.9733ZM38.0048 121.2C37.0582 121.2 36.2115 120.993 35.4648 120.58C34.7315 120.167 34.1582 119.573 33.7448 118.8C33.3315 118.013 33.1248 117.08 33.1248 116C33.1248 114.92 33.3315 113.993 33.7448 113.22C34.1582 112.433 34.7248 111.833 35.4448 111.42C36.1648 111.007 36.9848 110.8 37.9048 110.8C38.8382 110.8 39.6315 111 40.2848 111.4C40.9515 111.8 41.4582 112.347 41.8048 113.04C42.1515 113.72 42.3248 114.487 42.3248 115.34C42.3248 115.567 42.3182 115.773 42.3048 115.96C42.2915 116.147 42.2715 116.313 42.2448 116.46H34.1648V115.04H41.5448L40.7248 115.2C40.7248 114.24 40.4582 113.5 39.9248 112.98C39.4048 112.46 38.7182 112.2 37.8648 112.2C37.2115 112.2 36.6448 112.353 36.1648 112.66C35.6982 112.953 35.3315 113.387 35.0648 113.96C34.8115 114.52 34.6848 115.2 34.6848 116C34.6848 116.787 34.8182 117.467 35.0848 118.04C35.3515 118.613 35.7248 119.053 36.2048 119.36C36.6982 119.653 37.2848 119.8 37.9648 119.8C38.6982 119.8 39.2915 119.66 39.7448 119.38C40.2115 119.1 40.5848 118.72 40.8648 118.24L42.1248 118.98C41.8715 119.433 41.5448 119.827 41.1448 120.16C40.7582 120.493 40.2982 120.753 39.7648 120.94C39.2448 121.113 38.6582 121.2 38.0048 121.2ZM45.3678 121V111H46.7678L46.8678 112.56C47.2278 111.947 47.6945 111.5 48.2678 111.22C48.8545 110.94 49.4545 110.8 50.0678 110.8C50.7745 110.8 51.4411 110.96 52.0678 111.28C52.6945 111.6 53.1745 112.093 53.5078 112.76C53.7211 112.307 54.0211 111.94 54.4078 111.66C54.7945 111.367 55.2145 111.153 55.6678 111.02C56.1345 110.873 56.5745 110.8 56.9878 110.8C57.6278 110.8 58.2345 110.933 58.8078 111.2C59.3945 111.467 59.8745 111.88 60.2478 112.44C60.6211 113 60.8078 113.72 60.8078 114.6V121H59.2078V114.76C59.2078 113.853 58.9811 113.2 58.5278 112.8C58.0745 112.4 57.5145 112.2 56.8478 112.2C56.3278 112.2 55.8411 112.327 55.3878 112.58C54.9345 112.833 54.5678 113.207 54.2878 113.7C54.0211 114.193 53.8878 114.8 53.8878 115.52V121H52.2878V114.76C52.2878 113.853 52.0611 113.2 51.6078 112.8C51.1545 112.4 50.5945 112.2 49.9278 112.2C49.4878 112.2 49.0345 112.32 48.5678 112.56C48.1145 112.787 47.7345 113.153 47.4278 113.66C47.1211 114.167 46.9678 114.833 46.9678 115.66V121H45.3678ZM72.0467 109.08C71.6867 109.08 71.3934 108.973 71.1667 108.76C70.9534 108.533 70.8467 108.24 70.8467 107.88C70.8467 107.52 70.9534 107.233 71.1667 107.02C71.3934 106.793 71.6867 106.68 72.0467 106.68C72.4067 106.68 72.6934 106.793 72.9067 107.02C73.1334 107.233 73.2467 107.52 73.2467 107.88C73.2467 108.24 73.1334 108.533 72.9067 108.76C72.6934 108.973 72.4067 109.08 72.0467 109.08ZM72.8467 111V121H71.2467V111H72.8467ZM76.5592 125.2V111H77.9592L78.0992 113.44L77.8792 113.16C78.0526 112.693 78.3126 112.287 78.6592 111.94C79.0059 111.58 79.4259 111.3 79.9192 111.1C80.4126 110.9 80.9459 110.8 81.5192 110.8C82.3326 110.8 83.0792 111.007 83.7592 111.42C84.4526 111.833 85.0059 112.427 85.4192 113.2C85.8326 113.973 86.0392 114.907 86.0392 116C86.0392 117.08 85.8259 118.013 85.3992 118.8C84.9859 119.573 84.4326 120.167 83.7392 120.58C83.0459 120.993 82.2859 121.2 81.4592 121.2C80.6326 121.2 79.9059 121 79.2792 120.6C78.6659 120.187 78.2259 119.667 77.9592 119.04L78.1592 118.74V125.2H76.5592ZM81.2992 119.8C82.2859 119.8 83.0526 119.453 83.5992 118.76C84.1592 118.067 84.4392 117.147 84.4392 116C84.4392 114.853 84.1659 113.933 83.6192 113.24C83.0859 112.547 82.3326 112.2 81.3592 112.2C80.7192 112.2 80.1592 112.36 79.6792 112.68C79.1992 112.987 78.8259 113.427 78.5592 114C78.2926 114.56 78.1592 115.227 78.1592 116C78.1592 116.76 78.2859 117.427 78.5392 118C78.8059 118.573 79.1726 119.02 79.6392 119.34C80.1192 119.647 80.6726 119.8 81.2992 119.8ZM92.6983 121.2C91.7249 121.2 90.8249 120.993 89.9983 120.58C89.1849 120.167 88.5583 119.58 88.1183 118.82L89.4783 117.84C89.7716 118.453 90.1983 118.933 90.7583 119.28C91.3316 119.627 92.0183 119.8 92.8183 119.8C93.5249 119.8 94.0783 119.667 94.4783 119.4C94.8783 119.12 95.0783 118.76 95.0783 118.32C95.0783 118.04 94.9849 117.787 94.7983 117.56C94.6249 117.32 94.2849 117.147 93.7783 117.04L91.3783 116.54C90.4049 116.34 89.7049 116.007 89.2783 115.54C88.8649 115.073 88.6583 114.493 88.6583 113.8C88.6583 113.253 88.8116 112.753 89.1183 112.3C89.4383 111.847 89.8849 111.487 90.4583 111.22C91.0449 110.94 91.7316 110.8 92.5183 110.8C93.5049 110.8 94.3383 110.993 95.0183 111.38C95.6983 111.767 96.2049 112.313 96.5383 113.02L95.1983 113.9C94.9716 113.313 94.6049 112.887 94.0983 112.62C93.5916 112.34 93.0649 112.2 92.5183 112.2C92.0383 112.2 91.6249 112.267 91.2783 112.4C90.9449 112.533 90.6849 112.72 90.4983 112.96C90.3249 113.187 90.2383 113.447 90.2383 113.74C90.2383 114.033 90.3383 114.307 90.5383 114.56C90.7383 114.8 91.1116 114.973 91.6583 115.08L94.1583 115.6C95.0916 115.787 95.7449 116.093 96.1183 116.52C96.4916 116.947 96.6783 117.467 96.6783 118.08C96.6783 118.707 96.5116 119.26 96.1783 119.74C95.8449 120.207 95.3783 120.567 94.7783 120.82C94.1783 121.073 93.4849 121.2 92.6983 121.2ZM103.265 121.2C102.625 121.2 102.018 121.08 101.445 120.84C100.885 120.6 100.425 120.213 100.065 119.68C99.7185 119.133 99.5452 118.427 99.5452 117.56V111H101.145V117.14C101.145 118.153 101.365 118.853 101.805 119.24C102.245 119.613 102.865 119.8 103.665 119.8C104.038 119.8 104.405 119.74 104.765 119.62C105.125 119.487 105.445 119.287 105.725 119.02C106.018 118.74 106.245 118.387 106.405 117.96C106.578 117.533 106.665 117.027 106.665 116.44V111H108.265V121H106.865L106.765 119.48C106.418 120.08 105.945 120.52 105.345 120.8C104.758 121.067 104.065 121.2 103.265 121.2ZM111.989 121V111H113.389L113.489 112.56C113.849 111.947 114.316 111.5 114.889 111.22C115.476 110.94 116.076 110.8 116.689 110.8C117.396 110.8 118.062 110.96 118.689 111.28C119.316 111.6 119.796 112.093 120.129 112.76C120.342 112.307 120.642 111.94 121.029 111.66C121.416 111.367 121.836 111.153 122.289 111.02C122.756 110.873 123.196 110.8 123.609 110.8C124.249 110.8 124.856 110.933 125.429 111.2C126.016 111.467 126.496 111.88 126.869 112.44C127.242 113 127.429 113.72 127.429 114.6V121H125.829V114.76C125.829 113.853 125.602 113.2 125.149 112.8C124.696 112.4 124.136 112.2 123.469 112.2C122.949 112.2 122.462 112.327 122.009 112.58C121.556 112.833 121.189 113.207 120.909 113.7C120.642 114.193 120.509 114.8 120.509 115.52V121H118.909V114.76C118.909 113.853 118.682 113.2 118.229 112.8C117.776 112.4 117.216 112.2 116.549 112.2C116.109 112.2 115.656 112.32 115.189 112.56C114.736 112.787 114.356 113.153 114.049 113.66C113.742 114.167 113.589 114.833 113.589 115.66V121H111.989ZM131.851 118.6C132.171 118.6 132.438 118.687 132.651 118.86C132.878 119.02 133.051 119.247 133.171 119.54C133.291 119.82 133.351 120.153 133.351 120.54C133.351 120.98 133.271 121.413 133.111 121.84C132.965 122.267 132.731 122.66 132.411 123.02C132.091 123.38 131.678 123.68 131.171 123.92L130.331 123.14C130.691 123.02 131.005 122.853 131.271 122.64C131.551 122.427 131.778 122.187 131.951 121.92C132.125 121.653 132.238 121.38 132.291 121.1L132.211 121.06C132.158 121.1 132.091 121.133 132.011 121.16C131.931 121.187 131.811 121.2 131.651 121.2C131.491 121.2 131.325 121.153 131.151 121.06C130.991 120.967 130.851 120.833 130.731 120.66C130.611 120.473 130.551 120.233 130.551 119.94C130.551 119.7 130.611 119.48 130.731 119.28C130.851 119.067 131.005 118.9 131.191 118.78C131.391 118.66 131.611 118.6 131.851 118.6ZM147.08 121.2C146.254 121.2 145.494 120.993 144.8 120.58C144.107 120.167 143.554 119.573 143.14 118.8C142.727 118.013 142.52 117.08 142.52 116C142.52 114.893 142.74 113.953 143.18 113.18C143.62 112.407 144.2 111.82 144.92 111.42C145.64 111.007 146.414 110.8 147.24 110.8C148.067 110.8 148.78 111.013 149.38 111.44C149.994 111.867 150.4 112.433 150.6 113.14L150.4 113.28V106.4H152V121H150.6L150.46 118.58L150.68 118.46C150.587 119.047 150.36 119.547 150 119.96C149.654 120.36 149.22 120.667 148.7 120.88C148.194 121.093 147.654 121.2 147.08 121.2ZM147.24 119.8C147.88 119.8 148.434 119.64 148.9 119.32C149.38 119 149.747 118.547 150 117.96C150.267 117.36 150.4 116.66 150.4 115.86C150.4 115.1 150.267 114.447 150 113.9C149.747 113.353 149.387 112.933 148.92 112.64C148.467 112.347 147.934 112.2 147.32 112.2C146.307 112.2 145.52 112.547 144.96 113.24C144.4 113.933 144.12 114.853 144.12 116C144.12 117.147 144.394 118.067 144.94 118.76C145.487 119.453 146.254 119.8 147.24 119.8ZM159.859 110.8C160.806 110.8 161.639 111.007 162.359 111.42C163.093 111.833 163.666 112.433 164.079 113.22C164.493 113.993 164.699 114.92 164.699 116C164.699 117.08 164.493 118.013 164.079 118.8C163.666 119.573 163.093 120.167 162.359 120.58C161.639 120.993 160.806 121.2 159.859 121.2C158.926 121.2 158.093 120.993 157.359 120.58C156.626 120.167 156.053 119.573 155.639 118.8C155.226 118.013 155.019 117.08 155.019 116C155.019 114.92 155.226 113.993 155.639 113.22C156.053 112.433 156.626 111.833 157.359 111.42C158.093 111.007 158.926 110.8 159.859 110.8ZM159.859 112.18C159.179 112.18 158.599 112.333 158.119 112.64C157.639 112.947 157.266 113.387 156.999 113.96C156.746 114.52 156.619 115.2 156.619 116C156.619 116.787 156.746 117.467 156.999 118.04C157.266 118.613 157.639 119.053 158.119 119.36C158.599 119.667 159.179 119.82 159.859 119.82C160.539 119.82 161.119 119.667 161.599 119.36C162.079 119.053 162.446 118.613 162.699 118.04C162.966 117.467 163.099 116.787 163.099 116C163.099 115.2 162.966 114.52 162.699 113.96C162.446 113.387 162.079 112.947 161.599 112.64C161.119 112.333 160.539 112.18 159.859 112.18ZM169.232 106.4V118.46C169.232 118.967 169.325 119.32 169.512 119.52C169.698 119.707 169.998 119.8 170.412 119.8C170.678 119.8 170.898 119.78 171.072 119.74C171.245 119.7 171.478 119.627 171.772 119.52L171.512 120.92C171.298 121.013 171.065 121.08 170.812 121.12C170.558 121.173 170.298 121.2 170.032 121.2C169.218 121.2 168.612 120.98 168.212 120.54C167.825 120.1 167.632 119.427 167.632 118.52V106.4H169.232ZM177.965 110.8C178.912 110.8 179.745 111.007 180.465 111.42C181.198 111.833 181.772 112.433 182.185 113.22C182.598 113.993 182.805 114.92 182.805 116C182.805 117.08 182.598 118.013 182.185 118.8C181.772 119.573 181.198 120.167 180.465 120.58C179.745 120.993 178.912 121.2 177.965 121.2C177.032 121.2 176.198 120.993 175.465 120.58C174.732 120.167 174.158 119.573 173.745 118.8C173.332 118.013 173.125 117.08 173.125 116C173.125 114.92 173.332 113.993 173.745 113.22C174.158 112.433 174.732 111.833 175.465 111.42C176.198 111.007 177.032 110.8 177.965 110.8ZM177.965 112.18C177.285 112.18 176.705 112.333 176.225 112.64C175.745 112.947 175.372 113.387 175.105 113.96C174.852 114.52 174.725 115.2 174.725 116C174.725 116.787 174.852 117.467 175.105 118.04C175.372 118.613 175.745 119.053 176.225 119.36C176.705 119.667 177.285 119.82 177.965 119.82C178.645 119.82 179.225 119.667 179.705 119.36C180.185 119.053 180.552 118.613 180.805 118.04C181.072 117.467 181.205 116.787 181.205 116C181.205 115.2 181.072 114.52 180.805 113.96C180.552 113.387 180.185 112.947 179.705 112.64C179.225 112.333 178.645 112.18 177.965 112.18ZM185.817 121V111H187.117L187.337 112.64C187.617 112.027 188.024 111.567 188.557 111.26C189.104 110.953 189.764 110.8 190.537 110.8C190.71 110.8 190.897 110.813 191.097 110.84C191.31 110.867 191.49 110.92 191.637 111L191.357 112.46C191.21 112.407 191.05 112.367 190.877 112.34C190.704 112.313 190.457 112.3 190.137 112.3C189.724 112.3 189.304 112.42 188.877 112.66C188.464 112.9 188.117 113.267 187.837 113.76C187.557 114.24 187.417 114.853 187.417 115.6V121H185.817ZM203.929 121.2C202.955 121.2 202.055 120.993 201.229 120.58C200.415 120.167 199.789 119.58 199.349 118.82L200.709 117.84C201.002 118.453 201.429 118.933 201.989 119.28C202.562 119.627 203.249 119.8 204.049 119.8C204.755 119.8 205.309 119.667 205.709 119.4C206.109 119.12 206.309 118.76 206.309 118.32C206.309 118.04 206.215 117.787 206.029 117.56C205.855 117.32 205.515 117.147 205.009 117.04L202.609 116.54C201.635 116.34 200.935 116.007 200.509 115.54C200.095 115.073 199.889 114.493 199.889 113.8C199.889 113.253 200.042 112.753 200.349 112.3C200.669 111.847 201.115 111.487 201.689 111.22C202.275 110.94 202.962 110.8 203.749 110.8C204.735 110.8 205.569 110.993 206.249 111.38C206.929 111.767 207.435 112.313 207.769 113.02L206.429 113.9C206.202 113.313 205.835 112.887 205.329 112.62C204.822 112.34 204.295 112.2 203.749 112.2C203.269 112.2 202.855 112.267 202.509 112.4C202.175 112.533 201.915 112.72 201.729 112.96C201.555 113.187 201.469 113.447 201.469 113.74C201.469 114.033 201.569 114.307 201.769 114.56C201.969 114.8 202.342 114.973 202.889 115.08L205.389 115.6C206.322 115.787 206.975 116.093 207.349 116.52C207.722 116.947 207.909 117.467 207.909 118.08C207.909 118.707 207.742 119.26 207.409 119.74C207.075 120.207 206.609 120.567 206.009 120.82C205.409 121.073 204.715 121.2 203.929 121.2ZM211.676 109.08C211.316 109.08 211.022 108.973 210.796 108.76C210.582 108.533 210.476 108.24 210.476 107.88C210.476 107.52 210.582 107.233 210.796 107.02C211.022 106.793 211.316 106.68 211.676 106.68C212.036 106.68 212.322 106.793 212.536 107.02C212.762 107.233 212.876 107.52 212.876 107.88C212.876 108.24 212.762 108.533 212.536 108.76C212.322 108.973 212.036 109.08 211.676 109.08ZM212.476 111V121H210.876V111H212.476ZM218.548 108.16V118.24C218.548 118.733 218.688 119.1 218.968 119.34C219.248 119.58 219.608 119.7 220.048 119.7C220.435 119.7 220.768 119.633 221.048 119.5C221.328 119.367 221.581 119.187 221.808 118.96L222.368 120.3C222.061 120.58 221.695 120.8 221.268 120.96C220.855 121.12 220.375 121.2 219.828 121.2C219.321 121.2 218.848 121.113 218.408 120.94C217.968 120.753 217.615 120.467 217.348 120.08C217.095 119.68 216.961 119.16 216.948 118.52V108.6L218.548 108.16ZM222.188 111V112.38H214.948V111H222.188ZM237.223 114.54C237.223 113.793 237.023 113.22 236.623 112.82C236.223 112.407 235.657 112.2 234.923 112.2C234.23 112.2 233.643 112.353 233.163 112.66C232.683 112.953 232.33 113.433 232.103 114.1L230.803 113.3C231.07 112.553 231.563 111.953 232.283 111.5C233.003 111.033 233.897 110.8 234.963 110.8C235.683 110.8 236.337 110.927 236.923 111.18C237.51 111.42 237.97 111.793 238.303 112.3C238.65 112.793 238.823 113.433 238.823 114.22V119.06C238.823 119.54 239.077 119.78 239.583 119.78C239.837 119.78 240.083 119.747 240.323 119.68L240.243 120.94C239.977 121.073 239.63 121.14 239.203 121.14C238.817 121.14 238.47 121.067 238.163 120.92C237.857 120.773 237.617 120.553 237.443 120.26C237.27 119.953 237.183 119.573 237.183 119.12V118.92L237.583 118.98C237.423 119.5 237.15 119.927 236.763 120.26C236.377 120.58 235.943 120.82 235.463 120.98C234.983 121.127 234.51 121.2 234.043 121.2C233.457 121.2 232.91 121.1 232.403 120.9C231.897 120.7 231.49 120.4 231.183 120C230.89 119.587 230.743 119.08 230.743 118.48C230.743 117.733 230.99 117.12 231.483 116.64C231.99 116.147 232.69 115.813 233.583 115.64L237.543 114.86V116.18L234.323 116.84C233.67 116.973 233.183 117.16 232.863 117.4C232.543 117.64 232.383 117.973 232.383 118.4C232.383 118.813 232.543 119.153 232.863 119.42C233.197 119.673 233.663 119.8 234.263 119.8C234.65 119.8 235.017 119.753 235.363 119.66C235.723 119.553 236.043 119.4 236.323 119.2C236.603 118.987 236.823 118.727 236.983 118.42C237.143 118.1 237.223 117.727 237.223 117.3V114.54ZM242.712 121V111H244.112L244.212 112.56C244.572 111.947 245.038 111.5 245.612 111.22C246.198 110.94 246.798 110.8 247.412 110.8C248.118 110.8 248.785 110.96 249.412 111.28C250.038 111.6 250.518 112.093 250.852 112.76C251.065 112.307 251.365 111.94 251.752 111.66C252.138 111.367 252.558 111.153 253.012 111.02C253.478 110.873 253.918 110.8 254.332 110.8C254.972 110.8 255.578 110.933 256.152 111.2C256.738 111.467 257.218 111.88 257.592 112.44C257.965 113 258.152 113.72 258.152 114.6V121H256.552V114.76C256.552 113.853 256.325 113.2 255.872 112.8C255.418 112.4 254.858 112.2 254.192 112.2C253.672 112.2 253.185 112.327 252.732 112.58C252.278 112.833 251.912 113.207 251.632 113.7C251.365 114.193 251.232 114.8 251.232 115.52V121H249.632V114.76C249.632 113.853 249.405 113.2 248.952 112.8C248.498 112.4 247.938 112.2 247.272 112.2C246.832 112.2 246.378 112.32 245.912 112.56C245.458 112.787 245.078 113.153 244.772 113.66C244.465 114.167 244.312 114.833 244.312 115.66V121H242.712ZM265.954 121.2C265.007 121.2 264.161 120.993 263.414 120.58C262.681 120.167 262.107 119.573 261.694 118.8C261.281 118.013 261.074 117.08 261.074 116C261.074 114.92 261.281 113.993 261.694 113.22C262.107 112.433 262.674 111.833 263.394 111.42C264.114 111.007 264.934 110.8 265.854 110.8C266.787 110.8 267.581 111 268.234 111.4C268.901 111.8 269.407 112.347 269.754 113.04C270.101 113.72 270.274 114.487 270.274 115.34C270.274 115.567 270.267 115.773 270.254 115.96C270.241 116.147 270.221 116.313 270.194 116.46H262.114V115.04H269.494L268.674 115.2C268.674 114.24 268.407 113.5 267.874 112.98C267.354 112.46 266.667 112.2 265.814 112.2C265.161 112.2 264.594 112.353 264.114 112.66C263.647 112.953 263.281 113.387 263.014 113.96C262.761 114.52 262.634 115.2 262.634 116C262.634 116.787 262.767 117.467 263.034 118.04C263.301 118.613 263.674 119.053 264.154 119.36C264.647 119.653 265.234 119.8 265.914 119.8C266.647 119.8 267.241 119.66 267.694 119.38C268.161 119.1 268.534 118.72 268.814 118.24L270.074 118.98C269.821 119.433 269.494 119.827 269.094 120.16C268.707 120.493 268.247 120.753 267.714 120.94C267.194 121.113 266.607 121.2 265.954 121.2ZM275.384 108.16V118.24C275.384 118.733 275.524 119.1 275.804 119.34C276.084 119.58 276.444 119.7 276.884 119.7C277.271 119.7 277.604 119.633 277.884 119.5C278.164 119.367 278.417 119.187 278.644 118.96L279.204 120.3C278.897 120.58 278.531 120.8 278.104 120.96C277.691 121.12 277.211 121.2 276.664 121.2C276.157 121.2 275.684 121.113 275.244 120.94C274.804 120.753 274.451 120.467 274.184 120.08C273.931 119.68 273.797 119.16 273.784 118.52V108.6L275.384 108.16ZM279.024 111V112.38H271.784V111H279.024ZM292.359 110.8C293.053 110.8 293.659 110.907 294.179 111.12C294.713 111.333 295.173 111.64 295.559 112.04C295.946 112.44 296.259 112.913 296.499 113.46L294.979 114.18C294.766 113.54 294.439 113.053 293.999 112.72C293.573 112.373 293.013 112.2 292.319 112.2C291.653 112.2 291.079 112.353 290.599 112.66C290.119 112.953 289.753 113.387 289.499 113.96C289.246 114.52 289.119 115.2 289.119 116C289.119 116.787 289.246 117.467 289.499 118.04C289.753 118.613 290.119 119.053 290.599 119.36C291.079 119.653 291.653 119.8 292.319 119.8C292.839 119.8 293.286 119.72 293.659 119.56C294.046 119.4 294.359 119.167 294.599 118.86C294.853 118.553 295.026 118.18 295.119 117.74L296.599 118.26C296.373 118.873 296.059 119.4 295.659 119.84C295.273 120.28 294.799 120.62 294.239 120.86C293.693 121.087 293.066 121.2 292.359 121.2C291.426 121.2 290.593 120.993 289.859 120.58C289.126 120.167 288.553 119.573 288.139 118.8C287.726 118.013 287.519 117.08 287.519 116C287.519 114.92 287.726 113.993 288.139 113.22C288.553 112.433 289.126 111.833 289.859 111.42C290.593 111.007 291.426 110.8 292.359 110.8ZM303.551 110.8C304.497 110.8 305.331 111.007 306.051 111.42C306.784 111.833 307.357 112.433 307.771 113.22C308.184 113.993 308.391 114.92 308.391 116C308.391 117.08 308.184 118.013 307.771 118.8C307.357 119.573 306.784 120.167 306.051 120.58C305.331 120.993 304.497 121.2 303.551 121.2C302.617 121.2 301.784 120.993 301.051 120.58C300.317 120.167 299.744 119.573 299.331 118.8C298.917 118.013 298.711 117.08 298.711 116C298.711 114.92 298.917 113.993 299.331 113.22C299.744 112.433 300.317 111.833 301.051 111.42C301.784 111.007 302.617 110.8 303.551 110.8ZM303.551 112.18C302.871 112.18 302.291 112.333 301.811 112.64C301.331 112.947 300.957 113.387 300.691 113.96C300.437 114.52 300.311 115.2 300.311 116C300.311 116.787 300.437 117.467 300.691 118.04C300.957 118.613 301.331 119.053 301.811 119.36C302.291 119.667 302.871 119.82 303.551 119.82C304.231 119.82 304.811 119.667 305.291 119.36C305.771 119.053 306.137 118.613 306.391 118.04C306.657 117.467 306.791 116.787 306.791 116C306.791 115.2 306.657 114.52 306.391 113.96C306.137 113.387 305.771 112.947 305.291 112.64C304.811 112.333 304.231 112.18 303.551 112.18ZM311.403 121V111H312.803L312.943 113.24L312.683 113.02C312.896 112.487 313.183 112.06 313.543 111.74C313.903 111.407 314.316 111.167 314.783 111.02C315.263 110.873 315.756 110.8 316.263 110.8C316.983 110.8 317.636 110.94 318.223 111.22C318.81 111.487 319.276 111.9 319.623 112.46C319.983 113.02 320.163 113.733 320.163 114.6V121H318.563V115.16C318.563 114.053 318.323 113.287 317.843 112.86C317.376 112.42 316.796 112.2 316.103 112.2C315.623 112.2 315.143 112.313 314.663 112.54C314.183 112.767 313.783 113.133 313.463 113.64C313.156 114.147 313.003 114.827 313.003 115.68V121H311.403ZM327.386 121.2C326.412 121.2 325.512 120.993 324.686 120.58C323.872 120.167 323.246 119.58 322.806 118.82L324.166 117.84C324.459 118.453 324.886 118.933 325.446 119.28C326.019 119.627 326.706 119.8 327.506 119.8C328.212 119.8 328.766 119.667 329.166 119.4C329.566 119.12 329.766 118.76 329.766 118.32C329.766 118.04 329.672 117.787 329.486 117.56C329.312 117.32 328.972 117.147 328.466 117.04L326.066 116.54C325.092 116.34 324.392 116.007 323.966 115.54C323.552 115.073 323.346 114.493 323.346 113.8C323.346 113.253 323.499 112.753 323.806 112.3C324.126 111.847 324.572 111.487 325.146 111.22C325.732 110.94 326.419 110.8 327.206 110.8C328.192 110.8 329.026 110.993 329.706 111.38C330.386 111.767 330.892 112.313 331.226 113.02L329.886 113.9C329.659 113.313 329.292 112.887 328.786 112.62C328.279 112.34 327.752 112.2 327.206 112.2C326.726 112.2 326.312 112.267 325.966 112.4C325.632 112.533 325.372 112.72 325.186 112.96C325.012 113.187 324.926 113.447 324.926 113.74C324.926 114.033 325.026 114.307 325.226 114.56C325.426 114.8 325.799 114.973 326.346 115.08L328.846 115.6C329.779 115.787 330.432 116.093 330.806 116.52C331.179 116.947 331.366 117.467 331.366 118.08C331.366 118.707 331.199 119.26 330.866 119.74C330.532 120.207 330.066 120.567 329.466 120.82C328.866 121.073 328.172 121.2 327.386 121.2ZM338.513 121.2C337.566 121.2 336.719 120.993 335.973 120.58C335.239 120.167 334.666 119.573 334.253 118.8C333.839 118.013 333.633 117.08 333.633 116C333.633 114.92 333.839 113.993 334.253 113.22C334.666 112.433 335.233 111.833 335.953 111.42C336.673 111.007 337.493 110.8 338.413 110.8C339.346 110.8 340.139 111 340.793 111.4C341.459 111.8 341.966 112.347 342.313 113.04C342.659 113.72 342.833 114.487 342.833 115.34C342.833 115.567 342.826 115.773 342.813 115.96C342.799 116.147 342.779 116.313 342.753 116.46H334.673V115.04H342.053L341.233 115.2C341.233 114.24 340.966 113.5 340.433 112.98C339.913 112.46 339.226 112.2 338.373 112.2C337.719 112.2 337.153 112.353 336.673 112.66C336.206 112.953 335.839 113.387 335.573 113.96C335.319 114.52 335.193 115.2 335.193 116C335.193 116.787 335.326 117.467 335.593 118.04C335.859 118.613 336.233 119.053 336.713 119.36C337.206 119.653 337.793 119.8 338.473 119.8C339.206 119.8 339.799 119.66 340.253 119.38C340.719 119.1 341.093 118.72 341.373 118.24L342.633 118.98C342.379 119.433 342.053 119.827 341.653 120.16C341.266 120.493 340.806 120.753 340.273 120.94C339.753 121.113 339.166 121.2 338.513 121.2ZM350.016 110.8C350.709 110.8 351.316 110.907 351.836 111.12C352.369 111.333 352.829 111.64 353.216 112.04C353.602 112.44 353.916 112.913 354.156 113.46L352.636 114.18C352.422 113.54 352.096 113.053 351.656 112.72C351.229 112.373 350.669 112.2 349.976 112.2C349.309 112.2 348.736 112.353 348.256 112.66C347.776 112.953 347.409 113.387 347.156 113.96C346.902 114.52 346.776 115.2 346.776 116C346.776 116.787 346.902 117.467 347.156 118.04C347.409 118.613 347.776 119.053 348.256 119.36C348.736 119.653 349.309 119.8 349.976 119.8C350.496 119.8 350.942 119.72 351.316 119.56C351.702 119.4 352.016 119.167 352.256 118.86C352.509 118.553 352.682 118.18 352.776 117.74L354.256 118.26C354.029 118.873 353.716 119.4 353.316 119.84C352.929 120.28 352.456 120.62 351.896 120.86C351.349 121.087 350.722 121.2 350.016 121.2C349.082 121.2 348.249 120.993 347.516 120.58C346.782 120.167 346.209 119.573 345.796 118.8C345.382 118.013 345.176 117.08 345.176 116C345.176 114.92 345.382 113.993 345.796 113.22C346.209 112.433 346.782 111.833 347.516 111.42C348.249 111.007 349.082 110.8 350.016 110.8ZM359.427 108.16V118.24C359.427 118.733 359.567 119.1 359.847 119.34C360.127 119.58 360.487 119.7 360.927 119.7C361.314 119.7 361.647 119.633 361.927 119.5C362.207 119.367 362.46 119.187 362.687 118.96L363.247 120.3C362.94 120.58 362.574 120.8 362.147 120.96C361.734 121.12 361.254 121.2 360.707 121.2C360.2 121.2 359.727 121.113 359.287 120.94C358.847 120.753 358.494 120.467 358.227 120.08C357.974 119.68 357.84 119.16 357.827 118.52V108.6L359.427 108.16ZM363.067 111V112.38H355.827V111H363.067ZM369.626 121.2C368.679 121.2 367.833 120.993 367.086 120.58C366.353 120.167 365.779 119.573 365.366 118.8C364.953 118.013 364.746 117.08 364.746 116C364.746 114.92 364.953 113.993 365.366 113.22C365.779 112.433 366.346 111.833 367.066 111.42C367.786 111.007 368.606 110.8 369.526 110.8C370.459 110.8 371.253 111 371.906 111.4C372.573 111.8 373.079 112.347 373.426 113.04C373.773 113.72 373.946 114.487 373.946 115.34C373.946 115.567 373.939 115.773 373.926 115.96C373.913 116.147 373.893 116.313 373.866 116.46H365.786V115.04H373.166L372.346 115.2C372.346 114.24 372.079 113.5 371.546 112.98C371.026 112.46 370.339 112.2 369.486 112.2C368.833 112.2 368.266 112.353 367.786 112.66C367.319 112.953 366.953 113.387 366.686 113.96C366.433 114.52 366.306 115.2 366.306 116C366.306 116.787 366.439 117.467 366.706 118.04C366.973 118.613 367.346 119.053 367.826 119.36C368.319 119.653 368.906 119.8 369.586 119.8C370.319 119.8 370.913 119.66 371.366 119.38C371.833 119.1 372.206 118.72 372.486 118.24L373.746 118.98C373.493 119.433 373.166 119.827 372.766 120.16C372.379 120.493 371.919 120.753 371.386 120.94C370.866 121.113 370.279 121.2 369.626 121.2ZM379.056 108.16V118.24C379.056 118.733 379.196 119.1 379.476 119.34C379.756 119.58 380.116 119.7 380.556 119.7C380.943 119.7 381.276 119.633 381.556 119.5C381.836 119.367 382.089 119.187 382.316 118.96L382.876 120.3C382.569 120.58 382.203 120.8 381.776 120.96C381.363 121.12 380.883 121.2 380.336 121.2C379.829 121.2 379.356 121.113 378.916 120.94C378.476 120.753 378.123 120.467 377.856 120.08C377.603 119.68 377.469 119.16 377.456 118.52V108.6L379.056 108.16ZM382.696 111V112.38H375.456V111H382.696ZM388.695 121.2C388.055 121.2 387.448 121.08 386.875 120.84C386.315 120.6 385.855 120.213 385.495 119.68C385.148 119.133 384.975 118.427 384.975 117.56V111H386.575V117.14C386.575 118.153 386.795 118.853 387.235 119.24C387.675 119.613 388.295 119.8 389.095 119.8C389.468 119.8 389.835 119.74 390.195 119.62C390.555 119.487 390.875 119.287 391.155 119.02C391.448 118.74 391.675 118.387 391.835 117.96C392.008 117.533 392.095 117.027 392.095 116.44V111H393.695V121H392.295L392.195 119.48C391.848 120.08 391.375 120.52 390.775 120.8C390.188 121.067 389.495 121.2 388.695 121.2ZM397.419 121V111H398.719L398.939 112.64C399.219 112.027 399.625 111.567 400.159 111.26C400.705 110.953 401.365 110.8 402.139 110.8C402.312 110.8 402.499 110.813 402.699 110.84C402.912 110.867 403.092 110.92 403.239 111L402.959 112.46C402.812 112.407 402.652 112.367 402.479 112.34C402.305 112.313 402.059 112.3 401.739 112.3C401.325 112.3 400.905 112.42 400.479 112.66C400.065 112.9 399.719 113.267 399.439 113.76C399.159 114.24 399.019 114.853 399.019 115.6V121H397.419ZM140.251 149.54C140.251 148.793 140.051 148.22 139.651 147.82C139.251 147.407 138.684 147.2 137.951 147.2C137.257 147.2 136.671 147.353 136.191 147.66C135.711 147.953 135.357 148.433 135.131 149.1L133.831 148.3C134.097 147.553 134.591 146.953 135.311 146.5C136.031 146.033 136.924 145.8 137.991 145.8C138.711 145.8 139.364 145.927 139.951 146.18C140.537 146.42 140.997 146.793 141.331 147.3C141.677 147.793 141.851 148.433 141.851 149.22V154.06C141.851 154.54 142.104 154.78 142.611 154.78C142.864 154.78 143.111 154.747 143.351 154.68L143.271 155.94C143.004 156.073 142.657 156.14 142.231 156.14C141.844 156.14 141.497 156.067 141.191 155.92C140.884 155.773 140.644 155.553 140.471 155.26C140.297 154.953 140.211 154.573 140.211 154.12V153.92L140.611 153.98C140.451 154.5 140.177 154.927 139.791 155.26C139.404 155.58 138.971 155.82 138.491 155.98C138.011 156.127 137.537 156.2 137.071 156.2C136.484 156.2 135.937 156.1 135.431 155.9C134.924 155.7 134.517 155.4 134.211 155C133.917 154.587 133.771 154.08 133.771 153.48C133.771 152.733 134.017 152.12 134.511 151.64C135.017 151.147 135.717 150.813 136.611 150.64L140.571 149.86V151.18L137.351 151.84C136.697 151.973 136.211 152.16 135.891 152.4C135.571 152.64 135.411 152.973 135.411 153.4C135.411 153.813 135.571 154.153 135.891 154.42C136.224 154.673 136.691 154.8 137.291 154.8C137.677 154.8 138.044 154.753 138.391 154.66C138.751 154.553 139.071 154.4 139.351 154.2C139.631 153.987 139.851 153.727 140.011 153.42C140.171 153.1 140.251 152.727 140.251 152.3V149.54ZM149.639 156.2C148.812 156.2 148.052 155.993 147.359 155.58C146.666 155.167 146.112 154.573 145.699 153.8C145.286 153.013 145.079 152.08 145.079 151C145.079 149.893 145.299 148.953 145.739 148.18C146.179 147.407 146.759 146.82 147.479 146.42C148.199 146.007 148.972 145.8 149.799 145.8C150.626 145.8 151.339 146.013 151.939 146.44C152.552 146.867 152.959 147.433 153.159 148.14L152.959 148.28V141.4H154.559V156H153.159L153.019 153.58L153.239 153.46C153.146 154.047 152.919 154.547 152.559 154.96C152.212 155.36 151.779 155.667 151.259 155.88C150.752 156.093 150.212 156.2 149.639 156.2ZM149.799 154.8C150.439 154.8 150.992 154.64 151.459 154.32C151.939 154 152.306 153.547 152.559 152.96C152.826 152.36 152.959 151.66 152.959 150.86C152.959 150.1 152.826 149.447 152.559 148.9C152.306 148.353 151.946 147.933 151.479 147.64C151.026 147.347 150.492 147.2 149.879 147.2C148.866 147.2 148.079 147.547 147.519 148.24C146.959 148.933 146.679 149.853 146.679 151C146.679 152.147 146.952 153.067 147.499 153.76C148.046 154.453 148.812 154.8 149.799 154.8ZM159.078 144.08C158.718 144.08 158.425 143.973 158.198 143.76C157.985 143.533 157.878 143.24 157.878 142.88C157.878 142.52 157.985 142.233 158.198 142.02C158.425 141.793 158.718 141.68 159.078 141.68C159.438 141.68 159.725 141.793 159.938 142.02C160.165 142.233 160.278 142.52 160.278 142.88C160.278 143.24 160.165 143.533 159.938 143.76C159.725 143.973 159.438 144.08 159.078 144.08ZM159.878 146V156H158.278V146H159.878ZM163.59 160.2V146H164.99L165.13 148.44L164.91 148.16C165.084 147.693 165.344 147.287 165.69 146.94C166.037 146.58 166.457 146.3 166.95 146.1C167.444 145.9 167.977 145.8 168.55 145.8C169.364 145.8 170.11 146.007 170.79 146.42C171.484 146.833 172.037 147.427 172.45 148.2C172.864 148.973 173.07 149.907 173.07 151C173.07 152.08 172.857 153.013 172.43 153.8C172.017 154.573 171.464 155.167 170.77 155.58C170.077 155.993 169.317 156.2 168.49 156.2C167.664 156.2 166.937 156 166.31 155.6C165.697 155.187 165.257 154.667 164.99 154.04L165.19 153.74V160.2H163.59ZM168.33 154.8C169.317 154.8 170.084 154.453 170.63 153.76C171.19 153.067 171.47 152.147 171.47 151C171.47 149.853 171.197 148.933 170.65 148.24C170.117 147.547 169.364 147.2 168.39 147.2C167.75 147.2 167.19 147.36 166.71 147.68C166.23 147.987 165.857 148.427 165.59 149C165.324 149.56 165.19 150.227 165.19 151C165.19 151.76 165.317 152.427 165.57 153C165.837 153.573 166.204 154.02 166.67 154.34C167.15 154.647 167.704 154.8 168.33 154.8ZM176.93 144.08C176.57 144.08 176.276 143.973 176.05 143.76C175.836 143.533 175.73 143.24 175.73 142.88C175.73 142.52 175.836 142.233 176.05 142.02C176.276 141.793 176.57 141.68 176.93 141.68C177.29 141.68 177.576 141.793 177.79 142.02C178.016 142.233 178.13 142.52 178.13 142.88C178.13 143.24 178.016 143.533 177.79 143.76C177.576 143.973 177.29 144.08 176.93 144.08ZM177.73 146V156H176.13V146H177.73ZM185.042 156.2C184.069 156.2 183.169 155.993 182.342 155.58C181.529 155.167 180.902 154.58 180.462 153.82L181.822 152.84C182.115 153.453 182.542 153.933 183.102 154.28C183.675 154.627 184.362 154.8 185.162 154.8C185.869 154.8 186.422 154.667 186.822 154.4C187.222 154.12 187.422 153.76 187.422 153.32C187.422 153.04 187.329 152.787 187.142 152.56C186.969 152.32 186.629 152.147 186.122 152.04L183.722 151.54C182.749 151.34 182.049 151.007 181.622 150.54C181.209 150.073 181.002 149.493 181.002 148.8C181.002 148.253 181.155 147.753 181.462 147.3C181.782 146.847 182.229 146.487 182.802 146.22C183.389 145.94 184.075 145.8 184.862 145.8C185.849 145.8 186.682 145.993 187.362 146.38C188.042 146.767 188.549 147.313 188.882 148.02L187.542 148.9C187.315 148.313 186.949 147.887 186.442 147.62C185.935 147.34 185.409 147.2 184.862 147.2C184.382 147.2 183.969 147.267 183.622 147.4C183.289 147.533 183.029 147.72 182.842 147.96C182.669 148.187 182.582 148.447 182.582 148.74C182.582 149.033 182.682 149.307 182.882 149.56C183.082 149.8 183.455 149.973 184.002 150.08L186.502 150.6C187.435 150.787 188.089 151.093 188.462 151.52C188.835 151.947 189.022 152.467 189.022 153.08C189.022 153.707 188.855 154.26 188.522 154.74C188.189 155.207 187.722 155.567 187.122 155.82C186.522 156.073 185.829 156.2 185.042 156.2ZM192.789 144.08C192.429 144.08 192.136 143.973 191.909 143.76C191.696 143.533 191.589 143.24 191.589 142.88C191.589 142.52 191.696 142.233 191.909 142.02C192.136 141.793 192.429 141.68 192.789 141.68C193.149 141.68 193.436 141.793 193.649 142.02C193.876 142.233 193.989 142.52 193.989 142.88C193.989 143.24 193.876 143.533 193.649 143.76C193.436 143.973 193.149 144.08 192.789 144.08ZM193.589 146V156H191.989V146H193.589ZM201.441 145.8C202.135 145.8 202.741 145.907 203.261 146.12C203.795 146.333 204.255 146.64 204.641 147.04C205.028 147.44 205.341 147.913 205.581 148.46L204.061 149.18C203.848 148.54 203.521 148.053 203.081 147.72C202.655 147.373 202.095 147.2 201.401 147.2C200.735 147.2 200.161 147.353 199.681 147.66C199.201 147.953 198.835 148.387 198.581 148.96C198.328 149.52 198.201 150.2 198.201 151C198.201 151.787 198.328 152.467 198.581 153.04C198.835 153.613 199.201 154.053 199.681 154.36C200.161 154.653 200.735 154.8 201.401 154.8C201.921 154.8 202.368 154.72 202.741 154.56C203.128 154.4 203.441 154.167 203.681 153.86C203.935 153.553 204.108 153.18 204.201 152.74L205.681 153.26C205.455 153.873 205.141 154.4 204.741 154.84C204.355 155.28 203.881 155.62 203.321 155.86C202.775 156.087 202.148 156.2 201.441 156.2C200.508 156.2 199.675 155.993 198.941 155.58C198.208 155.167 197.635 154.573 197.221 153.8C196.808 153.013 196.601 152.08 196.601 151C196.601 149.92 196.808 148.993 197.221 148.22C197.635 147.433 198.208 146.833 198.941 146.42C199.675 146.007 200.508 145.8 201.441 145.8ZM209.293 144.08C208.933 144.08 208.639 143.973 208.413 143.76C208.199 143.533 208.093 143.24 208.093 142.88C208.093 142.52 208.199 142.233 208.413 142.02C208.639 141.793 208.933 141.68 209.293 141.68C209.653 141.68 209.939 141.793 210.153 142.02C210.379 142.233 210.493 142.52 210.493 142.88C210.493 143.24 210.379 143.533 210.153 143.76C209.939 143.973 209.653 144.08 209.293 144.08ZM210.093 146V156H208.493V146H210.093ZM213.805 156V146H215.205L215.345 148.24L215.085 148.02C215.299 147.487 215.585 147.06 215.945 146.74C216.305 146.407 216.719 146.167 217.185 146.02C217.665 145.873 218.159 145.8 218.665 145.8C219.385 145.8 220.039 145.94 220.625 146.22C221.212 146.487 221.679 146.9 222.025 147.46C222.385 148.02 222.565 148.733 222.565 149.6V156H220.965V150.16C220.965 149.053 220.725 148.287 220.245 147.86C219.779 147.42 219.199 147.2 218.505 147.2C218.025 147.2 217.545 147.313 217.065 147.54C216.585 147.767 216.185 148.133 215.865 148.64C215.559 149.147 215.405 149.827 215.405 150.68V156H213.805ZM234.608 144.16L234.968 145.58C234.955 145.58 234.935 145.58 234.908 145.58C234.881 145.58 234.855 145.58 234.828 145.58C234.175 145.58 233.668 145.713 233.308 145.98C232.961 146.233 232.788 146.647 232.788 147.22L231.808 146.72C231.808 146.2 231.928 145.747 232.168 145.36C232.408 144.973 232.735 144.68 233.148 144.48C233.561 144.267 234.015 144.16 234.508 144.16C234.521 144.16 234.535 144.16 234.548 144.16C234.575 144.16 234.595 144.16 234.608 144.16ZM231.568 154.72C232.515 154.72 233.255 154.94 233.788 155.38C234.321 155.807 234.588 156.38 234.588 157.1C234.588 157.753 234.368 158.32 233.928 158.8C233.501 159.28 232.921 159.647 232.188 159.9C231.468 160.167 230.655 160.3 229.748 160.3C228.175 160.3 226.995 160.033 226.208 159.5C225.435 158.967 225.048 158.327 225.048 157.58C225.048 157.047 225.221 156.567 225.568 156.14C225.928 155.727 226.528 155.493 227.368 155.44L227.228 155.74C226.775 155.62 226.388 155.42 226.068 155.14C225.761 154.847 225.608 154.427 225.608 153.88C225.608 153.333 225.808 152.867 226.208 152.48C226.621 152.08 227.228 151.833 228.028 151.74L229.088 152.28H228.888C228.235 152.347 227.768 152.513 227.488 152.78C227.221 153.033 227.088 153.313 227.088 153.62C227.088 153.993 227.221 154.273 227.488 154.46C227.768 154.633 228.155 154.72 228.648 154.72H231.568ZM229.728 158.96C230.501 158.96 231.135 158.88 231.628 158.72C232.135 158.56 232.508 158.353 232.748 158.1C232.988 157.847 233.108 157.573 233.108 157.28C233.108 156.92 232.961 156.633 232.668 156.42C232.388 156.207 231.875 156.1 231.128 156.1H228.048C227.621 156.1 227.261 156.207 226.968 156.42C226.675 156.647 226.528 156.953 226.528 157.34C226.528 157.833 226.808 158.227 227.368 158.52C227.941 158.813 228.728 158.96 229.728 158.96ZM229.588 145.8C230.388 145.8 231.095 145.947 231.708 146.24C232.335 146.52 232.821 146.913 233.168 147.42C233.515 147.927 233.688 148.513 233.688 149.18C233.688 149.833 233.515 150.42 233.168 150.94C232.821 151.447 232.335 151.847 231.708 152.14C231.095 152.42 230.388 152.56 229.588 152.56C228.268 152.56 227.255 152.247 226.548 151.62C225.841 150.98 225.488 150.167 225.488 149.18C225.488 148.513 225.661 147.927 226.008 147.42C226.368 146.913 226.855 146.52 227.468 146.24C228.081 145.947 228.788 145.8 229.588 145.8ZM229.588 147.1C228.895 147.1 228.315 147.293 227.848 147.68C227.381 148.053 227.148 148.553 227.148 149.18C227.148 149.793 227.381 150.293 227.848 150.68C228.315 151.067 228.895 151.26 229.588 151.26C230.281 151.26 230.861 151.067 231.328 150.68C231.795 150.293 232.028 149.793 232.028 149.18C232.028 148.553 231.795 148.053 231.328 147.68C230.861 147.293 230.281 147.1 229.588 147.1ZM247.829 156.2C246.882 156.2 246.036 155.993 245.289 155.58C244.556 155.167 243.982 154.573 243.569 153.8C243.156 153.013 242.949 152.08 242.949 151C242.949 149.92 243.156 148.993 243.569 148.22C243.982 147.433 244.549 146.833 245.269 146.42C245.989 146.007 246.809 145.8 247.729 145.8C248.662 145.8 249.456 146 250.109 146.4C250.776 146.8 251.282 147.347 251.629 148.04C251.976 148.72 252.149 149.487 252.149 150.34C252.149 150.567 252.142 150.773 252.129 150.96C252.116 151.147 252.096 151.313 252.069 151.46H243.989V150.04H251.369L250.549 150.2C250.549 149.24 250.282 148.5 249.749 147.98C249.229 147.46 248.542 147.2 247.689 147.2C247.036 147.2 246.469 147.353 245.989 147.66C245.522 147.953 245.156 148.387 244.889 148.96C244.636 149.52 244.509 150.2 244.509 151C244.509 151.787 244.642 152.467 244.909 153.04C245.176 153.613 245.549 154.053 246.029 154.36C246.522 154.653 247.109 154.8 247.789 154.8C248.522 154.8 249.116 154.66 249.569 154.38C250.036 154.1 250.409 153.72 250.689 153.24L251.949 153.98C251.696 154.433 251.369 154.827 250.969 155.16C250.582 155.493 250.122 155.753 249.589 155.94C249.069 156.113 248.482 156.2 247.829 156.2ZM256.712 141.4V153.46C256.712 153.967 256.805 154.32 256.992 154.52C257.179 154.707 257.479 154.8 257.892 154.8C258.159 154.8 258.379 154.78 258.552 154.74C258.725 154.7 258.959 154.627 259.252 154.52L258.992 155.92C258.779 156.013 258.545 156.08 258.292 156.12C258.039 156.173 257.779 156.2 257.512 156.2C256.699 156.2 256.092 155.98 255.692 155.54C255.305 155.1 255.112 154.427 255.112 153.52V141.4H256.712ZM262.105 144.08C261.745 144.08 261.452 143.973 261.225 143.76C261.012 143.533 260.905 143.24 260.905 142.88C260.905 142.52 261.012 142.233 261.225 142.02C261.452 141.793 261.745 141.68 262.105 141.68C262.465 141.68 262.752 141.793 262.965 142.02C263.192 142.233 263.305 142.52 263.305 142.88C263.305 143.24 263.192 143.533 262.965 143.76C262.752 143.973 262.465 144.08 262.105 144.08ZM262.905 146V156H261.305V146H262.905ZM268.978 143.16V153.24C268.978 153.733 269.118 154.1 269.398 154.34C269.678 154.58 270.038 154.7 270.478 154.7C270.864 154.7 271.198 154.633 271.478 154.5C271.758 154.367 272.011 154.187 272.238 153.96L272.798 155.3C272.491 155.58 272.124 155.8 271.698 155.96C271.284 156.12 270.804 156.2 270.258 156.2C269.751 156.2 269.278 156.113 268.838 155.94C268.398 155.753 268.044 155.467 267.778 155.08C267.524 154.68 267.391 154.16 267.378 153.52V143.6L268.978 143.16ZM272.618 146V147.38H265.378V146H272.618ZM275.797 153.6C276.183 153.6 276.497 153.72 276.737 153.96C276.977 154.2 277.097 154.513 277.097 154.9C277.097 155.287 276.977 155.6 276.737 155.84C276.497 156.08 276.183 156.2 275.797 156.2C275.41 156.2 275.097 156.08 274.857 155.84C274.617 155.6 274.497 155.287 274.497 154.9C274.497 154.513 274.617 154.2 274.857 153.96C275.097 153.72 275.41 153.6 275.797 153.6Z" fill="black"/>
</svg>
