<svg width="170" height="48" viewBox="0 0 170 48" fill="none" xmlns="http://www.w3.org/2000/svg">
<rect width="170" height="48" rx="5" fill="#212529"/>
<path d="M33.6623 30.5H41.2223V32H32.0623V18.8H33.6623V30.5ZM47.6025 32.2C46.6558 32.2 45.8092 31.9933 45.0625 31.58C44.3292 31.1667 43.7558 30.5733 43.3425 29.8C42.9292 29.0133 42.7225 28.08 42.7225 27C42.7225 25.92 42.9292 24.9933 43.3425 24.22C43.7558 23.4333 44.3225 22.8333 45.0425 22.42C45.7625 22.0067 46.5825 21.8 47.5025 21.8C48.4358 21.8 49.2292 22 49.8825 22.4C50.5492 22.8 51.0558 23.3467 51.4025 24.04C51.7492 24.72 51.9225 25.4867 51.9225 26.34C51.9225 26.5667 51.9158 26.7733 51.9025 26.96C51.8892 27.1467 51.8692 27.3133 51.8425 27.46H43.7625V26.04H51.1425L50.3225 26.2C50.3225 25.24 50.0558 24.5 49.5225 23.98C49.0025 23.46 48.3158 23.2 47.4625 23.2C46.8092 23.2 46.2425 23.3533 45.7625 23.66C45.2958 23.9533 44.9292 24.3867 44.6625 24.96C44.4092 25.52 44.2825 26.2 44.2825 27C44.2825 27.7867 44.4158 28.4667 44.6825 29.04C44.9492 29.6133 45.3225 30.0533 45.8025 30.36C46.2958 30.6533 46.8825 30.8 47.5625 30.8C48.2958 30.8 48.8892 30.66 49.3425 30.38C49.8092 30.1 50.1825 29.72 50.4625 29.24L51.7225 29.98C51.4692 30.4333 51.1425 30.8267 50.7425 31.16C50.3558 31.4933 49.8958 31.7533 49.3625 31.94C48.8425 32.1133 48.2558 32.2 47.6025 32.2ZM60.8055 25.54C60.8055 24.7933 60.6055 24.22 60.2055 23.82C59.8055 23.4067 59.2388 23.2 58.5055 23.2C57.8121 23.2 57.2255 23.3533 56.7455 23.66C56.2655 23.9533 55.9121 24.4333 55.6855 25.1L54.3855 24.3C54.6521 23.5533 55.1455 22.9533 55.8655 22.5C56.5855 22.0333 57.4788 21.8 58.5455 21.8C59.2655 21.8 59.9188 21.9267 60.5055 22.18C61.0921 22.42 61.5521 22.7933 61.8855 23.3C62.2321 23.7933 62.4055 24.4333 62.4055 25.22V30.06C62.4055 30.54 62.6588 30.78 63.1655 30.78C63.4188 30.78 63.6655 30.7467 63.9055 30.68L63.8255 31.94C63.5588 32.0733 63.2121 32.14 62.7855 32.14C62.3988 32.14 62.0521 32.0667 61.7455 31.92C61.4388 31.7733 61.1988 31.5533 61.0255 31.26C60.8521 30.9533 60.7655 30.5733 60.7655 30.12V29.92L61.1655 29.98C61.0055 30.5 60.7321 30.9267 60.3455 31.26C59.9588 31.58 59.5255 31.82 59.0455 31.98C58.5655 32.1267 58.0921 32.2 57.6255 32.2C57.0388 32.2 56.4921 32.1 55.9855 31.9C55.4788 31.7 55.0721 31.4 54.7655 31C54.4721 30.5867 54.3255 30.08 54.3255 29.48C54.3255 28.7333 54.5721 28.12 55.0655 27.64C55.5721 27.1467 56.2721 26.8133 57.1655 26.64L61.1255 25.86V27.18L57.9055 27.84C57.2521 27.9733 56.7655 28.16 56.4455 28.4C56.1255 28.64 55.9655 28.9733 55.9655 29.4C55.9655 29.8133 56.1255 30.1533 56.4455 30.42C56.7788 30.6733 57.2455 30.8 57.8455 30.8C58.2321 30.8 58.5988 30.7533 58.9455 30.66C59.3055 30.5533 59.6255 30.4 59.9055 30.2C60.1855 29.9867 60.4055 29.7267 60.5655 29.42C60.7255 29.1 60.8055 28.7267 60.8055 28.3V25.54ZM66.2936 32V22H67.5936L67.8136 23.64C68.0936 23.0267 68.5003 22.5667 69.0336 22.26C69.5803 21.9533 70.2403 21.8 71.0136 21.8C71.1869 21.8 71.3736 21.8133 71.5736 21.84C71.7869 21.8667 71.9669 21.92 72.1136 22L71.8336 23.46C71.6869 23.4067 71.5269 23.3667 71.3536 23.34C71.1803 23.3133 70.9336 23.3 70.6136 23.3C70.2003 23.3 69.7803 23.42 69.3536 23.66C68.9403 23.9 68.5936 24.2667 68.3136 24.76C68.0336 25.24 67.8936 25.8533 67.8936 26.6V32H66.2936ZM74.4577 32V22H75.8577L75.9977 24.24L75.7377 24.02C75.951 23.4867 76.2377 23.06 76.5977 22.74C76.9577 22.4067 77.371 22.1667 77.8377 22.02C78.3177 21.8733 78.811 21.8 79.3177 21.8C80.0377 21.8 80.691 21.94 81.2777 22.22C81.8643 22.4867 82.331 22.9 82.6777 23.46C83.0377 24.02 83.2177 24.7333 83.2177 25.6V32H81.6177V26.16C81.6177 25.0533 81.3777 24.2867 80.8977 23.86C80.431 23.42 79.851 23.2 79.1577 23.2C78.6777 23.2 78.1977 23.3133 77.7177 23.54C77.2377 23.7667 76.8377 24.1333 76.5177 24.64C76.211 25.1467 76.0577 25.8267 76.0577 26.68V32H74.4577ZM106.717 18.8V32H105.197V23.7L105.377 20.22H105.357L101.017 32H99.6569L95.3169 20.22H95.2969L95.4769 23.7V32H93.9569V18.8H96.4169L99.3169 26.82L100.317 30.12H100.357L101.377 26.84L104.257 18.8H106.717ZM114.711 21.8C115.658 21.8 116.491 22.0067 117.211 22.42C117.944 22.8333 118.518 23.4333 118.931 24.22C119.344 24.9933 119.551 25.92 119.551 27C119.551 28.08 119.344 29.0133 118.931 29.8C118.518 30.5733 117.944 31.1667 117.211 31.58C116.491 31.9933 115.658 32.2 114.711 32.2C113.778 32.2 112.944 31.9933 112.211 31.58C111.478 31.1667 110.904 30.5733 110.491 29.8C110.078 29.0133 109.871 28.08 109.871 27C109.871 25.92 110.078 24.9933 110.491 24.22C110.904 23.4333 111.478 22.8333 112.211 22.42C112.944 22.0067 113.778 21.8 114.711 21.8ZM114.711 23.18C114.031 23.18 113.451 23.3333 112.971 23.64C112.491 23.9467 112.118 24.3867 111.851 24.96C111.598 25.52 111.471 26.2 111.471 27C111.471 27.7867 111.598 28.4667 111.851 29.04C112.118 29.6133 112.491 30.0533 112.971 30.36C113.451 30.6667 114.031 30.82 114.711 30.82C115.391 30.82 115.971 30.6667 116.451 30.36C116.931 30.0533 117.298 29.6133 117.551 29.04C117.818 28.4667 117.951 27.7867 117.951 27C117.951 26.2 117.818 25.52 117.551 24.96C117.298 24.3867 116.931 23.9467 116.451 23.64C115.971 23.3333 115.391 23.18 114.711 23.18ZM122.563 32V22H123.863L124.083 23.64C124.363 23.0267 124.77 22.5667 125.303 22.26C125.85 21.9533 126.51 21.8 127.283 21.8C127.456 21.8 127.643 21.8133 127.843 21.84C128.056 21.8667 128.236 21.92 128.383 22L128.103 23.46C127.956 23.4067 127.796 23.3667 127.623 23.34C127.45 23.3133 127.203 23.3 126.883 23.3C126.47 23.3 126.05 23.42 125.623 23.66C125.21 23.9 124.863 24.2667 124.583 24.76C124.303 25.24 124.163 25.8533 124.163 26.6V32H122.563ZM134.595 32.2C133.648 32.2 132.801 31.9933 132.055 31.58C131.321 31.1667 130.748 30.5733 130.335 29.8C129.921 29.0133 129.715 28.08 129.715 27C129.715 25.92 129.921 24.9933 130.335 24.22C130.748 23.4333 131.315 22.8333 132.035 22.42C132.755 22.0067 133.575 21.8 134.495 21.8C135.428 21.8 136.221 22 136.875 22.4C137.541 22.8 138.048 23.3467 138.395 24.04C138.741 24.72 138.915 25.4867 138.915 26.34C138.915 26.5667 138.908 26.7733 138.895 26.96C138.881 27.1467 138.861 27.3133 138.835 27.46H130.755V26.04H138.135L137.315 26.2C137.315 25.24 137.048 24.5 136.515 23.98C135.995 23.46 135.308 23.2 134.455 23.2C133.801 23.2 133.235 23.3533 132.755 23.66C132.288 23.9533 131.921 24.3867 131.655 24.96C131.401 25.52 131.275 26.2 131.275 27C131.275 27.7867 131.408 28.4667 131.675 29.04C131.941 29.6133 132.315 30.0533 132.795 30.36C133.288 30.6533 133.875 30.8 134.555 30.8C135.288 30.8 135.881 30.66 136.335 30.38C136.801 30.1 137.175 29.72 137.455 29.24L138.715 29.98C138.461 30.4333 138.135 30.8267 137.735 31.16C137.348 31.4933 136.888 31.7533 136.355 31.94C135.835 32.1133 135.248 32.2 134.595 32.2Z" fill="white"/>
</svg>
