<svg width="80" height="15" viewBox="0 0 80 15" fill="none" xmlns="http://www.w3.org/2000/svg">
<path d="M4.66 1.50001C5.55333 1.50001 6.32666 1.66668 6.98 2.00001C7.64666 2.32001 8.16666 2.78001 8.54 3.38001C8.91333 3.98001 9.1 4.69335 9.1 5.52001C9.1 6.34668 8.91333 7.06001 8.54 7.66001C8.16666 8.26001 7.64666 8.72668 6.98 9.06001C6.32666 9.38001 5.55333 9.54001 4.66 9.54001H1.6V14.7H-3.60608e-06V1.50001H4.66ZM4.42 8.04001C5.46 8.04001 6.22 7.82668 6.7 7.40001C7.18 6.96001 7.42 6.33334 7.42 5.52001C7.42 4.69335 7.18 4.06668 6.7 3.64001C6.22 3.21334 5.46 3.00001 4.42 3.00001H1.6V8.04001H4.42ZM15.8712 4.50001C16.8179 4.50001 17.6512 4.70668 18.3712 5.12001C19.1046 5.53335 19.6779 6.13335 20.0912 6.92001C20.5046 7.69334 20.7112 8.62001 20.7112 9.70001C20.7112 10.78 20.5046 11.7133 20.0912 12.5C19.6779 13.2733 19.1046 13.8667 18.3712 14.28C17.6512 14.6933 16.8179 14.9 15.8712 14.9C14.9379 14.9 14.1046 14.6933 13.3712 14.28C12.6379 13.8667 12.0646 13.2733 11.6512 12.5C11.2379 11.7133 11.0312 10.78 11.0312 9.70001C11.0312 8.62001 11.2379 7.69334 11.6512 6.92001C12.0646 6.13335 12.6379 5.53335 13.3712 5.12001C14.1046 4.70668 14.9379 4.50001 15.8712 4.50001ZM15.8712 5.88001C15.1912 5.88001 14.6112 6.03335 14.1312 6.34001C13.6512 6.64668 13.2779 7.08668 13.0112 7.66001C12.7579 8.22001 12.6312 8.90001 12.6312 9.70001C12.6312 10.4867 12.7579 11.1667 13.0112 11.74C13.2779 12.3133 13.6512 12.7533 14.1312 13.06C14.6112 13.3667 15.1912 13.52 15.8712 13.52C16.5512 13.52 17.1312 13.3667 17.6112 13.06C18.0912 12.7533 18.4579 12.3133 18.7112 11.74C18.9779 11.1667 19.1112 10.4867 19.1112 9.70001C19.1112 8.90001 18.9779 8.22001 18.7112 7.66001C18.4579 7.08668 18.0912 6.64668 17.6112 6.34001C17.1312 6.03335 16.5512 5.88001 15.8712 5.88001ZM23.7234 14.7V4.70001H25.0234L25.2434 6.34001C25.5234 5.72668 25.9301 5.26668 26.4634 4.96001C27.0101 4.65334 27.6701 4.50001 28.4434 4.50001C28.6168 4.50001 28.8034 4.51334 29.0034 4.54001C29.2168 4.56668 29.3968 4.62001 29.5434 4.70001L29.2634 6.16001C29.1168 6.10668 28.9568 6.06668 28.7834 6.04001C28.6101 6.01334 28.3634 6.00001 28.0434 6.00001C27.6301 6.00001 27.2101 6.12001 26.7834 6.36001C26.3701 6.60001 26.0234 6.96668 25.7434 7.46001C25.4634 7.94001 25.3234 8.55335 25.3234 9.30001V14.7H23.7234ZM33.642 1.86001V11.94C33.642 12.4333 33.782 12.8 34.062 13.04C34.342 13.28 34.702 13.4 35.142 13.4C35.5287 13.4 35.862 13.3333 36.142 13.2C36.422 13.0667 36.6754 12.8867 36.902 12.66L37.462 14C37.1554 14.28 36.7887 14.5 36.362 14.66C35.9487 14.82 35.4687 14.9 34.922 14.9C34.4154 14.9 33.942 14.8133 33.502 14.64C33.062 14.4533 32.7087 14.1667 32.442 13.78C32.1887 13.38 32.0554 12.86 32.042 12.22V2.30001L33.642 1.86001ZM37.282 4.70001V6.08001H30.042V4.70001H37.282ZM43.3303 1.19209e-05C43.677 1.19209e-05 44.0036 0.0400118 44.3103 0.120012C44.617 0.200011 44.857 0.313345 45.0303 0.460012L44.6103 1.76001C44.4503 1.65335 44.277 1.58001 44.0903 1.54001C43.9036 1.48668 43.697 1.46001 43.4703 1.46001C42.897 1.46001 42.4503 1.60001 42.1303 1.88001C41.8103 2.14668 41.6503 2.58001 41.6503 3.18001V4.70001V5.22001V14.7H40.0503V3.02001C40.0503 2.58001 40.117 2.17334 40.2503 1.80001C40.3836 1.42668 40.5836 1.10668 40.8503 0.840012C41.1303 0.573345 41.477 0.366678 41.8903 0.220011C42.3036 0.0733451 42.7836 1.19209e-05 43.3303 1.19209e-05ZM44.9903 4.70001V6.08001H38.0503V4.70001H44.9903ZM50.9884 4.50001C51.9351 4.50001 52.7684 4.70668 53.4884 5.12001C54.2218 5.53335 54.7951 6.13335 55.2084 6.92001C55.6218 7.69334 55.8284 8.62001 55.8284 9.70001C55.8284 10.78 55.6218 11.7133 55.2084 12.5C54.7951 13.2733 54.2218 13.8667 53.4884 14.28C52.7684 14.6933 51.9351 14.9 50.9884 14.9C50.0551 14.9 49.2218 14.6933 48.4884 14.28C47.7551 13.8667 47.1818 13.2733 46.7684 12.5C46.3551 11.7133 46.1484 10.78 46.1484 9.70001C46.1484 8.62001 46.3551 7.69334 46.7684 6.92001C47.1818 6.13335 47.7551 5.53335 48.4884 5.12001C49.2218 4.70668 50.0551 4.50001 50.9884 4.50001ZM50.9884 5.88001C50.3084 5.88001 49.7284 6.03335 49.2484 6.34001C48.7684 6.64668 48.3951 7.08668 48.1284 7.66001C47.8751 8.22001 47.7484 8.90001 47.7484 9.70001C47.7484 10.4867 47.8751 11.1667 48.1284 11.74C48.3951 12.3133 48.7684 12.7533 49.2484 13.06C49.7284 13.3667 50.3084 13.52 50.9884 13.52C51.6684 13.52 52.2484 13.3667 52.7284 13.06C53.2084 12.7533 53.5751 12.3133 53.8284 11.74C54.0951 11.1667 54.2284 10.4867 54.2284 9.70001C54.2284 8.90001 54.0951 8.22001 53.8284 7.66001C53.5751 7.08668 53.2084 6.64668 52.7284 6.34001C52.2484 6.03335 51.6684 5.88001 50.9884 5.88001ZM60.3606 0.100012V12.16C60.3606 12.6667 60.454 13.02 60.6406 13.22C60.8273 13.4067 61.1273 13.5 61.5406 13.5C61.8073 13.5 62.0273 13.48 62.2006 13.44C62.374 13.4 62.6073 13.3267 62.9006 13.22L62.6406 14.62C62.4273 14.7133 62.194 14.78 61.9406 14.82C61.6873 14.8733 61.4273 14.9 61.1606 14.9C60.3473 14.9 59.7406 14.68 59.3406 14.24C58.954 13.8 58.7606 13.1267 58.7606 12.22V0.100012H60.3606ZM65.7539 2.78001C65.3939 2.78001 65.1006 2.67335 64.8739 2.46001C64.6606 2.23335 64.5539 1.94001 64.5539 1.58001C64.5539 1.22001 64.6606 0.933345 64.8739 0.720011C65.1006 0.493345 65.3939 0.380012 65.7539 0.380012C66.1139 0.380012 66.4006 0.493345 66.6139 0.720011C66.8406 0.933345 66.9539 1.22001 66.9539 1.58001C66.9539 1.94001 66.8406 2.23335 66.6139 2.46001C66.4006 2.67335 66.1139 2.78001 65.7539 2.78001ZM66.5539 4.70001V14.7H64.9539V4.70001H66.5539ZM74.4064 4.50001C75.3531 4.50001 76.1864 4.70668 76.9064 5.12001C77.6397 5.53335 78.2131 6.13335 78.6264 6.92001C79.0397 7.69334 79.2464 8.62001 79.2464 9.70001C79.2464 10.78 79.0397 11.7133 78.6264 12.5C78.2131 13.2733 77.6397 13.8667 76.9064 14.28C76.1864 14.6933 75.3531 14.9 74.4064 14.9C73.4731 14.9 72.6397 14.6933 71.9064 14.28C71.1731 13.8667 70.5997 13.2733 70.1864 12.5C69.7731 11.7133 69.5664 10.78 69.5664 9.70001C69.5664 8.62001 69.7731 7.69334 70.1864 6.92001C70.5997 6.13335 71.1731 5.53335 71.9064 5.12001C72.6397 4.70668 73.4731 4.50001 74.4064 4.50001ZM74.4064 5.88001C73.7264 5.88001 73.1464 6.03335 72.6664 6.34001C72.1864 6.64668 71.8131 7.08668 71.5464 7.66001C71.2931 8.22001 71.1664 8.90001 71.1664 9.70001C71.1664 10.4867 71.2931 11.1667 71.5464 11.74C71.8131 12.3133 72.1864 12.7533 72.6664 13.06C73.1464 13.3667 73.7264 13.52 74.4064 13.52C75.0864 13.52 75.6664 13.3667 76.1464 13.06C76.6264 12.7533 76.9931 12.3133 77.2464 11.74C77.5131 11.1667 77.6464 10.4867 77.6464 9.70001C77.6464 8.90001 77.5131 8.22001 77.2464 7.66001C76.9931 7.08668 76.6264 6.64668 76.1464 6.34001C75.6664 6.03335 75.0864 5.88001 74.4064 5.88001Z" fill="white"/>
</svg>
