<svg width="80" height="15" viewBox="0 0 80 15" fill="none" xmlns="http://www.w3.org/2000/svg">
<path d="M5.54002 0.920007C6.70001 0.920007 7.70001 1.16001 8.54002 1.64001C9.38002 2.10667 10.08 2.80001 10.64 3.72001L9.30001 4.76001C8.80668 3.90667 8.24668 3.30667 7.62002 2.96001C7.00668 2.60001 6.26001 2.42001 5.38001 2.42001C4.67335 2.42001 4.08668 2.52001 3.62001 2.72001C3.16668 2.92001 2.83335 3.18667 2.62001 3.52001C2.40668 3.84001 2.30001 4.20667 2.30001 4.62001C2.30001 5.08667 2.44668 5.50001 2.74001 5.86001C3.03335 6.20667 3.62001 6.48001 4.50001 6.68001L7.36001 7.32001C8.62668 7.60001 9.50668 8.02667 10 8.60001C10.5067 9.16001 10.76 9.86001 10.76 10.7C10.76 11.4467 10.5467 12.1133 10.12 12.7C9.70668 13.2733 9.12001 13.72 8.36002 14.04C7.60002 14.36 6.70668 14.52 5.68002 14.52C4.72002 14.52 3.87335 14.3933 3.14001 14.14C2.42001 13.8733 1.80001 13.52 1.28001 13.08C0.760015 12.64 0.333348 12.1467 1.46776e-05 11.6L1.40001 10.46C1.65335 10.9667 1.98001 11.4133 2.38001 11.8C2.78001 12.1867 3.26001 12.4867 3.82001 12.7C4.39335 12.9133 5.04668 13.02 5.78001 13.02C6.46001 13.02 7.04668 12.94 7.54001 12.78C8.04668 12.6067 8.43335 12.36 8.70001 12.04C8.96668 11.7067 9.10002 11.3067 9.10002 10.84C9.10002 10.4133 8.96002 10.0333 8.68002 9.70001C8.40002 9.35334 7.87335 9.09334 7.10002 8.92001L4.00001 8.22001C3.18668 8.03334 2.52668 7.78001 2.02001 7.46001C1.52668 7.12667 1.16668 6.74001 0.940015 6.30001C0.726681 5.84667 0.620015 5.36001 0.620015 4.84001C0.620015 4.13334 0.813348 3.48667 1.20001 2.90001C1.60001 2.30001 2.16668 1.82001 2.90001 1.46001C3.64668 1.10001 4.52668 0.920007 5.54002 0.920007ZM17.9925 14.52C17.0458 14.52 16.1992 14.3133 15.4525 13.9C14.7192 13.4867 14.1458 12.8933 13.7325 12.12C13.3192 11.3333 13.1125 10.4 13.1125 9.32001C13.1125 8.24001 13.3192 7.31334 13.7325 6.54001C14.1458 5.75334 14.7125 5.15334 15.4325 4.74001C16.1525 4.32667 16.9725 4.12001 17.8925 4.12001C18.8258 4.12001 19.6192 4.32001 20.2725 4.72001C20.9392 5.12001 21.4458 5.66667 21.7925 6.36001C22.1392 7.04001 22.3125 7.80667 22.3125 8.66001C22.3125 8.88667 22.3058 9.09334 22.2925 9.28001C22.2792 9.46667 22.2592 9.63334 22.2325 9.78001H14.1525V8.36001H21.5325L20.7125 8.52001C20.7125 7.56001 20.4458 6.82001 19.9125 6.30001C19.3925 5.78001 18.7058 5.52001 17.8525 5.52001C17.1992 5.52001 16.6325 5.67334 16.1525 5.98001C15.6858 6.27334 15.3192 6.70667 15.0525 7.28001C14.7992 7.84001 14.6725 8.52001 14.6725 9.32001C14.6725 10.1067 14.8058 10.7867 15.0725 11.36C15.3392 11.9333 15.7125 12.3733 16.1925 12.68C16.6858 12.9733 17.2725 13.12 17.9525 13.12C18.6858 13.12 19.2792 12.98 19.7325 12.7C20.1992 12.42 20.5725 12.04 20.8525 11.56L22.1125 12.3C21.8592 12.7533 21.5325 13.1467 21.1325 13.48C20.7458 13.8133 20.2858 14.0733 19.7525 14.26C19.2325 14.4333 18.6458 14.52 17.9925 14.52ZM25.3555 14.32V4.32001H26.6555L26.8755 5.96001C27.1555 5.34667 27.5622 4.88667 28.0955 4.58001C28.6422 4.27334 29.3022 4.12001 30.0755 4.12001C30.2488 4.12001 30.4355 4.13334 30.6355 4.16001C30.8488 4.18667 31.0288 4.24001 31.1755 4.32001L30.8955 5.78001C30.7488 5.72667 30.5888 5.68667 30.4155 5.66001C30.2422 5.63334 29.9955 5.62001 29.6755 5.62001C29.2622 5.62001 28.8422 5.74001 28.4155 5.98001C28.0022 6.22001 27.6555 6.58667 27.3755 7.08001C27.0955 7.56001 26.9555 8.17334 26.9555 8.92001V14.32H25.3555ZM40.1395 4.32001H41.8195L37.6595 14.32H36.0595L31.8995 4.32001H33.7195L36.8795 12.7L40.1395 4.32001ZM44.7102 2.40001C44.3502 2.40001 44.0568 2.29334 43.8302 2.08001C43.6168 1.85334 43.5102 1.56001 43.5102 1.20001C43.5102 0.840007 43.6168 0.55334 43.8302 0.340006C44.0568 0.11334 44.3502 6.91414e-06 44.7102 6.91414e-06C45.0702 6.91414e-06 45.3568 0.11334 45.5702 0.340006C45.7968 0.55334 45.9102 0.840007 45.9102 1.20001C45.9102 1.56001 45.7968 1.85334 45.5702 2.08001C45.3568 2.29334 45.0702 2.40001 44.7102 2.40001ZM45.5102 4.32001V14.32H43.9102V4.32001H45.5102ZM53.3627 4.12001C54.056 4.12001 54.6627 4.22667 55.1827 4.44001C55.716 4.65334 56.176 4.96001 56.5627 5.36001C56.9493 5.76001 57.2627 6.23334 57.5027 6.78001L55.9827 7.50001C55.7693 6.86001 55.4427 6.37334 55.0027 6.04001C54.576 5.69334 54.016 5.52001 53.3227 5.52001C52.656 5.52001 52.0827 5.67334 51.6027 5.98001C51.1227 6.27334 50.756 6.70667 50.5027 7.28001C50.2493 7.84001 50.1227 8.52001 50.1227 9.32001C50.1227 10.1067 50.2493 10.7867 50.5027 11.36C50.756 11.9333 51.1227 12.3733 51.6027 12.68C52.0827 12.9733 52.656 13.12 53.3227 13.12C53.8427 13.12 54.2893 13.04 54.6627 12.88C55.0493 12.72 55.3627 12.4867 55.6027 12.18C55.856 11.8733 56.0293 11.5 56.1227 11.06L57.6027 11.58C57.376 12.1933 57.0627 12.72 56.6627 13.16C56.276 13.6 55.8027 13.94 55.2427 14.18C54.696 14.4067 54.0693 14.52 53.3627 14.52C52.4293 14.52 51.596 14.3133 50.8627 13.9C50.1293 13.4867 49.556 12.8933 49.1427 12.12C48.7293 11.3333 48.5227 10.4 48.5227 9.32001C48.5227 8.24001 48.7293 7.31334 49.1427 6.54001C49.556 5.75334 50.1293 5.15334 50.8627 4.74001C51.596 4.32667 52.4293 4.12001 53.3627 4.12001ZM64.5941 14.52C63.6474 14.52 62.8007 14.3133 62.0541 13.9C61.3207 13.4867 60.7474 12.8933 60.3341 12.12C59.9207 11.3333 59.7141 10.4 59.7141 9.32001C59.7141 8.24001 59.9207 7.31334 60.3341 6.54001C60.7474 5.75334 61.3141 5.15334 62.0341 4.74001C62.7541 4.32667 63.5741 4.12001 64.4941 4.12001C65.4274 4.12001 66.2207 4.32001 66.8741 4.72001C67.5407 5.12001 68.0474 5.66667 68.3941 6.36001C68.7407 7.04001 68.9141 7.80667 68.9141 8.66001C68.9141 8.88667 68.9074 9.09334 68.8941 9.28001C68.8807 9.46667 68.8607 9.63334 68.8341 9.78001H60.7541V8.36001H68.1341L67.3141 8.52001C67.3141 7.56001 67.0474 6.82001 66.5141 6.30001C65.9941 5.78001 65.3074 5.52001 64.4541 5.52001C63.8007 5.52001 63.2341 5.67334 62.7541 5.98001C62.2874 6.27334 61.9207 6.70667 61.6541 7.28001C61.4007 7.84001 61.2741 8.52001 61.2741 9.32001C61.2741 10.1067 61.4074 10.7867 61.6741 11.36C61.9407 11.9333 62.3141 12.3733 62.7941 12.68C63.2874 12.9733 63.8741 13.12 64.5541 13.12C65.2874 13.12 65.8807 12.98 66.3341 12.7C66.8007 12.42 67.1741 12.04 67.4541 11.56L68.7141 12.3C68.4607 12.7533 68.1341 13.1467 67.7341 13.48C67.3474 13.8133 66.8874 14.0733 66.3541 14.26C65.8341 14.4333 65.2474 14.52 64.5941 14.52ZM75.557 14.52C74.5837 14.52 73.6837 14.3133 72.857 13.9C72.0437 13.4867 71.417 12.9 70.977 12.14L72.337 11.16C72.6304 11.7733 73.057 12.2533 73.617 12.6C74.1904 12.9467 74.877 13.12 75.677 13.12C76.3837 13.12 76.937 12.9867 77.337 12.72C77.737 12.44 77.937 12.08 77.937 11.64C77.937 11.36 77.8437 11.1067 77.657 10.88C77.4837 10.64 77.1437 10.4667 76.637 10.36L74.237 9.86001C73.2637 9.66001 72.5637 9.32667 72.137 8.86001C71.7237 8.39334 71.517 7.81334 71.517 7.12001C71.517 6.57334 71.6704 6.07334 71.977 5.62001C72.297 5.16667 72.7437 4.80667 73.317 4.54001C73.9037 4.26001 74.5904 4.12001 75.377 4.12001C76.3637 4.12001 77.197 4.31334 77.877 4.70001C78.557 5.08667 79.0637 5.63334 79.397 6.34001L78.057 7.22001C77.8304 6.63334 77.4637 6.20667 76.957 5.94001C76.4504 5.66001 75.9237 5.52001 75.377 5.52001C74.897 5.52001 74.4837 5.58667 74.137 5.72001C73.8037 5.85334 73.5437 6.04001 73.357 6.28001C73.1837 6.50667 73.097 6.76667 73.097 7.06001C73.097 7.35334 73.197 7.62667 73.397 7.88001C73.597 8.12001 73.9704 8.29334 74.517 8.40001L77.017 8.92001C77.9504 9.10667 78.6037 9.41334 78.977 9.84001C79.3504 10.2667 79.537 10.7867 79.537 11.4C79.537 12.0267 79.3704 12.58 79.037 13.06C78.7037 13.5267 78.237 13.8867 77.637 14.14C77.037 14.3933 76.3437 14.52 75.557 14.52Z" fill="white"/>
</svg>
