<svg width="243" height="18" viewBox="0 0 243 18" fill="none" xmlns="http://www.w3.org/2000/svg">
<path d="M9.00943 10.1251L9.50902 6.86758H6.38326V4.75323C6.38326 3.8619 6.81978 2.99347 8.21986 2.99347H9.64077V0.219781C9.64077 0.219781 8.3516 0 7.1184 0C4.54363 0 2.86171 1.55982 2.86171 4.38439V6.86758H0V10.1251H2.86171V18H6.38326V10.1251H9.00943Z" fill="white"/>
<path d="M43.4058 3.21362C42.8228 3.21362 42.3502 3.68624 42.3502 4.26874C42.3502 4.85175 42.8228 5.32436 43.4058 5.32436C43.9883 5.32436 44.4609 4.85175 44.4609 4.26874C44.4609 3.68624 43.9883 3.21362 43.4058 3.21362Z" fill="white"/>
<path d="M38.714 11.8392C37.1482 11.8392 35.8743 10.5654 35.8743 8.99999C35.8743 7.43411 37.1482 6.16025 38.714 6.16025C40.2794 6.16025 41.5533 7.43411 41.5533 8.99999C41.5533 10.5654 40.2794 11.8392 38.714 11.8392ZM38.714 4.56689C36.2696 4.56689 34.2809 6.55553 34.2809 8.99999C34.2809 11.4439 36.2696 13.4326 38.714 13.4326C41.158 13.4326 43.1466 11.4439 43.1466 8.99999C43.1466 6.55553 41.158 4.56689 38.714 4.56689Z" fill="white"/>
<path d="M35.0471 1.69357C32.9994 1.69357 31.3338 3.35917 31.3338 5.40682V12.5932C31.3338 14.6408 32.9994 16.3064 35.0471 16.3064H42.2334C44.2811 16.3064 45.9472 14.6408 45.9472 12.5932V5.40682C45.9472 3.35917 44.2811 1.69357 42.2334 1.69357H35.0471ZM42.2334 18H35.0471C32.0654 18 29.6407 15.5744 29.6407 12.5932V5.40682C29.6407 2.42513 32.0654 0 35.0471 0H42.2334C45.2146 0 47.6402 2.42513 47.6402 5.40682V12.5932C47.6402 15.5744 45.2146 18 42.2334 18Z" fill="white"/>
<path d="M89.4202 2.15762C88.7253 2.47202 87.9576 2.66229 87.2082 2.78795C87.5638 2.72842 88.0863 2.08436 88.2959 1.82389C88.6154 1.42707 88.8804 0.974281 89.0295 0.485381C89.0488 0.447225 89.0636 0.399404 89.0249 0.370406C88.9771 0.351583 88.9461 0.361255 88.9079 0.380079C88.071 0.82828 87.2062 1.15336 86.2854 1.38382C86.2091 1.40265 86.1521 1.38382 86.1042 1.33549C86.0284 1.24951 85.9562 1.16812 85.8753 1.10147C85.4882 0.772318 85.073 0.51387 84.605 0.323092C83.9904 0.0727911 83.3189 -0.0335303 82.657 0.00920395C82.0124 0.0514295 81.3801 0.232542 80.8088 0.531173C80.2359 0.830313 79.7246 1.24697 79.3171 1.7491C78.8964 2.26903 78.5861 2.88207 78.4268 3.53275C78.2742 4.16053 78.2864 4.7812 78.38 5.4156C78.3943 5.52091 78.3846 5.53515 78.2895 5.52091C74.6881 4.9847 71.7028 3.69656 69.2791 0.934605C69.1738 0.814542 69.1169 0.814537 69.0309 0.943757C67.9701 2.53357 68.4845 5.08695 69.8092 6.34202C69.9863 6.5099 70.1674 6.67677 70.3633 6.82939C70.2915 6.84414 69.4104 6.74901 68.6244 6.34202C68.5196 6.27537 68.4662 6.31404 68.457 6.43308C68.4474 6.60504 68.4621 6.76326 68.4855 6.94946C68.689 8.56064 69.8052 10.0507 71.3334 10.6327C71.5146 10.7091 71.7155 10.7757 71.9109 10.8093C71.5629 10.8856 71.2042 10.94 70.2056 10.8617C70.0814 10.8383 70.0341 10.9003 70.0814 11.0199C70.8323 13.0645 72.4511 13.6735 73.6645 14.0199C73.8268 14.0484 73.9896 14.0484 74.1524 14.0866C74.1422 14.1013 74.1325 14.1013 74.1229 14.1156C73.7209 14.7286 72.326 15.185 71.6763 15.4119C70.495 15.825 69.2084 16.0107 67.96 15.8875C67.7606 15.858 67.7183 15.8606 67.6644 15.8875C67.6095 15.9216 67.6568 15.9694 67.7214 16.0213C67.9747 16.1887 68.2327 16.3368 68.4957 16.4802C69.2883 16.9004 70.115 17.2352 70.9799 17.4738C75.4441 18.7065 80.4725 17.8004 83.8246 14.4702C86.4568 11.8547 87.3797 8.24776 87.3797 4.63671C87.3797 4.49528 87.5465 4.41744 87.6452 4.34266C88.3305 3.82832 88.883 3.21224 89.3938 2.52493C89.5087 2.37027 89.5097 2.23291 89.5097 2.17644C89.5097 2.16677 89.5097 2.15762 89.5097 2.15762C89.5097 2.09962 89.5087 2.11743 89.4202 2.15762Z" fill="white"/>
<path fill-rule="evenodd" clip-rule="evenodd" d="M115.338 11.7417C115.323 11.7936 115.309 11.8368 115.298 11.8806C114.636 14.4706 114.563 15.046 113.884 16.2497C113.559 16.821 113.194 17.3628 112.791 17.8817C112.745 17.9402 112.703 18.0155 112.611 17.9972C112.512 17.9758 112.504 17.8863 112.493 17.8064C112.384 17.0194 112.325 16.2298 112.35 15.4357C112.385 14.4004 112.513 14.0453 113.847 8.43284C113.867 8.34737 113.845 8.27666 113.817 8.19882C113.497 7.33752 113.434 6.46299 113.713 5.57676C114.317 3.66236 116.487 3.51584 116.867 5.09549C117.1 6.07227 116.482 7.35023 116.007 9.2397C115.614 10.799 117.449 11.907 119.018 10.769C120.464 9.71996 121.026 7.20423 120.919 5.42159C120.709 1.86752 116.812 1.09932 114.338 2.24399C111.504 3.55451 110.859 7.06839 112.139 8.67398C112.301 8.87849 112.426 9.00314 112.373 9.21071C112.29 9.53172 112.218 9.85579 112.129 10.1758C112.063 10.4134 111.864 10.5004 111.623 10.4022C111.151 10.2114 110.758 9.91125 110.439 9.51544C109.352 8.16982 109.042 5.50706 110.478 3.25384C112.071 0.756423 115.033 -0.253431 117.736 0.0533407C120.966 0.420144 123.007 2.62707 123.389 5.13008C123.563 6.27069 123.438 9.0825 121.838 11.0702C119.995 13.3539 117.01 13.505 115.633 12.1034C115.527 11.9961 115.442 11.8699 115.338 11.7417Z" fill="white"/>
<path d="M158.849 7.28289C158.702 7.29686 158.554 7.30434 158.406 7.30534C156.785 7.30534 155.274 6.48832 154.386 5.1321V12.5312C154.386 15.5519 151.937 18 148.917 18C145.896 18 143.448 15.5519 143.448 12.5312C143.448 9.51101 145.896 7.06293 148.917 7.06293C149.031 7.06293 149.143 7.07291 149.255 7.07989V9.77487C149.143 9.7614 149.032 9.74095 148.917 9.74095C147.375 9.74095 146.126 10.9909 146.126 12.5317C146.126 14.0735 147.375 15.323 148.917 15.323C150.459 15.323 151.82 14.1084 151.82 12.5666L151.848 0H154.426C154.669 2.31191 156.533 4.11805 158.852 4.28764V7.28289" fill="white"/>
<path d="M183.932 14.8997L184.237 15.0813C185.355 15.7478 186.628 16.1003 187.917 16.1003C191.893 16.1003 195.127 12.8662 195.127 8.89036C195.127 4.91501 191.893 1.6804 187.917 1.6804C183.942 1.6804 180.707 4.91501 180.707 8.89036C180.707 10.2029 181.072 11.4957 181.762 12.6286L181.949 12.9354L181.228 15.6241L183.932 14.8997ZM178.852 18L180.142 13.1857C179.411 11.867 179.027 10.3902 179.027 8.89036C179.027 3.98858 183.015 0 187.917 0C192.819 0 196.808 3.98858 196.808 8.89036C196.808 13.7927 192.819 17.7812 187.917 17.7812C186.446 17.7812 184.992 17.4093 183.691 16.7042L178.852 18Z" fill="white"/>
<path fill-rule="evenodd" clip-rule="evenodd" d="M191.224 10.1271C190.858 9.90788 190.382 9.66368 189.951 9.8397C189.621 9.97554 189.409 10.4934 189.195 10.7575C189.085 10.8933 188.954 10.9142 188.785 10.8465C187.543 10.3515 186.592 9.52275 185.907 8.38112C185.791 8.20357 185.812 8.06367 185.951 7.89934C186.159 7.65565 186.418 7.37889 186.474 7.05024C186.53 6.7221 186.376 6.3385 186.24 6.04546C186.067 5.67204 185.873 5.13939 185.499 4.92775C185.155 4.73341 184.701 4.84227 184.395 5.09156C183.866 5.52298 183.611 6.19759 183.618 6.8671C183.621 7.05737 183.644 7.24713 183.689 7.43028C183.795 7.87136 183.999 8.28395 184.229 8.67518C184.402 8.97076 184.59 9.2577 184.793 9.53344C185.457 10.4355 186.283 11.2194 187.24 11.8055C187.718 12.098 188.232 12.355 188.765 12.531C189.363 12.7284 189.896 12.9339 190.541 12.8113C191.217 12.6831 191.884 12.2649 192.152 11.6137C192.231 11.4204 192.271 11.2057 192.227 11.0022C192.135 10.5809 191.565 10.3306 191.224 10.1271Z" fill="white"/>
<path d="M234.037 9.50354L227.566 12.705C227.312 12.8416 226.45 12.6578 226.45 12.3695V5.79853C226.45 5.50671 227.319 5.3229 227.573 5.46738L233.767 8.83693C234.027 8.98498 234.299 9.36121 234.037 9.50354ZM242.522 5.64262C242.522 2.52627 239.996 0 236.879 0H222.45C219.333 0 216.808 2.52627 216.808 5.64262V12.3574C216.808 15.4744 219.333 18 222.45 18H236.879C239.996 18 242.522 15.4744 242.522 12.3574V5.64262Z" fill="white"/>
</svg>
