<svg width="170" height="48" viewBox="0 0 170 48" fill="none" xmlns="http://www.w3.org/2000/svg">
<rect width="170" height="48" rx="5" fill="#212529"/>
<path d="M44.9371 18.8L39.9371 32H38.1171L33.0971 18.8H34.8171L38.1771 27.92L39.0171 30.54L39.8571 27.94L43.2171 18.8H44.9371ZM48.1659 20.08C47.8059 20.08 47.5125 19.9733 47.2859 19.76C47.0725 19.5333 46.9659 19.24 46.9659 18.88C46.9659 18.52 47.0725 18.2333 47.2859 18.02C47.5125 17.7933 47.8059 17.68 48.1659 17.68C48.5259 17.68 48.8125 17.7933 49.0259 18.02C49.2525 18.2333 49.3659 18.52 49.3659 18.88C49.3659 19.24 49.2525 19.5333 49.0259 19.76C48.8125 19.9733 48.5259 20.08 48.1659 20.08ZM48.9659 22V32H47.3659V22H48.9659ZM56.8584 32.2C55.9117 32.2 55.065 31.9933 54.3184 31.58C53.585 31.1667 53.0117 30.5733 52.5984 29.8C52.185 29.0133 51.9784 28.08 51.9784 27C51.9784 25.92 52.185 24.9933 52.5984 24.22C53.0117 23.4333 53.5784 22.8333 54.2984 22.42C55.0184 22.0067 55.8384 21.8 56.7584 21.8C57.6917 21.8 58.485 22 59.1384 22.4C59.805 22.8 60.3117 23.3467 60.6584 24.04C61.005 24.72 61.1784 25.4867 61.1784 26.34C61.1784 26.5667 61.1717 26.7733 61.1584 26.96C61.145 27.1467 61.125 27.3133 61.0984 27.46H53.0184V26.04H60.3984L59.5784 26.2C59.5784 25.24 59.3117 24.5 58.7784 23.98C58.2584 23.46 57.5717 23.2 56.7184 23.2C56.065 23.2 55.4984 23.3533 55.0184 23.66C54.5517 23.9533 54.185 24.3867 53.9184 24.96C53.665 25.52 53.5384 26.2 53.5384 27C53.5384 27.7867 53.6717 28.4667 53.9384 29.04C54.205 29.6133 54.5784 30.0533 55.0584 30.36C55.5517 30.6533 56.1384 30.8 56.8184 30.8C57.5517 30.8 58.145 30.66 58.5984 30.38C59.065 30.1 59.4384 29.72 59.7184 29.24L60.9784 29.98C60.725 30.4333 60.3984 30.8267 59.9984 31.16C59.6117 31.4933 59.1517 31.7533 58.6184 31.94C58.0984 32.1133 57.5117 32.2 56.8584 32.2ZM76.527 22H78.307L74.827 32H73.227L70.407 24.04L67.747 32H66.147L62.667 22H64.447L66.967 30.14L69.687 22H71.287L74.007 30.14L76.527 22ZM96.106 18.8V20.3H91.506V32H89.906V20.3H85.306V18.8H96.106ZM100.569 32.2C99.6226 32.2 98.776 31.9933 98.0293 31.58C97.296 31.1667 96.7226 30.5733 96.3093 29.8C95.896 29.0133 95.6893 28.08 95.6893 27C95.6893 25.92 95.896 24.9933 96.3093 24.22C96.7226 23.4333 97.2893 22.8333 98.0093 22.42C98.7293 22.0067 99.5493 21.8 100.469 21.8C101.403 21.8 102.196 22 102.849 22.4C103.516 22.8 104.023 23.3467 104.369 24.04C104.716 24.72 104.889 25.4867 104.889 26.34C104.889 26.5667 104.883 26.7733 104.869 26.96C104.856 27.1467 104.836 27.3133 104.809 27.46H96.7293V26.04H104.109L103.289 26.2C103.289 25.24 103.023 24.5 102.489 23.98C101.969 23.46 101.283 23.2 100.429 23.2C99.776 23.2 99.2093 23.3533 98.7293 23.66C98.2626 23.9533 97.896 24.3867 97.6293 24.96C97.376 25.52 97.2493 26.2 97.2493 27C97.2493 27.7867 97.3826 28.4667 97.6493 29.04C97.916 29.6133 98.2893 30.0533 98.7693 30.36C99.2626 30.6533 99.8493 30.8 100.529 30.8C101.263 30.8 101.856 30.66 102.309 30.38C102.776 30.1 103.149 29.72 103.429 29.24L104.689 29.98C104.436 30.4333 104.109 30.8267 103.709 31.16C103.323 31.4933 102.863 31.7533 102.329 31.94C101.809 32.1133 101.223 32.2 100.569 32.2ZM113.772 25.54C113.772 24.7933 113.572 24.22 113.172 23.82C112.772 23.4067 112.206 23.2 111.472 23.2C110.779 23.2 110.192 23.3533 109.712 23.66C109.232 23.9533 108.879 24.4333 108.652 25.1L107.352 24.3C107.619 23.5533 108.112 22.9533 108.832 22.5C109.552 22.0333 110.446 21.8 111.512 21.8C112.232 21.8 112.886 21.9267 113.472 22.18C114.059 22.42 114.519 22.7933 114.852 23.3C115.199 23.7933 115.372 24.4333 115.372 25.22V30.06C115.372 30.54 115.626 30.78 116.132 30.78C116.386 30.78 116.632 30.7467 116.872 30.68L116.792 31.94C116.526 32.0733 116.179 32.14 115.752 32.14C115.366 32.14 115.019 32.0667 114.712 31.92C114.406 31.7733 114.166 31.5533 113.992 31.26C113.819 30.9533 113.732 30.5733 113.732 30.12V29.92L114.132 29.98C113.972 30.5 113.699 30.9267 113.312 31.26C112.926 31.58 112.492 31.82 112.012 31.98C111.532 32.1267 111.059 32.2 110.592 32.2C110.006 32.2 109.459 32.1 108.952 31.9C108.446 31.7 108.039 31.4 107.732 31C107.439 30.5867 107.292 30.08 107.292 29.48C107.292 28.7333 107.539 28.12 108.032 27.64C108.539 27.1467 109.239 26.8133 110.132 26.64L114.092 25.86V27.18L110.872 27.84C110.219 27.9733 109.732 28.16 109.412 28.4C109.092 28.64 108.932 28.9733 108.932 29.4C108.932 29.8133 109.092 30.1533 109.412 30.42C109.746 30.6733 110.212 30.8 110.812 30.8C111.199 30.8 111.566 30.7533 111.912 30.66C112.272 30.5533 112.592 30.4 112.872 30.2C113.152 29.9867 113.372 29.7267 113.532 29.42C113.692 29.1 113.772 28.7267 113.772 28.3V25.54ZM119.26 32V22H120.66L120.76 23.56C121.12 22.9467 121.587 22.5 122.16 22.22C122.747 21.94 123.347 21.8 123.96 21.8C124.667 21.8 125.334 21.96 125.96 22.28C126.587 22.6 127.067 23.0933 127.4 23.76C127.614 23.3067 127.914 22.94 128.3 22.66C128.687 22.3667 129.107 22.1533 129.56 22.02C130.027 21.8733 130.467 21.8 130.88 21.8C131.52 21.8 132.127 21.9333 132.7 22.2C133.287 22.4667 133.767 22.88 134.14 23.44C134.514 24 134.7 24.72 134.7 25.6V32H133.1V25.76C133.1 24.8533 132.874 24.2 132.42 23.8C131.967 23.4 131.407 23.2 130.74 23.2C130.22 23.2 129.734 23.3267 129.28 23.58C128.827 23.8333 128.46 24.2067 128.18 24.7C127.914 25.1933 127.78 25.8 127.78 26.52V32H126.18V25.76C126.18 24.8533 125.954 24.2 125.5 23.8C125.047 23.4 124.487 23.2 123.82 23.2C123.38 23.2 122.927 23.32 122.46 23.56C122.007 23.7867 121.627 24.1533 121.32 24.66C121.014 25.1667 120.86 25.8333 120.86 26.66V32H119.26Z" fill="white"/>
</svg>
