<svg width="404" height="162" viewBox="0 0 404 162" fill="none" xmlns="http://www.w3.org/2000/svg">
<path d="M181.579 4.44V6.568H178.139V15H175.387V6.568H171.931V4.44H181.579ZM188.152 15V4.44H196.376V6.568H190.904V8.712H195.256V10.712H190.904V12.872H196.584V15H188.152ZM212.846 15H210.014L209.278 12.616H205.662L204.91 15H202.142L205.854 4.44H209.15L212.846 15ZM206.174 10.744H208.766L207.47 6.472L206.174 10.744ZM231.298 4.44V15H228.866V10.152L228.946 6.904H228.914L226.306 15H224.082L221.474 6.904H221.442L221.522 10.152V15H219.074V4.44H222.994L224.658 9.816L225.25 12.056H225.282L225.89 9.832L227.538 4.44H231.298Z" fill="#74C69D"/>
<path d="M104.266 69.5234C101.792 66.9193 100.555 63.8073 100.555 60.1875C100.555 58.3646 100.88 56.6589 101.531 55.0703C102.182 53.4557 103.081 52.0495 104.227 50.8516C105.398 49.6276 106.74 48.6771 108.25 48C109.76 47.2969 111.375 46.9453 113.094 46.9453C114.812 46.9453 116.427 47.2969 117.938 48C119.474 48.6771 120.815 49.6276 121.961 50.8516C123.107 52.0495 124.005 53.4557 124.656 55.0703C125.333 56.6589 125.672 58.3646 125.672 60.1875C125.672 63.8073 124.435 66.9193 121.961 69.5234C120.268 71.2943 118.367 72.4661 116.258 73.0391C114.148 73.638 112.039 73.638 109.93 73.0391C107.846 72.4661 105.958 71.2943 104.266 69.5234ZM113.719 71.2031C115.021 71.2031 116.102 70.7474 116.961 69.8359C117.846 68.9245 118.497 67.7005 118.914 66.1641C119.357 64.6016 119.578 62.8568 119.578 60.9297C119.578 59.4974 119.461 58.1302 119.227 56.8281C119.018 55.526 118.667 54.276 118.172 53.0781C117.677 51.8542 116.948 50.8906 115.984 50.1875C115.021 49.4844 113.862 49.1328 112.508 49.1328C111.128 49.1328 109.982 49.6276 109.07 50.6172C108.159 51.6328 107.521 52.8698 107.156 54.3281C106.818 55.7865 106.648 57.4531 106.648 59.3281C106.648 61.9844 107.156 64.5495 108.172 67.0234C108.693 68.2734 109.422 69.2891 110.359 70.0703C111.323 70.8255 112.443 71.2031 113.719 71.2031ZM141.922 73.1953C141.766 73.1953 141.688 72.9609 141.688 72.4922V71.0469C141.688 70.8385 141.635 70.7865 141.531 70.8906C140.984 71.4635 140.177 71.9844 139.109 72.4531C138.068 72.9219 136.935 73.1562 135.711 73.1562C134.695 73.1562 133.797 72.8438 133.016 72.2188C132.26 71.5938 131.674 70.7604 131.258 69.7188C130.841 68.651 130.633 67.4792 130.633 66.2031V62.4141C130.633 60.9557 130.398 59.9792 129.93 59.4844C129.721 59.224 129.435 59.0417 129.07 58.9375C128.732 58.8333 128.432 58.7682 128.172 58.7422C127.911 58.6901 127.781 58.638 127.781 58.5859C127.781 57.6745 127.846 57.2188 127.977 57.2188C128.211 57.2188 128.641 57.1667 129.266 57.0625C129.917 56.9583 130.62 56.8411 131.375 56.7109C132.13 56.5547 132.846 56.3984 133.523 56.2422C134.227 56.0599 134.76 55.9167 135.125 55.8125C135.203 55.7865 135.268 55.7604 135.32 55.7344C135.398 55.7083 135.477 55.6953 135.555 55.6953C135.685 55.6953 135.815 55.7865 135.945 55.9688C136.076 56.125 136.141 56.2552 136.141 56.3594C136.01 57.5052 135.906 58.4036 135.828 59.0547C135.75 59.7057 135.711 60.1094 135.711 60.2656V64.4453C135.711 66.4766 135.971 67.9089 136.492 68.7422C137.013 69.5495 137.885 69.9531 139.109 69.9531C139.995 69.9531 140.659 69.7578 141.102 69.3672C141.544 68.9505 141.766 68.4948 141.766 68V62.4141C141.766 60.9557 141.531 59.9792 141.062 59.4844C140.854 59.224 140.568 59.0417 140.203 58.9375C139.865 58.8333 139.565 58.7682 139.305 58.7422C139.044 58.6901 138.914 58.638 138.914 58.5859C138.914 57.6745 138.979 57.2188 139.109 57.2188C139.344 57.2188 139.773 57.1667 140.398 57.0625C141.049 56.9583 141.753 56.8411 142.508 56.7109C143.263 56.5547 143.979 56.3984 144.656 56.2422C145.359 56.0599 145.893 55.9167 146.258 55.8125L146.688 55.6953C146.818 55.6953 146.948 55.7865 147.078 55.9688C147.208 56.125 147.273 56.2552 147.273 56.3594C147.143 57.5052 147.039 58.4036 146.961 59.0547C146.883 59.7057 146.844 60.0964 146.844 60.2266V67.8828C146.844 69.263 146.974 70.0833 147.234 70.3438C147.365 70.474 147.573 70.5781 147.859 70.6562C148.146 70.7083 148.432 70.7344 148.719 70.7344H149.109C149.214 70.7604 149.266 70.8646 149.266 71.0469C149.266 71.8021 149.188 72.1797 149.031 72.1797C147.417 72.3359 146.062 72.4922 144.969 72.6484C143.901 72.8047 143.068 72.9479 142.469 73.0781L141.922 73.1953ZM151.453 73.1562C151.349 73.0521 151.297 72.7786 151.297 72.3359C151.297 71.9193 151.349 71.7109 151.453 71.7109C151.661 71.7109 151.961 71.6589 152.352 71.5547C152.742 71.4245 153.107 71.2812 153.445 71.125C153.784 70.9688 153.966 70.8385 153.992 70.7344C154.174 70.0052 154.266 69.0156 154.266 67.7656V62.4141C154.266 60.9557 154.031 59.9792 153.562 59.4844C153.354 59.224 153.068 59.0417 152.703 58.9375C152.365 58.8333 152.065 58.7682 151.805 58.7422C151.544 58.6901 151.414 58.638 151.414 58.5859C151.414 57.6745 151.479 57.2188 151.609 57.2188C152.286 57.2188 153.224 57.0755 154.422 56.7891C155.646 56.4766 156.935 56.1771 158.289 55.8906L159.188 55.6953C159.318 55.6953 159.448 55.7865 159.578 55.9688C159.708 56.125 159.773 56.2552 159.773 56.3594C159.747 56.5156 159.708 56.8281 159.656 57.2969C159.63 57.7656 159.604 58.026 159.578 58.0781C160.88 56.3854 162.352 55.5391 163.992 55.5391C165.164 55.5391 166.284 56.0208 167.352 56.9844C167.352 58.3385 167.182 59.3411 166.844 59.9922C166.531 60.6432 165.945 60.9688 165.086 60.9688C164.565 60.9688 163.966 60.6693 163.289 60.0703C162.612 59.4714 162.013 59.1719 161.492 59.1719C160.971 59.1719 160.555 59.3802 160.242 59.7969C159.93 60.1875 159.695 60.6953 159.539 61.3203C159.409 61.9453 159.344 62.5964 159.344 63.2734V67.2188C159.344 68.9115 159.435 70.0833 159.617 70.7344C159.669 70.8385 159.852 70.9688 160.164 71.125C160.477 71.2812 160.815 71.4245 161.18 71.5547C161.544 71.6589 161.792 71.7109 161.922 71.7109C161.974 71.7109 162.013 71.8151 162.039 72.0234C162.065 72.2318 162.078 72.4531 162.078 72.6875C162.078 72.9219 162.052 73.0781 162 73.1562C161.792 73.1302 161.349 73.0911 160.672 73.0391C159.995 73.013 159.279 72.974 158.523 72.9219C157.794 72.8698 157.221 72.8438 156.805 72.8438C156.492 72.8438 156.062 72.8568 155.516 72.8828C154.995 72.9089 154.448 72.9479 153.875 73C153.302 73.026 152.794 73.0521 152.352 73.0781C151.909 73.1302 151.609 73.1562 151.453 73.1562ZM183.914 73.1562C183.81 73.0521 183.758 72.8438 183.758 72.5312C183.758 71.9844 183.797 71.7109 183.875 71.7109C184.083 71.7109 184.383 71.6589 184.773 71.5547C185.164 71.4505 185.529 71.3203 185.867 71.1641C186.206 71.0078 186.401 70.8646 186.453 70.7344C186.557 70.3698 186.622 69.9401 186.648 69.4453C186.701 68.9505 186.727 68.3776 186.727 67.7266V53.5859C186.727 51.5547 186.622 50.3568 186.414 49.9922L186.219 49.6406C186.115 49.5365 185.776 49.4583 185.203 49.4062C184.63 49.3281 183.966 49.2891 183.211 49.2891C182.143 49.2891 181.271 49.5885 180.594 50.1875C179.917 50.7604 179.396 51.737 179.031 53.1172C178.979 53.2474 178.849 53.3125 178.641 53.3125C178.068 53.3125 177.69 53.2214 177.508 53.0391L178.25 46.6719C178.823 46.8021 179.331 46.9062 179.773 46.9844C180.216 47.0625 180.607 47.1016 180.945 47.1016C182.273 47.1016 183.693 47.1406 185.203 47.2188C186.74 47.2969 188.172 47.3359 189.5 47.3359C190.828 47.3359 192.26 47.2969 193.797 47.2188C195.333 47.1406 196.766 47.1016 198.094 47.1016C198.432 47.1016 198.823 47.0625 199.266 46.9844C199.708 46.9062 200.216 46.8021 200.789 46.6719L201.531 53.0781C201.349 53.2604 200.971 53.3516 200.398 53.3516C200.19 53.3516 200.06 53.2865 200.008 53.1562C199.357 50.5781 197.964 49.2891 195.828 49.2891C193.745 49.2891 192.638 49.5234 192.508 49.9922C192.404 50.3568 192.326 50.8255 192.273 51.3984C192.221 51.9714 192.195 52.6615 192.195 53.4688V67.5703C192.195 68.2214 192.221 68.8073 192.273 69.3281C192.326 69.849 192.404 70.3177 192.508 70.7344C192.56 70.8385 192.742 70.9688 193.055 71.125C193.393 71.2812 193.745 71.4245 194.109 71.5547C194.5 71.6589 194.773 71.7109 194.93 71.7109C195.034 71.7109 195.086 71.9583 195.086 72.4531C195.086 72.7135 195.06 72.9479 195.008 73.1562C194.904 73.1562 194.656 73.1432 194.266 73.1172C193.875 73.0911 193.341 73.0521 192.664 73C191.987 72.9479 191.388 72.9089 190.867 72.8828C190.346 72.8568 189.917 72.8438 189.578 72.8438C189.109 72.8438 188.471 72.8698 187.664 72.9219C186.857 72.974 186.089 73.013 185.359 73.0391C184.656 73.0911 184.174 73.1302 183.914 73.1562ZM207.156 73.2734C205.724 73.2734 204.578 72.8828 203.719 72.1016C202.885 71.2943 202.469 70.2917 202.469 69.0938C202.469 68.0781 202.781 67.1927 203.406 66.4375C204.057 65.6823 204.865 65.0833 205.828 64.6406C206.193 64.4844 206.531 64.3542 206.844 64.25C207.156 64.1198 207.443 64.0026 207.703 63.8984C208.693 63.5859 209.487 63.3646 210.086 63.2344C210.685 63.0781 211.128 62.9479 211.414 62.8438C211.648 62.7656 211.766 62.5703 211.766 62.2578V60.8516C211.766 58.7161 211.115 57.6484 209.812 57.6484C208.302 57.6484 207.547 58.5208 207.547 60.2656C207.547 60.8385 207.312 61.2682 206.844 61.5547C206.375 61.8151 205.854 61.9453 205.281 61.9453C204.083 61.9453 203.263 61.5547 202.82 60.7734C202.82 60.0964 203.055 59.4453 203.523 58.8203C204.018 58.1953 204.656 57.6354 205.438 57.1406C206.245 56.6198 207.143 56.2161 208.133 55.9297C209.148 55.6172 210.164 55.4609 211.18 55.4609C213.003 55.4609 214.396 55.9688 215.359 56.9844C216.349 57.974 216.844 59.7839 216.844 62.4141V68.7422C216.844 69.6276 217.156 70.0703 217.781 70.0703C218.25 70.0703 218.693 69.901 219.109 69.5625C219.292 69.6667 219.383 69.862 219.383 70.1484C219.383 70.8255 219.292 71.3073 219.109 71.5938C218.745 71.9323 218.146 72.2969 217.312 72.6875C216.505 73.0521 215.737 73.2344 215.008 73.2344C214.383 73.2344 213.784 73.0521 213.211 72.6875C212.638 72.2969 212.26 71.8542 212.078 71.3594C212.052 71.3594 211.909 71.4505 211.648 71.6328C211.388 71.8151 211.193 71.9583 211.062 72.0625C210.542 72.401 209.943 72.6875 209.266 72.9219C208.589 73.1562 207.885 73.2734 207.156 73.2734ZM209.617 70.4609C210.294 70.4609 210.815 70.3047 211.18 69.9922C211.57 69.6536 211.766 69.25 211.766 68.7812V64.8359L209.734 65.5391C209.188 65.7214 208.68 65.9948 208.211 66.3594C207.768 66.724 207.547 67.2057 207.547 67.8047C207.547 68.7422 207.742 69.4193 208.133 69.8359C208.549 70.2526 209.044 70.4609 209.617 70.4609ZM221.531 73.1562C221.427 73.0521 221.375 72.7786 221.375 72.3359C221.375 71.9193 221.427 71.7109 221.531 71.7109C221.74 71.7109 222.039 71.6589 222.43 71.5547C222.82 71.4245 223.185 71.2812 223.523 71.125C223.862 70.9688 224.044 70.8385 224.07 70.7344C224.253 70.0052 224.344 69.0156 224.344 67.7656V52.2578C224.344 51.6589 224.318 51.125 224.266 50.6562C224.24 50.1875 224.201 49.7839 224.148 49.4453C224.044 49.0286 223.367 48.8203 222.117 48.8203H221.766C221.609 48.8203 221.531 48.5599 221.531 48.0391C221.531 47.5964 221.609 47.375 221.766 47.375C223.276 47.2448 224.695 47.0234 226.023 46.7109C227.378 46.3984 228.341 46.151 228.914 45.9688L229.305 45.8516H229.383C229.487 45.8516 229.591 45.9297 229.695 46.0859C229.799 46.2422 229.865 46.3854 229.891 46.5156C229.604 47.7396 229.461 49.0547 229.461 50.4609L229.422 67.1797C229.422 68.8984 229.513 70.0833 229.695 70.7344C229.747 70.8385 229.943 70.9688 230.281 71.125C230.62 71.2812 230.971 71.4245 231.336 71.5547C231.727 71.6589 232 71.7109 232.156 71.7109C232.208 71.7109 232.247 71.8151 232.273 72.0234C232.299 72.2318 232.312 72.4531 232.312 72.6875C232.312 72.9219 232.286 73.0781 232.234 73.1562C232.078 73.1562 231.779 73.1302 231.336 73.0781C230.893 73.0521 230.372 73.026 229.773 73C229.201 72.9479 228.654 72.9089 228.133 72.8828C227.612 72.8568 227.195 72.8438 226.883 72.8438C226.57 72.8438 226.141 72.8568 225.594 72.8828C225.073 72.9089 224.526 72.9479 223.953 73C223.38 73.026 222.872 73.0521 222.43 73.0781C221.987 73.1302 221.688 73.1562 221.531 73.1562ZM242.781 73.2734C241.193 73.2734 239.721 72.8698 238.367 72.0625C237.039 71.2552 235.971 70.1745 235.164 68.8203C234.383 67.4661 233.992 65.9818 233.992 64.3672C233.992 62.7005 234.344 61.2031 235.047 59.875C235.776 58.5469 236.779 57.4922 238.055 56.7109C239.331 55.9297 240.802 55.5391 242.469 55.5391C244.109 55.5391 245.503 55.9297 246.648 56.7109C247.82 57.4661 248.706 58.4167 249.305 59.5625C249.93 60.6823 250.242 61.8151 250.242 62.9609C250.242 63.5599 250.112 63.9505 249.852 64.1328C249.617 64.3151 249.135 64.4062 248.406 64.4062H239.578C239.422 64.4062 239.344 64.4974 239.344 64.6797C239.344 65.6172 239.513 66.5026 239.852 67.3359C240.216 68.1693 240.737 68.8464 241.414 69.3672C242.117 69.888 242.964 70.1484 243.953 70.1484C244.839 70.1484 245.659 70.0182 246.414 69.7578C246.935 69.6016 247.339 69.4583 247.625 69.3281C247.911 69.1979 248.172 69.0547 248.406 68.8984C248.667 68.7161 248.966 68.4948 249.305 68.2344C249.539 68.3385 249.656 68.5859 249.656 68.9766C249.656 69.3151 249.604 69.5755 249.5 69.7578C249.344 70.1745 248.927 70.6562 248.25 71.2031C247.599 71.75 246.792 72.2318 245.828 72.6484C244.891 73.0651 243.875 73.2734 242.781 73.2734ZM239.617 62.2578H244.578C244.943 62.2578 245.125 62.0104 245.125 61.5156C245.125 60.526 244.852 59.6406 244.305 58.8594C243.784 58.0781 243.107 57.6875 242.273 57.6875C241.518 57.6875 240.919 57.9609 240.477 58.5078C240.06 59.0286 239.76 59.6146 239.578 60.2656C239.422 60.9167 239.344 61.4505 239.344 61.8672C239.344 62.1276 239.435 62.2578 239.617 62.2578ZM252.352 73.1562C252.247 73.0521 252.195 72.7786 252.195 72.3359C252.195 71.9193 252.247 71.7109 252.352 71.7109C252.56 71.7109 252.846 71.6589 253.211 71.5547C253.602 71.4245 253.966 71.2812 254.305 71.125C254.669 70.9688 254.865 70.8385 254.891 70.7344C255.073 70.0052 255.164 69.0156 255.164 67.7656V62.4141C255.164 60.9557 254.93 59.9792 254.461 59.4844C254.253 59.224 253.966 59.0417 253.602 58.9375C253.263 58.8333 252.964 58.7682 252.703 58.7422C252.443 58.6901 252.312 58.638 252.312 58.5859C252.312 57.6745 252.378 57.2188 252.508 57.2188C253.185 57.2188 254.148 57.0755 255.398 56.7891C256.648 56.4766 258.068 56.151 259.656 55.8125L259.852 55.7734C259.878 55.7474 259.93 55.7344 260.008 55.7344L260.086 55.6953C260.216 55.6953 260.346 55.7865 260.477 55.9688C260.633 56.125 260.698 56.2552 260.672 56.3594L260.516 57.5703C260.516 57.7005 260.529 57.7786 260.555 57.8047C260.607 57.8047 260.698 57.7396 260.828 57.6094C262.26 56.2552 264.07 55.5781 266.258 55.5781C267.768 55.5781 268.992 56.2161 269.93 57.4922C270.893 58.7682 271.375 60.7083 271.375 63.3125V67.1797C271.375 68.8984 271.466 70.0833 271.648 70.7344C271.701 70.8385 271.896 70.9688 272.234 71.125C272.573 71.2812 272.924 71.4245 273.289 71.5547C273.68 71.6589 273.953 71.7109 274.109 71.7109C274.161 71.7109 274.201 71.8151 274.227 72.0234C274.253 72.2318 274.266 72.4531 274.266 72.6875C274.266 72.9219 274.24 73.0781 274.188 73.1562C274.031 73.1562 273.732 73.1302 273.289 73.0781C272.846 73.0521 272.326 73.026 271.727 73C271.154 72.9479 270.607 72.9089 270.086 72.8828C269.565 72.8568 269.148 72.8438 268.836 72.8438C268.419 72.8438 267.833 72.8698 267.078 72.9219C266.349 72.974 265.646 73.013 264.969 73.0391C264.292 73.0911 263.849 73.1302 263.641 73.1562C263.536 73.0521 263.484 72.7786 263.484 72.3359C263.484 71.9193 263.536 71.7109 263.641 71.7109C263.849 71.7109 264.122 71.6589 264.461 71.5547C264.826 71.4245 265.164 71.2812 265.477 71.125C265.815 70.9688 265.997 70.8385 266.023 70.7344C266.206 70.0052 266.297 69.0156 266.297 67.7656V64.25C266.297 62.3229 266.023 60.9557 265.477 60.1484C264.956 59.3151 264.109 58.8984 262.938 58.8984C262.13 58.8984 261.479 59.0547 260.984 59.3672C260.49 59.6536 260.242 60.0703 260.242 60.6172V67.1797C260.242 68.8984 260.333 70.0833 260.516 70.7344C260.568 70.8385 260.75 70.9688 261.062 71.125C261.375 71.2812 261.714 71.4245 262.078 71.5547C262.443 71.6589 262.69 71.7109 262.82 71.7109C262.872 71.7109 262.911 71.8151 262.938 72.0234C262.964 72.2318 262.977 72.4531 262.977 72.6875C262.977 72.9219 262.951 73.0781 262.898 73.1562C262.69 73.1302 262.247 73.0911 261.57 73.0391C260.893 73.013 260.177 72.974 259.422 72.9219C258.693 72.8698 258.12 72.8438 257.703 72.8438C257.391 72.8438 256.961 72.8568 256.414 72.8828C255.893 72.9089 255.346 72.9479 254.773 73C254.201 73.026 253.693 73.0521 253.25 73.0781C252.807 73.1302 252.508 73.1562 252.352 73.1562ZM283.719 73.2734C282.286 73.2734 281.049 72.8307 280.008 71.9453C278.992 71.0339 278.484 69.5755 278.484 67.5703V58.5469H275.945C275.737 58.5469 275.633 58.1432 275.633 57.3359C275.633 57.1536 275.659 57.0104 275.711 56.9062C276.44 56.5417 277.091 56.1901 277.664 55.8516C278.263 55.487 278.784 55.1354 279.227 54.7969C280.372 53.8854 281.206 53.1953 281.727 52.7266C282.247 52.2578 282.521 52.0104 282.547 51.9844C282.755 51.9844 282.977 52.0365 283.211 52.1406C283.445 52.2188 283.562 52.3099 283.562 52.4141V56.2422H287.781C287.99 56.2422 288.094 56.3724 288.094 56.6328C288.094 57.4141 287.964 58.0521 287.703 58.5469H283.562V67.8047C283.562 69.7839 284.266 70.7734 285.672 70.7734C286.401 70.7734 286.909 70.6823 287.195 70.5C287.508 70.2917 287.716 70.1875 287.82 70.1875C287.924 70.1875 288.029 70.3177 288.133 70.5781C288.263 70.8385 288.328 71.0339 288.328 71.1641C288.328 71.3724 288.068 71.6458 287.547 71.9844C287.052 72.3229 286.44 72.6224 285.711 72.8828C285.008 73.1432 284.344 73.2734 283.719 73.2734ZM296.453 73.3906C295.854 73.3906 295.19 73.3255 294.461 73.1953C293.732 73.0651 293.055 72.8828 292.43 72.6484C291.805 72.4141 291.323 72.1667 290.984 71.9062C290.672 70.1094 290.516 68.5208 290.516 67.1406C290.646 67.0625 290.841 67.0234 291.102 67.0234C291.935 67.0234 292.365 67.1406 292.391 67.375C292.833 69.9531 294.24 71.2422 296.609 71.2422C297.234 71.2422 297.755 71.099 298.172 70.8125C298.589 70.526 298.797 70.0964 298.797 69.5234C298.797 68.9766 298.576 68.5078 298.133 68.1172C297.69 67.7266 297.169 67.375 296.57 67.0625C295.971 66.75 295.424 66.4635 294.93 66.2031C293.419 65.474 292.299 64.6797 291.57 63.8203C290.841 62.9349 290.477 61.8542 290.477 60.5781C290.477 59.3802 290.789 58.4167 291.414 57.6875C292.039 56.9323 292.872 56.3724 293.914 56.0078C294.956 55.6432 296.076 55.4609 297.273 55.4609C299.539 55.4609 301.232 55.7214 302.352 56.2422C302.612 57.388 302.742 59.0026 302.742 61.0859C302.742 61.3203 302.573 61.4375 302.234 61.4375C301.427 61.4375 300.997 61.3333 300.945 61.125C300.711 60.0312 300.307 59.1719 299.734 58.5469C299.188 57.9219 298.302 57.6094 297.078 57.6094C296.505 57.6094 296.036 57.7526 295.672 58.0391C295.307 58.2995 295.125 58.6901 295.125 59.2109C295.125 59.8099 295.385 60.3307 295.906 60.7734C296.427 61.1901 297.195 61.6458 298.211 62.1406C299.07 62.5312 299.904 62.987 300.711 63.5078C301.518 64.0026 302.169 64.6276 302.664 65.3828C303.185 66.112 303.445 67.0365 303.445 68.1562C303.445 69.875 302.781 71.1771 301.453 72.0625C300.151 72.9479 298.484 73.3906 296.453 73.3906Z" fill="#212529"/>
<path d="M4.12914 119.5H11.6891V121H2.52914V107.8H4.12914V119.5ZM18.0293 110.8C18.976 110.8 19.8093 111.007 20.5293 111.42C21.2626 111.833 21.836 112.433 22.2493 113.22C22.6626 113.993 22.8693 114.92 22.8693 116C22.8693 117.08 22.6626 118.013 22.2493 118.8C21.836 119.573 21.2626 120.167 20.5293 120.58C19.8093 120.993 18.976 121.2 18.0293 121.2C17.096 121.2 16.2626 120.993 15.5293 120.58C14.796 120.167 14.2226 119.573 13.8093 118.8C13.396 118.013 13.1893 117.08 13.1893 116C13.1893 114.92 13.396 113.993 13.8093 113.22C14.2226 112.433 14.796 111.833 15.5293 111.42C16.2626 111.007 17.096 110.8 18.0293 110.8ZM18.0293 112.18C17.3493 112.18 16.7693 112.333 16.2893 112.64C15.8093 112.947 15.436 113.387 15.1693 113.96C14.916 114.52 14.7893 115.2 14.7893 116C14.7893 116.787 14.916 117.467 15.1693 118.04C15.436 118.613 15.8093 119.053 16.2893 119.36C16.7693 119.667 17.3493 119.82 18.0293 119.82C18.7093 119.82 19.2893 119.667 19.7693 119.36C20.2493 119.053 20.616 118.613 20.8693 118.04C21.136 117.467 21.2693 116.787 21.2693 116C21.2693 115.2 21.136 114.52 20.8693 113.96C20.616 113.387 20.2493 112.947 19.7693 112.64C19.2893 112.333 18.7093 112.18 18.0293 112.18ZM25.8815 121V111H27.1815L27.4015 112.64C27.6815 112.027 28.0882 111.567 28.6215 111.26C29.1682 110.953 29.8282 110.8 30.6015 110.8C30.7748 110.8 30.9615 110.813 31.1615 110.84C31.3748 110.867 31.5548 110.92 31.7015 111L31.4215 112.46C31.2748 112.407 31.1148 112.367 30.9415 112.34C30.7682 112.313 30.5215 112.3 30.2015 112.3C29.7882 112.3 29.3682 112.42 28.9415 112.66C28.5282 112.9 28.1815 113.267 27.9015 113.76C27.6215 114.24 27.4815 114.853 27.4815 115.6V121H25.8815ZM37.913 121.2C36.9664 121.2 36.1197 120.993 35.373 120.58C34.6397 120.167 34.0664 119.573 33.653 118.8C33.2397 118.013 33.033 117.08 33.033 116C33.033 114.92 33.2397 113.993 33.653 113.22C34.0664 112.433 34.633 111.833 35.353 111.42C36.073 111.007 36.893 110.8 37.813 110.8C38.7464 110.8 39.5397 111 40.193 111.4C40.8597 111.8 41.3664 112.347 41.713 113.04C42.0597 113.72 42.233 114.487 42.233 115.34C42.233 115.567 42.2264 115.773 42.213 115.96C42.1997 116.147 42.1797 116.313 42.153 116.46H34.073V115.04H41.453L40.633 115.2C40.633 114.24 40.3664 113.5 39.833 112.98C39.313 112.46 38.6264 112.2 37.773 112.2C37.1197 112.2 36.553 112.353 36.073 112.66C35.6064 112.953 35.2397 113.387 34.973 113.96C34.7197 114.52 34.593 115.2 34.593 116C34.593 116.787 34.7264 117.467 34.993 118.04C35.2597 118.613 35.633 119.053 36.113 119.36C36.6064 119.653 37.193 119.8 37.873 119.8C38.6064 119.8 39.1997 119.66 39.653 119.38C40.1197 119.1 40.493 118.72 40.773 118.24L42.033 118.98C41.7797 119.433 41.453 119.827 41.053 120.16C40.6664 120.493 40.2064 120.753 39.673 120.94C39.153 121.113 38.5664 121.2 37.913 121.2ZM45.276 121V111H46.676L46.776 112.56C47.136 111.947 47.6027 111.5 48.176 111.22C48.7627 110.94 49.3627 110.8 49.976 110.8C50.6827 110.8 51.3493 110.96 51.976 111.28C52.6027 111.6 53.0827 112.093 53.416 112.76C53.6293 112.307 53.9293 111.94 54.316 111.66C54.7027 111.367 55.1227 111.153 55.576 111.02C56.0427 110.873 56.4827 110.8 56.896 110.8C57.536 110.8 58.1427 110.933 58.716 111.2C59.3027 111.467 59.7827 111.88 60.156 112.44C60.5293 113 60.716 113.72 60.716 114.6V121H59.116V114.76C59.116 113.853 58.8893 113.2 58.436 112.8C57.9827 112.4 57.4227 112.2 56.756 112.2C56.236 112.2 55.7493 112.327 55.296 112.58C54.8427 112.833 54.476 113.207 54.196 113.7C53.9293 114.193 53.796 114.8 53.796 115.52V121H52.196V114.76C52.196 113.853 51.9693 113.2 51.516 112.8C51.0627 112.4 50.5027 112.2 49.836 112.2C49.396 112.2 48.9427 112.32 48.476 112.56C48.0227 112.787 47.6427 113.153 47.336 113.66C47.0293 114.167 46.876 114.833 46.876 115.66V121H45.276ZM71.9549 109.08C71.5949 109.08 71.3016 108.973 71.0749 108.76C70.8616 108.533 70.7549 108.24 70.7549 107.88C70.7549 107.52 70.8616 107.233 71.0749 107.02C71.3016 106.793 71.5949 106.68 71.9549 106.68C72.3149 106.68 72.6016 106.793 72.8149 107.02C73.0416 107.233 73.1549 107.52 73.1549 107.88C73.1549 108.24 73.0416 108.533 72.8149 108.76C72.6016 108.973 72.3149 109.08 71.9549 109.08ZM72.7549 111V121H71.1549V111H72.7549ZM76.4674 125.2V111H77.8674L78.0074 113.44L77.7874 113.16C77.9608 112.693 78.2208 112.287 78.5674 111.94C78.9141 111.58 79.3341 111.3 79.8274 111.1C80.3208 110.9 80.8541 110.8 81.4274 110.8C82.2408 110.8 82.9874 111.007 83.6674 111.42C84.3608 111.833 84.9141 112.427 85.3274 113.2C85.7408 113.973 85.9474 114.907 85.9474 116C85.9474 117.08 85.7341 118.013 85.3074 118.8C84.8941 119.573 84.3408 120.167 83.6474 120.58C82.9541 120.993 82.1941 121.2 81.3674 121.2C80.5408 121.2 79.8141 121 79.1874 120.6C78.5741 120.187 78.1341 119.667 77.8674 119.04L78.0674 118.74V125.2H76.4674ZM81.2074 119.8C82.1941 119.8 82.9608 119.453 83.5074 118.76C84.0674 118.067 84.3474 117.147 84.3474 116C84.3474 114.853 84.0741 113.933 83.5274 113.24C82.9941 112.547 82.2408 112.2 81.2674 112.2C80.6274 112.2 80.0674 112.36 79.5874 112.68C79.1074 112.987 78.7341 113.427 78.4674 114C78.2008 114.56 78.0674 115.227 78.0674 116C78.0674 116.76 78.1941 117.427 78.4474 118C78.7141 118.573 79.0808 119.02 79.5474 119.34C80.0274 119.647 80.5808 119.8 81.2074 119.8ZM92.6065 121.2C91.6332 121.2 90.7332 120.993 89.9065 120.58C89.0932 120.167 88.4665 119.58 88.0265 118.82L89.3865 117.84C89.6798 118.453 90.1065 118.933 90.6665 119.28C91.2398 119.627 91.9265 119.8 92.7265 119.8C93.4332 119.8 93.9865 119.667 94.3865 119.4C94.7865 119.12 94.9865 118.76 94.9865 118.32C94.9865 118.04 94.8932 117.787 94.7065 117.56C94.5332 117.32 94.1932 117.147 93.6865 117.04L91.2865 116.54C90.3132 116.34 89.6132 116.007 89.1865 115.54C88.7732 115.073 88.5665 114.493 88.5665 113.8C88.5665 113.253 88.7198 112.753 89.0265 112.3C89.3465 111.847 89.7932 111.487 90.3665 111.22C90.9532 110.94 91.6398 110.8 92.4265 110.8C93.4132 110.8 94.2465 110.993 94.9265 111.38C95.6065 111.767 96.1132 112.313 96.4465 113.02L95.1065 113.9C94.8798 113.313 94.5132 112.887 94.0065 112.62C93.4998 112.34 92.9732 112.2 92.4265 112.2C91.9465 112.2 91.5332 112.267 91.1865 112.4C90.8532 112.533 90.5932 112.72 90.4065 112.96C90.2332 113.187 90.1465 113.447 90.1465 113.74C90.1465 114.033 90.2465 114.307 90.4465 114.56C90.6465 114.8 91.0198 114.973 91.5665 115.08L94.0665 115.6C94.9998 115.787 95.6532 116.093 96.0265 116.52C96.3998 116.947 96.5865 117.467 96.5865 118.08C96.5865 118.707 96.4198 119.26 96.0865 119.74C95.7532 120.207 95.2865 120.567 94.6865 120.82C94.0865 121.073 93.3932 121.2 92.6065 121.2ZM103.173 121.2C102.533 121.2 101.927 121.08 101.353 120.84C100.793 120.6 100.333 120.213 99.9734 119.68C99.6267 119.133 99.4534 118.427 99.4534 117.56V111H101.053V117.14C101.053 118.153 101.273 118.853 101.713 119.24C102.153 119.613 102.773 119.8 103.573 119.8C103.947 119.8 104.313 119.74 104.673 119.62C105.033 119.487 105.353 119.287 105.633 119.02C105.927 118.74 106.153 118.387 106.313 117.96C106.487 117.533 106.573 117.027 106.573 116.44V111H108.173V121H106.773L106.673 119.48C106.327 120.08 105.853 120.52 105.253 120.8C104.667 121.067 103.973 121.2 103.173 121.2ZM111.897 121V111H113.297L113.397 112.56C113.757 111.947 114.224 111.5 114.797 111.22C115.384 110.94 115.984 110.8 116.597 110.8C117.304 110.8 117.97 110.96 118.597 111.28C119.224 111.6 119.704 112.093 120.037 112.76C120.25 112.307 120.55 111.94 120.937 111.66C121.324 111.367 121.744 111.153 122.197 111.02C122.664 110.873 123.104 110.8 123.517 110.8C124.157 110.8 124.764 110.933 125.337 111.2C125.924 111.467 126.404 111.88 126.777 112.44C127.15 113 127.337 113.72 127.337 114.6V121H125.737V114.76C125.737 113.853 125.51 113.2 125.057 112.8C124.604 112.4 124.044 112.2 123.377 112.2C122.857 112.2 122.37 112.327 121.917 112.58C121.464 112.833 121.097 113.207 120.817 113.7C120.55 114.193 120.417 114.8 120.417 115.52V121H118.817V114.76C118.817 113.853 118.59 113.2 118.137 112.8C117.684 112.4 117.124 112.2 116.457 112.2C116.017 112.2 115.564 112.32 115.097 112.56C114.644 112.787 114.264 113.153 113.957 113.66C113.65 114.167 113.497 114.833 113.497 115.66V121H111.897ZM131.76 118.6C132.08 118.6 132.346 118.687 132.56 118.86C132.786 119.02 132.96 119.247 133.08 119.54C133.2 119.82 133.26 120.153 133.26 120.54C133.26 120.98 133.18 121.413 133.02 121.84C132.873 122.267 132.64 122.66 132.32 123.02C132 123.38 131.586 123.68 131.08 123.92L130.24 123.14C130.6 123.02 130.913 122.853 131.18 122.64C131.46 122.427 131.686 122.187 131.86 121.92C132.033 121.653 132.146 121.38 132.2 121.1L132.12 121.06C132.066 121.1 132 121.133 131.92 121.16C131.84 121.187 131.72 121.2 131.56 121.2C131.4 121.2 131.233 121.153 131.06 121.06C130.9 120.967 130.76 120.833 130.64 120.66C130.52 120.473 130.46 120.233 130.46 119.94C130.46 119.7 130.52 119.48 130.64 119.28C130.76 119.067 130.913 118.9 131.1 118.78C131.3 118.66 131.52 118.6 131.76 118.6ZM146.989 121.2C146.162 121.2 145.402 120.993 144.709 120.58C144.015 120.167 143.462 119.573 143.049 118.8C142.635 118.013 142.429 117.08 142.429 116C142.429 114.893 142.649 113.953 143.089 113.18C143.529 112.407 144.109 111.82 144.829 111.42C145.549 111.007 146.322 110.8 147.149 110.8C147.975 110.8 148.689 111.013 149.289 111.44C149.902 111.867 150.309 112.433 150.509 113.14L150.309 113.28V106.4H151.909V121H150.509L150.369 118.58L150.589 118.46C150.495 119.047 150.269 119.547 149.909 119.96C149.562 120.36 149.129 120.667 148.609 120.88C148.102 121.093 147.562 121.2 146.989 121.2ZM147.149 119.8C147.789 119.8 148.342 119.64 148.809 119.32C149.289 119 149.655 118.547 149.909 117.96C150.175 117.36 150.309 116.66 150.309 115.86C150.309 115.1 150.175 114.447 149.909 113.9C149.655 113.353 149.295 112.933 148.829 112.64C148.375 112.347 147.842 112.2 147.229 112.2C146.215 112.2 145.429 112.547 144.869 113.24C144.309 113.933 144.029 114.853 144.029 116C144.029 117.147 144.302 118.067 144.849 118.76C145.395 119.453 146.162 119.8 147.149 119.8ZM159.768 110.8C160.714 110.8 161.548 111.007 162.268 111.42C163.001 111.833 163.574 112.433 163.988 113.22C164.401 113.993 164.608 114.92 164.608 116C164.608 117.08 164.401 118.013 163.988 118.8C163.574 119.573 163.001 120.167 162.268 120.58C161.548 120.993 160.714 121.2 159.768 121.2C158.834 121.2 158.001 120.993 157.268 120.58C156.534 120.167 155.961 119.573 155.548 118.8C155.134 118.013 154.928 117.08 154.928 116C154.928 114.92 155.134 113.993 155.548 113.22C155.961 112.433 156.534 111.833 157.268 111.42C158.001 111.007 158.834 110.8 159.768 110.8ZM159.768 112.18C159.088 112.18 158.508 112.333 158.028 112.64C157.548 112.947 157.174 113.387 156.908 113.96C156.654 114.52 156.528 115.2 156.528 116C156.528 116.787 156.654 117.467 156.908 118.04C157.174 118.613 157.548 119.053 158.028 119.36C158.508 119.667 159.088 119.82 159.768 119.82C160.448 119.82 161.028 119.667 161.508 119.36C161.988 119.053 162.354 118.613 162.608 118.04C162.874 117.467 163.008 116.787 163.008 116C163.008 115.2 162.874 114.52 162.608 113.96C162.354 113.387 161.988 112.947 161.508 112.64C161.028 112.333 160.448 112.18 159.768 112.18ZM169.14 106.4V118.46C169.14 118.967 169.233 119.32 169.42 119.52C169.606 119.707 169.906 119.8 170.32 119.8C170.586 119.8 170.806 119.78 170.98 119.74C171.153 119.7 171.386 119.627 171.68 119.52L171.42 120.92C171.206 121.013 170.973 121.08 170.72 121.12C170.466 121.173 170.206 121.2 169.94 121.2C169.126 121.2 168.52 120.98 168.12 120.54C167.733 120.1 167.54 119.427 167.54 118.52V106.4H169.14ZM177.873 110.8C178.82 110.8 179.653 111.007 180.373 111.42C181.106 111.833 181.68 112.433 182.093 113.22C182.506 113.993 182.713 114.92 182.713 116C182.713 117.08 182.506 118.013 182.093 118.8C181.68 119.573 181.106 120.167 180.373 120.58C179.653 120.993 178.82 121.2 177.873 121.2C176.94 121.2 176.106 120.993 175.373 120.58C174.64 120.167 174.066 119.573 173.653 118.8C173.24 118.013 173.033 117.08 173.033 116C173.033 114.92 173.24 113.993 173.653 113.22C174.066 112.433 174.64 111.833 175.373 111.42C176.106 111.007 176.94 110.8 177.873 110.8ZM177.873 112.18C177.193 112.18 176.613 112.333 176.133 112.64C175.653 112.947 175.28 113.387 175.013 113.96C174.76 114.52 174.633 115.2 174.633 116C174.633 116.787 174.76 117.467 175.013 118.04C175.28 118.613 175.653 119.053 176.133 119.36C176.613 119.667 177.193 119.82 177.873 119.82C178.553 119.82 179.133 119.667 179.613 119.36C180.093 119.053 180.46 118.613 180.713 118.04C180.98 117.467 181.113 116.787 181.113 116C181.113 115.2 180.98 114.52 180.713 113.96C180.46 113.387 180.093 112.947 179.613 112.64C179.133 112.333 178.553 112.18 177.873 112.18ZM185.725 121V111H187.025L187.245 112.64C187.525 112.027 187.932 111.567 188.465 111.26C189.012 110.953 189.672 110.8 190.445 110.8C190.619 110.8 190.805 110.813 191.005 110.84C191.219 110.867 191.399 110.92 191.545 111L191.265 112.46C191.119 112.407 190.959 112.367 190.785 112.34C190.612 112.313 190.365 112.3 190.045 112.3C189.632 112.3 189.212 112.42 188.785 112.66C188.372 112.9 188.025 113.267 187.745 113.76C187.465 114.24 187.325 114.853 187.325 115.6V121H185.725ZM203.837 121.2C202.864 121.2 201.964 120.993 201.137 120.58C200.324 120.167 199.697 119.58 199.257 118.82L200.617 117.84C200.91 118.453 201.337 118.933 201.897 119.28C202.47 119.627 203.157 119.8 203.957 119.8C204.664 119.8 205.217 119.667 205.617 119.4C206.017 119.12 206.217 118.76 206.217 118.32C206.217 118.04 206.124 117.787 205.937 117.56C205.764 117.32 205.424 117.147 204.917 117.04L202.517 116.54C201.544 116.34 200.844 116.007 200.417 115.54C200.004 115.073 199.797 114.493 199.797 113.8C199.797 113.253 199.95 112.753 200.257 112.3C200.577 111.847 201.024 111.487 201.597 111.22C202.184 110.94 202.87 110.8 203.657 110.8C204.644 110.8 205.477 110.993 206.157 111.38C206.837 111.767 207.344 112.313 207.677 113.02L206.337 113.9C206.11 113.313 205.744 112.887 205.237 112.62C204.73 112.34 204.204 112.2 203.657 112.2C203.177 112.2 202.764 112.267 202.417 112.4C202.084 112.533 201.824 112.72 201.637 112.96C201.464 113.187 201.377 113.447 201.377 113.74C201.377 114.033 201.477 114.307 201.677 114.56C201.877 114.8 202.25 114.973 202.797 115.08L205.297 115.6C206.23 115.787 206.884 116.093 207.257 116.52C207.63 116.947 207.817 117.467 207.817 118.08C207.817 118.707 207.65 119.26 207.317 119.74C206.984 120.207 206.517 120.567 205.917 120.82C205.317 121.073 204.624 121.2 203.837 121.2ZM211.584 109.08C211.224 109.08 210.93 108.973 210.704 108.76C210.49 108.533 210.384 108.24 210.384 107.88C210.384 107.52 210.49 107.233 210.704 107.02C210.93 106.793 211.224 106.68 211.584 106.68C211.944 106.68 212.23 106.793 212.444 107.02C212.67 107.233 212.784 107.52 212.784 107.88C212.784 108.24 212.67 108.533 212.444 108.76C212.23 108.973 211.944 109.08 211.584 109.08ZM212.384 111V121H210.784V111H212.384ZM218.456 108.16V118.24C218.456 118.733 218.596 119.1 218.876 119.34C219.156 119.58 219.516 119.7 219.956 119.7C220.343 119.7 220.676 119.633 220.956 119.5C221.236 119.367 221.49 119.187 221.716 118.96L222.276 120.3C221.97 120.58 221.603 120.8 221.176 120.96C220.763 121.12 220.283 121.2 219.736 121.2C219.23 121.2 218.756 121.113 218.316 120.94C217.876 120.753 217.523 120.467 217.256 120.08C217.003 119.68 216.87 119.16 216.856 118.52V108.6L218.456 108.16ZM222.096 111V112.38H214.856V111H222.096ZM237.132 114.54C237.132 113.793 236.932 113.22 236.532 112.82C236.132 112.407 235.565 112.2 234.832 112.2C234.138 112.2 233.552 112.353 233.072 112.66C232.592 112.953 232.238 113.433 232.012 114.1L230.712 113.3C230.978 112.553 231.472 111.953 232.192 111.5C232.912 111.033 233.805 110.8 234.872 110.8C235.592 110.8 236.245 110.927 236.832 111.18C237.418 111.42 237.878 111.793 238.212 112.3C238.558 112.793 238.732 113.433 238.732 114.22V119.06C238.732 119.54 238.985 119.78 239.492 119.78C239.745 119.78 239.992 119.747 240.232 119.68L240.152 120.94C239.885 121.073 239.538 121.14 239.112 121.14C238.725 121.14 238.378 121.067 238.072 120.92C237.765 120.773 237.525 120.553 237.352 120.26C237.178 119.953 237.092 119.573 237.092 119.12V118.92L237.492 118.98C237.332 119.5 237.058 119.927 236.672 120.26C236.285 120.58 235.852 120.82 235.372 120.98C234.892 121.127 234.418 121.2 233.952 121.2C233.365 121.2 232.818 121.1 232.312 120.9C231.805 120.7 231.398 120.4 231.092 120C230.798 119.587 230.652 119.08 230.652 118.48C230.652 117.733 230.898 117.12 231.392 116.64C231.898 116.147 232.598 115.813 233.492 115.64L237.452 114.86V116.18L234.232 116.84C233.578 116.973 233.092 117.16 232.772 117.4C232.452 117.64 232.292 117.973 232.292 118.4C232.292 118.813 232.452 119.153 232.772 119.42C233.105 119.673 233.572 119.8 234.172 119.8C234.558 119.8 234.925 119.753 235.272 119.66C235.632 119.553 235.952 119.4 236.232 119.2C236.512 118.987 236.732 118.727 236.892 118.42C237.052 118.1 237.132 117.727 237.132 117.3V114.54ZM242.62 121V111H244.02L244.12 112.56C244.48 111.947 244.946 111.5 245.52 111.22C246.106 110.94 246.706 110.8 247.32 110.8C248.026 110.8 248.693 110.96 249.32 111.28C249.946 111.6 250.426 112.093 250.76 112.76C250.973 112.307 251.273 111.94 251.66 111.66C252.046 111.367 252.466 111.153 252.92 111.02C253.386 110.873 253.826 110.8 254.24 110.8C254.88 110.8 255.486 110.933 256.06 111.2C256.646 111.467 257.126 111.88 257.5 112.44C257.873 113 258.06 113.72 258.06 114.6V121H256.46V114.76C256.46 113.853 256.233 113.2 255.78 112.8C255.326 112.4 254.766 112.2 254.1 112.2C253.58 112.2 253.093 112.327 252.64 112.58C252.186 112.833 251.82 113.207 251.54 113.7C251.273 114.193 251.14 114.8 251.14 115.52V121H249.54V114.76C249.54 113.853 249.313 113.2 248.86 112.8C248.406 112.4 247.846 112.2 247.18 112.2C246.74 112.2 246.286 112.32 245.82 112.56C245.366 112.787 244.986 113.153 244.68 113.66C244.373 114.167 244.22 114.833 244.22 115.66V121H242.62ZM265.862 121.2C264.916 121.2 264.069 120.993 263.322 120.58C262.589 120.167 262.016 119.573 261.602 118.8C261.189 118.013 260.982 117.08 260.982 116C260.982 114.92 261.189 113.993 261.602 113.22C262.016 112.433 262.582 111.833 263.302 111.42C264.022 111.007 264.842 110.8 265.762 110.8C266.696 110.8 267.489 111 268.142 111.4C268.809 111.8 269.316 112.347 269.662 113.04C270.009 113.72 270.182 114.487 270.182 115.34C270.182 115.567 270.176 115.773 270.162 115.96C270.149 116.147 270.129 116.313 270.102 116.46H262.022V115.04H269.402L268.582 115.2C268.582 114.24 268.316 113.5 267.782 112.98C267.262 112.46 266.576 112.2 265.722 112.2C265.069 112.2 264.502 112.353 264.022 112.66C263.556 112.953 263.189 113.387 262.922 113.96C262.669 114.52 262.542 115.2 262.542 116C262.542 116.787 262.676 117.467 262.942 118.04C263.209 118.613 263.582 119.053 264.062 119.36C264.556 119.653 265.142 119.8 265.822 119.8C266.556 119.8 267.149 119.66 267.602 119.38C268.069 119.1 268.442 118.72 268.722 118.24L269.982 118.98C269.729 119.433 269.402 119.827 269.002 120.16C268.616 120.493 268.156 120.753 267.622 120.94C267.102 121.113 266.516 121.2 265.862 121.2ZM275.292 108.16V118.24C275.292 118.733 275.432 119.1 275.712 119.34C275.992 119.58 276.352 119.7 276.792 119.7C277.179 119.7 277.512 119.633 277.792 119.5C278.072 119.367 278.326 119.187 278.552 118.96L279.112 120.3C278.806 120.58 278.439 120.8 278.012 120.96C277.599 121.12 277.119 121.2 276.572 121.2C276.066 121.2 275.592 121.113 275.152 120.94C274.712 120.753 274.359 120.467 274.092 120.08C273.839 119.68 273.706 119.16 273.692 118.52V108.6L275.292 108.16ZM278.932 111V112.38H271.692V111H278.932ZM292.268 110.8C292.961 110.8 293.568 110.907 294.088 111.12C294.621 111.333 295.081 111.64 295.468 112.04C295.854 112.44 296.168 112.913 296.408 113.46L294.888 114.18C294.674 113.54 294.348 113.053 293.908 112.72C293.481 112.373 292.921 112.2 292.228 112.2C291.561 112.2 290.988 112.353 290.508 112.66C290.028 112.953 289.661 113.387 289.408 113.96C289.154 114.52 289.028 115.2 289.028 116C289.028 116.787 289.154 117.467 289.408 118.04C289.661 118.613 290.028 119.053 290.508 119.36C290.988 119.653 291.561 119.8 292.228 119.8C292.748 119.8 293.194 119.72 293.568 119.56C293.954 119.4 294.268 119.167 294.508 118.86C294.761 118.553 294.934 118.18 295.028 117.74L296.508 118.26C296.281 118.873 295.968 119.4 295.568 119.84C295.181 120.28 294.708 120.62 294.148 120.86C293.601 121.087 292.974 121.2 292.268 121.2C291.334 121.2 290.501 120.993 289.768 120.58C289.034 120.167 288.461 119.573 288.048 118.8C287.634 118.013 287.428 117.08 287.428 116C287.428 114.92 287.634 113.993 288.048 113.22C288.461 112.433 289.034 111.833 289.768 111.42C290.501 111.007 291.334 110.8 292.268 110.8ZM303.459 110.8C304.406 110.8 305.239 111.007 305.959 111.42C306.692 111.833 307.266 112.433 307.679 113.22C308.092 113.993 308.299 114.92 308.299 116C308.299 117.08 308.092 118.013 307.679 118.8C307.266 119.573 306.692 120.167 305.959 120.58C305.239 120.993 304.406 121.2 303.459 121.2C302.526 121.2 301.692 120.993 300.959 120.58C300.226 120.167 299.652 119.573 299.239 118.8C298.826 118.013 298.619 117.08 298.619 116C298.619 114.92 298.826 113.993 299.239 113.22C299.652 112.433 300.226 111.833 300.959 111.42C301.692 111.007 302.526 110.8 303.459 110.8ZM303.459 112.18C302.779 112.18 302.199 112.333 301.719 112.64C301.239 112.947 300.866 113.387 300.599 113.96C300.346 114.52 300.219 115.2 300.219 116C300.219 116.787 300.346 117.467 300.599 118.04C300.866 118.613 301.239 119.053 301.719 119.36C302.199 119.667 302.779 119.82 303.459 119.82C304.139 119.82 304.719 119.667 305.199 119.36C305.679 119.053 306.046 118.613 306.299 118.04C306.566 117.467 306.699 116.787 306.699 116C306.699 115.2 306.566 114.52 306.299 113.96C306.046 113.387 305.679 112.947 305.199 112.64C304.719 112.333 304.139 112.18 303.459 112.18ZM311.311 121V111H312.711L312.851 113.24L312.591 113.02C312.805 112.487 313.091 112.06 313.451 111.74C313.811 111.407 314.225 111.167 314.691 111.02C315.171 110.873 315.665 110.8 316.171 110.8C316.891 110.8 317.545 110.94 318.131 111.22C318.718 111.487 319.185 111.9 319.531 112.46C319.891 113.02 320.071 113.733 320.071 114.6V121H318.471V115.16C318.471 114.053 318.231 113.287 317.751 112.86C317.285 112.42 316.705 112.2 316.011 112.2C315.531 112.2 315.051 112.313 314.571 112.54C314.091 112.767 313.691 113.133 313.371 113.64C313.065 114.147 312.911 114.827 312.911 115.68V121H311.311ZM327.294 121.2C326.321 121.2 325.421 120.993 324.594 120.58C323.781 120.167 323.154 119.58 322.714 118.82L324.074 117.84C324.367 118.453 324.794 118.933 325.354 119.28C325.927 119.627 326.614 119.8 327.414 119.8C328.121 119.8 328.674 119.667 329.074 119.4C329.474 119.12 329.674 118.76 329.674 118.32C329.674 118.04 329.581 117.787 329.394 117.56C329.221 117.32 328.881 117.147 328.374 117.04L325.974 116.54C325.001 116.34 324.301 116.007 323.874 115.54C323.461 115.073 323.254 114.493 323.254 113.8C323.254 113.253 323.407 112.753 323.714 112.3C324.034 111.847 324.481 111.487 325.054 111.22C325.641 110.94 326.327 110.8 327.114 110.8C328.101 110.8 328.934 110.993 329.614 111.38C330.294 111.767 330.801 112.313 331.134 113.02L329.794 113.9C329.567 113.313 329.201 112.887 328.694 112.62C328.187 112.34 327.661 112.2 327.114 112.2C326.634 112.2 326.221 112.267 325.874 112.4C325.541 112.533 325.281 112.72 325.094 112.96C324.921 113.187 324.834 113.447 324.834 113.74C324.834 114.033 324.934 114.307 325.134 114.56C325.334 114.8 325.707 114.973 326.254 115.08L328.754 115.6C329.687 115.787 330.341 116.093 330.714 116.52C331.087 116.947 331.274 117.467 331.274 118.08C331.274 118.707 331.107 119.26 330.774 119.74C330.441 120.207 329.974 120.567 329.374 120.82C328.774 121.073 328.081 121.2 327.294 121.2ZM338.421 121.2C337.474 121.2 336.628 120.993 335.881 120.58C335.148 120.167 334.574 119.573 334.161 118.8C333.748 118.013 333.541 117.08 333.541 116C333.541 114.92 333.748 113.993 334.161 113.22C334.574 112.433 335.141 111.833 335.861 111.42C336.581 111.007 337.401 110.8 338.321 110.8C339.254 110.8 340.048 111 340.701 111.4C341.368 111.8 341.874 112.347 342.221 113.04C342.568 113.72 342.741 114.487 342.741 115.34C342.741 115.567 342.734 115.773 342.721 115.96C342.708 116.147 342.688 116.313 342.661 116.46H334.581V115.04H341.961L341.141 115.2C341.141 114.24 340.874 113.5 340.341 112.98C339.821 112.46 339.134 112.2 338.281 112.2C337.628 112.2 337.061 112.353 336.581 112.66C336.114 112.953 335.748 113.387 335.481 113.96C335.228 114.52 335.101 115.2 335.101 116C335.101 116.787 335.234 117.467 335.501 118.04C335.768 118.613 336.141 119.053 336.621 119.36C337.114 119.653 337.701 119.8 338.381 119.8C339.114 119.8 339.708 119.66 340.161 119.38C340.628 119.1 341.001 118.72 341.281 118.24L342.541 118.98C342.288 119.433 341.961 119.827 341.561 120.16C341.174 120.493 340.714 120.753 340.181 120.94C339.661 121.113 339.074 121.2 338.421 121.2ZM349.924 110.8C350.617 110.8 351.224 110.907 351.744 111.12C352.277 111.333 352.737 111.64 353.124 112.04C353.51 112.44 353.824 112.913 354.064 113.46L352.544 114.18C352.33 113.54 352.004 113.053 351.564 112.72C351.137 112.373 350.577 112.2 349.884 112.2C349.217 112.2 348.644 112.353 348.164 112.66C347.684 112.953 347.317 113.387 347.064 113.96C346.81 114.52 346.684 115.2 346.684 116C346.684 116.787 346.81 117.467 347.064 118.04C347.317 118.613 347.684 119.053 348.164 119.36C348.644 119.653 349.217 119.8 349.884 119.8C350.404 119.8 350.85 119.72 351.224 119.56C351.61 119.4 351.924 119.167 352.164 118.86C352.417 118.553 352.59 118.18 352.684 117.74L354.164 118.26C353.937 118.873 353.624 119.4 353.224 119.84C352.837 120.28 352.364 120.62 351.804 120.86C351.257 121.087 350.63 121.2 349.924 121.2C348.99 121.2 348.157 120.993 347.424 120.58C346.69 120.167 346.117 119.573 345.704 118.8C345.29 118.013 345.084 117.08 345.084 116C345.084 114.92 345.29 113.993 345.704 113.22C346.117 112.433 346.69 111.833 347.424 111.42C348.157 111.007 348.99 110.8 349.924 110.8ZM359.335 108.16V118.24C359.335 118.733 359.475 119.1 359.755 119.34C360.035 119.58 360.395 119.7 360.835 119.7C361.222 119.7 361.555 119.633 361.835 119.5C362.115 119.367 362.369 119.187 362.595 118.96L363.155 120.3C362.849 120.58 362.482 120.8 362.055 120.96C361.642 121.12 361.162 121.2 360.615 121.2C360.109 121.2 359.635 121.113 359.195 120.94C358.755 120.753 358.402 120.467 358.135 120.08C357.882 119.68 357.749 119.16 357.735 118.52V108.6L359.335 108.16ZM362.975 111V112.38H355.735V111H362.975ZM369.534 121.2C368.587 121.2 367.741 120.993 366.994 120.58C366.261 120.167 365.687 119.573 365.274 118.8C364.861 118.013 364.654 117.08 364.654 116C364.654 114.92 364.861 113.993 365.274 113.22C365.687 112.433 366.254 111.833 366.974 111.42C367.694 111.007 368.514 110.8 369.434 110.8C370.367 110.8 371.161 111 371.814 111.4C372.481 111.8 372.987 112.347 373.334 113.04C373.681 113.72 373.854 114.487 373.854 115.34C373.854 115.567 373.847 115.773 373.834 115.96C373.821 116.147 373.801 116.313 373.774 116.46H365.694V115.04H373.074L372.254 115.2C372.254 114.24 371.987 113.5 371.454 112.98C370.934 112.46 370.247 112.2 369.394 112.2C368.741 112.2 368.174 112.353 367.694 112.66C367.227 112.953 366.861 113.387 366.594 113.96C366.341 114.52 366.214 115.2 366.214 116C366.214 116.787 366.347 117.467 366.614 118.04C366.881 118.613 367.254 119.053 367.734 119.36C368.227 119.653 368.814 119.8 369.494 119.8C370.227 119.8 370.821 119.66 371.274 119.38C371.741 119.1 372.114 118.72 372.394 118.24L373.654 118.98C373.401 119.433 373.074 119.827 372.674 120.16C372.287 120.493 371.827 120.753 371.294 120.94C370.774 121.113 370.187 121.2 369.534 121.2ZM378.964 108.16V118.24C378.964 118.733 379.104 119.1 379.384 119.34C379.664 119.58 380.024 119.7 380.464 119.7C380.851 119.7 381.184 119.633 381.464 119.5C381.744 119.367 381.997 119.187 382.224 118.96L382.784 120.3C382.477 120.58 382.111 120.8 381.684 120.96C381.271 121.12 380.791 121.2 380.244 121.2C379.737 121.2 379.264 121.113 378.824 120.94C378.384 120.753 378.031 120.467 377.764 120.08C377.511 119.68 377.377 119.16 377.364 118.52V108.6L378.964 108.16ZM382.604 111V112.38H375.364V111H382.604ZM388.603 121.2C387.963 121.2 387.356 121.08 386.783 120.84C386.223 120.6 385.763 120.213 385.403 119.68C385.056 119.133 384.883 118.427 384.883 117.56V111H386.483V117.14C386.483 118.153 386.703 118.853 387.143 119.24C387.583 119.613 388.203 119.8 389.003 119.8C389.376 119.8 389.743 119.74 390.103 119.62C390.463 119.487 390.783 119.287 391.063 119.02C391.356 118.74 391.583 118.387 391.743 117.96C391.916 117.533 392.003 117.027 392.003 116.44V111H393.603V121H392.203L392.103 119.48C391.756 120.08 391.283 120.52 390.683 120.8C390.096 121.067 389.403 121.2 388.603 121.2ZM397.327 121V111H398.627L398.847 112.64C399.127 112.027 399.533 111.567 400.067 111.26C400.613 110.953 401.273 110.8 402.047 110.8C402.22 110.8 402.407 110.813 402.607 110.84C402.82 110.867 403 110.92 403.147 111L402.867 112.46C402.72 112.407 402.56 112.367 402.387 112.34C402.213 112.313 401.967 112.3 401.647 112.3C401.233 112.3 400.813 112.42 400.387 112.66C399.973 112.9 399.627 113.267 399.347 113.76C399.067 114.24 398.927 114.853 398.927 115.6V121H397.327ZM72.902 142.6C74.062 142.6 75.062 142.84 75.902 143.32C76.742 143.787 77.442 144.48 78.002 145.4L76.662 146.44C76.1686 145.587 75.6086 144.987 74.982 144.64C74.3686 144.28 73.622 144.1 72.742 144.1C72.0353 144.1 71.4486 144.2 70.982 144.4C70.5286 144.6 70.1953 144.867 69.982 145.2C69.7686 145.52 69.662 145.887 69.662 146.3C69.662 146.767 69.8086 147.18 70.102 147.54C70.3953 147.887 70.982 148.16 71.862 148.36L74.722 149C75.9886 149.28 76.8686 149.707 77.362 150.28C77.8686 150.84 78.122 151.54 78.122 152.38C78.122 153.127 77.9086 153.793 77.482 154.38C77.0686 154.953 76.482 155.4 75.722 155.72C74.962 156.04 74.0686 156.2 73.042 156.2C72.082 156.2 71.2353 156.073 70.502 155.82C69.782 155.553 69.162 155.2 68.642 154.76C68.122 154.32 67.6953 153.827 67.362 153.28L68.762 152.14C69.0153 152.647 69.342 153.093 69.742 153.48C70.142 153.867 70.622 154.167 71.182 154.38C71.7553 154.593 72.4086 154.7 73.142 154.7C73.822 154.7 74.4086 154.62 74.902 154.46C75.4086 154.287 75.7953 154.04 76.062 153.72C76.3286 153.387 76.462 152.987 76.462 152.52C76.462 152.093 76.322 151.713 76.042 151.38C75.762 151.033 75.2353 150.773 74.462 150.6L71.362 149.9C70.5486 149.713 69.8886 149.46 69.382 149.14C68.8886 148.807 68.5286 148.42 68.302 147.98C68.0886 147.527 67.982 147.04 67.982 146.52C67.982 145.813 68.1753 145.167 68.562 144.58C68.962 143.98 69.5286 143.5 70.262 143.14C71.0086 142.78 71.8886 142.6 72.902 142.6ZM84.6968 156.2C84.0568 156.2 83.4501 156.08 82.8768 155.84C82.3168 155.6 81.8568 155.213 81.4968 154.68C81.1501 154.133 80.9768 153.427 80.9768 152.56V146H82.5768V152.14C82.5768 153.153 82.7968 153.853 83.2368 154.24C83.6768 154.613 84.2968 154.8 85.0968 154.8C85.4701 154.8 85.8368 154.74 86.1968 154.62C86.5568 154.487 86.8768 154.287 87.1568 154.02C87.4501 153.74 87.6768 153.387 87.8368 152.96C88.0101 152.533 88.0968 152.027 88.0968 151.44V146H89.6968V156H88.2968L88.1968 154.48C87.8501 155.08 87.3768 155.52 86.7768 155.8C86.1901 156.067 85.4968 156.2 84.6968 156.2ZM97.0205 156.2C96.0472 156.2 95.1472 155.993 94.3205 155.58C93.5072 155.167 92.8805 154.58 92.4405 153.82L93.8005 152.84C94.0939 153.453 94.5205 153.933 95.0805 154.28C95.6539 154.627 96.3405 154.8 97.1405 154.8C97.8472 154.8 98.4005 154.667 98.8005 154.4C99.2005 154.12 99.4005 153.76 99.4005 153.32C99.4005 153.04 99.3072 152.787 99.1205 152.56C98.9472 152.32 98.6072 152.147 98.1005 152.04L95.7005 151.54C94.7272 151.34 94.0272 151.007 93.6005 150.54C93.1872 150.073 92.9805 149.493 92.9805 148.8C92.9805 148.253 93.1339 147.753 93.4405 147.3C93.7605 146.847 94.2072 146.487 94.7805 146.22C95.3672 145.94 96.0539 145.8 96.8405 145.8C97.8272 145.8 98.6605 145.993 99.3405 146.38C100.021 146.767 100.527 147.313 100.861 148.02L99.5205 148.9C99.2939 148.313 98.9272 147.887 98.4205 147.62C97.9139 147.34 97.3872 147.2 96.8405 147.2C96.3605 147.2 95.9472 147.267 95.6005 147.4C95.2672 147.533 95.0072 147.72 94.8205 147.96C94.6472 148.187 94.5605 148.447 94.5605 148.74C94.5605 149.033 94.6605 149.307 94.8605 149.56C95.0605 149.8 95.4339 149.973 95.9805 150.08L98.4805 150.6C99.4139 150.787 100.067 151.093 100.441 151.52C100.814 151.947 101.001 152.467 101.001 153.08C101.001 153.707 100.834 154.26 100.501 154.74C100.167 155.207 99.7005 155.567 99.1005 155.82C98.5005 156.073 97.8072 156.2 97.0205 156.2ZM108.107 145.8C108.801 145.8 109.407 145.907 109.927 146.12C110.461 146.333 110.921 146.64 111.307 147.04C111.694 147.44 112.007 147.913 112.247 148.46L110.727 149.18C110.514 148.54 110.187 148.053 109.747 147.72C109.321 147.373 108.761 147.2 108.067 147.2C107.401 147.2 106.827 147.353 106.347 147.66C105.867 147.953 105.501 148.387 105.247 148.96C104.994 149.52 104.867 150.2 104.867 151C104.867 151.787 104.994 152.467 105.247 153.04C105.501 153.613 105.867 154.053 106.347 154.36C106.827 154.653 107.401 154.8 108.067 154.8C108.587 154.8 109.034 154.72 109.407 154.56C109.794 154.4 110.107 154.167 110.347 153.86C110.601 153.553 110.774 153.18 110.867 152.74L112.347 153.26C112.121 153.873 111.807 154.4 111.407 154.84C111.021 155.28 110.547 155.62 109.987 155.86C109.441 156.087 108.814 156.2 108.107 156.2C107.174 156.2 106.341 155.993 105.607 155.58C104.874 155.167 104.301 154.573 103.887 153.8C103.474 153.013 103.267 152.08 103.267 151C103.267 149.92 103.474 148.993 103.887 148.22C104.301 147.433 104.874 146.833 105.607 146.42C106.341 146.007 107.174 145.8 108.107 145.8ZM115.959 144.08C115.599 144.08 115.305 143.973 115.079 143.76C114.865 143.533 114.759 143.24 114.759 142.88C114.759 142.52 114.865 142.233 115.079 142.02C115.305 141.793 115.599 141.68 115.959 141.68C116.319 141.68 116.605 141.793 116.819 142.02C117.045 142.233 117.159 142.52 117.159 142.88C117.159 143.24 117.045 143.533 116.819 143.76C116.605 143.973 116.319 144.08 115.959 144.08ZM116.759 146V156H115.159V146H116.759ZM120.471 160.2V146H121.871L122.011 148.44L121.791 148.16C121.965 147.693 122.225 147.287 122.571 146.94C122.918 146.58 123.338 146.3 123.831 146.1C124.325 145.9 124.858 145.8 125.431 145.8C126.245 145.8 126.991 146.007 127.671 146.42C128.365 146.833 128.918 147.427 129.331 148.2C129.745 148.973 129.951 149.907 129.951 151C129.951 152.08 129.738 153.013 129.311 153.8C128.898 154.573 128.345 155.167 127.651 155.58C126.958 155.993 126.198 156.2 125.371 156.2C124.545 156.2 123.818 156 123.191 155.6C122.578 155.187 122.138 154.667 121.871 154.04L122.071 153.74V160.2H120.471ZM125.211 154.8C126.198 154.8 126.965 154.453 127.511 153.76C128.071 153.067 128.351 152.147 128.351 151C128.351 149.853 128.078 148.933 127.531 148.24C126.998 147.547 126.245 147.2 125.271 147.2C124.631 147.2 124.071 147.36 123.591 147.68C123.111 147.987 122.738 148.427 122.471 149C122.205 149.56 122.071 150.227 122.071 151C122.071 151.76 122.198 152.427 122.451 153C122.718 153.573 123.085 154.02 123.551 154.34C124.031 154.647 124.585 154.8 125.211 154.8ZM133.81 144.08C133.45 144.08 133.157 143.973 132.93 143.76C132.717 143.533 132.61 143.24 132.61 142.88C132.61 142.52 132.717 142.233 132.93 142.02C133.157 141.793 133.45 141.68 133.81 141.68C134.17 141.68 134.457 141.793 134.67 142.02C134.897 142.233 135.01 142.52 135.01 142.88C135.01 143.24 134.897 143.533 134.67 143.76C134.457 143.973 134.17 144.08 133.81 144.08ZM134.61 146V156H133.01V146H134.61ZM140.683 143.16V153.24C140.683 153.733 140.823 154.1 141.103 154.34C141.383 154.58 141.743 154.7 142.183 154.7C142.57 154.7 142.903 154.633 143.183 154.5C143.463 154.367 143.716 154.187 143.943 153.96L144.503 155.3C144.196 155.58 143.83 155.8 143.403 155.96C142.99 156.12 142.51 156.2 141.963 156.2C141.456 156.2 140.983 156.113 140.543 155.94C140.103 155.753 139.75 155.467 139.483 155.08C139.23 154.68 139.096 154.16 139.083 153.52V143.6L140.683 143.16ZM144.323 146V147.38H137.083V146H144.323ZM153.518 156V146H154.918L155.058 148.24L154.798 148.02C155.012 147.487 155.298 147.06 155.658 146.74C156.018 146.407 156.432 146.167 156.898 146.02C157.378 145.873 157.872 145.8 158.378 145.8C159.098 145.8 159.752 145.94 160.338 146.22C160.925 146.487 161.392 146.9 161.738 147.46C162.098 148.02 162.278 148.733 162.278 149.6V156H160.678V150.16C160.678 149.053 160.438 148.287 159.958 147.86C159.492 147.42 158.912 147.2 158.218 147.2C157.738 147.2 157.258 147.313 156.778 147.54C156.298 147.767 155.898 148.133 155.578 148.64C155.272 149.147 155.118 149.827 155.118 150.68V156H153.518ZM170.081 156.2C169.134 156.2 168.288 155.993 167.541 155.58C166.808 155.167 166.234 154.573 165.821 153.8C165.408 153.013 165.201 152.08 165.201 151C165.201 149.92 165.408 148.993 165.821 148.22C166.234 147.433 166.801 146.833 167.521 146.42C168.241 146.007 169.061 145.8 169.981 145.8C170.914 145.8 171.708 146 172.361 146.4C173.028 146.8 173.534 147.347 173.881 148.04C174.228 148.72 174.401 149.487 174.401 150.34C174.401 150.567 174.394 150.773 174.381 150.96C174.368 151.147 174.348 151.313 174.321 151.46H166.241V150.04H173.621L172.801 150.2C172.801 149.24 172.534 148.5 172.001 147.98C171.481 147.46 170.794 147.2 169.941 147.2C169.288 147.2 168.721 147.353 168.241 147.66C167.774 147.953 167.408 148.387 167.141 148.96C166.888 149.52 166.761 150.2 166.761 151C166.761 151.787 166.894 152.467 167.161 153.04C167.428 153.613 167.801 154.053 168.281 154.36C168.774 154.653 169.361 154.8 170.041 154.8C170.774 154.8 171.368 154.66 171.821 154.38C172.288 154.1 172.661 153.72 172.941 153.24L174.201 153.98C173.948 154.433 173.621 154.827 173.221 155.16C172.834 155.493 172.374 155.753 171.841 155.94C171.321 156.113 170.734 156.2 170.081 156.2ZM177.444 156V146H178.844L178.944 147.56C179.304 146.947 179.771 146.5 180.344 146.22C180.931 145.94 181.531 145.8 182.144 145.8C182.851 145.8 183.517 145.96 184.144 146.28C184.771 146.6 185.251 147.093 185.584 147.76C185.797 147.307 186.097 146.94 186.484 146.66C186.871 146.367 187.291 146.153 187.744 146.02C188.211 145.873 188.651 145.8 189.064 145.8C189.704 145.8 190.311 145.933 190.884 146.2C191.471 146.467 191.951 146.88 192.324 147.44C192.697 148 192.884 148.72 192.884 149.6V156H191.284V149.76C191.284 148.853 191.057 148.2 190.604 147.8C190.151 147.4 189.591 147.2 188.924 147.2C188.404 147.2 187.917 147.327 187.464 147.58C187.011 147.833 186.644 148.207 186.364 148.7C186.097 149.193 185.964 149.8 185.964 150.52V156H184.364V149.76C184.364 148.853 184.137 148.2 183.684 147.8C183.231 147.4 182.671 147.2 182.004 147.2C181.564 147.2 181.111 147.32 180.644 147.56C180.191 147.787 179.811 148.153 179.504 148.66C179.197 149.167 179.044 149.833 179.044 150.66V156H177.444ZM200.646 145.8C201.593 145.8 202.426 146.007 203.146 146.42C203.88 146.833 204.453 147.433 204.866 148.22C205.28 148.993 205.486 149.92 205.486 151C205.486 152.08 205.28 153.013 204.866 153.8C204.453 154.573 203.88 155.167 203.146 155.58C202.426 155.993 201.593 156.2 200.646 156.2C199.713 156.2 198.88 155.993 198.146 155.58C197.413 155.167 196.84 154.573 196.426 153.8C196.013 153.013 195.806 152.08 195.806 151C195.806 149.92 196.013 148.993 196.426 148.22C196.84 147.433 197.413 146.833 198.146 146.42C198.88 146.007 199.713 145.8 200.646 145.8ZM200.646 147.18C199.966 147.18 199.386 147.333 198.906 147.64C198.426 147.947 198.053 148.387 197.786 148.96C197.533 149.52 197.406 150.2 197.406 151C197.406 151.787 197.533 152.467 197.786 153.04C198.053 153.613 198.426 154.053 198.906 154.36C199.386 154.667 199.966 154.82 200.646 154.82C201.326 154.82 201.906 154.667 202.386 154.36C202.866 154.053 203.233 153.613 203.486 153.04C203.753 152.467 203.886 151.787 203.886 151C203.886 150.2 203.753 149.52 203.486 148.96C203.233 148.387 202.866 147.947 202.386 147.64C201.906 147.333 201.326 147.18 200.646 147.18ZM215.315 156V141.4H216.915V147.5C217.262 146.9 217.722 146.467 218.295 146.2C218.868 145.933 219.495 145.8 220.175 145.8C220.895 145.8 221.548 145.94 222.135 146.22C222.722 146.487 223.188 146.9 223.535 147.46C223.895 148.02 224.075 148.733 224.075 149.6V156H222.475V150.16C222.475 149.053 222.235 148.287 221.755 147.86C221.288 147.42 220.708 147.2 220.015 147.2C219.535 147.2 219.055 147.313 218.575 147.54C218.095 147.767 217.695 148.14 217.375 148.66C217.068 149.167 216.915 149.847 216.915 150.7V156H215.315ZM228.498 144.08C228.138 144.08 227.845 143.973 227.618 143.76C227.405 143.533 227.298 143.24 227.298 142.88C227.298 142.52 227.405 142.233 227.618 142.02C227.845 141.793 228.138 141.68 228.498 141.68C228.858 141.68 229.145 141.793 229.358 142.02C229.585 142.233 229.698 142.52 229.698 142.88C229.698 143.24 229.585 143.533 229.358 143.76C229.145 143.973 228.858 144.08 228.498 144.08ZM229.298 146V156H227.698V146H229.298ZM237.15 145.8C237.844 145.8 238.45 145.907 238.97 146.12C239.504 146.333 239.964 146.64 240.35 147.04C240.737 147.44 241.05 147.913 241.29 148.46L239.77 149.18C239.557 148.54 239.23 148.053 238.79 147.72C238.364 147.373 237.804 147.2 237.11 147.2C236.444 147.2 235.87 147.353 235.39 147.66C234.91 147.953 234.544 148.387 234.29 148.96C234.037 149.52 233.91 150.2 233.91 151C233.91 151.787 234.037 152.467 234.29 153.04C234.544 153.613 234.91 154.053 235.39 154.36C235.87 154.653 236.444 154.8 237.11 154.8C237.63 154.8 238.077 154.72 238.45 154.56C238.837 154.4 239.15 154.167 239.39 153.86C239.644 153.553 239.817 153.18 239.91 152.74L241.39 153.26C241.164 153.873 240.85 154.4 240.45 154.84C240.064 155.28 239.59 155.62 239.03 155.86C238.484 156.087 237.857 156.2 237.15 156.2C236.217 156.2 235.384 155.993 234.65 155.58C233.917 155.167 233.344 154.573 232.93 153.8C232.517 153.013 232.31 152.08 232.31 151C232.31 149.92 232.517 148.993 232.93 148.22C233.344 147.433 233.917 146.833 234.65 146.42C235.384 146.007 236.217 145.8 237.15 145.8ZM258.238 160.2V153.26L258.518 153.46C258.425 154.047 258.198 154.547 257.838 154.96C257.492 155.36 257.058 155.667 256.538 155.88C256.032 156.093 255.492 156.2 254.918 156.2C254.092 156.2 253.332 155.993 252.638 155.58C251.945 155.167 251.392 154.573 250.978 153.8C250.565 153.013 250.358 152.08 250.358 151C250.358 149.893 250.578 148.953 251.018 148.18C251.458 147.407 252.038 146.82 252.758 146.42C253.478 146.007 254.252 145.8 255.078 145.8C255.638 145.8 256.158 145.907 256.638 146.12C257.118 146.32 257.525 146.613 257.858 147C258.205 147.373 258.432 147.82 258.538 148.34H258.298L258.438 146H259.838V160.2H258.238ZM255.078 154.8C255.705 154.8 256.252 154.647 256.718 154.34C257.198 154.02 257.572 153.573 257.838 153C258.105 152.413 258.238 151.727 258.238 150.94C258.238 150.14 258.105 149.467 257.838 148.92C257.585 148.36 257.225 147.933 256.758 147.64C256.292 147.347 255.745 147.2 255.118 147.2C254.132 147.2 253.358 147.547 252.798 148.24C252.238 148.933 251.958 149.853 251.958 151C251.958 152.147 252.232 153.067 252.778 153.76C253.325 154.453 254.092 154.8 255.078 154.8ZM267.177 156.2C266.537 156.2 265.931 156.08 265.357 155.84C264.797 155.6 264.337 155.213 263.977 154.68C263.631 154.133 263.457 153.427 263.457 152.56V146H265.057V152.14C265.057 153.153 265.277 153.853 265.717 154.24C266.157 154.613 266.777 154.8 267.577 154.8C267.951 154.8 268.317 154.74 268.677 154.62C269.037 154.487 269.357 154.287 269.637 154.02C269.931 153.74 270.157 153.387 270.317 152.96C270.491 152.533 270.577 152.027 270.577 151.44V146H272.177V156H270.777L270.677 154.48C270.331 155.08 269.857 155.52 269.257 155.8C268.671 156.067 267.977 156.2 267.177 156.2ZM280.041 145.8C280.988 145.8 281.821 146.007 282.541 146.42C283.274 146.833 283.848 147.433 284.261 148.22C284.674 148.993 284.881 149.92 284.881 151C284.881 152.08 284.674 153.013 284.261 153.8C283.848 154.573 283.274 155.167 282.541 155.58C281.821 155.993 280.988 156.2 280.041 156.2C279.108 156.2 278.274 155.993 277.541 155.58C276.808 155.167 276.234 154.573 275.821 153.8C275.408 153.013 275.201 152.08 275.201 151C275.201 149.92 275.408 148.993 275.821 148.22C276.234 147.433 276.808 146.833 277.541 146.42C278.274 146.007 279.108 145.8 280.041 145.8ZM280.041 147.18C279.361 147.18 278.781 147.333 278.301 147.64C277.821 147.947 277.448 148.387 277.181 148.96C276.928 149.52 276.801 150.2 276.801 151C276.801 151.787 276.928 152.467 277.181 153.04C277.448 153.613 277.821 154.053 278.301 154.36C278.781 154.667 279.361 154.82 280.041 154.82C280.721 154.82 281.301 154.667 281.781 154.36C282.261 154.053 282.628 153.613 282.881 153.04C283.148 152.467 283.281 151.787 283.281 151C283.281 150.2 283.148 149.52 282.881 148.96C282.628 148.387 282.261 147.947 281.781 147.64C281.301 147.333 280.721 147.18 280.041 147.18ZM291.493 156.2C290.52 156.2 289.62 155.993 288.793 155.58C287.98 155.167 287.353 154.58 286.913 153.82L288.273 152.84C288.567 153.453 288.993 153.933 289.553 154.28C290.127 154.627 290.813 154.8 291.613 154.8C292.32 154.8 292.873 154.667 293.273 154.4C293.673 154.12 293.873 153.76 293.873 153.32C293.873 153.04 293.78 152.787 293.593 152.56C293.42 152.32 293.08 152.147 292.573 152.04L290.173 151.54C289.2 151.34 288.5 151.007 288.073 150.54C287.66 150.073 287.453 149.493 287.453 148.8C287.453 148.253 287.607 147.753 287.913 147.3C288.233 146.847 288.68 146.487 289.253 146.22C289.84 145.94 290.527 145.8 291.313 145.8C292.3 145.8 293.133 145.993 293.813 146.38C294.493 146.767 295 147.313 295.333 148.02L293.993 148.9C293.767 148.313 293.4 147.887 292.893 147.62C292.387 147.34 291.86 147.2 291.313 147.2C290.833 147.2 290.42 147.267 290.073 147.4C289.74 147.533 289.48 147.72 289.293 147.96C289.12 148.187 289.033 148.447 289.033 148.74C289.033 149.033 289.133 149.307 289.333 149.56C289.533 149.8 289.907 149.973 290.453 150.08L292.953 150.6C293.887 150.787 294.54 151.093 294.913 151.52C295.287 151.947 295.473 152.467 295.473 153.08C295.473 153.707 295.307 154.26 294.973 154.74C294.64 155.207 294.173 155.567 293.573 155.82C292.973 156.073 292.28 156.2 291.493 156.2ZM299.24 153.6C299.56 153.6 299.827 153.687 300.04 153.86C300.267 154.02 300.44 154.247 300.56 154.54C300.68 154.82 300.74 155.153 300.74 155.54C300.74 155.98 300.66 156.413 300.5 156.84C300.353 157.267 300.12 157.66 299.8 158.02C299.48 158.38 299.067 158.68 298.56 158.92L297.72 158.14C298.08 158.02 298.393 157.853 298.66 157.64C298.94 157.427 299.167 157.187 299.34 156.92C299.513 156.653 299.627 156.38 299.68 156.1L299.6 156.06C299.547 156.1 299.48 156.133 299.4 156.16C299.32 156.187 299.2 156.2 299.04 156.2C298.88 156.2 298.713 156.153 298.54 156.06C298.38 155.967 298.24 155.833 298.12 155.66C298 155.473 297.94 155.233 297.94 154.94C297.94 154.7 298 154.48 298.12 154.28C298.24 154.067 298.393 153.9 298.58 153.78C298.78 153.66 299 153.6 299.24 153.6ZM316.409 149.54C316.409 148.793 316.209 148.22 315.809 147.82C315.409 147.407 314.842 147.2 314.109 147.2C313.416 147.2 312.829 147.353 312.349 147.66C311.869 147.953 311.516 148.433 311.289 149.1L309.989 148.3C310.256 147.553 310.749 146.953 311.469 146.5C312.189 146.033 313.082 145.8 314.149 145.8C314.869 145.8 315.522 145.927 316.109 146.18C316.696 146.42 317.156 146.793 317.489 147.3C317.836 147.793 318.009 148.433 318.009 149.22V154.06C318.009 154.54 318.262 154.78 318.769 154.78C319.022 154.78 319.269 154.747 319.509 154.68L319.429 155.94C319.162 156.073 318.816 156.14 318.389 156.14C318.002 156.14 317.656 156.067 317.349 155.92C317.042 155.773 316.802 155.553 316.629 155.26C316.456 154.953 316.369 154.573 316.369 154.12V153.92L316.769 153.98C316.609 154.5 316.336 154.927 315.949 155.26C315.562 155.58 315.129 155.82 314.649 155.98C314.169 156.127 313.696 156.2 313.229 156.2C312.642 156.2 312.096 156.1 311.589 155.9C311.082 155.7 310.676 155.4 310.369 155C310.076 154.587 309.929 154.08 309.929 153.48C309.929 152.733 310.176 152.12 310.669 151.64C311.176 151.147 311.876 150.813 312.769 150.64L316.729 149.86V151.18L313.509 151.84C312.856 151.973 312.369 152.16 312.049 152.4C311.729 152.64 311.569 152.973 311.569 153.4C311.569 153.813 311.729 154.153 312.049 154.42C312.382 154.673 312.849 154.8 313.449 154.8C313.836 154.8 314.202 154.753 314.549 154.66C314.909 154.553 315.229 154.4 315.509 154.2C315.789 153.987 316.009 153.727 316.169 153.42C316.329 153.1 316.409 152.727 316.409 152.3V149.54ZM326.797 156.2C326.237 156.2 325.717 156.1 325.237 155.9C324.757 155.7 324.344 155.42 323.997 155.06C323.65 154.7 323.39 154.293 323.217 153.84L323.437 153.56L323.297 156H321.897V141.4H323.497V148.26L323.297 147.96C323.564 147.333 324.01 146.82 324.637 146.42C325.277 146.007 326.004 145.8 326.817 145.8C327.644 145.8 328.404 146.007 329.097 146.42C329.79 146.833 330.344 147.427 330.757 148.2C331.17 148.973 331.377 149.907 331.377 151C331.377 152.08 331.164 153.013 330.737 153.8C330.324 154.573 329.77 155.167 329.077 155.58C328.384 155.993 327.624 156.2 326.797 156.2ZM326.637 154.8C327.624 154.8 328.39 154.453 328.937 153.76C329.497 153.067 329.777 152.147 329.777 151C329.777 149.853 329.504 148.933 328.957 148.24C328.41 147.547 327.644 147.2 326.657 147.2C326.03 147.2 325.477 147.36 324.997 147.68C324.53 148 324.164 148.447 323.897 149.02C323.63 149.593 323.497 150.267 323.497 151.04C323.497 151.8 323.624 152.467 323.877 153.04C324.144 153.6 324.51 154.033 324.977 154.34C325.457 154.647 326.01 154.8 326.637 154.8ZM334.846 153.6C335.166 153.6 335.432 153.687 335.646 153.86C335.872 154.02 336.046 154.247 336.166 154.54C336.286 154.82 336.346 155.153 336.346 155.54C336.346 155.98 336.266 156.413 336.106 156.84C335.959 157.267 335.726 157.66 335.406 158.02C335.086 158.38 334.672 158.68 334.166 158.92L333.326 158.14C333.686 158.02 333.999 157.853 334.266 157.64C334.546 157.427 334.772 157.187 334.946 156.92C335.119 156.653 335.232 156.38 335.286 156.1L335.206 156.06C335.152 156.1 335.086 156.133 335.006 156.16C334.926 156.187 334.806 156.2 334.646 156.2C334.486 156.2 334.319 156.153 334.146 156.06C333.986 155.967 333.846 155.833 333.726 155.66C333.606 155.473 333.546 155.233 333.546 154.94C333.546 154.7 333.606 154.48 333.726 154.28C333.846 154.067 333.999 153.9 334.186 153.78C334.386 153.66 334.606 153.6 334.846 153.6Z" fill="black"/>
</svg>
