<svg width="980" height="132" viewBox="0 0 980 132" fill="none" xmlns="http://www.w3.org/2000/svg">
<path d="M254.237 24.1875L245.675 55H236.768L224.831 9.90625H234.612L241.706 42.5625H241.956L250.393 9.90625H258.362L266.8 42.5625H267.05L274.175 9.90625H283.956L271.987 55H263.081L254.518 24.1875H254.237ZM288.43 55V9.90625H297.398V27.4688H297.586C299.367 23.25 303.023 20.875 308.117 20.875C315.555 20.875 319.805 25.6875 319.805 33.4375V55H310.68V35.375C310.68 31.0625 308.555 28.4375 304.398 28.4375C300.086 28.4375 297.555 31.4688 297.555 35.875V55H288.43ZM325.747 55V21.5H334.872V55H325.747ZM330.31 17.8125C327.56 17.8125 325.435 15.7188 325.435 13.0938C325.435 10.4375 327.56 8.375 330.31 8.375C333.06 8.375 335.185 10.4375 335.185 13.0938C335.185 15.7188 333.06 17.8125 330.31 17.8125ZM371.346 33.9688H362.877C362.346 30.4375 360.002 27.9375 356.252 27.9375C351.752 27.9375 348.939 31.75 348.939 38.2188C348.939 44.8125 351.752 48.5625 356.283 48.5625C359.939 48.5625 362.314 46.375 362.877 42.7188H371.377C370.908 50.625 365.002 55.7188 356.189 55.7188C346.096 55.7188 339.689 49.1562 339.689 38.2188C339.689 27.4688 346.096 20.7812 356.127 20.7812C365.189 20.7812 370.939 26.375 371.346 33.9688ZM375.944 55V9.90625H384.913V27.4688H385.101C386.882 23.25 390.538 20.875 395.632 20.875C403.069 20.875 407.319 25.6875 407.319 33.4375V55H398.194V35.375C398.194 31.0625 396.069 28.4375 391.913 28.4375C387.601 28.4375 385.069 31.4688 385.069 35.875V55H375.944ZM456.048 55L452.61 44.0625H436.767L433.329 55H423.642L439.298 9.90625H450.392L466.079 55H456.048ZM444.579 18.5312L438.798 37H450.579L444.798 18.5312H444.579ZM470.022 55V21.5H479.147V55H470.022ZM474.584 17.8125C471.834 17.8125 469.709 15.7188 469.709 13.0938C469.709 10.4375 471.834 8.375 474.584 8.375C477.334 8.375 479.459 10.4375 479.459 13.0938C479.459 15.7188 477.334 17.8125 474.584 17.8125ZM485.183 55V21.5H493.995V27.5312H494.183C495.37 23.2812 498.214 20.9688 502.151 20.9688C503.214 20.9688 504.12 21.125 504.745 21.3125V29.3438C503.995 29.0312 502.745 28.8125 501.433 28.8125C496.933 28.8125 494.308 31.5625 494.308 36.2812V55H485.183ZM509.219 9.90625H527.563C536.813 9.90625 543.188 16.0625 543.188 25.3438C543.188 34.5938 536.594 40.7812 527.094 40.7812H518.656V55H509.219V9.90625ZM518.656 17.375V33.4062H525.031C530.438 33.4062 533.594 30.5312 533.594 25.375C533.594 20.25 530.469 17.375 525.063 17.375H518.656ZM562.192 55.7188C552.067 55.7188 545.599 49.2188 545.599 38.2188C545.599 27.375 552.161 20.7812 562.192 20.7812C572.224 20.7812 578.786 27.3438 578.786 38.2188C578.786 49.25 572.317 55.7188 562.192 55.7188ZM562.192 48.75C566.661 48.75 569.505 44.9688 569.505 38.25C569.505 31.5938 566.63 27.75 562.192 27.75C557.755 27.75 554.849 31.5938 554.849 38.25C554.849 44.9688 557.692 48.75 562.192 48.75ZM595.885 55.5312C587.51 55.5312 582.229 48.9062 582.229 38.1875C582.229 27.5625 587.541 20.9688 595.947 20.9688C600.791 20.9688 604.541 23.5312 606.166 27.25H606.354V9.90625H615.479V55H606.479V49.25H606.322C604.697 52.9375 600.822 55.5312 595.885 55.5312ZM598.979 28.2812C594.385 28.2812 591.572 32.125 591.572 38.25C591.572 44.4062 594.385 48.1875 598.979 48.1875C603.51 48.1875 606.416 44.375 606.416 38.25C606.416 32.1562 603.51 28.2812 598.979 28.2812ZM620.952 31.3438C620.952 24.9688 626.484 20.7812 635.077 20.7812C643.484 20.7812 648.952 25.0312 649.077 31.5312H640.671C640.484 28.8438 638.327 27.1875 634.952 27.1875C631.796 27.1875 629.734 28.625 629.734 30.7812C629.734 32.4375 631.171 33.5625 634.109 34.25L640.515 35.625C647.234 37.125 649.952 39.7812 649.952 44.7812C649.952 51.375 643.89 55.7188 635.046 55.7188C626.109 55.7188 620.609 51.4062 620.109 44.875H629.015C629.452 47.6875 631.671 49.3125 635.296 49.3125C638.765 49.3125 640.859 47.9375 640.859 45.75C640.859 44.0625 639.734 43.125 636.734 42.4062L630.546 41.0312C624.202 39.5938 620.952 36.2812 620.952 31.3438ZM680.025 48.9375C683.993 48.9375 687.275 46.3438 687.275 42.7188V40.2812L680.212 40.7188C676.806 40.9688 674.868 42.5 674.868 44.875C674.868 47.375 676.931 48.9375 680.025 48.9375ZM677.025 55.5312C670.65 55.5312 665.806 51.4062 665.806 45.375C665.806 39.2812 670.493 35.75 678.837 35.25L687.275 34.75V32.5312C687.275 29.4062 685.087 27.5938 681.65 27.5938C678.243 27.5938 676.087 29.2812 675.65 31.75H667.306C667.65 25.25 673.181 20.7812 682.056 20.7812C690.65 20.7812 696.243 25.2188 696.243 31.9688V55H687.431V49.875H687.243C685.368 53.4375 681.212 55.5312 677.025 55.5312ZM702.092 55V21.5H710.904V27.5312H711.092C712.279 23.2812 715.123 20.9688 719.061 20.9688C720.123 20.9688 721.029 21.125 721.654 21.3125V29.3438C720.904 29.0312 719.654 28.8125 718.342 28.8125C713.842 28.8125 711.217 31.5625 711.217 36.2812V55H702.092ZM739.253 27.5312C735.253 27.5312 732.378 30.5625 732.066 34.75H746.284C746.097 30.4688 743.316 27.5312 739.253 27.5312ZM746.409 44.75H754.784C753.784 51.3125 747.784 55.7188 739.503 55.7188C729.191 55.7188 723.003 49.125 723.003 38.4062C723.003 27.7188 729.253 20.7812 739.159 20.7812C748.909 20.7812 755.066 27.375 755.066 37.5625V40.3438H731.972V40.9062C731.972 45.6875 735.003 48.9688 739.659 48.9688C743.003 48.9688 745.566 47.3125 746.409 44.75ZM300.651 119V85.5H309.463V91.5312H309.651C310.838 87.2812 313.682 84.9688 317.62 84.9688C318.682 84.9688 319.588 85.125 320.213 85.3125V93.3438C319.463 93.0312 318.213 92.8125 316.901 92.8125C312.401 92.8125 309.776 95.5625 309.776 100.281V119H300.651ZM324.062 119V85.5H333.187V119H324.062ZM328.624 81.8125C325.874 81.8125 323.749 79.7188 323.749 77.0938C323.749 74.4375 325.874 72.375 328.624 72.375C331.374 72.375 333.499 74.4375 333.499 77.0938C333.499 79.7188 331.374 81.8125 328.624 81.8125ZM354.692 111.875C359.254 111.875 362.161 108.25 362.161 102.188C362.161 96.1562 359.254 92.2812 354.692 92.2812C350.192 92.2812 347.348 96.0938 347.348 102.188C347.348 108.312 350.161 111.875 354.692 111.875ZM354.536 131.625C345.723 131.625 339.754 127.344 339.036 121.375H347.973C348.692 123.688 351.317 125.281 354.786 125.281C359.504 125.281 362.129 122.656 362.129 118.781V112.906H361.942C360.379 116.469 356.442 118.906 351.598 118.906C343.411 118.906 338.004 112.594 338.004 102.125C338.004 91.5 343.254 84.9688 351.754 84.9688C356.567 84.9688 360.348 87.5 362.098 91.3438H362.254V85.5H371.254V118.531C371.254 126.531 364.567 131.625 354.536 131.625ZM377.384 119V73.9062H386.353V91.4688H386.541C388.322 87.25 391.978 84.875 397.072 84.875C404.509 84.875 408.759 89.6875 408.759 97.4375V119H399.634V99.375C399.634 95.0625 397.509 92.4375 393.353 92.4375C389.041 92.4375 386.509 95.4688 386.509 99.875V119H377.384ZM416.983 77.7812H426.108V85.5H432.295V92.375H426.108V108.406C426.108 110.969 427.358 112.188 430.045 112.188C430.858 112.188 431.702 112.125 432.264 112.031V118.75C431.327 118.969 429.764 119.125 427.92 119.125C420.045 119.125 416.983 116.5 416.983 109.969V92.375H412.264V85.5H416.983V77.7812ZM452.305 119V92.375H447.743V85.6562H452.305V83.125C452.305 76.5625 455.399 73.5 463.336 73.5C465.024 73.5 466.93 73.6875 467.993 73.9062V79.9375C467.336 79.8125 466.43 79.75 465.524 79.75C462.524 79.75 461.211 81.0625 461.211 83.4375V85.6562H467.868V92.375H461.43V119H452.305ZM487.06 119.719C476.935 119.719 470.466 113.219 470.466 102.219C470.466 91.375 477.029 84.7812 487.06 84.7812C497.091 84.7812 503.654 91.3438 503.654 102.219C503.654 113.25 497.185 119.719 487.06 119.719ZM487.06 112.75C491.529 112.75 494.373 108.969 494.373 102.25C494.373 95.5938 491.498 91.75 487.06 91.75C482.623 91.75 479.716 95.5938 479.716 102.25C479.716 108.969 482.56 112.75 487.06 112.75ZM508.315 119V85.5H517.128V91.5312H517.315C518.503 87.2812 521.346 84.9688 525.284 84.9688C526.346 84.9688 527.253 85.125 527.878 85.3125V93.3438C527.128 93.0312 525.878 92.8125 524.565 92.8125C520.065 92.8125 517.44 95.5625 517.44 100.281V119H508.315ZM548.481 131.406C548.169 131.406 545.325 131.375 545.044 131.312V124.281C545.325 124.344 546.981 124.344 547.325 124.344C550.669 124.344 552.325 123.281 552.95 120.625C552.95 120.5 553.294 119.156 553.231 119.031L541.575 85.5H551.606L558.731 111.688H558.887L566.012 85.5H575.637L564.106 119.75C561.231 128.344 557.044 131.406 548.481 131.406ZM593.33 119.719C583.205 119.719 576.736 113.219 576.736 102.219C576.736 91.375 583.298 84.7812 593.33 84.7812C603.361 84.7812 609.923 91.3438 609.923 102.219C609.923 113.25 603.455 119.719 593.33 119.719ZM593.33 112.75C597.798 112.75 600.642 108.969 600.642 102.25C600.642 95.5938 597.767 91.75 593.33 91.75C588.892 91.75 585.986 95.5938 585.986 102.25C585.986 108.969 588.83 112.75 593.33 112.75ZM645.522 85.5V119H636.71V112.969H636.522C634.866 117.188 631.553 119.625 626.491 119.625C619.241 119.625 614.428 114.906 614.428 107.094V85.5H623.553V105.188C623.553 109.656 625.772 112.031 629.803 112.031C633.866 112.031 636.397 109.125 636.397 104.688V85.5H645.522ZM650.121 86.5625C650.277 78.875 655.715 73.5 665.308 73.5C674.246 73.5 680.152 78.4688 680.152 85.5938C680.152 90.3125 677.871 93.5938 673.465 96.1875C669.308 98.5938 668.152 100.125 668.152 103.188V104.844H659.871L659.808 103.031C659.402 98.125 661.121 95.3125 665.433 92.7812C669.465 90.375 670.683 88.8438 670.683 85.875C670.683 82.9062 668.308 80.75 664.746 80.75C661.152 80.75 658.777 83.0312 658.59 86.5625H650.121ZM664.121 119.781C661.308 119.781 659.027 117.625 659.027 114.875C659.027 112.125 661.308 109.969 664.121 109.969C666.965 109.969 669.246 112.125 669.246 114.875C669.246 117.625 666.965 119.781 664.121 119.781Z" fill="#1D1D1F"/>
</svg>
