<svg width="69" height="77" viewBox="0 0 69 77" fill="none" xmlns="http://www.w3.org/2000/svg">
<g clip-path="url(#clip0_1_59)">
<path d="M43.1429 18H24.8571C21.0857 18 18 21.0857 18 24.8571V43.1428C18 46.9143 21.0857 50 24.8571 50H43.1428C46.9143 50 50 46.9143 50 43.1429V24.8571C50 21.0857 46.9143 18 43.1429 18ZM40.8093 39.6593C40.7319 40.0006 40.5908 40.3216 40.3731 40.6108C40.1562 40.8991 39.8781 41.1354 39.5539 41.3125C39.2258 41.492 38.8815 41.5942 38.514 41.6628C37.8241 41.7916 37.3519 41.8207 36.9084 41.7381C36.4805 41.6584 36.1179 41.4762 35.828 41.23C35.3984 40.865 35.1305 40.3721 35.072 39.8568C35.0035 39.2531 35.2205 38.6081 35.71 38.1329C35.957 37.8931 36.2673 37.7034 36.6814 37.5546C37.1148 37.3988 37.5931 37.3059 38.3283 37.1685C38.522 37.1324 38.7156 37.0962 38.9094 37.06C39.1641 37.0125 39.3825 36.9521 39.5586 36.7528C39.7361 36.552 39.7388 36.3113 39.7388 36.069L39.7389 29.9571C39.7389 29.4897 39.5126 29.3622 39.0308 29.448C38.6863 29.5102 31.2889 30.8921 31.2889 30.8921C30.8716 30.9854 30.725 31.1118 30.725 31.5913L30.7252 40.5468C30.7252 40.8979 30.7054 41.2095 30.6256 41.5612C30.5482 41.9026 30.4071 42.2236 30.1894 42.5127C29.9725 42.801 29.6943 43.0372 29.3702 43.2144C29.0421 43.3939 28.6978 43.5012 28.3303 43.5698C27.6403 43.6987 27.1682 43.7278 26.7246 43.6451C26.2968 43.5654 25.9341 43.3781 25.6443 43.1319C25.2147 42.7669 24.9644 42.274 24.9059 41.7587C24.8373 41.155 25.0368 40.51 25.5264 40.0348C25.7733 39.7951 26.0835 39.6053 26.4977 39.4565C26.9312 39.3007 27.4095 39.2078 28.1446 39.0704C28.3383 39.0343 28.532 38.9981 28.7257 38.9619C28.9804 38.9143 29.1989 38.8539 29.3749 38.6546C29.551 38.4552 29.5713 38.2163 29.5713 37.9755C29.5713 36.0805 29.5713 27.662 29.5713 27.662C29.5713 27.523 29.5843 27.4305 29.592 27.384C29.6275 27.1669 29.7216 26.9808 29.8913 26.8488C30.0323 26.7391 30.2138 26.6635 30.4461 26.6178L30.4495 26.6171L39.3487 24.9541C39.4258 24.9395 40.0691 24.8337 40.1414 24.8279C40.6224 24.7894 40.8925 25.0819 40.8925 25.5568L40.8928 38.6402C40.8929 38.9913 40.889 39.3075 40.8093 39.6593Z" fill="#1D1D1F"/>
</g>
<path d="M3.67215 69.46H6.57615L5.14815 65.464H5.12416L3.67215 69.46ZM4.52415 64.432H5.78415L9.13215 73H7.87215L6.93615 70.42H3.31215L2.35215 73H1.18815L4.52415 64.432ZM9.7254 66.796H10.7454V67.636H10.7694C10.9374 67.292 11.2014 67.044 11.5614 66.892C11.9214 66.732 12.3174 66.652 12.7494 66.652C13.2294 66.652 13.6454 66.74 13.9974 66.916C14.3574 67.092 14.6534 67.332 14.8854 67.636C15.1254 67.932 15.3054 68.276 15.4254 68.668C15.5454 69.06 15.6054 69.476 15.6054 69.916C15.6054 70.356 15.5454 70.772 15.4254 71.164C15.3134 71.556 15.1374 71.9 14.8974 72.196C14.6654 72.484 14.3694 72.712 14.0094 72.88C13.6574 73.048 13.2454 73.132 12.7734 73.132C12.6214 73.132 12.4494 73.116 12.2574 73.084C12.0734 73.052 11.8894 73 11.7054 72.928C11.5214 72.856 11.3454 72.76 11.1774 72.64C11.0174 72.512 10.8814 72.356 10.7694 72.172H10.7454V75.364H9.7254V66.796ZM14.5254 69.844C14.5254 69.556 14.4854 69.276 14.4054 69.004C14.3334 68.724 14.2174 68.476 14.0574 68.26C13.9054 68.044 13.7054 67.872 13.4574 67.744C13.2174 67.616 12.9334 67.552 12.6054 67.552C12.2614 67.552 11.9694 67.62 11.7294 67.756C11.4894 67.892 11.2934 68.072 11.1414 68.296C10.9894 68.512 10.8774 68.76 10.8054 69.04C10.7414 69.32 10.7094 69.604 10.7094 69.892C10.7094 70.196 10.7454 70.492 10.8174 70.78C10.8894 71.06 11.0014 71.308 11.1534 71.524C11.3134 71.74 11.5174 71.916 11.7654 72.052C12.0134 72.18 12.3134 72.244 12.6654 72.244C13.0174 72.244 13.3094 72.176 13.5414 72.04C13.7814 71.904 13.9734 71.724 14.1174 71.5C14.2614 71.276 14.3654 71.02 14.4294 70.732C14.4934 70.444 14.5254 70.148 14.5254 69.844ZM16.7187 66.796H17.7387V67.636H17.7627C17.9307 67.292 18.1947 67.044 18.5547 66.892C18.9147 66.732 19.3107 66.652 19.7427 66.652C20.2227 66.652 20.6387 66.74 20.9907 66.916C21.3507 67.092 21.6467 67.332 21.8787 67.636C22.1187 67.932 22.2987 68.276 22.4187 68.668C22.5387 69.06 22.5987 69.476 22.5987 69.916C22.5987 70.356 22.5387 70.772 22.4187 71.164C22.3067 71.556 22.1307 71.9 21.8907 72.196C21.6587 72.484 21.3627 72.712 21.0027 72.88C20.6507 73.048 20.2387 73.132 19.7667 73.132C19.6147 73.132 19.4427 73.116 19.2507 73.084C19.0667 73.052 18.8827 73 18.6987 72.928C18.5147 72.856 18.3387 72.76 18.1707 72.64C18.0107 72.512 17.8747 72.356 17.7627 72.172H17.7387V75.364H16.7187V66.796ZM21.5187 69.844C21.5187 69.556 21.4787 69.276 21.3987 69.004C21.3267 68.724 21.2107 68.476 21.0507 68.26C20.8987 68.044 20.6987 67.872 20.4507 67.744C20.2107 67.616 19.9267 67.552 19.5987 67.552C19.2547 67.552 18.9627 67.62 18.7227 67.756C18.4827 67.892 18.2867 68.072 18.1347 68.296C17.9827 68.512 17.8707 68.76 17.7987 69.04C17.7347 69.32 17.7027 69.604 17.7027 69.892C17.7027 70.196 17.7387 70.492 17.8107 70.78C17.8827 71.06 17.9947 71.308 18.1467 71.524C18.3067 71.74 18.5107 71.916 18.7587 72.052C19.0067 72.18 19.3067 72.244 19.6587 72.244C20.0107 72.244 20.3027 72.176 20.5347 72.04C20.7747 71.904 20.9667 71.724 21.1107 71.5C21.2547 71.276 21.3587 71.02 21.4227 70.732C21.4867 70.444 21.5187 70.148 21.5187 69.844ZM23.736 64.432H24.756V73H23.736V64.432ZM30.5241 69.304C30.5081 69.064 30.4521 68.836 30.3561 68.62C30.2681 68.404 30.1441 68.22 29.9841 68.068C29.8321 67.908 29.6481 67.784 29.4321 67.696C29.2241 67.6 28.9921 67.552 28.7361 67.552C28.4721 67.552 28.2321 67.6 28.0161 67.696C27.8081 67.784 27.6281 67.908 27.4761 68.068C27.3241 68.228 27.2041 68.416 27.1161 68.632C27.0281 68.84 26.9761 69.064 26.9601 69.304H30.5241ZM31.5081 71.032C31.3721 71.728 31.0721 72.252 30.6081 72.604C30.1441 72.956 29.5601 73.132 28.8561 73.132C28.3601 73.132 27.9281 73.052 27.5601 72.892C27.2001 72.732 26.8961 72.508 26.6481 72.22C26.4001 71.932 26.2121 71.588 26.0841 71.188C25.9641 70.788 25.8961 70.352 25.8801 69.88C25.8801 69.408 25.9521 68.976 26.0961 68.584C26.2401 68.192 26.4401 67.852 26.6961 67.564C26.9601 67.276 27.2681 67.052 27.6201 66.892C27.9801 66.732 28.3721 66.652 28.7961 66.652C29.3481 66.652 29.8041 66.768 30.1641 67C30.5321 67.224 30.8241 67.512 31.0401 67.864C31.2641 68.216 31.4161 68.6 31.4961 69.016C31.5841 69.432 31.6201 69.828 31.6041 70.204H26.9601C26.9521 70.476 26.9841 70.736 27.0561 70.984C27.1281 71.224 27.2441 71.44 27.4041 71.632C27.5641 71.816 27.7681 71.964 28.0161 72.076C28.2641 72.188 28.5561 72.244 28.8921 72.244C29.3241 72.244 29.6761 72.144 29.9481 71.944C30.2281 71.744 30.4121 71.44 30.5001 71.032H31.5081ZM35.9533 64.432H37.5133L40.2133 71.632L42.9253 64.432H44.4853V73H43.4053V65.872H43.3813L40.7053 73H39.7333L37.0573 65.872H37.0333V73H35.9533V64.432ZM51.2304 73H50.2704V72.016H50.2464C50.0304 72.4 49.7544 72.684 49.4184 72.868C49.0824 73.044 48.6864 73.132 48.2304 73.132C47.8224 73.132 47.4824 73.08 47.2104 72.976C46.9384 72.864 46.7184 72.708 46.5504 72.508C46.3824 72.308 46.2624 72.072 46.1904 71.8C46.1264 71.52 46.0944 71.212 46.0944 70.876V66.796H47.1144V70.996C47.1144 71.38 47.2264 71.684 47.4504 71.908C47.6744 72.132 47.9824 72.244 48.3744 72.244C48.6864 72.244 48.9544 72.196 49.1784 72.1C49.4104 72.004 49.6024 71.868 49.7544 71.692C49.9064 71.516 50.0184 71.312 50.0904 71.08C50.1704 70.84 50.2104 70.58 50.2104 70.3V66.796H51.2304V73ZM53.2664 71.044C53.2744 71.268 53.3264 71.46 53.4224 71.62C53.5184 71.772 53.6424 71.896 53.7944 71.992C53.9544 72.08 54.1304 72.144 54.3224 72.184C54.5224 72.224 54.7264 72.244 54.9344 72.244C55.0944 72.244 55.2624 72.232 55.4384 72.208C55.6144 72.184 55.7744 72.14 55.9184 72.076C56.0704 72.012 56.1944 71.92 56.2904 71.8C56.3864 71.672 56.4344 71.512 56.4344 71.32C56.4344 71.056 56.3344 70.856 56.1344 70.72C55.9344 70.584 55.6824 70.476 55.3784 70.396C55.0824 70.308 54.7584 70.232 54.4064 70.168C54.0544 70.096 53.7264 70 53.4224 69.88C53.1264 69.752 52.8784 69.576 52.6784 69.352C52.4784 69.128 52.3784 68.816 52.3784 68.416C52.3784 68.104 52.4464 67.836 52.5824 67.612C52.7264 67.388 52.9064 67.208 53.1224 67.072C53.3464 66.928 53.5944 66.824 53.8664 66.76C54.1464 66.688 54.4224 66.652 54.6944 66.652C55.0464 66.652 55.3704 66.684 55.6664 66.748C55.9624 66.804 56.2224 66.908 56.4464 67.06C56.6784 67.204 56.8624 67.404 56.9984 67.66C57.1344 67.908 57.2144 68.22 57.2384 68.596H56.2184C56.2024 68.396 56.1504 68.232 56.0624 68.104C55.9744 67.968 55.8624 67.86 55.7264 67.78C55.5904 67.7 55.4384 67.644 55.2704 67.612C55.1104 67.572 54.9464 67.552 54.7784 67.552C54.6264 67.552 54.4704 67.564 54.3104 67.588C54.1584 67.612 54.0184 67.656 53.8904 67.72C53.7624 67.776 53.6584 67.856 53.5784 67.96C53.4984 68.056 53.4584 68.184 53.4584 68.344C53.4584 68.52 53.5184 68.668 53.6384 68.788C53.7664 68.9 53.9264 68.996 54.1184 69.076C54.3104 69.148 54.5264 69.212 54.7664 69.268C55.0064 69.316 55.2464 69.368 55.4864 69.424C55.7424 69.48 55.9904 69.548 56.2304 69.628C56.4784 69.708 56.6944 69.816 56.8784 69.952C57.0704 70.08 57.2224 70.244 57.3344 70.444C57.4544 70.644 57.5144 70.892 57.5144 71.188C57.5144 71.564 57.4344 71.876 57.2744 72.124C57.1224 72.372 56.9184 72.572 56.6624 72.724C56.4144 72.876 56.1304 72.98 55.8104 73.036C55.4984 73.1 55.1864 73.132 54.8744 73.132C54.5304 73.132 54.2024 73.096 53.8904 73.024C53.5784 72.952 53.3024 72.836 53.0624 72.676C52.8224 72.508 52.6304 72.292 52.4864 72.028C52.3424 71.756 52.2624 71.428 52.2464 71.044H53.2664ZM59.6024 65.68H58.5824V64.432H59.6024V65.68ZM58.5824 66.796H59.6024V73H58.5824V66.796ZM65.2745 68.788C65.1945 68.396 65.0265 68.092 64.7705 67.876C64.5145 67.66 64.1705 67.552 63.7385 67.552C63.3705 67.552 63.0625 67.62 62.8145 67.756C62.5665 67.892 62.3665 68.072 62.2145 68.296C62.0705 68.52 61.9665 68.78 61.9025 69.076C61.8385 69.364 61.8065 69.664 61.8065 69.976C61.8065 70.264 61.8385 70.544 61.9025 70.816C61.9745 71.088 62.0825 71.332 62.2265 71.548C62.3705 71.756 62.5585 71.924 62.7905 72.052C63.0225 72.18 63.2985 72.244 63.6185 72.244C64.1225 72.244 64.5145 72.112 64.7945 71.848C65.0825 71.584 65.2585 71.212 65.3225 70.732H66.3665C66.2545 71.5 65.9665 72.092 65.5025 72.508C65.0465 72.924 64.4225 73.132 63.6305 73.132C63.1585 73.132 62.7385 73.056 62.3705 72.904C62.0105 72.752 61.7065 72.536 61.4585 72.256C61.2185 71.976 61.0345 71.644 60.9065 71.26C60.7865 70.868 60.7265 70.44 60.7265 69.976C60.7265 69.512 60.7865 69.08 60.9065 68.68C61.0265 68.272 61.2065 67.92 61.4465 67.624C61.6945 67.32 62.0025 67.084 62.3705 66.916C62.7385 66.74 63.1665 66.652 63.6545 66.652C64.0065 66.652 64.3345 66.696 64.6385 66.784C64.9505 66.864 65.2225 66.992 65.4545 67.168C65.6945 67.344 65.8905 67.568 66.0425 67.84C66.1945 68.104 66.2905 68.42 66.3305 68.788H65.2745Z" fill="#1D1D1F"/>
<defs>
<clipPath id="clip0_1_59">
<rect width="32" height="54" fill="white" transform="translate(18)"/>
</clipPath>
</defs>
</svg>
