<svg width="86" height="93" viewBox="0 0 86 93" fill="none" xmlns="http://www.w3.org/2000/svg">
<g clip-path="url(#clip0_1_21)">
<path d="M34.1732 17.7111C31.4324 17.8111 29.5397 19.5776 27.9204 21.3021C27.1963 22.0732 27.3723 22.6421 27.3723 24.2473C27.3723 26.42 27.3251 26.6807 27.9455 27.6162C28.6012 28.6899 29.5138 29.5835 30.601 30.2165C31.6882 30.8495 32.9158 31.202 34.1732 31.2422C38.346 31.5639 41.9473 28.2212 41.9473 24.4847C41.9473 20.7482 38.3552 17.5585 34.1732 17.7111ZM30.3752 26.5455C30.3752 26.7277 30.3029 26.9024 30.174 27.0313C30.0452 27.1601 29.8705 27.2325 29.6882 27.2325C29.506 27.2325 29.3313 27.1601 29.2025 27.0313C29.0736 26.9024 29.0012 26.7277 29.0012 26.5455V22.5077C29.0012 22.3255 29.0736 22.1508 29.2025 22.0219C29.3313 21.8931 29.506 21.8207 29.6882 21.8207C29.8705 21.8207 30.0452 21.8931 30.174 22.0219C30.3029 22.1508 30.3752 22.3255 30.3752 22.5077V26.5455ZM38.3587 24.5209C38.3579 24.7958 38.2484 25.0592 38.054 25.2536C37.8596 25.448 37.5962 25.5576 37.3212 25.5584H35.0775C34.8026 25.5577 34.5391 25.4482 34.3447 25.2538C34.1503 25.0593 34.0408 24.7958 34.0401 24.5209V24.3921C34.0408 24.1172 34.1504 23.8537 34.3448 23.6593C34.5392 23.4649 34.8026 23.3554 35.0775 23.3547H37.3207C37.5957 23.3554 37.8592 23.4649 38.0536 23.6593C38.248 23.8537 38.3576 24.1172 38.3582 24.3921L38.3587 24.5209ZM34.5852 32.6473C36.4354 32.7881 38.277 32.2819 39.7952 31.2151V48.1992C39.7236 48.6699 39.4963 49.1031 39.1497 49.4295C38.803 49.7559 38.357 49.9568 37.8828 50H36.1128C35.7205 49.9548 35.3554 49.7771 35.0776 49.4964C34.7999 49.2156 34.6262 48.8486 34.5852 48.4558C34.5852 48.4558 34.5984 32.6606 34.5852 32.6473ZM43.699 24.4847C43.699 28.2212 47.3003 31.5639 51.4731 31.2422C52.7306 31.202 53.9582 30.8495 55.0454 30.2165C56.1326 29.5835 57.0452 28.6899 57.7008 27.6162C58.3208 26.6807 58.274 26.42 58.274 24.2473C58.274 22.6419 58.45 22.0732 57.7259 21.3021C56.1066 19.5776 54.2139 17.8111 51.4731 17.7111C47.2906 17.5585 43.699 20.7482 43.699 24.4847ZM55.0271 22.5077C55.0271 22.3255 55.0995 22.1508 55.2284 22.0219C55.3572 21.8931 55.5319 21.8207 55.7141 21.8207C55.8964 21.8207 56.0711 21.8931 56.1999 22.0219C56.3288 22.1508 56.4011 22.3255 56.4011 22.5077V26.5455C56.4011 26.7277 56.3288 26.9024 56.1999 27.0313C56.0711 27.1601 55.8964 27.2325 55.7141 27.2325C55.5319 27.2325 55.3572 27.1601 55.2284 27.0313C55.0995 26.9024 55.0271 26.7277 55.0271 26.5455V22.5077ZM47.2881 24.3921C47.2888 24.1172 47.3983 23.8538 47.5926 23.6594C47.787 23.465 48.0504 23.3555 48.3252 23.3547H50.5684C50.8434 23.3554 51.1068 23.4649 51.3012 23.6593C51.4956 23.8537 51.6052 24.1172 51.6058 24.3921V24.5209C51.6052 24.7958 51.4957 25.0593 51.3013 25.2538C51.1069 25.4482 50.8434 25.5577 50.5684 25.5584H48.3252C48.0503 25.5576 47.7869 25.448 47.5925 25.2536C47.3981 25.0592 47.2886 24.7958 47.2877 24.5209L47.2881 24.3921ZM50.9481 48.4558C50.9481 49.1691 49.8875 50 49.161 50H47.391C46.9518 49.9446 46.5478 49.7313 46.2542 49.4C45.9606 49.0687 45.7975 48.6419 45.7952 48.1992V31.2151C47.2921 32.2811 49.1156 32.788 50.9478 32.6473C50.9444 32.6656 50.9481 48.4558 50.9481 48.4558Z" fill="#1D1D1F"/>
</g>
<path d="M23.6607 69.46H26.5647L25.1367 65.464H25.1127L23.6607 69.46ZM24.5127 64.432H25.7727L29.1207 73H27.8607L26.9247 70.42H23.3007L22.3407 73H21.1767L24.5127 64.432ZM30.7579 65.68H29.7379V64.432H30.7579V65.68ZM29.7379 66.796H30.7579V73H29.7379V66.796ZM32.1821 66.796H33.1421V68.104H33.1661C33.4141 67.6 33.7181 67.228 34.0781 66.988C34.4381 66.748 34.8941 66.636 35.4461 66.652V67.732C35.0381 67.732 34.6901 67.788 34.4021 67.9C34.1141 68.012 33.8821 68.176 33.7061 68.392C33.5301 68.608 33.4021 68.872 33.3221 69.184C33.2421 69.488 33.2021 69.84 33.2021 70.24V73H32.1821V66.796ZM37.4022 68.536H39.6342C40.2822 68.544 40.7542 68.412 41.0502 68.14C41.3542 67.868 41.5062 67.476 41.5062 66.964C41.5062 66.452 41.3542 66.064 41.0502 65.8C40.7542 65.528 40.2822 65.392 39.6342 65.392H37.4022V68.536ZM36.2622 64.432H40.0182C40.8822 64.432 41.5342 64.656 41.9742 65.104C42.4222 65.544 42.6462 66.164 42.6462 66.964C42.6462 67.764 42.4222 68.388 41.9742 68.836C41.5342 69.284 40.8822 69.504 40.0182 69.496H37.4022V73H36.2622V64.432ZM44.4994 69.904C44.4994 70.28 44.5474 70.616 44.6434 70.912C44.7474 71.2 44.8874 71.444 45.0634 71.644C45.2394 71.836 45.4434 71.984 45.6754 72.088C45.9154 72.192 46.1674 72.244 46.4314 72.244C46.6954 72.244 46.9434 72.192 47.1754 72.088C47.4154 71.984 47.6234 71.836 47.7994 71.644C47.9754 71.444 48.1114 71.2 48.2074 70.912C48.3114 70.616 48.3634 70.28 48.3634 69.904C48.3634 69.528 48.3114 69.196 48.2074 68.908C48.1114 68.612 47.9754 68.364 47.7994 68.164C47.6234 67.964 47.4154 67.812 47.1754 67.708C46.9434 67.604 46.6954 67.552 46.4314 67.552C46.1674 67.552 45.9154 67.604 45.6754 67.708C45.4434 67.812 45.2394 67.964 45.0634 68.164C44.8874 68.364 44.7474 68.612 44.6434 68.908C44.5474 69.196 44.4994 69.528 44.4994 69.904ZM43.4194 69.904C43.4194 69.448 43.4834 69.024 43.6114 68.632C43.7394 68.232 43.9314 67.888 44.1874 67.6C44.4434 67.304 44.7594 67.072 45.1354 66.904C45.5114 66.736 45.9434 66.652 46.4314 66.652C46.9274 66.652 47.3594 66.736 47.7274 66.904C48.1034 67.072 48.4194 67.304 48.6754 67.6C48.9314 67.888 49.1234 68.232 49.2514 68.632C49.3794 69.024 49.4434 69.448 49.4434 69.904C49.4434 70.36 49.3794 70.784 49.2514 71.176C49.1234 71.568 48.9314 71.912 48.6754 72.208C48.4194 72.496 48.1034 72.724 47.7274 72.892C47.3594 73.052 46.9274 73.132 46.4314 73.132C45.9434 73.132 45.5114 73.052 45.1354 72.892C44.7594 72.724 44.4434 72.496 44.1874 72.208C43.9314 71.912 43.7394 71.568 43.6114 71.176C43.4834 70.784 43.4194 70.36 43.4194 69.904ZM51.27 69.952C51.27 70.24 51.306 70.524 51.378 70.804C51.458 71.076 51.574 71.32 51.726 71.536C51.886 71.752 52.086 71.924 52.326 72.052C52.574 72.18 52.862 72.244 53.19 72.244C53.534 72.244 53.826 72.176 54.066 72.04C54.306 71.904 54.502 71.728 54.654 71.512C54.806 71.288 54.914 71.036 54.978 70.756C55.05 70.476 55.086 70.192 55.086 69.904C55.086 69.6 55.05 69.308 54.978 69.028C54.906 68.74 54.79 68.488 54.63 68.272C54.478 68.056 54.278 67.884 54.03 67.756C53.782 67.62 53.482 67.552 53.13 67.552C52.786 67.552 52.494 67.62 52.254 67.756C52.014 67.892 51.822 68.072 51.678 68.296C51.534 68.52 51.43 68.776 51.366 69.064C51.302 69.352 51.27 69.648 51.27 69.952ZM56.07 73H55.05V72.16H55.026C54.858 72.504 54.594 72.752 54.234 72.904C53.874 73.056 53.478 73.132 53.046 73.132C52.566 73.132 52.146 73.044 51.786 72.868C51.434 72.692 51.138 72.456 50.898 72.16C50.666 71.864 50.49 71.52 50.37 71.128C50.25 70.736 50.19 70.32 50.19 69.88C50.19 69.44 50.246 69.024 50.358 68.632C50.478 68.24 50.654 67.9 50.886 67.612C51.126 67.316 51.422 67.084 51.774 66.916C52.134 66.74 52.55 66.652 53.022 66.652C53.182 66.652 53.354 66.668 53.538 66.7C53.722 66.732 53.906 66.788 54.09 66.868C54.274 66.94 54.446 67.04 54.606 67.168C54.774 67.288 54.914 67.44 55.026 67.624H55.05V64.432H56.07V73ZM58.1433 71.044C58.1513 71.268 58.2033 71.46 58.2993 71.62C58.3953 71.772 58.5193 71.896 58.6713 71.992C58.8313 72.08 59.0073 72.144 59.1993 72.184C59.3993 72.224 59.6033 72.244 59.8113 72.244C59.9713 72.244 60.1393 72.232 60.3153 72.208C60.4913 72.184 60.6513 72.14 60.7953 72.076C60.9473 72.012 61.0713 71.92 61.1673 71.8C61.2633 71.672 61.3113 71.512 61.3113 71.32C61.3113 71.056 61.2113 70.856 61.0113 70.72C60.8113 70.584 60.5593 70.476 60.2553 70.396C59.9593 70.308 59.6353 70.232 59.2833 70.168C58.9313 70.096 58.6033 70 58.2993 69.88C58.0033 69.752 57.7553 69.576 57.5553 69.352C57.3553 69.128 57.2553 68.816 57.2553 68.416C57.2553 68.104 57.3233 67.836 57.4593 67.612C57.6033 67.388 57.7833 67.208 57.9993 67.072C58.2233 66.928 58.4713 66.824 58.7433 66.76C59.0233 66.688 59.2993 66.652 59.5713 66.652C59.9233 66.652 60.2473 66.684 60.5433 66.748C60.8393 66.804 61.0993 66.908 61.3233 67.06C61.5553 67.204 61.7393 67.404 61.8753 67.66C62.0113 67.908 62.0913 68.22 62.1153 68.596H61.0953C61.0793 68.396 61.0273 68.232 60.9393 68.104C60.8513 67.968 60.7393 67.86 60.6033 67.78C60.4673 67.7 60.3153 67.644 60.1473 67.612C59.9873 67.572 59.8233 67.552 59.6553 67.552C59.5033 67.552 59.3473 67.564 59.1873 67.588C59.0353 67.612 58.8953 67.656 58.7673 67.72C58.6393 67.776 58.5353 67.856 58.4553 67.96C58.3753 68.056 58.3353 68.184 58.3353 68.344C58.3353 68.52 58.3953 68.668 58.5153 68.788C58.6433 68.9 58.8033 68.996 58.9953 69.076C59.1873 69.148 59.4033 69.212 59.6433 69.268C59.8833 69.316 60.1233 69.368 60.3633 69.424C60.6193 69.48 60.8673 69.548 61.1073 69.628C61.3553 69.708 61.5713 69.816 61.7553 69.952C61.9473 70.08 62.0993 70.244 62.2113 70.444C62.3313 70.644 62.3913 70.892 62.3913 71.188C62.3913 71.564 62.3113 71.876 62.1513 72.124C61.9993 72.372 61.7953 72.572 61.5393 72.724C61.2913 72.876 61.0073 72.98 60.6873 73.036C60.3753 73.1 60.0633 73.132 59.7513 73.132C59.4073 73.132 59.0793 73.096 58.7673 73.024C58.4553 72.952 58.1793 72.836 57.9393 72.676C57.6993 72.508 57.5073 72.292 57.3633 72.028C57.2193 71.756 57.1393 71.428 57.1233 71.044H58.1433ZM1.85878 83.504C1.83478 83.072 1.87878 82.672 1.99078 82.304C2.10278 81.936 2.27478 81.62 2.50678 81.356C2.74678 81.084 3.04278 80.872 3.39478 80.72C3.74678 80.568 4.14678 80.492 4.59478 80.492C4.96278 80.492 5.30678 80.548 5.62678 80.66C5.95478 80.764 6.23878 80.92 6.47878 81.128C6.71878 81.328 6.90678 81.58 7.04278 81.884C7.18678 82.188 7.25878 82.54 7.25878 82.94C7.25878 83.316 7.19878 83.648 7.07878 83.936C6.96678 84.224 6.81478 84.484 6.62278 84.716C6.43078 84.94 6.21078 85.144 5.96278 85.328C5.71478 85.512 5.45878 85.688 5.19478 85.856C4.93078 86.016 4.66678 86.176 4.40278 86.336C4.13878 86.488 3.89478 86.652 3.67078 86.828C3.45478 87.004 3.26678 87.196 3.10678 87.404C2.95478 87.604 2.85478 87.836 2.80678 88.1H7.17478V89H1.61878C1.65878 88.496 1.74678 88.068 1.88278 87.716C2.02678 87.356 2.20678 87.044 2.42278 86.78C2.63878 86.516 2.88278 86.284 3.15478 86.084C3.42678 85.884 3.71078 85.696 4.00678 85.52C4.36678 85.296 4.68278 85.092 4.95478 84.908C5.22678 84.716 5.45078 84.524 5.62678 84.332C5.81078 84.14 5.94678 83.932 6.03478 83.708C6.13078 83.484 6.17878 83.224 6.17878 82.928C6.17878 82.696 6.13478 82.488 6.04678 82.304C5.95878 82.112 5.83878 81.948 5.68678 81.812C5.54278 81.676 5.37078 81.572 5.17078 81.5C4.97078 81.428 4.75878 81.392 4.53478 81.392C4.23878 81.392 3.98278 81.456 3.76678 81.584C3.55878 81.704 3.38678 81.864 3.25078 82.064C3.11478 82.264 3.01478 82.492 2.95078 82.748C2.89478 82.996 2.87078 83.248 2.87878 83.504H1.85878ZM8.64675 82.796H9.60675V83.78H9.63075C10.0547 83.028 10.7267 82.652 11.6467 82.652C12.0547 82.652 12.3947 82.708 12.6667 82.82C12.9387 82.932 13.1587 83.088 13.3267 83.288C13.4947 83.488 13.6107 83.728 13.6747 84.008C13.7467 84.28 13.7827 84.584 13.7827 84.92V89H12.7627V84.8C12.7627 84.416 12.6507 84.112 12.4267 83.888C12.2027 83.664 11.8947 83.552 11.5027 83.552C11.1907 83.552 10.9187 83.6 10.6867 83.696C10.4627 83.792 10.2747 83.928 10.1227 84.104C9.97075 84.28 9.85475 84.488 9.77475 84.728C9.70275 84.96 9.66675 85.216 9.66675 85.496V89H8.64675V82.796ZM15.9387 85.952C15.9387 86.24 15.9747 86.524 16.0467 86.804C16.1267 87.076 16.2427 87.32 16.3947 87.536C16.5547 87.752 16.7547 87.924 16.9947 88.052C17.2427 88.18 17.5307 88.244 17.8587 88.244C18.2027 88.244 18.4947 88.176 18.7347 88.04C18.9747 87.904 19.1707 87.728 19.3227 87.512C19.4747 87.288 19.5827 87.036 19.6467 86.756C19.7187 86.476 19.7547 86.192 19.7547 85.904C19.7547 85.6 19.7187 85.308 19.6467 85.028C19.5747 84.74 19.4587 84.488 19.2987 84.272C19.1467 84.056 18.9467 83.884 18.6987 83.756C18.4507 83.62 18.1507 83.552 17.7987 83.552C17.4547 83.552 17.1627 83.62 16.9227 83.756C16.6827 83.892 16.4907 84.072 16.3467 84.296C16.2027 84.52 16.0987 84.776 16.0347 85.064C15.9707 85.352 15.9387 85.648 15.9387 85.952ZM20.7387 89H19.7187V88.16H19.6947C19.5267 88.504 19.2627 88.752 18.9027 88.904C18.5427 89.056 18.1467 89.132 17.7147 89.132C17.2347 89.132 16.8147 89.044 16.4547 88.868C16.1027 88.692 15.8067 88.456 15.5667 88.16C15.3347 87.864 15.1587 87.52 15.0387 87.128C14.9187 86.736 14.8587 86.32 14.8587 85.88C14.8587 85.44 14.9147 85.024 15.0267 84.632C15.1467 84.24 15.3227 83.9 15.5547 83.612C15.7947 83.316 16.0907 83.084 16.4427 82.916C16.8027 82.74 17.2187 82.652 17.6907 82.652C17.8507 82.652 18.0227 82.668 18.2067 82.7C18.3907 82.732 18.5747 82.788 18.7587 82.868C18.9427 82.94 19.1147 83.04 19.2747 83.168C19.4427 83.288 19.5827 83.44 19.6947 83.624H19.7187V80.432H20.7387V89ZM31.9838 87.932C31.6478 88.38 31.2318 88.704 30.7358 88.904C30.2398 89.096 29.7398 89.192 29.2358 89.192C28.5958 89.192 28.0238 89.076 27.5198 88.844C27.0158 88.604 26.5878 88.284 26.2358 87.884C25.8838 87.484 25.6158 87.024 25.4318 86.504C25.2478 85.984 25.1558 85.444 25.1558 84.884C25.1558 84.26 25.2398 83.668 25.4078 83.108C25.5838 82.54 25.8398 82.044 26.1758 81.62C26.5198 81.196 26.9438 80.86 27.4478 80.612C27.9598 80.356 28.5558 80.228 29.2358 80.228C29.6998 80.228 30.1358 80.284 30.5438 80.396C30.9598 80.5 31.3278 80.668 31.6478 80.9C31.9758 81.132 32.2478 81.428 32.4638 81.788C32.6878 82.14 32.8398 82.568 32.9198 83.072H31.7798C31.7238 82.744 31.6198 82.464 31.4678 82.232C31.3158 81.992 31.1278 81.796 30.9038 81.644C30.6798 81.492 30.4238 81.38 30.1358 81.308C29.8558 81.228 29.5558 81.188 29.2358 81.188C28.7158 81.188 28.2678 81.292 27.8918 81.5C27.5238 81.708 27.2198 81.984 26.9798 82.328C26.7478 82.664 26.5758 83.052 26.4638 83.492C26.3518 83.924 26.2958 84.368 26.2958 84.824C26.2958 85.272 26.3598 85.704 26.4878 86.12C26.6158 86.528 26.8038 86.892 27.0518 87.212C27.2998 87.524 27.6038 87.776 27.9638 87.968C28.3318 88.152 28.7558 88.244 29.2358 88.244C29.6838 88.244 30.0798 88.172 30.4238 88.028C30.7678 87.884 31.0558 87.688 31.2878 87.44C31.5278 87.184 31.7078 86.888 31.8278 86.552C31.9478 86.208 31.9998 85.84 31.9838 85.448H29.2478V84.488H33.0038V89H32.2838L31.9838 87.932ZM38.7013 85.304C38.6853 85.064 38.6293 84.836 38.5333 84.62C38.4453 84.404 38.3213 84.22 38.1613 84.068C38.0093 83.908 37.8253 83.784 37.6093 83.696C37.4013 83.6 37.1693 83.552 36.9133 83.552C36.6493 83.552 36.4093 83.6 36.1933 83.696C35.9853 83.784 35.8053 83.908 35.6533 84.068C35.5013 84.228 35.3813 84.416 35.2933 84.632C35.2053 84.84 35.1533 85.064 35.1373 85.304H38.7013ZM39.6853 87.032C39.5493 87.728 39.2493 88.252 38.7853 88.604C38.3213 88.956 37.7373 89.132 37.0333 89.132C36.5373 89.132 36.1053 89.052 35.7373 88.892C35.3773 88.732 35.0733 88.508 34.8253 88.22C34.5773 87.932 34.3893 87.588 34.2613 87.188C34.1413 86.788 34.0733 86.352 34.0573 85.88C34.0573 85.408 34.1293 84.976 34.2733 84.584C34.4173 84.192 34.6173 83.852 34.8733 83.564C35.1373 83.276 35.4453 83.052 35.7973 82.892C36.1573 82.732 36.5493 82.652 36.9733 82.652C37.5253 82.652 37.9813 82.768 38.3413 83C38.7093 83.224 39.0013 83.512 39.2173 83.864C39.4413 84.216 39.5933 84.6 39.6733 85.016C39.7613 85.432 39.7973 85.828 39.7813 86.204H35.1373C35.1293 86.476 35.1613 86.736 35.2333 86.984C35.3053 87.224 35.4213 87.44 35.5813 87.632C35.7413 87.816 35.9453 87.964 36.1933 88.076C36.4413 88.188 36.7333 88.244 37.0693 88.244C37.5013 88.244 37.8533 88.144 38.1253 87.944C38.4053 87.744 38.5893 87.44 38.6773 87.032H39.6853ZM40.7186 82.796H41.6786V83.78H41.7026C42.1266 83.028 42.7986 82.652 43.7186 82.652C44.1266 82.652 44.4666 82.708 44.7386 82.82C45.0106 82.932 45.2306 83.088 45.3986 83.288C45.5666 83.488 45.6826 83.728 45.7466 84.008C45.8186 84.28 45.8546 84.584 45.8546 84.92V89H44.8346V84.8C44.8346 84.416 44.7226 84.112 44.4986 83.888C44.2746 83.664 43.9666 83.552 43.5746 83.552C43.2626 83.552 42.9906 83.6 42.7586 83.696C42.5346 83.792 42.3466 83.928 42.1946 84.104C42.0426 84.28 41.9266 84.488 41.8466 84.728C41.7746 84.96 41.7386 85.216 41.7386 85.496V89H40.7186V82.796ZM51.5746 85.304C51.5586 85.064 51.5026 84.836 51.4066 84.62C51.3186 84.404 51.1946 84.22 51.0346 84.068C50.8826 83.908 50.6986 83.784 50.4826 83.696C50.2746 83.6 50.0426 83.552 49.7866 83.552C49.5226 83.552 49.2826 83.6 49.0666 83.696C48.8586 83.784 48.6786 83.908 48.5266 84.068C48.3746 84.228 48.2546 84.416 48.1666 84.632C48.0786 84.84 48.0266 85.064 48.0106 85.304H51.5746ZM52.5586 87.032C52.4226 87.728 52.1226 88.252 51.6586 88.604C51.1946 88.956 50.6106 89.132 49.9066 89.132C49.4106 89.132 48.9786 89.052 48.6106 88.892C48.2506 88.732 47.9466 88.508 47.6986 88.22C47.4506 87.932 47.2626 87.588 47.1346 87.188C47.0146 86.788 46.9466 86.352 46.9306 85.88C46.9306 85.408 47.0026 84.976 47.1466 84.584C47.2906 84.192 47.4906 83.852 47.7466 83.564C48.0106 83.276 48.3186 83.052 48.6706 82.892C49.0306 82.732 49.4226 82.652 49.8466 82.652C50.3986 82.652 50.8546 82.768 51.2146 83C51.5826 83.224 51.8746 83.512 52.0906 83.864C52.3146 84.216 52.4666 84.6 52.5466 85.016C52.6346 85.432 52.6706 85.828 52.6546 86.204H48.0106C48.0026 86.476 48.0346 86.736 48.1066 86.984C48.1786 87.224 48.2946 87.44 48.4546 87.632C48.6146 87.816 48.8186 87.964 49.0666 88.076C49.3146 88.188 49.6066 88.244 49.9426 88.244C50.3746 88.244 50.7266 88.144 50.9986 87.944C51.2786 87.744 51.4626 87.44 51.5506 87.032H52.5586ZM53.5559 82.796H54.5159V84.104H54.5399C54.7879 83.6 55.0919 83.228 55.4519 82.988C55.8119 82.748 56.2679 82.636 56.8199 82.652V83.732C56.4119 83.732 56.0639 83.788 55.7759 83.9C55.4879 84.012 55.2559 84.176 55.0799 84.392C54.9039 84.608 54.7759 84.872 54.6959 85.184C54.6159 85.488 54.5759 85.84 54.5759 86.24V89H53.5559V82.796ZM62.964 88.976C62.788 89.08 62.544 89.132 62.232 89.132C61.968 89.132 61.756 89.06 61.596 88.916C61.444 88.764 61.368 88.52 61.368 88.184C61.088 88.52 60.76 88.764 60.384 88.916C60.016 89.06 59.616 89.132 59.184 89.132C58.904 89.132 58.636 89.1 58.38 89.036C58.132 88.972 57.916 88.872 57.732 88.736C57.548 88.6 57.4 88.424 57.288 88.208C57.184 87.984 57.132 87.716 57.132 87.404C57.132 87.052 57.192 86.764 57.312 86.54C57.432 86.316 57.588 86.136 57.78 86C57.98 85.856 58.204 85.748 58.452 85.676C58.708 85.604 58.968 85.544 59.232 85.496C59.512 85.44 59.776 85.4 60.024 85.376C60.28 85.344 60.504 85.304 60.696 85.256C60.888 85.2 61.04 85.124 61.152 85.028C61.264 84.924 61.32 84.776 61.32 84.584C61.32 84.36 61.276 84.18 61.188 84.044C61.108 83.908 61 83.804 60.864 83.732C60.736 83.66 60.588 83.612 60.42 83.588C60.26 83.564 60.1 83.552 59.94 83.552C59.508 83.552 59.148 83.636 58.86 83.804C58.572 83.964 58.416 84.272 58.392 84.728H57.372C57.388 84.344 57.468 84.02 57.612 83.756C57.756 83.492 57.948 83.28 58.188 83.12C58.428 82.952 58.7 82.832 59.004 82.76C59.316 82.688 59.648 82.652 60 82.652C60.28 82.652 60.556 82.672 60.828 82.712C61.108 82.752 61.36 82.836 61.584 82.964C61.808 83.084 61.988 83.256 62.124 83.48C62.26 83.704 62.328 83.996 62.328 84.356V87.548C62.328 87.788 62.34 87.964 62.364 88.076C62.396 88.188 62.492 88.244 62.652 88.244C62.74 88.244 62.844 88.224 62.964 88.184V88.976ZM61.308 85.796C61.18 85.892 61.012 85.964 60.804 86.012C60.596 86.052 60.376 86.088 60.144 86.12C59.92 86.144 59.692 86.176 59.46 86.216C59.228 86.248 59.02 86.304 58.836 86.384C58.652 86.464 58.5 86.58 58.38 86.732C58.268 86.876 58.212 87.076 58.212 87.332C58.212 87.5 58.244 87.644 58.308 87.764C58.38 87.876 58.468 87.968 58.572 88.04C58.684 88.112 58.812 88.164 58.956 88.196C59.1 88.228 59.252 88.244 59.412 88.244C59.748 88.244 60.036 88.2 60.276 88.112C60.516 88.016 60.712 87.9 60.864 87.764C61.016 87.62 61.128 87.468 61.2 87.308C61.272 87.14 61.308 86.984 61.308 86.84V85.796ZM65.2093 82.796H66.4453V83.696H65.2093V87.548C65.2093 87.668 65.2173 87.764 65.2333 87.836C65.2573 87.908 65.2973 87.964 65.3533 88.004C65.4093 88.044 65.4853 88.072 65.5813 88.088C65.6853 88.096 65.8173 88.1 65.9773 88.1H66.4453V89H65.6653C65.4013 89 65.1733 88.984 64.9813 88.952C64.7973 88.912 64.6453 88.844 64.5253 88.748C64.4133 88.652 64.3293 88.516 64.2733 88.34C64.2173 88.164 64.1893 87.932 64.1893 87.644V83.696H63.1333V82.796H64.1893V80.936H65.2093V82.796ZM68.5385 81.68H67.5185V80.432H68.5385V81.68ZM67.5185 82.796H68.5385V89H67.5185V82.796ZM70.7426 85.904C70.7426 86.28 70.7906 86.616 70.8866 86.912C70.9906 87.2 71.1306 87.444 71.3066 87.644C71.4826 87.836 71.6866 87.984 71.9186 88.088C72.1586 88.192 72.4106 88.244 72.6746 88.244C72.9386 88.244 73.1866 88.192 73.4186 88.088C73.6586 87.984 73.8666 87.836 74.0426 87.644C74.2186 87.444 74.3546 87.2 74.4506 86.912C74.5546 86.616 74.6066 86.28 74.6066 85.904C74.6066 85.528 74.5546 85.196 74.4506 84.908C74.3546 84.612 74.2186 84.364 74.0426 84.164C73.8666 83.964 73.6586 83.812 73.4186 83.708C73.1866 83.604 72.9386 83.552 72.6746 83.552C72.4106 83.552 72.1586 83.604 71.9186 83.708C71.6866 83.812 71.4826 83.964 71.3066 84.164C71.1306 84.364 70.9906 84.612 70.8866 84.908C70.7906 85.196 70.7426 85.528 70.7426 85.904ZM69.6626 85.904C69.6626 85.448 69.7266 85.024 69.8546 84.632C69.9826 84.232 70.1746 83.888 70.4306 83.6C70.6866 83.304 71.0026 83.072 71.3786 82.904C71.7546 82.736 72.1866 82.652 72.6746 82.652C73.1706 82.652 73.6026 82.736 73.9706 82.904C74.3466 83.072 74.6626 83.304 74.9186 83.6C75.1746 83.888 75.3666 84.232 75.4946 84.632C75.6226 85.024 75.6866 85.448 75.6866 85.904C75.6866 86.36 75.6226 86.784 75.4946 87.176C75.3666 87.568 75.1746 87.912 74.9186 88.208C74.6626 88.496 74.3466 88.724 73.9706 88.892C73.6026 89.052 73.1706 89.132 72.6746 89.132C72.1866 89.132 71.7546 89.052 71.3786 88.892C71.0026 88.724 70.6866 88.496 70.4306 88.208C70.1746 87.912 69.9826 87.568 69.8546 87.176C69.7266 86.784 69.6626 86.36 69.6626 85.904ZM76.7693 82.796H77.7293V83.78H77.7533C78.1773 83.028 78.8493 82.652 79.7693 82.652C80.1773 82.652 80.5173 82.708 80.7893 82.82C81.0613 82.932 81.2813 83.088 81.4493 83.288C81.6173 83.488 81.7333 83.728 81.7973 84.008C81.8693 84.28 81.9053 84.584 81.9053 84.92V89H80.8853V84.8C80.8853 84.416 80.7733 84.112 80.5493 83.888C80.3253 83.664 80.0173 83.552 79.6253 83.552C79.3133 83.552 79.0413 83.6 78.8093 83.696C78.5853 83.792 78.3973 83.928 78.2453 84.104C78.0933 84.28 77.9773 84.488 77.8973 84.728C77.8253 84.96 77.7893 85.216 77.7893 85.496V89H76.7693V82.796Z" fill="#1D1D1F"/>
<defs>
<clipPath id="clip0_1_21">
<rect width="32" height="54" fill="white" transform="translate(26.7949)"/>
</clipPath>
</defs>
</svg>
