<svg width="70" height="77" viewBox="0 0 70 77" fill="none" xmlns="http://www.w3.org/2000/svg">
<g clip-path="url(#clip0_1_45)">
<path d="M45.7575 19.9239C42.6469 17.309 38.6799 15.9356 34.6184 16.0675C30.6007 15.9717 26.6836 17.33 23.5877 19.8926C24.8536 18.1515 26.5119 16.7331 28.4283 15.7524C30.3446 14.7718 32.465 14.2564 34.6177 14.2481L34.6501 14.2471L34.6824 14.2481C36.8405 14.2791 38.9624 14.8073 40.8832 15.7917C42.804 16.7761 44.472 18.1901 45.7575 19.9239ZM51.6483 29.3754C51.646 29.2536 51.6418 29.1341 51.6375 29.0148L49.5135 29.1264C49.5165 29.4019 49.5146 29.6101 49.5254 29.7405C49.5404 29.9256 49.581 29.9696 49.7327 29.9605C49.8844 29.9514 50.0173 29.948 50.0173 29.948C50.0173 29.948 50.0203 30.6197 50.0203 31.3933C50.0023 31.6253 50.0731 31.8555 50.2184 32.0374C50.1931 32.0235 50.1724 32.0114 50.1454 31.9967C49.7931 31.8486 49.4023 31.8192 49.0318 31.9129C48.7492 31.9993 48.4763 32.115 48.2177 32.258C48.3288 33.0117 48.1701 33.7804 47.7697 34.4286C47.0257 35.9412 43.2958 43.9478 41.4466 46.5123C41.0422 47.153 40.5135 47.7063 39.8918 48.1394C39.9119 48.3888 39.9506 48.6364 40.0073 48.8801C40.096 49.1566 40.2573 49.4043 40.4743 49.5973C40.6912 49.7902 40.956 49.9215 41.241 49.9774C42.7697 50.2284 44.1919 48.3409 44.7374 47.535C45.2829 46.7291 46.1934 45.2701 48.0974 41.7573C49.6968 38.8065 51.3458 35.1737 51.2714 33.8348C51.2434 33.3994 51.1151 32.9763 50.8964 32.5988C50.795 32.4455 50.6637 32.3142 50.5105 32.2127C50.5503 32.2223 50.5909 32.2278 50.6318 32.229C50.785 32.229 51.2524 32.1299 51.2524 31.4151C51.2524 30.7003 51.2354 29.8827 51.2354 29.8827C51.2354 29.8827 51.2678 29.8801 51.4659 29.8708C51.6176 29.8637 51.6506 29.7838 51.6503 29.5656C51.6501 29.5086 51.6501 29.445 51.6483 29.3754ZM21.7423 22.0283C22.0355 21.427 22.2878 20.8067 22.4976 20.1715C23.983 17.1633 28.725 13.4063 34.617 13.4063L34.6501 13.4053L34.6827 13.4063C40.5749 13.4063 45.3167 17.1633 46.8027 20.1715C47.0123 20.8067 47.2645 21.4271 47.5577 22.0283C48.6739 23.9374 49.3335 26.0787 49.4851 28.285L51.5898 28.1744C51.4212 25.5058 50.5953 22.9203 49.1856 20.6481C48.8946 20.2468 48.5811 19.8624 48.2464 19.4968C46.7674 17.2447 44.756 15.392 42.3902 14.1028C40.0244 12.8135 37.3772 12.1274 34.683 12.1053L34.6501 12.1061L34.6175 12.1053C31.9232 12.1273 29.276 12.8134 26.9101 14.1026C24.5443 15.3919 22.5328 17.2446 21.0539 19.4968C20.719 19.8623 20.4054 20.2467 20.1145 20.6481C18.7045 22.9207 17.8785 25.5067 17.7101 28.1758L19.8149 28.2863C19.9663 26.0796 20.6259 23.9378 21.7423 22.0283ZM28.9764 37.622C27.8686 35.3849 26.6082 33.2266 25.2042 31.1625C24.8667 30.772 24.4093 30.5044 23.9035 30.4014C23.3978 30.2984 22.8722 30.3658 22.4088 30.5932C22.2813 30.6857 22.1605 30.7872 22.0474 30.8968C21.3965 31.6638 21.4922 32.5638 22.1034 33.8068C22.8474 35.3194 26.5773 43.326 28.4265 45.8906C29.3441 47.1629 30.0756 47.8944 31.2165 47.7952C31.5754 47.7651 31.913 47.6124 32.1727 47.3628C32.5298 46.8898 32.7185 46.311 32.7086 45.7184C32.6192 44.8502 32.3307 44.0144 31.8655 43.276C31.7412 43.0277 29.4475 38.5891 28.9764 37.622ZM27.7914 46.512C25.9422 43.9476 22.2121 35.941 21.4682 34.4284C21.0677 33.7803 20.909 33.0115 21.0201 32.2578C20.7614 32.1148 20.4885 31.9992 20.2059 31.9127C19.8471 31.8251 19.4699 31.8503 19.1259 31.9847C19.2376 31.8084 19.2912 31.6015 19.2791 31.3932C19.2791 30.6195 19.2821 29.9479 19.2821 29.9479C19.2821 29.9479 19.4153 29.951 19.567 29.9603C19.7187 29.9696 19.7591 29.9257 19.7743 29.7403C19.7849 29.6103 19.7831 29.4023 19.786 29.1274L17.662 29.0158C17.6576 29.1348 17.6534 29.2538 17.6512 29.3751C17.6493 29.4751 17.6512 29.5628 17.6524 29.6358C17.6558 29.8014 17.7024 29.8642 17.8339 29.8703C18.0319 29.8796 18.0645 29.8822 18.0645 29.8822C18.0645 29.8822 18.0472 30.7 18.0472 31.4149C18.0472 32.1298 18.5146 32.2288 18.6678 32.2288C18.6778 32.2288 18.693 32.2272 18.7069 32.2261C18.5625 32.3257 18.4385 32.4522 18.3417 32.5986C18.1232 32.9762 17.9949 33.3992 17.9668 33.8346C17.8923 35.1735 19.5414 38.8063 21.1408 41.7571C23.0447 45.2699 23.9551 46.7288 24.5008 47.5347C25.0465 48.3406 26.4684 50.2282 27.9971 49.9772C28.282 49.9213 28.5468 49.7901 28.7637 49.5971C28.9807 49.4041 29.1419 49.1565 29.2306 48.88C29.2875 48.6363 29.3261 48.3887 29.3462 48.1393C28.7245 47.7062 28.1958 47.1528 27.7914 46.512ZM47.1347 33.8065C47.7459 32.5638 47.8416 31.6638 47.1907 30.8965C47.0775 30.7869 46.9567 30.6855 46.8293 30.5929C46.3659 30.3655 45.8403 30.2981 45.3345 30.4011C44.8287 30.5041 44.3713 30.7717 44.0337 31.1622C42.6298 33.2264 41.3695 35.3846 40.2616 37.6217C39.7904 38.5888 37.4967 43.0274 37.3728 43.2753C36.9077 44.0138 36.6192 44.8496 36.5297 45.7178C36.5198 46.3104 36.7085 46.8893 37.0658 47.3622C37.3254 47.6119 37.663 47.7646 38.0219 47.7946C39.1627 47.8938 39.894 47.1624 40.8119 45.89C42.6607 43.3257 46.3908 35.3191 47.1347 33.8065Z" fill="#1D1D1F"/>
</g>
<path d="M2.67606 69.46H5.58006L4.15206 65.464H4.12806L2.67606 69.46ZM3.52806 64.432H4.78806L8.13606 73H6.87606L5.94006 70.42H2.31606L1.35606 73H0.192061L3.52806 64.432ZM9.77331 65.68H8.75331V64.432H9.77331V65.68ZM8.75331 66.796H9.77331V73H8.75331V66.796ZM11.1975 66.796H12.1575V68.104H12.1815C12.4295 67.6 12.7335 67.228 13.0935 66.988C13.4535 66.748 13.9095 66.636 14.4615 66.652V67.732C14.0535 67.732 13.7055 67.788 13.4175 67.9C13.1295 68.012 12.8975 68.176 12.7215 68.392C12.5455 68.608 12.4175 68.872 12.3375 69.184C12.2575 69.488 12.2175 69.84 12.2175 70.24V73H11.1975V66.796ZM16.4176 68.536H18.6496C19.2976 68.544 19.7696 68.412 20.0656 68.14C20.3696 67.868 20.5216 67.476 20.5216 66.964C20.5216 66.452 20.3696 66.064 20.0656 65.8C19.7696 65.528 19.2976 65.392 18.6496 65.392H16.4176V68.536ZM15.2776 64.432H19.0336C19.8976 64.432 20.5496 64.656 20.9896 65.104C21.4376 65.544 21.6616 66.164 21.6616 66.964C21.6616 67.764 21.4376 68.388 20.9896 68.836C20.5496 69.284 19.8976 69.504 19.0336 69.496H16.4176V73H15.2776V64.432ZM23.5148 69.904C23.5148 70.28 23.5628 70.616 23.6588 70.912C23.7628 71.2 23.9028 71.444 24.0788 71.644C24.2548 71.836 24.4588 71.984 24.6908 72.088C24.9308 72.192 25.1828 72.244 25.4468 72.244C25.7108 72.244 25.9588 72.192 26.1908 72.088C26.4308 71.984 26.6388 71.836 26.8148 71.644C26.9908 71.444 27.1268 71.2 27.2228 70.912C27.3268 70.616 27.3788 70.28 27.3788 69.904C27.3788 69.528 27.3268 69.196 27.2228 68.908C27.1268 68.612 26.9908 68.364 26.8148 68.164C26.6388 67.964 26.4308 67.812 26.1908 67.708C25.9588 67.604 25.7108 67.552 25.4468 67.552C25.1828 67.552 24.9308 67.604 24.6908 67.708C24.4588 67.812 24.2548 67.964 24.0788 68.164C23.9028 68.364 23.7628 68.612 23.6588 68.908C23.5628 69.196 23.5148 69.528 23.5148 69.904ZM22.4348 69.904C22.4348 69.448 22.4988 69.024 22.6268 68.632C22.7548 68.232 22.9468 67.888 23.2028 67.6C23.4588 67.304 23.7748 67.072 24.1508 66.904C24.5268 66.736 24.9588 66.652 25.4468 66.652C25.9428 66.652 26.3748 66.736 26.7428 66.904C27.1188 67.072 27.4348 67.304 27.6908 67.6C27.9468 67.888 28.1388 68.232 28.2668 68.632C28.3948 69.024 28.4588 69.448 28.4588 69.904C28.4588 70.36 28.3948 70.784 28.2668 71.176C28.1388 71.568 27.9468 71.912 27.6908 72.208C27.4348 72.496 27.1188 72.724 26.7428 72.892C26.3748 73.052 25.9428 73.132 25.4468 73.132C24.9588 73.132 24.5268 73.052 24.1508 72.892C23.7748 72.724 23.4588 72.496 23.2028 72.208C22.9468 71.912 22.7548 71.568 22.6268 71.176C22.4988 70.784 22.4348 70.36 22.4348 69.904ZM30.2854 69.952C30.2854 70.24 30.3214 70.524 30.3934 70.804C30.4734 71.076 30.5894 71.32 30.7414 71.536C30.9014 71.752 31.1014 71.924 31.3414 72.052C31.5894 72.18 31.8774 72.244 32.2054 72.244C32.5494 72.244 32.8414 72.176 33.0814 72.04C33.3214 71.904 33.5174 71.728 33.6694 71.512C33.8214 71.288 33.9294 71.036 33.9934 70.756C34.0654 70.476 34.1014 70.192 34.1014 69.904C34.1014 69.6 34.0654 69.308 33.9934 69.028C33.9214 68.74 33.8054 68.488 33.6454 68.272C33.4934 68.056 33.2934 67.884 33.0454 67.756C32.7974 67.62 32.4974 67.552 32.1454 67.552C31.8014 67.552 31.5094 67.62 31.2694 67.756C31.0294 67.892 30.8374 68.072 30.6934 68.296C30.5494 68.52 30.4454 68.776 30.3814 69.064C30.3174 69.352 30.2854 69.648 30.2854 69.952ZM35.0854 73H34.0654V72.16H34.0414C33.8734 72.504 33.6094 72.752 33.2494 72.904C32.8894 73.056 32.4934 73.132 32.0614 73.132C31.5814 73.132 31.1614 73.044 30.8014 72.868C30.4494 72.692 30.1534 72.456 29.9134 72.16C29.6814 71.864 29.5054 71.52 29.3854 71.128C29.2654 70.736 29.2054 70.32 29.2054 69.88C29.2054 69.44 29.2614 69.024 29.3734 68.632C29.4934 68.24 29.6694 67.9 29.9014 67.612C30.1414 67.316 30.4374 67.084 30.7894 66.916C31.1494 66.74 31.5654 66.652 32.0374 66.652C32.1974 66.652 32.3694 66.668 32.5534 66.7C32.7374 66.732 32.9214 66.788 33.1054 66.868C33.2894 66.94 33.4614 67.04 33.6214 67.168C33.7894 67.288 33.9294 67.44 34.0414 67.624H34.0654V64.432H35.0854V73ZM37.1587 71.044C37.1667 71.268 37.2187 71.46 37.3147 71.62C37.4107 71.772 37.5347 71.896 37.6867 71.992C37.8467 72.08 38.0227 72.144 38.2147 72.184C38.4147 72.224 38.6187 72.244 38.8267 72.244C38.9867 72.244 39.1547 72.232 39.3307 72.208C39.5067 72.184 39.6667 72.14 39.8107 72.076C39.9627 72.012 40.0867 71.92 40.1827 71.8C40.2787 71.672 40.3267 71.512 40.3267 71.32C40.3267 71.056 40.2267 70.856 40.0267 70.72C39.8267 70.584 39.5747 70.476 39.2707 70.396C38.9747 70.308 38.6507 70.232 38.2987 70.168C37.9467 70.096 37.6187 70 37.3147 69.88C37.0187 69.752 36.7707 69.576 36.5707 69.352C36.3707 69.128 36.2707 68.816 36.2707 68.416C36.2707 68.104 36.3387 67.836 36.4747 67.612C36.6187 67.388 36.7987 67.208 37.0147 67.072C37.2387 66.928 37.4867 66.824 37.7587 66.76C38.0387 66.688 38.3147 66.652 38.5867 66.652C38.9387 66.652 39.2627 66.684 39.5587 66.748C39.8547 66.804 40.1147 66.908 40.3387 67.06C40.5707 67.204 40.7547 67.404 40.8907 67.66C41.0267 67.908 41.1067 68.22 41.1307 68.596H40.1107C40.0947 68.396 40.0427 68.232 39.9547 68.104C39.8667 67.968 39.7547 67.86 39.6187 67.78C39.4827 67.7 39.3307 67.644 39.1627 67.612C39.0027 67.572 38.8387 67.552 38.6707 67.552C38.5187 67.552 38.3627 67.564 38.2027 67.588C38.0507 67.612 37.9107 67.656 37.7827 67.72C37.6547 67.776 37.5507 67.856 37.4707 67.96C37.3907 68.056 37.3507 68.184 37.3507 68.344C37.3507 68.52 37.4107 68.668 37.5307 68.788C37.6587 68.9 37.8187 68.996 38.0107 69.076C38.2027 69.148 38.4187 69.212 38.6587 69.268C38.8987 69.316 39.1387 69.368 39.3787 69.424C39.6347 69.48 39.8827 69.548 40.1227 69.628C40.3707 69.708 40.5867 69.816 40.7707 69.952C40.9627 70.08 41.1147 70.244 41.2267 70.444C41.3467 70.644 41.4067 70.892 41.4067 71.188C41.4067 71.564 41.3267 71.876 41.1667 72.124C41.0147 72.372 40.8107 72.572 40.5547 72.724C40.3067 72.876 40.0227 72.98 39.7027 73.036C39.3907 73.1 39.0787 73.132 38.7667 73.132C38.4227 73.132 38.0947 73.096 37.7827 73.024C37.4707 72.952 37.1947 72.836 36.9547 72.676C36.7147 72.508 36.5227 72.292 36.3787 72.028C36.2347 71.756 36.1547 71.428 36.1387 71.044H37.1587ZM45.8266 64.432H47.3866L50.0866 71.632L52.7986 64.432H54.3586V73H53.2786V65.872H53.2546L50.5786 73H49.6066L46.9306 65.872H46.9066V73H45.8266V64.432ZM61.4637 72.976C61.2877 73.08 61.0437 73.132 60.7317 73.132C60.4677 73.132 60.2557 73.06 60.0957 72.916C59.9437 72.764 59.8677 72.52 59.8677 72.184C59.5877 72.52 59.2597 72.764 58.8837 72.916C58.5157 73.06 58.1157 73.132 57.6837 73.132C57.4037 73.132 57.1357 73.1 56.8797 73.036C56.6317 72.972 56.4157 72.872 56.2317 72.736C56.0477 72.6 55.8997 72.424 55.7877 72.208C55.6837 71.984 55.6317 71.716 55.6317 71.404C55.6317 71.052 55.6917 70.764 55.8117 70.54C55.9317 70.316 56.0877 70.136 56.2797 70C56.4797 69.856 56.7037 69.748 56.9517 69.676C57.2077 69.604 57.4677 69.544 57.7317 69.496C58.0117 69.44 58.2757 69.4 58.5237 69.376C58.7797 69.344 59.0037 69.304 59.1957 69.256C59.3877 69.2 59.5397 69.124 59.6517 69.028C59.7637 68.924 59.8197 68.776 59.8197 68.584C59.8197 68.36 59.7757 68.18 59.6877 68.044C59.6077 67.908 59.4997 67.804 59.3637 67.732C59.2357 67.66 59.0877 67.612 58.9197 67.588C58.7597 67.564 58.5997 67.552 58.4397 67.552C58.0077 67.552 57.6477 67.636 57.3597 67.804C57.0717 67.964 56.9157 68.272 56.8917 68.728H55.8717C55.8877 68.344 55.9677 68.02 56.1117 67.756C56.2557 67.492 56.4477 67.28 56.6877 67.12C56.9277 66.952 57.1997 66.832 57.5037 66.76C57.8157 66.688 58.1477 66.652 58.4997 66.652C58.7797 66.652 59.0557 66.672 59.3277 66.712C59.6077 66.752 59.8597 66.836 60.0837 66.964C60.3077 67.084 60.4877 67.256 60.6237 67.48C60.7597 67.704 60.8277 67.996 60.8277 68.356V71.548C60.8277 71.788 60.8397 71.964 60.8637 72.076C60.8957 72.188 60.9917 72.244 61.1517 72.244C61.2397 72.244 61.3437 72.224 61.4637 72.184V72.976ZM59.8077 69.796C59.6797 69.892 59.5117 69.964 59.3037 70.012C59.0957 70.052 58.8757 70.088 58.6437 70.12C58.4197 70.144 58.1917 70.176 57.9597 70.216C57.7277 70.248 57.5197 70.304 57.3357 70.384C57.1517 70.464 56.9997 70.58 56.8797 70.732C56.7677 70.876 56.7117 71.076 56.7117 71.332C56.7117 71.5 56.7437 71.644 56.8077 71.764C56.8797 71.876 56.9677 71.968 57.0717 72.04C57.1837 72.112 57.3117 72.164 57.4557 72.196C57.5997 72.228 57.7517 72.244 57.9117 72.244C58.2477 72.244 58.5357 72.2 58.7757 72.112C59.0157 72.016 59.2117 71.9 59.3637 71.764C59.5157 71.62 59.6277 71.468 59.6997 71.308C59.7717 71.14 59.8077 70.984 59.8077 70.84V69.796ZM63.961 69.736L61.801 66.796H63.109L64.597 68.968L66.145 66.796H67.369L65.233 69.652L67.633 73H66.325L64.597 70.432L62.869 73H61.633L63.961 69.736Z" fill="#1D1D1F"/>
<defs>
<clipPath id="clip0_1_45">
<rect width="34" height="54" fill="white" transform="translate(17.6504)"/>
</clipPath>
</defs>
</svg>
