<svg width="84" height="93" viewBox="0 0 84 93" fill="none" xmlns="http://www.w3.org/2000/svg">
<g clip-path="url(#clip0_1_29)">
<path d="M30.984 40.1211L30.9894 40.1239C30.9821 40.1245 30.9756 40.1187 30.984 40.1211ZM30.9926 40.1232L30.9894 40.1239L30.9926 40.1277L30.9961 40.1371L31.0036 40.1138L30.9961 40.1211L30.9926 40.1232ZM40.0583 31.7341C39.925 33.1192 39.3126 34.4144 38.3266 35.3964C38.2832 35.4464 38.2457 35.4889 38.2138 35.5264C37.6582 36.0768 37.0569 36.5791 36.4164 37.0279L36.4137 37.0313L36.3852 37.0507C36.1442 37.2269 35.894 37.3902 35.6357 37.54L35.333 37.7087C34.8327 37.9489 34.3155 38.152 33.7854 38.3165L33.7469 38.3318C33.5069 38.4131 33.2588 38.468 33.0069 38.4954C32.8128 38.528 32.6168 38.5482 32.4201 38.5559C31.8794 38.599 31.3366 38.6084 30.7947 38.584C29.6867 38.426 28.6534 37.9334 27.8329 37.1721C27.3303 36.7858 26.8925 36.3217 26.5361 35.7975C26.2451 35.4076 25.9997 34.9857 25.8045 34.54C25.7242 34.3525 25.656 34.16 25.6003 33.9637C25.4652 33.5328 25.3935 33.0845 25.3872 32.633C25.3218 31.9724 25.4564 31.3074 25.7735 30.7242C25.9617 30.3883 26.1726 30.0656 26.4048 29.7584C26.3931 29.7566 26.3782 29.7513 26.3667 29.7497C27.3574 28.3667 28.6267 27.2064 30.0929 26.3435C31.5552 25.4216 33.2536 24.944 34.982 24.9687C35.7587 24.9842 37.092 25.3635 38.812 27.387C39.7077 28.6531 40.1471 30.1857 40.0583 31.7341ZM29.969 34.8518C29.8088 34.4423 29.6028 34.0522 29.3549 33.6891C29.107 33.3315 28.8176 33.0045 28.4928 32.715C28.0152 32.3436 27.3275 32.151 27.1775 32.6467C27.1218 33.0318 27.1452 33.4242 27.2463 33.7999C27.3474 34.1756 27.5242 34.5267 27.7657 34.8318C27.9674 35.1738 28.237 35.471 28.5579 35.7048C28.8789 35.9386 29.2443 36.1042 29.6317 36.1913C30.1091 36.23 30.2057 35.4471 29.969 34.8518ZM37.5137 28.1771L37.4637 28.1086C37.3151 27.9065 37.0925 27.7715 36.8447 27.733C36.5968 27.6945 36.3438 27.7557 36.1409 27.9031L33.8357 29.5886C33.6337 29.7372 33.4987 29.9598 33.4601 30.2076C33.4216 30.4555 33.4828 30.7085 33.6302 30.9114L33.6802 30.9798C33.8288 31.1818 34.0514 31.3169 34.2992 31.3554C34.5471 31.3939 34.8001 31.3327 35.003 31.1853L37.3082 29.5C37.5103 29.3514 37.6454 29.1288 37.6839 28.8809C37.7224 28.633 37.6612 28.38 37.5137 28.1771ZM30.6357 48.5853C30.6602 48.9561 30.8199 49.3049 31.0846 49.5657C31.3493 49.8265 31.7005 49.981 32.0716 50H33.6932C34.1 49.9511 34.4756 49.7575 34.7515 49.4546C35.0273 49.1516 35.185 48.7596 35.1957 48.35V39.2355C33.7389 39.7868 32.1933 40.0659 30.6357 40.0592C30.6343 40.092 30.6357 48.1706 30.6357 48.5853ZM52.282 40.1239C52.2893 40.1245 52.2958 40.1187 52.2874 40.1211L52.282 40.1239ZM52.2753 40.1211L52.2678 40.1138L52.2753 40.1371L52.2788 40.1277L52.282 40.1239L52.2788 40.1232L52.2753 40.1211ZM57.8842 32.6326C57.878 33.0841 57.8062 33.5324 57.6711 33.9633C57.6155 34.1596 57.5473 34.3521 57.4669 34.5396C57.2719 34.9852 57.0266 35.4072 56.7357 35.7971C56.3793 36.3213 55.9415 36.7854 55.4389 37.1717C54.6185 37.933 53.5851 38.4256 52.4771 38.5836C51.9353 38.608 51.3924 38.5986 50.8517 38.5555C50.655 38.5478 50.459 38.5276 50.2649 38.495C50.013 38.4676 49.7649 38.4127 49.5249 38.3314L49.4864 38.3161C48.9564 38.1516 48.4391 37.9485 47.9388 37.7083L47.6357 37.54C47.3775 37.3904 47.1274 37.2274 46.8864 37.0514L46.8579 37.032L46.8552 37.0286C46.2147 36.5798 45.6134 36.0775 45.0578 35.5271C45.0259 35.4893 44.9884 35.4464 44.945 35.3971C43.959 34.4151 43.3466 33.1199 43.2133 31.7348C43.1245 30.1863 43.564 28.6534 44.4599 27.3873C46.1799 25.3638 47.5129 24.9845 48.2899 24.969C50.0183 24.9443 51.7168 25.4219 53.179 26.3438C54.6452 27.2067 55.9145 28.367 56.9052 29.75C56.8937 29.7516 56.8788 29.7569 56.8671 29.7587C57.0993 30.0659 57.3102 30.3886 57.4984 30.7245C57.8152 31.3075 57.9496 31.9723 57.8842 32.6326ZM45.9632 29.5L48.2686 31.1855C48.4715 31.3329 48.7245 31.3941 48.9724 31.3556C49.2203 31.3171 49.4428 31.182 49.5914 30.98L49.6414 30.9116C49.7889 30.7086 49.85 30.4555 49.8115 30.2077C49.7729 29.9598 49.6378 29.7372 49.4357 29.5886L47.1302 27.9031C46.9273 27.7557 46.6743 27.6945 46.4264 27.733C46.1786 27.7715 45.956 27.9065 45.8074 28.1086L45.7574 28.1771C45.6099 28.38 45.5488 28.6331 45.5874 28.881C45.6259 29.1289 45.761 29.3514 45.9632 29.5ZM56.0939 32.6469C55.9439 32.1512 55.2562 32.3438 54.7786 32.7152C54.4538 33.0047 54.1644 33.3317 53.9165 33.6893C53.6686 34.0524 53.4626 34.4425 53.3024 34.852C53.0659 35.4473 53.1624 36.2305 53.6397 36.192C54.0272 36.1048 54.3927 35.9391 54.7136 35.7052C55.0345 35.4712 55.3041 35.174 55.5057 34.8318C55.7472 34.5267 55.924 34.1756 56.0251 33.7999C56.1263 33.4242 56.1497 33.032 56.0939 32.6469ZM52.6357 40.0592C51.0781 40.0659 49.5325 39.7868 48.0757 39.2355V48.35C48.0864 48.7596 48.2441 49.1516 48.52 49.4546C48.7958 49.7575 49.1714 49.9511 49.5782 50H51.1998C51.5633 49.9599 51.9027 49.7985 52.1632 49.5418C52.4238 49.2851 52.5902 48.9482 52.6357 48.5853V40.0592Z" fill="#1D1D1F"/>
</g>
<path d="M23.1607 69.46H26.0647L24.6367 65.464H24.6127L23.1607 69.46ZM24.0127 64.432H25.2727L28.6207 73H27.3607L26.4247 70.42H22.8007L21.8407 73H20.6767L24.0127 64.432ZM30.2579 65.68H29.2379V64.432H30.2579V65.68ZM29.2379 66.796H30.2579V73H29.2379V66.796ZM31.6821 66.796H32.6421V68.104H32.6661C32.9141 67.6 33.2181 67.228 33.5781 66.988C33.9381 66.748 34.3941 66.636 34.9461 66.652V67.732C34.5381 67.732 34.1901 67.788 33.9021 67.9C33.6141 68.012 33.3821 68.176 33.2061 68.392C33.0301 68.608 32.9021 68.872 32.8221 69.184C32.7421 69.488 32.7021 69.84 32.7021 70.24V73H31.6821V66.796ZM36.9022 68.536H39.1342C39.7822 68.544 40.2542 68.412 40.5502 68.14C40.8542 67.868 41.0062 67.476 41.0062 66.964C41.0062 66.452 40.8542 66.064 40.5502 65.8C40.2542 65.528 39.7822 65.392 39.1342 65.392H36.9022V68.536ZM35.7622 64.432H39.5182C40.3822 64.432 41.0342 64.656 41.4742 65.104C41.9222 65.544 42.1462 66.164 42.1462 66.964C42.1462 67.764 41.9222 68.388 41.4742 68.836C41.0342 69.284 40.3822 69.504 39.5182 69.496H36.9022V73H35.7622V64.432ZM43.9994 69.904C43.9994 70.28 44.0474 70.616 44.1434 70.912C44.2474 71.2 44.3874 71.444 44.5634 71.644C44.7394 71.836 44.9434 71.984 45.1754 72.088C45.4154 72.192 45.6674 72.244 45.9314 72.244C46.1954 72.244 46.4434 72.192 46.6754 72.088C46.9154 71.984 47.1234 71.836 47.2994 71.644C47.4754 71.444 47.6114 71.2 47.7074 70.912C47.8114 70.616 47.8634 70.28 47.8634 69.904C47.8634 69.528 47.8114 69.196 47.7074 68.908C47.6114 68.612 47.4754 68.364 47.2994 68.164C47.1234 67.964 46.9154 67.812 46.6754 67.708C46.4434 67.604 46.1954 67.552 45.9314 67.552C45.6674 67.552 45.4154 67.604 45.1754 67.708C44.9434 67.812 44.7394 67.964 44.5634 68.164C44.3874 68.364 44.2474 68.612 44.1434 68.908C44.0474 69.196 43.9994 69.528 43.9994 69.904ZM42.9194 69.904C42.9194 69.448 42.9834 69.024 43.1114 68.632C43.2394 68.232 43.4314 67.888 43.6874 67.6C43.9434 67.304 44.2594 67.072 44.6354 66.904C45.0114 66.736 45.4434 66.652 45.9314 66.652C46.4274 66.652 46.8594 66.736 47.2274 66.904C47.6034 67.072 47.9194 67.304 48.1754 67.6C48.4314 67.888 48.6234 68.232 48.7514 68.632C48.8794 69.024 48.9434 69.448 48.9434 69.904C48.9434 70.36 48.8794 70.784 48.7514 71.176C48.6234 71.568 48.4314 71.912 48.1754 72.208C47.9194 72.496 47.6034 72.724 47.2274 72.892C46.8594 73.052 46.4274 73.132 45.9314 73.132C45.4434 73.132 45.0114 73.052 44.6354 72.892C44.2594 72.724 43.9434 72.496 43.6874 72.208C43.4314 71.912 43.2394 71.568 43.1114 71.176C42.9834 70.784 42.9194 70.36 42.9194 69.904ZM50.77 69.952C50.77 70.24 50.806 70.524 50.878 70.804C50.958 71.076 51.074 71.32 51.226 71.536C51.386 71.752 51.586 71.924 51.826 72.052C52.074 72.18 52.362 72.244 52.69 72.244C53.034 72.244 53.326 72.176 53.566 72.04C53.806 71.904 54.002 71.728 54.154 71.512C54.306 71.288 54.414 71.036 54.478 70.756C54.55 70.476 54.586 70.192 54.586 69.904C54.586 69.6 54.55 69.308 54.478 69.028C54.406 68.74 54.29 68.488 54.13 68.272C53.978 68.056 53.778 67.884 53.53 67.756C53.282 67.62 52.982 67.552 52.63 67.552C52.286 67.552 51.994 67.62 51.754 67.756C51.514 67.892 51.322 68.072 51.178 68.296C51.034 68.52 50.93 68.776 50.866 69.064C50.802 69.352 50.77 69.648 50.77 69.952ZM55.57 73H54.55V72.16H54.526C54.358 72.504 54.094 72.752 53.734 72.904C53.374 73.056 52.978 73.132 52.546 73.132C52.066 73.132 51.646 73.044 51.286 72.868C50.934 72.692 50.638 72.456 50.398 72.16C50.166 71.864 49.99 71.52 49.87 71.128C49.75 70.736 49.69 70.32 49.69 69.88C49.69 69.44 49.746 69.024 49.858 68.632C49.978 68.24 50.154 67.9 50.386 67.612C50.626 67.316 50.922 67.084 51.274 66.916C51.634 66.74 52.05 66.652 52.522 66.652C52.682 66.652 52.854 66.668 53.038 66.7C53.222 66.732 53.406 66.788 53.59 66.868C53.774 66.94 53.946 67.04 54.106 67.168C54.274 67.288 54.414 67.44 54.526 67.624H54.55V64.432H55.57V73ZM57.6433 71.044C57.6513 71.268 57.7033 71.46 57.7993 71.62C57.8953 71.772 58.0193 71.896 58.1713 71.992C58.3313 72.08 58.5073 72.144 58.6993 72.184C58.8993 72.224 59.1033 72.244 59.3113 72.244C59.4713 72.244 59.6393 72.232 59.8153 72.208C59.9913 72.184 60.1513 72.14 60.2953 72.076C60.4473 72.012 60.5713 71.92 60.6673 71.8C60.7633 71.672 60.8113 71.512 60.8113 71.32C60.8113 71.056 60.7113 70.856 60.5113 70.72C60.3113 70.584 60.0593 70.476 59.7553 70.396C59.4593 70.308 59.1353 70.232 58.7833 70.168C58.4313 70.096 58.1033 70 57.7993 69.88C57.5033 69.752 57.2553 69.576 57.0553 69.352C56.8553 69.128 56.7553 68.816 56.7553 68.416C56.7553 68.104 56.8233 67.836 56.9593 67.612C57.1033 67.388 57.2833 67.208 57.4993 67.072C57.7233 66.928 57.9713 66.824 58.2433 66.76C58.5233 66.688 58.7993 66.652 59.0713 66.652C59.4233 66.652 59.7473 66.684 60.0433 66.748C60.3393 66.804 60.5993 66.908 60.8233 67.06C61.0553 67.204 61.2393 67.404 61.3753 67.66C61.5113 67.908 61.5913 68.22 61.6153 68.596H60.5953C60.5793 68.396 60.5273 68.232 60.4393 68.104C60.3513 67.968 60.2393 67.86 60.1033 67.78C59.9673 67.7 59.8153 67.644 59.6473 67.612C59.4873 67.572 59.3233 67.552 59.1553 67.552C59.0033 67.552 58.8473 67.564 58.6873 67.588C58.5353 67.612 58.3953 67.656 58.2673 67.72C58.1393 67.776 58.0353 67.856 57.9553 67.96C57.8753 68.056 57.8353 68.184 57.8353 68.344C57.8353 68.52 57.8953 68.668 58.0153 68.788C58.1433 68.9 58.3033 68.996 58.4953 69.076C58.6873 69.148 58.9033 69.212 59.1433 69.268C59.3833 69.316 59.6233 69.368 59.8633 69.424C60.1193 69.48 60.3673 69.548 60.6073 69.628C60.8553 69.708 61.0713 69.816 61.2553 69.952C61.4473 70.08 61.5993 70.244 61.7113 70.444C61.8313 70.644 61.8913 70.892 61.8913 71.188C61.8913 71.564 61.8113 71.876 61.6513 72.124C61.4993 72.372 61.2953 72.572 61.0393 72.724C60.7913 72.876 60.5073 72.98 60.1873 73.036C59.8753 73.1 59.5633 73.132 59.2513 73.132C58.9073 73.132 58.5793 73.096 58.2673 73.024C57.9553 72.952 57.6793 72.836 57.4393 72.676C57.1993 72.508 57.0073 72.292 56.8633 72.028C56.7193 71.756 56.6393 71.428 56.6233 71.044H57.6433ZM4.88819 84.14C4.92819 84.148 4.96419 84.152 4.99619 84.152C5.03619 84.152 5.07619 84.152 5.11619 84.152H5.33219C5.54819 84.152 5.75219 84.124 5.94419 84.068C6.14419 84.004 6.31619 83.916 6.46019 83.804C6.61219 83.684 6.73219 83.536 6.82019 83.36C6.90819 83.184 6.95219 82.984 6.95219 82.76C6.95219 82.304 6.80819 81.964 6.52019 81.74C6.23219 81.508 5.87219 81.392 5.44019 81.392C5.16819 81.392 4.92819 81.444 4.72019 81.548C4.52019 81.644 4.35219 81.776 4.21619 81.944C4.08819 82.112 3.99219 82.308 3.92819 82.532C3.86419 82.756 3.83219 82.992 3.83219 83.24H2.81219C2.82819 82.832 2.89219 82.46 3.00419 82.124C3.12419 81.788 3.29219 81.5 3.50819 81.26C3.72419 81.02 3.99219 80.832 4.31219 80.696C4.64019 80.56 5.01619 80.492 5.44019 80.492C5.80819 80.492 6.14819 80.54 6.46019 80.636C6.78019 80.724 7.05619 80.86 7.28819 81.044C7.52019 81.228 7.70019 81.464 7.82819 81.752C7.96419 82.04 8.03219 82.38 8.03219 82.772C8.03219 83.156 7.92019 83.496 7.69619 83.792C7.47219 84.088 7.19219 84.312 6.85619 84.464V84.488C7.37619 84.6 7.76019 84.844 8.00819 85.22C8.26419 85.596 8.39219 86.04 8.39219 86.552C8.39219 86.976 8.31219 87.352 8.15219 87.68C8.00019 88 7.79219 88.268 7.52819 88.484C7.26419 88.7 6.95219 88.864 6.59219 88.976C6.24019 89.08 5.86419 89.132 5.46419 89.132C5.03219 89.132 4.64019 89.072 4.28819 88.952C3.93619 88.832 3.63619 88.656 3.38819 88.424C3.14019 88.184 2.94819 87.892 2.81219 87.548C2.68419 87.204 2.62419 86.812 2.63219 86.372H3.65219C3.66819 86.924 3.82819 87.376 4.13219 87.728C4.43619 88.072 4.88019 88.244 5.46419 88.244C5.71219 88.244 5.94819 88.208 6.17219 88.136C6.39619 88.056 6.59219 87.948 6.76019 87.812C6.92819 87.668 7.06019 87.496 7.15619 87.296C7.26019 87.088 7.31219 86.856 7.31219 86.6C7.31219 86.336 7.26419 86.104 7.16819 85.904C7.07219 85.696 6.94419 85.524 6.78419 85.388C6.62419 85.244 6.43219 85.14 6.20819 85.076C5.99219 85.004 5.75619 84.968 5.50019 84.968C5.28419 84.968 5.08019 84.98 4.88819 85.004V84.14ZM9.55216 82.796H10.5122V84.104H10.5362C10.7842 83.6 11.0882 83.228 11.4482 82.988C11.8082 82.748 12.2642 82.636 12.8162 82.652V83.732C12.4082 83.732 12.0602 83.788 11.7722 83.9C11.4842 84.012 11.2522 84.176 11.0762 84.392C10.9002 84.608 10.7722 84.872 10.6922 85.184C10.6122 85.488 10.5722 85.84 10.5722 86.24V89H9.55216V82.796ZM13.9973 85.952C13.9973 86.24 14.0333 86.524 14.1053 86.804C14.1853 87.076 14.3013 87.32 14.4533 87.536C14.6133 87.752 14.8133 87.924 15.0533 88.052C15.3013 88.18 15.5893 88.244 15.9173 88.244C16.2613 88.244 16.5533 88.176 16.7933 88.04C17.0333 87.904 17.2293 87.728 17.3813 87.512C17.5333 87.288 17.6413 87.036 17.7053 86.756C17.7773 86.476 17.8133 86.192 17.8133 85.904C17.8133 85.6 17.7773 85.308 17.7053 85.028C17.6333 84.74 17.5173 84.488 17.3573 84.272C17.2053 84.056 17.0053 83.884 16.7573 83.756C16.5093 83.62 16.2093 83.552 15.8573 83.552C15.5133 83.552 15.2213 83.62 14.9813 83.756C14.7413 83.892 14.5493 84.072 14.4053 84.296C14.2613 84.52 14.1573 84.776 14.0933 85.064C14.0293 85.352 13.9973 85.648 13.9973 85.952ZM18.7973 89H17.7773V88.16H17.7533C17.5853 88.504 17.3213 88.752 16.9613 88.904C16.6013 89.056 16.2053 89.132 15.7733 89.132C15.2933 89.132 14.8733 89.044 14.5133 88.868C14.1613 88.692 13.8653 88.456 13.6253 88.16C13.3933 87.864 13.2173 87.52 13.0973 87.128C12.9773 86.736 12.9173 86.32 12.9173 85.88C12.9173 85.44 12.9733 85.024 13.0853 84.632C13.2053 84.24 13.3813 83.9 13.6133 83.612C13.8533 83.316 14.1493 83.084 14.5013 82.916C14.8613 82.74 15.2773 82.652 15.7493 82.652C15.9093 82.652 16.0813 82.668 16.2653 82.7C16.4493 82.732 16.6333 82.788 16.8173 82.868C17.0013 82.94 17.1733 83.04 17.3333 83.168C17.5013 83.288 17.6413 83.44 17.7533 83.624H17.7773V80.432H18.7973V89ZM30.0424 87.932C29.7064 88.38 29.2904 88.704 28.7944 88.904C28.2984 89.096 27.7984 89.192 27.2944 89.192C26.6544 89.192 26.0824 89.076 25.5784 88.844C25.0744 88.604 24.6464 88.284 24.2944 87.884C23.9424 87.484 23.6744 87.024 23.4904 86.504C23.3064 85.984 23.2144 85.444 23.2144 84.884C23.2144 84.26 23.2984 83.668 23.4664 83.108C23.6424 82.54 23.8984 82.044 24.2344 81.62C24.5784 81.196 25.0024 80.86 25.5064 80.612C26.0184 80.356 26.6144 80.228 27.2944 80.228C27.7584 80.228 28.1944 80.284 28.6024 80.396C29.0184 80.5 29.3864 80.668 29.7064 80.9C30.0344 81.132 30.3064 81.428 30.5224 81.788C30.7464 82.14 30.8984 82.568 30.9784 83.072H29.8384C29.7824 82.744 29.6784 82.464 29.5264 82.232C29.3744 81.992 29.1864 81.796 28.9624 81.644C28.7384 81.492 28.4824 81.38 28.1944 81.308C27.9144 81.228 27.6144 81.188 27.2944 81.188C26.7744 81.188 26.3264 81.292 25.9504 81.5C25.5824 81.708 25.2784 81.984 25.0384 82.328C24.8064 82.664 24.6344 83.052 24.5224 83.492C24.4104 83.924 24.3544 84.368 24.3544 84.824C24.3544 85.272 24.4184 85.704 24.5464 86.12C24.6744 86.528 24.8624 86.892 25.1104 87.212C25.3584 87.524 25.6624 87.776 26.0224 87.968C26.3904 88.152 26.8144 88.244 27.2944 88.244C27.7424 88.244 28.1384 88.172 28.4824 88.028C28.8264 87.884 29.1144 87.688 29.3464 87.44C29.5864 87.184 29.7664 86.888 29.8864 86.552C30.0064 86.208 30.0584 85.84 30.0424 85.448H27.3064V84.488H31.0624V89H30.3424L30.0424 87.932ZM36.7599 85.304C36.7439 85.064 36.6879 84.836 36.5919 84.62C36.5039 84.404 36.3799 84.22 36.2199 84.068C36.0679 83.908 35.8839 83.784 35.6679 83.696C35.4599 83.6 35.2279 83.552 34.9719 83.552C34.7079 83.552 34.4679 83.6 34.2519 83.696C34.0439 83.784 33.8639 83.908 33.7119 84.068C33.5599 84.228 33.4399 84.416 33.3519 84.632C33.2639 84.84 33.2119 85.064 33.1959 85.304H36.7599ZM37.7439 87.032C37.6079 87.728 37.3079 88.252 36.8439 88.604C36.3799 88.956 35.7959 89.132 35.0919 89.132C34.5959 89.132 34.1639 89.052 33.7959 88.892C33.4359 88.732 33.1319 88.508 32.8839 88.22C32.6359 87.932 32.4479 87.588 32.3199 87.188C32.1999 86.788 32.1319 86.352 32.1159 85.88C32.1159 85.408 32.1879 84.976 32.3319 84.584C32.4759 84.192 32.6759 83.852 32.9319 83.564C33.1959 83.276 33.5039 83.052 33.8559 82.892C34.2159 82.732 34.6079 82.652 35.0319 82.652C35.5839 82.652 36.0399 82.768 36.3999 83C36.7679 83.224 37.0599 83.512 37.2759 83.864C37.4999 84.216 37.6519 84.6 37.7319 85.016C37.8199 85.432 37.8559 85.828 37.8399 86.204H33.1959C33.1879 86.476 33.2199 86.736 33.2919 86.984C33.3639 87.224 33.4799 87.44 33.6399 87.632C33.7999 87.816 34.0039 87.964 34.2519 88.076C34.4999 88.188 34.7919 88.244 35.1279 88.244C35.5599 88.244 35.9119 88.144 36.1839 87.944C36.4639 87.744 36.6479 87.44 36.7359 87.032H37.7439ZM38.7772 82.796H39.7372V83.78H39.7612C40.1852 83.028 40.8572 82.652 41.7772 82.652C42.1852 82.652 42.5252 82.708 42.7972 82.82C43.0692 82.932 43.2892 83.088 43.4572 83.288C43.6252 83.488 43.7412 83.728 43.8052 84.008C43.8772 84.28 43.9132 84.584 43.9132 84.92V89H42.8932V84.8C42.8932 84.416 42.7812 84.112 42.5572 83.888C42.3332 83.664 42.0252 83.552 41.6332 83.552C41.3212 83.552 41.0492 83.6 40.8172 83.696C40.5932 83.792 40.4052 83.928 40.2532 84.104C40.1012 84.28 39.9852 84.488 39.9052 84.728C39.8332 84.96 39.7972 85.216 39.7972 85.496V89H38.7772V82.796ZM49.6332 85.304C49.6172 85.064 49.5612 84.836 49.4652 84.62C49.3772 84.404 49.2532 84.22 49.0932 84.068C48.9412 83.908 48.7572 83.784 48.5412 83.696C48.3332 83.6 48.1012 83.552 47.8452 83.552C47.5812 83.552 47.3412 83.6 47.1252 83.696C46.9172 83.784 46.7372 83.908 46.5852 84.068C46.4332 84.228 46.3132 84.416 46.2252 84.632C46.1372 84.84 46.0852 85.064 46.0692 85.304H49.6332ZM50.6172 87.032C50.4812 87.728 50.1812 88.252 49.7172 88.604C49.2532 88.956 48.6692 89.132 47.9652 89.132C47.4692 89.132 47.0372 89.052 46.6692 88.892C46.3092 88.732 46.0052 88.508 45.7572 88.22C45.5092 87.932 45.3212 87.588 45.1932 87.188C45.0732 86.788 45.0052 86.352 44.9892 85.88C44.9892 85.408 45.0612 84.976 45.2052 84.584C45.3492 84.192 45.5492 83.852 45.8052 83.564C46.0692 83.276 46.3772 83.052 46.7292 82.892C47.0892 82.732 47.4812 82.652 47.9052 82.652C48.4572 82.652 48.9132 82.768 49.2732 83C49.6412 83.224 49.9332 83.512 50.1492 83.864C50.3732 84.216 50.5252 84.6 50.6052 85.016C50.6932 85.432 50.7292 85.828 50.7132 86.204H46.0692C46.0612 86.476 46.0932 86.736 46.1652 86.984C46.2372 87.224 46.3532 87.44 46.5132 87.632C46.6732 87.816 46.8772 87.964 47.1252 88.076C47.3732 88.188 47.6652 88.244 48.0012 88.244C48.4332 88.244 48.7852 88.144 49.0572 87.944C49.3372 87.744 49.5212 87.44 49.6092 87.032H50.6172ZM51.6145 82.796H52.5745V84.104H52.5985C52.8465 83.6 53.1505 83.228 53.5105 82.988C53.8705 82.748 54.3265 82.636 54.8785 82.652V83.732C54.4705 83.732 54.1225 83.788 53.8345 83.9C53.5465 84.012 53.3145 84.176 53.1385 84.392C52.9625 84.608 52.8345 84.872 52.7545 85.184C52.6745 85.488 52.6345 85.84 52.6345 86.24V89H51.6145V82.796ZM61.0226 88.976C60.8466 89.08 60.6026 89.132 60.2906 89.132C60.0266 89.132 59.8146 89.06 59.6546 88.916C59.5026 88.764 59.4266 88.52 59.4266 88.184C59.1466 88.52 58.8186 88.764 58.4426 88.916C58.0746 89.06 57.6746 89.132 57.2426 89.132C56.9626 89.132 56.6946 89.1 56.4386 89.036C56.1906 88.972 55.9746 88.872 55.7906 88.736C55.6066 88.6 55.4586 88.424 55.3466 88.208C55.2426 87.984 55.1906 87.716 55.1906 87.404C55.1906 87.052 55.2506 86.764 55.3706 86.54C55.4906 86.316 55.6466 86.136 55.8386 86C56.0386 85.856 56.2626 85.748 56.5106 85.676C56.7666 85.604 57.0266 85.544 57.2906 85.496C57.5706 85.44 57.8346 85.4 58.0826 85.376C58.3386 85.344 58.5626 85.304 58.7546 85.256C58.9466 85.2 59.0986 85.124 59.2106 85.028C59.3226 84.924 59.3786 84.776 59.3786 84.584C59.3786 84.36 59.3346 84.18 59.2466 84.044C59.1666 83.908 59.0586 83.804 58.9226 83.732C58.7946 83.66 58.6466 83.612 58.4786 83.588C58.3186 83.564 58.1586 83.552 57.9986 83.552C57.5666 83.552 57.2066 83.636 56.9186 83.804C56.6306 83.964 56.4746 84.272 56.4506 84.728H55.4306C55.4466 84.344 55.5266 84.02 55.6706 83.756C55.8146 83.492 56.0066 83.28 56.2466 83.12C56.4866 82.952 56.7586 82.832 57.0626 82.76C57.3746 82.688 57.7066 82.652 58.0586 82.652C58.3386 82.652 58.6146 82.672 58.8866 82.712C59.1666 82.752 59.4186 82.836 59.6426 82.964C59.8666 83.084 60.0466 83.256 60.1826 83.48C60.3186 83.704 60.3866 83.996 60.3866 84.356V87.548C60.3866 87.788 60.3986 87.964 60.4226 88.076C60.4546 88.188 60.5506 88.244 60.7106 88.244C60.7986 88.244 60.9026 88.224 61.0226 88.184V88.976ZM59.3666 85.796C59.2386 85.892 59.0706 85.964 58.8626 86.012C58.6546 86.052 58.4346 86.088 58.2026 86.12C57.9786 86.144 57.7506 86.176 57.5186 86.216C57.2866 86.248 57.0786 86.304 56.8946 86.384C56.7106 86.464 56.5586 86.58 56.4386 86.732C56.3266 86.876 56.2706 87.076 56.2706 87.332C56.2706 87.5 56.3026 87.644 56.3666 87.764C56.4386 87.876 56.5266 87.968 56.6306 88.04C56.7426 88.112 56.8706 88.164 57.0146 88.196C57.1586 88.228 57.3106 88.244 57.4706 88.244C57.8066 88.244 58.0946 88.2 58.3346 88.112C58.5746 88.016 58.7706 87.9 58.9226 87.764C59.0746 87.62 59.1866 87.468 59.2586 87.308C59.3306 87.14 59.3666 86.984 59.3666 86.84V85.796ZM63.2679 82.796H64.5039V83.696H63.2679V87.548C63.2679 87.668 63.2759 87.764 63.2919 87.836C63.3159 87.908 63.3559 87.964 63.4119 88.004C63.4679 88.044 63.5439 88.072 63.6399 88.088C63.7439 88.096 63.8759 88.1 64.0359 88.1H64.5039V89H63.7239C63.4599 89 63.2319 88.984 63.0399 88.952C62.8559 88.912 62.7039 88.844 62.5839 88.748C62.4719 88.652 62.3879 88.516 62.3319 88.34C62.2759 88.164 62.2479 87.932 62.2479 87.644V83.696H61.1919V82.796H62.2479V80.936H63.2679V82.796ZM66.5971 81.68H65.5771V80.432H66.5971V81.68ZM65.5771 82.796H66.5971V89H65.5771V82.796ZM68.8012 85.904C68.8012 86.28 68.8492 86.616 68.9452 86.912C69.0492 87.2 69.1892 87.444 69.3652 87.644C69.5412 87.836 69.7452 87.984 69.9772 88.088C70.2172 88.192 70.4692 88.244 70.7332 88.244C70.9972 88.244 71.2452 88.192 71.4772 88.088C71.7172 87.984 71.9252 87.836 72.1012 87.644C72.2772 87.444 72.4132 87.2 72.5092 86.912C72.6132 86.616 72.6652 86.28 72.6652 85.904C72.6652 85.528 72.6132 85.196 72.5092 84.908C72.4132 84.612 72.2772 84.364 72.1012 84.164C71.9252 83.964 71.7172 83.812 71.4772 83.708C71.2452 83.604 70.9972 83.552 70.7332 83.552C70.4692 83.552 70.2172 83.604 69.9772 83.708C69.7452 83.812 69.5412 83.964 69.3652 84.164C69.1892 84.364 69.0492 84.612 68.9452 84.908C68.8492 85.196 68.8012 85.528 68.8012 85.904ZM67.7212 85.904C67.7212 85.448 67.7852 85.024 67.9132 84.632C68.0412 84.232 68.2332 83.888 68.4892 83.6C68.7452 83.304 69.0612 83.072 69.4372 82.904C69.8132 82.736 70.2452 82.652 70.7332 82.652C71.2292 82.652 71.6612 82.736 72.0292 82.904C72.4052 83.072 72.7212 83.304 72.9772 83.6C73.2332 83.888 73.4252 84.232 73.5532 84.632C73.6812 85.024 73.7452 85.448 73.7452 85.904C73.7452 86.36 73.6812 86.784 73.5532 87.176C73.4252 87.568 73.2332 87.912 72.9772 88.208C72.7212 88.496 72.4052 88.724 72.0292 88.892C71.6612 89.052 71.2292 89.132 70.7332 89.132C70.2452 89.132 69.8132 89.052 69.4372 88.892C69.0612 88.724 68.7452 88.496 68.4892 88.208C68.2332 87.912 68.0412 87.568 67.9132 87.176C67.7852 86.784 67.7212 86.36 67.7212 85.904ZM74.8278 82.796H75.7878V83.78H75.8118C76.2358 83.028 76.9078 82.652 77.8278 82.652C78.2358 82.652 78.5758 82.708 78.8478 82.82C79.1198 82.932 79.3398 83.088 79.5078 83.288C79.6758 83.488 79.7918 83.728 79.8558 84.008C79.9278 84.28 79.9638 84.584 79.9638 84.92V89H78.9438V84.8C78.9438 84.416 78.8318 84.112 78.6078 83.888C78.3838 83.664 78.0758 83.552 77.6838 83.552C77.3718 83.552 77.0998 83.6 76.8678 83.696C76.6438 83.792 76.4558 83.928 76.3038 84.104C76.1518 84.28 76.0358 84.488 75.9558 84.728C75.8838 84.96 75.8478 85.216 75.8478 85.496V89H74.8278V82.796Z" fill="#1D1D1F"/>
<defs>
<clipPath id="clip0_1_29">
<rect width="34" height="54" fill="white" transform="translate(24.6348)"/>
</clipPath>
</defs>
</svg>
