<svg width="86" height="93" viewBox="0 0 86 93" fill="none" xmlns="http://www.w3.org/2000/svg">
<g clip-path="url(#clip0_1_37)">
<path d="M50.3278 39.8358C51.1788 40.0617 52.0567 40.1705 52.9371 40.1591V48.5869C52.9103 48.9428 52.7606 49.2784 52.5138 49.5361C52.2669 49.7939 51.9381 49.9579 51.5837 50H50.0355C49.6373 49.9565 49.2698 49.7655 49.0053 49.4647C48.7409 49.1639 48.5985 48.775 48.6064 48.3745V39.1845C49.1656 39.4384 49.7406 39.656 50.3278 39.8358ZM48.6064 38.0887C47.3522 37.4494 46.229 36.5806 45.295 35.5273C44.3561 34.5043 43.7901 33.1942 43.6889 31.8094C43.6465 30.6335 43.9237 29.4682 44.4912 28.4374C44.9755 27.6461 45.6417 26.9818 46.4343 26.4996C47.227 26.0175 48.1233 25.7315 49.0487 25.6653C49.0947 25.6653 49.1409 25.6661 49.1875 25.6676C50.5794 25.7136 53.9427 26.0264 56.9634 30.0266C56.8 30.0328 56.6371 30.0473 56.4753 30.0701C55.6649 30.2064 54.8924 30.5124 54.2085 30.9681C53.5246 31.4238 52.9447 32.0188 52.5068 32.7142C51.6682 34.0086 51.2378 35.5251 51.2714 37.067C51.2793 37.2948 51.3081 37.5215 51.3573 37.7441C51.4697 38.2346 51.6729 38.6997 51.9566 39.1154C51.5039 39.082 51.0558 39.0029 50.6192 38.8792C49.9275 38.6719 49.2543 38.4074 48.6064 38.0887ZM49.672 31.7557C49.865 31.8883 50.0979 31.9503 50.3314 31.9312C50.5648 31.9121 50.7845 31.813 50.9535 31.6508L51.0115 31.5784C51.1177 31.4654 51.1957 31.3289 51.2391 31.1801C51.2826 31.0312 51.2902 30.8742 51.2614 30.7218C51.2326 30.5695 51.1682 30.4261 51.0734 30.3033C50.9787 30.1806 50.8562 30.082 50.7161 30.0156L49.2061 29.0438C48.9956 28.897 48.742 28.8253 48.4858 28.8401C48.2297 28.8549 47.986 28.9554 47.7939 29.1255L47.709 29.2079C47.621 29.3155 47.5571 29.4408 47.5218 29.5753C47.4864 29.7098 47.4804 29.8503 47.5041 29.9873C47.5278 30.1243 47.5807 30.2546 47.6592 30.3694C47.7377 30.4841 47.8399 30.5807 47.959 30.6525L49.672 31.7557ZM61.4065 35.9512C61.3677 36.1531 61.3152 36.3521 61.2494 36.5469C61.0886 37.009 60.8751 37.4511 60.613 37.8643C60.2984 38.4195 59.8973 38.921 59.425 39.35C59.0361 39.7366 58.5726 40.0399 58.0626 40.2413C57.5526 40.4427 57.0069 40.538 56.4589 40.5215C55.8295 40.5229 55.2046 40.4164 54.6113 40.2066C54.5371 40.1719 54.479 40.1376 54.4092 40.103C54.1274 39.9656 53.8543 39.811 53.5917 39.6398C53.3734 39.4976 53.168 39.3366 52.9779 39.1586C52.9635 39.1449 52.9511 39.1311 52.9372 39.1173C52.5062 38.6951 52.2099 38.1547 52.0858 37.5643C52.0552 37.429 52.0349 37.2916 52.025 37.1532C51.8684 35.3311 52.9627 31.4298 56.6016 30.8091C56.8298 30.769 57.0611 30.7482 57.2929 30.747C57.3603 30.747 57.4319 30.7581 57.5011 30.7623C57.7663 30.7743 58.0287 30.8222 58.2811 30.9047C58.3285 30.9212 58.37 30.9481 58.4165 30.9659C58.6641 31.0583 58.9039 31.1706 59.1335 31.3017C59.8729 31.7279 60.4836 32.3457 60.9013 33.09C61.1656 33.5786 61.3455 34.1083 61.4336 34.6568C61.4936 35.0869 61.4844 35.5239 61.4065 35.9512ZM60.1028 35.1712C59.9541 34.6825 59.391 34.6932 59.0404 35.1712L57.298 37.5726C57.0313 38.0719 57.2331 38.6776 57.7006 38.635H57.7017C58.4357 38.4161 59.0734 37.9539 59.5098 37.3244C59.9462 36.6949 60.1553 35.9354 60.1028 35.1712ZM32.6528 40.1589V48.5867C32.6795 48.9427 32.8292 49.2783 33.0761 49.5361C33.323 49.7939 33.6518 49.9579 34.0063 50H35.5544C35.9526 49.9565 36.3201 49.7656 36.5845 49.4647C36.849 49.1639 36.9913 48.775 36.9835 48.3745V39.1845C36.4243 39.4383 35.8493 39.6557 35.2622 39.8354C34.4112 40.0614 33.5332 40.1701 32.6528 40.1589ZM41.0985 28.4372C41.6659 29.468 41.9432 30.6333 41.9008 31.8092C41.7996 33.1941 41.2338 34.5042 40.295 35.5273C39.3611 36.5806 38.2379 37.4495 36.9837 38.0887C36.3357 38.4073 35.6625 38.6716 34.9708 38.8787C34.5332 39.0026 34.0843 39.0818 33.6308 39.115C33.916 38.6999 34.1201 38.2346 34.2325 37.7436C34.2816 37.521 34.3104 37.2943 34.3184 37.0665C34.3518 35.5247 33.9214 34.0085 33.083 32.7142C32.6451 32.0188 32.0653 31.4238 31.3815 30.9681C30.6977 30.5125 29.9253 30.2064 29.115 30.07C28.9531 30.0472 28.7902 30.0327 28.6269 30.0265C31.6476 26.0265 35.0109 25.7135 36.4028 25.6675C36.4495 25.666 36.4954 25.6652 36.5416 25.6652C37.4669 25.7315 38.3631 26.0176 39.1556 26.4997C39.9482 26.9819 40.6142 27.6459 41.0985 28.4372ZM37.8812 29.2072L37.7963 29.1248C37.6042 28.9547 37.3605 28.8542 37.1043 28.8394C36.8482 28.8246 36.5945 28.8963 36.3841 29.0431L34.8741 30.0149C34.734 30.0813 34.6115 30.1799 34.5167 30.3026C34.422 30.4254 34.3576 30.5688 34.3287 30.7211C34.2999 30.8735 34.3075 31.0305 34.351 31.1794C34.3944 31.3282 34.4724 31.4647 34.5786 31.5777L34.6367 31.6501C34.8056 31.8123 35.0253 31.9114 35.2588 31.9305C35.4922 31.9496 35.7251 31.8876 35.9182 31.755L37.632 30.6518C37.7509 30.5799 37.8529 30.4833 37.9313 30.3686C38.0096 30.2539 38.0624 30.1236 38.086 29.9867C38.1097 29.8498 38.1036 29.7094 38.0683 29.5751C38.033 29.4407 37.9691 29.3148 37.8812 29.2072ZM32.6528 39.1172C32.6389 39.131 32.6265 39.1447 32.6121 39.1584C32.422 39.3365 32.2166 39.4975 31.9983 39.6396C31.7356 39.8108 31.4625 39.9655 31.1807 40.1028C31.1107 40.1374 31.0529 40.1717 30.9787 40.2064C30.3853 40.4162 29.7604 40.5227 29.1311 40.5213C28.583 40.5378 28.0374 40.4425 27.5274 40.2411C27.0174 40.0397 26.5539 39.7365 26.165 39.35C25.6925 38.9209 25.2915 38.4193 24.9769 37.864C24.7148 37.4508 24.5012 37.0087 24.3405 36.5466C24.2746 36.3518 24.2222 36.1528 24.1834 35.9509C24.1054 35.5236 24.0963 35.0866 24.1563 34.6564C24.2444 34.108 24.4244 33.5785 24.6887 33.09C25.1065 32.3458 25.7174 31.7281 26.4569 31.302C26.6862 31.171 26.9258 31.0588 27.1733 30.9665C27.2201 30.9486 27.2618 30.9216 27.3093 30.905C27.5616 30.8225 27.824 30.7746 28.0893 30.7626C28.1585 30.7584 28.2301 30.7473 28.2975 30.7473C28.5292 30.7485 28.7605 30.7693 28.9888 30.8094C32.6277 31.4301 33.722 35.3314 33.5654 37.1535C33.5555 37.2919 33.5351 37.4293 33.5046 37.5646C33.3803 38.1551 33.0839 38.695 32.6528 39.1172ZM28.292 37.5726L26.5496 35.1714C26.199 34.6934 25.6359 34.6827 25.4872 35.1714C25.4368 35.5459 25.4615 35.9268 25.56 36.2916C25.6585 36.6565 25.8288 36.998 26.0609 37.2963C26.2575 37.6327 26.5212 37.9251 26.8356 38.1554C27.1499 38.3857 27.5082 38.5489 27.8883 38.635C28.3559 38.6776 28.5587 38.0719 28.292 37.5726Z" fill="#1D1D1F"/>
</g>
<path d="M13.0022 69.46H15.9062L14.4782 65.464H14.4542L13.0022 69.46ZM13.8542 64.432H15.1142L18.4622 73H17.2022L16.2662 70.42H12.6422L11.6822 73H10.5182L13.8542 64.432ZM20.0995 65.68H19.0795V64.432H20.0995V65.68ZM19.0795 66.796H20.0995V73H19.0795V66.796ZM21.5236 66.796H22.4836V68.104H22.5076C22.7556 67.6 23.0596 67.228 23.4196 66.988C23.7796 66.748 24.2356 66.636 24.7876 66.652V67.732C24.3796 67.732 24.0316 67.788 23.7436 67.9C23.4556 68.012 23.2236 68.176 23.0476 68.392C22.8716 68.608 22.7436 68.872 22.6636 69.184C22.5836 69.488 22.5436 69.84 22.5436 70.24V73H21.5236V66.796ZM26.7437 68.536H28.9757C29.6237 68.544 30.0957 68.412 30.3917 68.14C30.6957 67.868 30.8477 67.476 30.8477 66.964C30.8477 66.452 30.6957 66.064 30.3917 65.8C30.0957 65.528 29.6237 65.392 28.9757 65.392H26.7437V68.536ZM25.6037 64.432H29.3597C30.2237 64.432 30.8757 64.656 31.3157 65.104C31.7637 65.544 31.9877 66.164 31.9877 66.964C31.9877 67.764 31.7637 68.388 31.3157 68.836C30.8757 69.284 30.2237 69.504 29.3597 69.496H26.7437V73H25.6037V64.432ZM33.841 69.904C33.841 70.28 33.889 70.616 33.985 70.912C34.089 71.2 34.229 71.444 34.405 71.644C34.581 71.836 34.785 71.984 35.017 72.088C35.257 72.192 35.509 72.244 35.773 72.244C36.037 72.244 36.285 72.192 36.517 72.088C36.757 71.984 36.965 71.836 37.141 71.644C37.317 71.444 37.453 71.2 37.549 70.912C37.653 70.616 37.705 70.28 37.705 69.904C37.705 69.528 37.653 69.196 37.549 68.908C37.453 68.612 37.317 68.364 37.141 68.164C36.965 67.964 36.757 67.812 36.517 67.708C36.285 67.604 36.037 67.552 35.773 67.552C35.509 67.552 35.257 67.604 35.017 67.708C34.785 67.812 34.581 67.964 34.405 68.164C34.229 68.364 34.089 68.612 33.985 68.908C33.889 69.196 33.841 69.528 33.841 69.904ZM32.761 69.904C32.761 69.448 32.825 69.024 32.953 68.632C33.081 68.232 33.273 67.888 33.529 67.6C33.785 67.304 34.101 67.072 34.477 66.904C34.853 66.736 35.285 66.652 35.773 66.652C36.269 66.652 36.701 66.736 37.069 66.904C37.445 67.072 37.761 67.304 38.017 67.6C38.273 67.888 38.465 68.232 38.593 68.632C38.721 69.024 38.785 69.448 38.785 69.904C38.785 70.36 38.721 70.784 38.593 71.176C38.465 71.568 38.273 71.912 38.017 72.208C37.761 72.496 37.445 72.724 37.069 72.892C36.701 73.052 36.269 73.132 35.773 73.132C35.285 73.132 34.853 73.052 34.477 72.892C34.101 72.724 33.785 72.496 33.529 72.208C33.273 71.912 33.081 71.568 32.953 71.176C32.825 70.784 32.761 70.36 32.761 69.904ZM40.6116 69.952C40.6116 70.24 40.6476 70.524 40.7196 70.804C40.7996 71.076 40.9156 71.32 41.0676 71.536C41.2276 71.752 41.4276 71.924 41.6676 72.052C41.9156 72.18 42.2036 72.244 42.5316 72.244C42.8756 72.244 43.1676 72.176 43.4076 72.04C43.6476 71.904 43.8436 71.728 43.9956 71.512C44.1476 71.288 44.2556 71.036 44.3196 70.756C44.3916 70.476 44.4276 70.192 44.4276 69.904C44.4276 69.6 44.3916 69.308 44.3196 69.028C44.2476 68.74 44.1316 68.488 43.9716 68.272C43.8196 68.056 43.6196 67.884 43.3716 67.756C43.1236 67.62 42.8236 67.552 42.4716 67.552C42.1276 67.552 41.8356 67.62 41.5956 67.756C41.3556 67.892 41.1636 68.072 41.0196 68.296C40.8756 68.52 40.7716 68.776 40.7076 69.064C40.6436 69.352 40.6116 69.648 40.6116 69.952ZM45.4116 73H44.3916V72.16H44.3676C44.1996 72.504 43.9356 72.752 43.5756 72.904C43.2156 73.056 42.8196 73.132 42.3876 73.132C41.9076 73.132 41.4876 73.044 41.1276 72.868C40.7756 72.692 40.4796 72.456 40.2396 72.16C40.0076 71.864 39.8316 71.52 39.7116 71.128C39.5916 70.736 39.5316 70.32 39.5316 69.88C39.5316 69.44 39.5876 69.024 39.6996 68.632C39.8196 68.24 39.9956 67.9 40.2276 67.612C40.4676 67.316 40.7636 67.084 41.1156 66.916C41.4756 66.74 41.8916 66.652 42.3636 66.652C42.5236 66.652 42.6956 66.668 42.8796 66.7C43.0636 66.732 43.2476 66.788 43.4316 66.868C43.6156 66.94 43.7876 67.04 43.9476 67.168C44.1156 67.288 44.2556 67.44 44.3676 67.624H44.3916V64.432H45.4116V73ZM47.4849 71.044C47.4929 71.268 47.5449 71.46 47.6409 71.62C47.7369 71.772 47.8609 71.896 48.0129 71.992C48.1729 72.08 48.3489 72.144 48.5409 72.184C48.7409 72.224 48.9449 72.244 49.1529 72.244C49.3129 72.244 49.4809 72.232 49.6569 72.208C49.8329 72.184 49.9929 72.14 50.1369 72.076C50.2889 72.012 50.4129 71.92 50.5089 71.8C50.6049 71.672 50.6529 71.512 50.6529 71.32C50.6529 71.056 50.5529 70.856 50.3529 70.72C50.1529 70.584 49.9009 70.476 49.5969 70.396C49.3009 70.308 48.9769 70.232 48.6249 70.168C48.2729 70.096 47.9449 70 47.6409 69.88C47.3449 69.752 47.0969 69.576 46.8969 69.352C46.6969 69.128 46.5969 68.816 46.5969 68.416C46.5969 68.104 46.6649 67.836 46.8009 67.612C46.9449 67.388 47.1249 67.208 47.3409 67.072C47.5649 66.928 47.8129 66.824 48.0849 66.76C48.3649 66.688 48.6409 66.652 48.9129 66.652C49.2649 66.652 49.5889 66.684 49.8849 66.748C50.1809 66.804 50.4409 66.908 50.6649 67.06C50.8969 67.204 51.0809 67.404 51.2169 67.66C51.3529 67.908 51.4329 68.22 51.4569 68.596H50.4369C50.4209 68.396 50.3689 68.232 50.2809 68.104C50.1929 67.968 50.0809 67.86 49.9449 67.78C49.8089 67.7 49.6569 67.644 49.4889 67.612C49.3289 67.572 49.1649 67.552 48.9969 67.552C48.8449 67.552 48.6889 67.564 48.5289 67.588C48.3769 67.612 48.2369 67.656 48.1089 67.72C47.9809 67.776 47.8769 67.856 47.7969 67.96C47.7169 68.056 47.6769 68.184 47.6769 68.344C47.6769 68.52 47.7369 68.668 47.8569 68.788C47.9849 68.9 48.1449 68.996 48.3369 69.076C48.5289 69.148 48.7449 69.212 48.9849 69.268C49.2249 69.316 49.4649 69.368 49.7049 69.424C49.9609 69.48 50.2089 69.548 50.4489 69.628C50.6969 69.708 50.9129 69.816 51.0969 69.952C51.2889 70.08 51.4409 70.244 51.5529 70.444C51.6729 70.644 51.7329 70.892 51.7329 71.188C51.7329 71.564 51.6529 71.876 51.4929 72.124C51.3409 72.372 51.1369 72.572 50.8809 72.724C50.6329 72.876 50.3489 72.98 50.0289 73.036C49.7169 73.1 49.4049 73.132 49.0929 73.132C48.7489 73.132 48.4209 73.096 48.1089 73.024C47.7969 72.952 47.5209 72.836 47.2809 72.676C47.0409 72.508 46.8489 72.292 46.7049 72.028C46.5609 71.756 46.4809 71.428 46.4649 71.044H47.4849ZM57.2687 68.536H59.5007C60.1487 68.544 60.6207 68.412 60.9167 68.14C61.2207 67.868 61.3727 67.476 61.3727 66.964C61.3727 66.452 61.2207 66.064 60.9167 65.8C60.6207 65.528 60.1487 65.392 59.5007 65.392H57.2687V68.536ZM56.1287 64.432H59.8847C60.7487 64.432 61.4007 64.656 61.8407 65.104C62.2887 65.544 62.5127 66.164 62.5127 66.964C62.5127 67.764 62.2887 68.388 61.8407 68.836C61.4007 69.284 60.7487 69.504 59.8847 69.496H57.2687V73H56.1287V64.432ZM63.586 66.796H64.546V68.104H64.57C64.818 67.6 65.122 67.228 65.482 66.988C65.842 66.748 66.298 66.636 66.85 66.652V67.732C66.442 67.732 66.094 67.788 65.806 67.9C65.518 68.012 65.286 68.176 65.11 68.392C64.934 68.608 64.806 68.872 64.726 69.184C64.646 69.488 64.606 69.84 64.606 70.24V73H63.586V66.796ZM68.0311 69.904C68.0311 70.28 68.0791 70.616 68.1751 70.912C68.2791 71.2 68.4191 71.444 68.5951 71.644C68.7711 71.836 68.9751 71.984 69.2071 72.088C69.4471 72.192 69.6991 72.244 69.9631 72.244C70.2271 72.244 70.4751 72.192 70.7071 72.088C70.9471 71.984 71.1551 71.836 71.3311 71.644C71.5071 71.444 71.6431 71.2 71.7391 70.912C71.8431 70.616 71.8951 70.28 71.8951 69.904C71.8951 69.528 71.8431 69.196 71.7391 68.908C71.6431 68.612 71.5071 68.364 71.3311 68.164C71.1551 67.964 70.9471 67.812 70.7071 67.708C70.4751 67.604 70.2271 67.552 69.9631 67.552C69.6991 67.552 69.4471 67.604 69.2071 67.708C68.9751 67.812 68.7711 67.964 68.5951 68.164C68.4191 68.364 68.2791 68.612 68.1751 68.908C68.0791 69.196 68.0311 69.528 68.0311 69.904ZM66.9511 69.904C66.9511 69.448 67.0151 69.024 67.1431 68.632C67.2711 68.232 67.4631 67.888 67.7191 67.6C67.9751 67.304 68.2911 67.072 68.6671 66.904C69.0431 66.736 69.4751 66.652 69.9631 66.652C70.4591 66.652 70.8911 66.736 71.2591 66.904C71.6351 67.072 71.9511 67.304 72.2071 67.6C72.4631 67.888 72.6551 68.232 72.7831 68.632C72.9111 69.024 72.9751 69.448 72.9751 69.904C72.9751 70.36 72.9111 70.784 72.7831 71.176C72.6551 71.568 72.4631 71.912 72.2071 72.208C71.9511 72.496 71.6351 72.724 71.2591 72.892C70.8911 73.052 70.4591 73.132 69.9631 73.132C69.4751 73.132 69.0431 73.052 68.6671 72.892C68.2911 72.724 67.9751 72.496 67.7191 72.208C67.4631 71.912 67.2711 71.568 67.1431 71.176C67.0151 70.784 66.9511 70.36 66.9511 69.904ZM1.85878 83.504C1.83478 83.072 1.87878 82.672 1.99078 82.304C2.10278 81.936 2.27478 81.62 2.50678 81.356C2.74678 81.084 3.04278 80.872 3.39478 80.72C3.74678 80.568 4.14678 80.492 4.59478 80.492C4.96278 80.492 5.30678 80.548 5.62678 80.66C5.95478 80.764 6.23878 80.92 6.47878 81.128C6.71878 81.328 6.90678 81.58 7.04278 81.884C7.18678 82.188 7.25878 82.54 7.25878 82.94C7.25878 83.316 7.19878 83.648 7.07878 83.936C6.96678 84.224 6.81478 84.484 6.62278 84.716C6.43078 84.94 6.21078 85.144 5.96278 85.328C5.71478 85.512 5.45878 85.688 5.19478 85.856C4.93078 86.016 4.66678 86.176 4.40278 86.336C4.13878 86.488 3.89478 86.652 3.67078 86.828C3.45478 87.004 3.26678 87.196 3.10678 87.404C2.95478 87.604 2.85478 87.836 2.80678 88.1H7.17478V89H1.61878C1.65878 88.496 1.74678 88.068 1.88278 87.716C2.02678 87.356 2.20678 87.044 2.42278 86.78C2.63878 86.516 2.88278 86.284 3.15478 86.084C3.42678 85.884 3.71078 85.696 4.00678 85.52C4.36678 85.296 4.68278 85.092 4.95478 84.908C5.22678 84.716 5.45078 84.524 5.62678 84.332C5.81078 84.14 5.94678 83.932 6.03478 83.708C6.13078 83.484 6.17878 83.224 6.17878 82.928C6.17878 82.696 6.13478 82.488 6.04678 82.304C5.95878 82.112 5.83878 81.948 5.68678 81.812C5.54278 81.676 5.37078 81.572 5.17078 81.5C4.97078 81.428 4.75878 81.392 4.53478 81.392C4.23878 81.392 3.98278 81.456 3.76678 81.584C3.55878 81.704 3.38678 81.864 3.25078 82.064C3.11478 82.264 3.01478 82.492 2.95078 82.748C2.89478 82.996 2.87078 83.248 2.87878 83.504H1.85878ZM8.64675 82.796H9.60675V83.78H9.63075C10.0547 83.028 10.7267 82.652 11.6467 82.652C12.0547 82.652 12.3947 82.708 12.6667 82.82C12.9387 82.932 13.1587 83.088 13.3267 83.288C13.4947 83.488 13.6107 83.728 13.6747 84.008C13.7467 84.28 13.7827 84.584 13.7827 84.92V89H12.7627V84.8C12.7627 84.416 12.6507 84.112 12.4267 83.888C12.2027 83.664 11.8947 83.552 11.5027 83.552C11.1907 83.552 10.9187 83.6 10.6867 83.696C10.4627 83.792 10.2747 83.928 10.1227 84.104C9.97075 84.28 9.85475 84.488 9.77475 84.728C9.70275 84.96 9.66675 85.216 9.66675 85.496V89H8.64675V82.796ZM15.9387 85.952C15.9387 86.24 15.9747 86.524 16.0467 86.804C16.1267 87.076 16.2427 87.32 16.3947 87.536C16.5547 87.752 16.7547 87.924 16.9947 88.052C17.2427 88.18 17.5307 88.244 17.8587 88.244C18.2027 88.244 18.4947 88.176 18.7347 88.04C18.9747 87.904 19.1707 87.728 19.3227 87.512C19.4747 87.288 19.5827 87.036 19.6467 86.756C19.7187 86.476 19.7547 86.192 19.7547 85.904C19.7547 85.6 19.7187 85.308 19.6467 85.028C19.5747 84.74 19.4587 84.488 19.2987 84.272C19.1467 84.056 18.9467 83.884 18.6987 83.756C18.4507 83.62 18.1507 83.552 17.7987 83.552C17.4547 83.552 17.1627 83.62 16.9227 83.756C16.6827 83.892 16.4907 84.072 16.3467 84.296C16.2027 84.52 16.0987 84.776 16.0347 85.064C15.9707 85.352 15.9387 85.648 15.9387 85.952ZM20.7387 89H19.7187V88.16H19.6947C19.5267 88.504 19.2627 88.752 18.9027 88.904C18.5427 89.056 18.1467 89.132 17.7147 89.132C17.2347 89.132 16.8147 89.044 16.4547 88.868C16.1027 88.692 15.8067 88.456 15.5667 88.16C15.3347 87.864 15.1587 87.52 15.0387 87.128C14.9187 86.736 14.8587 86.32 14.8587 85.88C14.8587 85.44 14.9147 85.024 15.0267 84.632C15.1467 84.24 15.3227 83.9 15.5547 83.612C15.7947 83.316 16.0907 83.084 16.4427 82.916C16.8027 82.74 17.2187 82.652 17.6907 82.652C17.8507 82.652 18.0227 82.668 18.2067 82.7C18.3907 82.732 18.5747 82.788 18.7587 82.868C18.9427 82.94 19.1147 83.04 19.2747 83.168C19.4427 83.288 19.5827 83.44 19.6947 83.624H19.7187V80.432H20.7387V89ZM31.9838 87.932C31.6478 88.38 31.2318 88.704 30.7358 88.904C30.2398 89.096 29.7398 89.192 29.2358 89.192C28.5958 89.192 28.0238 89.076 27.5198 88.844C27.0158 88.604 26.5878 88.284 26.2358 87.884C25.8838 87.484 25.6158 87.024 25.4318 86.504C25.2478 85.984 25.1558 85.444 25.1558 84.884C25.1558 84.26 25.2398 83.668 25.4078 83.108C25.5838 82.54 25.8398 82.044 26.1758 81.62C26.5198 81.196 26.9438 80.86 27.4478 80.612C27.9598 80.356 28.5558 80.228 29.2358 80.228C29.6998 80.228 30.1358 80.284 30.5438 80.396C30.9598 80.5 31.3278 80.668 31.6478 80.9C31.9758 81.132 32.2478 81.428 32.4638 81.788C32.6878 82.14 32.8398 82.568 32.9198 83.072H31.7798C31.7238 82.744 31.6198 82.464 31.4678 82.232C31.3158 81.992 31.1278 81.796 30.9038 81.644C30.6798 81.492 30.4238 81.38 30.1358 81.308C29.8558 81.228 29.5558 81.188 29.2358 81.188C28.7158 81.188 28.2678 81.292 27.8918 81.5C27.5238 81.708 27.2198 81.984 26.9798 82.328C26.7478 82.664 26.5758 83.052 26.4638 83.492C26.3518 83.924 26.2958 84.368 26.2958 84.824C26.2958 85.272 26.3598 85.704 26.4878 86.12C26.6158 86.528 26.8038 86.892 27.0518 87.212C27.2998 87.524 27.6038 87.776 27.9638 87.968C28.3318 88.152 28.7558 88.244 29.2358 88.244C29.6838 88.244 30.0798 88.172 30.4238 88.028C30.7678 87.884 31.0558 87.688 31.2878 87.44C31.5278 87.184 31.7078 86.888 31.8278 86.552C31.9478 86.208 31.9998 85.84 31.9838 85.448H29.2478V84.488H33.0038V89H32.2838L31.9838 87.932ZM38.7013 85.304C38.6853 85.064 38.6293 84.836 38.5333 84.62C38.4453 84.404 38.3213 84.22 38.1613 84.068C38.0093 83.908 37.8253 83.784 37.6093 83.696C37.4013 83.6 37.1693 83.552 36.9133 83.552C36.6493 83.552 36.4093 83.6 36.1933 83.696C35.9853 83.784 35.8053 83.908 35.6533 84.068C35.5013 84.228 35.3813 84.416 35.2933 84.632C35.2053 84.84 35.1533 85.064 35.1373 85.304H38.7013ZM39.6853 87.032C39.5493 87.728 39.2493 88.252 38.7853 88.604C38.3213 88.956 37.7373 89.132 37.0333 89.132C36.5373 89.132 36.1053 89.052 35.7373 88.892C35.3773 88.732 35.0733 88.508 34.8253 88.22C34.5773 87.932 34.3893 87.588 34.2613 87.188C34.1413 86.788 34.0733 86.352 34.0573 85.88C34.0573 85.408 34.1293 84.976 34.2733 84.584C34.4173 84.192 34.6173 83.852 34.8733 83.564C35.1373 83.276 35.4453 83.052 35.7973 82.892C36.1573 82.732 36.5493 82.652 36.9733 82.652C37.5253 82.652 37.9813 82.768 38.3413 83C38.7093 83.224 39.0013 83.512 39.2173 83.864C39.4413 84.216 39.5933 84.6 39.6733 85.016C39.7613 85.432 39.7973 85.828 39.7813 86.204H35.1373C35.1293 86.476 35.1613 86.736 35.2333 86.984C35.3053 87.224 35.4213 87.44 35.5813 87.632C35.7413 87.816 35.9453 87.964 36.1933 88.076C36.4413 88.188 36.7333 88.244 37.0693 88.244C37.5013 88.244 37.8533 88.144 38.1253 87.944C38.4053 87.744 38.5893 87.44 38.6773 87.032H39.6853ZM40.7186 82.796H41.6786V83.78H41.7026C42.1266 83.028 42.7986 82.652 43.7186 82.652C44.1266 82.652 44.4666 82.708 44.7386 82.82C45.0106 82.932 45.2306 83.088 45.3986 83.288C45.5666 83.488 45.6826 83.728 45.7466 84.008C45.8186 84.28 45.8546 84.584 45.8546 84.92V89H44.8346V84.8C44.8346 84.416 44.7226 84.112 44.4986 83.888C44.2746 83.664 43.9666 83.552 43.5746 83.552C43.2626 83.552 42.9906 83.6 42.7586 83.696C42.5346 83.792 42.3466 83.928 42.1946 84.104C42.0426 84.28 41.9266 84.488 41.8466 84.728C41.7746 84.96 41.7386 85.216 41.7386 85.496V89H40.7186V82.796ZM51.5746 85.304C51.5586 85.064 51.5026 84.836 51.4066 84.62C51.3186 84.404 51.1946 84.22 51.0346 84.068C50.8826 83.908 50.6986 83.784 50.4826 83.696C50.2746 83.6 50.0426 83.552 49.7866 83.552C49.5226 83.552 49.2826 83.6 49.0666 83.696C48.8586 83.784 48.6786 83.908 48.5266 84.068C48.3746 84.228 48.2546 84.416 48.1666 84.632C48.0786 84.84 48.0266 85.064 48.0106 85.304H51.5746ZM52.5586 87.032C52.4226 87.728 52.1226 88.252 51.6586 88.604C51.1946 88.956 50.6106 89.132 49.9066 89.132C49.4106 89.132 48.9786 89.052 48.6106 88.892C48.2506 88.732 47.9466 88.508 47.6986 88.22C47.4506 87.932 47.2626 87.588 47.1346 87.188C47.0146 86.788 46.9466 86.352 46.9306 85.88C46.9306 85.408 47.0026 84.976 47.1466 84.584C47.2906 84.192 47.4906 83.852 47.7466 83.564C48.0106 83.276 48.3186 83.052 48.6706 82.892C49.0306 82.732 49.4226 82.652 49.8466 82.652C50.3986 82.652 50.8546 82.768 51.2146 83C51.5826 83.224 51.8746 83.512 52.0906 83.864C52.3146 84.216 52.4666 84.6 52.5466 85.016C52.6346 85.432 52.6706 85.828 52.6546 86.204H48.0106C48.0026 86.476 48.0346 86.736 48.1066 86.984C48.1786 87.224 48.2946 87.44 48.4546 87.632C48.6146 87.816 48.8186 87.964 49.0666 88.076C49.3146 88.188 49.6066 88.244 49.9426 88.244C50.3746 88.244 50.7266 88.144 50.9986 87.944C51.2786 87.744 51.4626 87.44 51.5506 87.032H52.5586ZM53.5559 82.796H54.5159V84.104H54.5399C54.7879 83.6 55.0919 83.228 55.4519 82.988C55.8119 82.748 56.2679 82.636 56.8199 82.652V83.732C56.4119 83.732 56.0639 83.788 55.7759 83.9C55.4879 84.012 55.2559 84.176 55.0799 84.392C54.9039 84.608 54.7759 84.872 54.6959 85.184C54.6159 85.488 54.5759 85.84 54.5759 86.24V89H53.5559V82.796ZM62.964 88.976C62.788 89.08 62.544 89.132 62.232 89.132C61.968 89.132 61.756 89.06 61.596 88.916C61.444 88.764 61.368 88.52 61.368 88.184C61.088 88.52 60.76 88.764 60.384 88.916C60.016 89.06 59.616 89.132 59.184 89.132C58.904 89.132 58.636 89.1 58.38 89.036C58.132 88.972 57.916 88.872 57.732 88.736C57.548 88.6 57.4 88.424 57.288 88.208C57.184 87.984 57.132 87.716 57.132 87.404C57.132 87.052 57.192 86.764 57.312 86.54C57.432 86.316 57.588 86.136 57.78 86C57.98 85.856 58.204 85.748 58.452 85.676C58.708 85.604 58.968 85.544 59.232 85.496C59.512 85.44 59.776 85.4 60.024 85.376C60.28 85.344 60.504 85.304 60.696 85.256C60.888 85.2 61.04 85.124 61.152 85.028C61.264 84.924 61.32 84.776 61.32 84.584C61.32 84.36 61.276 84.18 61.188 84.044C61.108 83.908 61 83.804 60.864 83.732C60.736 83.66 60.588 83.612 60.42 83.588C60.26 83.564 60.1 83.552 59.94 83.552C59.508 83.552 59.148 83.636 58.86 83.804C58.572 83.964 58.416 84.272 58.392 84.728H57.372C57.388 84.344 57.468 84.02 57.612 83.756C57.756 83.492 57.948 83.28 58.188 83.12C58.428 82.952 58.7 82.832 59.004 82.76C59.316 82.688 59.648 82.652 60 82.652C60.28 82.652 60.556 82.672 60.828 82.712C61.108 82.752 61.36 82.836 61.584 82.964C61.808 83.084 61.988 83.256 62.124 83.48C62.26 83.704 62.328 83.996 62.328 84.356V87.548C62.328 87.788 62.34 87.964 62.364 88.076C62.396 88.188 62.492 88.244 62.652 88.244C62.74 88.244 62.844 88.224 62.964 88.184V88.976ZM61.308 85.796C61.18 85.892 61.012 85.964 60.804 86.012C60.596 86.052 60.376 86.088 60.144 86.12C59.92 86.144 59.692 86.176 59.46 86.216C59.228 86.248 59.02 86.304 58.836 86.384C58.652 86.464 58.5 86.58 58.38 86.732C58.268 86.876 58.212 87.076 58.212 87.332C58.212 87.5 58.244 87.644 58.308 87.764C58.38 87.876 58.468 87.968 58.572 88.04C58.684 88.112 58.812 88.164 58.956 88.196C59.1 88.228 59.252 88.244 59.412 88.244C59.748 88.244 60.036 88.2 60.276 88.112C60.516 88.016 60.712 87.9 60.864 87.764C61.016 87.62 61.128 87.468 61.2 87.308C61.272 87.14 61.308 86.984 61.308 86.84V85.796ZM65.2093 82.796H66.4453V83.696H65.2093V87.548C65.2093 87.668 65.2173 87.764 65.2333 87.836C65.2573 87.908 65.2973 87.964 65.3533 88.004C65.4093 88.044 65.4853 88.072 65.5813 88.088C65.6853 88.096 65.8173 88.1 65.9773 88.1H66.4453V89H65.6653C65.4013 89 65.1733 88.984 64.9813 88.952C64.7973 88.912 64.6453 88.844 64.5253 88.748C64.4133 88.652 64.3293 88.516 64.2733 88.34C64.2173 88.164 64.1893 87.932 64.1893 87.644V83.696H63.1333V82.796H64.1893V80.936H65.2093V82.796ZM68.5385 81.68H67.5185V80.432H68.5385V81.68ZM67.5185 82.796H68.5385V89H67.5185V82.796ZM70.7426 85.904C70.7426 86.28 70.7906 86.616 70.8866 86.912C70.9906 87.2 71.1306 87.444 71.3066 87.644C71.4826 87.836 71.6866 87.984 71.9186 88.088C72.1586 88.192 72.4106 88.244 72.6746 88.244C72.9386 88.244 73.1866 88.192 73.4186 88.088C73.6586 87.984 73.8666 87.836 74.0426 87.644C74.2186 87.444 74.3546 87.2 74.4506 86.912C74.5546 86.616 74.6066 86.28 74.6066 85.904C74.6066 85.528 74.5546 85.196 74.4506 84.908C74.3546 84.612 74.2186 84.364 74.0426 84.164C73.8666 83.964 73.6586 83.812 73.4186 83.708C73.1866 83.604 72.9386 83.552 72.6746 83.552C72.4106 83.552 72.1586 83.604 71.9186 83.708C71.6866 83.812 71.4826 83.964 71.3066 84.164C71.1306 84.364 70.9906 84.612 70.8866 84.908C70.7906 85.196 70.7426 85.528 70.7426 85.904ZM69.6626 85.904C69.6626 85.448 69.7266 85.024 69.8546 84.632C69.9826 84.232 70.1746 83.888 70.4306 83.6C70.6866 83.304 71.0026 83.072 71.3786 82.904C71.7546 82.736 72.1866 82.652 72.6746 82.652C73.1706 82.652 73.6026 82.736 73.9706 82.904C74.3466 83.072 74.6626 83.304 74.9186 83.6C75.1746 83.888 75.3666 84.232 75.4946 84.632C75.6226 85.024 75.6866 85.448 75.6866 85.904C75.6866 86.36 75.6226 86.784 75.4946 87.176C75.3666 87.568 75.1746 87.912 74.9186 88.208C74.6626 88.496 74.3466 88.724 73.9706 88.892C73.6026 89.052 73.1706 89.132 72.6746 89.132C72.1866 89.132 71.7546 89.052 71.3786 88.892C71.0026 88.724 70.6866 88.496 70.4306 88.208C70.1746 87.912 69.9826 87.568 69.8546 87.176C69.7266 86.784 69.6626 86.36 69.6626 85.904ZM76.7693 82.796H77.7293V83.78H77.7533C78.1773 83.028 78.8493 82.652 79.7693 82.652C80.1773 82.652 80.5173 82.708 80.7893 82.82C81.0613 82.932 81.2813 83.088 81.4493 83.288C81.6173 83.488 81.7333 83.728 81.7973 84.008C81.8693 84.28 81.9053 84.584 81.9053 84.92V89H80.8853V84.8C80.8853 84.416 80.7733 84.112 80.5493 83.888C80.3253 83.664 80.0173 83.552 79.6253 83.552C79.3133 83.552 79.0413 83.6 78.8093 83.696C78.5853 83.792 78.3973 83.928 78.2453 84.104C78.0933 84.28 77.9773 84.488 77.8973 84.728C77.8253 84.96 77.7893 85.216 77.7893 85.496V89H76.7693V82.796Z" fill="#1D1D1F"/>
<defs>
<clipPath id="clip0_1_37">
<rect width="39" height="54" fill="white" transform="translate(23.2949)"/>
</clipPath>
</defs>
</svg>
