<svg width="51" height="77" viewBox="0 0 51 77" fill="none" xmlns="http://www.w3.org/2000/svg">
<g clip-path="url(#clip0_1_52)">
<path d="M17.5 13H8.5C7.04185 13.0017 5.64391 13.5818 4.61284 14.6128C3.58177 15.6439 3.00175 17.0418 3 18.5L3 44.5C3.00183 45.9581 3.58187 47.356 4.61293 48.3871C5.64398 49.4181 7.04187 49.9982 8.5 50H17.5C18.9581 49.9982 20.356 49.4181 21.3871 48.3871C22.4181 47.356 22.9982 45.9581 23 44.5V18.5C22.9983 17.0418 22.4182 15.6439 21.3872 14.6128C20.3561 13.5818 18.9582 13.0017 17.5 13ZM21 44.5C20.9989 45.4279 20.6298 46.3175 19.9736 46.9736C19.3175 47.6298 18.4279 47.9989 17.5 48H8.5C7.57208 47.9989 6.68249 47.6298 6.02635 46.9736C5.37022 46.3175 5.00111 45.4279 5 44.5V18.5C5.00111 17.5721 5.37022 16.6825 6.02635 16.0264C6.68249 15.3702 7.57208 15.0011 8.5 15H17.5C18.4279 15.0011 19.3175 15.3702 19.9736 16.0264C20.6298 16.6825 20.9989 17.5721 21 18.5V44.5ZM47 36.5H48V42.5H47V36.5ZM35 13H41V14H35V13ZM47 28.5H48V34.5H47V28.5ZM35 49H41V50H35V49ZM29 34.5H28V28.5H29V34.5ZM29 26.5H28V20.5H29V26.5ZM29 42.5H28V36.5H29V42.5ZM43 14.05V13.0253C44.3655 13.1512 45.6349 13.7822 46.5597 14.7948C47.4845 15.8074 47.9981 17.1287 48 18.5H47C46.9979 17.396 46.5887 16.3315 45.8506 15.5104C45.1126 14.6893 44.0976 14.1693 43 14.05ZM47 44.5H48C47.9981 45.8713 47.4845 47.1926 46.5597 48.2052C45.6349 49.2178 44.3655 49.8488 43 49.9747V48.95C44.0976 48.8307 45.1126 48.3107 45.8506 47.4896C46.5887 46.6685 46.9979 45.604 47 44.5ZM33 13.0253V14.05C31.9024 14.1693 30.8874 14.6893 30.1494 15.5104C29.4113 16.3315 29.0021 17.396 29 18.5H28C28.0019 17.1287 28.5155 15.8074 29.4403 14.7948C30.3651 13.7822 31.6345 13.1512 33 13.0253ZM33 48.95V49.9751C31.6344 49.8492 30.365 49.2181 29.4402 48.2054C28.5154 47.1928 28.0018 45.8714 28 44.5H29C29.0021 45.604 29.4113 46.6685 30.1494 47.4896C30.8874 48.3107 31.9024 48.8307 33 48.95ZM47 20.5H48V26.5H47V20.5Z" fill="#1D1D1F"/>
</g>
<path d="M8.03484 67.012C7.90684 66.404 7.62284 65.948 7.18284 65.644C6.75084 65.34 6.23484 65.188 5.63484 65.188C5.12284 65.188 4.68284 65.284 4.31484 65.476C3.95484 65.668 3.65484 65.928 3.41484 66.256C3.18284 66.576 3.01084 66.944 2.89884 67.36C2.78684 67.776 2.73084 68.208 2.73084 68.656C2.73084 69.144 2.78684 69.608 2.89884 70.048C3.01084 70.48 3.18284 70.86 3.41484 71.188C3.65484 71.508 3.95884 71.764 4.32684 71.956C4.69484 72.148 5.13484 72.244 5.64684 72.244C6.02284 72.244 6.35484 72.184 6.64284 72.064C6.93884 71.936 7.19084 71.764 7.39884 71.548C7.61484 71.324 7.78284 71.06 7.90284 70.756C8.02284 70.452 8.09484 70.124 8.11884 69.772H9.25884C9.14684 70.852 8.77484 71.692 8.14284 72.292C7.51084 72.892 6.64684 73.192 5.55084 73.192C4.88684 73.192 4.30684 73.08 3.81084 72.856C3.31484 72.624 2.90284 72.308 2.57484 71.908C2.24684 71.508 1.99884 71.036 1.83084 70.492C1.67084 69.948 1.59084 69.364 1.59084 68.74C1.59084 68.116 1.67884 67.532 1.85484 66.988C2.03084 66.436 2.28684 65.956 2.62284 65.548C2.96684 65.14 3.39084 64.82 3.89484 64.588C4.40684 64.348 4.99084 64.228 5.64684 64.228C6.09484 64.228 6.51884 64.288 6.91884 64.408C7.31884 64.528 7.67484 64.704 7.98684 64.936C8.29884 65.168 8.55884 65.46 8.76684 65.812C8.97484 66.156 9.11084 66.556 9.17484 67.012H8.03484ZM11.127 69.904C11.127 70.28 11.175 70.616 11.271 70.912C11.375 71.2 11.515 71.444 11.691 71.644C11.867 71.836 12.071 71.984 12.303 72.088C12.543 72.192 12.795 72.244 13.059 72.244C13.323 72.244 13.571 72.192 13.803 72.088C14.043 71.984 14.251 71.836 14.427 71.644C14.603 71.444 14.739 71.2 14.835 70.912C14.939 70.616 14.991 70.28 14.991 69.904C14.991 69.528 14.939 69.196 14.835 68.908C14.739 68.612 14.603 68.364 14.427 68.164C14.251 67.964 14.043 67.812 13.803 67.708C13.571 67.604 13.323 67.552 13.059 67.552C12.795 67.552 12.543 67.604 12.303 67.708C12.071 67.812 11.867 67.964 11.691 68.164C11.515 68.364 11.375 68.612 11.271 68.908C11.175 69.196 11.127 69.528 11.127 69.904ZM10.047 69.904C10.047 69.448 10.111 69.024 10.239 68.632C10.367 68.232 10.559 67.888 10.815 67.6C11.071 67.304 11.387 67.072 11.763 66.904C12.139 66.736 12.571 66.652 13.059 66.652C13.555 66.652 13.987 66.736 14.355 66.904C14.731 67.072 15.047 67.304 15.303 67.6C15.559 67.888 15.751 68.232 15.879 68.632C16.007 69.024 16.071 69.448 16.071 69.904C16.071 70.36 16.007 70.784 15.879 71.176C15.751 71.568 15.559 71.912 15.303 72.208C15.047 72.496 14.731 72.724 14.355 72.892C13.987 73.052 13.555 73.132 13.059 73.132C12.571 73.132 12.139 73.052 11.763 72.892C11.387 72.724 11.071 72.496 10.815 72.208C10.559 71.912 10.367 71.568 10.239 71.176C10.111 70.784 10.047 70.36 10.047 69.904ZM17.1536 66.796H18.1136V67.708H18.1376C18.6016 67.004 19.2696 66.652 20.1416 66.652C20.5256 66.652 20.8736 66.732 21.1856 66.892C21.4976 67.052 21.7176 67.324 21.8456 67.708C22.0536 67.372 22.3256 67.112 22.6616 66.928C23.0056 66.744 23.3816 66.652 23.7896 66.652C24.1016 66.652 24.3816 66.688 24.6296 66.76C24.8856 66.824 25.1016 66.928 25.2776 67.072C25.4616 67.216 25.6016 67.404 25.6976 67.636C25.8016 67.86 25.8536 68.132 25.8536 68.452V73H24.8336V68.932C24.8336 68.74 24.8176 68.56 24.7856 68.392C24.7536 68.224 24.6936 68.08 24.6056 67.96C24.5176 67.832 24.3936 67.732 24.2336 67.66C24.0816 67.588 23.8816 67.552 23.6336 67.552C23.1296 67.552 22.7336 67.696 22.4456 67.984C22.1576 68.272 22.0136 68.656 22.0136 69.136V73H20.9936V68.932C20.9936 68.732 20.9736 68.548 20.9336 68.38C20.9016 68.212 20.8416 68.068 20.7536 67.948C20.6656 67.82 20.5456 67.724 20.3936 67.66C20.2496 67.588 20.0616 67.552 19.8296 67.552C19.5336 67.552 19.2776 67.612 19.0616 67.732C18.8536 67.852 18.6816 67.996 18.5456 68.164C18.4176 68.332 18.3216 68.508 18.2576 68.692C18.2016 68.868 18.1736 69.016 18.1736 69.136V73H17.1536V66.796ZM27.3001 66.796H28.3201V67.636H28.3441C28.5121 67.292 28.7761 67.044 29.1361 66.892C29.4961 66.732 29.8921 66.652 30.3241 66.652C30.8041 66.652 31.2201 66.74 31.5721 66.916C31.9321 67.092 32.2281 67.332 32.4601 67.636C32.7001 67.932 32.8801 68.276 33.0001 68.668C33.1201 69.06 33.1801 69.476 33.1801 69.916C33.1801 70.356 33.1201 70.772 33.0001 71.164C32.8881 71.556 32.7121 71.9 32.4721 72.196C32.2401 72.484 31.9441 72.712 31.5841 72.88C31.2321 73.048 30.8201 73.132 30.3481 73.132C30.1961 73.132 30.0241 73.116 29.8321 73.084C29.6481 73.052 29.4641 73 29.2801 72.928C29.0961 72.856 28.9201 72.76 28.7521 72.64C28.5921 72.512 28.4561 72.356 28.3441 72.172H28.3201V75.364H27.3001V66.796ZM32.1001 69.844C32.1001 69.556 32.0601 69.276 31.9801 69.004C31.9081 68.724 31.7921 68.476 31.6321 68.26C31.4801 68.044 31.2801 67.872 31.0321 67.744C30.7921 67.616 30.5081 67.552 30.1801 67.552C29.8361 67.552 29.5441 67.62 29.3041 67.756C29.0641 67.892 28.8681 68.072 28.7161 68.296C28.5641 68.512 28.4521 68.76 28.3801 69.04C28.3161 69.32 28.2841 69.604 28.2841 69.892C28.2841 70.196 28.3201 70.492 28.3921 70.78C28.4641 71.06 28.5761 71.308 28.7281 71.524C28.8881 71.74 29.0921 71.916 29.3401 72.052C29.5881 72.18 29.8881 72.244 30.2401 72.244C30.5921 72.244 30.8841 72.176 31.1161 72.04C31.3561 71.904 31.5481 71.724 31.6921 71.5C31.8361 71.276 31.9401 71.02 32.0041 70.732C32.0681 70.444 32.1001 70.148 32.1001 69.844ZM39.7534 72.976C39.5774 73.08 39.3334 73.132 39.0214 73.132C38.7574 73.132 38.5454 73.06 38.3854 72.916C38.2334 72.764 38.1574 72.52 38.1574 72.184C37.8774 72.52 37.5494 72.764 37.1734 72.916C36.8054 73.06 36.4054 73.132 35.9734 73.132C35.6934 73.132 35.4254 73.1 35.1694 73.036C34.9214 72.972 34.7054 72.872 34.5214 72.736C34.3374 72.6 34.1894 72.424 34.0774 72.208C33.9734 71.984 33.9214 71.716 33.9214 71.404C33.9214 71.052 33.9814 70.764 34.1014 70.54C34.2214 70.316 34.3774 70.136 34.5694 70C34.7694 69.856 34.9934 69.748 35.2414 69.676C35.4974 69.604 35.7574 69.544 36.0214 69.496C36.3014 69.44 36.5654 69.4 36.8134 69.376C37.0694 69.344 37.2934 69.304 37.4854 69.256C37.6774 69.2 37.8294 69.124 37.9414 69.028C38.0534 68.924 38.1094 68.776 38.1094 68.584C38.1094 68.36 38.0654 68.18 37.9774 68.044C37.8974 67.908 37.7894 67.804 37.6534 67.732C37.5254 67.66 37.3774 67.612 37.2094 67.588C37.0494 67.564 36.8894 67.552 36.7294 67.552C36.2974 67.552 35.9374 67.636 35.6494 67.804C35.3614 67.964 35.2054 68.272 35.1814 68.728H34.1614C34.1774 68.344 34.2574 68.02 34.4014 67.756C34.5454 67.492 34.7374 67.28 34.9774 67.12C35.2174 66.952 35.4894 66.832 35.7934 66.76C36.1054 66.688 36.4374 66.652 36.7894 66.652C37.0694 66.652 37.3454 66.672 37.6174 66.712C37.8974 66.752 38.1494 66.836 38.3734 66.964C38.5974 67.084 38.7774 67.256 38.9134 67.48C39.0494 67.704 39.1174 67.996 39.1174 68.356V71.548C39.1174 71.788 39.1294 71.964 39.1534 72.076C39.1854 72.188 39.2814 72.244 39.4414 72.244C39.5294 72.244 39.6334 72.224 39.7534 72.184V72.976ZM38.0974 69.796C37.9694 69.892 37.8014 69.964 37.5934 70.012C37.3854 70.052 37.1654 70.088 36.9334 70.12C36.7094 70.144 36.4814 70.176 36.2494 70.216C36.0174 70.248 35.8094 70.304 35.6254 70.384C35.4414 70.464 35.2894 70.58 35.1694 70.732C35.0574 70.876 35.0014 71.076 35.0014 71.332C35.0014 71.5 35.0334 71.644 35.0974 71.764C35.1694 71.876 35.2574 71.968 35.3614 72.04C35.4734 72.112 35.6014 72.164 35.7454 72.196C35.8894 72.228 36.0414 72.244 36.2014 72.244C36.5374 72.244 36.8254 72.2 37.0654 72.112C37.3054 72.016 37.5014 71.9 37.6534 71.764C37.8054 71.62 37.9174 71.468 37.9894 71.308C38.0614 71.14 38.0974 70.984 38.0974 70.84V69.796ZM40.5467 66.796H41.5067V68.104H41.5307C41.7787 67.6 42.0827 67.228 42.4427 66.988C42.8027 66.748 43.2587 66.636 43.8107 66.652V67.732C43.4027 67.732 43.0547 67.788 42.7667 67.9C42.4787 68.012 42.2467 68.176 42.0707 68.392C41.8947 68.608 41.7667 68.872 41.6867 69.184C41.6067 69.488 41.5667 69.84 41.5667 70.24V73H40.5467V66.796ZM48.5558 69.304C48.5398 69.064 48.4838 68.836 48.3878 68.62C48.2998 68.404 48.1758 68.22 48.0158 68.068C47.8638 67.908 47.6798 67.784 47.4638 67.696C47.2558 67.6 47.0238 67.552 46.7678 67.552C46.5038 67.552 46.2638 67.6 46.0478 67.696C45.8398 67.784 45.6598 67.908 45.5078 68.068C45.3558 68.228 45.2358 68.416 45.1478 68.632C45.0598 68.84 45.0078 69.064 44.9918 69.304H48.5558ZM49.5398 71.032C49.4038 71.728 49.1038 72.252 48.6398 72.604C48.1758 72.956 47.5918 73.132 46.8878 73.132C46.3918 73.132 45.9598 73.052 45.5918 72.892C45.2318 72.732 44.9278 72.508 44.6798 72.22C44.4318 71.932 44.2438 71.588 44.1158 71.188C43.9958 70.788 43.9278 70.352 43.9118 69.88C43.9118 69.408 43.9838 68.976 44.1278 68.584C44.2718 68.192 44.4718 67.852 44.7278 67.564C44.9918 67.276 45.2998 67.052 45.6518 66.892C46.0118 66.732 46.4038 66.652 46.8278 66.652C47.3798 66.652 47.8358 66.768 48.1958 67C48.5638 67.224 48.8558 67.512 49.0718 67.864C49.2958 68.216 49.4478 68.6 49.5278 69.016C49.6158 69.432 49.6518 69.828 49.6358 70.204H44.9918C44.9838 70.476 45.0158 70.736 45.0878 70.984C45.1598 71.224 45.2758 71.44 45.4358 71.632C45.5958 71.816 45.7998 71.964 46.0478 72.076C46.2958 72.188 46.5878 72.244 46.9238 72.244C47.3558 72.244 47.7078 72.144 47.9798 71.944C48.2598 71.744 48.4438 71.44 48.5318 71.032H49.5398Z" fill="#1D1D1F"/>
<defs>
<clipPath id="clip0_1_52">
<rect width="45" height="54" fill="white" transform="translate(3)"/>
</clipPath>
</defs>
</svg>
