<svg width="263" height="57" viewBox="0 0 263 57" fill="none" xmlns="http://www.w3.org/2000/svg">
<rect y="0.00012207" width="92.8316" height="56.3158" rx="28.1579" fill="#0071E3"/>
<path d="M31.7922 27.4182H35.8722C37.0318 27.4182 37.8621 27.2178 38.3632 26.817C38.8785 26.4018 39.1362 25.7862 39.1362 24.9702C39.1362 24.4262 39.0503 23.9968 38.8785 23.6818C38.7067 23.3669 38.4705 23.1235 38.1699 22.9517C37.8693 22.7799 37.5185 22.6725 37.1177 22.6296C36.7312 22.5723 36.316 22.5437 35.8722 22.5437H31.7922V27.4182ZM29.7522 20.8258H35.3139C35.6432 20.8258 35.9939 20.833 36.3661 20.8473C36.7526 20.8473 37.132 20.8688 37.5042 20.9117C37.8764 20.9403 38.22 20.9904 38.535 21.062C38.8642 21.1336 39.1434 21.241 39.3724 21.3841C39.8735 21.6848 40.2958 22.0999 40.6394 22.6296C40.9973 23.1593 41.1762 23.8106 41.1762 24.5837C41.1762 25.3997 40.9758 26.1083 40.575 26.7096C40.1884 27.2965 39.6301 27.7332 38.9 28.0195V28.0624C39.8449 28.2629 40.5678 28.6923 41.0689 29.3509C41.5699 30.0094 41.8204 30.8111 41.8204 31.7559C41.8204 32.3142 41.7202 32.8582 41.5198 33.3879C41.3194 33.9176 41.0187 34.39 40.6179 34.8052C40.2314 35.206 39.7446 35.5353 39.1577 35.793C38.5851 36.0363 37.9194 36.158 37.1606 36.158H29.7522V20.8258ZM31.7922 34.4401H36.903C37.8049 34.4401 38.5063 34.1968 39.0074 33.71C39.5227 33.2233 39.7804 32.5504 39.7804 31.6915C39.7804 31.1904 39.6874 30.7753 39.5013 30.446C39.3152 30.1168 39.0646 29.8591 38.7497 29.673C38.4491 29.4725 38.0983 29.3365 37.6975 29.265C37.2966 29.1791 36.8815 29.1361 36.452 29.1361H31.7922V34.4401ZM52.8702 36.158H51.1523V34.3972H51.1093C50.7228 35.0843 50.2289 35.5925 49.6276 35.9218C49.0264 36.2368 48.3177 36.3942 47.5017 36.3942C46.7716 36.3942 46.1632 36.3012 45.6765 36.1151C45.1897 35.9147 44.796 35.6355 44.4954 35.2776C44.1948 34.9197 43.98 34.4974 43.8512 34.0107C43.7367 33.5096 43.6794 32.9584 43.6794 32.3572V25.0561H45.5047V32.5719C45.5047 33.2591 45.7051 33.8031 46.1059 34.2039C46.5068 34.6048 47.0579 34.8052 47.7594 34.8052C48.3177 34.8052 48.7973 34.7193 49.1982 34.5475C49.6133 34.3757 49.9569 34.1323 50.2289 33.8174C50.5009 33.5024 50.7013 33.1374 50.8302 32.7222C50.9733 32.2928 51.0449 31.8275 51.0449 31.3264V25.0561H52.8702V36.158ZM59.4983 37.6397C59.2836 38.1837 59.0688 38.6418 58.8541 39.014C58.6537 39.3862 58.4246 39.6869 58.1669 39.9159C57.9236 40.1593 57.6444 40.3311 57.3295 40.4313C57.0288 40.5458 56.6781 40.6031 56.2773 40.6031C56.0625 40.6031 55.8478 40.5888 55.633 40.5601C55.4183 40.5315 55.2107 40.4814 55.0103 40.4098V38.7349C55.1678 38.8064 55.3467 38.8637 55.5471 38.9067C55.7619 38.9639 55.9408 38.9925 56.084 38.9925C56.4562 38.9925 56.764 38.8995 57.0074 38.7134C57.265 38.5416 57.4583 38.2911 57.5871 37.9618L58.3387 36.0936L53.9366 25.0561H55.9981L59.2406 34.1395H59.2836L62.3973 25.0561H64.3299L59.4983 37.6397Z" fill="white"/>
<path d="M128.386 33.4808V35.5791H117.04V16.8889H119.371V33.4808H128.386ZM135.905 23.8314C133.794 23.8314 132.317 25.4504 132.175 27.6911H139.493C139.441 25.4374 138.029 23.8314 135.905 23.8314ZM139.441 31.7193H141.656C141.268 34.0766 138.988 35.8122 136.048 35.8122C132.188 35.8122 129.844 33.1311 129.844 28.8957C129.844 24.7121 132.227 21.8756 135.944 21.8756C139.584 21.8756 141.824 24.5178 141.824 28.5978V29.4527H132.162V29.5822C132.162 32.1597 133.677 33.8564 136.1 33.8564C137.809 33.8564 139.066 32.9886 139.441 31.7193ZM148.839 33.8953C150.963 33.8953 152.595 32.4058 152.595 30.4629V29.362L148.994 29.5822C147.181 29.6988 146.144 30.5018 146.144 31.7711C146.144 33.0534 147.219 33.8953 148.839 33.8953ZM148.333 35.8122C145.652 35.8122 143.852 34.1932 143.852 31.7711C143.852 29.4656 145.626 28.015 148.735 27.8336L152.595 27.6134V26.4866C152.595 24.8416 151.507 23.8573 149.642 23.8573C147.906 23.8573 146.818 24.6733 146.533 25.9944H144.357C144.512 23.663 146.507 21.8756 149.693 21.8756C152.854 21.8756 154.848 23.5853 154.848 26.2664V35.5791H152.711V33.2606H152.659C151.856 34.802 150.147 35.8122 148.333 35.8122ZM158.003 35.5791V22.1087H160.127V24.3106H160.179C160.619 22.8211 161.862 21.8756 163.443 21.8756C163.831 21.8756 164.168 21.9403 164.349 21.9662V24.1552C164.168 24.0904 163.689 24.0256 163.145 24.0256C161.396 24.0256 160.256 25.282 160.256 27.186V35.5791H158.003ZM166.48 35.5791V22.1087H168.604V24.2588H168.656C169.407 22.8081 170.845 21.8756 172.931 21.8756C175.884 21.8756 177.593 23.7796 177.593 26.8363V35.5791H175.34V27.2378C175.34 25.0618 174.316 23.8702 172.244 23.8702C170.12 23.8702 168.734 25.3727 168.734 27.6523V35.5791H166.48ZM186.492 35.5791V22.1087H188.616V24.2588H188.668C189.303 22.834 190.676 21.8756 192.489 21.8756C194.328 21.8756 195.688 22.8081 196.271 24.4401H196.323C197.074 22.834 198.655 21.8756 200.546 21.8756C203.214 21.8756 204.936 23.6112 204.936 26.2793V35.5791H202.683V26.7974C202.683 24.9582 201.659 23.8702 199.885 23.8702C198.098 23.8702 196.841 25.1914 196.841 27.0176V35.5791H194.588V26.5513C194.588 24.9323 193.5 23.8702 191.829 23.8702C190.041 23.8702 188.746 25.2691 188.746 27.1342V35.5791H186.492ZM213.686 35.8122C209.956 35.8122 207.443 33.1311 207.443 28.8439C207.443 24.5437 209.956 21.8756 213.686 21.8756C217.403 21.8756 219.916 24.5437 219.916 28.8439C219.916 33.1311 217.403 35.8122 213.686 35.8122ZM213.686 33.8305C216.069 33.8305 217.624 32.0172 217.624 28.8439C217.624 25.6706 216.069 23.8573 213.686 23.8573C211.303 23.8573 209.736 25.6706 209.736 28.8439C209.736 32.0172 211.303 33.8305 213.686 33.8305ZM222.487 35.5791V22.1087H224.612V24.3106H224.663C225.104 22.8211 226.347 21.8756 227.927 21.8756C228.316 21.8756 228.653 21.9403 228.834 21.9662V24.1552C228.653 24.0904 228.174 24.0256 227.63 24.0256C225.881 24.0256 224.741 25.282 224.741 27.186V35.5791H222.487ZM235.719 23.8314C233.607 23.8314 232.131 25.4504 231.988 27.6911H239.306C239.255 25.4374 237.843 23.8314 235.719 23.8314ZM239.255 31.7193H241.469C241.081 34.0766 238.801 35.8122 235.861 35.8122C232.001 35.8122 229.657 33.1311 229.657 28.8957C229.657 24.7121 232.04 21.8756 235.757 21.8756C239.397 21.8756 241.638 24.5178 241.638 28.5978V29.4527H231.975V29.5822C231.975 32.1597 233.491 33.8564 235.913 33.8564C237.623 33.8564 238.879 32.9886 239.255 31.7193Z" fill="#0066CC"/>
<g clip-path="url(#clip0_1_310)">
<path d="M251.594 35.3242C251.327 35.3242 251.098 35.2314 250.908 35.0458C250.718 34.8601 250.623 34.6335 250.623 34.3658C250.623 34.0982 250.722 33.865 250.921 33.6665L256.153 28.4471L250.921 23.2278C250.722 23.0292 250.623 22.7961 250.623 22.5284C250.623 22.2607 250.718 22.0341 250.908 21.8485C251.098 21.6628 251.327 21.57 251.594 21.57C251.845 21.57 252.069 21.6607 252.268 21.842L258.174 27.7218C258.381 27.9118 258.484 28.1536 258.484 28.4471C258.484 28.7234 258.381 28.9652 258.174 29.1724L252.268 35.0522C252.087 35.2336 251.862 35.3242 251.594 35.3242Z" fill="#0066CC"/>
</g>
<defs>
<clipPath id="clip0_1_310">
<rect width="12.0126" height="26.5263" fill="white" transform="matrix(1 0 0 -1 250.625 41.6843)"/>
</clipPath>
</defs>
</svg>
