<svg width="146" height="20" viewBox="0 0 146 20" fill="none" xmlns="http://www.w3.org/2000/svg">
<path d="M3.23808 11.6959L9.14433 19.545H6.34664L6.56769e-06 11.1131V10.1158H2.00761C4.58512 10.1158 6.32073 9.06662 6.59273 7.34396H6.56769e-06V5.58245H6.59273C6.34664 3.85979 4.97369 2.83656 2.87542 2.83656H0.0129589V0.854855H12.7451V2.66818H7.33101V2.87541C8.19881 3.47122 8.76872 4.4556 8.88529 5.58245H12.7451V7.34396H8.85938C8.49672 9.8049 6.1653 11.6959 3.48418 11.6959H3.23808ZM22.1941 19.8559C18.6193 19.8559 15.977 17.6281 15.7828 14.4418H18.0753C18.2825 16.4365 19.9793 17.8094 22.22 17.8094C24.7587 17.8094 26.5202 16.0479 26.5202 13.5352C26.5202 11.0224 24.7457 9.22204 22.2589 9.22204C20.5103 9.22204 19.0208 10.0121 18.2566 11.3203H16.0677L17.0909 0.854855H27.7895V2.92722H19.0079L18.438 9.01481H18.4898C19.3317 7.88796 20.886 7.21444 22.6734 7.21444C26.2612 7.21444 28.8516 9.84375 28.8516 13.4704C28.8516 17.2266 26.0928 19.8559 22.1941 19.8559ZM37.5236 19.8559C34.3373 19.8559 31.8893 17.9389 31.3194 15.0117H33.6897C34.1819 16.7085 35.6973 17.8224 37.5495 17.8224C40.658 17.8224 42.4454 14.9988 42.5102 10.038H42.4972C42.4843 10.038 42.4843 10.038 42.4713 10.038C41.6812 11.8902 39.6348 13.0948 37.2516 13.0948C33.6897 13.0948 31.0474 10.4655 31.0474 6.91653C31.0474 3.22513 33.8321 0.531047 37.666 0.531047C40.4767 0.531047 42.7045 2.04647 43.8443 4.72759C44.466 6.1653 44.7639 7.8491 44.7639 9.88261C44.7639 16.1774 42.0957 19.8559 37.5236 19.8559ZM37.6531 11.0483C40.127 11.0483 41.9662 9.2868 41.9662 6.90358C41.9662 4.5074 40.1011 2.62932 37.6919 2.62932C35.2958 2.62932 33.4047 4.49445 33.4047 6.83882C33.4047 9.27385 35.2051 11.0483 37.6531 11.0483ZM53.6949 19.8559C50.5086 19.8559 48.0606 17.9389 47.4907 15.0117H49.861C50.3532 16.7085 51.8686 17.8224 53.7208 17.8224C56.8293 17.8224 58.6167 14.9988 58.6815 10.038H58.6686C58.6556 10.038 58.6556 10.038 58.6426 10.038C57.8526 11.8902 55.8061 13.0948 53.4229 13.0948C49.861 13.0948 47.2187 10.4655 47.2187 6.91653C47.2187 3.22513 50.0035 0.531047 53.8373 0.531047C56.648 0.531047 58.8758 2.04647 60.0156 4.72759C60.6373 6.1653 60.9352 7.8491 60.9352 9.88261C60.9352 16.1774 58.267 19.8559 53.6949 19.8559ZM53.8244 11.0483C56.2983 11.0483 58.1375 9.2868 58.1375 6.90358C58.1375 4.5074 56.2724 2.62932 53.8632 2.62932C51.4671 2.62932 49.576 4.49445 49.576 6.83882C49.576 9.27385 51.3764 11.0483 53.8244 11.0483ZM70.462 19.8559C66.0971 19.8559 63.5714 16.0997 63.5714 10.1935C63.5714 4.33902 66.123 0.543999 70.462 0.543999C74.801 0.543999 77.3267 4.31312 77.3267 10.1805C77.3267 16.0868 74.814 19.8559 70.462 19.8559ZM70.462 17.8224C73.3763 17.8224 74.9823 14.8563 74.9823 10.1935C74.9823 5.5954 73.3504 2.59046 70.462 2.59046C67.5736 2.59046 65.9157 5.6213 65.9157 10.1805C65.9157 14.8433 67.5348 17.8224 70.462 17.8224ZM86.8405 19.8559C82.4756 19.8559 79.9499 16.0997 79.9499 10.1935C79.9499 4.33902 82.5015 0.543999 86.8405 0.543999C91.1796 0.543999 93.7053 4.31312 93.7053 10.1805C93.7053 16.0868 91.1925 19.8559 86.8405 19.8559ZM86.8405 17.8224C89.7548 17.8224 91.3609 14.8563 91.3609 10.1935C91.3609 5.5954 89.7289 2.59046 86.8405 2.59046C83.9522 2.59046 82.2943 5.6213 82.2943 10.1805C82.2943 14.8433 83.9133 17.8224 86.8405 17.8224ZM98.0123 19.6746C97.1833 19.6746 96.5357 19.0269 96.5357 18.198C96.5357 17.369 97.1833 16.7214 98.0123 16.7214C98.8412 16.7214 99.4888 17.369 99.4888 18.198C99.4888 19.0269 98.8412 19.6746 98.0123 19.6746ZM109.728 19.8559C105.363 19.8559 102.837 16.0997 102.837 10.1935C102.837 4.33902 105.389 0.543999 109.728 0.543999C114.067 0.543999 116.593 4.31312 116.593 10.1805C116.593 16.0868 114.08 19.8559 109.728 19.8559ZM109.728 17.8224C112.642 17.8224 114.248 14.8563 114.248 10.1935C114.248 5.5954 112.616 2.59046 109.728 2.59046C106.84 2.59046 105.182 5.6213 105.182 10.1805C105.182 14.8433 106.801 17.8224 109.728 17.8224ZM126.107 19.8559C121.742 19.8559 119.216 16.0997 119.216 10.1935C119.216 4.33902 121.768 0.543999 126.107 0.543999C130.446 0.543999 132.971 4.31312 132.971 10.1805C132.971 16.0868 130.459 19.8559 126.107 19.8559ZM126.107 17.8224C129.021 17.8224 130.627 14.8563 130.627 10.1935C130.627 5.5954 128.995 2.59046 126.107 2.59046C123.218 2.59046 121.56 5.6213 121.56 10.1805C121.56 14.8433 123.179 17.8224 126.107 17.8224ZM144.713 8.10814L141.565 6.12644L141.695 9.84375H139.998L140.141 6.12644L136.954 8.1211L136.151 6.56682L139.415 4.90893L136.164 3.23808L136.967 1.73561L140.141 3.69141L140.011 2.68407e-06H141.695L141.565 3.70436L144.726 1.73561L145.555 3.23808L142.265 4.92188L145.555 6.57977L144.713 8.10814Z" fill="#1D1D1F"/>
</svg>
